<svg id="圖層_1" data-name="圖層 1" xmlns="http://www.w3.org/2000/svg" viewBox="0 0 85.04 85.04"><defs><style>.cls-1{fill:#2149a4;}.cls-2{fill:#4e60ff;}</style></defs><title>_</title><path class="cls-1" d="M28.34,38.05a9.51,9.51,0,0,0-9.51-9.51h0a9.5,9.5,0,0,0-9.5,9.51V52a9.5,9.5,0,0,0,9.5,9.5h0A9.5,9.5,0,0,0,28.34,52Z"/><path class="cls-2" d="M51,22.22a9.5,9.5,0,0,0-9.5-9.51h0A9.5,9.5,0,0,0,32,22.22V36.14a9.5,9.5,0,0,0,9.5,9.5h0a9.5,9.5,0,0,0,9.5-9.5Z"/><path class="cls-1" d="M73.71,22.22a9.5,9.5,0,0,0-9.5-9.51h0a9.51,9.51,0,0,0-9.51,9.51V67.8a9.5,9.5,0,0,0,9.51,9.5h0a9.5,9.5,0,0,0,9.5-9.5Z"/></svg>