<svg id="58d18423-d53d-4154-900f-47230c59d990" data-name="圖層 1" xmlns="http://www.w3.org/2000/svg" viewBox="0 0 112.67 110.51"><defs><style>.c1c59a6e-be58-4cb6-a262-9f6cd38be6f9{fill:#f6f6f6;}</style></defs><title>icon</title><path class="c1c59a6e-be58-4cb6-a262-9f6cd38be6f9" d="M18.44,83.84,13,84.06c-1,0-2.06.1-3.09.09a5.12,5.12,0,0,1-5-4.82q0-.32,0-.63,0-26.47,0-52.93a7.59,7.59,0,0,1,5.45-7.5,8.72,8.72,0,0,1,2.42-.36q43.62,0,87.24,0a7.67,7.67,0,0,1,7.88,7.8q0,24.74,0,49.49a8.79,8.79,0,0,1-9.13,9q-30.86,0-61.72,0a2.26,2.26,0,0,0-1.68.65q-10.82,10-21.68,20a.73.73,0,0,1-.46.21Zm44.94-23.2c-.48.58-.89,1.18-1.4,1.69a8.72,8.72,0,0,1-11.32.78c-1.16-.81-2.16-1.83-3.3-2.81L42,63.93a17.38,17.38,0,0,0,16.26,7.53c4.46-.57,10.24-4.61,11.07-8ZM74.69,49.08v-13H68v13Zm-34.44,0v-13H33.62v13Z"/></svg>