<svg id="be5c2178-6471-47ff-aa56-eff89073ed90" data-name="圖層 1" xmlns="http://www.w3.org/2000/svg" viewBox="0 0 2010.2 1278.13"><defs><style>.fd42918f-8d90-4dc5-874e-c75f93d72972{fill:none;stroke:#f6f6f6;stroke-miterlimit:10;stroke-width:91px;}</style></defs><title>icon</title><polyline class="fd42918f-8d90-4dc5-874e-c75f93d72972" points="63.92 587.01 63.92 67.74 139.65 67.74 309.23 543.61 341.52 543.97 502.91 67.74 584.1 67.74 584.1 587.86"/><polyline class="fd42918f-8d90-4dc5-874e-c75f93d72972" points="1182.65 543.55 777.21 543.55 777.21 49.47 1182.65 49.47"/><line class="fd42918f-8d90-4dc5-874e-c75f93d72972" x1="1148.78" y1="286.94" x2="777.21" y2="286.94"/><line class="fd42918f-8d90-4dc5-874e-c75f93d72972" x1="1322.97" y1="347.43" x2="1549.32" y2="347.43"/><line class="fd42918f-8d90-4dc5-874e-c75f93d72972" x1="188.17" y1="687.66" x2="686.72" y2="687.66"/><line class="fd42918f-8d90-4dc5-874e-c75f93d72972" x1="437.3" y1="1174.73" x2="437.3" y2="691.14"/><line class="fd42918f-8d90-4dc5-874e-c75f93d72972" x1="857.82" y1="1174.73" x2="857.82" y2="642.79"/><path class="fd42918f-8d90-4dc5-874e-c75f93d72972" d="M857.82,688.14h241.24s132.22-4,132.22,141-132.22,122.94-132.22,122.94H857.82"/><line class="fd42918f-8d90-4dc5-874e-c75f93d72972" x1="1067.16" y1="958.47" x2="1242.87" y2="1203.8"/><ellipse class="fd42918f-8d90-4dc5-874e-c75f93d72972" cx="1691.48" cy="932.7" rx="253.55" ry="231.82" transform="translate(709.38 2595.99) rotate(-88.31)"/></svg>