<svg id="19d88583-e1ff-4878-a27e-f0ec2a27d27d" data-name="圖層 1" xmlns="http://www.w3.org/2000/svg" viewBox="0 0 210.07 59.33"><defs><style>.a307eb33-62ff-48cf-977c-381633a6714a{fill:#020202;}</style></defs><title>icon</title><path class="a307eb33-62ff-48cf-977c-381633a6714a" d="M63.38,39.44c-4.67-5.81-11.72-14.34-20.45-24.1A32.13,32.13,0,0,0,38.08,17s13.52,16,14,16.43a24.6,24.6,0,0,1,3.3-1.1,83.51,83.51,0,0,1,6.57,7.48q-3.67,1-7.85,2.2c-3.56-4.58-12.61-16-25-29.92a32.18,32.18,0,0,0-4.85,1.68s13.52,16,14,16.43a24.4,24.4,0,0,1,3.3-1.1C44.5,32,49.76,38.74,52.58,42.46Q48.7,43.61,44.42,45C41.6,41.52,26.51,23,22,19.08a1.24,1.24,0,0,0-1.36-.37c1.8,2.07,18.19,22,22.17,26.81q-3.38,1.11-7,2.35c-4.61-5.78-12.16-15-21.7-25.67a31.94,31.94,0,0,0-4.85,1.68s13.52,16,14,16.43a24.63,24.63,0,0,1,3.3-1.1,98.08,98.08,0,0,1,7.89,9.14c-2.65.92-5.38,1.91-8.21,3C23.91,48.92,6.3,27.2,5.15,26.47a2,2,0,0,0-2.07-.13S19.19,45.23,25.72,53.06c2.67-1.2,5.9-2.44,9.46-3.7l1.4-.49c5.2-1.8,11-3.6,16.85-5.29l1.51-.44c2.66-.77,5.3-1.5,7.86-2.21l1.46-.4c13-3.53,23.63-6.05,23.63-6.05S79.48,35.25,63.38,39.44Z"/><path class="a307eb33-62ff-48cf-977c-381633a6714a" d="M92.14,19.93l1.35,0c.64,0,.89,0,1.21,0,0,0,0,.15,0,.18a2.62,2.62,0,0,0-.48.08c-.23.07-.33.13-.34.52s0,1.27,0,2.49a.11.11,0,0,0,0,.09s.19,0,2.19,0c1.16,0,1.84,0,2,0s0,0,0-.06c0-.61,0-2.26,0-2.62s-.07-.35-.24-.41a3.34,3.34,0,0,0-.6-.1.15.15,0,0,1,0-.18c.22,0,.72,0,1.25,0s1.06,0,1.25,0a.19.19,0,0,1,0,.18,3.32,3.32,0,0,0-.53.1c-.25.08-.34.16-.35.67,0,.33,0,1.33,0,2.67,0,1,0,2.48,0,2.83s.08.45.3.53a2.55,2.55,0,0,0,.65.12.16.16,0,0,1,0,.18c-.47,0-.75,0-1.29,0s-1,0-1.32,0a.19.19,0,0,1,0-.18,4,4,0,0,0,.59-.09c.24-.07.31-.16.32-.59s0-1.84,0-2.57c0,0,0-.08,0-.08H93.89s0,.06,0,.07c0,.6,0,2.24,0,2.42,0,.4,0,.64.29.72a3.12,3.12,0,0,0,.65.13s0,.16,0,.18c-.37,0-.81,0-1.26,0s-1.1,0-1.37,0a.15.15,0,0,1,0-.18,4,4,0,0,0,.6-.12c.34-.11.34-.38.36-.91s0-1.61,0-2.62,0-2.5,0-2.67c0-.35-.13-.46-.3-.51s-.36-.06-.65-.1A.17.17,0,0,1,92.14,19.93Z"/><path class="a307eb33-62ff-48cf-977c-381633a6714a" d="M102.67,23.41a1.12,1.12,0,0,0-1-.46.63.63,0,0,0-.36.09,1.78,1.78,0,0,0-.5.9s-.22-.1-.22-.22a1.26,1.26,0,0,1,.21-.54,3,3,0,0,1,1.43-.66,1.15,1.15,0,0,1,1,.56,2.29,2.29,0,0,1,.23,1.14c0,.65,0,1.58,0,2,0,.22.08.53.44.53a1,1,0,0,0,.42-.07.65.65,0,0,1,0,.23,1.17,1.17,0,0,1-.83.4.51.51,0,0,1-.51-.26,1.08,1.08,0,0,1-.1-.33s0,0,0,0a4.11,4.11,0,0,1-1.34.62.81.81,0,0,1-.58-.26,1.4,1.4,0,0,1-.38-1,2,2,0,0,1,.12-.55c.33-.2,1.83-.61,2.19-.81a.19.19,0,0,0,.06-.09c0-.15,0-.37,0-.54A1.25,1.25,0,0,0,102.67,23.41Zm.16,1.54a7.41,7.41,0,0,0-1.58.63.86.86,0,0,0-.08.33.8.8,0,0,0,.83.85,1.54,1.54,0,0,0,.72-.23.29.29,0,0,0,.11-.23c0-.38,0-1.13,0-1.33C102.87,25,102.85,24.95,102.84,24.95Z"/><path class="a307eb33-62ff-48cf-977c-381633a6714a" d="M108,22.75a.4.4,0,0,1,0,.16,1.69,1.69,0,0,1-.32.53l-.08,0a.94.94,0,0,0-.62-.27c-.27,0-.48.27-.66.59a1.45,1.45,0,0,0-.12.55c0,.69,0,1.94,0,2.2s.07.33.22.38a2.66,2.66,0,0,0,.64.1.19.19,0,0,1,0,.18c-.12,0-.69,0-1.08,0s-.9,0-1.09,0a.23.23,0,0,1,0-.18,2.49,2.49,0,0,0,.43-.09c.11,0,.18-.1.2-.28s0-1.26,0-2.16c0-.47,0-.83,0-1s-.06-.32-.6-.44c0,0,0-.13,0-.14a3.69,3.69,0,0,0,1.18-.4s0,0,0,0c0,.22,0,.74,0,1,0,0,0,0,0,0a3.83,3.83,0,0,1,.72-.79,1,1,0,0,1,.58-.23A.53.53,0,0,1,108,22.75Z"/><path class="a307eb33-62ff-48cf-977c-381633a6714a" d="M108.59,22.66c.12,0,.7,0,1,0,.44,0,.79,0,1,0,0,0,0,.14,0,.18a2.41,2.41,0,0,0-.45.1.13.13,0,0,0-.06.16c.13.52,1.08,2.95,1.13,3.06s0,0,0,0c.26-.62.81-2.16.95-2.63s.07-.53,0-.58a2.17,2.17,0,0,0-.54-.12.24.24,0,0,1,0-.18c.14,0,.56,0,1,0s.73,0,.83,0,0,.15,0,.18a2.26,2.26,0,0,0-.4.08.65.65,0,0,0-.39.4c-.28.61-.8,1.95-1.17,2.94-.19.48-.27.75-.34,1a1.21,1.21,0,0,0-.31,0c-.08-.29-.15-.52-.28-.89-.28-.82-.73-2-.94-2.5-.28-.73-.29-.84-.6-1a2.41,2.41,0,0,0-.42-.08S108.57,22.68,108.59,22.66Z"/><path class="a307eb33-62ff-48cf-977c-381633a6714a" d="M117.6,26.25a.5.5,0,0,1,0,.2,2.55,2.55,0,0,1-1.76.86,1.72,1.72,0,0,1-1.34-.56,2.71,2.71,0,0,1-.59-1.77,2.31,2.31,0,0,1,1-2.07,2.76,2.76,0,0,1,1.16-.38c1.07,0,1.41,1.06,1.49,1.6,0,0,0,.07.15.08a.23.23,0,0,1,0,.15,17.45,17.45,0,0,1-3.06.27s-.07.07-.07.13a2.3,2.3,0,0,0,.43,1.35,1.6,1.6,0,0,0,1.33.62,1.73,1.73,0,0,0,1.29-.5S117.6,26.24,117.6,26.25Zm-3.06-2s0,.07,0,.07a18.3,18.3,0,0,0,2.18-.08.12.12,0,0,0,.07-.09c-.07-.56-.44-1.34-1.17-1.34C115.09,22.83,114.61,23.33,114.54,24.28Z"/><path class="a307eb33-62ff-48cf-977c-381633a6714a" d="M121.17,23.72s-.16,0-.19,0c-.06-.55-.16-.77-.39-.88a1.16,1.16,0,0,0-.53-.11.73.73,0,0,0-.75.77c0,.41.14.68,1,1.1s1.16.84,1.16,1.35a1.46,1.46,0,0,1-1.62,1.34,3.09,3.09,0,0,1-1.09-.21,5.3,5.3,0,0,1-.18-1.17s.15-.07.19,0a1.42,1.42,0,0,0,.71,1.09,1.12,1.12,0,0,0,.51.11.77.77,0,0,0,.83-.75c0-.47-.21-.72-.87-1.07-1-.5-1.2-.91-1.2-1.47s.54-1.26,1.54-1.26a4.49,4.49,0,0,1,.64.06l.4,0A6,6,0,0,0,121.17,23.72Z"/><path class="a307eb33-62ff-48cf-977c-381633a6714a" d="M123.57,23.11s-.06,0-.06.07c0,.71,0,2.05,0,2.57a2.3,2.3,0,0,0,.08.66.68.68,0,0,0,.66.4,1,1,0,0,0,.66-.2.61.61,0,0,1,0,.2,1.3,1.3,0,0,1-1,.48.89.89,0,0,1-.87-.49,3,3,0,0,1-.14-1.31c0-.65,0-1.82,0-2.29a.07.07,0,0,0,0-.07c-.08,0-.45,0-.61,0a1.57,1.57,0,0,1,.09-.27,4.3,4.3,0,0,0,.53-.1.08.08,0,0,0,0-.06v-.9a2.63,2.63,0,0,0,.57-.58.2.2,0,0,1,.13,0,9.66,9.66,0,0,0-.07,1.44.08.08,0,0,0,0,.06,9.43,9.43,0,0,0,1.32,0,3.37,3.37,0,0,0-.09.48Z"/><path class="a307eb33-62ff-48cf-977c-381633a6714a" d="M128,19.93c.18,0,.67,0,1.8,0a2,2,0,0,0,.24.66c.89,2,2.25,4.92,2.39,5.16a0,0,0,0,0,0,0c.16-.3,1.92-3.94,2.47-5.13a2,2,0,0,0,.21-.67c1.08,0,1.32,0,1.7,0a.15.15,0,0,1,0,.18,4.13,4.13,0,0,0-.68.12.41.41,0,0,0-.36.46c0,.69.07,4.71.13,5.59,0,.41.09.59.43.67a4.86,4.86,0,0,0,.59.08.24.24,0,0,1,0,.18c-.2,0-.82,0-1.32,0s-1.11,0-1.36,0c0,0,0-.15,0-.18l.54-.1c.27-.07.34-.23.34-.57,0-.7,0-4.24-.07-5.24a0,0,0,0,0,0,0c-.29.61-2.43,5-2.82,6.14a.38.38,0,0,1-.16,0c-.31-1-2.67-6.29-2.67-6.29s0,0,0,0c-.08,1.07-.23,4.31-.23,5.05,0,.51,0,.81.38.88a5.62,5.62,0,0,0,.6.1s0,.16,0,.18c-.19,0-.6,0-1.15,0s-1.15,0-1.29,0,0-.15,0-.18l.46-.07c.37-.07.47-.26.56-1s.34-4.21.39-5.2a.49.49,0,0,0-.33-.53,3.44,3.44,0,0,0-.74-.15S127.93,19.94,128,19.93Z"/><path class="a307eb33-62ff-48cf-977c-381633a6714a" d="M137.25,22.76a5.76,5.76,0,0,0,1.38-.19,17.25,17.25,0,0,0-.06,2.28,6.79,6.79,0,0,0,.07,1.17.94.94,0,0,0,1,.77,1.48,1.48,0,0,0,1-.39.53.53,0,0,0,.16-.36c0-.22,0-2.13,0-2.65a.33.33,0,0,0-.24-.34,4.31,4.31,0,0,0-.77-.09s0-.18,0-.19a8.77,8.77,0,0,0,1.7-.19,10.51,10.51,0,0,0,0,1.22v2.36c0,.56.08.61.36.61a1.34,1.34,0,0,0,.34,0s0,.18,0,.2a8.36,8.36,0,0,0-1.3.45s-.07,0-.07-.09,0-.48,0-.67c0,0,0-.07-.07,0a2.5,2.5,0,0,1-1.52.73c-1.16,0-1.34-.82-1.34-1.6,0-.55,0-1.75,0-2.27,0-.19,0-.34-.15-.4a2.3,2.3,0,0,0-.54-.11S137.21,22.77,137.25,22.76Z"/><path class="a307eb33-62ff-48cf-977c-381633a6714a" d="M145.57,23.72s-.16,0-.19,0c-.06-.55-.17-.77-.39-.88a1.16,1.16,0,0,0-.53-.11.73.73,0,0,0-.75.77c0,.41.14.68,1,1.1s1.16.84,1.16,1.35a1.46,1.46,0,0,1-1.62,1.34,3.09,3.09,0,0,1-1.09-.21,5.09,5.09,0,0,1-.18-1.17s.15-.07.19,0a1.43,1.43,0,0,0,.72,1.09,1.14,1.14,0,0,0,.51.11.77.77,0,0,0,.83-.75c0-.47-.21-.72-.87-1.07-.95-.5-1.2-.91-1.2-1.47s.54-1.26,1.54-1.26a4.43,4.43,0,0,1,.64.06l.4,0A5.4,5.4,0,0,0,145.57,23.72Z"/><path class="a307eb33-62ff-48cf-977c-381633a6714a" d="M148.76,27.2c-.22,0-.71,0-1,0s-.86,0-1,0a.23.23,0,0,1,0-.18,2.14,2.14,0,0,0,.48-.1c.13-.06.19-.13.21-.48s0-1.26,0-1.93c0-.47,0-.84,0-1a.33.33,0,0,0-.06-.21.92.92,0,0,0-.5-.22.31.31,0,0,1,0-.18,3.69,3.69,0,0,0,1.24-.33c0,.33,0,1.26,0,2s0,1.46,0,2a.35.35,0,0,0,.25.39,2.22,2.22,0,0,0,.47.09S148.78,27.19,148.76,27.2Zm-.89-5.93a.75.75,0,0,1-.36,0,.42.42,0,0,1-.23-.4.36.36,0,0,1,.06-.22.58.58,0,0,1,.39-.16.46.46,0,0,1,.27.09.34.34,0,0,1,.09.23A.46.46,0,0,1,147.87,21.27Z"/><path class="a307eb33-62ff-48cf-977c-381633a6714a" d="M151.6,27.31a1.75,1.75,0,0,1-1.54-.78,2.62,2.62,0,0,1-.44-1.5,2.3,2.3,0,0,1,1.14-2,3.36,3.36,0,0,1,1.41-.46,1.9,1.9,0,0,1,.85.15c.09,0,.29.16.33.28a.48.48,0,0,1,0,.13.91.91,0,0,1-.3.33.19.19,0,0,1-.11,0,1.7,1.7,0,0,0-1.22-.52,1.52,1.52,0,0,0-1.38,1.68,2.32,2.32,0,0,0,.45,1.53,1.6,1.6,0,0,0,1.34.62,1.87,1.87,0,0,0,1.29-.58,0,0,0,0,1,0,0,.7.7,0,0,1,0,.21A2.4,2.4,0,0,1,151.6,27.31Z"/><path class="a307eb33-62ff-48cf-977c-381633a6714a" d="M158.46,23.92s0-.06,0-.06a2.63,2.63,0,0,0,.53,0,1.6,1.6,0,0,0,.87-.2,1.63,1.63,0,0,0,.73-1.57,2.06,2.06,0,0,0-2.5-1.9s-.07.06-.08.15c0,.28,0,1.16,0,2.76,0,.76,0,2.1,0,3,0,.65.12.69.48.77L159,27s0,.16,0,.18c-.29,0-1,0-1.4,0s-1.15,0-1.35,0c0,0-.05-.15,0-.18a4.86,4.86,0,0,0,.55-.08c.24-.07.38,0,.41-.72,0-.35,0-1,0-2.74,0-.72,0-2.3,0-2.63s-.07-.59-.37-.66a4.2,4.2,0,0,0-.58-.09.28.28,0,0,1,0-.18c.2,0,.73,0,1.27,0l1.6,0a2.58,2.58,0,0,1,1.5.43,1.85,1.85,0,0,1,.69,1.49,2.15,2.15,0,0,1-1.22,2,2.56,2.56,0,0,1-1.12.25,1.69,1.69,0,0,1-.52-.06A.45.45,0,0,1,158.46,23.92Z"/><path class="a307eb33-62ff-48cf-977c-381633a6714a" d="M165.18,22.75a.4.4,0,0,1,0,.16,1.63,1.63,0,0,1-.32.53l-.08,0a1,1,0,0,0-.62-.27c-.27,0-.48.27-.66.59a1.38,1.38,0,0,0-.12.55c0,.69,0,1.94,0,2.2s.07.33.23.38a2.6,2.6,0,0,0,.64.1.18.18,0,0,1,0,.18c-.11,0-.69,0-1.08,0s-.91,0-1.09,0a.23.23,0,0,1,0-.18,2.64,2.64,0,0,0,.44-.09c.1,0,.18-.1.2-.28s0-1.26,0-2.16c0-.47,0-.83,0-1s-.06-.32-.6-.44c0,0,0-.13,0-.14a3.7,3.7,0,0,0,1.17-.4s0,0,0,0c0,.22,0,.74,0,1,0,0,0,0,0,0a3.85,3.85,0,0,1,.72-.79.94.94,0,0,1,.57-.23A.53.53,0,0,1,165.18,22.75Z"/><path class="a307eb33-62ff-48cf-977c-381633a6714a" d="M170.22,24.8a2.44,2.44,0,0,1-1.07,2.09,2.35,2.35,0,0,1-1.24.42,2.17,2.17,0,0,1-2.18-2.43,2.17,2.17,0,0,1,1-1.89,2.69,2.69,0,0,1,1.45-.46A2.05,2.05,0,0,1,170.22,24.8ZM167.1,23a1.72,1.72,0,0,0-.65,1.56c0,1.32.71,2.35,1.77,2.35a1.19,1.19,0,0,0,.81-.29,1.92,1.92,0,0,0,.47-1.49c0-1.32-.63-2.31-1.76-2.31A1.25,1.25,0,0,0,167.1,23Z"/><path class="a307eb33-62ff-48cf-977c-381633a6714a" d="M176.2,26.91a6.37,6.37,0,0,1-1.29.48s-.07-.07-.08-.15,0-.4,0-.6c0,0,0,0,0,0a3.45,3.45,0,0,1-1.64.69,1.6,1.6,0,0,1-1.21-.59,2.52,2.52,0,0,1-.52-1.61,2.44,2.44,0,0,1,.8-1.83,3.31,3.31,0,0,1,2-.75,3.06,3.06,0,0,1,.61.08.05.05,0,0,0,0,0c0-1.93,0-2.33,0-2.63s-.09-.34-.26-.39a3,3,0,0,0-.55-.09.36.36,0,0,1,0-.16,4.09,4.09,0,0,0,1.58-.26s0,.07,0,.09a2.3,2.3,0,0,0-.12.93c0,.63,0,2.24,0,3.62,0,2,0,2.38,0,2.65s.11.42.23.43a2.22,2.22,0,0,0,.49,0A.26.26,0,0,1,176.2,26.91Zm-3.63-3.62a2,2,0,0,0-.5,1.49c0,1.32.75,2,1.61,2a1.49,1.49,0,0,0,1-.34.37.37,0,0,0,.12-.24c0-.27,0-2,0-2.46a.55.55,0,0,0-.26-.54,1.73,1.73,0,0,0-1-.28A1.38,1.38,0,0,0,172.57,23.29Z"/><path class="a307eb33-62ff-48cf-977c-381633a6714a" d="M176.74,22.76a5.77,5.77,0,0,0,1.38-.19,17.21,17.21,0,0,0-.06,2.28,6.8,6.8,0,0,0,.07,1.17.94.94,0,0,0,1,.77,1.47,1.47,0,0,0,1-.39.54.54,0,0,0,.16-.36c0-.22,0-2.13,0-2.65a.33.33,0,0,0-.24-.34,4.34,4.34,0,0,0-.77-.09s0-.18,0-.19a8.83,8.83,0,0,0,1.7-.19,10.47,10.47,0,0,0,0,1.22v2.36c0,.56.08.61.36.61a1.35,1.35,0,0,0,.34,0s0,.18,0,.2a8.33,8.33,0,0,0-1.3.45s-.07,0-.07-.09,0-.48,0-.67c0,0,0-.07-.07,0a2.49,2.49,0,0,1-1.51.73c-1.16,0-1.34-.82-1.34-1.6,0-.55,0-1.75,0-2.27,0-.19,0-.34-.15-.4a2.3,2.3,0,0,0-.54-.11S176.71,22.77,176.74,22.76Z"/><path class="a307eb33-62ff-48cf-977c-381633a6714a" d="M184.55,27.31a1.75,1.75,0,0,1-1.54-.78,2.6,2.6,0,0,1-.45-1.5,2.3,2.3,0,0,1,1.14-2,3.39,3.39,0,0,1,1.41-.46,1.86,1.86,0,0,1,.85.15c.1,0,.29.16.33.28a.64.64,0,0,1,0,.13.89.89,0,0,1-.31.33.17.17,0,0,1-.1,0,1.71,1.71,0,0,0-1.22-.52,1.52,1.52,0,0,0-1.38,1.68,2.35,2.35,0,0,0,.44,1.53,1.62,1.62,0,0,0,1.34.62,1.87,1.87,0,0,0,1.29-.58,0,0,0,0,1,0,0,.7.7,0,0,1,0,.21A2.4,2.4,0,0,1,184.55,27.31Z"/><path class="a307eb33-62ff-48cf-977c-381633a6714a" d="M188.37,23.11s-.06,0-.06.07c0,.71,0,2.05,0,2.57a2.29,2.29,0,0,0,.08.66.68.68,0,0,0,.66.4,1,1,0,0,0,.66-.2.62.62,0,0,1,0,.2,1.3,1.3,0,0,1-1,.48.89.89,0,0,1-.87-.49,3,3,0,0,1-.14-1.31c0-.65,0-1.82,0-2.29a.06.06,0,0,0,0-.07c-.08,0-.44,0-.61,0a1.51,1.51,0,0,1,.09-.27,4.26,4.26,0,0,0,.53-.1.08.08,0,0,0,0-.06v-.9a2.61,2.61,0,0,0,.57-.58.2.2,0,0,1,.13,0,9.66,9.66,0,0,0-.07,1.44.08.08,0,0,0,0,.06,9.44,9.44,0,0,0,1.32,0,3.85,3.85,0,0,0-.1.48Z"/><path class="a307eb33-62ff-48cf-977c-381633a6714a" d="M192.41,27.2c-.23,0-.71,0-1,0s-.86,0-1,0a.23.23,0,0,1,0-.18,2.14,2.14,0,0,0,.48-.1c.13-.06.19-.13.21-.48s0-1.26,0-1.93c0-.47,0-.84,0-1a.33.33,0,0,0-.06-.21.92.92,0,0,0-.51-.22s0-.15,0-.18a3.74,3.74,0,0,0,1.25-.33c0,.33,0,1.26,0,2s0,1.46,0,2a.35.35,0,0,0,.24.39,2.21,2.21,0,0,0,.47.09S192.43,27.19,192.41,27.2Zm-.89-5.93a.75.75,0,0,1-.36,0,.42.42,0,0,1-.22-.4.36.36,0,0,1,.06-.22.59.59,0,0,1,.39-.16.46.46,0,0,1,.27.09.33.33,0,0,1,.1.23A.47.47,0,0,1,191.52,21.27Z"/><path class="a307eb33-62ff-48cf-977c-381633a6714a" d="M197.77,24.8a2.45,2.45,0,0,1-1.07,2.09,2.37,2.37,0,0,1-1.25.42,2.16,2.16,0,0,1-2.17-2.43,2.17,2.17,0,0,1,1-1.89,2.69,2.69,0,0,1,1.45-.46A2.05,2.05,0,0,1,197.77,24.8ZM194.64,23a1.73,1.73,0,0,0-.65,1.56c0,1.32.72,2.35,1.77,2.35a1.18,1.18,0,0,0,.81-.29,1.9,1.9,0,0,0,.47-1.49c0-1.32-.63-2.31-1.76-2.31A1.25,1.25,0,0,0,194.64,23Z"/><path class="a307eb33-62ff-48cf-977c-381633a6714a" d="M199.13,26.93c.18-.07.21-.27.22-.46,0-.43,0-1.18,0-2a10,10,0,0,0,0-1.06c0-.16-.1-.2-.56-.33,0,0,0-.14,0-.15a3.86,3.86,0,0,0,1.22-.43.05.05,0,0,1,0,0c0,.25,0,.49,0,.69,0,0,0,.07,0,.05a2.94,2.94,0,0,1,1.66-.79,1.16,1.16,0,0,1,1,.59,2.5,2.5,0,0,1,.28,1.35c0,.63,0,1.63,0,2.15,0,.18,0,.26.18.31a2.51,2.51,0,0,0,.51.1.2.2,0,0,1,0,.18c-.16,0-.45,0-1,0s-.9,0-1.09,0a.23.23,0,0,1,0-.18,3.44,3.44,0,0,0,.49-.08.34.34,0,0,0,.25-.34c0-.54,0-2.07,0-2.46a1.41,1.41,0,0,0-.33-.8,1,1,0,0,0-.79-.31,1.48,1.48,0,0,0-1.07.46c-.09.09-.13.2-.13.51,0,.93,0,1.9,0,2.42,0,.33.06.42.19.48a2.54,2.54,0,0,0,.54.1.37.37,0,0,1,0,.19c-.13,0-.42,0-1.06,0s-.84,0-1,0,0-.15,0-.18A2.18,2.18,0,0,0,199.13,26.93Z"/><path class="a307eb33-62ff-48cf-977c-381633a6714a" d="M96.08,37.56q.1-1.15.1-2.82v-.68c0-.09,0-.14.08-.14a8.29,8.29,0,0,1,1.54.16c.23,0,.35.1.35.21s-.09.2-.26.25a.19.19,0,0,0-.14.19q-.16,1.78-.33,3.14h2.44a.4.4,0,0,0,.17-.13c.25-.34.52-.68.8-1a.18.18,0,0,1,.27,0A4.78,4.78,0,0,1,102.49,38c.07.07.08.14,0,.2a.27.27,0,0,1-.25.1H97.51a7,7,0,0,0,.56,2,6.82,6.82,0,0,0,1.31,1.93,10.46,10.46,0,0,0,1.79,1.49,8.1,8.1,0,0,0,1.75.9.15.15,0,0,1,.12.13c0,.06-.05.09-.14.1a2,2,0,0,0-1,.37,2.79,2.79,0,0,0-.63.67c0,.08-.13.09-.24,0a12.25,12.25,0,0,1-1.84-1.64A7.05,7.05,0,0,1,98,42.43a8.32,8.32,0,0,1-.56-1.9,10.17,10.17,0,0,1-.19-1.4A9.31,9.31,0,0,1,96,42.53a7.22,7.22,0,0,1-2.22,2.2,10.78,10.78,0,0,1-2.58,1.2c-.09,0-.14,0-.15-.05s0-.1.09-.14a9.68,9.68,0,0,0,2.08-1.48,7.92,7.92,0,0,0,1.58-1.93,8.61,8.61,0,0,0,.9-2.37q.17-.84.29-1.7H91.32l-.11-.38H96C96.06,37.78,96.07,37.67,96.08,37.56Z"/><path class="a307eb33-62ff-48cf-977c-381633a6714a" d="M118.06,46a1.07,1.07,0,0,1-.91,0,.5.5,0,0,1-.24-.48V41.23l-.38.51a8.44,8.44,0,0,1-2.37,2.1,7.7,7.7,0,0,1-2.25,1c-.08,0-.13,0-.14,0s0-.09.06-.13a12.16,12.16,0,0,0,1.87-1.4,11,11,0,0,0,1.72-2,9.16,9.16,0,0,0,1-2.07h-4.56l-.11-.38h5.16V36q-2.7.19-4.24.14c-.09,0-.14,0-.14-.12a.14.14,0,0,1,.14-.13,33.88,33.88,0,0,0,5.18-.85,14.84,14.84,0,0,0,2.87-1,.21.21,0,0,1,.21,0,6.56,6.56,0,0,1,1.23.94q.21.2.12.35a.28.28,0,0,1-.3.08.84.84,0,0,0-.41,0q-1.53.27-3.15.48v2.94H121a.41.41,0,0,0,.18-.13q.38-.51.8-1a.18.18,0,0,1,.28,0,4.77,4.77,0,0,1,1.38,1.24c.07.07.08.14.05.2a.27.27,0,0,1-.25.1h-5a5.55,5.55,0,0,0,.65,1.19,5.84,5.84,0,0,0,1.11,1.25,8.26,8.26,0,0,0,1.49,1,11.27,11.27,0,0,0,1.92.83c.11,0,.16.09.15.15s-.05.09-.14.1a1.63,1.63,0,0,0-1.44,1.1c0,.1-.13.11-.26,0a7.27,7.27,0,0,1-1.39-1.05,5.08,5.08,0,0,1-.91-1.16,10.62,10.62,0,0,1-.88-1.72q-.19-.44-.31-.81v5.29A.52.52,0,0,1,118.06,46Z"/><path class="a307eb33-62ff-48cf-977c-381633a6714a" d="M132.85,39.51l-.11-.38h3.53l-.1-.09a1.33,1.33,0,0,1-.28-.79,2.78,2.78,0,0,0-.17-.84,2.54,2.54,0,0,0-.5-.82.27.27,0,0,1-.1-.13H133.4l-.11-.38h5l-.12-.11a1.43,1.43,0,0,1-.24-.79,1.39,1.39,0,0,0,0-.41,1.87,1.87,0,0,0-.15-.43q-.14-.15-.09-.24c0-.06.13-.06.28,0a2.57,2.57,0,0,1,1.13.23,1.26,1.26,0,0,1,.59.54,1.25,1.25,0,0,1-.2.93,1.2,1.2,0,0,1-.29.29h2.1a.43.43,0,0,0,.17-.13c.25-.34.52-.68.8-1a.18.18,0,0,1,.28,0,4.78,4.78,0,0,1,1.38,1.24c.07.07.08.14,0,.2a.27.27,0,0,1-.25.1h-2.25l.61.3c.18.1.26.2.24.31s-.15.16-.34.15a.15.15,0,0,0-.14.09,7.72,7.72,0,0,1-1,1.23,6.08,6.08,0,0,1-.69.59h1.68A.4.4,0,0,0,142,39q.38-.51.8-1a.18.18,0,0,1,.28,0,4.79,4.79,0,0,1,1.38,1.24c.07.08.08.14.05.2a.27.27,0,0,1-.25.1H132.85Zm1.86.76c0-.06,0-.08.14-.05a6.89,6.89,0,0,1,1.4.62h4.42l.5-.62a.22.22,0,0,1,.24,0,4.74,4.74,0,0,1,1.3.65.31.31,0,0,1,.15.31c0,.11-.13.19-.31.25a.19.19,0,0,0-.14.2v3.84a.52.52,0,0,1-.33.48,1.35,1.35,0,0,1-.6.16.74.74,0,0,1-.43-.14.54.54,0,0,1-.14-.43v0h-4.73a.64.64,0,0,1-.22.36,1.35,1.35,0,0,1-.69.2.75.75,0,0,1-.46-.13.44.44,0,0,1-.1-.36V40.27Zm1.16-3.81a3.36,3.36,0,0,1,1.08.51,1.71,1.71,0,0,1,.69.91,1.24,1.24,0,0,1-.18.93,1.16,1.16,0,0,1-.3.31h2.55a5.27,5.27,0,0,0,.41-1.17,9.25,9.25,0,0,0,.26-1.37l0-.14Zm.33,4.76v1.67h4.72V41.22Zm0,2.05v1.82h4.72V43.27Z"/><path class="a307eb33-62ff-48cf-977c-381633a6714a" d="M158.73,40.8v-.24a.08.08,0,0,1,.1-.08c.43,0,.89.1,1.37.19.26.06.39.15.39.28s-.09.24-.26.3a.17.17,0,0,0-.11.19v.4h2.4a.43.43,0,0,0,.17-.13c.25-.34.52-.68.8-1a.18.18,0,0,1,.28,0,4.78,4.78,0,0,1,1.38,1.24c.07.07.08.14,0,.2a.28.28,0,0,1-.25.1h-4.83v3.25a.46.46,0,0,1-.3.46,1.14,1.14,0,0,1-.91,0,.41.41,0,0,1-.28-.41V42.23h-5l-.11-.39h5.16Zm2.08-.38a1.33,1.33,0,0,1-.55.15.71.71,0,0,1-.39-.12.47.47,0,0,1-.11-.39v0h-1.08a.58.58,0,0,1-.2.39,1.33,1.33,0,0,1-.63.17.65.65,0,0,1-.41-.13.39.39,0,0,1-.09-.32v-.26l-.11.2a.82.82,0,0,1-.58.33.64.64,0,0,1-.56-.23,1.1,1.1,0,0,1-.16-.46l-.23.16c-.23.16-.46.3-.69.44s-.39.19-.43.3-.12.28-.22.29-.21-.09-.29-.31c-.15-.4-.3-.85-.45-1.36,0-.1,0-.15.14-.15l.25,0a9.21,9.21,0,0,0,.93-1.26l.16-.3a1.86,1.86,0,0,0-.29.16c-.23.08-.36.16-.39.26s-.12.23-.22.24-.18-.08-.25-.29a10.27,10.27,0,0,1-.36-1.23c0-.09,0-.14.14-.14l.21,0a4.45,4.45,0,0,0,.43-.89,5.2,5.2,0,0,0,.29-1.15c0-.11,0-.19,0-.24a.09.09,0,0,1,.1-.07,5.27,5.27,0,0,1,1.35.44c.21.09.3.2.28.33s-.13.15-.31.16a.19.19,0,0,0-.14.09,5.42,5.42,0,0,1-.94,1c-.18.15-.37.28-.55.41h1a3.32,3.32,0,0,0,.16-.6,1.5,1.5,0,0,0,0-.2.13.13,0,0,1,.15-.1,6.68,6.68,0,0,1,1.43.54s.07,0,.08.05v-.93s0-.06.12,0a5.12,5.12,0,0,1,.9.36,8.91,8.91,0,0,0,.1-1.44c0-.09,0-.13.1-.13.42,0,.83.07,1.23.13.24,0,.35.11.36.24s-.07.21-.22.24a.63.63,0,0,0-.25.21,4.9,4.9,0,0,1-.88.91h.69c.19-.2.35-.38.48-.54a.18.18,0,0,1,.21,0,4.14,4.14,0,0,1,1.16.6c.12.09.16.18.14.28s-.12.16-.27.22a.18.18,0,0,0-.12.17V40A.45.45,0,0,1,160.81,40.42Zm-4.31,2.25a.14.14,0,0,1,.12,0,5.74,5.74,0,0,1,1.1.9c.16.16.21.29.15.4s-.17.1-.35,0a.2.2,0,0,0-.16,0,10,10,0,0,1-1.66,1.08,6.09,6.09,0,0,1-1.8.64c-.07,0-.1,0-.11,0a.11.11,0,0,1,0-.11,6.84,6.84,0,0,0,1.45-1.23,9,9,0,0,0,1.11-1.46A.64.64,0,0,1,156.5,42.68Zm-1.84-3.54h.4l.85-.06,0-.19a2.15,2.15,0,0,0-.2-.48l-.1.1A5.77,5.77,0,0,1,154.66,39.14Zm2.7-2.39h-.12a.18.18,0,0,0-.18.12A10.5,10.5,0,0,1,156,38.13a3.13,3.13,0,0,1,1,.44,1.64,1.64,0,0,1,.41.48Zm1.33,1h1.07V36.27h-1.07Zm0,1.9h1.07V38.12h-1.07Zm6.47-3c0,.1-.13.15-.31.15a.18.18,0,0,0-.17.12,10.85,10.85,0,0,1-1.08,1.28,3,3,0,0,1,1,.48,1.36,1.36,0,0,1,.56.78,1.1,1.1,0,0,1-.17.8.86.86,0,0,1-.55.36.7.7,0,0,1-.58-.21,1.19,1.19,0,0,1-.21-.66l-.27.19c-.23.16-.46.3-.69.44s-.39.19-.42.3-.12.28-.23.29-.21-.09-.29-.31c-.15-.4-.3-.85-.45-1.36,0-.1,0-.15.14-.15l.21,0a7.3,7.3,0,0,0,.91-1.25,1.72,1.72,0,0,0,.13-.25l-.2.11c-.23.07-.36.16-.39.26s-.12.23-.23.24-.18-.08-.25-.29a10.55,10.55,0,0,1-.36-1.23c0-.09,0-.14.14-.14l.17,0a6.64,6.64,0,0,0,.44-.89,5.58,5.58,0,0,0,.31-1.16l0-.24a.1.1,0,0,1,.1-.08,4.84,4.84,0,0,1,1.34.48c.22.1.31.21.27.31s-.13.17-.31.18a.15.15,0,0,0-.14.08,5.59,5.59,0,0,1-1,1,4.49,4.49,0,0,1-.54.4h1a3.17,3.17,0,0,0,.16-.6,1.17,1.17,0,0,0,0-.2.13.13,0,0,1,.15-.1,6.75,6.75,0,0,1,1.43.54C165.1,36.36,165.19,36.47,165.16,36.59Zm-3.87,6.55c0-.06.08-.07.15,0a1.87,1.87,0,0,1,.38.09,10,10,0,0,1,1.82.66,3.76,3.76,0,0,1,.84.58,1.56,1.56,0,0,1,.27.75.63.63,0,0,1-.24.5.55.55,0,0,1-.58.08,1.57,1.57,0,0,1-.61-.49,8.63,8.63,0,0,0-1-1.11,13.26,13.26,0,0,0-1-.89A.12.12,0,0,1,161.29,43.14Zm1-4h.45l.85-.06,0-.1a1.87,1.87,0,0,0-.26-.54l-.09.08A5.76,5.76,0,0,1,162.27,39.14Z"/><path class="a307eb33-62ff-48cf-977c-381633a6714a" d="M180.08,41.56a1.3,1.3,0,0,1-.18-.73l0-.16-.36,0c-.05,0-.08-.05-.08-.15a1,1,0,0,0-.21-.67,1.29,1.29,0,0,0-.58-.33v.36a.46.46,0,0,1-.3.46,1.15,1.15,0,0,1-.91,0,.41.41,0,0,1-.28-.42V38.41h-.82v1.35a.56.56,0,0,1-.24.51,1.34,1.34,0,0,1-.69.2.74.74,0,0,1-.46-.13.44.44,0,0,1-.1-.36V37.47c0-.06,0-.08.14-.05a7.31,7.31,0,0,1,1.41.61h.75v-.92h-2.45l-.12-.38h2.58v-.92H176l-.25.2a4.34,4.34,0,0,1-1,.56c-.05,0-.09,0-.11,0a.11.11,0,0,1,0-.11,3.67,3.67,0,0,0,.46-1,4.48,4.48,0,0,0,.23-1l0-.22c0-.06.05-.08.1-.08a4.91,4.91,0,0,1,1.35.48c.21.11.3.22.26.33s-.13.16-.31.16a.15.15,0,0,0-.14.09,1.77,1.77,0,0,0-.2.21h.75V34.15a.08.08,0,0,1,.1-.07c.43,0,.89.1,1.37.19.26.06.39.15.39.27s-.09.24-.26.3a.17.17,0,0,0-.11.19v.4h.44a.53.53,0,0,0,.2-.1,7.87,7.87,0,0,1,.55-.78.19.19,0,0,1,.3,0,3.55,3.55,0,0,1,.78.89.32.32,0,0,1,.08.3.23.23,0,0,1-.23.11h-.42a3.42,3.42,0,0,1,.77.91.32.32,0,0,1,.08.27.23.23,0,0,1-.23.11H178.7V38h.61c.19-.27.35-.49.49-.65s.17-.1.32,0a6,6,0,0,1,1.19.76.45.45,0,0,1,.15.32c0,.11-.1.21-.3.31s-.2.14-.2.22v.42a1.73,1.73,0,0,1-.18.73.67.67,0,0,1,.2.07,1,1,0,0,1,.49.45,1.09,1.09,0,0,1-.22.83l-.11.13h2a.44.44,0,0,0,.15-.09c.27-.32.47-.55.62-.7a0,0,0,0,1,0,0,1.38,1.38,0,0,0-.4-.74,1.79,1.79,0,0,0-.94-.45.13.13,0,0,1-.09-.15.1.1,0,0,1,.12-.1l1,0c.29,0,.44-.07.45-.27V34.37c0-.07,0-.1.1-.1a8.77,8.77,0,0,1,1.42.13c.25.05.38.14.38.26s-.09.22-.27.27a.24.24,0,0,0-.11.21v4.47a1,1,0,0,1-.33.81,1.34,1.34,0,0,1-.65.34,7.1,7.1,0,0,1,1.19,1,.15.15,0,0,1,0,.17s-.1.07-.21.07H180a8.43,8.43,0,0,1-1.69,1.15v.77a10.28,10.28,0,0,0,2-.26c.22-.11.34-.12.37,0s0,.2-.24.34a6.31,6.31,0,0,1-.6.45,8.74,8.74,0,0,1-1.07.7l-.54.3c-.27.12-.42.25-.43.4s-.12.36-.25.35-.3-.2-.53-.64-.33-.67-.46-1c-.05-.16,0-.24,0-.24l.09,0c.11-.06.17-.22.18-.46a10.58,10.58,0,0,1-2.27.46c-.08,0-.13,0-.14-.06a.13.13,0,0,1,.1-.16,10.72,10.72,0,0,0,2.05-.93A8.28,8.28,0,0,0,178,42h-3.4l-.11-.38h5.59Zm0-5.71,0,0H178.7v.92h.64a.55.55,0,0,0,.2-.1A7.94,7.94,0,0,1,180.09,35.85Zm-1.39,2.57v.84h.13a1.82,1.82,0,0,0,.36,0,.23.23,0,0,0,.14,0,.33.33,0,0,0,.15-.31v-.51Zm4,5.45.38.14a5.31,5.31,0,0,0,1.39.23,5.58,5.58,0,0,0,1.34-.1.2.2,0,0,1,.23.11c0,.09,0,.15-.15.19a1.62,1.62,0,0,0-.75.63,1.37,1.37,0,0,0-.33.79c0,.15-.1.21-.26.17a6.31,6.31,0,0,1-1.43-.51,4.94,4.94,0,0,1-1.09-.75,4.57,4.57,0,0,1-.78-1,7.25,7.25,0,0,1-.61-1.25c-.06-.13,0-.21,0-.26s.19,0,.26.11a4.11,4.11,0,0,0,1,1,1.77,1.77,0,0,0,.31.22,10.48,10.48,0,0,0,.83-.66,4.87,4.87,0,0,0,.75-.85l.1-.11s.06,0,.11,0a5.16,5.16,0,0,1,1,.94c.15.18.19.32.11.4s-.19.1-.34,0a.23.23,0,0,0-.23,0,5.49,5.49,0,0,1-1.18.36C183.2,43.8,183,43.83,182.73,43.86Zm-.86-9.11a.08.08,0,0,1,.1-.08c.43,0,.89.11,1.37.19.26.06.39.15.39.27s-.09.24-.26.3a.17.17,0,0,0-.11.19v2.74a.46.46,0,0,1-.3.46,1.17,1.17,0,0,1-.92,0,.39.39,0,0,1-.26-.41V34.74Z"/><path class="a307eb33-62ff-48cf-977c-381633a6714a" d="M197.84,37.86l.55.28a.29.29,0,0,1,.16.25c0,.09-.09.16-.25.21s-.12.06-.11.11v6.63a.52.52,0,0,1-.29.5,1.08,1.08,0,0,1-.95,0,.43.43,0,0,1-.25-.46v-6a7.68,7.68,0,0,1-.64.64,6,6,0,0,1-.76.58c-.1.06-.17.06-.2,0a.17.17,0,0,1,.05-.19,8.1,8.1,0,0,0,.9-1.3,9.28,9.28,0,0,0,.78-1.71,14.81,14.81,0,0,0,.55-1.88,10.25,10.25,0,0,0,.24-1.26c0-.16.09-.23.21-.2a6.17,6.17,0,0,1,.84.29,5.18,5.18,0,0,1,.79.36c.16.09.22.19.2.3s-.17.22-.4.23-.18.09-.24.25a22.7,22.7,0,0,1-1.09,2.21Zm5.11,4.46v3.08a.52.52,0,0,1-.35.51,1.06,1.06,0,0,1-.91,0,.51.51,0,0,1-.24-.48V36.86h-.2c-.09.21-.18.4-.26.58a10.2,10.2,0,0,1-.78,1.23,6.33,6.33,0,0,1-.83.94,5.4,5.4,0,0,1-.66.56c-.1.07-.17.07-.2,0a.14.14,0,0,1,0-.19,8.09,8.09,0,0,0,1.32-2.76,11.39,11.39,0,0,0,.37-1.72c.1-.67.15-1.09.16-1.28s.08-.23.21-.2a7.07,7.07,0,0,1,.85.24,8,8,0,0,1,.81.31c.15.08.22.18.21.29s-.16.22-.39.25-.18.1-.23.26c-.17.39-.32.75-.45,1.09h2.88a.44.44,0,0,0,.17-.13,12.37,12.37,0,0,1,.79-1,.18.18,0,0,1,.27,0,4.8,4.8,0,0,1,1.38,1.24c.07.07.08.14,0,.2a.27.27,0,0,1-.25.1h-3.77v2.37H204a.38.38,0,0,0,.17-.12,12.51,12.51,0,0,1,.79-1,.18.18,0,0,1,.28,0,4.8,4.8,0,0,1,1.38,1.24c.07.08.08.14,0,.2a.27.27,0,0,1-.25.1h-3.47v2.32H204a.41.41,0,0,0,.17-.12,11.74,11.74,0,0,1,.79-1,.18.18,0,0,1,.28,0A4.77,4.77,0,0,1,206.62,42c.07.07.08.14,0,.2s-.12.1-.25.1h-3.47Z"/></svg>