<svg id="8e1c55ca-051b-46ca-94f6-c8beba0fa7f3" data-name="圖層 1" xmlns="http://www.w3.org/2000/svg" viewBox="0 0 210.07 59.33"><defs><style>.\32 246beaf-ab5c-4227-8807-4218b5972f3e{fill:#231815;}</style></defs><title>icon</title><path class="2246beaf-ab5c-4227-8807-4218b5972f3e" d="M19,13.84s2.4-1,2.58,1.84A7.69,7.69,0,0,1,17,23s-.74,1.84,1.47,1.63,6.81-.81,7.53-2.25,5.7,1.43,4.78,3.68-8.45.61-12.31,2.45-8.08-.4-7.35-2.86c0,0-.31-2.38,4.6-5.11s3.55-2.18,3.67-3A36.23,36.23,0,0,0,19,13.84Z"/><path class="2246beaf-ab5c-4227-8807-4218b5972f3e" d="M10.81,32.85s2.57-1.36,4.53,2,3.56,7.77,2.33,9S16.33,47,15.59,46.2,10.08,39.39,10.81,32.85Z"/><path class="2246beaf-ab5c-4227-8807-4218b5972f3e" d="M17.3,35a2.5,2.5,0,0,0,2.33.41c1.1-.55,5.15-4.23,7.84-3.41s3.3,3,.86,4.49-2.58,3-6.62,2.32a2.94,2.94,0,0,0-1.35,4.23,38.45,38.45,0,0,1,7.84,1,3.22,3.22,0,0,0,4.17-3s-4.66-.41-5.52-1.5c0,0,6.87-4.08,5-7.22s-6-1.63-8.59-.82S16.2,33.94,17.3,35Z"/><path class="2246beaf-ab5c-4227-8807-4218b5972f3e" d="M28.1,18s1.46,3.95,3.3,4.36,4.41-.55,4.53-1.5-3.92-4.5-5.39-4.5A2.2,2.2,0,0,0,28.1,18Z"/><path class="2246beaf-ab5c-4227-8807-4218b5972f3e" d="M43.38,23.6a2.28,2.28,0,0,1,2,.94,11.27,11.27,0,0,1,2,6,37.25,37.25,0,0,0,.48,5.17s2.09,1.78,1.11,2.73-8,4-12.14,2.45c0,0-1.59-3.13,1.11-3.68l2.44-.54,1.47-1.5-.12-2.31s-6,.81-6.38-.82.24-3,3.31-3h2.7l1.23-2.32V23.6Z"/><path class="2246beaf-ab5c-4227-8807-4218b5972f3e" d="M55.39,22.37s-1.58,7.22-2.2,8.85-.12,5.72-.12,5.72,1.59,2,2.95,2.18,9.31,1.5,9.06-1-2.57-3.67-4.29-3.95l-3.67-.14-.86-11.85S55.89,21.82,55.39,22.37Z"/><path class="2246beaf-ab5c-4227-8807-4218b5972f3e" d="M58.34,25s1.34,2.32,3.3,2.46,2.7-.41,3.19-2-2.45-3-4.66-2.18S58.34,25,58.34,25Z"/><path class="2246beaf-ab5c-4227-8807-4218b5972f3e" d="M76.87,9.55s-.61,5.18,3.56,5,5.27-1.78,2.57-4A23.26,23.26,0,0,0,78.71,10C77.11,10,77.85,9,76.87,9.55Z"/><path class="2246beaf-ab5c-4227-8807-4218b5972f3e" d="M78.35,19.23c-5,3.14-6.86,2-6.86,2a6.81,6.81,0,0,1-1.35-1.49,3,3,0,0,0-2.33.68s1.84,2.18,3.44,2.59,8.33-3.14,8.33-3.14l-.19,3.82-3,1.49A4.41,4.41,0,0,0,73.56,27l-3.68,7.9c-.6.68,0,2.18,0,2.18,1.36-.41,6.38-8.65,6.38-8.65l3.3-1.64V53.56l.74-.81s1.84-6.54,2.09-7.36.49-8.86.49-8.86l5-.13c3.8-.4,1-8.58.62-11.17s-6.87-2.32-6.87-2.32V19.09c7.11-2.59,8.34.27,8.34.27a3.79,3.79,0,0,0,2.93-1.09C92.19,15.15,83.37,16.1,78.35,19.23Zm4.54,7c.61-.41,3.3.27,3.3.27.73,1.91,2.2,8.58.61,9s-3.91-1.09-3.91-1.09Z"/><path class="2246beaf-ab5c-4227-8807-4218b5972f3e" d="M102,28.78c.49,0,1.72-1.64,1.72-1.64l4-.54s2.94-2.31,5.15-1.91,7.23,0,4.9-2.86a3.84,3.84,0,0,0-5-1.23s-2.58.54-2.81,0,2.32-4,2.08-5.72a3.64,3.64,0,0,0-1.22-2.46c-2.2,6.41-11.39,14-11.27,14.72S101.52,28.78,102,28.78Z"/><path class="2246beaf-ab5c-4227-8807-4218b5972f3e" d="M131.31,46.62c-3.32-3.27-8.58-5.58-20.6-8.31,0,0,2.95-2.59,2.7-11.44,0,0-.37-.81-1.47-.41,0,0,.25,10.08-3,11.17,0,0-11-2-14.45.54s-2.33,6.27,3.56,8.31,11.51-4.77,11.51-4.77,5.82-.4,16.49,6.75c0,0,2.39-.2,3.31,1.43S131,52.76,132,52.76C132,52.76,134.61,49.89,131.31,46.62ZM100.17,45c-4.42.13-5.64-2.86-5.64-2.86A3.08,3.08,0,0,1,95,40.35c3.92-3.54,12,0,12,0C106.06,42.4,104.58,44.86,100.17,45Z"/><path class="2246beaf-ab5c-4227-8807-4218b5972f3e" d="M123.44,33.06s.5,2.86,5.64,2l.86.82v4.91a2.82,2.82,0,0,0,1.23.94c.61.15,2.21-1.36,2.21-1.36l.11-9.4s2.7-2.18,2.58-3.68-1.59-1.23-3.44.54a6.48,6.48,0,0,1-3.56,2C128.22,30.2,122.82,29.52,123.44,33.06Z"/><path class="2246beaf-ab5c-4227-8807-4218b5972f3e" d="M143.9,23.79s1.23,0,1.47,2.46,3.56.41,3.67-2.18-2.08-3.4-3.92-2.73A1.91,1.91,0,0,0,143.9,23.79Z"/><path class="2246beaf-ab5c-4227-8807-4218b5972f3e" d="M143.05,28.56s1.1-.41,1.1,1a20.57,20.57,0,0,1-1.1,5.86c-.61,1.5.61,3.27,4.53,3.27s8.34.68,7.24-2.18-2.33-5.31-1.47-6.81c0,0,1,3.54,3.06,5s4.28,4.47,1.23,6.27c-2.08,1.22-13.86-.13-13.86-.13s-4.28-1.5-1.84-6.82C141.94,34,143.29,30.74,143.05,28.56Z"/><path class="2246beaf-ab5c-4227-8807-4218b5972f3e" d="M167.55,17.6a4.77,4.77,0,0,0,3.31,1.9,5.72,5.72,0,0,0,4.41-1.5c.85-.81.85,2.45.85,2.45S171.73,23.18,169,23l-.73-1-1.1.14s-3.06,12.8-6,16.21A134.48,134.48,0,0,1,151,48.93s.12,1.23,1.11,1,9.56-8.45,10.54-9.94,5.28-11.18,6-14.71c0,0,7.72-1.49,11-1.09,0,0,1.59-.13,1.22-2.59l-2-1.23V16.37s2.09-1.5,2.21-2.86-2.57-.69-2.82-.27-2.82,1.23-2.82,1.23S167.18,16,167.55,17.6Z"/><path class="2246beaf-ab5c-4227-8807-4218b5972f3e" d="M167.8,32s1.22,1.77,4.77.82,8.7-3.81,10.8-3.4,3.92,3.13,4,6.13,0,8,0,8-2.33,1.36-3.68,0a28.63,28.63,0,0,0-2.2-2l-1.35-1.09.48-1.5s1.35-.82,1.35-1.5-1-3.41-5.14-2.45c0,0-3.31,2.18-5.15,2.32,0,0,0,1.36.62,1.63s2.69,1.22,1.84,2.59-2.09.13-2.09.13l-1.71-1.5s-1.59-.55-1.84.13,1,5.86,2.45,6.54,3.19-1.36,4.29-1.91,7.48-.68,8.46.14,1.84,3.68,2.7,3.81,4.78-3.41,4-6.67a77.1,77.1,0,0,1-1-10.08s-.73-4.9-7.72-3.54c0,0-4.78,1.63-5.52,1.77S167.06,30.81,167.8,32Z"/></svg>