<svg id="98752bf0-e681-4abd-a4a1-147e2361f0a1" data-name="圖層 1" xmlns="http://www.w3.org/2000/svg" viewBox="0 0 216.76 212.62"><defs><style>.\31 890bc0f-327a-48d8-b292-2b1a7ba9e9f6{fill:#ededed;}.\31 890bc0f-327a-48d8-b292-2b1a7ba9e9f6,.\33 33d4f77-11be-4579-8d63-2e48481dd3b7,.c2ee80df-10c2-478f-a9ae-8aaf2e07963a{stroke:#1a1a1a;stroke-miterlimit:10;}.c2ee80df-10c2-478f-a9ae-8aaf2e07963a{fill:#fff;}.\33 33d4f77-11be-4579-8d63-2e48481dd3b7{fill:#c92028;}</style></defs><title>icon</title><polygon class="1890bc0f-327a-48d8-b292-2b1a7ba9e9f6" points="82.12 23.89 82.12 130.1 108.38 145.27 108.38 39.05 82.12 23.89"/><polygon class="c2ee80df-10c2-478f-a9ae-8aaf2e07963a" points="108.38 8.72 82.12 23.89 108.38 39.05 134.64 23.89 108.38 8.72"/><polygon class="333d4f77-11be-4579-8d63-2e48481dd3b7" points="134.64 130.1 108.38 145.27 108.38 39.05 134.64 23.89 134.64 130.1"/><polygon class="1890bc0f-327a-48d8-b292-2b1a7ba9e9f6" points="82.12 23.89 82.12 130.1 108.38 145.27 108.38 39.05 82.12 23.89"/><polygon class="c2ee80df-10c2-478f-a9ae-8aaf2e07963a" points="108.38 8.72 82.12 23.89 108.38 39.05 134.64 23.89 108.38 8.72"/><polygon class="333d4f77-11be-4579-8d63-2e48481dd3b7" points="134.64 130.1 108.38 145.27 108.38 39.05 134.64 23.89 134.64 130.1"/><polygon class="1890bc0f-327a-48d8-b292-2b1a7ba9e9f6" points="82.12 160.51 82.12 190.75 108.38 205.92 108.38 175.67 82.12 160.51"/><polygon class="c2ee80df-10c2-478f-a9ae-8aaf2e07963a" points="108.38 145.35 82.12 160.51 108.38 175.67 134.64 160.51 108.38 145.35"/><polygon class="333d4f77-11be-4579-8d63-2e48481dd3b7" points="134.64 190.75 108.38 205.92 108.38 175.67 134.64 160.51 134.64 190.75"/><polygon class="1890bc0f-327a-48d8-b292-2b1a7ba9e9f6" points="121.51 84.58 121.51 114.94 134.64 122.52 134.64 92.16 121.51 84.58"/><polygon class="c2ee80df-10c2-478f-a9ae-8aaf2e07963a" points="134.64 77 121.51 84.58 134.64 92.16 147.78 84.58 134.64 77"/><polygon class="333d4f77-11be-4579-8d63-2e48481dd3b7" points="147.78 114.94 134.64 122.52 134.64 92.16 147.78 84.58 147.78 114.94"/><polygon class="1890bc0f-327a-48d8-b292-2b1a7ba9e9f6" points="82.12 16.29 82.12 31.48 88.68 35.27 88.68 20.08 82.12 16.29"/><polygon class="c2ee80df-10c2-478f-a9ae-8aaf2e07963a" points="88.68 12.5 82.12 16.29 88.68 20.08 95.25 16.29 88.68 12.5"/><polygon class="333d4f77-11be-4579-8d63-2e48481dd3b7" points="95.25 31.48 88.68 35.27 88.68 20.08 95.25 16.29 95.25 31.48"/><polygon class="1890bc0f-327a-48d8-b292-2b1a7ba9e9f6" points="68.99 117.48 68.99 137.69 82.12 145.27 82.12 125.06 68.99 117.48"/><polygon class="c2ee80df-10c2-478f-a9ae-8aaf2e07963a" points="82.12 109.9 68.99 117.48 82.12 125.06 95.25 117.48 82.12 109.9"/><polygon class="333d4f77-11be-4579-8d63-2e48481dd3b7" points="95.25 137.69 82.12 145.27 82.12 125.06 95.25 117.48 95.25 137.69"/></svg>