<svg id="圖層_1" data-name="圖層 1" xmlns="http://www.w3.org/2000/svg" viewBox="0 0 301.34 71.99"><defs><style>.cls-1{fill:#4e60ff;}.cls-2{fill:#2149a4;}</style></defs><title>Logo-Blue</title><path class="cls-1" d="M281,35.14a8.51,8.51,0,0,0-8.51-8.51h0A8.51,8.51,0,0,0,264,35.14v.71a8.51,8.51,0,0,0,8.51,8.51h0A8.51,8.51,0,0,0,281,35.85Z"/><path class="cls-2" d="M17,34.43a8.51,8.51,0,0,0-8.51-8.51h0A8.51,8.51,0,0,0,0,34.43v.71a8.51,8.51,0,0,0,8.51,8.51h0A8.51,8.51,0,0,0,17,35.14Z"/><path class="cls-2" d="M37.32,22.68a8.5,8.5,0,0,0-8.5-8.51h0a8.51,8.51,0,0,0-8.51,8.51V35.14a8.51,8.51,0,0,0,8.51,8.51h0a8.5,8.5,0,0,0,8.5-8.51Z"/><path class="cls-2" d="M57.63,8.51A8.51,8.51,0,0,0,49.13,0h0a8.51,8.51,0,0,0-8.51,8.51V35.14a8.51,8.51,0,0,0,8.51,8.51h0a8.51,8.51,0,0,0,8.5-8.51Z"/><path class="cls-2" d="M77.94,22.68a8.51,8.51,0,0,0-8.5-8.51h0a8.51,8.51,0,0,0-8.51,8.51V35.14a8.51,8.51,0,0,0,8.51,8.51h0a8.51,8.51,0,0,0,8.5-8.51Z"/><path class="cls-1" d="M98.25,22.68a8.51,8.51,0,0,0-8.51-8.51h0a8.51,8.51,0,0,0-8.5,8.51V35.14a8.51,8.51,0,0,0,8.5,8.51h0a8.51,8.51,0,0,0,8.51-8.51Z"/><path class="cls-2" d="M118.56,22.68a8.51,8.51,0,0,0-8.51-8.51h0a8.51,8.51,0,0,0-8.5,8.51V35.14a8.51,8.51,0,0,0,8.5,8.51h0a8.51,8.51,0,0,0,8.51-8.51Z"/><path class="cls-2" d="M159.18,22.68a8.51,8.51,0,0,0-8.51-8.51h0a8.51,8.51,0,0,0-8.51,8.51V35.14a8.51,8.51,0,0,0,8.51,8.51h0a8.51,8.51,0,0,0,8.51-8.51Z"/><path class="cls-2" d="M138.87,22.68a8.51,8.51,0,0,0-8.51-8.51h0a8.5,8.5,0,0,0-8.5,8.51V35.14a8.5,8.5,0,0,0,8.5,8.51h0a8.51,8.51,0,0,0,8.51-8.51Z"/><path class="cls-2" d="M179.49,36.85a8.51,8.51,0,0,0-8.51-8.5h0a8.51,8.51,0,0,0-8.51,8.5V49.31A8.51,8.51,0,0,0,171,57.82h0a8.51,8.51,0,0,0,8.51-8.51Z"/><path class="cls-1" d="M199.8,22.68a8.51,8.51,0,0,0-8.51-8.51h0a8.51,8.51,0,0,0-8.51,8.51V35.14a8.51,8.51,0,0,0,8.51,8.51h0a8.51,8.51,0,0,0,8.51-8.51Z"/><path class="cls-2" d="M220.11,22.68a8.51,8.51,0,0,0-8.51-8.51h0a8.51,8.51,0,0,0-8.51,8.51V63.49A8.5,8.5,0,0,0,211.6,72h0a8.5,8.5,0,0,0,8.51-8.5Z"/><path class="cls-1" d="M240.42,8.51A8.51,8.51,0,0,0,231.91,0h0a8.51,8.51,0,0,0-8.51,8.51v40.8a8.51,8.51,0,0,0,8.51,8.51h0a8.51,8.51,0,0,0,8.51-8.51Z"/><path class="cls-1" d="M260.73,22.68a8.51,8.51,0,0,0-8.51-8.51h0a8.51,8.51,0,0,0-8.51,8.51V35.14a8.51,8.51,0,0,0,8.51,8.51h0a8.51,8.51,0,0,0,8.51-8.51Z"/><path class="cls-2" d="M301.34,22.68a8.5,8.5,0,0,0-8.5-8.51h0a8.51,8.51,0,0,0-8.51,8.51V35.14a8.51,8.51,0,0,0,8.51,8.51h0a8.5,8.5,0,0,0,8.5-8.51Z"/></svg>