<?xml version="1.0" encoding="UTF-8"?>
<svg width="163px" height="39px" viewBox="0 0 163 39" version="1.1" xmlns="http://www.w3.org/2000/svg" xmlns:xlink="http://www.w3.org/1999/xlink">
    <!-- Generator: Sketch 49.1 (51147) - http://www.bohemiancoding.com/sketch -->
    <title>Logo</title>
    <desc>Created with Sketch.</desc>
    <defs>
        <polygon id="path-1" points="0.0118040519 0.0236751616 8.99416327 0.0236751616 8.99416327 23.9461327 0.0118040519 23.9461327"></polygon>
        <polygon id="path-3" points="0 0.00016123338 8.98254065 0.00016123338 8.98254065 8.94956604 0 8.94956604"></polygon>
    </defs>
    <g id="Logo" stroke="none" stroke-width="1" fill="none" fill-rule="evenodd">
        <g id="Page-1">
            <path d="M118.997395,23.5846929 C118.997395,27.1928175 119.0049,30.8011426 118.994433,34.4092672 C118.988508,36.4744912 117.741784,38.1955113 115.856985,38.7898449 C113.980678,39.3815709 111.960799,38.6963722 110.825654,37.0788541 C110.274078,36.2927611 110.004905,35.4091838 110.00451,34.4487824 C110.000561,27.1657385 109.996216,19.882494 110.005695,12.5992495 C110.008855,10.026144 112.02044,7.99040593 114.507371,8.00003401 C117.010496,8.0096621 118.988706,10.0305568 118.995223,12.6098805 C119.004307,16.2681513 118.997593,19.9264221 118.997395,23.5846929" id="Fill-1" fill="#FFFFFF"></path>
            <path d="M129.997286,15.554942 C129.997286,19.1778237 129.998667,22.8009058 129.996694,26.4237876 C129.995312,28.9473563 128.020245,30.9679753 125.529112,30.9996477 C123.135863,31.0301174 121.098039,29.0802601 121.030546,26.6174302 C120.977459,24.6824068 121.009824,22.7445771 121.009232,20.80795 C121.007653,15.4653371 121.004693,10.1227242 121.010811,4.78031173 C121.013376,2.50210387 122.262792,0.777962578 124.320942,0.17297962 C127.100797,-0.644288611 129.986431,1.54090663 129.99472,4.48583858 C130.004982,8.17547289 129.997088,11.8653077 129.997286,15.554942" id="Fill-3" fill="#FFFFFF" opacity="0.283967391"></path>
            <g id="Group-7" transform="translate(22.000000, 0.000000)">
                <mask id="mask-2" fill="white">
                    <use xlink:href="#path-1"></use>
                </mask>
                <g id="Clip-6"></g>
                <path d="M8.97780269,11.9779168 C8.97780269,14.3665036 8.92408729,16.7567292 8.99216615,19.1432674 C9.06850892,21.819263 6.94448784,23.9323224 4.61800102,23.9460476 C2.02018255,23.9612067 0.039796057,21.9495496 0.0279904743,19.2063622 C0.00733070467,14.395183 0.00516634784,9.58379905 0.0289742729,4.77282478 C0.0417636541,2.1892179 1.77639727,0.278348494 4.23786125,0.0409237898 C6.36247261,-0.163724424 8.42254679,1.46690599 8.89634417,3.74507694 C8.96147164,4.05809243 8.97367074,4.38790587 8.97445778,4.70993489 C8.98075409,7.13252725 8.97780269,9.55532447 8.97780269,11.9779168" id="Fill-5" fill="#FFFFFF" mask="url(#mask-2)"></path>
            </g>
            <path d="M88.0021105,22.9723333 C88.0019135,21.8569104 87.9969886,20.7412847 88.0028985,19.6258618 C88.0155063,17.2625608 89.7565685,15.2532174 91.9838199,15.0246156 C94.309373,14.7860745 96.3811936,16.3031227 96.8837337,18.6248412 C96.9511068,18.9357966 96.9875513,19.2601394 96.9887332,19.578397 C96.9974011,21.8601559 97.009024,24.1419147 96.9887332,26.4232679 C96.9706095,28.4723681 95.6582135,30.2429676 93.7847692,30.8101112 C91.9127039,31.3770519 89.8930876,30.6466213 88.7954186,28.9910327 C88.2834227,28.2190197 88.0084144,27.359785 88.0034895,26.4200225 C87.9977766,25.2707251 88.0021105,24.1216306 88.0021105,22.9723333" id="Fill-8" fill="#FFFFFF"></path>
            <path d="M154.02494,15.748504 C154.070224,14.6539783 153.90477,13.2940393 154.09022,11.9531744 C154.419363,9.57378843 156.476755,7.84413758 158.694699,8.01113695 C161.14573,8.19558705 162.949648,10.1078618 162.978661,12.606562 C163.005126,14.8715036 163.009242,17.1374599 162.978073,19.4024016 C162.941218,22.0559262 160.931071,24.0300901 158.353794,23.9996528 C155.959025,23.9714476 154.027292,21.8751286 154.025136,19.3013497 C154.024156,18.2025628 154.02494,17.103573 154.02494,15.748504" id="Fill-10" fill="#FFFFFF"></path>
            <path d="M74.981261,16.2936927 C74.9289977,17.3897436 75.0946292,18.7473289 74.9103322,20.0905085 C74.5959664,22.3810153 72.6956249,24.0121061 70.4099888,23.9999323 C68.2518674,23.9889759 66.3756928,22.2945811 66.0723298,20.0736681 C66.0291045,19.7571484 66.0055271,19.4351505 66.0045447,19.1155874 C65.9988468,17.0026156 65.9990433,14.8898468 66.0021869,12.7768751 C66.0061165,10.1014723 67.9648121,8.01325402 70.477381,8.0000657 C73.0088119,7.98647158 74.9796892,10.084226 74.981261,12.7943243 C74.9816539,13.8759694 74.981261,14.9580203 74.981261,16.2936927" id="Fill-12" fill="#FFFFFF"></path>
            <path d="M140.980882,16.2723682 C140.943585,17.3268287 141.076086,18.6325348 140.928077,19.9264796 C140.642267,22.4287957 138.597425,24.139658 136.127007,23.9910196 C133.878211,23.8557648 132.048905,21.8474229 132.020441,19.4266248 C131.993745,17.1459482 131.992567,14.8642577 132.020638,12.5835811 C132.052634,10.0102918 134.064694,7.98167183 136.516071,8.00012489 C138.978244,8.01878074 140.951633,10.0607842 140.978919,12.6308291 C140.990893,13.762752 140.980882,14.8950804 140.980882,16.2723682" id="Fill-14" fill="#FFFFFF" opacity="0.283967391"></path>
            <path d="M77.0012814,15.9781965 C77.0012814,14.8291674 76.9979282,13.6801383 77.0020704,12.5309064 C77.0111437,10.0506752 78.9922832,8.03987436 81.4614095,8.00051849 C83.8098211,7.96339414 85.8960928,9.92469587 85.9538859,12.3331127 C86.0122707,14.7646562 86.0181881,17.1998513 85.9544776,19.6311919 C85.887414,22.1830346 83.8131743,24.0611615 81.2604157,23.9984761 C78.9333066,23.941471 77.0064098,21.873665 77.0014787,19.4254865 C76.999309,18.2764575 77.0012814,17.1274284 77.0012814,15.9781965" id="Fill-16" fill="#FFFFFF"></path>
            <path d="M55.0005952,16.0076431 C55.0005952,14.8755654 54.9998094,13.7434877 55.0007917,12.61141 C55.0029527,10.0768623 56.9163005,8.07985376 59.4162851,8.0019613 C61.720986,7.93035703 63.7995586,9.82817442 63.9125245,12.2527802 C64.0288303,14.7489902 64.0292232,17.2549367 63.9133104,19.7511467 C63.7958258,22.2796091 61.6954459,24.098317 59.1771903,23.9958803 C56.8913498,23.9031801 55.0049174,21.8301047 55.0009881,19.4038762 C54.9990235,18.2717985 55.0005952,17.1397208 55.0005952,16.0076431" id="Fill-18" fill="#FFFFFF"></path>
            <path d="M11.0016668,15.9521709 C11.0016668,14.8366961 10.9973268,13.7214242 11.0026532,12.6059494 C11.0146868,10.048757 13.0158285,7.99918869 15.4949637,8.00000024 C17.9437187,8.0006089 19.9687305,10.0428732 19.9870769,12.5611113 C20.0038452,14.8594195 20.0048315,17.1579306 19.9868796,19.4562388 C19.9667577,22.0239814 17.9378005,24.0161325 15.3923815,23.9999015 C12.986632,23.984685 11.0113332,21.9170597 11.0022586,19.3998361 C10.9981159,18.250682 11.0016668,17.1015279 11.0016668,15.9521709" id="Fill-20" fill="#FFFFFF"></path>
            <path d="M33.0280303,15.7189261 C33.077716,14.6130003 32.8940949,13.234397 33.1006932,11.8797341 C33.4585088,9.53418116 35.4783408,7.85956873 37.6692252,8.00929783 C40.1079489,8.17627215 41.9286453,10.0574215 41.9694936,12.5326179 C42.0077889,14.8475353 42.012895,17.1640757 41.9683153,19.4785873 C41.9176477,22.1089907 39.9027253,24.0366007 37.3263349,23.9994727 C34.9539897,23.965388 33.0309761,21.8748615 33.0282266,19.3262207 C33.0270483,18.2107592 33.0280303,17.0952977 33.0280303,15.7189261" id="Fill-22" fill="#FFFFFF"></path>
            <path d="M99.0008571,15.9641862 C99.0008571,14.8320768 98.9986878,13.6999675 99.0012515,12.568061 C99.0071677,10.0710116 100.965046,8.05118422 103.426,8.00088628 C105.820693,7.95200804 107.906164,9.93106978 107.960199,12.3981027 C108.012065,14.7791423 108.013642,17.1632242 107.962566,19.5442638 C107.906756,22.154078 105.843569,24.0617491 103.246147,23.998471 C100.901545,23.9414802 99.0020403,21.8666901 99.0008571,19.3603113 C99.0004627,18.2284048 99.0008571,17.0962955 99.0008571,15.9641862" id="Fill-24" fill="#FFFFFF" opacity="0.283967391"></path>
            <path d="M52.9985898,16.0402074 C52.9985898,17.1714629 53.002125,18.3027183 52.9980006,19.4339738 C52.9889662,21.8334837 51.1088281,23.9006291 48.8533694,23.9954746 C46.3537854,24.1006558 44.2833356,22.3618218 44.1232696,19.8761808 C43.9573115,17.3009634 43.9602575,14.7123705 44.1240552,12.1369505 C44.24327,10.2615227 45.2989205,8.96590893 46.9877649,8.32205394 C48.7384754,7.65469023 50.3458138,8.03427488 51.6980284,9.37001559 C52.5777044,10.2390273 53.0033034,11.3311691 52.9993754,12.5957757 C52.9956438,13.7438521 52.9985898,14.8921311 52.9985898,16.0402074" id="Fill-26" fill="#FFFFFF" opacity="0.283967391"></path>
            <g id="Group-30" transform="translate(0.000000, 14.000000)">
                <mask id="mask-4" fill="white">
                    <use xlink:href="#path-3"></use>
                </mask>
                <g id="Clip-29"></g>
                <path d="M8.98254065,4.49168366 C8.98254065,7.03785956 7.06010175,8.94843424 4.49704669,8.94956554 C1.94225765,8.95069684 -5.90429637e-05,7.02258703 -5.90429637e-05,4.48546151 C0.000137766915,1.93061232 1.96351312,-0.0140898682 4.52833946,0.00023991331 C7.08391574,0.0147582445 8.98254065,1.92929247 8.98254065,4.49168366" id="Fill-28" fill="#FFFFFF" mask="url(#mask-4)"></path>
            </g>
            <path d="M143.004286,19.4825101 C143.008419,17.2555594 144.511786,15.4462093 146.6698,15.0710124 C148.806557,14.6994122 150.94233,15.8123197 151.674921,17.7979101 C152.769478,20.764843 150.993899,23.6626806 147.939533,23.976165 C145.353813,24.241756 142.88304,22.2586265 143.004286,19.4825101" id="Fill-31" fill="#FFFFFF" opacity="0.283967391"></path>
        </g>
    </g>
</svg>