<svg xmlns="http://www.w3.org/2000/svg" viewBox="0 0 614.2 552.06"><defs><style>.bf8a077c-0367-4734-98d7-f6a3e3a8bb46{isolation:isolate;}.\30 f69e17c-252d-4fe4-a91a-95273f684d4f,.\36 2ecf9d1-9551-4bc2-b286-b830ff559745,.b8a2700a-8a61-409d-b9d6-666a3132dc92,.c4716b13-5221-433a-a25f-52a98c9324a2{fill:#fff;}.\30 f69e17c-252d-4fe4-a91a-95273f684d4f,.\32 c7cd193-715c-4a7d-941d-eb4bc5db253e,.\33 06c9188-d771-4a69-9492-1de96ddadfa5,.\33 5770de2-1f62-490d-bb0f-9c56cce26d4c,.\34 1d9ab78-945b-41da-9c44-1e9891e3bb29,.\35 ba148d9-60c7-4529-8bf5-0665e6a7de34,.\36 2ecf9d1-9551-4bc2-b286-b830ff559745,.\36 6151fd8-a4a2-4076-8be7-c5cecf853f4c,.\38 ceab84d-9c35-4828-895a-0446e3018c4e,.\39 1c7da01-5509-43fb-aa6d-f5c79ef7e1c5,.b8a2700a-8a61-409d-b9d6-666a3132dc92,.c4716b13-5221-433a-a25f-52a98c9324a2,.ce7908aa-d7d6-4ae3-87b5-58676fa178af,.e1b9ee6a-07ef-42f5-8771-2864a8bd5739{stroke:#1a1a1a;}.\30 f69e17c-252d-4fe4-a91a-95273f684d4f,.\32 c7cd193-715c-4a7d-941d-eb4bc5db253e,.\34 1d9ab78-945b-41da-9c44-1e9891e3bb29,.\36 6151fd8-a4a2-4076-8be7-c5cecf853f4c,.\38 ceab84d-9c35-4828-895a-0446e3018c4e,.\39 1c7da01-5509-43fb-aa6d-f5c79ef7e1c5,.b8a2700a-8a61-409d-b9d6-666a3132dc92,.e1b9ee6a-07ef-42f5-8771-2864a8bd5739{stroke-linecap:round;}.\30 f69e17c-252d-4fe4-a91a-95273f684d4f,.\32 c7cd193-715c-4a7d-941d-eb4bc5db253e,.\34 1d9ab78-945b-41da-9c44-1e9891e3bb29,.\35 ba148d9-60c7-4529-8bf5-0665e6a7de34,.\36 6151fd8-a4a2-4076-8be7-c5cecf853f4c,.\38 ceab84d-9c35-4828-895a-0446e3018c4e,.\39 1c7da01-5509-43fb-aa6d-f5c79ef7e1c5,.b8a2700a-8a61-409d-b9d6-666a3132dc92,.e1b9ee6a-07ef-42f5-8771-2864a8bd5739{stroke-linejoin:round;}.\33 5770de2-1f62-490d-bb0f-9c56cce26d4c,.\35 ba148d9-60c7-4529-8bf5-0665e6a7de34,.\38 ceab84d-9c35-4828-895a-0446e3018c4e,.\39 1c7da01-5509-43fb-aa6d-f5c79ef7e1c5,.d16e35b5-c70e-46a8-9c69-6a6d4b698159,.ed8ebde7-bdc9-4f0f-94c8-773a625dc8d3{fill:#c92028;}.\36 6151fd8-a4a2-4076-8be7-c5cecf853f4c{fill:#fff5f6;}.\32 c7cd193-715c-4a7d-941d-eb4bc5db253e,.\34 1d9ab78-945b-41da-9c44-1e9891e3bb29,.b93b15a1-e177-4d03-9b1a-17022d739664,.ce7908aa-d7d6-4ae3-87b5-58676fa178af{fill:none;}.b93b15a1-e177-4d03-9b1a-17022d739664{stroke:#e6e6e6;stroke-width:0.75px;}.\33 06c9188-d771-4a69-9492-1de96ddadfa5,.\33 5770de2-1f62-490d-bb0f-9c56cce26d4c,.\36 2ecf9d1-9551-4bc2-b286-b830ff559745,.b93b15a1-e177-4d03-9b1a-17022d739664,.c4716b13-5221-433a-a25f-52a98c9324a2,.ce7908aa-d7d6-4ae3-87b5-58676fa178af{stroke-miterlimit:10;}.\30 f69e17c-252d-4fe4-a91a-95273f684d4f,.\32 c7cd193-715c-4a7d-941d-eb4bc5db253e,.\33 06c9188-d771-4a69-9492-1de96ddadfa5,.\33 5770de2-1f62-490d-bb0f-9c56cce26d4c,.\35 ba148d9-60c7-4529-8bf5-0665e6a7de34,.\39 1c7da01-5509-43fb-aa6d-f5c79ef7e1c5,.c4716b13-5221-433a-a25f-52a98c9324a2,.e1b9ee6a-07ef-42f5-8771-2864a8bd5739{stroke-width:0.8px;}.\33 06c9188-d771-4a69-9492-1de96ddadfa5,.e1b9ee6a-07ef-42f5-8771-2864a8bd5739{fill:#1a1a1a;}.ed8ebde7-bdc9-4f0f-94c8-773a625dc8d3{mix-blend-mode:multiply;}</style></defs><title>scene</title><g class="bf8a077c-0367-4734-98d7-f6a3e3a8bb46"><g id="2d1d1fff-4561-4699-ae90-d0fdcf84dd9e" data-name="圖層 1"><g id="820e903c-e61d-46ad-9c7d-0c018ac55026" data-name="island_2"><polygon class="b8a2700a-8a61-409d-b9d6-666a3132dc92" points="269 246.74 186.61 199.17 49.29 278.45 131.68 326.02 269 246.74"/><polygon class="8ceab84d-9c35-4828-895a-0446e3018c4e" points="49.29 278.45 49.29 295.82 131.68 343.42 131.68 326.04 49.29 278.45"/><polygon class="8ceab84d-9c35-4828-895a-0446e3018c4e" points="131.68 325.9 131.12 343.38 268.66 265.9 269.23 246.51 131.68 325.9"/><polygon class="66151fd8-a4a2-4076-8be7-c5cecf853f4c" points="172.39 237.19 168.3 215.08 190.06 227.24 190.06 247.77 172.39 237.19"/><polygon class="b8a2700a-8a61-409d-b9d6-666a3132dc92" points="207.72 237.19 211.81 215.08 190.06 227.24 190.06 247.77 207.72 237.19"/><polygon class="8ceab84d-9c35-4828-895a-0446e3018c4e" points="168.3 215.08 190.06 202.69 211.81 215.08 190.06 227.24 168.3 215.08"/><polygon class="66151fd8-a4a2-4076-8be7-c5cecf853f4c" points="172.39 212.26 168.3 190.16 190.06 202.31 190.06 222.84 172.39 212.26"/><polygon class="b8a2700a-8a61-409d-b9d6-666a3132dc92" points="207.72 212.26 211.81 190.16 190.06 202.31 190.06 222.84 207.72 212.26"/><polygon class="8ceab84d-9c35-4828-895a-0446e3018c4e" points="168.3 190.16 190.06 177.76 211.81 190.16 190.06 202.31 168.3 190.16"/><polygon class="66151fd8-a4a2-4076-8be7-c5cecf853f4c" points="172.39 187 168.3 164.9 190.06 177.06 190.06 197.59 172.39 187"/><polygon class="b8a2700a-8a61-409d-b9d6-666a3132dc92" points="207.72 187 211.81 164.9 190.06 177.06 190.06 197.59 207.72 187"/><polygon class="8ceab84d-9c35-4828-895a-0446e3018c4e" points="168.3 164.9 190.06 152.51 211.81 164.9 190.06 177.06 168.3 164.9"/><polygon class="66151fd8-a4a2-4076-8be7-c5cecf853f4c" points="172.39 162.08 168.3 139.98 190.06 152.13 190.06 172.66 172.39 162.08"/><polygon class="b8a2700a-8a61-409d-b9d6-666a3132dc92" points="207.72 162.08 211.81 139.98 190.06 152.13 190.06 172.66 207.72 162.08"/><polygon class="8ceab84d-9c35-4828-895a-0446e3018c4e" points="168.3 139.98 190.06 127.58 211.81 139.98 190.06 152.13 168.3 139.98"/><polygon class="66151fd8-a4a2-4076-8be7-c5cecf853f4c" points="172.39 137.1 168.3 115 190.06 127.16 190.06 147.69 172.39 137.1"/><polygon class="b8a2700a-8a61-409d-b9d6-666a3132dc92" points="207.72 137.1 211.81 115 190.06 127.16 190.06 147.69 207.72 137.1"/><polygon class="8ceab84d-9c35-4828-895a-0446e3018c4e" points="168.3 115 190.06 102.61 211.81 115 190.06 127.16 168.3 115"/><polygon class="66151fd8-a4a2-4076-8be7-c5cecf853f4c" points="172.39 112.18 168.3 90.08 190.06 102.23 190.06 122.76 172.39 112.18"/><polygon class="b8a2700a-8a61-409d-b9d6-666a3132dc92" points="207.72 112.18 211.81 90.08 190.06 102.23 190.06 122.76 207.72 112.18"/><polygon class="8ceab84d-9c35-4828-895a-0446e3018c4e" points="168.3 90.08 190.06 77.68 211.81 90.08 190.06 102.23 168.3 90.08"/><polygon class="66151fd8-a4a2-4076-8be7-c5cecf853f4c" points="179.64 90.61 177.23 77.58 190.06 84.75 190.06 96.85 179.64 90.61"/><polygon class="b8a2700a-8a61-409d-b9d6-666a3132dc92" points="200.47 90.61 202.88 77.58 190.06 84.75 190.06 96.85 200.47 90.61"/><polygon class="8ceab84d-9c35-4828-895a-0446e3018c4e" points="177.23 77.58 190.06 70.28 202.88 77.58 190.06 84.75 177.23 77.58"/><polygon class="8ceab84d-9c35-4828-895a-0446e3018c4e" points="186.87 77.61 186.19 43.99 189.84 46.04 189.84 79.39 186.87 77.61"/><polygon class="8ceab84d-9c35-4828-895a-0446e3018c4e" points="192.81 77.61 193.5 43.99 189.84 46.04 189.84 79.39 192.81 77.61"/><polygon class="8ceab84d-9c35-4828-895a-0446e3018c4e" points="186.19 43.99 189.84 41.91 193.5 43.99 189.84 46.04 186.19 43.99"/><polygon class="b8a2700a-8a61-409d-b9d6-666a3132dc92" points="152.76 221.49 172.17 233 133.34 255.37 113.93 244.21 152.76 221.49"/><polygon class="b8a2700a-8a61-409d-b9d6-666a3132dc92" points="113.93 266.62 113.93 244.21 133.34 255.37 133.34 278.56 113.93 266.62"/><polygon class="b8a2700a-8a61-409d-b9d6-666a3132dc92" points="172.23 255.46 172.17 233 133.34 255.37 133.34 278.56 172.23 255.46"/><polygon class="8ceab84d-9c35-4828-895a-0446e3018c4e" points="152.76 216.98 172.17 228.5 133.34 250.87 113.93 239.71 152.76 216.98"/><polygon class="8ceab84d-9c35-4828-895a-0446e3018c4e" points="113.93 262.12 113.93 239.71 133.34 250.87 133.34 274.05 113.93 262.12"/><polygon class="8ceab84d-9c35-4828-895a-0446e3018c4e" points="172.23 250.95 172.17 228.5 133.34 250.87 133.34 274.05 172.23 250.95"/><polygon class="b8a2700a-8a61-409d-b9d6-666a3132dc92" points="100.22 209.46 119.64 220.98 100.54 231.79 81.13 220.63 100.22 209.46"/><polygon class="66151fd8-a4a2-4076-8be7-c5cecf853f4c" points="81.13 284.27 81.13 220.63 100.54 231.79 100.54 296.2 81.13 284.27"/><polygon class="b8a2700a-8a61-409d-b9d6-666a3132dc92" points="119.7 284.65 119.64 220.98 100.54 231.79 100.54 296.2 119.7 284.65"/><polygon class="b8a2700a-8a61-409d-b9d6-666a3132dc92" points="109.4 290.4 109.4 282.2 113.69 279.23 113.93 288.13 109.4 290.4"/><polygon class="b8a2700a-8a61-409d-b9d6-666a3132dc92" points="103.31 234.22 103.31 281.45 117.43 274.02 117.43 226.2 103.31 234.22"/><polygon class="b8a2700a-8a61-409d-b9d6-666a3132dc92" points="165.68 235.01 185.09 246.53 166 257.34 146.59 246.18 165.68 235.01"/><polygon class="66151fd8-a4a2-4076-8be7-c5cecf853f4c" points="146.59 284.27 146.59 246.18 166 257.34 166 296.2 146.59 284.27"/><polygon class="b8a2700a-8a61-409d-b9d6-666a3132dc92" points="185.16 284.65 185.09 246.53 166 257.34 166 296.2 185.16 284.65"/><polygon class="b8a2700a-8a61-409d-b9d6-666a3132dc92" points="231.35 228.3 244.63 236.18 220.57 250.67 207.3 243.03 231.35 228.3"/><polygon class="66151fd8-a4a2-4076-8be7-c5cecf853f4c" points="207.3 257.02 207.3 243.03 220.57 250.67 220.57 265.18 207.3 257.02"/><polygon class="b8a2700a-8a61-409d-b9d6-666a3132dc92" points="244.68 250.19 244.63 236.18 220.57 250.67 220.57 265.18 244.68 250.19"/></g><g id="83498c88-6651-46bb-a18d-f48ddc689e4d" data-name="island_1"><polygon class="8ceab84d-9c35-4828-895a-0446e3018c4e" points="416.46 428.94 417.85 465 526.63 397.07 526.63 366.73 416.46 428.94"/><polygon class="66151fd8-a4a2-4076-8be7-c5cecf853f4c" points="309 400.41 309 372.71 416.46 430.16 417.85 465 309 400.41"/><g id="5e229c1f-86ab-49c3-9b86-46b8daf2b789" data-name="trigger_road"><polygon class="8ceab84d-9c35-4828-895a-0446e3018c4e" points="195.63 343.9 195.63 328.29 225.72 345.59 225.72 358.48 195.63 343.9"/><polygon class="b8a2700a-8a61-409d-b9d6-666a3132dc92" points="195.63 361.28 255.81 396.02 285.9 378.65 376.18 430.77 526.63 343.9 346.09 239.67 195.63 326.53 225.72 343.9 195.63 361.28"/><path class="b8a2700a-8a61-409d-b9d6-666a3132dc92" d="M314.68,289.86c-5.66,3.64-40.46-14.16-58.87-21s-60.18,57.71-60.18,57.71"/><path class="b8a2700a-8a61-409d-b9d6-666a3132dc92" d="M526.63,343.91C482.58,333.42,413.28,192,389.12,189.26s-111.26,87.89-111.26,87.89"/><path class="b8a2700a-8a61-409d-b9d6-666a3132dc92" d="M290.92,319.49S316.4,284,335.82,280s12.74,11.79,23.06,7.49,38.94,34.75,38.94,34.75"/><polygon class="8ceab84d-9c35-4828-895a-0446e3018c4e" points="376.18 430.77 376.18 451.68 526.63 366.73 526.63 343.9 376.18 430.77"/><polygon class="8ceab84d-9c35-4828-895a-0446e3018c4e" points="285.9 378.65 285.9 397.8 376.18 451.68 376.18 430.77 285.9 378.65"/><polygon class="8ceab84d-9c35-4828-895a-0446e3018c4e" points="255.81 413.4 255.81 396.02 285.9 378.65 285.9 397.8 255.81 413.4"/><polygon class="8ceab84d-9c35-4828-895a-0446e3018c4e" points="195.63 361.28 195.63 378.65 255.81 413.4 255.81 396.02 195.63 361.28"/><polygon class="b8a2700a-8a61-409d-b9d6-666a3132dc92" points="350.04 202.13 348.52 206.19 343.3 207.66 341.05 210.1 341.05 215.97 348.91 223.17 354.81 222.55 372.79 214.59 376.16 202.68 373.92 195.76 358.61 195.76 350.04 202.13"/><polygon class="8ceab84d-9c35-4828-895a-0446e3018c4e" points="341.05 210.1 341.05 215.97 346.43 222.02 354.81 222.55 372.79 214.59 376.16 202.68 370.97 210.21 362.91 215.56 354 216.85 348.49 216.48 345.31 210.39 345.1 207.16 343.3 207.66 341.05 210.1"/><path class="b8a2700a-8a61-409d-b9d6-666a3132dc92" d="M326.67,210.3l-12,15.88L333.48,232s5.63,5.94,7,5.89,18.25-11.07,18.25-12S362,215.16,362,215.16L350,208H331.21Z"/><polygon class="8ceab84d-9c35-4828-895a-0446e3018c4e" points="320.14 220.67 329 227.96 342.39 227.96 345.53 232.06 349.42 228.18 352.2 226.37 361.06 218.02 358.75 225.85 340.51 237.9 333.48 232.01 314.68 226.18 320.14 220.67"/><path id="168e7b03-46eb-4440-bfc3-a1dea0a362e0" data-name="road" class="b8a2700a-8a61-409d-b9d6-666a3132dc92" d="M260.88,356.76S259,333.09,314.68,340.1s110,4.12,114.55-15.91-43-37.37-54.42-44.59c-20.56-13,5-53.19,5-53.19l8.52,2.36s-26.18,34.31-6.83,45.92c13.16,7.89,74.13,29.45,62.76,54.19s-82,33.69-143.62,18.52c0,0-33.07-3.17-27,9.8a7.43,7.43,0,0,1-2.43,4.08C269.07,363.19,260.88,356.76,260.88,356.76Z"/><rect id="56163845-ce77-41fc-bd5f-b7639e9bfe51" data-name="hidden" class="b93b15a1-e177-4d03-9b1a-17022d739664" x="397.1" y="265.52" width="52.53" height="51.57"/><g id="d206f31a-fcf5-447f-a469-53d670e1e3c9" data-name="sign"><path class="d16e35b5-c70e-46a8-9c69-6a6d4b698159" d="M423.36,268.76l-.54,11.55h-1.18l-.54-11.55Zm-.07,16.41h-2.11v-2.7h2.11Z"/></g></g><polygon class="62ecf9d1-9551-4bc2-b286-b830ff559745" points="384.71 173.94 384.71 183.4 371.73 176.5 371.73 169.14 384.71 173.94"/><polygon class="62ecf9d1-9551-4bc2-b286-b830ff559745" points="376.52 166.35 371.73 169.14 384.71 173.94 387.65 172 376.52 166.35"/><polygon class="62ecf9d1-9551-4bc2-b286-b830ff559745" points="384.71 183.4 388.63 180.66 387.65 172 384.71 173.94 384.71 183.4"/><circle class="62ecf9d1-9551-4bc2-b286-b830ff559745" cx="376.9" cy="175.3" r="2.4"/><path class="5ba148d9-60c7-4529-8bf5-0665e6a7de34" d="M401,157.53s13.54,20.12,12.17,32.51c0,0-20.31,1.54-26.92-2.27,0,0,1.22-24,4.28-28.3C390.57,159.47,398.78,159.36,401,157.53Z"/><polygon class="91c7da01-5509-43fb-aa6d-f5c79ef7e1c5" points="400.7 158.05 393.23 162.62 391.98 160.34 400.7 158.05"/><path class="5ba148d9-60c7-4529-8bf5-0665e6a7de34" d="M395.71,164.85s-9.81,9.93-14.09,10.44c0,0,16.13-2.78,19.75-11.07"/><path class="e1b9ee6a-07ef-42f5-8771-2864a8bd5739" d="M413.3,190.42S403,207.27,396.56,220l-5.37.9S387,197.81,386.84,188"/><line class="2c7cd193-715c-4a7d-941d-eb4bc5db253e" x1="391.57" y1="176.94" x2="391.45" y2="188.03"/><path class="306c9188-d771-4a69-9492-1de96ddadfa5" d="M392,148.38c-4.68-1.5-6.27-8.77,6.94-5.38,0,0,2.35-.59,2.36-.55.29,1.19,3,20.36,8.14,16.3,0,0-5.35,5.18-8.21,2.92l-1.74-1.76L392,148.49S392.06,148.39,392,148.38Z"/><path class="0f69e17c-252d-4fe4-a91a-95273f684d4f" d="M399,146.78a.14.14,0,0,0-.09-.16c-.84-.33-6.63-3.13-8.56,1.54-1.82,4.4-1.88,4.59-1.76,4.69l.05,0,2.22.88a.15.15,0,0,1,.09.14l-.42,5.64s8.3.29,9.5-1.48-.24-6.67-.65-7.75a.14.14,0,0,1,.09-.19c.43-.13,1.66-.59,1.65-1.48,0-1.09-1.35-1.36-2.55-.27S398.9,147.44,399,146.78Z"/><circle class="c4716b13-5221-433a-a25f-52a98c9324a2" cx="393.01" cy="150.01" r="0.22"/><path class="41d9ab78-945b-41da-9c44-1e9891e3bb29" d="M396.56,220v3.75s-6.57,2.22-10.27,0l4.9-2.85Z"/><line class="ce7908aa-d7d6-4ae3-87b5-58676fa178af" x1="364.35" y1="169.14" x2="359.77" y2="161.53"/><line class="ce7908aa-d7d6-4ae3-87b5-58676fa178af" x1="354.79" y1="173.94" x2="362.06" y2="173.94"/><line class="ce7908aa-d7d6-4ae3-87b5-58676fa178af" x1="366.01" y1="181.28" x2="354.79" y2="190.35"/><path class="b8a2700a-8a61-409d-b9d6-666a3132dc92" d="M341,374.82s33.38-42.54,46.36-46.53,34,10.11,48.43,3.61S459.1,306,470.18,312.67s33.23,33.23,33.23,33.23"/><g id="76ce15e2-cc0e-447c-ad2b-ef3d48c5a172" data-name="trigger_man_stone"><g id="84916594-1db6-49ac-b984-a5ab3b15befe" data-name="man"><path class="0f69e17c-252d-4fe4-a91a-95273f684d4f" d="M230.87,291.75s6-2.82,8,2.51,1.33,5.45,1.33,5.45l-2.27,1,.26,8s-9,0-10.16-1.85,1.77-9.94,1.77-9.94-1.76-.46-1.75-1.6,1.31-1.43,2.47-.29S230.87,291.75,230.87,291.75Z"/><ellipse class="c4716b13-5221-433a-a25f-52a98c9324a2" cx="236.24" cy="294.69" rx="0.22" ry="0.23"/><path class="306c9188-d771-4a69-9492-1de96ddadfa5" d="M237.68,292s-1.29-5.11-2.69-5.6l-.77,1s-4.38-.81-5.22.41a12.27,12.27,0,0,1-2.17,2.28s.67,3.18,0,3.42,3.88,2.11,3.88,2.11l-.3-3.6,2.33-1.13,3,.13Z"/><path class="0f69e17c-252d-4fe4-a91a-95273f684d4f" d="M228.09,306.2S214.94,327,216.27,339.85c0,0,19.71,1.59,26.13-2.35,0,0-1.18-24.79-4.16-29.28C238.24,308.22,230.28,308.1,228.09,306.2Z"/><path class="e1b9ee6a-07ef-42f5-8771-2864a8bd5739" d="M216.17,340.24s10,17.43,16.26,30.66l5.21.93s4.11-23.94,4.22-34.06"/><path class="41d9ab78-945b-41da-9c44-1e9891e3bb29" d="M232.43,370.9v3.88s6.38,2.3,10,0l-4.75-3Z"/><rect class="ed8ebde7-bdc9-4f0f-94c8-773a625dc8d3" x="227.52" y="292.47" width="3.54" height="1.55" rx="0.67" ry="0.67"/><path class="0f69e17c-252d-4fe4-a91a-95273f684d4f" d="M237.37,313.22s5.53,13.19,9.24,15.24c0,0-13.71-8.56-14.18-17.91"/></g><g id="e835211e-ece2-4e5f-a9c1-a229eb32151a" data-name="sign"><path class="d16e35b5-c70e-46a8-9c69-6a6d4b698159" d="M250.36,288.08l-.54,11.55h-1.18l-.54-11.55Zm-.07,16.41h-2.11v-2.7h2.11Z"/></g><rect id="fc5d2150-f60a-4457-9647-1ed899056997" data-name="hidden" class="b93b15a1-e177-4d03-9b1a-17022d739664" x="213.81" y="281.89" width="52.13" height="96.76"/><g id="342693f7-8538-4907-a4db-af3a3303c7a2" data-name="stone"><polygon class="66151fd8-a4a2-4076-8be7-c5cecf853f4c" points="246.62 352.3 246.62 312.93 257.03 318.58 257.03 358.48 246.62 352.3"/><polygon class="66151fd8-a4a2-4076-8be7-c5cecf853f4c" points="251.16 309.81 246.62 312.3 257.03 317.96 261.99 315.56 251.16 309.81"/><polygon class="66151fd8-a4a2-4076-8be7-c5cecf853f4c" points="257.03 358.48 261.86 355.78 261.86 315.34 257.03 318.2 257.03 358.48"/></g></g><g id="686d1db1-a7f3-4554-9ec3-b7e6057358fd" data-name="trigger_mountain_building"><polygon class="b8a2700a-8a61-409d-b9d6-666a3132dc92" points="321.48 283.98 325.24 286.15 325.24 317.87 321.48 315.69 321.48 283.98"/><polygon class="b8a2700a-8a61-409d-b9d6-666a3132dc92" points="329.81 283.98 325.24 286.15 325.24 317.87 329.81 315.69 329.81 283.98"/><polygon class="b8a2700a-8a61-409d-b9d6-666a3132dc92" points="344.19 270.14 347.95 272.31 347.95 304.02 344.19 301.85 344.19 270.14"/><polygon class="b8a2700a-8a61-409d-b9d6-666a3132dc92" points="352.52 270.14 347.95 272.31 347.95 304.02 352.52 301.85 352.52 270.14"/><polygon class="b8a2700a-8a61-409d-b9d6-666a3132dc92" points="368.07 283.98 371.83 286.15 371.83 317.87 368.07 315.69 368.07 283.98"/><polygon class="b8a2700a-8a61-409d-b9d6-666a3132dc92" points="376.4 283.98 371.83 286.15 371.83 317.87 376.4 315.69 376.4 283.98"/><polygon class="b8a2700a-8a61-409d-b9d6-666a3132dc92" points="345.18 297.2 348.94 299.37 348.94 331.08 345.18 328.91 345.18 297.2"/><polygon class="b8a2700a-8a61-409d-b9d6-666a3132dc92" points="353.51 297.2 348.94 299.37 348.94 331.08 353.51 328.91 353.51 297.2"/><g id="9241abce-ac8c-40b1-9587-2511099a3cd1" data-name="roof"><polygon class="b8a2700a-8a61-409d-b9d6-666a3132dc92" points="348.94 268.13 321.48 283.98 348.94 299.37 376.4 283.98 348.94 268.13"/><polygon class="8ceab84d-9c35-4828-895a-0446e3018c4e" points="348.94 258.87 317.13 277.23 348.94 295.06 380.75 277.23 348.94 258.87"/><polyline class="41d9ab78-945b-41da-9c44-1e9891e3bb29" points="317.13 277.23 348.94 262.71 348.94 258.87"/><polyline class="41d9ab78-945b-41da-9c44-1e9891e3bb29" points="348.94 295.06 348.94 262.71 380.75 277.23"/><ellipse class="b8a2700a-8a61-409d-b9d6-666a3132dc92" cx="349.14" cy="257.84" rx="2.08" ry="0.88"/><path class="b8a2700a-8a61-409d-b9d6-666a3132dc92" d="M347.06,257.84v6.53s.16,1.12,1.88,1.15a2.4,2.4,0,0,0,2.29-1.15v-6.53"/><path class="b8a2700a-8a61-409d-b9d6-666a3132dc92" d="M347.06,257.84v6.53s.16,1.12,1.88,1.15a2.4,2.4,0,0,0,2.29-1.15v-6.53"/><ellipse class="b8a2700a-8a61-409d-b9d6-666a3132dc92" cx="349.14" cy="257.84" rx="2.08" ry="0.88"/><polygon class="8ceab84d-9c35-4828-895a-0446e3018c4e" points="317.13 277.23 317.13 281.47 348.94 299.37 348.94 295.06 317.13 277.23"/><polygon class="8ceab84d-9c35-4828-895a-0446e3018c4e" points="380.75 277.23 380.75 281.47 348.94 299.37 348.94 295.06 380.75 277.23"/></g><g id="dc9b9516-e7e7-4005-b730-f05acf77265b" data-name="sign"><path class="d16e35b5-c70e-46a8-9c69-6a6d4b698159" d="M311.5,303,311,314.57h-1.18L309.24,303Zm-.07,16.41h-2.11v-2.7h2.11Z"/></g><rect id="1a94231c-e756-4738-b2a1-846aec3c7f49" data-name="hidden" class="b93b15a1-e177-4d03-9b1a-17022d739664" x="307.1" y="253.04" width="76.6" height="82.67"/></g><g id="d73b2623-23af-4669-8266-540ce8ee89a3" data-name="trigger_insect"><g id="2d74aa23-0f2c-4a00-89e1-5cee86c1ea33" data-name="sign"><path class="d16e35b5-c70e-46a8-9c69-6a6d4b698159" d="M414.43,353l-.54,11.55h-1.18L412.17,353Zm-.07,16.41h-2.11v-2.7h2.11Z"/></g><rect id="67be96bd-94cd-402c-a4ea-f8b25bee8524" data-name="hidden" class="b93b15a1-e177-4d03-9b1a-17022d739664" x="393.12" y="333.52" width="52.53" height="51.57"/></g></g><g id="25b0fcf5-9ad8-4620-b069-3d411297cbaf" data-name="island_3"><polygon class="8ceab84d-9c35-4828-895a-0446e3018c4e" points="79.46 437.48 79.46 421.63 189.31 485.05 189.31 498.31 79.46 437.48"/><polygon class="b8a2700a-8a61-409d-b9d6-666a3132dc92" points="133.48 389.91 189.31 421.62 216.78 405.77 271.52 437.38 189.31 485.05 79.46 421.63 133.48 389.91"/><polygon class="8ceab84d-9c35-4828-895a-0446e3018c4e" points="271.7 451.05 271.52 437.38 189.31 485.05 189.31 498.31 271.7 451.05"/><g id="66a4e959-4e2d-47d2-b3a1-93aa0937ac86" data-name="trigger_tree_child"><g id="45113c35-3766-4c43-8238-e07d20edd7bf" data-name="tree"><path class="66151fd8-a4a2-4076-8be7-c5cecf853f4c" d="M159.89,398.41s1.58,18.52,0,21.47S157.21,436,157.21,436s-1.86,8.14-10.1,9.41l5.72.24,7.76-3.14,3.21,1.79v2s3,2.06,4.24,1a31.63,31.63,0,0,1-2-3.86c-.75-1.83-.88-1-.88-1s5.12.27,6.62-.87l-2.24-1-2.67-4.28a161,161,0,0,1,2.67-24.47s2.24-9,4-12.35l-2.24-.65s-3.24,9.82-4,11l.75-1.17s-4.49-6.91-4.24-10.87C163.8,397.8,162.21,396.81,159.89,398.41Z"/><path class="b8a2700a-8a61-409d-b9d6-666a3132dc92" d="M200.32,383.53a18.24,18.24,0,0,0,.22-3.7,19,19,0,1,0-25.43-27.5,17.44,17.44,0,0,0-13.05-3,14.9,14.9,0,0,0-23.27,13.73,16.61,16.61,0,0,0,2.51,30.6,16.89,16.89,0,0,0,27.23,4.69,17.73,17.73,0,1,0,31.79-14.86Z"/><circle class="8ceab84d-9c35-4828-895a-0446e3018c4e" cx="165.38" cy="371.98" r="2.59"/><circle class="8ceab84d-9c35-4828-895a-0446e3018c4e" cx="187.94" cy="369.69" r="2.29"/><circle class="8ceab84d-9c35-4828-895a-0446e3018c4e" cx="162.85" cy="358.69" r="2.53"/><circle class="8ceab84d-9c35-4828-895a-0446e3018c4e" cx="147.1" cy="383.62" r="2.16"/><circle class="8ceab84d-9c35-4828-895a-0446e3018c4e" cx="185.65" cy="390.93" r="2.21"/></g><g id="9318ba04-70a0-4537-95ca-c538bdbb3342" data-name="sign"><path class="d16e35b5-c70e-46a8-9c69-6a6d4b698159" d="M121.93,393.14l-.54,11.55h-1.18l-.54-11.55Zm-.07,16.41h-2.11v-2.7h2.11Z"/></g><path class="b8a2700a-8a61-409d-b9d6-666a3132dc92" d="M147.75,403.91s-2.49,19.52-10.25,19.66"/><path id="27f3876f-fcce-4c6d-9ebc-9d8bd39beeeb" data-name="moveline" class="b8a2700a-8a61-409d-b9d6-666a3132dc92" d="M150.06,411.87s-2.49,19.52-10.25,19.66"/><g id="9a70813e-bda1-45d7-9c23-044e45c110e9" data-name="leaf2"><path class="b8a2700a-8a61-409d-b9d6-666a3132dc92" d="M123,423.36s4.93,9.86,9.25,7.91,5.14-1.54,3.7-5.24S130.62,426,123,423.36Z"/><line class="41d9ab78-945b-41da-9c44-1e9891e3bb29" x1="135.83" y1="428.84" x2="122.6" y2="424.18"/><line class="41d9ab78-945b-41da-9c44-1e9891e3bb29" x1="130.48" y1="425.21" x2="132.26" y2="427.44"/><line class="41d9ab78-945b-41da-9c44-1e9891e3bb29" x1="133.64" y1="424.8" x2="135.01" y2="427.95"/><line class="41d9ab78-945b-41da-9c44-1e9891e3bb29" x1="129.82" y1="427.44" x2="126.43" y2="428.54"/><line class="41d9ab78-945b-41da-9c44-1e9891e3bb29" x1="132.26" y1="428.84" x2="129.82" y2="431.27"/></g><g id="935bd546-33b7-4ee0-927a-35e36e9c818f" data-name="leaf1"><path class="b8a2700a-8a61-409d-b9d6-666a3132dc92" d="M134.87,432.91s.3,11,5,11.08,5.31.78,5.57-3.18S140.63,438.54,134.87,432.91Z"/><line class="41d9ab78-945b-41da-9c44-1e9891e3bb29" x1="144.17" y1="443.29" x2="134.15" y2="433.48"/><line class="41d9ab78-945b-41da-9c44-1e9891e3bb29" x1="140.86" y1="437.74" x2="141.53" y2="440.52"/><line class="41d9ab78-945b-41da-9c44-1e9891e3bb29" x1="143.89" y1="438.7" x2="143.8" y2="442.14"/><line class="41d9ab78-945b-41da-9c44-1e9891e3bb29" x1="139.31" y1="439.48" x2="135.77" y2="439.04"/><line class="41d9ab78-945b-41da-9c44-1e9891e3bb29" x1="140.93" y1="441.79" x2="137.69" y2="442.96"/></g><g id="d3d94bfb-8a98-46f9-a3be-75548d952d21" data-name="child"><path class="35770de2-1f62-490d-bb0f-9c56cce26d4c" d="M209.07,431.22s-5.49,14.32-2.44,15.73,11.3,1,10.93-5.08a39.37,39.37,0,0,0-2.77-11.59Z"/><ellipse class="62ecf9d1-9551-4bc2-b286-b830ff559745" cx="211.63" cy="427.48" rx="5.35" ry="5.72"/><ellipse class="c4716b13-5221-433a-a25f-52a98c9324a2" cx="209.97" cy="425.12" rx="0.21" ry="0.22"/><path class="c4716b13-5221-433a-a25f-52a98c9324a2" d="M217,444.63s-5.13,7.91-6.66,11.94h-1.4l-3.15-10.13S212.94,447.06,217,444.63Z"/><path class="c4716b13-5221-433a-a25f-52a98c9324a2" d="M210.53,456.57v2.12h-3.82s-2.08-1.18,0-2.12,2.35,0,2.35,0Z"/><path class="35770de2-1f62-490d-bb0f-9c56cce26d4c" d="M209.76,434.94s-6.17-5.3-6.69-6.87,2.53,8.83,6,8.82"/><polygon class="e1b9ee6a-07ef-42f5-8771-2864a8bd5739" points="210.18 421.76 211.63 419.57 218.05 421.76 220.62 427.48 219.44 430.58 214.73 430.44 214.73 427.48 212.24 424.28 210.18 421.76"/></g><rect id="78f488b0-1803-44e5-af51-42ceefd2ee4c" data-name="hidden" class="b93b15a1-e177-4d03-9b1a-17022d739664" x="117.43" y="343.42" width="104.26" height="116.55"/></g></g></g></g></svg>