<svg xmlns="http://www.w3.org/2000/svg" xmlns:xlink="http://www.w3.org/1999/xlink" viewBox="0 0 793.22 596.88"><defs><style>.cls-1,.cls-14,.cls-17,.cls-18,.cls-22,.cls-30{fill:none;}.cls-2{isolation:isolate;}.cls-15,.cls-19,.cls-20,.cls-3,.cls-31{fill:#c92028;}.cls-10,.cls-11,.cls-12,.cls-13,.cls-14,.cls-16,.cls-17,.cls-20,.cls-22,.cls-23,.cls-24,.cls-26,.cls-27,.cls-28,.cls-3,.cls-31,.cls-4,.cls-5{stroke:#1a1a1a;}.cls-10,.cls-11,.cls-12,.cls-13,.cls-14,.cls-16,.cls-17,.cls-18,.cls-21,.cls-22,.cls-25,.cls-26,.cls-27,.cls-3,.cls-31,.cls-4,.cls-5{stroke-linejoin:round;}.cls-10,.cls-11,.cls-12,.cls-13,.cls-20,.cls-22,.cls-23,.cls-24,.cls-3{stroke-width:0.8px;}.cls-10,.cls-11,.cls-16,.cls-21,.cls-24,.cls-25,.cls-27,.cls-28,.cls-4,.cls-5,.cls-7{fill:#fff;}.cls-10,.cls-13,.cls-14,.cls-16,.cls-22,.cls-26,.cls-31,.cls-5{stroke-linecap:round;}.cls-6{clip-path:url(#clip-path);}.cls-12,.cls-13,.cls-23,.cls-8{fill:#1a1a1a;}.cls-9{clip-path:url(#clip-path-2);}.cls-15{mix-blend-mode:multiply;}.cls-16{stroke-width:2px;}.cls-18,.cls-30{stroke:#e6e6e6;stroke-width:0.75px;}.cls-20,.cls-23,.cls-24,.cls-28,.cls-30{stroke-miterlimit:10;}.cls-21,.cls-25{stroke:#fff;}.cls-25{opacity:0.24;}.cls-26{fill:#fff5f6;}.cls-27{opacity:0.44;}.cls-29{clip-path:url(#clip-path-3);}</style><clipPath id="clip-path"><polygon class="cls-1" points="154.91 212.47 154.92 206.27 160.32 209.38 160.3 215.58 154.91 212.47"/></clipPath><clipPath id="clip-path-2"><polygon class="cls-1" points="202.23 238.76 202.25 232.56 207.64 235.67 207.62 241.87 202.23 238.76"/></clipPath><clipPath id="clip-path-3"><polygon class="cls-1" points="620.22 250.59 620.28 229.51 633.63 237.22 633.57 258.3 620.22 250.59"/></clipPath></defs><title>中山站</title><g class="cls-2"><g id="圖層_2" data-name="圖層 2"><g id="_island_3_" data-name="&lt;island 3&gt;"><polygon class="cls-3" points="53.51 227.75 53.51 261.4 235.43 364.45 235.43 333.95 188.11 285.58 79.8 231.95 53.51 227.75"/><polygon class="cls-3" points="235.43 364.45 235.43 333.95 270.13 282.43 381.6 230.9 421.56 224.59 421.56 258.24 235.43 364.45"/><polygon class="cls-4" points="238.59 120.49 53.51 227.75 235.43 333.95 421.56 224.59 238.59 120.49"/><g class="cls-2"><polygon class="cls-3" points="385.39 217.03 385.38 219.99 369.05 229.48 369.06 226.52 385.39 217.03"/><polygon class="cls-3" points="369.06 226.52 369.05 229.48 352.61 219.99 352.61 217.02 369.06 226.52"/><polygon class="cls-3" points="385.39 217.03 369.06 226.52 352.61 217.02 368.95 207.53 385.39 217.03"/></g><path class="cls-3" d="M365.69,189.78,360,213.88c-.36,2,.89,3.48,2.37,4.68,2.73,2.22,8.78,3.44,12.6.87,1.75-1.17,3.17-2.4,2.87-4.66l-4.79-25Z"/><ellipse class="cls-3" cx="369.16" cy="190.81" rx="3.99" ry="2.5"/><g class="cls-2"><path class="cls-4" d="M288.15,196.62a2.92,2.92,0,0,0-.36-.17,5.32,5.32,0,0,0-.5-.21c-.18-.06-.36-.1-.53-.14a3.5,3.5,0,0,0-.55-.09,5.54,5.54,0,0,0-1.08,0,8.23,8.23,0,0,0-1,.16,7.81,7.81,0,0,0-1.08.33,10.13,10.13,0,0,0-1.71.81c-5.31,3.07-9.62,10.52-9.61,16.64a7.86,7.86,0,0,0,.06,1,4.91,4.91,0,0,0,.08.67,3.75,3.75,0,0,0,.09.57,6.4,6.4,0,0,0,.26.91,2.79,2.79,0,0,0,.21.53.72.72,0,0,0,.12.27,4.1,4.1,0,0,0,.34.62v0a3.87,3.87,0,0,0,.45.58.13.13,0,0,0,.05.07,3.09,3.09,0,0,0,.53.5,6.13,6.13,0,0,0,.51.38l-9.47-5.5c-1.72-1-2.8-3.15-2.81-6.18,0-6.12,4.29-13.56,9.6-16.63,2.68-1.55,5.11-1.69,6.86-.67Z"/><path class="cls-4" d="M274.48,220.09a.56.56,0,0,1-.08,0,6.13,6.13,0,0,1-.51-.38A3,3,0,0,0,274.48,220.09Z"/><path class="cls-4" d="M291,202.8c0,6.12-4.28,13.57-9.61,16.64-2.7,1.55-5.13,1.69-6.88.65a.56.56,0,0,1-.08,0,6.13,6.13,0,0,1-.51-.38,4.14,4.14,0,0,1-.53-.5.13.13,0,0,1-.05-.07,5.26,5.26,0,0,1-.45-.58v0a4.65,4.65,0,0,1-.34-.62.72.72,0,0,1-.12-.27,3.89,3.89,0,0,1-.21-.53,6.4,6.4,0,0,1-.26-.91,3.39,3.39,0,0,1-.09-.57,4.91,4.91,0,0,1-.08-.67,7.86,7.86,0,0,1-.06-1c0-6.12,4.3-13.57,9.61-16.64a10.13,10.13,0,0,1,1.71-.81,7.81,7.81,0,0,1,1.08-.33,8.23,8.23,0,0,1,1-.16,5.56,5.56,0,0,1,1.08,0l.55.09c.19,0,.36.09.53.14a5.32,5.32,0,0,1,.5.21C289.73,197.34,291,199.56,291,202.8Z"/></g><g class="cls-2"><path class="cls-4" d="M250,219.06a2,2,0,0,0-.36-.18,2.75,2.75,0,0,0-.5-.2,3.51,3.51,0,0,0-.53-.15,3.23,3.23,0,0,0-.53-.08,5.54,5.54,0,0,0-1.08,0,6.45,6.45,0,0,0-1,.16,9.24,9.24,0,0,0-1.07.32,10.88,10.88,0,0,0-1.7.81c-5.27,3.05-9.54,10.43-9.52,16.5a7.9,7.9,0,0,0,.05,1,4.76,4.76,0,0,0,.08.66,3.63,3.63,0,0,0,.09.56,6,6,0,0,0,.26.91,3,3,0,0,0,.2.52,1.11,1.11,0,0,0,.12.27,5.22,5.22,0,0,0,.34.62h0a3.87,3.87,0,0,0,.45.58.13.13,0,0,0,0,.07,3.12,3.12,0,0,0,.53.5l.5.38L227,236.84c-1.71-1-2.78-3.13-2.79-6.13,0-6.08,4.25-13.46,9.52-16.5,2.66-1.54,5.07-1.67,6.8-.66Z"/><path class="cls-4" d="M236.43,242.34l-.08,0-.5-.38A3.59,3.59,0,0,0,236.43,242.34Z"/><path class="cls-4" d="M252.78,225.19c0,6.06-4.24,13.45-9.52,16.5-2.68,1.54-5.1,1.67-6.83.65l-.08,0-.5-.38a3.57,3.57,0,0,1-.53-.5.13.13,0,0,1,0-.07,4.46,4.46,0,0,1-.45-.58h0a6.14,6.14,0,0,1-.34-.62,1.11,1.11,0,0,1-.12-.27,3.7,3.7,0,0,1-.2-.52,6,6,0,0,1-.26-.91,3.12,3.12,0,0,1-.09-.56,4.76,4.76,0,0,1-.08-.66,7.9,7.9,0,0,1-.05-1c0-6.07,4.25-13.45,9.52-16.5a10.88,10.88,0,0,1,1.7-.81,9.24,9.24,0,0,1,1.07-.32,6.45,6.45,0,0,1,1-.16,5.56,5.56,0,0,1,1.08,0l.53.08c.19,0,.37.1.53.15a2.75,2.75,0,0,1,.5.2C251.55,219.77,252.77,222,252.78,225.19Z"/></g><polygon class="cls-5" points="153.41 190.94 176.54 169.91 187.06 138.36 231.22 113.13 237.53 159.4 153.41 211.97 153.41 190.94"/><polygon class="cls-5" points="235.43 108.92 293.27 142.57 243.84 170.96 217.55 177.27 191.26 153.09 183.9 138.36 235.43 108.92"/><polygon class="cls-5" points="151.31 190.94 151.31 212.5 211.24 247.2 211.24 223.01 151.31 190.94"/><path class="cls-5" d="M211.24,220.39l25.24-20L243.84,171l49.43-28.39.94,46.23a9.39,9.39,0,0,1-4.37,8.13s.56.21.23-.2c-6.27-7.89-18.89.52-21.29,13.49-.19,1-15.35,10-15.52,9.76-5.21-8-19.93-3.8-22.72,12.87-.19,1.12-19.3,13.83-19.3,13.83Z"/><polygon class="cls-5" points="183.9 138.36 243.84 170.96 236.48 203.56 176.54 169.91 183.9 138.36"/><path class="cls-5" d="M190.52,150l43.33,23.57a2.92,2.92,0,0,1,1.4,3.43l-4.69,24.43L181.8,174.09l4.26-22.26A3.12,3.12,0,0,1,190.52,150Z"/><path class="cls-5" d="M176.54,169.91c-11.56,5.26-25.24,21-25.24,21l59.94,33.65s12.62-13.67,25.24-21C236.48,203.56,192.19,162.8,176.54,169.91Z"/><path class="cls-5" d="M284.64,154.54,251,173.39a1.88,1.88,0,0,0-.85,1.07l-4.82,19.06c-.51,1.66.26,3.08,1.75,2.17l39.52-23.37a1.9,1.9,0,0,0,.9-1.61V156.17A1.89,1.89,0,0,0,284.64,154.54Z"/><path class="cls-5" d="M243.29,215.68s-2.27-1.45.08-10.68"/><line class="cls-5" x1="248.05" y1="201.46" x2="293.27" y2="174.12"/><line class="cls-5" x1="271.96" y1="162.55" x2="269.09" y2="182.64"/><path class="cls-5" d="M270.14,188.84s-3.16,11.57-1.06,20"/><polygon class="cls-5" points="262.21 196.79 259.05 198.64 259.05 200.63 262.21 198.78 262.21 196.79"/><polygon class="cls-5" points="290.6 179.96 287.45 181.82 287.45 183.81 290.6 181.95 290.6 179.96"/><polygon class="cls-5" points="171.28 209.34 171.28 220.12 190.15 230.9 190.15 220.12 171.28 209.34"/><g class="cls-2"><g class="cls-6"><path class="cls-7" d="M157.62,208.88c-1-.56-1.78-.1-1.79,1l-.46-.26.46.26a4,4,0,0,0,1.78,3.08c1,.56,1.78.11,1.78-1a3.92,3.92,0,0,0-1.77-3.07"/><path class="cls-8" d="M157.62,207.83c-1.49-.87-2.7-.18-2.71,1.53l.46.27.46.26c0-1.11.81-1.57,1.79-1a3.92,3.92,0,0,1,1.77,3.07c0,1.13-.8,1.58-1.78,1a4,4,0,0,1-1.78-3.08l-.46-.26-.46-.27a6,6,0,0,0,2.7,4.67c1.48.85,2.7.16,2.7-1.55a5.93,5.93,0,0,0-2.69-4.65"/></g></g><g class="cls-2"><g class="cls-9"><path class="cls-7" d="M204.94,235.17c-1-.57-1.78-.11-1.78,1l-.46-.26.46.26a3.93,3.93,0,0,0,1.77,3.08c1,.55,1.78.11,1.78-1a3.89,3.89,0,0,0-1.77-3.07"/><path class="cls-8" d="M205,234.12c-1.5-.87-2.71-.18-2.71,1.53l.46.27.46.26c0-1.12.8-1.58,1.78-1a3.89,3.89,0,0,1,1.77,3.07c0,1.13-.8,1.57-1.78,1a3.93,3.93,0,0,1-1.77-3.08l-.46-.26-.46-.27a5.88,5.88,0,0,0,2.69,4.66c1.49.86,2.7.17,2.7-1.54a5.9,5.9,0,0,0-2.68-4.65"/></g></g><polygon class="cls-5" points="194.42 183.58 195.47 193.05 188.11 194.1 188.11 187.79 194.42 183.58"/><polygon class="cls-5" points="167.08 183.58 167.08 193.05 180.75 200.41 182.85 190.94 167.08 183.58"/><polygon class="cls-5" points="176.54 175.17 167.08 183.58 184.5 192.88 194.42 183.58 176.54 175.17"/><line class="cls-5" x1="172.34" y1="186.39" x2="160.77" y2="195.97"/><polygon class="cls-5" points="199.68 186.74 199.68 195.15 219.66 207.77 221.76 199.35 199.68 186.74"/><polygon class="cls-5" points="179.89 190.42 172.34 197.25 194.42 209.87 208.09 196.2 184.96 183.58 179.89 190.42"/><line class="cls-5" x1="175.69" y1="187.79" x2="165.14" y2="198.71"/><polygon class="cls-5" points="194.42 214.08 206.88 205.66 202.83 201.46 194.42 209.87 194.42 214.08"/><polygon class="cls-5" points="205.86 193.24 211.39 185.34 226.82 193.24 214.27 210.32 201.78 202.64 205.86 193.24"/><polygon class="cls-5" points="214.27 210.32 214.27 215.13 231.75 195.71 226.17 193.21 214.27 210.32"/><path class="cls-5" d="M176.54,169.91c0-8.41-4.2-30.49-4.2-30.49l63.09,34.7s4.21,16.82,1,29.44Z"/><line class="cls-4" x1="232.33" y1="187.58" x2="223.21" y2="213.03"/><path class="cls-4" d="M223.21,214.08a1.12,1.12,0,0,1-.35-.06,1.06,1.06,0,0,1-.64-1.35l9.12-25.45a1,1,0,0,1,2,.71l-9.11,25.45A1,1,0,0,1,223.21,214.08Z"/><line class="cls-5" x1="173.78" y1="199.86" x2="213.37" y2="221.56"/><polygon class="cls-5" points="172.34 197.25 172.34 202.51 194.42 215.13 194.42 209.87 172.34 197.25"/><polygon class="cls-5" points="201.78 202.64 201.78 208.4 214.27 215.13 214.27 210.32 201.78 202.64"/><line class="cls-5" x1="196" y1="208.29" x2="217.03" y2="218.81"/><rect class="cls-5" x="181.8" y="197.25" width="3.15" height="3.15" rx="1.5" ry="1.5"/><rect class="cls-5" x="187.06" y="199.36" width="3.15" height="3.15" rx="1.5" ry="1.5"/><path class="cls-10" d="M125.05,163.25s6.16-2.74,8.25,2.44,1.37,5.3,1.37,5.3l-2.33.94.28,7.76s-9.23,0-10.43-1.81,1.82-9.66,1.82-9.66-1.8-.45-1.79-1.55,1.34-1.39,2.53-.28S125.05,163.25,125.05,163.25Z"/><circle class="cls-11" cx="130.56" cy="166.11" r="0.22"/><path class="cls-12" d="M132,163.47s-1.32-5-2.76-5.45l-.8.95s-4.5-.79-5.35.4a12.34,12.34,0,0,1-2.23,2.22s.69,3.09,0,3.32,4,2.05,4,2.05l-.31-3.49,2.4-1.1,3.13.12Z"/><path class="cls-10" d="M122.19,177.31s-9.27,20.24-7.92,32.72c0,0,16,1.55,22.61-2.29,0,0-1.21-24.11-4.26-28.47C132.62,179.27,124.44,179.15,122.19,177.31Z"/><path class="cls-13" d="M114.18,210.41s6.08,17,12.47,29.81l5.35.9s4.21-23.27,4.33-33.12"/><path class="cls-14" d="M126.65,240.22V244s6.55,2.23,10.23,0L132,241.12Z"/><rect class="cls-15" x="121.61" y="163.95" width="3.63" height="1.5" rx="0.67" ry="0.67"/><path class="cls-3" d="M124.54,178.33l.48,11.56h7.36l.24-10.2s7.75,24.22,2.18,46.13-2.42,15.6-2.42,15.6l-5.94-.3s-13.52-21.65-15.09-30.2c-1.64-8.88,2.59-30.33,11-33.65C122.9,177.05,124.54,178.33,124.54,178.33Z"/><path class="cls-3" d="M120.81,164.65c.56,0-.08-2.09-.79-4.05a2.94,2.94,0,0,1,2.28-3.91l6-1a3,3,0,0,1,3.5,2.56l.62,4.29h4.2v1Z"/><g id="_trigger_fixing_" data-name="&lt;trigger_fixing&gt;"><path class="cls-5" d="M143.94,185.68l-4.2,13.68,2.1,1,4.21-14.73s4.2,0,4.2-4.2-2.1,0-2.1,0l-2.1,2.1-2.11-1.05v-3.15l-2.1-1.06S140.79,185.68,143.94,185.68Z"/><path class="cls-10" d="M130.46,185.57s10.44,9.37,14.73,9.63c0,0-16.25-1.82-20.42-9.91"/></g><path class="cls-5" d="M148.81,233.26a18.36,18.36,0,0,1,8.56,2.85l10.45,6.66v8.55l-9.5-6.65Z"/><path class="cls-5" d="M162.12,240.87l5.7,14.26S177.33,243.72,162.12,240.87Z"/><polygon class="cls-5" points="162.12 240.87 148.81 233.26 153.56 246.57 167.82 255.13 162.12 240.87"/><g class="cls-2"><polygon class="cls-4" points="167.81 254.59 167.78 263.34 157.81 269.14 157.84 260.39 167.81 254.59"/><polygon class="cls-4" points="157.84 260.39 157.81 269.14 143.76 261.02 143.79 252.28 157.84 260.39"/><polygon class="cls-4" points="167.81 254.59 157.84 260.39 143.79 252.28 153.76 246.48 167.81 254.59"/></g><path class="cls-10" d="M280.26,209.52s-6.15-2.74-8.25,2.44-1.36,5.3-1.36,5.3l2.32.94L272.7,226s9.23,0,10.42-1.8-1.81-9.66-1.81-9.66,1.8-.45,1.79-1.56-1.35-1.38-2.54-.27S280.26,209.52,280.26,209.52Z"/><circle class="cls-11" cx="274.76" cy="212.38" r="0.22"/><path class="cls-12" d="M273.28,209.73s1.32-5,2.76-5.44l.8,1s4.49-.79,5.35.4a12.25,12.25,0,0,0,2.22,2.21s-.68,3.09,0,3.33-4,2-4,2l.3-3.5-2.39-1.1-3.13.13Z"/><path class="cls-10" d="M283.12,223.58s9.28,20.24,7.92,32.72c0,0-16,1.55-22.6-2.29,0,0,1.21-24.11,4.26-28.47C272.7,225.54,280.88,225.42,283.12,223.58Z"/><path class="cls-14" d="M304.73,275.14l2.71,2.63s-3,6.25-7.14,7.33l1.35-5.5Z"/><rect class="cls-15" x="280.08" y="210.22" width="3.63" height="1.5" rx="0.67" ry="0.67" transform="translate(563.78 421.94) rotate(-180)"/><path class="cls-3" d="M280.78,224.6l-.48,11.56h-7.36L272.7,226s-8,24.3-2.18,46.14c2.77,10.34,31.16,8.24,31.16,8.24l2.1-4.21S292.4,265.74,294,257.19c1.63-8.88-2.59-30.33-11-33.65C282.42,223.32,280.78,224.6,280.78,224.6Z"/><path class="cls-3" d="M284.51,210.92c-.56,0,.07-2.09.79-4A3,3,0,0,0,283,203l-6-1a3,3,0,0,0-3.51,2.56l-.61,4.29h-4.21v1.05Z"/><g id="_trigger_drilling_" data-name="&lt;trigger_drilling&gt;"><path class="cls-5" d="M250.77,235.09l-10.57-6.52a1.29,1.29,0,0,1-.48-1.76h0c.36-.61.78-.82,1.4-.47l10.94,6.52a1.28,1.28,0,0,1,.47,1.76h0A1.3,1.3,0,0,1,250.77,235.09Z"/><path class="cls-5" d="M251.91,231.07l-5-3s-4.36.65-3.32,5l4.32,2.66Z"/><path class="cls-5" d="M257.87,233.47,251.13,230s-6,.92-4.35,6.14l7.53,4.6v2.32l2.37,1.52,1.45,5s2.77,4.6,7.13.76l-3-13c.06-1.15-1.31-2.23-2.35-2.73Z"/><polygon class="cls-5" points="255.78 241.24 256.88 241.98 256.88 243.09 255.78 242.35 255.78 241.24"/><path class="cls-10" d="M274.86,231.84s-10.44,9.37-14.73,9.63c0,0,16.24-1.82,20.41-9.91"/></g><path class="cls-10" d="M188.28,268.45,174,267.58l-.53,2.29,15.3.62s1,4.09,5.08,3.1-.5-2-.5-2L190.82,270l.53-2.3,3.07-.74.52-2.29S187.54,265.38,188.28,268.45Z"/><line class="cls-5" x1="155.15" y1="104.71" x2="155.15" y2="123.64"/><rect class="cls-5" x="153.46" y="104.71" width="2.4" height="18.93"/><line class="cls-16" x1="154.75" y1="121.54" x2="154.75" y2="128.9"/><line class="cls-5" x1="161.96" y1="99.46" x2="161.96" y2="118.38"/><rect class="cls-5" x="160.27" y="99.46" width="2.4" height="18.93"/><line class="cls-16" x1="161.56" y1="116.28" x2="161.56" y2="123.64"/><line class="cls-5" x1="167.8" y1="94.2" x2="167.8" y2="113.13"/><rect class="cls-5" x="166.11" y="94.2" width="2.4" height="18.93"/><line class="cls-16" x1="167.39" y1="111.02" x2="167.39" y2="118.38"/><line class="cls-5" x1="173.63" y1="89.99" x2="173.63" y2="108.92"/><rect class="cls-5" x="171.95" y="89.99" width="2.4" height="18.93"/><line class="cls-16" x1="173.23" y1="106.82" x2="173.23" y2="114.18"/><line class="cls-5" x1="179.47" y1="95.25" x2="179.47" y2="103.66"/><rect class="cls-5" x="177.78" y="92.1" width="2.4" height="11.57"/><line class="cls-16" x1="179.06" y1="101.56" x2="179.06" y2="108.92"/><line class="cls-5" x1="185.31" y1="88.94" x2="185.31" y2="98.4"/><rect class="cls-5" x="183.62" y="85.79" width="2.4" height="12.62"/><line class="cls-16" x1="184.9" y1="96.3" x2="184.9" y2="103.66"/><polygon class="cls-17" points="193.89 64.23 193.71 113.55 145.31 145.19 145.49 95.88 193.89 64.23"/><g class="cls-2"><path class="cls-4" d="M328.52,215l.93.25a21.22,21.22,0,0,0-10.82,0l.09,0h0l.09,0h.05l.09,0h.05l.09,0,.09,0h0l.09,0,.1,0,0,0h.05A17.56,17.56,0,0,1,328.52,215Z"/><path class="cls-4" d="M338.29,206l-1.54-.51c-.3-.17-.61-.33-.93-.49a4.09,4.09,0,0,0-.42-.2c-.28-.15-.58-.27-.87-.4l-.45-.18c-.74-.29-1.51-.54-2.31-.77l.94.26A23.34,23.34,0,0,1,338.29,206Z"/><path class="cls-4" d="M334.61,214.41l0,6.11c0-1.57-1-3.15-3.13-4.36-4.13-2.38-10.76-2.41-14.82,0-2,1.16-3,2.68-3,4.22l0-6.12c0-1.53,1-3.05,3-4.21,4.06-2.36,10.69-2.34,14.81,0C333.56,211.25,334.61,212.83,334.61,214.41Z"/><path class="cls-4" d="M319.73,219.78l-.09,0h-.05l-.09,0h-.05l-.09,0h-.05l-.09,0-.09,0h-.05l-.09,0-.1,0,0,0h-.05a15.11,15.11,0,0,1-3.54-1.45l1.53.5A13.06,13.06,0,0,0,319.73,219.78Z"/><path class="cls-4" d="M329.62,219.56l-.93.25a11.84,11.84,0,0,0,2.91-1.19c4.06-2.35,4-6.19-.13-8.58s-10.75-2.4-14.81,0-4,6.19.13,8.57l-1.53-.5c-5-2.87-5.06-7.51-.15-10.37s12.93-2.83,17.91.05,5.05,7.51.14,10.37A14.92,14.92,0,0,1,329.62,219.56Z"/><path class="cls-4" d="M332.55,231l-.86.23a30.48,30.48,0,0,1-15.44,0l0,0-.09,0s0,0-.05,0l-.09,0-.09,0-.1,0h0c.81.21,1.64.39,2.48.54l.95.14c.53.08,1.05.14,1.58.19.33,0,.66.06,1,.08l1.11.05,1.12,0h0c.72,0,1.45,0,2.17-.07.37,0,.74,0,1.1-.09l1-.1A31.2,31.2,0,0,0,332.55,231Z"/><path class="cls-4" d="M333,207.75c-5-2.87-13-2.91-17.9-.06-2.43,1.42-3.64,3.26-3.64,5.13a3.83,3.83,0,0,0,0,.47,2.09,2.09,0,0,0,.13.65,2.54,2.54,0,0,0,.14.47v0a4.52,4.52,0,0,0,.23.5,4.12,4.12,0,0,0,.47.76,3.66,3.66,0,0,0,.44.55l0,0,.3.3.39.36c.16.13.33.28.52.42l.5.33a5,5,0,0,0,.57.37c.37.21.77.41,1.17.59.22.11.45.2.69.3a3.26,3.26,0,0,0,.41.14c.26.11.52.19.8.28a.07.07,0,0,0,.06,0l.51.16c.11,0,.2,0,.31.06h0a21,21,0,0,0,9.77.09h0c.3-.07.61-.15.91-.25a2.38,2.38,0,0,0,.38-.11l.53-.17.52-.2a.58.58,0,0,0,.18-.08c.2-.07.4-.16.6-.25l.08,0a2,2,0,0,0,.25-.13,7.55,7.55,0,0,0,.69-.37,3.85,3.85,0,0,0,.4-.24,9.59,9.59,0,0,0,1-.75,7.29,7.29,0,0,0,.84-.82l.21-.26a6,6,0,0,0,.49-.7l.15-.27a3.35,3.35,0,0,0,.15-.35,2.08,2.08,0,0,0,.12-.32,4.61,4.61,0,0,0,.2-.82.28.28,0,0,0,0-.09,4.19,4.19,0,0,0,0-.5C336.8,211.1,335.54,209.2,333,207.75Zm3.73-2.29c-.3-.17-.61-.33-.93-.49a4.09,4.09,0,0,0-.42-.2c-.28-.15-.58-.27-.87-.4l-.45-.18c-.74-.29-1.51-.54-2.31-.77a30.22,30.22,0,0,0-15.43,0h-.06l-.13.05-.14,0-.09,0-.12,0-.34.12a3.79,3.79,0,0,0-.65.21,5.29,5.29,0,0,0-.76.27,6.07,6.07,0,0,0-.59.24c-.3.11-.58.24-.87.38s-.32.15-.48.24-.6.31-.88.47c-7,4.08-7,10.71.07,14.79s18.51,4.09,25.53,0S343.83,209.54,336.75,205.46Zm-22.57,11.91.5.33a5,5,0,0,0,.57.37c.37.21.77.41,1.17.59.22.11.45.2.69.3a3.26,3.26,0,0,0,.41.14c.26.11.52.19.8.28a.07.07,0,0,0,.06,0l.51.16c.11,0,.2,0,.31.06h0a21,21,0,0,0,9.77.09h0c.3-.07.61-.15.91-.25a2.38,2.38,0,0,0,.38-.11l.53-.17.52-.2a.58.58,0,0,0,.18-.08c.2-.07.4-.16.6-.25l.08,0a2,2,0,0,0,.25-.13,4.58,4.58,0,0,0,.69-.37,3.85,3.85,0,0,0,.4-.24,9.59,9.59,0,0,0,1-.75,7.29,7.29,0,0,0,.84-.82,2.39,2.39,0,0,0,.21-.26,6,6,0,0,0,.49-.7l.15-.27a3.35,3.35,0,0,0,.15-.35,1,1,0,0,0,.12-.32,4.61,4.61,0,0,0,.2-.82.28.28,0,0,0,0-.09,4.19,4.19,0,0,0,0-.5c0-1.89-1.26-3.79-3.78-5.24-5-2.87-13-2.91-17.9-.06-2.43,1.42-3.64,3.26-3.64,5.13a3.83,3.83,0,0,0,0,.47,2.09,2.09,0,0,0,.13.65,2.54,2.54,0,0,0,.14.47v0a4.52,4.52,0,0,0,.23.5,4.12,4.12,0,0,0,.47.76,3.66,3.66,0,0,0,.44.55l0,0,.3.3.39.36c.16.13.33.28.52.42"/><path class="cls-4" d="M316.24,203.4h0l-.13.05Z"/><path class="cls-4" d="M344.27,214.32l0,6.11c0,3-2,6-5.88,8.23a24,24,0,0,1-5.82,2.37,31.2,31.2,0,0,1-4.2.81l-1,.1c-.36.05-.73.07-1.1.09-.72.05-1.45.07-2.17.07h0l-1.12,0-1.11-.05c-.34,0-.67,0-1-.08-.53,0-1.05-.11-1.58-.19l-.95-.14c-.84-.15-1.67-.33-2.48-.54h0l-.19-.05-.09,0h0l-.08,0a24.34,24.34,0,0,1-5.68-2.32c-4-2.3-6-5.32-6-8.34l0-6.1v0c0-3,2-6,5.89-8.23a23.27,23.27,0,0,1,5.73-2.34l.1,0h0l.09,0h.06l.08,0h0l-.34.12a3.79,3.79,0,0,0-.65.21,5.29,5.29,0,0,0-.76.27,6.07,6.07,0,0,0-.59.24c-.3.11-.58.24-.87.38s-.32.15-.48.24-.6.31-.88.47c-7,4.08-7,10.71.07,14.79s18.51,4.09,25.53,0,7-10.71-.08-14.79l1.54.51C342.29,208.27,344.28,211.3,344.27,214.32Z"/></g><g class="cls-2"><path class="cls-4" d="M328.52,206.54l.93.26a21.22,21.22,0,0,0-10.82,0l.09,0,0,0,.09,0h.05l.09,0h.05l.09,0,.09,0h0l.09,0,.1,0h.09A17.67,17.67,0,0,1,328.52,206.54Z"/><path class="cls-4" d="M331.77,195l.94.26a23.76,23.76,0,0,1,5.58,2.29l-1.54-.51A21.5,21.5,0,0,0,331.77,195Z"/><path class="cls-4" d="M334.61,206l0,6.11c0-1.57-1-3.16-3.13-4.36-4.13-2.39-10.76-2.41-14.82-.05-2,1.16-3,2.68-3,4.21l0-6.11c0-1.53,1-3.06,3-4.22,4.06-2.35,10.69-2.33,14.81,0C333.56,202.84,334.61,204.42,334.61,206Z"/><path class="cls-4" d="M319.73,211.37l-.09,0h-.05l-.09,0h-.05l-.09,0h-.05l-.09,0-.09,0-.05,0-.09,0-.1,0h-.09a15.55,15.55,0,0,1-3.54-1.45l1.53.5A13.06,13.06,0,0,0,319.73,211.37Z"/><path class="cls-4" d="M329.62,211.15l-.93.25a11.84,11.84,0,0,0,2.91-1.19c4.06-2.35,4-6.2-.13-8.58s-10.75-2.4-14.81,0-4,6.2.13,8.58l-1.53-.5c-5-2.88-5.06-7.52-.15-10.38s12.93-2.82,17.91.05,5.05,7.52.14,10.37A14.53,14.53,0,0,1,329.62,211.15Z"/><path class="cls-4" d="M332.63,222.59l-.94.25a30.22,30.22,0,0,1-15.43,0h-.05l-.09,0h-.05l-.09,0-.1,0-.09,0-.09,0-.05,0-.09,0-.05,0-.09,0-.05,0h-.05A34,34,0,0,0,332.63,222.59Z"/><path class="cls-4" d="M336.75,197.05c7.08,4.08,7.11,10.71.09,14.79s-18.47,4.08-25.54,0-7.11-10.71-.08-14.79S329.68,193,336.75,197.05Zm-21.49,12.61c5,2.87,13,2.9,17.9,0s4.84-7.49-.14-10.37-13-2.9-17.91-.05-4.83,7.5.15,10.38"/><path class="cls-4" d="M315.4,195.22l.09,0h.05l.09,0,.05,0,.09,0h.05l.09,0,.1,0,.05,0,.09,0,.09,0h.1a21,21,0,0,0-5.12,2.08c-7,4.08-7,10.71.08,14.79s18.51,4.08,25.54,0,7-10.71-.09-14.79l1.54.51c7.93,4.58,8,12,.09,16.58s-20.69,4.58-28.62,0-8-12-.09-16.58A23.43,23.43,0,0,1,315.4,195.22Z"/><path class="cls-4" d="M344.27,205.9l0,6.12c0,3-2,6-5.88,8.23-7.88,4.58-20.7,4.58-28.63,0-4-2.3-6-5.32-6-8.34l0-6.12c0,3,2,6.05,6,8.35,7.93,4.58,20.74,4.58,28.62,0C342.3,211.86,344.26,208.89,344.27,205.9Z"/></g><g class="cls-2"><path class="cls-4" d="M317.05,183.75a2.78,2.78,0,0,0,.69-.54,4.17,4.17,0,0,0-.57,1.9,11.65,11.65,0,0,0,0,2.5,14.91,14.91,0,0,0,.56,2.56,20.16,20.16,0,0,0,1,2.53,21,21,0,0,0,3,4.64,15.09,15.09,0,0,0,3.82,3.28c-.53-.31-1.74,0-3.14.77-4.16-2.4-7.52-8.18-7.51-12.9C314.89,186.16,315.72,184.52,317.05,183.75Z"/><path class="cls-4" d="M325.53,200.62a9.43,9.43,0,0,0,1.49.7,4.47,4.47,0,0,0,1.55.28,2.68,2.68,0,0,0-.8.33c-1.37.79-3.28.68-5.38-.54C323.79,200.58,325,200.31,325.53,200.62Z"/><path class="cls-4" d="M316.19,184.25l.86-.5c-1.33.77-2.16,2.41-2.17,4.74,0,4.72,3.35,10.5,7.51,12.9l-.87.5c-4.15-2.4-7.51-8.17-7.5-12.9C314,186.66,314.85,185,316.19,184.25Z"/><path class="cls-4" d="M327.77,201.93l-.86.5c-1.37.79-3.28.68-5.39-.54l.87-.5C324.49,202.61,326.4,202.72,327.77,201.93Z"/><path class="cls-4" d="M312.07,175.16a15.29,15.29,0,0,1,1.67-.83,13.53,13.53,0,0,1,1.77-.59,11.68,11.68,0,0,1,3-.38,13.79,13.79,0,0,1,1.57.1,11.5,11.5,0,0,1,1.42.28,19.8,19.8,0,0,1,2,.66,17.19,17.19,0,0,1,2,1c-.54-.31-1.75-.05-3.15.77C318.34,173.85,314.7,173.63,312.07,175.16Z"/><path class="cls-4" d="M311.2,175.66l.87-.5c2.63-1.53,6.27-1.31,10.29,1l-.86.5C317.48,174.35,313.83,174.13,311.2,175.66Z"/><path class="cls-4" d="M326.91,202.43l-.36.23-.18.16-.14.14a3.77,3.77,0,0,0,.36-.86,7,7,0,0,0,.24-1.52,9,9,0,0,0,0-1.27,13.34,13.34,0,0,0-.2-1.63,19.73,19.73,0,0,0-.7-2.53c-.2-.51-.46-1.18-.69-1.68-.39-.82-.76-1.46-.86-1.64a20.9,20.9,0,0,0-2.12-3c-.4-.47-.8-.89-1.22-1.3s-.88-.77-1.26-1.08a11.2,11.2,0,0,0-2.4-1.43,6.61,6.61,0,0,0-1-.33,3.3,3.3,0,0,0-1-.12,3.16,3.16,0,0,0,.79-.33c-1.34.78-2.16,2.41-2.17,4.74,0,4.73,3.35,10.5,7.5,12.9-1.9,1.11-3.45,2.81-3.46,3.81-5-2.9-9.07-9.87-9.06-15.6s4.11-8,9.12-5.1,9.08,9.87,9.07,15.6-4.11,8-9.13,5.1c0-1,1.56-2.7,3.46-3.81C323.63,203.11,325.54,203.22,326.91,202.43Z"/><path class="cls-4" d="M325.51,175.4c.66.41,1.53,1,2.15,1.43a23.6,23.6,0,0,1,2.15,1.84,28.79,28.79,0,0,1,3.73,4.37c.24.35.58.82.8,1.2s.54.86.75,1.23.49.89.7,1.27a28.72,28.72,0,0,1,1.21,2.61s.51,1.22.95,2.68a22.28,22.28,0,0,1,.66,2.69,19.26,19.26,0,0,1,.35,2.67,17.85,17.85,0,0,1,0,2.53,14.5,14.5,0,0,1-.8,4,12.19,12.19,0,0,1-.84,1.84,12.93,12.93,0,0,1-1.26,1.8,13.43,13.43,0,0,1-3.51,2.92c2.6-1.51,4.21-4.72,4.22-9.28,0-9.18-6.43-20.37-14.42-25C323.76,175.35,325,175.09,325.51,175.4Z"/><path class="cls-4" d="M332.56,210.43l-.86.5c2.59-1.51,4.2-4.72,4.22-9.28,0-9.18-6.43-20.37-14.42-25l.86-.5c8,4.61,14.45,15.8,14.42,25C336.77,205.71,335.16,208.92,332.56,210.43Z"/><path class="cls-4" d="M318,180.47c7.12,4.12,12.88,14.1,12.86,22.29s-5.82,11.49-12.95,7.37S305.07,196,305.09,187.86,310.91,176.36,318,180.47Zm0,25.23c5,2.89,9.11.62,9.13-5.1s-4.05-12.71-9.07-15.6-9.1-.63-9.12,5.1,4.05,12.7,9.06,15.6"/><path class="cls-4" d="M331.7,210.93a14,14,0,0,1-2.1,1,13.58,13.58,0,0,1-2.54.67,12,12,0,0,1-4.77-.23,20.4,20.4,0,0,1-2-.67c-.32-.12-.72-.32-1-.46a21,21,0,0,1-2.11-1.22,24.41,24.41,0,0,1-4.23-3.63,30.8,30.8,0,0,1-4.26-5.77,28.51,28.51,0,0,1-1.34-2.57c-.19-.38-.4-.92-.57-1.31a27.86,27.86,0,0,1-.95-2.67,24.85,24.85,0,0,1-1-5.36,18.28,18.28,0,0,1,0-2.56,14.71,14.71,0,0,1,.53-3.09,12.55,12.55,0,0,1,5.88-7.4c2.63-1.53,6.28-1.31,10.3,1-1.91,1.11-3.46,2.81-3.46,3.8-7.13-4.11-12.93-.8-13,7.39S310.83,206,318,210.13s12.93.81,12.95-7.37-5.74-18.17-12.86-22.29c0-1,1.55-2.69,3.46-3.8,8,4.61,14.44,15.8,14.42,25C335.9,206.21,334.29,209.42,331.7,210.93Z"/></g><g class="cls-2"><polygon class="cls-3" points="230.7 261.78 230.69 264.35 216.51 272.6 216.52 270.02 230.7 261.78"/><polygon class="cls-3" points="216.52 270.02 216.51 272.6 202.23 264.35 202.24 261.78 216.52 270.02"/><polygon class="cls-3" points="230.7 261.78 216.52 270.02 202.24 261.78 216.42 253.54 230.7 261.78"/></g><path class="cls-3" d="M213.59,238.13l-5,20.92c-.31,1.75.77,3,2,4.06,2.38,1.93,7.63,3,11,.76,1.51-1,2.75-2.09,2.49-4.05l-4.16-21.69Z"/><ellipse class="cls-3" cx="216.61" cy="239.02" rx="3.47" ry="2.17"/><path class="cls-4" d="M251.47,282a.87.87,0,0,1-.16.26c-.34.37-1.74,0-2.11-.29L233,266.67a.89.89,0,0,1-.06-1.27c.34-.37,2.09-.87,2.46-.54L251.6,280.2C251.89,280.46,251.62,281.7,251.47,282Z"/><path class="cls-4" d="M225.53,270.43a5.75,5.75,0,0,0,6.54,3.78l9-11.57s-7.15.06-6.19-4.66Z"/><ellipse class="cls-4" cx="237.83" cy="260.06" rx="2.23" ry="3.83" transform="translate(-114.45 269.94) rotate(-49.16)"/><rect id="hidden" class="cls-18" x="235.14" y="186.02" width="83.36" height="101.73"/><rect id="hidden-2" data-name="hidden" class="cls-18" x="90.02" y="145.01" width="83.36" height="101.73"/><g id="sign"><path class="cls-19" d="M299.09,210.29l-.5,10.57h-1.08L297,210.29Zm-.07,15h-1.93v-2.47H299Z"/></g><g id="sign-2" data-name="sign"><path class="cls-19" d="M146.61,156.66l-.49,10.57H145l-.5-10.57Zm-.07,15h-1.93V169.2h1.93Z"/></g></g><polygon class="cls-20" points="378.44 272.96 378.44 306.62 560.36 409.67 560.36 379.17 513.04 330.8 404.73 277.17 378.44 272.96"/><polygon class="cls-20" points="560.36 409.67 560.36 379.17 595.07 327.65 706.53 276.12 746.49 269.81 746.49 303.46 560.36 409.67"/><polygon class="cls-4" points="563.52 165.71 378.44 272.96 560.36 379.17 746.49 269.81 563.52 165.71"/><polygon class="cls-21" points="582.41 328.07 578.85 234.57 450.89 173.59 450.89 251.2 582.41 328.07"/><path class="cls-4" d="M460.47,273S451,258.24,450,259.29s14.72,6.31,14.72,10.52l111.47-62L550.9,143.62H480.44l-25.23,33.65,9.46,92.54"/><path class="cls-4" d="M494.08,229.26s-10,16-9,25.77c0,0,15,1.22,19.93-1.8,0,0-.91-19-3.17-22.43C501.83,230.8,495.75,230.72,494.08,229.26Z"/><polygon class="cls-10" points="494.33 229.68 499.85 232.43 500.78 231.06 494.33 229.68"/><path class="cls-13" d="M485,255.33s7.64,13.35,12.39,23.48l4,.71s3.13-18.33,3.22-26.09"/><line class="cls-22" x1="501.09" y1="244.65" x2="501.18" y2="253.43"/><path class="cls-23" d="M500.75,222c3.46-1.18,4.64-6.94-5.14-4.26,0,0-1.74-.47-1.75-.44-.21.95-2.18,16.14-6,12.92,0,0,4,4.11,6.08,2.32l1.29-1.4,5.53-9.05S500.72,222,500.75,222Z"/><path class="cls-10" d="M495.56,220.74a.1.1,0,0,1,.06-.12c.63-.26,4.91-2.48,6.34,1.22,1.35,3.48,1.4,3.64,1.31,3.72l0,0-1.65.69a.1.1,0,0,0-.06.11l.31,4.47s-6.15.23-7-1.17.18-5.29.49-6.14a.12.12,0,0,0-.07-.15c-.32-.1-1.23-.46-1.22-1.17s1-1.08,1.88-.22S495.66,221.27,495.56,220.74Z"/><ellipse class="cls-24" cx="500.02" cy="223.3" rx="0.17" ry="0.18"/><path class="cls-14" d="M497.39,278.81v3s4.87,1.76,7.61,0l-3.63-2.26Z"/><path class="cls-4" d="M527.78,236.54c7.07,8.31,10.41,17.15,11.89,27.92-6.86.79-13.24,1-19.91-1,.25-8,.86-15.91,1.81-23.85A10.32,10.32,0,0,0,527.78,236.54Z"/><path class="cls-10" d="M527.69,237.05a41.7,41.7,0,0,1-3.82,3.93c-.41-.44-.82-.87-1.25-1.29A53,53,0,0,0,527.69,237.05Z"/><path class="cls-13" d="M539.76,264.74q-6,11.77-11.41,23.84l-4,.94a241.5,241.5,0,0,1-4.22-25.91"/><path class="cls-22" d="M523.45,254.27c0,3.07,0,6.14.12,9.22"/><path class="cls-10" d="M524.38,228.26c0-.14,0,0-.13-.09-2-1.14-4.67.37-5.34,2a7.05,7.05,0,0,0-.43,4.09c.21,1-.19-.13.18.24s1.2.2,1.67.46c0,0,.09,0,.11.1.42,1.53.78,3.06,1.18,4.6,1.89-.34,4.8-.27,5.42-2.5s-1.11-4.15-1.71-6.19c-.05-.14-.2.06.07-.24s1.07-.65.69-1.41-1.28-.38-1.71.25S524.38,228.4,524.38,228.26Z"/><path class="cls-24" d="M520.77,231.71a.16.16,0,0,0,.19.13.15.15,0,0,0,.1-.2.17.17,0,0,0-.19-.13C520.77,231.53,520.75,231.62,520.77,231.71Z"/><path class="cls-23" d="M517.8,230.62s.67-5.63,2-6.3l.85,1s4.12-1.31,5-.07a12.88,12.88,0,0,0,2.34,2.24s-.29,3.49.38,3.69-3.5,2.66-3.5,2.66l-.11-3.91-2.37-1-2.92.44Z"/><path class="cls-14" d="M528.73,288.67v3a10.24,10.24,0,0,1-7.6,0l3.62-2.26Z"/><polygon class="cls-4" points="475.19 209.87 475.19 224.59 495.17 215.13 494.79 199.54 475.19 209.87"/><g id="_trigger_chatting_" data-name="&lt;trigger_chatting&gt;"><path class="cls-4" d="M526.27,247.13a25,25,0,0,1-9.56,8.91c6-1.74,10.61-3.91,13.15-9.87"/><path class="cls-4" d="M499.36,238.86s7,7.55,10,7.94c0,0-11.45-2.12-14-8.41"/></g><line class="cls-4" x1="568.78" y1="328.7" x2="453.1" y2="262.75"/><polygon class="cls-25" points="581.88 336.48 578.47 246.8 455.73 188.31 455.73 262.75 581.88 336.48"/><polygon class="cls-4" points="680.24 187.79 680.24 286.63 586.65 339.21 568.78 260.35 594.01 166.76 680.24 187.79"/><polygon class="cls-4" points="586.65 220.93 447.85 159.4 448.9 260.35 464.67 269.38 464.67 195.91 568.51 255.09 569.16 329.2 586.65 339.21 586.65 220.93"/><g class="cls-2"><polygon class="cls-20" points="692.34 161.72 692.25 190.4 586.86 251.64 586.94 222.96 692.34 161.72"/><polygon class="cls-20" points="586.94 222.96 586.86 251.64 429.61 160.85 429.69 132.17 586.94 222.96"/><polygon class="cls-4" points="692.34 161.72 586.94 222.96 429.69 132.17 535.08 70.93 692.34 161.72"/></g><polygon class="cls-14" points="613.99 259.29 613.99 296.1 662.37 267.71 662.37 230.9 613.99 259.29"/><g class="cls-2"><polygon class="cls-4" points="673.66 273.29 673.6 278.39 623.62 307.24 623.69 302.15 673.66 273.29"/><polygon class="cls-4" points="623.69 302.15 623.62 307.24 613.21 300.98 613.27 295.89 623.69 302.15"/><polygon class="cls-4" points="663.25 267.03 673.66 273.29 623.69 302.15 613.27 295.89 663.25 267.03"/></g><path class="cls-4" d="M429.45,261.71l2.3,14.91s8.48,5.65,16.25,0l2.12-17Z"/><path class="cls-4" d="M428.28,257.65s-.95,4.42,0,5.37c1.34,1.35,13.44,8.07,22.85,0v-5.37Z"/><ellipse class="cls-4" cx="439.7" cy="258.32" rx="11.42" ry="6.05"/><path class="cls-26" d="M439.93,235.57s.79,9.34,0,10.83-1.36,8.12-1.36,8.12a6.44,6.44,0,0,1-5.09,4.75l2.88.12,3.92.52,1.62-.17s1.51,1,2.14.52c0,0,.42,0,0-.9s1.09-1.42,1.84-2l-1.13-.52-1.35-2.16a81.12,81.12,0,0,1,1.35-12.35,42,42,0,0,1,2-6.22l-1.13-.33s-1.63,5-2,5.54l.38-.59s-2.27-3.48-2.14-5.48A1.85,1.85,0,0,0,439.93,235.57Z"/><path class="cls-5" d="M429.21,228.07a9.08,9.08,0,0,1-.11-1.87,9.58,9.58,0,1,1,12.82-13.86,8.84,8.84,0,0,1,3.28-1.44,8.75,8.75,0,0,1,3.3-.06,7.52,7.52,0,0,1,11.61,4.64,7.4,7.4,0,0,1,.13,2.29A8.37,8.37,0,0,1,459,233.2a8.94,8.94,0,0,1-.55,1,8.52,8.52,0,0,1-11.79,2.49,8.07,8.07,0,0,1-1.39-1.13,8.94,8.94,0,1,1-16-7.49Z"/><path class="cls-4" d="M454.69,275.38l2.3,14.91s8.48,5.65,16.25,0l2.12-17Z"/><path class="cls-4" d="M453.52,271.32s-.95,4.42,0,5.37c1.34,1.35,13.44,8.07,22.84,0v-5.37Z"/><ellipse class="cls-4" cx="464.94" cy="271.99" rx="11.42" ry="6.05"/><path class="cls-4" d="M460.39,270.08l-3.08-15s8.76,10.51,9.64,18.4"/><path class="cls-4" d="M464.67,271.91A30.77,30.77,0,0,1,475.19,254L467.83,273"/><path class="cls-4" d="M466.77,269.91c1.9,7.13,6.82-11.82,11.57-9.16L472,273"/><line class="cls-27" x1="497.87" y1="214.83" x2="497.45" y2="288.21"/><line class="cls-27" x1="531.52" y1="234.81" x2="531.1" y2="308.19"/><line class="cls-4" x1="644.33" y1="244.73" x2="604.94" y2="224.03"/><path class="cls-4" d="M603.23,223.79a1.46,1.46,0,0,1,.18-.57,1.73,1.73,0,0,1,2.34-.72l39.38,20.7a1.73,1.73,0,1,1-1.61,3.06l-39.38-20.7A1.72,1.72,0,0,1,603.23,223.79Z"/><line class="cls-4" x1="644.33" y1="254.2" x2="604.94" y2="233.49"/><path class="cls-4" d="M603.23,233.25a1.47,1.47,0,0,1,.18-.56,1.73,1.73,0,0,1,2.34-.73l39.38,20.7a1.73,1.73,0,0,1-1.61,3.07L604.14,235A1.71,1.71,0,0,1,603.23,233.25Z"/><g class="cls-2"><path class="cls-20" d="M648.39,246.82c0,4.7-1.67,8-4.35,9.57l-7.42,4.31.16-.1a5.23,5.23,0,0,0,.68-.48,1.65,1.65,0,0,0,.32-.26,8.23,8.23,0,0,0,2-2.76c.09-.2.19-.41.26-.62a12.18,12.18,0,0,0,.71-2.6c0-.13,0-.24.05-.37,0-.36.08-.72.11-1.1s.05-.83.05-1.28c0-9.46-6.63-21-14.87-25.75a13.6,13.6,0,0,0-6.7-2l-.54,0a3.89,3.89,0,0,0-.47,0,5.4,5.4,0,0,0-.58.09l-.31.07a2.14,2.14,0,0,0-.27.06l-.39.12a1.58,1.58,0,0,0-.34.13.79.79,0,0,0-.23.09,2.21,2.21,0,0,0-.35.16l-.17.08,7.15-4.16c2.71-1.58,6.47-1.36,10.61,1C641.76,225.82,648.42,237.36,648.39,246.82Z"/><path class="cls-28" d="M641,251.13c0,.45,0,.87-.05,1.28s-.06.74-.11,1.1c0,.13,0,.24-.05.37a12.18,12.18,0,0,1-.71,2.6c-.07.21-.17.42-.26.62a8.23,8.23,0,0,1-2,2.76,3.65,3.65,0,0,1-.32.26,5.23,5.23,0,0,1-.68.48c-2.72,1.68-6.54,1.5-10.77-.94-8.23-4.75-14.9-16.29-14.87-25.75,0-4.71,1.68-8,4.36-9.57.08-.05.18-.09.26-.15l.17-.08a2.21,2.21,0,0,1,.35-.16.79.79,0,0,1,.23-.09l.34-.13.39-.12a1.18,1.18,0,0,1,.27-.06l.31-.07a5.4,5.4,0,0,1,.58-.09,3.89,3.89,0,0,1,.47,0l.54,0a13.6,13.6,0,0,1,6.7,2C634.35,230.13,641,241.67,641,251.13Z"/></g><ellipse class="cls-4" cx="562.99" cy="291.89" rx="2.63" ry="4.21" transform="translate(-23.52 50.72) rotate(-5.05)"/><polyline class="cls-4" points="545.64 271.91 550.9 265.6 555.11 276.12"/><polygon class="cls-20" points="556.68 276.89 556.65 287.4 544.23 280.34 544.26 269.83 556.68 276.89"/><g class="cls-2"><g class="cls-29"><polyline class="cls-7" points="629.87 245.55 621.34 240.62 622.96 251.04 629.02 254.54 629.87 245.55"/><path class="cls-8" d="M623,251l-1.62-10.42,8.53,4.93-.85,9L623,251m7.47-6.32-9.69-5.59a.31.31,0,0,0-.38,0,.43.43,0,0,0-.11.42l1.82,11.66a1.12,1.12,0,0,0,.48.74l6.92,4c.26.15.47,0,.5-.23l.95-10.06a1,1,0,0,0-.12-.52,1.11,1.11,0,0,0-.37-.4"/><path class="cls-7" d="M631.26,249.54l-.59,4c1.33-.3,2-.89,1.94-1.7a5,5,0,0,0-1.35-2.26"/><path class="cls-8" d="M631.5,248.56l-.32.89.08.09a5,5,0,0,1,1.35,2.26c.08.81-.61,1.4-1.94,1.7l-.38.07.54,1.27c2-.33,2.9-1.19,2.76-2.61a7.26,7.26,0,0,0-2.09-3.67"/><path class="cls-7" d="M623,238.85h0m.53-6a2.8,2.8,0,0,0-.61,1.7,1.31,1.31,0,0,0,.37,1.05l.24-2.75"/><path class="cls-8" d="M623.2,231.19a3.7,3.7,0,0,0-1.33,2.79,3.49,3.49,0,0,0,.87,2.34c.23.28.3.37.33.61a1.46,1.46,0,0,1-.49,1.34l.37.58h0l.38.6a2.28,2.28,0,0,0,.72-2.21,3.39,3.39,0,0,0-.79-1.6l0,0a1.31,1.31,0,0,1-.37-1.05,2.8,2.8,0,0,1,.61-1.7,2.61,2.61,0,0,1,.47-.49l-.75-1.18"/><path class="cls-7" d="M626.71,234.72a2.87,2.87,0,0,0-.62,1.7,1.35,1.35,0,0,0,.38,1.06l.24-2.76"/><path class="cls-8" d="M626.43,233.06a3.64,3.64,0,0,0-1.33,2.79,3.44,3.44,0,0,0,.87,2.33,1.06,1.06,0,0,1,.33.61,1.45,1.45,0,0,1-.49,1.34l.75,1.18a2.27,2.27,0,0,0,.72-2.2,3.49,3.49,0,0,0-.79-1.61l0,0a1.35,1.35,0,0,1-.38-1.06,2.87,2.87,0,0,1,.62-1.7,3.67,3.67,0,0,1,.47-.49l-.75-1.17"/><path class="cls-7" d="M629.48,236.33a2.84,2.84,0,0,0-.62,1.69,1.35,1.35,0,0,0,.38,1.06l.24-2.75"/><path class="cls-8" d="M629.2,234.66a3.58,3.58,0,0,0-1.33,2.79,3.44,3.44,0,0,0,.87,2.33,1.09,1.09,0,0,1,.33.61,1.48,1.48,0,0,1-.49,1.34l.75,1.18a2.25,2.25,0,0,0,.71-2.2,3.31,3.31,0,0,0-.79-1.61v0a1.35,1.35,0,0,1-.38-1.06,2.84,2.84,0,0,1,.62-1.69,2.9,2.9,0,0,1,.47-.5l-.75-1.17"/></g></g><polygon class="cls-4" points="574.03 313.98 579.29 342.37 575.09 340.26 573.66 332.38 566.46 329.05 555.11 316.08 574.03 313.98"/><polygon class="cls-4" points="550.9 302.41 574.03 313.98 566.67 354.99 562.47 352.88 564.57 340.26 547.75 331.85 544.59 343.42 540.38 341.32 550.9 302.41"/><polygon class="cls-4" points="553 307.67 547.75 327.65 565.62 336.06 569.04 316.08 553 307.67"/><rect id="hidden-3" data-name="hidden" class="cls-30" x="469.64" y="206" width="86.52" height="101.73"/><g id="sign-3" data-name="sign"><path class="cls-19" d="M476.8,235.53l-.49,10.56h-1.08l-.49-10.56Zm-.06,15H474.8v-2.47h1.94Z"/></g><g id="_island_1_" data-name="&lt;island 1&gt;"><g class="cls-2"><polygon class="cls-20" points="380.73 424.97 380.66 454.89 263.83 387.53 263.9 357.61 380.73 424.97"/><polygon class="cls-20" points="419.52 513.04 419.44 542.97 324.33 488.49 324.4 458.56 419.52 513.04"/><polygon class="cls-20" points="554.78 434.44 554.7 464.36 419.44 542.97 419.52 513.04 554.78 434.44"/><polygon class="cls-4" points="554.78 434.44 419.52 513.04 324.4 458.56 380.73 424.97 263.9 357.61 342.54 311.91 554.78 434.44"/></g><g class="cls-2"><polygon class="cls-4" points="350.16 287.31 350 344.03 300.8 373.38 300.96 316.66 350.16 287.31"/><polygon class="cls-4" points="329.02 276.12 329.02 317.13 336.38 330.8 350.05 329.75 350.05 287.69 329.02 276.12"/><polygon class="cls-4" points="329.33 317.34 350.16 329.06 300.96 358.41 280.13 346.69 329.33 317.34"/><polygon class="cls-4" points="300.96 316.66 300.8 373.38 279.97 361.66 280.13 304.94 300.96 316.66"/><polygon class="cls-4" points="329.33 275.59 350.16 287.31 300.96 316.66 280.13 304.94 329.33 275.59"/></g><path class="cls-3" d="M304.77,319s3.05,6.11,2,9.17-4.07,13.24-4.07,13.24,9.17,8.15,16.3,0l-5.09-14.26,1-8.15-8.15,1Z"/><ellipse class="cls-4" cx="309.86" cy="319.02" rx="5.09" ry="3.06"/><path class="cls-4" d="M321.66,307.67v8.41l4.2,6.31-2.1,7.36s4.21,6.31,11.57,0l-4.21-7.36,4.21-6.31-1.05-8.41Z"/><ellipse class="cls-4" cx="327.97" cy="307.67" rx="6.31" ry="3.15"/><path class="cls-4" d="M362.67,334v20s1.05,3.15,4.21,0V330.8Z"/><path class="cls-4" d="M476.24,397.05v20s1.05,3.15,4.2,0V393.89Z"/><path class="cls-4" d="M494.12,388.64v20s1.05,3.15,4.2,0V385.48Z"/><g class="cls-2"><polygon class="cls-4" points="500.44 383.92 500.43 389.07 478.56 401.77 478.58 396.63 500.44 383.92"/><polygon class="cls-4" points="478.58 396.63 478.56 401.77 361.07 333.94 361.08 328.8 478.58 396.63"/><polygon class="cls-4" points="500.44 383.92 478.58 396.63 361.08 328.8 382.95 316.09 500.44 383.92"/></g><path class="cls-3" d="M390.34,325.38l-7-4.18a2.3,2.3,0,0,0-2.36,0l-9.94,6L382.3,334Z"/><path class="cls-4" d="M380.67,331.61,373,326.88a1.45,1.45,0,0,0-2.18,1.21l-.08,1.26a2.1,2.1,0,0,0,.94,1.83l9,5.4Z"/><polygon class="cls-4" points="380.58 331.61 390.34 325.48 390.54 330.46 380.58 336.58 380.58 331.61"/><path class="cls-4" d="M413.43,336l-8.65-5.16a2.86,2.86,0,0,0-2.92,0L390,338.28l13.5,8.33Z"/><path class="cls-4" d="M401.5,343.66l-9.45-5.84c-1.18-.67-2.24.15-2.28,1.5l-.09-.1c0,.84,0,1.86.74,2.27l11.08,6.66Z"/><polygon class="cls-4" points="401.38 343.66 413.43 336.1 413.67 340.59 401.38 348.15 401.38 343.66"/><path class="cls-3" d="M453.39,356l-8.65-5.16a2.86,2.86,0,0,0-2.92,0L430,358.26l13.5,8.33Z"/><path class="cls-4" d="M441.46,363.64,432,357.8c-1.18-.67-2.24.15-2.28,1.5l-.1-.1c0,.84,0,1.86.75,2.27l11.08,6.66Z"/><polygon class="cls-4" points="441.34 363.64 453.39 356.08 453.63 360.57 441.34 368.13 441.34 363.64"/><polygon class="cls-4" points="458.36 344.4 453.1 364.3 466.25 371.81 471.51 351.53 458.36 344.4"/><polygon class="cls-4" points="425.13 352.67 427.34 357.4 416.93 352.67 425.13 352.67"/><polygon class="cls-4" points="408.73 343.21 425.13 352.67 422.92 360.88 406.83 351.73 408.73 343.21"/><path class="cls-4" d="M488.1,375.94l-8.66-5.16a2.86,2.86,0,0,0-2.92,0l-11.85,7.44,13.5,8.33Z"/><path class="cls-4" d="M476.16,383.62l-9.45-5.84c-1.18-.67-2.24.15-2.28,1.5l-.09-.1c0,.84,0,1.86.74,2.27l11.08,6.66Z"/><polygon class="cls-4" points="476.05 383.62 488.1 376.06 488.33 380.55 476.05 388.11 476.05 383.62"/><path class="cls-4" d="M488.1,370.68l-8.66-5.16a2.86,2.86,0,0,0-2.92,0L464.67,373l13.5,8.33Z"/><path class="cls-4" d="M476.16,378.36l-9.45-5.84c-1.18-.67-2.24.15-2.28,1.5l-.09-.1c0,.84,0,1.86.74,2.27l11.08,6.66Z"/><polygon class="cls-4" points="476.05 378.36 488.1 370.8 488.33 375.29 476.05 382.85 476.05 378.36"/><path class="cls-4" d="M488.1,367.53l-8.66-5.16a2.83,2.83,0,0,0-2.92,0l-11.85,7.43,13.5,8.34Z"/><path class="cls-4" d="M476.16,375.2l-9.45-5.83c-1.18-.68-2.24.14-2.28,1.5l-.09-.1c0,.84,0,1.86.74,2.26l11.08,6.67Z"/><polygon class="cls-4" points="476.05 375.2 488.1 367.64 488.33 372.14 476.05 379.7 476.05 375.2"/><path class="cls-10" d="M444.14,368.75s-5.2-2.53-7,2.25-1.15,4.89-1.15,4.89l2,.87-.23,7.16s7.8,0,8.8-1.66-1.53-8.92-1.53-8.92,1.52-.41,1.51-1.44-1.13-1.28-2.14-.25S444.14,368.75,444.14,368.75Z"/><ellipse class="cls-24" cx="439.49" cy="371.39" rx="0.19" ry="0.21"/><path class="cls-23" d="M438.24,369s1.12-4.59,2.33-5l.67.87s3.8-.73,4.52.37a10.82,10.82,0,0,0,1.88,2s-.58,2.86,0,3.07-3.36,1.9-3.36,1.9l.26-3.23-2-1-2.64.12Z"/><path class="cls-31" d="M446.55,381.73s11.38,18.68,10.24,30.19c0,0-17.08,1.43-22.64-2.11,0,0,1-22.25,3.6-26.28C437.75,383.53,444.65,383.43,446.55,381.73Z"/><path class="cls-13" d="M456.87,412.27s-8.68,15.64-14.08,27.51l-4.52.83s-3.56-21.48-3.66-30.56"/><path class="cls-14" d="M442.79,439.78v3.48s-5.53,2.07-8.64,0l4.12-2.65Z"/><rect class="cls-15" x="443.98" y="369.4" width="3.06" height="1.39" rx="0.49" ry="0.49" transform="translate(891.03 740.18) rotate(-180)"/><g class="cls-2"><polygon class="cls-4" points="451.59 441.25 451.52 461.71 424.48 476.88 424.55 456.43 451.59 441.25"/><polygon class="cls-4" points="424.55 456.43 424.48 476.88 366.29 443.29 366.36 422.83 424.55 456.43"/><polygon class="cls-4" points="451.59 441.25 424.55 456.43 366.36 422.83 393.4 407.65 451.59 441.25"/></g><path class="cls-10" d="M384.44,396.31s5.44-2.64,7.28,2.36,1.21,5.11,1.21,5.11l-2.05.91.24,7.49s-8.15,0-9.2-1.74,1.6-9.33,1.6-9.33-1.59-.43-1.58-1.5,1.19-1.34,2.24-.27S384.44,396.31,384.44,396.31Z"/><ellipse class="cls-24" cx="389.3" cy="399.07" rx="0.2" ry="0.22"/><path class="cls-23" d="M390.61,396.52s-1.17-4.8-2.44-5.25l-.7.91s-4-.76-4.73.39a11.43,11.43,0,0,1-2,2.14s.6,3,0,3.21,3.52,2,3.52,2l-.27-3.38,2.11-1.06,2.76.12Z"/><path class="cls-10" d="M381.92,409.88S370,429.42,371.21,441.47c0,0,17.86,1.49,23.67-2.21,0,0-1.07-23.28-3.76-27.49C391.12,411.77,383.9,411.66,381.92,409.88Z"/><path class="cls-13" d="M371.13,441.83s9.08,16.36,14.72,28.78l4.73.87s3.72-22.47,3.82-32"/><path class="cls-14" d="M385.85,470.61v3.64s5.78,2.16,9,0l-4.3-2.77Z"/><rect class="cls-15" x="381.4" y="396.99" width="3.2" height="1.45" rx="0.49" ry="0.49"/><polygon class="cls-4" points="424.37 451.73 424.37 441.07 427.27 434.28 434.55 434.77 438.91 439.13 438.91 443.01 424.37 451.73"/><polygon class="cls-4" points="407.89 431.37 407.89 442.52 424.37 451.73 424.37 441.07 420 431.37 408.61 431.62 407.89 431.37"/><polygon class="cls-4" points="418.55 425.07 407.89 431.37 424.37 441.07 434.55 434.77 418.55 425.07"/><polygon class="cls-4" points="426.24 436.7 429.7 434.28 426.31 431.37 426.24 436.7"/><polygon class="cls-4" points="426.31 431.37 416.13 425.07 416.13 430.4 426.31 436.7 426.31 431.37"/><g id="_trigger_receipt_" data-name="&lt;trigger_receipt&gt;"><path class="cls-10" d="M390.33,416.47s5,12.38,8.37,14.3c0,0-12.42-8-12.85-16.81"/><path class="cls-4" d="M413.14,439.64l7.72,4.82s-10.61,3.85-11.57,12.53l-7.71-5.78S406.4,441.57,413.14,439.64Z"/><path class="cls-4" d="M413.14,439.64l7.72,4.82s-8.77,1-11.57,12.53c-1,4.22-7.59,12.9-11.92,12.62l-6.31-6.31c4.21,0,7.09-3.1,9.47-6.31S406.4,441.57,413.14,439.64Z"/><path class="cls-4" d="M413.14,439.64l7.72,4.82s-8.77,1-11.57,12.53c-1,4.22-7.71,11.57-11.92,12.62s-9.46,10.51-9.46,10.51l-6.31-4.2s4.2-10.52,9.46-12.62c3.91-1.56,7.09-3.1,9.47-6.31S406.4,441.57,413.14,439.64Z"/><path class="cls-31" d="M438.51,388s-4.79,11.84-8,13.67c0,0,11.88-7.68,12.29-16.06"/><path class="cls-4" d="M436.57,398l-8.66-5.16a2.84,2.84,0,0,0-2.91,0l-11.85,7.44,13.5,8.33Z"/><path class="cls-4" d="M424.64,405.7l-9.46-5.84c-1.18-.67-2.23.15-2.28,1.5l-.09-.1c0,.84,0,1.86.74,2.27l11.09,6.66Z"/><polygon class="cls-4" points="424.52 405.7 436.57 398.14 436.81 402.63 424.52 410.19 424.52 405.7"/></g><rect id="hidden-4" data-name="hidden" class="cls-30" x="352.92" y="383.38" width="81.26" height="107.33"/><g id="sign-4" data-name="sign"><path class="cls-19" d="M409.5,397.47,409,408h-1.08l-.49-10.56Zm-.07,15H407.5V410h1.93Z"/></g></g></g></g></svg>