<svg xmlns="http://www.w3.org/2000/svg" xmlns:xlink="http://www.w3.org/1999/xlink" viewBox="0 0 841.89 595.28"><defs><style>.cls-1,.cls-10,.cls-11,.cls-12,.cls-18{fill:none;}.cls-2{isolation:isolate;}.cls-3{fill:#bd2229;}.cls-10,.cls-21,.cls-3,.cls-4{stroke:#19191a;}.cls-11,.cls-16,.cls-17,.cls-18,.cls-3{stroke-linecap:round;}.cls-10,.cls-11,.cls-14,.cls-16,.cls-17,.cls-18,.cls-3,.cls-4,.cls-9{stroke-linejoin:round;}.cls-15,.cls-16,.cls-21,.cls-22,.cls-23,.cls-4,.cls-6,.cls-9{fill:#fff;}.cls-5{clip-path:url(#clip-path);}.cls-7{fill:#19191a;}.cls-8{clip-path:url(#clip-path-2);}.cls-11,.cls-14,.cls-15,.cls-16,.cls-17,.cls-18,.cls-19,.cls-23,.cls-24,.cls-9{stroke:#1a1a1a;}.cls-11{stroke-width:2px;}.cls-12{stroke:#e6e6e6;stroke-width:0.75px;}.cls-12,.cls-15,.cls-19,.cls-21,.cls-22,.cls-23,.cls-24{stroke-miterlimit:10;}.cls-13,.cls-14,.cls-20,.cls-24{fill:#c92028;}.cls-14,.cls-15,.cls-16,.cls-17,.cls-19,.cls-24{stroke-width:0.8px;}.cls-17,.cls-19{fill:#1a1a1a;}.cls-20{mix-blend-mode:multiply;}.cls-22{stroke:#000;stroke-width:0.8px;}</style><clipPath id="clip-path"><polygon class="cls-1" points="299.01 126.89 294.04 110.45 311.64 120.86 316.62 137.31 299.01 126.89"/></clipPath><clipPath id="clip-path-2"><polygon class="cls-1" points="349.23 188.01 349.34 148.16 367.89 158.87 367.78 198.72 349.23 188.01"/></clipPath></defs><title>中山國中站</title><g class="cls-2"><g id="圖層_2" data-name="圖層 2"><g id="_Island3_" data-name="&lt;Island3&gt;"><g class="cls-2"><polygon class="cls-3" points="445.03 278.62 444.96 302.8 251.82 415.04 251.89 390.87 445.03 278.62"/><polygon class="cls-3" points="251.89 390.87 251.82 415.04 57.41 302.8 57.48 278.63 251.89 390.87"/><polygon class="cls-4" points="445.03 278.62 251.89 390.87 57.48 278.63 250.62 166.38 445.03 278.62"/></g><polygon class="cls-3" points="280.76 58.74 132.01 144.63 145.13 152.19 281.86 72.45 393.14 136.33 404.73 130.31 280.76 58.74"/><polygon class="cls-3" points="132.01 144.63 132.01 272.54 144.56 279.41 145.13 152.19 132.01 144.63"/><polygon class="cls-3" points="404.73 130.31 404.73 259.92 393.78 266.99 393.14 136.33 404.73 130.31"/><polygon class="cls-4" points="281.86 72.45 145.13 152.19 144.56 279.41 280.76 200.97 281.86 72.45"/><polygon class="cls-4" points="281.86 72.45 280.76 200.97 393.78 266.99 393.14 136.33 281.86 72.45"/><polygon class="cls-4" points="262.03 172.29 270.34 177.43 182.19 228.83 164.58 218.75 262.03 172.29"/><g class="cls-2"><polygon class="cls-4" points="173.04 223.67 164.58 218.75 164.4 153.25 172.85 158.16 173.04 223.67"/><polygon class="cls-4" points="172.85 158.16 164.4 153.25 253.38 101.87 261.84 106.78 172.85 158.16"/><polygon class="cls-4" points="261.84 106.78 262.03 172.29 173.04 223.67 172.85 158.16 261.84 106.78"/><polygon class="cls-4" points="178.53 161.43 256.2 116.59 256.35 169.03 178.68 213.87 178.53 161.43"/></g><path class="cls-4" d="M182.92,215.32V218a6.82,6.82,0,0,0,.41,2.34c.68,1.17,3,3.44,5.52,2.08,2.29-1.24,6.13-3.35,9.07-5.15,1.46-.9,2.53-2.21,1.65-3.68L199,212c-.57-.94-1.59,0-2.69,0h-4.54"/><polygon class="cls-4" points="181.59 216.2 188.05 219.52 200.55 212.02 194.05 208.02 181.59 216.2"/><path class="cls-4" d="M263.46,226.56v35.87s3.45,3.84,6.3.06l.23-34.14-5.14-3.49Z"/><path class="cls-4" d="M319.84,221.68v35.88s3.46,3.83,6.3.06l.23-34.14L321.23,220Z"/><polygon class="cls-4" points="266.73 226.25 266.73 243.36 286.38 254.51 286.38 235.38 266.73 226.25"/><polyline class="cls-4" points="326.38 231.53 326.38 213.1 306.73 203.97 306.73 220.28"/><polygon class="cls-4" points="284.46 236.01 286.38 255.21 324.16 233.19 324.16 213.72 284.46 236.01"/><path class="cls-4" d="M283.11,237v35.88s3.46,3.83,6.3.06l.24-34.14-5.14-3.49Z"/><polygon class="cls-4" points="292.96 237.23 292.96 247.7 321.21 231.71 321.21 218.02 292.96 237.23"/><g class="cls-2"><polygon class="cls-3" points="329 211.43 328.98 217.74 288.74 241.61 288.76 233.26 329 211.43"/><polygon class="cls-3" points="288.76 233.26 288.74 241.61 261.32 226.1 261.35 219.8 288.76 233.26"/><polygon class="cls-3" points="301.59 195.92 329 211.43 288.76 235.3 261.35 219.8 301.59 195.92"/></g><g class="cls-2"><polygon class="cls-4" points="310.66 256.06 310.66 278.15 307.32 280.09 307.32 258 310.66 256.06"/><polygon class="cls-4" points="307.32 258 307.32 280.09 303.95 278.14 303.95 256.06 307.32 258"/><polygon class="cls-4" points="310.66 256.06 307.32 258 303.95 256.06 307.29 254.12 310.66 256.06"/></g><g class="cls-2"><polygon class="cls-4" points="329.6 246.86 329.6 268.95 326.27 270.89 326.27 248.8 329.6 246.86"/><polygon class="cls-4" points="326.27 248.8 326.27 270.89 322.9 268.94 322.9 246.86 326.27 248.8"/><polygon class="cls-4" points="329.6 246.86 326.27 248.8 322.9 246.86 326.24 244.92 329.6 246.86"/></g><g class="cls-2"><polygon class="cls-4" points="344.77 228.04 344.63 276.95 341.29 278.89 341.43 229.98 344.77 228.04"/><polygon class="cls-4" points="341.43 229.98 341.29 278.89 337.93 276.94 338.07 228.03 341.43 229.98"/><polygon class="cls-4" points="344.77 228.04 341.43 229.98 338.07 228.03 341.4 226.09 344.77 228.04"/></g><polygon class="cls-4" points="303.56 255.86 303.56 260.5 321.17 270.89 339.68 259.7 339.68 255.23 303.56 255.86"/><polygon class="cls-4" points="303.56 255.86 321.37 265.86 339.68 255.23 322.7 244.64 303.56 255.86"/><polygon class="cls-4" points="321.1 241.1 321.1 253.46 339.83 242.9 339.83 230.97 321.1 241.1"/><g class="cls-2"><polygon class="cls-4" points="324.44 239.04 324.3 287.95 320.97 289.89 321.1 240.98 324.44 239.04"/><polygon class="cls-4" points="321.1 240.98 320.97 289.89 317.6 287.94 317.74 239.03 321.1 240.98"/><polygon class="cls-4" points="324.44 239.04 321.1 240.98 317.74 239.03 321.08 237.09 324.44 239.04"/></g><path class="cls-4" d="M203.31,263.94v35.87s3.46,3.84,6.3.07l.24-34.14-5.15-3.49Z"/><path class="cls-4" d="M259.69,259.07v35.87s3.46,3.84,6.3.06l.24-34.14-5.15-3.48Z"/><polygon class="cls-4" points="206.58 263.63 206.58 280.75 226.24 291.9 226.24 272.76 206.58 263.63"/><polyline class="cls-4" points="266.24 268.91 266.24 250.48 246.58 241.35 246.58 257.66"/><polygon class="cls-4" points="224.31 273.39 226.24 292.6 264.01 270.57 264.01 251.11 224.31 273.39"/><path class="cls-4" d="M223,274.38v35.87s3.45,3.84,6.3.06l.23-34.14-5.14-3.48Z"/><polygon class="cls-4" points="232.81 274.61 232.81 285.09 261.06 269.1 261.06 255.4 232.81 274.61"/><g class="cls-2"><polygon class="cls-3" points="268.86 248.81 268.83 255.12 228.59 278.99 228.61 270.64 268.86 248.81"/><polygon class="cls-3" points="228.61 270.64 228.59 278.99 201.18 263.49 201.2 257.18 228.61 270.64"/><polygon class="cls-3" points="241.44 233.31 268.86 248.81 228.61 272.69 201.2 257.18 241.44 233.31"/></g><path class="cls-4" d="M328.52,268.32v35.87s3.46,3.84,6.3.07l.23-34.14-5.14-3.49Z"/><path class="cls-4" d="M384.9,263.45v35.87s3.46,3.84,6.3.06l.23-34.14-5.14-3.49Z"/><polygon class="cls-4" points="331.79 268.01 331.79 285.13 351.44 296.27 351.44 277.14 331.79 268.01"/><polyline class="cls-4" points="391.44 273.29 391.44 254.86 371.79 245.73 371.79 262.04"/><polygon class="cls-4" points="349.52 277.77 351.44 296.98 389.22 274.95 389.22 255.49 349.52 277.77"/><path class="cls-4" d="M348.18,278.76v35.87s3.45,3.84,6.3.06l.23-34.14-5.14-3.49Z"/><polygon class="cls-4" points="358.02 278.99 358.02 289.47 386.27 273.48 386.27 259.78 358.02 278.99"/><g class="cls-2"><polygon class="cls-3" points="394.06 253.19 394.04 259.5 353.8 283.37 353.82 275.02 394.06 253.19"/><polygon class="cls-3" points="353.82 275.02 353.8 283.37 326.38 267.87 326.41 261.56 353.82 275.02"/><polygon class="cls-3" points="366.65 237.69 394.06 253.19 353.82 277.06 326.41 261.56 366.65 237.69"/></g><g class="cls-2"><polygon class="cls-4" points="314.12 117.82 324.08 112.03 324 139.13 319.93 142.21 314.12 117.82"/><polygon class="cls-4" points="290.53 104.2 300.49 98.41 324.08 112.03 314.12 117.82 290.53 104.2"/><polygon class="cls-4" points="314.12 117.82 319.93 142.21 296.34 128.59 290.53 104.2 314.12 117.82"/></g><g class="cls-2"><g class="cls-5"><path class="cls-6" d="M301.64,124.71l-2-6.6,2.11,1.25,2,6.6-1.06-.62-1.06-.63m7.35,4-2-6.6,2.12,1.25,2,6.6-1.05-.62-1.06-.63m-3.21-.65-2.85-9.44,2.11,1.25,2.86,9.44-1.06-.63-1.06-.62M303.24,117c-4.08-2.41-6.46-1.27-5.31,2.53s5.41,8.87,9.48,11.28,6.46,1.27,5.31-2.53-5.41-8.87-9.48-11.28"/><path class="cls-7" d="M307.41,130.78c-4.07-2.41-8.33-7.47-9.48-11.28s1.23-4.94,5.31-2.53,8.33,7.47,9.48,11.28-1.23,4.94-5.31,2.53m-4.57-15.13c-4.85-2.87-7.69-1.51-6.32,3s6.44,10.56,11.29,13.43,7.69,1.52,6.32-3-6.43-10.56-11.29-13.43"/><polyline class="cls-7" points="301.76 119.36 299.65 118.11 301.64 124.71 302.7 125.34 303.76 125.97 301.76 119.36"/><polyline class="cls-7" points="309.11 123.4 306.99 122.15 308.99 128.75 310.05 129.38 311.1 130 309.11 123.4"/><polyline class="cls-7" points="305.04 119.91 302.93 118.66 305.78 128.1 306.84 128.72 307.9 129.35 305.04 119.91"/></g></g><g class="cls-2"><polygon class="cls-4" points="256.24 303.65 256.24 325.73 252.91 327.67 252.91 305.58 256.24 303.65"/><polygon class="cls-4" points="252.91 305.58 252.91 327.67 249.54 325.73 249.54 303.64 252.91 305.58"/><polygon class="cls-4" points="256.24 303.65 252.91 305.58 249.54 303.64 252.88 301.7 256.24 303.65"/></g><g class="cls-2"><polygon class="cls-4" points="275.19 294.44 275.19 316.53 271.86 318.47 271.86 296.38 275.19 294.44"/><polygon class="cls-4" points="271.86 296.38 271.86 318.47 268.49 316.52 268.49 294.44 271.86 296.38"/><polygon class="cls-4" points="275.19 294.44 271.86 296.38 268.49 294.44 271.83 292.5 275.19 294.44"/></g><g class="cls-2"><polygon class="cls-4" points="290.35 275.62 290.21 324.53 286.88 326.47 287.02 277.56 290.35 275.62"/><polygon class="cls-4" points="287.02 277.56 286.88 326.47 283.51 324.53 283.65 275.62 287.02 277.56"/><polygon class="cls-4" points="290.35 275.62 287.02 277.56 283.65 275.62 286.99 273.68 290.35 275.62"/></g><polygon class="cls-4" points="249.14 303.44 249.14 308.08 266.75 318.47 285.27 307.29 285.27 302.81 249.14 303.44"/><polygon class="cls-4" points="249.14 303.44 266.96 313.44 285.27 302.81 268.29 292.22 249.14 303.44"/><polygon class="cls-4" points="266.69 288.69 266.69 301.04 285.42 290.49 285.42 278.55 266.69 288.69"/><g class="cls-2"><polygon class="cls-4" points="270.03 286.62 269.89 335.53 266.55 337.47 266.69 288.56 270.03 286.62"/><polygon class="cls-4" points="266.69 288.56 266.55 337.47 263.19 335.53 263.33 286.62 266.69 288.56"/><polygon class="cls-4" points="270.03 286.62 266.69 288.56 263.33 286.62 266.66 284.68 270.03 286.62"/></g><polygon class="cls-4" points="335.54 123.77 380.51 149.58 380.51 215.68 336.88 191.78 335.54 123.77"/><g class="cls-2"><g class="cls-8"><path class="cls-6" d="M363.11,157.17c-.43-.25-1.11.13-1.43.49a.2.2,0,0,1-.21.06l-2.86-.37c-.67,1-4.92,7.23-6,8.24s-3.13,5.33-2.24,7.76a9,9,0,0,1,.39,2.78c0,.38,0,.74.06,1a19.32,19.32,0,0,0,1.4,5.08l.24.63a10.65,10.65,0,0,1,0,5.36l2.32,1.88a26.66,26.66,0,0,1,1.49-5l0,0v0l0,0,.07-.06c.16-.44.51-1.15,1.14-2.42,3.74-5.07,9.28-14,8.33-16.64a5.19,5.19,0,0,1-.34-3.27,1.76,1.76,0,0,1,.8-1,.86.86,0,0,1-.09-.34V161a2.66,2.66,0,0,1-.53-.24,3,3,0,0,1-.6-.44,5.85,5.85,0,0,1-1.49-2.37,1.6,1.6,0,0,0-.49-.78h0"/><path class="cls-7" d="M354.83,190.09l-2.32-1.88a10.65,10.65,0,0,0,0-5.36l-.24-.63a19.32,19.32,0,0,1-1.4-5.08c0-.27-.05-.63-.06-1a9,9,0,0,0-.39-2.78c-.89-2.43,1.12-6.7,2.24-7.76s5.32-7.26,6-8.24l2.86.37a.2.2,0,0,0,.21-.06c.32-.36,1-.74,1.43-.49h0a1.6,1.6,0,0,1,.49.78,5.85,5.85,0,0,0,1.49,2.37,3,3,0,0,0,.6.44,2.66,2.66,0,0,0,.53.24v.35a.86.86,0,0,0,.09.34,1.76,1.76,0,0,0-.8,1,5.19,5.19,0,0,0,.34,3.27c.95,2.62-4.59,11.57-8.33,16.64-.63,1.27-1,2-1.14,2.42l-.07.06,0,0v0l0,0a26.66,26.66,0,0,0-1.49,5m8.28-34a1.77,1.77,0,0,0-2.1.42l-2.88-.37a.21.21,0,0,0-.24.09c-.05.08-4.91,7.24-6,8.27s-3.51,5.6-2.32,8.86a8.24,8.24,0,0,1,.28,2.26c0,.42,0,.82.07,1.15a21.15,21.15,0,0,0,1.51,5.5l.24.63c.55,1.45.07,4.1-.16,5a.67.67,0,0,0,.05.45,1.15,1.15,0,0,0,.3.41l3.24,2.62.1.06a.42.42,0,0,0,.25.06.26.26,0,0,0,.2-.24,25.14,25.14,0,0,1,1.53-5.25l0-.06c.14-.32.78-1.61,1.15-2.38,1.65-2.23,9.8-13.56,8.34-17.63a3.9,3.9,0,0,1-.28-2.41,1.34,1.34,0,0,1,1.23-.93c.19,0,.29-.19.24-.47a1,1,0,0,0-.45-.66l-.29-.17,0-.54a1,1,0,0,0-.23-.58,1.07,1.07,0,0,0-.23-.2.49.49,0,0,0-.22-.06,1.26,1.26,0,0,1-.71-.2,3.25,3.25,0,0,1-1.31-1.82,3.38,3.38,0,0,0-1.26-1.78l-.05,0"/></g></g><path class="cls-9" d="M215.84,259.55s-11.15-10.83-16.13,4.77l11.95,13.32s.08-11.39,11.83-7.88Z"/><path class="cls-9" d="M223.49,248.81s-2.39-1.11-11.58,7.82l12,13.31s2.38-6.88,11.83-11.07Z"/><path class="cls-10" d="M223.49,269.76s-8.44-2.43-11.1,8.15"/><path class="cls-10" d="M235.69,258.87s-8.92.67-11.59,11.24"/><g id="_trigger_bell_ring_" data-name="&lt;trigger_bell_ring&gt;"><path class="cls-11" d="M282.05,129.23s.72,14.43,13.14,13.74"/><path class="cls-11" d="M273.07,133s1,19.32,17.59,18.4"/><path class="cls-11" d="M290.5,127s.51,10.13,9.22,9.64"/><rect id="hidden" class="cls-12" x="252.71" y="81.64" width="82.28" height="96.74"/><g id="sign"><path class="cls-13" d="M272.82,91.27l-.47,10h-1l-.47-10Zm-.06,14.28h-1.84V103.2h1.84Z"/></g></g></g><g id="_Island2_" data-name="&lt;Island2&gt;"><g class="cls-2"><polygon class="cls-3" points="735.14 335.28 735.08 357.99 627.82 420.72 627.88 398.02 735.14 335.28"/><polygon class="cls-3" points="619.58 354.52 619.7 378.34 512.44 439.95 512.32 417.25 619.58 354.52"/><polygon class="cls-3" points="512.85 417.63 512.79 440.43 371.08 357.99 371.14 335.29 512.85 417.63"/><polygon class="cls-3" points="628.26 397.92 628.19 420.72 587.15 397.69 587.02 372.47 628.26 397.92"/><polygon class="cls-4" points="735.14 335.28 628.22 397.42 587.65 374.49 512.98 417.22 371.14 335.29 552.55 229.87 735.14 335.28"/></g><path class="cls-9" d="M553.11,263.87v18.9s1,3,4,0V260.88Z"/><path class="cls-9" d="M660.54,323.55v18.9s1,3,4,0V320.56Z"/><path class="cls-9" d="M677.45,315.59v18.9s1,3,4,0V312.61Z"/><g class="cls-2"><polygon class="cls-9" points="683.43 311.13 683.42 316 662.74 328.01 662.75 323.15 683.43 311.13"/><polygon class="cls-9" points="662.75 323.15 662.74 328.01 551.6 263.85 551.61 258.98 662.75 323.15"/><polygon class="cls-9" points="683.43 311.13 662.75 323.15 551.61 258.98 572.29 246.97 683.43 311.13"/></g><path class="cls-14" d="M579.29,255.76l-6.64-4a2.15,2.15,0,0,0-2.23,0l-9.4,5.7,10.66,6.39Z"/><path class="cls-9" d="M570.14,261.64l-7.25-4.47a1.37,1.37,0,0,0-2.06,1.15l-.07,1.19a2,2,0,0,0,.89,1.73l8.49,5.11Z"/><polygon class="cls-9" points="570.05 261.64 579.29 255.85 579.47 260.56 570.05 266.35 570.05 261.64"/><path class="cls-9" d="M601.13,265.78l-8.19-4.88a2.69,2.69,0,0,0-2.75,0L579,268l12.76,7.89Z"/><path class="cls-9" d="M589.84,273l-8.94-5.52c-1.11-.64-2.11.14-2.16,1.42l-.08-.09c0,.79,0,1.76.7,2.14l10.48,6.3Z"/><polygon class="cls-9" points="589.73 273.04 601.13 265.89 601.35 270.14 589.73 277.29 589.73 273.04"/><path class="cls-14" d="M638.93,284.68l-8.19-4.88a2.68,2.68,0,0,0-2.76,0l-11.21,7,12.77,7.89Z"/><path class="cls-9" d="M627.64,291.94l-8.94-5.52c-1.11-.64-2.12.14-2.16,1.42l-.08-.09c0,.79,0,1.76.7,2.14l10.48,6.3Z"/><polygon class="cls-9" points="627.53 291.94 638.93 284.79 639.15 289.04 627.53 296.19 627.53 291.94"/><path class="cls-9" d="M671.75,303.58l-8.18-4.88a2.68,2.68,0,0,0-2.76,0l-11.21,7,12.77,7.89Z"/><path class="cls-9" d="M660.47,310.84l-9-5.52c-1.11-.64-2.11.14-2.15,1.42l-.09-.09c0,.79,0,1.76.7,2.14l10.49,6.3Z"/><polygon class="cls-9" points="660.36 310.84 671.75 303.69 671.98 307.94 660.36 315.09 660.36 310.84"/><path class="cls-9" d="M671.75,298.61l-8.18-4.89a2.7,2.7,0,0,0-2.76,0l-11.21,7,12.77,7.88Z"/><path class="cls-9" d="M660.47,305.87l-9-5.52c-1.11-.64-2.11.13-2.15,1.42l-.09-.1c0,.8,0,1.76.7,2.14l10.49,6.31Z"/><polygon class="cls-9" points="660.36 305.87 671.75 298.72 671.98 302.97 660.36 310.12 660.36 305.87"/><path class="cls-9" d="M671.75,295.62l-8.18-4.88a2.7,2.7,0,0,0-2.76,0l-11.21,7,12.77,7.89Z"/><path class="cls-9" d="M660.47,302.88l-9-5.52c-1.11-.63-2.11.14-2.15,1.42l-.09-.09c0,.79,0,1.76.7,2.14l10.49,6.31Z"/><polygon class="cls-9" points="660.36 302.88 671.75 295.73 671.98 299.98 660.36 307.13 660.36 302.88"/><path class="cls-9" d="M602,262.05l-8.19-4.89a2.69,2.69,0,0,0-2.75,0l-11.21,7,12.76,7.88Z"/><path class="cls-9" d="M590.66,269.31l-8.94-5.52c-1.11-.64-2.11.13-2.16,1.42l-.08-.1c0,.8,0,1.76.7,2.14l10.48,6.31Z"/><polygon class="cls-9" points="590.55 269.31 601.95 262.16 602.17 266.41 590.55 273.56 590.55 269.31"/><path class="cls-9" d="M602,258l-8.19-4.88a2.66,2.66,0,0,0-2.75,0l-11.21,7L592.61,268Z"/><path class="cls-9" d="M590.72,265.23l-9-5.52c-1.11-.64-2.11.14-2.16,1.42l-.08-.09c0,.79,0,1.76.7,2.14l10.49,6.3Z"/><polygon class="cls-9" points="590.6 265.23 602 258.08 602.23 262.33 590.6 269.48 590.6 265.23"/><path class="cls-9" d="M614.76,273.43l-8.19-4.88a2.66,2.66,0,0,0-2.75,0l-11.21,7,12.76,7.88Z"/><path class="cls-9" d="M603.47,280.69l-8.94-5.52c-1.11-.64-2.12.14-2.16,1.42l-.08-.09c0,.79,0,1.76.7,2.14l10.48,6.3Z"/><polygon class="cls-9" points="603.36 280.69 614.76 273.54 614.98 277.79 603.36 284.94 603.36 280.69"/><path class="cls-9" d="M618.3,268.77l-8.19-4.88a2.66,2.66,0,0,0-2.75,0l-11.21,7,12.77,7.89Z"/><path class="cls-9" d="M607,276l-8.95-5.52c-1.11-.64-2.11.14-2.16,1.42l-.08-.09c0,.79,0,1.76.7,2.14l10.49,6.3Z"/><polygon class="cls-9" points="606.9 276.03 618.3 268.88 618.53 273.13 606.9 280.28 606.9 276.03"/><path class="cls-9" d="M671.8,290.22l-8.18-4.88a2.7,2.7,0,0,0-2.76,0l-11.21,7,12.77,7.88Z"/><path class="cls-9" d="M660.52,297.49,651.57,292c-1.11-.63-2.11.14-2.15,1.42l-.09-.09c0,.79,0,1.76.7,2.14l10.49,6.31Z"/><polygon class="cls-9" points="660.41 297.49 671.8 290.33 672.03 294.58 660.41 301.74 660.41 297.49"/><path class="cls-9" d="M601.18,252.72,593,247.84a2.66,2.66,0,0,0-2.75,0l-11.21,7,12.76,7.88Z"/><path class="cls-9" d="M589.9,260,581,254.46c-1.11-.64-2.11.14-2.16,1.42l-.08-.1c0,.8,0,1.76.7,2.15l10.49,6.3Z"/><polygon class="cls-9" points="589.78 259.98 601.18 252.83 601.4 257.08 589.78 264.23 589.78 259.98"/><polygon class="cls-3" points="446.58 244.03 418.62 340.32 459.45 364.06 459.45 251.76 446.58 244.03"/><polygon class="cls-3" points="446.58 244.03 526.46 196.51 541.14 204.98 459.45 251.76 446.58 244.03"/><polygon class="cls-4" points="541.14 204.98 552.32 310.44 459.45 364.06 459.45 251.76 541.14 204.98"/><polygon class="cls-4" points="466.75 258 468.07 281.46 537.42 241.79 535.05 219.08 466.75 258"/><polygon class="cls-4" points="468.83 290.92 470.16 314.38 539.51 274.71 537.14 252 468.83 290.92"/><polygon class="cls-4" points="471.44 322.91 472.77 346.37 542.12 306.7 539.75 283.99 471.44 322.91"/><polygon class="cls-3" points="475.93 252.76 475.33 277.31 482 273.49 482 249.26 475.93 252.76"/><polygon class="cls-4" points="487.35 246.36 486.75 270.91 493.43 267.09 493.43 242.85 487.35 246.36"/><polygon class="cls-4" points="484.01 282.58 483.41 307.13 490.09 303.31 490.09 279.08 484.01 282.58"/><polygon class="cls-4" points="480.67 317.69 480.07 342.24 486.75 338.42 486.75 314.19 480.67 317.69"/><polygon class="cls-3" points="491.12 311.62 490.52 336.17 497.2 332.35 497.2 308.12 491.12 311.62"/><polygon class="cls-3" points="510.72 300.67 510.12 325.22 516.79 321.4 516.79 297.16 510.72 300.67"/><polygon class="cls-4" points="507.38 234.87 506.78 259.42 513.46 255.69 513.46 231.46 507.38 234.87"/><polygon class="cls-4" points="518 228.86 517.4 253.51 521.09 251.35 521.53 226.89 518 228.86"/><polygon class="cls-4" points="525.22 224.43 524.62 249.08 528.31 246.92 528.75 222.46 525.22 224.43"/><polygon class="cls-4" points="477.2 286.49 476.6 311.14 480.29 308.98 480.73 284.51 477.2 286.49"/><polygon class="cls-3" points="494.02 276.74 493.43 301.39 497.11 299.23 497.55 274.76 494.02 276.74"/><polygon class="cls-3" points="502.28 271.85 501.68 296.5 505.37 294.34 505.81 269.88 502.28 271.85"/><polygon class="cls-3" points="518 263.14 517.4 287.79 521.09 285.63 521.53 261.17 518 263.14"/><polygon class="cls-4" points="527.28 257.91 526.68 282.56 530.37 280.4 530.81 255.94 527.28 257.91"/><polygon class="cls-4" points="522.13 293.9 521.53 318.55 525.21 316.39 525.65 291.93 522.13 293.9"/><polygon class="cls-3" points="531.41 288.72 530.81 313.37 534.5 311.21 534.94 286.75 531.41 288.72"/><path class="cls-15" d="M595.63,280.34s1-8.71,3.15-9.84l5.06-1.23s6.91-.21,8.2,2.64,3.48,6.73,3.48,6.73-2,3.29-1,3.85-4.74,6.23-4.74,6.23l-2.91-8.38-3.61-2.63-4.72.3Z"/><path class="cls-16" d="M609.19,293.53s13.91,23,12.51,37.2c0,0-20.86,1.76-27.66-2.6,0,0,1.25-27.42,4.4-32.38C598.44,295.75,606.87,295.62,609.19,293.53Z"/><path class="cls-17" d="M621.8,331.16s-10.61,19.28-17.21,33.91l-5.52,1s-4.34-26.46-4.46-37.66"/><path class="cls-16" d="M606.53,277.85s-7.56-3-10.13,2.63-1.67,5.73-1.67,5.73l2.85,1-.33,8.39s11.33,0,12.79-1.95-2.23-10.45-2.23-10.45,2.21-.48,2.2-1.68-1.65-1.5-3.11-.3S606.53,277.85,606.53,277.85Z"/><ellipse class="cls-15" cx="598.1" cy="283.48" rx="0.27" ry="0.26"/><path class="cls-18" d="M604.57,364.46v4.29s-8,2.54-12.56,0l6-3.27Z"/><path class="cls-16" d="M599.14,301.65s-2.82,15.62-6.75,18.8c0,0,14.22-12.8,12-23"/><path class="cls-16" d="M537.67,289.94s-6.95-3.38-9.31,3-1.55,6.54-1.55,6.54l2.63,1.16-.31,9.57s10.42,0,11.77-2.22-2-11.93-2-11.93,2-.55,2-1.92-1.52-1.71-2.86-.34S537.67,289.94,537.67,289.94Z"/><ellipse class="cls-15" cx="531.46" cy="293.47" rx="0.25" ry="0.28"/><path class="cls-19" d="M529.79,290.2s1.49-6.13,3.11-6.72l.9,1.18s5.08-1,6,.49a14.62,14.62,0,0,0,2.52,2.73s-.78,3.82,0,4.11-4.5,2.53-4.5,2.53l.34-4.32-2.7-1.35L532,289Z"/><path class="cls-16" d="M540.9,307.29s15.22,25,13.69,40.38c0,0-22.83,1.91-30.27-2.82,0,0,1.37-29.76,4.81-35.14C529.13,309.71,538.36,309.57,540.9,307.29Z"/><path class="cls-17" d="M554.7,348.14s-11.61,20.92-18.83,36.79l-6,1.12s-4.76-28.73-4.89-40.88"/><path class="cls-18" d="M535.87,384.93v4.66s-7.39,2.76-11.55,0l5.51-3.54Z"/><rect class="cls-20" x="537.46" y="290.8" width="4.1" height="1.86" rx="0.49" ry="0.49" transform="translate(1079.02 583.46) rotate(-180)"/><g id="_trigger_flipping_book_" data-name="&lt;trigger_flipping_book&gt;"><path class="cls-9" d="M509.3,323s-12.36-7.56-13.68,7.64l13.6,9.65S507,330,518.35,330.73Z"/><path class="cls-9" d="M518.82,313.53s-12.37-7.56-13.69,7.65l13.6,9.64s-2.27-10.36,9.13-9.58Z"/><path class="cls-10" d="M518.35,330.73s-8.16-.47-8.41,9.69"/><path class="cls-10" d="M527.4,321.24s-8.17-.47-8.42,9.69"/><path class="cls-4" d="M530.81,324.51c-5.9,3.7-18,5.75-18,5.75s14.39,3.35,24.17-2.69"/><rect id="hidden-2" data-name="hidden" class="cls-12" x="483.19" y="263.04" width="76.67" height="90.16"/><g id="sign-2" data-name="sign"><path class="cls-13" d="M548.79,280.1l-.44,9.36h-1L547,280.1Zm-.06,13.3H547v-2.19h1.71Z"/></g></g></g><g id="_Island1_" data-name="&lt;Island1&gt;"><g class="cls-2"><polygon class="cls-3" points="537.26 484.53 537.19 508.99 452.32 558.31 452.38 533.85 537.26 484.53"/><polygon class="cls-3" points="452.38 533.85 452.32 558.31 241.19 436.41 241.26 411.96 452.38 533.85"/><polygon class="cls-4" points="537.26 484.53 452.38 533.85 241.26 411.96 326.13 362.64 537.26 484.53"/></g><g class="cls-2"><polygon class="cls-4" points="380.6 407.93 366.64 416.04 331.93 396 345.88 387.89 380.6 407.93"/></g><g class="cls-2"><polygon class="cls-4" points="358.25 422.91 344.29 431.02 309.57 410.97 323.53 402.86 358.25 422.91"/></g><g class="cls-2"><polygon class="cls-4" points="335.31 437.38 321.36 445.49 286.64 425.45 300.6 417.34 335.31 437.38"/></g><g class="cls-2"><polygon class="cls-14" points="426.1 424.84 426.09 428.01 408.63 438.17 408.63 435 426.1 424.84"/><polygon class="cls-14" points="408.63 435 408.63 438.17 391.04 428.01 391.05 424.84 408.63 435"/><polygon class="cls-14" points="426.1 424.84 408.63 435 391.05 424.84 408.52 414.69 426.1 424.84"/></g><path class="cls-14" d="M405,395.71l-6.14,25.77c-.38,2.15.95,3.72,2.53,5,2.93,2.38,9.39,3.69,13.49.94,1.86-1.26,3.39-2.57,3.07-5l-5.13-26.72Z"/><ellipse class="cls-14" cx="408.75" cy="396.81" rx="4.27" ry="2.67"/><path class="cls-21" d="M409.47,408.52a15.53,15.53,0,0,1-7.45-2.21,1.5,1.5,0,0,1,1.58-2.54c.12.07,6.18,3.73,10,.17a1.5,1.5,0,0,1,2,2.2A8.83,8.83,0,0,1,409.47,408.52Z"/><path class="cls-21" d="M373.06,435.52a1.5,1.5,0,0,1-.91-2.69l35.36-27.07a1.5,1.5,0,1,1,1.83,2.38L374,435.21A1.47,1.47,0,0,1,373.06,435.52Z"/><g class="cls-2"><polygon class="cls-14" points="385.07 456.66 385.06 459.83 367.59 469.98 367.6 466.81 385.07 456.66"/><polygon class="cls-14" points="367.6 466.81 367.59 469.98 350 459.83 350.01 456.66 367.6 466.81"/><polygon class="cls-14" points="385.07 456.66 367.6 466.81 350.01 456.66 367.48 446.5 385.07 456.66"/></g><path class="cls-14" d="M364,427.52l-6.14,25.78c-.38,2.15.95,3.71,2.53,5,2.92,2.37,9.39,3.68,13.48.93,1.87-1.25,3.39-2.57,3.07-5l-5.12-26.72Z"/><ellipse class="cls-14" cx="367.71" cy="428.62" rx="4.27" ry="2.67"/><path class="cls-21" d="M368.29,442.48a15.7,15.7,0,0,1-7.46-2.2,1.5,1.5,0,0,1,1.59-2.55c.11.07,6.18,3.73,10,.18a1.5,1.5,0,1,1,2,2.2A8.82,8.82,0,0,1,368.29,442.48Z"/><line class="cls-21" x1="412.37" y1="407.03" x2="488.37" y2="445.55"/><rect class="cls-21" x="448.87" y="383.69" width="3" height="85.2" transform="translate(-133.48 635.28) rotate(-63.12)"/><g class="cls-2"><polygon class="cls-14" points="509.07 465.35 509.07 468.52 491.6 478.67 491.61 475.5 509.07 465.35"/><polygon class="cls-14" points="491.61 475.5 491.6 478.67 474.01 468.52 474.02 465.35 491.61 475.5"/><polygon class="cls-14" points="509.07 465.35 491.61 475.5 474.02 465.35 491.49 455.19 509.07 465.35"/></g><path class="cls-14" d="M488,436.21,481.87,462c-.39,2.15.95,3.71,2.53,5,2.92,2.37,9.39,3.69,13.48.93,1.86-1.25,3.39-2.57,3.07-5l-5.13-26.72Z"/><ellipse class="cls-14" cx="491.72" cy="437.31" rx="4.27" ry="2.67"/><path class="cls-21" d="M492.47,452.68a15.7,15.7,0,0,1-7.46-2.2,1.5,1.5,0,0,1,1.59-2.55c.11.07,6.18,3.73,10,.17a1.5,1.5,0,0,1,2,2.21A8.86,8.86,0,0,1,492.47,452.68Z"/><path class="cls-16" d="M418,431s-11.82,22.85-10.49,36.93c0,0,19.89,1.75,26.37-2.58,0,0-1.19-27.22-4.19-32.14C429.66,433.17,420.18,433,418,431Z"/><path class="cls-17" d="M407.39,468.32s10.11,19.14,16.4,33.65l5.26,1s4.15-26.27,4.26-37.39"/><path class="cls-16" d="M421.94,415.39s7.21-2.93,9.66,2.62,1.6,5.69,1.6,5.69l-2.72,1,.31,8.32s-10.8,0-12.19-1.93-.1-10.37-.1-10.37a7.89,7.89,0,0,0,.12-1.67c0-1.19,1.58-1.49,3-.3S421.94,415.39,421.94,415.39Z"/><ellipse class="cls-15" cx="429.98" cy="421.34" rx="0.26" ry="0.25"/><path class="cls-18" d="M423.82,501.37v4.26s7.66,2.52,12,0l-5.71-3.25Z"/><path class="cls-15" d="M416.31,418.38s12.42,5.11,19-.72c0,0,0-7.29-3.85-10.18-2.07-1.55-8.44-1.84-11.81.91C417.41,410.21,418.18,413.36,416.31,418.38Z"/><path class="cls-16" d="M423.82,420.26s.69,12,6.29,12.07"/><polygon class="cls-7" points="448.36 509.63 452.32 511.83 452.38 509.63 450.38 509.63 448.36 509.63"/><g id="_trigger_road_sound_" data-name="&lt;trigger_road sound&gt;"><path class="cls-16" d="M429.77,446.79s13,7.83,17.4,7.27c0,0-17.06,1.23-23.29-6.47"/><polygon class="cls-4" points="448.12 488.51 448.12 506.07 450.24 507.83 452.35 505.9 452.35 489.92 448.12 488.51"/><path class="cls-4" d="M444.3,474V488.8s3.43,5.95,12.36,0V474Z"/><path class="cls-4" d="M439.59,464.78l.09,13c5.3,7.18,14.56,7,21.68,1.22V464.78Z"/><ellipse class="cls-4" cx="450.48" cy="464.78" rx="10.89" ry="6"/><line class="cls-4" x1="457.98" y1="504.79" x2="459.85" y2="501.17"/><line class="cls-4" x1="440.72" y1="498.17" x2="442.52" y2="502.2"/><line class="cls-4" x1="457.98" y1="496.09" x2="455.69" y2="504.79"/><path class="cls-4" d="M452.28,453.06v11a2.32,2.32,0,0,1-3.88,0v-7.7Z"/><g class="cls-2"><path class="cls-4" d="M457.34,446.25a3.23,3.23,0,0,1-.53,1.57l-9.87,14.9a2.53,2.53,0,0,0,.26-.52,1.58,1.58,0,0,0,.09-.31,1.45,1.45,0,0,0,.06-.3,1.88,1.88,0,0,0,0-.33,3.73,3.73,0,0,0-3.31-3.87l-.46,0a3.11,3.11,0,0,0-.43,0l-.42.08a3,3,0,0,0-.4.12,3.41,3.41,0,0,0-1.55,1.25l9.94-15a3.41,3.41,0,0,1,3.26-1.46A3.76,3.76,0,0,1,457.34,446.25Z"/><path class="cls-4" d="M447.4,461.26a1.88,1.88,0,0,1,0,.33,1.45,1.45,0,0,1-.06.3l-.09.31a4.2,4.2,0,0,1-.26.52,3.38,3.38,0,0,1-3.33,1.57,3.74,3.74,0,0,1-3.31-3.87,3.45,3.45,0,0,1,.53-1.58,3.41,3.41,0,0,1,1.55-1.25,3,3,0,0,1,.4-.12l.42-.08a3.11,3.11,0,0,1,.43,0l.46,0A3.73,3.73,0,0,1,447.4,461.26Z"/></g><rect id="hidden-3" data-name="hidden" class="cls-12" x="388.58" y="387.84" width="82.28" height="96.74"/><g id="sign-3" data-name="sign"><path class="cls-13" d="M443.51,427.86l-.47,10h-1l-.47-10Zm-.07,14.27H441.6v-2.34h1.84Z"/></g></g></g><g id="child"><path class="cls-22" d="M312.33,271.76s9.83,25.64,4.37,28.15-20.23,1.74-19.56-9.08a70.63,70.63,0,0,1,5-20.74Z"/><ellipse class="cls-22" cx="307.73" cy="265.07" rx="10.23" ry="9.58" transform="translate(-68.15 418.91) rotate(-63)"/><ellipse class="cls-22" cx="312.51" cy="262.64" rx="0.37" ry="0.4"/><path class="cls-22" d="M298.16,295.76s9.17,14.16,11.92,21.37h2.51L318.23,299S305.41,300.11,298.16,295.76Z"/><path class="cls-22" d="M309.7,317.13v3.79h6.84s3.72-2.1,0-3.79-4.21,0-4.21,0Z"/><path class="cls-22" d="M312.3,283.4s8,12.16,10.69,13.44-15.11-6.48-14.31-12.62"/></g><path class="cls-19" d="M314.38,257.42s-2.16-8.5-4.52-9.32l-1.3,1.63s-7.36-1.36-8.76.68a20.27,20.27,0,0,1-3.63,3.79s1.12,5.29,0,5.69,2.94,5.3,2.94,5.3l3.07-7.77,3.92-1.89,5.12.22Z"/><g id="child-2" data-name="child"><path class="cls-4" d="M172.89,274.74s9.79,25.54,4.35,28-20.15,1.73-19.48-9a70.09,70.09,0,0,1,4.94-20.66Z"/><ellipse class="cls-23" cx="168.51" cy="269.44" rx="10.19" ry="9.54" transform="translate(-119.66 135.46) rotate(-33.04)"/><ellipse class="cls-15" cx="173.65" cy="269.64" rx="0.4" ry="0.37" transform="translate(-118.94 138.3) rotate(-33.04)"/><path class="cls-15" d="M158.77,298.65s9.14,14.1,11.88,21.28h2.5l5.62-18.06S166,303,158.77,298.65Z"/><path class="cls-15" d="M170.27,319.93v3.79h6.81s3.71-2.1,0-3.79-4.19,0-4.19,0Z"/><path class="cls-4" d="M172.58,285.38s14.09,3.46,16.91,2.58-15.44,5.49-19,.46"/><polygon class="cls-17" points="178.47 266.06 180.33 261.75 170.81 254.29 159.78 256.02 156.29 260.79 161.08 267.69 165.5 264.81 172.71 265.43 178.47 266.06"/></g><g id="child-3" data-name="child"><path class="cls-24" d="M213.05,300.09s-9.79,25.53-4.35,28,20.15,1.74,19.48-9a70.21,70.21,0,0,0-4.94-20.67Z"/><ellipse class="cls-23" cx="217.63" cy="293.41" rx="9.54" ry="10.19"/><ellipse class="cls-15" cx="214.66" cy="289.21" rx="0.37" ry="0.4"/><path class="cls-15" d="M227.17,324s-9.14,14.1-11.88,21.29h-2.5l-5.62-18.06S220,328.32,227.17,324Z"/><path class="cls-15" d="M215.67,345.28v3.78h-6.81s-3.71-2.1,0-3.78,4.19,0,4.19,0Z"/><path class="cls-24" d="M214.28,306.71s-11-9.44-11.93-12.25,4.5,15.75,10.67,15.73"/><polygon class="cls-17" points="215.03 283.22 217.63 279.31 229.07 283.22 233.64 293.41 231.54 298.94 223.15 298.69 223.15 293.41 218.7 287.7 215.03 283.22"/></g></g></g></svg>