<svg xmlns="http://www.w3.org/2000/svg" xmlns:xlink="http://www.w3.org/1999/xlink" viewBox="0 0 749.04 613.11"><defs><style>.cls-1,.cls-17,.cls-22,.cls-24,.cls-25,.cls-4{fill:none;}.cls-2{isolation:isolate;}.cls-13,.cls-14,.cls-19,.cls-21,.cls-28,.cls-3,.cls-5,.cls-9{fill:#fff;}.cls-10,.cls-13,.cls-14,.cls-15,.cls-16,.cls-17,.cls-23,.cls-25,.cls-27,.cls-28,.cls-3,.cls-4,.cls-5{stroke:#1a1a1a;}.cls-10,.cls-13,.cls-16,.cls-17,.cls-23,.cls-25,.cls-3{stroke-linecap:round;}.cls-10,.cls-13,.cls-16,.cls-17,.cls-23,.cls-25,.cls-28,.cls-3,.cls-4,.cls-9{stroke-linejoin:round;}.cls-14,.cls-15,.cls-19,.cls-22,.cls-24,.cls-27,.cls-5{stroke-miterlimit:10;}.cls-6{clip-path:url(#clip-path);}.cls-15,.cls-16,.cls-7{fill:#1a1a1a;}.cls-8{clip-path:url(#clip-path-2);}.cls-19,.cls-22,.cls-9{stroke:#000;}.cls-10,.cls-12,.cls-18,.cls-26,.cls-27{fill:#c92028;}.cls-11{clip-path:url(#clip-path-3);}.cls-13,.cls-14,.cls-15,.cls-16,.cls-25,.cls-27{stroke-width:0.8px;}.cls-18{mix-blend-mode:multiply;}.cls-20{clip-path:url(#clip-path-4);}.cls-23{fill:#fff5f6;}.cls-24{stroke:#e6e6e6;stroke-width:0.75px;}.cls-26{font-size:14.05px;font-family:NotoSansCJKtc-Black-B5pc-H, Noto Sans CJK TC;}</style><clipPath id="clip-path"><polygon class="cls-1" points="168.31 196.34 168.28 187.71 175.8 183.37 175.82 192 168.31 196.34"/></clipPath><clipPath id="clip-path-2"><polygon class="cls-1" points="172.07 192.64 172.06 187.64 173.05 187.07 173.07 192.06 172.07 192.64"/></clipPath><clipPath id="clip-path-3"><polygon class="cls-1" points="232.91 153.33 232.67 70.22 288.75 37.84 288.99 120.96 232.91 153.33"/></clipPath><clipPath id="clip-path-4"><polygon class="cls-1" points="187.09 248.89 183.03 242.42 187.44 242.24 191.5 248.72 187.09 248.89"/></clipPath></defs><title>南港站</title><g class="cls-2"><g id="圖層_1" data-name="圖層 1"><g id="_island_2_" data-name="&lt;island 2&gt;"><polygon class="cls-3" points="191.43 119.4 119.5 164.06 119.5 289.71 191.43 246.27 191.43 119.4"/><g class="cls-2"><polygon class="cls-4" points="189.15 202.44 189.13 205.76 173.55 215.13 173.56 211.81 189.15 202.44"/><polygon class="cls-4" points="173.56 211.81 173.55 215.13 166.19 210.98 166.21 207.66 173.56 211.81"/><polygon class="cls-4" points="181.79 198.29 189.15 202.44 173.56 211.81 166.21 207.66 181.79 198.29"/></g><polygon class="cls-5" points="181.75 167.39 135.31 196.56 135.31 227.2 181.75 198.03 181.75 167.39"/><g class="cls-2"><g class="cls-6"><path class="cls-7" d="M172.06,193c-1.52.87-2.77.17-2.78-1.58a6.11,6.11,0,0,1,2.76-4.78c1.53-.88,2.77-.17,2.77,1.58a6.07,6.07,0,0,1-2.75,4.78m0-7.5A8.24,8.24,0,0,0,168.3,192c0,2.37,1.69,3.34,3.76,2.14a8.22,8.22,0,0,0,3.75-6.48c0-2.39-1.7-3.35-3.77-2.15"/></g></g><g class="cls-2"><g class="cls-8"><polyline class="cls-7" points="173.05 187.07 172.06 187.64 172.07 192.64 173.07 192.06 173.05 187.07"/></g></g><polygon class="cls-5" points="164.18 183.78 139.75 199.02 139.75 219.03 164.18 203.78 164.18 183.78"/><g class="cls-2"><polygon class="cls-9" points="136.29 170.9 131.51 168.12 131.44 143.41 136.22 146.19 136.29 170.9"/><polygon class="cls-9" points="136.22 146.19 131.44 143.41 154.53 130.08 159.31 132.86 136.22 146.19"/><polygon class="cls-10" points="159.31 132.86 159.38 157.57 136.29 170.9 136.22 146.19 159.31 132.86"/></g><path d="M148.08,146.43l-1,.58v1.3a4.24,4.24,0,0,0-1.88,3.32c0,2.43,3.34.11,3.34,1.19,0,.48-.34.93-1.13,1.39a2,2,0,0,1-1.76.25l-.68,1.6a2.69,2.69,0,0,0,2.14-.25v1.28l1-.58v-1.32A4.4,4.4,0,0,0,150,151.8c0-2.42-3.33-.08-3.33-1.15,0-.5.37-.92.95-1.25a1.84,1.84,0,0,1,1.57-.21l.77-1.5a2.19,2.19,0,0,0-1.89,0v-1.3"/><path d="M147.46,158.67c-3.27,1.89-5.94.38-6-3.38a13,13,0,0,1,5.91-10.23c3.27-1.89,5.94-.38,6,3.39a13,13,0,0,1-5.91,10.22m0-15A15.77,15.77,0,0,0,140.28,156c0,4.54,3.24,6.38,7.18,4.1a15.78,15.78,0,0,0,7.15-12.37c0-4.54-3.24-6.38-7.19-4.1"/><polygon class="cls-5" points="158.72 222.99 141.74 234.33 141.74 247.98 158.72 236.64 158.72 222.99"/><polygon class="cls-10" points="89.07 295.56 89.07 326 192.08 386.86 193.25 355.26 89.07 295.56"/><polygon class="cls-10" points="303.28 288.54 303.28 322.48 192.08 386.86 192.08 350.58 252.94 315.46 303.28 288.54"/><polygon class="cls-10" points="303.28 286.2 303.28 322.48 385.21 366.96 386.38 330.68 322 296.73 303.28 286.2"/><polygon class="cls-10" points="386.38 334.19 385.21 366.96 512.8 293.22 512.8 261.62 375.85 321.31 386.38 334.19"/><polygon class="cls-3" points="331.95 154.96 89.07 295.56 192.08 355.26 303.28 288.54 386.38 333.02 512.8 261.62 331.95 154.96"/><g class="cls-2"><g class="cls-11"><path class="cls-12" d="M235.11,68.81A5.36,5.36,0,0,0,232.68,73c0,1.18.64,1.82,1.54,1.72v-1.2l1-.58v1.4a5.35,5.35,0,0,0,2.33-4.15c0-1.55-1.1-2.17-2.44-1.4"/><path class="cls-7" d="M234.78,126.94V127l1-.57v-.06a4.81,4.81,0,0,1-.49.34,3.14,3.14,0,0,1-.5.23m7.34-31-7.4,10.25,0,15.29a3.16,3.16,0,0,1,.5-.34,2.38,2.38,0,0,1,.49-.23l0-14.7,7.77-10.76-1,.56-.38-.07"/><path class="cls-12" d="M266.17,107.83l-5.74,3.32v1.14l5.74-3.32v-1.14m8.36-4.82-7.36,4.25v1.14l7.36-4.25V103m-22.72,6.31-1,.57,0,7.94,8.6-5v-1.14l-7.61,4.4,0-6.8m-.05-18.68-1,.57.05,17.54,1-.57,0-8.35-.5.28V99l.5-.29,0-8M235.21,73l-1,.58v1.2l0,8.71,16.47-9.51,0,16.14,1-.58-.05-17.28-16.46,9.51,0-7.37V73"/><path class="cls-7" d="M260.42,104.35l-1,.57,0,6.8v1.14l.06,19.52.21-.13a2.58,2.58,0,0,1,.78-.31l-.05-19.65v-7.94m-1-8.87,0,8.31,1-.58,0-8.3-1,.57m-24-2.07-.54,1.27,7.24,1.23.38.07,1-.56,7.28-4.21,1-.57,7.61-4.4,0,8.1,1-.57,0-9.24-8.61,5-1,.58-8,4.59-7.38-1.26"/><path class="cls-7" d="M266.13,91.64l0,8.26-5.74,3.31-1,.58-7.61,4.39-1,.57-6.36,3.68.08,27.72a4,4,0,0,1,.55-.39,2.49,2.49,0,0,1,.44-.21L245.44,113l5.37-3.1,1-.57,7.61-4.4,1-.57,5.74-3.32V109l0,16.35,10.6-6.12a2.23,2.23,0,0,1-.06-.54,4,4,0,0,1,.05-.6l-9.59,5.54-.05-15.2v-1.14l0-6.8,20.2-11.66,0-9.17a4.53,4.53,0,0,1-.9.71l-.09,0,0,7.84L267.15,99.32l0-8.25-1,.57m0-7.21,0,6.07,1-.57,0-5.93a1.37,1.37,0,0,1-.2.13,2.35,2.35,0,0,1-.79.3m21.16-24.79-21.2,12.24,0,7.26a4.41,4.41,0,0,1,.79-.61l.21-.11,0-6,19.21-11.09,0,13.43.09-.05a2.23,2.23,0,0,1,.9-.32l0-14.78"/><polyline class="cls-7" points="251.28 98.97 251.28 100.11 251.78 99.83 259.39 95.48 260.39 94.91 266.13 91.64 267.13 91.07 274.86 86.66 274.86 85.52 267.12 89.93 266.13 90.5 260.38 93.77 259.39 94.34 251.78 98.68 251.28 98.97"/><path class="cls-7" d="M259.71,132.25l-.21.13a5.37,5.37,0,0,0-2.22,4.08c0,1.55,1.1,2.17,2.44,1.39a5.33,5.33,0,0,0,2.43-4.21c0-1.23-.69-1.88-1.66-1.7a2.58,2.58,0,0,0-.78.31"/><path class="cls-7" d="M279.19,114.45a5.47,5.47,0,0,0-2.38,3.61,4,4,0,0,0-.05.6,2.23,2.23,0,0,0,.06.54c.23,1.14,1.21,1.53,2.39.85a5.32,5.32,0,0,0,2.43-4.21c0-1.54-1.1-2.17-2.45-1.39"/><path class="cls-7" d="M245.08,139.76a4,4,0,0,0-.55.39,5.41,5.41,0,0,0-1.88,3.82c0,1.55,1.1,2.17,2.44,1.4a5.35,5.35,0,0,0,2.43-4.22c0-1.37-.86-2-2-1.6a2.49,2.49,0,0,0-.44.21"/><path class="cls-7" d="M235.26,121.11a3.16,3.16,0,0,0-.5.34,5.44,5.44,0,0,0-1.93,3.87c0,1.35.84,2,1.95,1.62a3.14,3.14,0,0,0,.5-.23,4.81,4.81,0,0,0,.49-.34,5.46,5.46,0,0,0,1.93-3.87c0-1.35-.84-2-1.95-1.62a2.38,2.38,0,0,0-.49.23"/><path class="cls-7" d="M286.41,74.74l-.09.05A5.42,5.42,0,0,0,284,79c0,1.51,1,2.14,2.36,1.44l.09,0a4.53,4.53,0,0,0,.9-.71,5.43,5.43,0,0,0,1.53-3.5c0-1.18-.65-1.82-1.55-1.71a2.23,2.23,0,0,0-.9.32"/><path class="cls-7" d="M266.88,78.53a4.41,4.41,0,0,0-.79.61,5.46,5.46,0,0,0-1.64,3.6c0,1.23.7,1.87,1.66,1.69a2.35,2.35,0,0,0,.79-.3,1.37,1.37,0,0,0,.2-.13,5.35,5.35,0,0,0,2.23-4.07c0-1.47-1-2.11-2.24-1.51l-.21.11"/></g></g><path class="cls-4" d="M292.88,26.68,221.53,67.17a3.88,3.88,0,0,0-1.95,3.35v95.29a3.86,3.86,0,0,0,5.89,3.27l71.34-44.36a3.84,3.84,0,0,0,1.82-3.27V30A3.85,3.85,0,0,0,292.88,26.68Z"/><g id="_trigger_buy_tickets_" data-name="&lt;trigger_buy_tickets&gt;"><path class="cls-13" d="M206.51,206.44s-6.12-3-8.2,2.65-1.36,5.76-1.36,5.76l2.31,1L199,224.3s9.17,0,10.35-2-1.8-10.5-1.8-10.5,1.79-.48,1.78-1.69-1.34-1.5-2.52-.3S206.51,206.44,206.51,206.44Z"/><ellipse class="cls-14" cx="201.04" cy="209.55" rx="0.22" ry="0.25"/><path class="cls-15" d="M199.57,206.67s1.31-5.4,2.75-5.91l.79,1s4.47-.86,5.32.43a12.81,12.81,0,0,0,2.21,2.41s-.68,3.36,0,3.62-4,2.23-4,2.23l.3-3.81-2.38-1.19-3.11.14Z"/><path class="cls-13" d="M209.35,221.72s13.41,22,12.06,35.55c0,0-20.11,1.68-26.65-2.48,0,0,1.2-26.21,4.24-30.95C199,223.84,207.12,223.72,209.35,221.72Z"/><path class="cls-16" d="M221.5,257.68s-10.22,18.42-16.58,32.4l-5.32,1s-4.18-25.29-4.3-36"/><path class="cls-17" d="M204.92,290.08v4.1s-6.5,2.43-10.16,0l4.84-3.12Z"/><rect class="cls-18" x="206.33" y="207.2" width="3.61" height="1.63" rx="0.67" ry="0.67" transform="translate(416.26 416.04) rotate(-180)"/><path class="cls-13" d="M199.88,229.13s-5.64,13.94-9.42,16.1c0,0,14-9,14.46-18.92"/><polygon class="cls-19" points="193.86 241.44 175.28 242.53 180.29 250.19 198.72 249.38 193.86 241.44"/><g class="cls-2"><g class="cls-20"><path d="M185.77,242.31l-.89,0,.53.83c-.95.15-1.24.71-.75,1.5,1,1.55,3.73,1.18,4.16,1.88.2.31,0,.49-.69.51a3.82,3.82,0,0,1-1.84-.43l-.11.8a5.81,5.81,0,0,0,2.25.56l.52.82.88,0-.53-.85c1-.2,1.21-.79.75-1.53-1-1.56-3.72-1.17-4.14-1.85-.21-.33.05-.47.55-.49a4,4,0,0,1,1.66.4l.24-.71a5.66,5.66,0,0,0-2.07-.6l-.52-.84"/></g></g></g><polygon class="cls-21" points="363.56 138.13 330.78 158.03 352 183.19 371.17 171.49 378.78 148.66 363.56 138.13"/><path class="cls-9" d="M363.23,138.71,330,158a41.91,41.91,0,0,0-20.89,36.26v17.63"/><polyline class="cls-22" points="362.97 138.71 378.19 148.07 324.35 220.65 309.13 211.28"/><path class="cls-9" d="M378.45,148.08l-33.21,19.26a41.93,41.93,0,0,0-20.89,36.27v17.62l54.1-31.38Z"/><polygon class="cls-9" points="337.81 156.85 329.61 161.54 338.98 167.74 347.17 162.71 337.81 156.85"/><path class="cls-9" d="M314.64,182l9.12,5.07s-2,3-2,14.18l-9.11-5.06S311.6,188.1,314.64,182Z"/><polyline class="cls-9" points="320.83 189.04 314.98 193.73 316.15 190.21"/><line class="cls-9" x1="314.98" y1="193.73" x2="318.49" y2="193.73"/><g class="cls-2"><path class="cls-10" d="M350.14,172.15l4.16-2.42c.39.2.77.4,1.14.62l-4.16,2.42C350.9,172.55,350.53,172.35,350.14,172.15Z"/><path class="cls-10" d="M351.28,172.77l4.16-2.42a34.34,34.34,0,0,1,12.46,13.26L363.74,186A34.44,34.44,0,0,0,351.28,172.77Z"/><path class="cls-10" d="M351.28,172.77A34.44,34.44,0,0,1,363.74,186l-7.35,4.2-6.29-3.63,0-14.45C350.53,172.35,350.9,172.55,351.28,172.77Z"/></g><polygon class="cls-21" points="406.87 165.05 374.09 184.95 395.31 210.11 414.48 198.41 422.08 175.58 406.87 165.05"/><path class="cls-9" d="M406.54,165.63,373.33,184.9a41.93,41.93,0,0,0-20.89,36.26v17.63"/><polyline class="cls-22" points="406.28 165.63 421.5 175 367.66 247.57 352.44 238.21"/><path class="cls-9" d="M421.76,175l-33.21,19.26a41.91,41.91,0,0,0-20.89,36.27v17.63l54.1-31.39Z"/><polygon class="cls-9" points="381.12 183.78 372.92 188.46 382.29 194.67 390.48 189.63 381.12 183.78"/><path class="cls-9" d="M358,208.94l9.12,5.07s-2,3-2,14.18l-9.11-5.06S354.91,215,358,208.94Z"/><polyline class="cls-9" points="364.14 215.97 358.29 220.65 359.46 217.14"/><line class="cls-9" x1="358.29" y1="220.65" x2="361.8" y2="220.65"/><g class="cls-2"><path class="cls-10" d="M393.45,199.07l4.16-2.42c.39.2.77.41,1.14.62l-4.16,2.42C394.21,199.47,393.84,199.27,393.45,199.07Z"/><path class="cls-10" d="M394.59,199.69l4.16-2.42a34.49,34.49,0,0,1,12.46,13.26L407.05,213A34.58,34.58,0,0,0,394.59,199.69Z"/><path class="cls-10" d="M394.59,199.69A34.58,34.58,0,0,1,407.05,213l-7.35,4.2-6.29-3.63,0-14.45C393.84,199.27,394.21,199.47,394.59,199.69Z"/></g><polygon class="cls-21" points="449.01 190.8 416.23 210.7 437.45 235.87 456.62 224.16 464.22 201.33 449.01 190.8"/><path class="cls-9" d="M448.68,191.38l-33.21,19.27a41.93,41.93,0,0,0-20.89,36.27v17.62"/><polyline class="cls-22" points="448.42 191.38 463.64 200.75 409.8 273.32 394.58 263.96"/><path class="cls-9" d="M463.9,200.75,430.68,220a41.93,41.93,0,0,0-20.89,36.27v17.63l54.11-31.38Z"/><polygon class="cls-9" points="423.26 209.53 415.06 214.21 424.43 220.42 432.62 215.38 423.26 209.53"/><path class="cls-9" d="M400.09,234.69l9.12,5.07s-2,3-2,14.19l-9.12-5.07S397.05,240.77,400.09,234.69Z"/><polyline class="cls-9" points="406.28 241.72 400.43 246.4 401.6 242.89"/><line class="cls-9" x1="400.43" y1="246.4" x2="403.94" y2="246.4"/><g class="cls-2"><path class="cls-10" d="M435.59,224.82l4.16-2.42c.39.2.77.41,1.14.62l-4.17,2.42Z"/><path class="cls-10" d="M436.72,225.44l4.17-2.42a34.49,34.49,0,0,1,12.46,13.26l-4.16,2.42A34.65,34.65,0,0,0,436.72,225.44Z"/><path class="cls-10" d="M436.72,225.44a34.65,34.65,0,0,1,12.47,13.26l-7.36,4.2-6.28-3.63,0-14.45Z"/></g><g class="cls-2"><path class="cls-10" d="M465.92,241.32c.37.21.75.44,1.13.68l0,14.57L460.79,253l-7.23-12.68C453.78,240.11,457.85,236.65,465.92,241.32Z"/><path class="cls-10" d="M454.18,239.87l4.2-2.44c1.44-.83,5.32-2.26,11.74,1.45l-4.2,2.44C459.51,237.61,455.62,239,454.18,239.87Z"/><polygon class="cls-10" points="467.05 242 471.25 239.56 471.21 254.13 467.01 256.57 467.05 242"/><path class="cls-10" d="M465.92,241.32l4.2-2.44c.37.21.74.44,1.13.68l-4.2,2.44C466.67,241.76,466.29,241.53,465.92,241.32Z"/></g><g id="_trigger_tap__the_card_" data-name="&lt;trigger_tap _the_card&gt;"><polygon class="cls-3" points="381.85 237.03 377.02 247.12 385.8 249.92 389.31 239.28 381.85 237.03"/><path class="cls-13" d="M366.56,210.43s5.34-2.59,7.16,2.32,1.18,5,1.18,5l-2,.9.23,7.35s-8,0-9-1.71,1.58-9.16,1.58-9.16-1.57-.43-1.56-1.48,1.17-1.31,2.2-.26S366.56,210.43,366.56,210.43Z"/><ellipse class="cls-14" cx="371.34" cy="213.15" rx="0.19" ry="0.21"/><path class="cls-15" d="M372.62,210.64s-1.15-4.72-2.4-5.17l-.69.91s-3.9-.76-4.64.37a10.87,10.87,0,0,1-1.93,2.1s.59,2.93,0,3.16,3.46,2,3.46,2l-.27-3.32,2.08-1,2.71.12Z"/><path class="cls-10" d="M364.08,223.77s-11.7,19.2-10.52,31c0,0,17.55,1.47,23.26-2.17,0,0-1.05-22.87-3.7-27C373.12,225.62,366,225.52,364.08,223.77Z"/><path class="cls-16" d="M353.48,255.16s8.92,16.07,14.47,28.27l4.64.86s3.65-22.08,3.76-31.42"/><path class="cls-17" d="M368,283.43V287s5.67,2.12,8.87,0l-4.23-2.72Z"/><rect class="cls-18" x="363.57" y="211.1" width="3.15" height="1.43" rx="0.49" ry="0.49"/><path class="cls-10" d="M372.35,230.23s4.92,12.17,8.22,14.06c0,0-12.2-7.89-12.62-16.51"/></g><path class="cls-9" d="M230.57,206.58l2.56,16.59s9.44,6.29,18.09,0l2.36-18.88Z"/><path class="cls-9" d="M229.27,202.05s-1.06,4.93,0,6c1.49,1.5,15,9,25.43,0v-6Z"/><ellipse class="cls-9" cx="241.98" cy="202.8" rx="12.72" ry="6.73"/><path class="cls-23" d="M242.23,177.48s.89,10.39,0,12.05-1.5,9.05-1.5,9.05-1,4.57-5.68,5.28l3.22.13,4.36.58,1.8-.19s1.68,1.16,2.38.58c0,0,.47,0,.05-1s1.21-1.58,2-2.22l-1.26-.58-1.5-2.4a90.26,90.26,0,0,1,1.5-13.74,46.9,46.9,0,0,1,2.24-6.93l-1.26-.37s-1.82,5.52-2.24,6.17.42-.65.42-.65-2.52-3.88-2.38-6.11A2.06,2.06,0,0,0,242.23,177.48Z"/><path class="cls-3" d="M230.3,169.13a10.46,10.46,0,0,1-.12-2.08,10.66,10.66,0,1,1,14.27-15.43,9.79,9.79,0,0,1,7.33-1.67,8.21,8.21,0,0,1,3-1.29,8.35,8.35,0,0,1,9.91,6.45,8.47,8.47,0,0,1,.14,2.55,9.33,9.33,0,0,1-1.41,17.18,8.61,8.61,0,0,1-.61,1.11,9.49,9.49,0,0,1-14.67,1.52,10,10,0,1,1-17.85-8.34Z"/><rect id="hidden" class="cls-24" x="325.64" y="191.38" width="81.81" height="113.24"/><rect id="hidden-2" data-name="hidden" class="cls-24" x="156.89" y="187.87" width="84.35" height="116.75"/><g id="sign"><path class="cls-12" d="M350,206.69l-.55,11.76h-1.2l-.55-11.76Zm-.08,16.71h-2.15v-2.74h2.15Z"/></g><g id="sign-2" data-name="sign"><path class="cls-12" d="M222.41,196.16l-.55,11.76h-1.2l-.55-11.76Zm-.07,16.71h-2.16v-2.75h2.16Z"/></g><path class="cls-13" d="M275.87,202s5.12-2.49,6.85,2.21,1.14,4.82,1.14,4.82l-1.93.85.22,7s-7.66,0-8.65-1.63,1.51-8.78,1.51-8.78-1.5-.4-1.49-1.41,1.12-1.26,2.1-.25S275.87,202,275.87,202Z"/><ellipse class="cls-14" cx="280.45" cy="204.63" rx="0.19" ry="0.2"/><path class="cls-15" d="M281.67,202.22s-1.09-4.51-2.29-4.94l-.66.86s-3.74-.72-4.45.36a10.84,10.84,0,0,1-1.84,2s.56,2.8,0,3,3.31,1.86,3.31,1.86l-.26-3.18,2-1,2.6.11Z"/><path class="cls-13" d="M273.5,214.8s-11.2,18.38-10.07,29.7c0,0,16.8,1.41,22.27-2.07,0,0-1-21.9-3.55-25.86C282.15,216.57,275.36,216.47,273.5,214.8Z"/><path class="cls-16" d="M263.35,244.85s8.54,15.39,13.85,27.07l4.44.82s3.5-21.14,3.6-30.08"/><path class="cls-17" d="M277.2,271.92v3.43s5.44,2,8.5,0l-4.06-2.61Z"/><rect class="cls-18" x="273.01" y="202.66" width="3.01" height="1.36" rx="0.49" ry="0.49"/><path class="cls-13" d="M281.41,221s4.72,11.65,7.88,13.45c0,0-11.69-7.55-12.09-15.81"/><polyline class="cls-17" points="288.24 242.74 289.38 234.62 290.88 241.92"/><polygon class="cls-10" points="294.36 241.24 283.27 243.23 280.97 252.35 296.7 250.85 294.36 241.24"/></g><g id="_island3_" data-name="&lt;island3&gt;"><polygon class="cls-10" points="410.78 375.78 410.78 402.68 548.08 482.85 548.08 451.18 448.08 370.22 410.78 375.78"/><polygon class="cls-3" points="574.27 281.33 410.38 375.62 548.08 455.15 712.38 360.7 574.27 281.33"/><polygon class="cls-10" points="712.38 360.7 548.08 455.15 548.08 482.85 712.38 387.6 712.38 360.7"/><polygon class="cls-3" points="583.03 270.98 570.16 279.17 585.37 290.88 601.76 282.69 583.03 270.98"/><polygon class="cls-10" points="570.16 279.17 564.3 300.24 584.2 311.95 585.37 288.54 570.16 279.17"/><polygon class="cls-3" points="601.76 281.51 585.37 286.2 584.2 309.61 604.1 304.93 601.76 281.51"/><polygon class="cls-3" points="546.95 273.91 524.83 281.02 550.11 292.08 564.33 285.76 546.95 273.91"/><polygon class="cls-3" points="550.11 292.08 543.79 352.92 498.75 331.58 524.83 281.02 550.11 292.08"/><polygon class="cls-10" points="564.33 285.76 550.11 292.08 543.79 352.92 569.86 331.58 564.33 285.76"/><polygon class="cls-3" points="605.86 263.37 634.73 274.62 605.42 286.12 584.1 278.21 605.86 263.37"/><polygon class="cls-10" points="605.42 286.12 609.82 362.28 656.83 337.92 634.73 274.62 605.42 286.12"/><polygon class="cls-3" points="584.1 278.21 605.42 286.12 609.82 362.28 577.18 335.58 584.1 278.21"/><polygon class="cls-3" points="560.79 310.78 586.54 310.78 593.57 314.29 557.28 314.29 560.79 310.78"/><rect class="cls-3" x="557.28" y="314.29" width="36.29" height="4.68"/><polygon class="cls-3" points="565.1 290.91 572.5 287.37 576.01 289.71 565.48 294.39 565.1 290.91"/><polygon class="cls-3" points="576.01 289.71 565.48 294.39 565.67 296.87 576.01 292.05 576.01 289.71"/><g id="_trigger_find_road_" data-name="&lt;trigger_find_road&gt;"><polygon class="cls-3" points="542.1 358.13 518.6 362.84 534.96 381.06 558.33 376.75 542.1 358.13"/><polyline class="cls-3" points="536.9 358.99 541.14 368.51 548.73 366.03"/><polyline class="cls-3" points="530.9 376.1 541.08 372.5 544.99 379.01"/><polyline class="cls-3" points="550.87 367.94 544.02 371.75 547.46 378.76"/><polyline class="cls-17" points="533.49 359.94 538.6 369.4 536.2 369.89 524.04 361.75"/><polyline class="cls-17" points="518.6 362.84 532.44 371.7 527.37 372.6"/><path class="cls-13" d="M567,338.62s-6.19-3-8.3,2.68-1.37,5.82-1.37,5.82l2.34,1-.28,8.52s9.28,0,10.48-2S568,344.08,568,344.08s1.81-.49,1.8-1.71-1.35-1.52-2.55-.3S567,338.62,567,338.62Z"/><ellipse class="cls-14" cx="561.44" cy="341.76" rx="0.22" ry="0.25"/><path class="cls-15" d="M560,338.86s1.33-5.46,2.78-6l.8,1s4.52-.87,5.38.44a13,13,0,0,0,2.23,2.43s-.68,3.4,0,3.66-4,2.25-4,2.25l.31-3.84L565,337.65l-3.14.14Z"/><path class="cls-13" d="M569.85,354.07S583.4,376.31,582,390c0,0-20.32,1.7-26.94-2.51,0,0,1.22-26.49,4.28-31.28C559.37,356.22,567.59,356.09,569.85,354.07Z"/><path class="cls-16" d="M582.13,390.43s-10.33,18.62-16.76,32.75l-5.38,1s-4.23-25.57-4.35-36.39"/><path class="cls-17" d="M565.37,423.18v4.15s-6.58,2.45-10.28,0l4.9-3.16Z"/><rect class="cls-18" x="566.79" y="339.39" width="3.65" height="1.65" rx="0.67" ry="0.67" transform="translate(1137.22 680.43) rotate(-180)"/><path class="cls-13" d="M564.27,367.23s-13.8,6.38-18.09,5.36c0,0,16.57,3,23.75-3.95"/><path class="cls-13" d="M495.06,338.7S481.69,360,483,373.06c0,0,20,1.63,26.57-2.4,0,0-1.2-25.32-4.23-29.9C505.38,340.76,497.28,340.64,495.06,338.7Z"/><polygon class="cls-13" points="495.39 339.26 502.75 342.93 503.99 341.09 495.39 339.26"/><path class="cls-13" d="M500.31,346.43s9.68,10.5,13.9,11c0,0-15.92-2.94-19.5-11.69"/><path class="cls-16" d="M482.94,373.46s10.2,17.8,16.54,31.31l5.3.94s4.17-24.44,4.29-34.78"/><line class="cls-25" x1="504.4" y1="359.22" x2="504.52" y2="370.93"/><path class="cls-15" d="M504,329c4.62-1.59,6.19-9.27-6.85-5.69,0,0-2.32-.62-2.33-.58-.29,1.25-2.92,21.52-8,17.23,0,0,5.28,5.47,8.1,3.09l1.72-1.87,7.37-12.07S503.91,329.05,504,329Z"/><path class="cls-13" d="M497,327.34a.13.13,0,0,1,.08-.16c.83-.35,6.55-3.31,8.46,1.62,1.79,4.65,1.86,4.85,1.74,5l-.06,0-2.19.92a.19.19,0,0,0-.09.15l.41,6s-8.19.3-9.37-1.56c-1.09-1.71.24-7.05.64-8.19a.16.16,0,0,0-.09-.2c-.42-.14-1.64-.62-1.63-1.56,0-1.15,1.34-1.44,2.52-.29S497.16,328,497,327.34Z"/><ellipse class="cls-14" cx="502.98" cy="330.76" rx="0.22" ry="0.24"/><path class="cls-17" d="M499.48,404.77v4s6.48,2.34,10.13,0l-4.83-3Z"/><text class="cls-26" transform="matrix(0.91, 0.42, -0.42, 0.91, 573.92, 343.02)">?</text></g><g id="sign-3" data-name="sign"><path class="cls-12" d="M511.53,314.38,511,326.14h-1.2l-.55-11.76Zm-.07,16.71H509.3v-2.74h2.16Z"/></g><rect id="hidden-3" data-name="hidden" class="cls-24" x="460.13" y="300.24" width="138.12" height="128.46"/></g><g id="_island_1_" data-name="&lt;island 1&gt;"><polygon class="cls-3" points="329.65 373.3 211.87 443.38 389.76 542.63 506.95 475.82 329.65 373.3"/><polygon class="cls-10" points="507.53 475.47 389.76 542.63 389.76 572.62 507.73 502.92 507.53 475.47"/><path class="cls-21" d="M223.62,459v-31l138.24-87c-4.27,44.84,27.76,67.25,27.76,67.25L261,475Z"/><path class="cls-10" d="M211.87,443.38v30l177.89,99.26.11-30.13L268.54,474.32c-25.71-13.17-22.47-60.67-22.51-60.14l-34.65-18.91.49,47.73"/><path class="cls-17" d="M362.4,340.52c.3-1.94-6.89,47.86,32,70.45"/><polygon class="cls-3" points="210.81 394.96 331.44 324.49 362.39 340.51 246.03 414.18 230.78 406.07 210.81 394.96"/><g id="_trigger_skate_" data-name="&lt;trigger_skate&gt;"><circle class="cls-17" cx="318.68" cy="389.9" r="2.5"/><circle class="cls-17" cx="329.94" cy="407.41" r="2.5"/><path class="cls-10" d="M332.81,384.62l11.1,15.57a6.56,6.56,0,0,1-2,9.47l-1.26.74a6.56,6.56,0,0,1-8.92-2.25l-13.6-22.31a6.56,6.56,0,0,1,1.79-8.75h0a6.56,6.56,0,0,1,9.39,1.87l3.3,5.31C332.65,384.39,332.73,384.5,332.81,384.62Z"/><path class="cls-27" d="M354,372.6s-15.27,10.69-13.15,14.17,10.72,8.67,14.45,2.32a47.84,47.84,0,0,0,5.09-13.55Z"/><ellipse class="cls-5" cx="359.11" cy="370.57" rx="6.95" ry="6.5" transform="translate(-148.96 460.85) rotate(-55.98)"/><ellipse class="cls-14" cx="357.78" cy="368.32" rx="0.27" ry="0.25" transform="translate(-147.67 458.76) rotate(-55.98)"/><path class="cls-14" d="M352.83,391.48S342.29,396,338,399l-1.41-1,3.71-12.34S347.11,391.17,352.83,391.48Z"/><path class="cls-14" d="M338.22,399.12l-1.44,2.14-3.85-2.6s-1.29-2.6,1.45-2.14,2.36,1.6,2.36,1.6Z"/><path class="cls-27" d="M350.07,379.25s-8.55-5-9.52-6.74,5,10,9.11,9.22"/><path class="cls-10" d="M360.21,362.7s-.22,7.17,2.41,12.17,7.46-2.33,7.88-4.91C371.06,366.49,368.84,359.16,360.21,362.7Z"/><path class="cls-17" d="M362.45,374.89a12.68,12.68,0,0,1-10-2.5"/></g><path class="cls-3" d="M398.52,406.08V420s1.07,2.14,3.21,0V406.08Z"/><path class="cls-3" d="M410.27,413.56v13.88s1.06,2.13,3.2,0V413.56Z"/><path class="cls-3" d="M420.94,418.89v13.88s1.07,2.14,3.2,0V418.89Z"/><path class="cls-3" d="M433.75,425.3v13.88s1.07,2.13,3.2,0V425.3Z"/><g class="cls-2"><path class="cls-5" d="M391.41,398.55a1.08,1.08,0,0,0-1.08.1,3.34,3.34,0,0,0-1.51,2.62,1,1,0,0,0,.44,1l52.67,30.61a1.06,1.06,0,0,1-.44-1,3.29,3.29,0,0,1,1.51-2.61,1.08,1.08,0,0,1,1.08-.11Z"/><path class="cls-5" d="M443,429.26c.83-.48,1.52-.1,1.52.86a3.33,3.33,0,0,1-1.51,2.61c-.84.49-1.52.11-1.52-.86A3.29,3.29,0,0,1,443,429.26Z"/></g><polygon class="cls-10" points="340.34 450.85 406.58 490.64 406.58 473.73 364.6 447.49 347.31 445.87 340.34 450.85"/><polyline class="cls-10" points="412.98 463.78 406.58 472.74 406.58 490.64 422.36 479.27 422.36 465.59"/><polygon class="cls-3" points="357.76 439.4 339.85 450.35 359.75 450.35 376.66 440.4 357.76 439.4"/><polygon class="cls-3" points="359.75 450.35 406.51 476.22 422.43 465.27 376.66 440.4 359.75 450.35"/><g class="cls-2"><polygon class="cls-10" points="312.75 457.57 312.72 471.4 302.19 477.52 302.23 463.68 312.75 457.57"/><path class="cls-10" d="M302.23,463.68l0,13.84-29.91-17.28a23.85,23.85,0,0,1-11.94-20.75h0Z"/><polygon class="cls-3" points="312.75 457.57 302.23 463.68 260.33 439.49 270.86 433.38 312.75 457.57"/></g><path class="cls-13" d="M336.2,419.12s5.12-2.49,6.86,2.22,1.14,4.81,1.14,4.81l-1.94.86.23,7s-7.67,0-8.66-1.63,1.51-8.78,1.51-8.78-1.5-.41-1.49-1.42S335,421,336,422,336.2,419.12,336.2,419.12Z"/><ellipse class="cls-14" cx="340.78" cy="421.72" rx="0.19" ry="0.21"/><path class="cls-15" d="M342,419.32s-1.1-4.52-2.3-4.95l-.66.86s-3.74-.72-4.45.36a10.84,10.84,0,0,1-1.84,2s.56,2.81,0,3,3.31,1.87,3.31,1.87l-.26-3.18,2-1,2.6.11Z"/><path class="cls-13" d="M333.83,431.9s-11.21,18.39-10.08,29.73c0,0,16.81,1.4,22.28-2.08,0,0-1-21.91-3.54-25.88C342.49,433.67,335.69,433.57,333.83,431.9Z"/><path class="cls-16" d="M323.67,462s8.55,15.4,13.86,27.09l4.45.82s3.5-21.15,3.6-30.1"/><path class="cls-17" d="M337.53,489.06v3.43s5.44,2,8.5,0l-4-2.61Z"/><rect class="cls-18" x="333.34" y="419.76" width="3.02" height="1.37" rx="0.49" ry="0.49"/><path class="cls-13" d="M341.75,438.09s4.72,11.66,7.88,13.47c0,0-11.69-7.56-12.1-15.82"/><path class="cls-10" d="M352.43,430.82l-8,25.85a6,6,0,0,0,3.8,7.4h0a5.94,5.94,0,0,0,7.57-3.93l7.78-25.93a5.81,5.81,0,0,0-4.31-7.34h0A5.82,5.82,0,0,0,352.43,430.82Z"/><rect id="hidden-4" data-name="hidden" class="cls-24" x="309.13" y="328.77" width="74.62" height="103.28"/><g id="sign-4" data-name="sign"><path class="cls-12" d="M349.49,347l-.5,10.72H347.9L347.4,347Zm-.06,15.23h-2v-2.5h2Z"/></g><circle class="cls-3" cx="434.6" cy="470.37" r="2.51"/><circle class="cls-3" cx="444.65" cy="479.16" r="2.51"/><path class="cls-3" d="M440.25,461s-10.05-2.52-8.79,5l15.94,13.82a7,7,0,0,0,8,.89c2-1.12,3.61-3,2.43-5.91Z"/><path class="cls-3" d="M450.74,441.12s-6.71,17.49-3,19.2,13.79,1.19,13.33-6.19A47.67,47.67,0,0,0,457.71,440Z"/><ellipse class="cls-5" cx="453.87" cy="436.55" rx="6.53" ry="6.98"/><ellipse class="cls-14" cx="451.84" cy="433.68" rx="0.26" ry="0.27"/><path class="cls-14" d="M460.4,457.49s-6.26,9.66-8.13,14.57h-1.71l-3.85-12.36S455.46,460.45,460.4,457.49Z"/><path class="cls-14" d="M452.53,472.06v2.6h-4.66s-2.54-1.44,0-2.6,2.86,0,2.86,0Z"/><path class="cls-3" d="M451.58,445.66s-7.54-6.47-8.17-8.39,3.08,10.78,7.31,10.77"/><polygon class="cls-16" points="452.09 429.57 453.87 426.9 461.71 429.57 464.83 436.55 463.39 440.33 457.65 440.17 457.65 436.55 454.61 432.64 452.09 429.57"/><polygon class="cls-10" points="447.9 460.99 452.19 462.83 451.58 467.34 450.03 467.86 447.9 460.99"/><path class="cls-3" d="M449.67,427.66l13.82,10s5-6.29-1.25-12.57S449.67,427.66,449.67,427.66Z"/><path class="cls-28" d="M338.4,311.36v22.42a1.76,1.76,0,1,1-3.51,0V314.45l-17.84,10.6-3.51,2.09-17.84,10.6-3.51,2.08-20,11.87-3.51,2.08-20,11.87-3.51,2.08-13.05,7.77,13.05,7.17,3.51,1.93,2.28,1.25a1.77,1.77,0,0,1,.9,1.54v17.09a1.76,1.76,0,0,1-3.51,0V388.42l-17.84-9.81v15.12a1.76,1.76,0,1,1-3.51,0V375.64a1.75,1.75,0,0,1,.82-1.48,1.7,1.7,0,0,1,.57-.56l107.32-63.75a1.8,1.8,0,0,1,1.77,0A1.77,1.77,0,0,1,338.4,311.36Z"/><path class="cls-28" d="M317.05,325.05V346.6a1.76,1.76,0,0,1-3.51,0V327.14Z"/><path class="cls-28" d="M295.7,337.74V359.4a1.76,1.76,0,1,1-3.51,0V339.82Z"/><path class="cls-28" d="M272.22,351.69v20.52a1.76,1.76,0,0,1-3.51,0V353.77Z"/><polygon class="cls-28" points="248.73 365.64 248.73 384.59 245.22 382.66 245.22 367.73 248.73 365.64"/></g></g></g></svg>