<svg id="f8f04ccf-6a3f-48d9-88fd-316ab927d6f5" data-name="圖層 2" xmlns="http://www.w3.org/2000/svg" viewBox="0 0 623.94 473.94"><defs><style>.\38 d15d173-7459-4e3b-85c2-9d123ae6078e{isolation:isolate;}.\31 f063887-e0e2-42b2-87f8-c6bd6e2f043c,.\39 eb6cef0-4398-4533-8cee-37c96185823c{fill:#be2429;}.\31 f063887-e0e2-42b2-87f8-c6bd6e2f043c,.\32 edf9b06-3159-4cc7-af31-d9b449432a48,.\33 7c88669-ab6c-454a-82aa-c7915539076e,.\35 056540b-6960-4dc6-ac34-21c3c16626ba,.\38 29e50f8-aed7-49c0-92a0-0163c3668c7d,.a83c5795-f026-4228-9b6d-25b6c45065f9,.ab231106-dc1a-4b8e-95ca-909001c32665,.ab8fd6f3-4b89-4465-a368-5f25b0f95f81,.c5c65878-241b-4ef1-a706-c1899dccf650,.cb55c91a-88b1-48d8-8011-d49477e7aefb,.e0d610c9-59fc-4b19-85d2-631fc9f237e2,.fd9d1bb4-69cf-4eb9-8e26-ebae692c793f{stroke:#1a1a1a;}.\31 f063887-e0e2-42b2-87f8-c6bd6e2f043c,.\38 29e50f8-aed7-49c0-92a0-0163c3668c7d,.ab7234ee-22a8-401d-a697-3b70bfcaa932,.ab8fd6f3-4b89-4465-a368-5f25b0f95f81,.c5c65878-241b-4ef1-a706-c1899dccf650,.e0d610c9-59fc-4b19-85d2-631fc9f237e2{stroke-linecap:round;}.\31 f063887-e0e2-42b2-87f8-c6bd6e2f043c,.\38 29e50f8-aed7-49c0-92a0-0163c3668c7d,.a83c5795-f026-4228-9b6d-25b6c45065f9,.ab7234ee-22a8-401d-a697-3b70bfcaa932,.ab8fd6f3-4b89-4465-a368-5f25b0f95f81,.c5c65878-241b-4ef1-a706-c1899dccf650,.e0d610c9-59fc-4b19-85d2-631fc9f237e2{stroke-linejoin:round;}.\32 edf9b06-3159-4cc7-af31-d9b449432a48,.\33 7c88669-ab6c-454a-82aa-c7915539076e,.\38 29e50f8-aed7-49c0-92a0-0163c3668c7d,.a83c5795-f026-4228-9b6d-25b6c45065f9,.a89b63b4-8495-4b60-ad94-075503a8ba33,.c5c65878-241b-4ef1-a706-c1899dccf650{fill:#fff;}.\32 edf9b06-3159-4cc7-af31-d9b449432a48,.\33 7c88669-ab6c-454a-82aa-c7915539076e,.\33 b8778d7-fa55-4c32-83cf-039ab46ab054,.\34 eac599a-6d16-4938-a9a7-eff983c406db,.\35 056540b-6960-4dc6-ac34-21c3c16626ba,.a89b63b4-8495-4b60-ad94-075503a8ba33,.ab231106-dc1a-4b8e-95ca-909001c32665,.cb55c91a-88b1-48d8-8011-d49477e7aefb,.fd9d1bb4-69cf-4eb9-8e26-ebae692c793f{stroke-miterlimit:10;}.\34 eac599a-6d16-4938-a9a7-eff983c406db,.\35 056540b-6960-4dc6-ac34-21c3c16626ba,.ab231106-dc1a-4b8e-95ca-909001c32665,.ab7234ee-22a8-401d-a697-3b70bfcaa932,.cb55c91a-88b1-48d8-8011-d49477e7aefb{fill:none;}.\34 eac599a-6d16-4938-a9a7-eff983c406db{stroke:#e6e6e5;stroke-width:0.75px;}.ab8fd6f3-4b89-4465-a368-5f25b0f95f81{fill:#fef4f5;}.\31 e72409c-3d71-45dd-a5ea-1b29cd20fb3a,.\33 b8778d7-fa55-4c32-83cf-039ab46ab054,.e0d610c9-59fc-4b19-85d2-631fc9f237e2,.fd9d1bb4-69cf-4eb9-8e26-ebae692c793f{fill:#1a1a1a;}.a89b63b4-8495-4b60-ad94-075503a8ba33{stroke:#040000;stroke-width:0.8px;}.\32 edf9b06-3159-4cc7-af31-d9b449432a48,.ab231106-dc1a-4b8e-95ca-909001c32665,.c5c65878-241b-4ef1-a706-c1899dccf650,.e0d610c9-59fc-4b19-85d2-631fc9f237e2,.fd9d1bb4-69cf-4eb9-8e26-ebae692c793f{stroke-width:0.8px;}.\33 b8778d7-fa55-4c32-83cf-039ab46ab054{stroke:#191919;stroke-width:0.5px;}.ab7234ee-22a8-401d-a697-3b70bfcaa932{stroke:#be2429;}.ab7234ee-22a8-401d-a697-3b70bfcaa932,.cb55c91a-88b1-48d8-8011-d49477e7aefb{stroke-width:1.5px;}</style></defs><title>大安森林公園</title><g id="12052705-1460-49f8-8a71-d4432169d2a0" data-name="&lt;Island 2&gt;"><g class="8d15d173-7459-4e3b-85c2-9d123ae6078e"><polygon class="1f063887-e0e2-42b2-87f8-c6bd6e2f043c" points="125.2 238.14 125.11 270.75 59.02 232.59 59.12 199.99 125.2 238.14"/><polygon class="1f063887-e0e2-42b2-87f8-c6bd6e2f043c" points="390.36 218.19 390.27 250.8 280.76 314.59 280.85 281.98 390.36 218.19"/><polygon class="1f063887-e0e2-42b2-87f8-c6bd6e2f043c" points="202.44 380.71 202.35 413.31 39.95 319.51 40.04 286.91 202.44 380.71"/><polygon class="1f063887-e0e2-42b2-87f8-c6bd6e2f043c" points="326.18 308.95 326.09 341.55 202.35 413.31 202.44 380.71 326.18 308.95"/><polygon class="37c88669-ab6c-454a-82aa-c7915539076e" points="390.36 218.19 280.85 281.98 326.18 308.95 202.44 380.71 40.04 286.91 125.2 238.14 59.12 199.99 208.48 113.18 390.36 218.19"/></g><path class="37c88669-ab6c-454a-82aa-c7915539076e" d="M278,223.66c-13.17,7.72-31.36,12.49-51.45,12.49-40.19,0-72.76-19.08-72.76-42.62,0-11.43,7.67-21.8,20.16-29.45"/><path class="37c88669-ab6c-454a-82aa-c7915539076e" d="M158.75,207c3.74-7.33,10.19-13,17.12-17.23"/><path class="37c88669-ab6c-454a-82aa-c7915539076e" d="M187.36,229.7c-4.45-3.17-8.39-7.77-8.92-13.41-.71-7.55,4.89-13.66,10.91-17.33"/><path class="37c88669-ab6c-454a-82aa-c7915539076e" d="M246,231.39a46.46,46.46,0,0,1-10.51,4.42"/><path class="37c88669-ab6c-454a-82aa-c7915539076e" d="M175.47,169.36l-.4,21.52,75.82,42.82s18-2.29,24.52-11.93Z"/><path class="37c88669-ab6c-454a-82aa-c7915539076e" d="M209.56,96.89l-19.14-10.7c-32.13,9.88-49,49.68-49,74.45l21,11.6"/><path class="1f063887-e0e2-42b2-87f8-c6bd6e2f043c" d="M162.37,172.24S158.51,120,209.56,96.89l-1,41.29Z"/><path class="37c88669-ab6c-454a-82aa-c7915539076e" d="M201,129.59s-29.71,11.24-25.53,39.77c0,0,100.82,55.74,99,56.45s-6.4-28.42,21.64-40.91Z"/><path class="37c88669-ab6c-454a-82aa-c7915539076e" d="M184.72,173.84s-4.11-23.12,18.21-34.81"/><path class="37c88669-ab6c-454a-82aa-c7915539076e" d="M194,179.8s-4.11-23.12,18.21-34.82"/><path class="37c88669-ab6c-454a-82aa-c7915539076e" d="M203.23,184.73s-4.12-23.12,18.2-34.82"/><path class="37c88669-ab6c-454a-82aa-c7915539076e" d="M212.48,189.94s-4.11-23.12,18.2-34.82"/><path class="37c88669-ab6c-454a-82aa-c7915539076e" d="M221.73,195.33s-4.11-23.11,18.21-34.81"/><path class="37c88669-ab6c-454a-82aa-c7915539076e" d="M231,200.54s-4.11-23.11,18.21-34.81"/><path class="37c88669-ab6c-454a-82aa-c7915539076e" d="M240.23,205.75s-4.11-23.11,18.21-34.81"/><path class="37c88669-ab6c-454a-82aa-c7915539076e" d="M249.49,210.87s-4.12-23.12,18.2-34.81"/><path class="37c88669-ab6c-454a-82aa-c7915539076e" d="M258.74,215.43s-4.11-23.12,18.2-34.82"/><g class="8d15d173-7459-4e3b-85c2-9d123ae6078e"><polygon class="37c88669-ab6c-454a-82aa-c7915539076e" points="308.07 169.71 308.05 177.32 287.98 188.98 288 181.38 308.07 169.71"/><polygon class="1f063887-e0e2-42b2-87f8-c6bd6e2f043c" points="288 181.38 287.98 188.98 193.69 134.54 193.71 126.94 288 181.38"/><polygon class="37c88669-ab6c-454a-82aa-c7915539076e" points="308.07 169.71 288 181.38 193.71 126.94 213.78 115.27 308.07 169.71"/></g><path class="37c88669-ab6c-454a-82aa-c7915539076e" d="M333.72,168.45l-21.48-12c-32.13,9.89-46.71,52.3-46.71,77.07l22.47,13"/><path class="1f063887-e0e2-42b2-87f8-c6bd6e2f043c" d="M288,246.5s-5.34-54.94,45.72-78.05l-1.11,51.69Z"/><g id="d686d3e4-07e1-4c54-ad1d-d0a90de32438" data-name="&lt;trigger_raining&gt;"><path class="37c88669-ab6c-454a-82aa-c7915539076e" d="M307,61.53a17.54,17.54,0,0,0-6.3,1.17,29.48,29.48,0,0,0-47.41-5.3,20.73,20.73,0,1,0-20.24,34.15,13,13,0,0,0,21.07,6.52A29.51,29.51,0,0,0,298.69,95,17.77,17.77,0,1,0,307,61.53Z"/><path class="37c88669-ab6c-454a-82aa-c7915539076e" d="M222.82,69.74s.88,11.31,9.84,14.12"/><path class="37c88669-ab6c-454a-82aa-c7915539076e" d="M258.43,94.57s6.79,7.6,16,7.6"/><line class="37c88669-ab6c-454a-82aa-c7915539076e" x1="236.08" y1="109.32" x2="225.29" y2="125.11"/><line class="37c88669-ab6c-454a-82aa-c7915539076e" x1="256.26" y1="111.9" x2="240.58" y2="134.83"/><line class="37c88669-ab6c-454a-82aa-c7915539076e" x1="256.26" y1="119.46" x2="240.58" y2="142.38"/><line class="37c88669-ab6c-454a-82aa-c7915539076e" x1="227.49" y1="105.21" x2="200.3" y2="144.98"/><line class="37c88669-ab6c-454a-82aa-c7915539076e" x1="268.05" y1="126.4" x2="248.81" y2="154.54"/><line class="37c88669-ab6c-454a-82aa-c7915539076e" x1="301.6" y1="109.32" x2="274.4" y2="149.1"/><rect id="a8329a46-f7e0-414a-bce0-3571adad5dcd" data-name="hidden" class="4eac599a-6d16-4938-a9a7-eff983c406db" x="202.7" y="37.81" width="116.52" height="96.74"/><g id="02c4991a-46ee-4861-9296-c1401caf096b" data-name="sign"><path class="9eb6cef0-4398-4533-8cee-37c96185823c" d="M251.87,62.6l-.47,10.05h-1l-.46-10.05Zm-.06,14.28H250V74.53h1.84Z"/></g></g><g id="a483d7a4-c79a-46db-a4fb-713a16801d55" data-name="tree"><path class="ab8fd6f3-4b89-4465-a368-5f25b0f95f81" d="M301.61,225.05s1.06,12.48,0,14.47-1.81,10.85-1.81,10.85-1.25,5.49-6.81,6.34l3.86.16,5.23-2.11,2.16,1.21v1.37s2,1.39,2.86.69a20.41,20.41,0,0,1-1.34-2.6c-.51-1.24-.6-.67-.6-.67s3.45.18,4.46-.59l-1.51-.7-1.8-2.88a108.47,108.47,0,0,1,1.8-16.49s1.51-6.08,2.69-8.32l-1.51-.44s-2.19,6.62-2.69,7.41.5-.79.5-.79-3-4.65-2.86-7.32A2.43,2.43,0,0,0,301.61,225.05Z"/><path class="829e50f8-aed7-49c0-92a0-0163c3668c7d" d="M328.85,215a12.3,12.3,0,0,0,.15-2.49A12.8,12.8,0,1,0,311.87,194a11.67,11.67,0,0,0-4.39-1.92,11.51,11.51,0,0,0-4.41-.08,10.15,10.15,0,0,0-3.62-1.56,10,10,0,0,0-11.89,7.75,9.91,9.91,0,0,0-.17,3.06,11.19,11.19,0,0,0,1.69,20.62,10.9,10.9,0,0,0,.74,1.33A11.4,11.4,0,0,0,307.43,225a11.94,11.94,0,1,0,21.42-10Z"/></g><g id="9f7f6c5e-2015-4f0f-a913-1afe03617fb8" data-name="tree"><path class="ab8fd6f3-4b89-4465-a368-5f25b0f95f81" d="M66.58,256.89s-1.06,12.48,0,14.47,1.81,10.86,1.81,10.86,1.25,5.48,6.8,6.34l-3.85.16-5.23-2.11-2.17,1.21v1.37s-2,1.38-2.85.69a21.23,21.23,0,0,0,1.34-2.6c.5-1.24.59-.67.59-.67s-3.45.18-4.46-.59l1.52-.7,1.8-2.88A108.35,108.35,0,0,0,60.08,266s-1.52-6.08-2.69-8.32l1.51-.44s2.19,6.62,2.69,7.4-.5-.78-.5-.78,3-4.66,2.85-7.33A2.48,2.48,0,0,1,66.58,256.89Z"/><path class="829e50f8-aed7-49c0-92a0-0163c3668c7d" d="M39.34,246.87a11.65,11.65,0,0,1-.15-2.49,12.8,12.8,0,1,1,17.13-18.53,11.74,11.74,0,0,1,8.79-2,10,10,0,0,1,15.52,6.2,10.23,10.23,0,0,1,.17,3.06,11.2,11.2,0,0,1-1.69,20.62,12.43,12.43,0,0,1-.74,1.33,11.4,11.4,0,0,1-17.61,1.83,11.95,11.95,0,1,1-21.42-10Z"/></g><g id="43ab5446-bb1d-47bc-8fe0-e35a74931876" data-name="tree"><path class="ab8fd6f3-4b89-4465-a368-5f25b0f95f81" d="M129.68,139s1.14,13.37,0,15.5-1.93,11.63-1.93,11.63-1.34,5.88-7.3,6.8l4.13.17,5.61-2.27,2.32,1.3v1.47s2.16,1.48,3.06.74a22.34,22.34,0,0,1-1.44-2.79c-.54-1.32-.64-.72-.64-.72s3.7.2,4.78-.62l-1.62-.75-1.93-3.09s-.85-3.78.95-13.29c0,0,4.27-7.88,5.53-10.28l-3.29-3.49s-2.34,7.09-2.88,7.94l.54-.85s-3.24-5-3.06-7.84A2.65,2.65,0,0,0,129.68,139Z"/></g><path class="829e50f8-aed7-49c0-92a0-0163c3668c7d" d="M111.93,137.73a11.9,11.9,0,0,0,11.78,4.32,7.14,7.14,0,0,0,13.93,1.14l.11,0a16.67,16.67,0,0,0,11.15-2.6,9.53,9.53,0,1,0,7.21-17.31,16.67,16.67,0,0,0-3.63-7.45,11.3,11.3,0,0,0-22.43-2.75l-.22.16a5.86,5.86,0,0,0-2.14-.69,6,6,0,0,0-6.63,5.19,6.12,6.12,0,0,0,0,.74,11.89,11.89,0,0,0-9.09,19.23Z"/><g id="e0354deb-af22-4921-9aa7-f799a27d9a24" data-name="tree"><path class="ab8fd6f3-4b89-4465-a368-5f25b0f95f81" d="M121.49,224.25s1.11,13,0,15.1-1.89,11.33-1.89,11.33-1.3,5.73-7.1,6.62l4,.17,5.46-2.21,2.26,1.27V258s2.11,1.45,3,.73a23.18,23.18,0,0,1-1.4-2.72c-.53-1.29-.62-.7-.62-.7s3.6.19,4.66-.61l-1.58-.73-1.88-3a112.22,112.22,0,0,1,1.88-17.21s1.58-6.35,2.8-8.69l-1.58-.45s-2.28,6.9-2.8,7.72.52-.82.52-.82-3.15-4.85-3-7.64A2.57,2.57,0,0,0,121.49,224.25Z"/><path class="829e50f8-aed7-49c0-92a0-0163c3668c7d" d="M149.93,213.78a12.6,12.6,0,0,0,.15-2.59,13.36,13.36,0,1,0-17.88-19.34,12.2,12.2,0,0,0-9.18-2.09,10.25,10.25,0,0,0-3.78-1.62,10.48,10.48,0,0,0-12.42,8.08,10.84,10.84,0,0,0-.17,3.2,11.68,11.68,0,0,0,1.76,21.52,13.55,13.55,0,0,0,.77,1.39,11.88,11.88,0,0,0,18.39,1.91,12.47,12.47,0,1,0,22.36-10.46Z"/></g><path class="829e50f8-aed7-49c0-92a0-0163c3668c7d" d="M206.72,261.72c-15.53-12.9-50.29-27.9-70.92-4.09-28.54,32.93,5.8,49.71,31.28,53.33,8.56,1.22,19.1,10.17,29.63,13.09,14.68,4.07,29.35-1.82,38.65-3.57,12.55-2.38,21.21-14.27,12.54-25.75C228.19,268.64,206.72,261.72,206.72,261.72Z"/><path class="829e50f8-aed7-49c0-92a0-0163c3668c7d" d="M118.39,269.27c0,3.76-4.18,4.5-9.35,4.5s-9.35-.74-9.35-4.5,4.19-9.11,9.35-9.11S118.39,265.52,118.39,269.27Z"/><path class="829e50f8-aed7-49c0-92a0-0163c3668c7d" d="M122.1,275.31c0,2.71-3,4.9-6.73,4.9s-6.73-2.19-6.73-4.9,3-6.56,6.73-6.56S122.1,272.61,122.1,275.31Z"/><path class="829e50f8-aed7-49c0-92a0-0163c3668c7d" d="M266.85,308.74c0,2.7-3,4.89-6.74,4.89s-6.73-2.19-6.73-4.89,3-6.56,6.73-6.56S266.85,306,266.85,308.74Z"/><path class="1f063887-e0e2-42b2-87f8-c6bd6e2f043c" d="M260.83,280.35v10.07s.72,1.44,2.16,0V278.2l-2.88,1.43Z"/><path class="1f063887-e0e2-42b2-87f8-c6bd6e2f043c" d="M268,276.16v10.58s.76,1.52,2.27,0V275.21l-3,.19Z"/><path class="1f063887-e0e2-42b2-87f8-c6bd6e2f043c" d="M241.49,269.07v10.07s.72,1.44,2.15,0V266.92l-2.87,1.43Z"/><path class="1f063887-e0e2-42b2-87f8-c6bd6e2f043c" d="M253.1,265.4l-2-.75,2.54-6.44a.3.3,0,0,1,.58.06l2.45-.1Z"/><polygon class="1f063887-e0e2-42b2-87f8-c6bd6e2f043c" points="267.04 273.36 265.06 272.62 268.06 263.18 270.06 265.18 267.04 273.36"/><g class="8d15d173-7459-4e3b-85c2-9d123ae6078e"><polygon class="a83c5795-f026-4228-9b6d-25b6c45065f9" points="268.52 278.73 245.14 265.14 245.13 262.44 268.51 276.03 268.52 278.73"/><polygon class="a83c5795-f026-4228-9b6d-25b6c45065f9" points="268.51 276.03 245.13 262.44 247.49 261.08 270.87 274.67 268.51 276.03"/><polygon class="a83c5795-f026-4228-9b6d-25b6c45065f9" points="270.87 274.67 270.88 277.37 268.52 278.73 268.51 276.03 270.87 274.67"/></g><g class="8d15d173-7459-4e3b-85c2-9d123ae6078e"><polygon class="a83c5795-f026-4228-9b6d-25b6c45065f9" points="263.54 281.39 240.16 267.8 240.15 265.09 263.53 278.68 263.54 281.39"/><polygon class="a83c5795-f026-4228-9b6d-25b6c45065f9" points="263.53 278.68 240.15 265.09 242.51 263.73 265.89 277.32 263.53 278.68"/><polygon class="a83c5795-f026-4228-9b6d-25b6c45065f9" points="265.89 277.32 265.9 280.03 263.54 281.39 263.53 278.68 265.89 277.32"/></g><g class="8d15d173-7459-4e3b-85c2-9d123ae6078e"><polygon class="a83c5795-f026-4228-9b6d-25b6c45065f9" points="274.37 266.91 250.98 253.32 253.06 252.65 276.44 266.24 274.37 266.91"/><polygon class="a83c5795-f026-4228-9b6d-25b6c45065f9" points="273.92 269.55 250.53 255.96 250.98 253.32 274.37 266.91 273.92 269.55"/><polygon class="a83c5795-f026-4228-9b6d-25b6c45065f9" points="274.37 266.91 276.44 266.24 275.99 268.88 273.92 269.55 274.37 266.91"/></g><g class="8d15d173-7459-4e3b-85c2-9d123ae6078e"><polygon class="a83c5795-f026-4228-9b6d-25b6c45065f9" points="276.03 260.93 252.65 247.34 254.72 246.67 278.1 260.26 276.03 260.93"/><polygon class="a83c5795-f026-4228-9b6d-25b6c45065f9" points="275.58 263.57 252.2 249.98 252.65 247.34 276.03 260.93 275.58 263.57"/><polygon class="a83c5795-f026-4228-9b6d-25b6c45065f9" points="276.03 260.93 278.1 260.26 277.65 262.9 275.58 263.57 276.03 260.93"/></g><path class="829e50f8-aed7-49c0-92a0-0163c3668c7d" d="M182.25,338.51a18.25,18.25,0,0,0-1.66,5.55c-.71.55-1.42,1.11-2.14,1.64.62.16,1.25.28,1.89.38.08-.67.17-1.34.25-2"/><path class="829e50f8-aed7-49c0-92a0-0163c3668c7d" d="M188.21,340c-.27,1.77-.49,3.55-.69,5.32l-2.12.83c.63.4,1.26.79,1.89,1.2.08-.68.15-1.35.23-2"/><path class="829e50f8-aed7-49c0-92a0-0163c3668c7d" d="M179.85,332.72c-2.71-1.68-2-2.65-5.15-5.07-1.44-1.1-8-1.17-6,4.3.21.61-.51,3.26-.46,4.46s3.55-1.51,4.5-2.72,2.32-.16,3.22,1.58a17.15,17.15,0,0,0,3.33,5c2.44,2.95,12.27,3.37,16.25.47-.38.06-1-.35-1.48-.47,1.34-.08,3.72.18,4.49-1.11.22-.38-2.47-.6-3.95-1.58-1.2-.79-5.77-4.92-7.89-6.28C184.07,329.58,181,329.36,179.85,332.72Z"/><path class="1e72409c-3d71-45dd-a5ea-1b29cd20fb3a" d="M172,330a.56.56,0,0,1,.17.78.55.55,0,0,1-.78.15.57.57,0,0,1-.17-.78A.54.54,0,0,1,172,330Z"/><path class="829e50f8-aed7-49c0-92a0-0163c3668c7d" d="M168.71,333a4,4,0,0,1,4.34,1"/><path class="829e50f8-aed7-49c0-92a0-0163c3668c7d" d="M230.39,259.49c.15,1.64.33,3.28.48,4.93.72.59,1.45,1.16,2.18,1.74l-2,.22-.18-2"/><path class="829e50f8-aed7-49c0-92a0-0163c3668c7d" d="M223.46,260.15c.15,1.7.3,3.39.44,5.09.69.35,1.39,1.67,2.09,2-.64.36-1.27-.28-1.91.08-.05-.69-.12-1.38-.18-2.07"/><path class="829e50f8-aed7-49c0-92a0-0163c3668c7d" d="M230.75,254.4c-1.75-2.47-2.09-1.92-4.57-5-1.13-1.4-.12-8.23,5.25-5.49a11.21,11.21,0,0,0,4.52.4c1.65-.21-1.82,3.47-3.58,3.94s-1.17,2.38.7,3.75c2.46,1.8,7.7,4.79,2.7,8.49s-13.79,2.19-19.53-.36c.41-.16,1.06-.34,1.52-.5a6.88,6.88,0,0,1-4.46-1.33c-.29-.26,2.06-.43,3.54-1,1.2-.44,6.15-2.8,8-3.42C227.19,253.14,228.6,253.65,230.75,254.4Z"/><path class="1e72409c-3d71-45dd-a5ea-1b29cd20fb3a" d="M228.88,246.94a.54.54,0,0,0,.72.32.59.59,0,0,0,.34-.75.52.52,0,0,0-.71-.32A.6.6,0,0,0,228.88,246.94Z"/><path class="829e50f8-aed7-49c0-92a0-0163c3668c7d" d="M232.53,244.28a3.81,3.81,0,0,0-.13,4.52"/><path class="829e50f8-aed7-49c0-92a0-0163c3668c7d" d="M153,326.4c.15,1.79.16,3.58.22,5.37.53.75,1.08,1.49,1.62,2.24-.55-.07-1.09-.12-1.64-.15,0-.7,0-1.39,0-2.09"/><path class="829e50f8-aed7-49c0-92a0-0163c3668c7d" d="M148.88,327.41c-.41,1.54-.81,3.09-1.16,4.64.45.69.78,1.44,1.29,2.09-.56,0-1.09-.18-1.65-.15.11-.65.22-1.3.36-1.94"/><path class="829e50f8-aed7-49c0-92a0-0163c3668c7d" d="M156.74,322.18c2.68-2.14.64-4.2,3.49-7,1.3-1.29,7.12-1.37,6.45,3.3-.07.52,2.25,2.61,1.55,3.73s-3.77-1.07-5.12-1.38-1.86,1-2.83,2.74c-1.27,2.21.2,4.74-4,5.45s-9.71.43-13.65-2.66l1.48-.1c-1.18-.69-3.87-.67-3.75-2.6,0-.56,2.78-.07,4.29-.29s5.78-2.67,7.7-3.32C154.67,319.23,156.06,320,156.74,322.18Z"/><path class="1e72409c-3d71-45dd-a5ea-1b29cd20fb3a" d="M162.92,317.07a.52.52,0,0,0,.09.77.54.54,0,0,0,.78-.06.51.51,0,0,0-.09-.77A.54.54,0,0,0,162.92,317.07Z"/><path class="829e50f8-aed7-49c0-92a0-0163c3668c7d" d="M167,319a4.67,4.67,0,0,0-3.82,2.13"/><g id="3e082929-dbc1-4fd3-ae8f-7798adde3621" data-name="child"><path class="a89b63b4-8495-4b60-ad94-075503a8ba33" d="M222.46,309.91s-8.41,21.94-3.74,24.09,17.32,1.49,16.74-7.77a60.11,60.11,0,0,0-4.24-17.76Z"/><ellipse class="a89b63b4-8495-4b60-ad94-075503a8ba33" cx="226.4" cy="304.17" rx="8.2" ry="8.76" transform="translate(-113.42 135.94) rotate(-27)"/><ellipse class="a89b63b4-8495-4b60-ad94-075503a8ba33" cx="222.31" cy="302.1" rx="0.32" ry="0.34"/><path class="a89b63b4-8495-4b60-ad94-075503a8ba33" d="M234.59,330.45s-7.85,12.12-10.2,18.29h-2.15l-4.83-15.52S228.39,334.17,234.59,330.45Z"/><path class="a89b63b4-8495-4b60-ad94-075503a8ba33" d="M224.71,348.74V352h-5.85s-3.19-1.8,0-3.25,3.6,0,3.6,0Z"/><path class="a89b63b4-8495-4b60-ad94-075503a8ba33" d="M223,319.23s-3.88,11.84-5.8,13.5,11-8.76,9-13.65"/></g><path class="fd9d1bb4-69cf-4eb9-8e26-ebae692c793f" d="M220.7,297.63s1.85-7.28,3.87-8l1.12,1.39s6.3-1.16,7.49.59a17.39,17.39,0,0,0,3.12,3.24s-1,4.53,0,4.88-2.52,4.53-2.52,4.53l-2.63-6.65L227.79,296l-4.38.18Z"/><circle class="1e72409c-3d71-45dd-a5ea-1b29cd20fb3a" cx="160.36" cy="339.29" r="1"/><circle class="1e72409c-3d71-45dd-a5ea-1b29cd20fb3a" cx="166.36" cy="345.29" r="1"/><circle class="1e72409c-3d71-45dd-a5ea-1b29cd20fb3a" cx="164.36" cy="336.22" r="1"/><circle class="1e72409c-3d71-45dd-a5ea-1b29cd20fb3a" cx="166.16" cy="342.22" r="1"/><g id="75075a6c-13fd-4bcf-885e-7f766abc75c1" data-name="&lt;trigger_bird_singing&gt;"><rect id="22127ad1-fc08-4f99-8deb-c6934c8a3fac" data-name="hidden" class="4eac599a-6d16-4938-a9a7-eff983c406db" x="111.89" y="85.78" width="51.06" height="59.44"/><g id="32b12ece-10be-4446-b145-7833846e20fc" data-name="sign"><path class="9eb6cef0-4398-4533-8cee-37c96185823c" d="M127,95.33l-.46,10h-1l-.47-10Zm-.06,14.28H125.1v-2.35h1.84Z"/></g><polygon class="3b8778d7-fa55-4c32-83cf-039ab46ab054" points="137.59 125.79 140.03 129.59 138.19 129.59 140.28 129.93 141.63 130.82 140.81 129.83 142.72 130.24 140.49 129.38 137.96 125.47 137.42 125.59 137.59 125.79"/><polygon class="3b8778d7-fa55-4c32-83cf-039ab46ab054" points="135.81 126.12 138.25 129.92 136.41 129.92 138.51 130.25 139.85 131.15 139.04 130.16 140.94 130.57 138.71 129.7 136.18 125.8 135.64 125.92 135.81 126.12"/><path class="37c88669-ab6c-454a-82aa-c7915539076e" d="M145.27,114.39s-2.3-2.9-6.31,2.17-5.49,3.79-5.49,3.79-5.6-.85-6.88-.39,0,.4,0,.4v.36l.4.53,4.35,1s-.08.74,1.3,1,.28.17.28.17a4.21,4.21,0,0,0,3.25,2.59c2.43.33,3.24,1.46,5,.94s4.21-5.13,4.14-7.52.26-2.83.26-2.83,1.34-1.12,1.89-1.09-1.81-.52-1.81-.52Z"/><circle class="1e72409c-3d71-45dd-a5ea-1b29cd20fb3a" cx="142.9" cy="115.96" r="0.46"/></g><g id="d8f1a28a-15b3-4bba-a279-a34f2fc08c23" data-name="&lt;trigger_daan_duck&gt;"><rect id="c90c4725-ce82-4377-86e2-8d1c7e44a8dd" data-name="hidden" class="4eac599a-6d16-4938-a9a7-eff983c406db" x="137.31" y="228.95" width="82.28" height="96.74"/><g id="dbf94053-0d56-4353-a9ff-2ebf5202221d" data-name="sign"><path class="9eb6cef0-4398-4533-8cee-37c96185823c" d="M167.14,259.39l-.47,10.05h-1l-.46-10.05Zm-.06,14.27h-1.84v-2.34h1.84Z"/></g><path class="37c88669-ab6c-454a-82aa-c7915539076e" d="M165.47,284.44a8.85,8.85,0,0,1,1.09-5.29c.71-1.45-1.76-7.54-5.83-3.46a5.17,5.17,0,0,1-3.61,1.92c-2.59.45,2.93,2.38,3.79,2.09s2.46.09.73,3.1c-2.28,3.95-2.19,6.56,1.64,8.56s12.76,2,18-1.09l-1.46-.37a6.43,6.43,0,0,0,4-1.45c.56-.46-.61.06-3-.57-1.95-.51-4.74-2-8.09-3.44A8.88,8.88,0,0,0,165.47,284.44Z"/><circle class="1e72409c-3d71-45dd-a5ea-1b29cd20fb3a" cx="163.01" cy="277.53" r="0.5"/><path class="5056540b-6960-4dc6-ac34-21c3c16626ba" d="M159.8,276.59a3.06,3.06,0,0,1,1.38,3.57"/><path class="37c88669-ab6c-454a-82aa-c7915539076e" d="M182.5,293.24a8.91,8.91,0,0,1,1.1-5.29c.7-1.45-1.76-7.54-5.83-3.46a5.25,5.25,0,0,1-3.62,1.92c-2.58.45,2.93,2.38,3.8,2.09s2.46.09.73,3.1c-2.28,3.95-2.19,6.56,1.64,8.56s12.75,2,18-1.09l-1.46-.37a6.44,6.44,0,0,0,4-1.45c.55-.46-.61.06-3-.57-2-.51-4.74-2-8.1-3.44A8.83,8.83,0,0,0,182.5,293.24Z"/><circle class="1e72409c-3d71-45dd-a5ea-1b29cd20fb3a" cx="180.05" cy="286.33" r="0.5"/><path class="5056540b-6960-4dc6-ac34-21c3c16626ba" d="M176.84,285.39a3.06,3.06,0,0,1,1.37,3.57"/><path class="37c88669-ab6c-454a-82aa-c7915539076e" d="M193.1,282.56a8.92,8.92,0,0,1,1.09-5.28c.71-1.45-1.75-7.54-5.83-3.47a5.11,5.11,0,0,1-3.61,1.92c-2.58.45,2.93,2.38,3.8,2.09s2.46.09.72,3.1c-2.27,4-2.18,6.56,1.64,8.57s12.76,2,18.05-1.1L207.5,288a6.49,6.49,0,0,0,4-1.46c.55-.45-.61.07-3-.56-2-.51-4.74-2-8.1-3.45A8.88,8.88,0,0,0,193.1,282.56Z"/><circle class="1e72409c-3d71-45dd-a5ea-1b29cd20fb3a" cx="190.65" cy="275.65" r="0.5"/><path class="5056540b-6960-4dc6-ac34-21c3c16626ba" d="M187.43,274.72a3.06,3.06,0,0,1,1.38,3.57"/></g><g id="ffc06de9-6c38-4604-bff8-f430011f64e9" data-name="tree"><path class="ab8fd6f3-4b89-4465-a368-5f25b0f95f81" d="M355.39,193.77s1.13,13.37,0,15.5-1.94,11.64-1.94,11.64-1.34,5.88-7.3,6.79l4.14.17,5.6-2.26,2.32,1.29v1.47s2.16,1.49,3.06.75a23.19,23.19,0,0,1-1.44-2.79c-.54-1.33-.64-.72-.64-.72s3.7.19,4.78-.63l-1.62-.75-1.93-3.09s-.85-3.77.95-13.29c0,0,4.28-7.87,5.54-10.27l-3.3-3.49s-2.34,7.09-2.88,7.93l.54-.84s-3.24-5-3.06-7.85A2.63,2.63,0,0,0,355.39,193.77Z"/></g><path class="829e50f8-aed7-49c0-92a0-0163c3668c7d" d="M337.63,192.5a11.91,11.91,0,0,0,11.78,4.33A7.14,7.14,0,0,0,363.34,198h.11a16.54,16.54,0,0,0,11.15-2.6,9.53,9.53,0,1,0,7.21-17.31,16.59,16.59,0,0,0-3.63-7.44,11.3,11.3,0,0,0-22.43-2.75l-.21.16a5.94,5.94,0,0,0-8.78,4.49,6.23,6.23,0,0,0,0,.74,11.9,11.9,0,0,0-9.09,19.23Z"/></g><g id="1339cd75-b558-4a41-b9ce-3b096d2ab770" data-name="&lt;Island 1&gt;"><g class="8d15d173-7459-4e3b-85c2-9d123ae6078e"><polygon class="1f063887-e0e2-42b2-87f8-c6bd6e2f043c" points="590.91 275.58 590.84 300.03 436.97 389.45 437.04 365 590.91 275.58"/><polygon class="1f063887-e0e2-42b2-87f8-c6bd6e2f043c" points="437.04 365 436.97 389.45 326.07 325.43 326.18 308.85 298.66 292.23 298.68 285.12 437.04 365"/><polygon class="37c88669-ab6c-454a-82aa-c7915539076e" points="590.91 275.58 437.04 365 298.68 285.12 452.55 195.7 590.91 275.58"/></g><polygon class="37c88669-ab6c-454a-82aa-c7915539076e" points="439.65 220.46 538.82 277.72 431.21 339.57 332.04 282.32 439.65 220.46"/><g class="8d15d173-7459-4e3b-85c2-9d123ae6078e"><path class="37c88669-ab6c-454a-82aa-c7915539076e" d="M504.4,220.26l-.07,24.36a2.66,2.66,0,0,1-1.55,2.17,8.32,8.32,0,0,1-7.54,0,2.67,2.67,0,0,1-1.58-2.2l.07-24.35a2.7,2.7,0,0,0,1.58,2.2,8.32,8.32,0,0,0,7.54,0A2.66,2.66,0,0,0,504.4,220.26Z"/><path class="37c88669-ab6c-454a-82aa-c7915539076e" d="M502.82,218.06c2.09,1.21,2.1,3.17,0,4.37a8.32,8.32,0,0,1-7.54,0c-2.09-1.21-2.11-3.16,0-4.37A8.28,8.28,0,0,1,502.82,218.06Z"/></g><g class="8d15d173-7459-4e3b-85c2-9d123ae6078e"><path class="37c88669-ab6c-454a-82aa-c7915539076e" d="M502.31,193.82l-.14,25.32a1.63,1.63,0,0,1-.95,1.34,5.13,5.13,0,0,1-4.64,0,1.66,1.66,0,0,1-1-1.35l.14-25.33a1.66,1.66,0,0,0,1,1.36,5.13,5.13,0,0,0,4.64,0A1.64,1.64,0,0,0,502.31,193.82Z"/><ellipse class="37c88669-ab6c-454a-82aa-c7915539076e" cx="499.03" cy="194.51" rx="1.9" ry="3.28" transform="translate(303.11 692.99) rotate(-89.84)"/></g><path class="37c88669-ab6c-454a-82aa-c7915539076e" d="M490.81,209.65l-1.44-1.38,8-8.3L462,193.5l.36-2,37.23,6.81a1,1,0,0,1,.78.68,1,1,0,0,1-.24,1Z"/><polygon class="37c88669-ab6c-454a-82aa-c7915539076e" points="498.81 195.02 465.97 171.25 467.14 169.63 491.33 187.14 488.15 183.78 489.61 182.4 500.12 193.53 498.81 195.02"/><polygon class="37c88669-ab6c-454a-82aa-c7915539076e" points="459.16 164.45 459.77 194.05 492.54 213.79 492.59 184.15 459.16 164.45"/><polygon class="ab7234ee-22a8-401d-a697-3b70bfcaa932" points="467.5 181.09 467.79 195.14 483.34 204.52 483.58 190.55 467.5 181.09"/><ellipse class="cb55c91a-88b1-48d8-8011-d49477e7aefb" cx="471.88" cy="198.69" rx="7.11" ry="3.98"/><path class="5056540b-6960-4dc6-ac34-21c3c16626ba" d="M464.78,198.69s4.45,10.15,3.69,12.47"/><polyline class="5056540b-6960-4dc6-ac34-21c3c16626ba" points="478.99 198.13 477.38 204.93 477.38 209.58"/><line class="5056540b-6960-4dc6-ac34-21c3c16626ba" x1="474.5" y1="202.39" x2="474.5" y2="210.06"/><path class="5056540b-6960-4dc6-ac34-21c3c16626ba" d="M470.35,203.21s1.84,2.17,0,7.47"/><path class="5056540b-6960-4dc6-ac34-21c3c16626ba" d="M466.84,204.42s8,2.07,10.54,0"/><path class="5056540b-6960-4dc6-ac34-21c3c16626ba" d="M467.91,208s6.19,1.48,9.47-1.25"/><polyline class="1f063887-e0e2-42b2-87f8-c6bd6e2f043c" points="468.72 237.36 423.36 264.61 458.06 285.5 503.39 258.02"/><path class="5056540b-6960-4dc6-ac34-21c3c16626ba" d="M453.81,282.73a25.25,25.25,0,0,1-13,3.25c-9.91,0-17.95-4.7-17.95-10.51,0-2.91,2-5.53,5.26-7.44"/><path class="5056540b-6960-4dc6-ac34-21c3c16626ba" d="M476.68,264.61a19,19,0,0,1-9.77,2.45c-7.46,0-13.51-3.54-13.51-7.91,0-2.19,1.52-4.17,4-5.6"/><path class="5056540b-6960-4dc6-ac34-21c3c16626ba" d="M445.71,224l-35.83,20.74c-10.71,6.27-17.34,14.94-17.34,24.51,0,19.15,26.5,34.67,59.18,34.67,16.82,0,32-4.12,42.78-10.72l35-20.92"/><path class="1f063887-e0e2-42b2-87f8-c6bd6e2f043c" d="M411,312.06c0-8-11.08-14.44-24.74-14.44-7.57,0-14.35,2-18.89,5.12L402.49,323C408.81,318.55,411,315.24,411,312.06Z"/><g id="18eb8bfe-847c-4688-84d3-9e4623b37de4" data-name="child"><path class="37c88669-ab6c-454a-82aa-c7915539076e" d="M400.25,267.23s8.64,22.53,3.84,24.73-17.77,1.53-17.18-8a61.86,61.86,0,0,1,4.35-18.22Z"/><ellipse class="37c88669-ab6c-454a-82aa-c7915539076e" cx="395.6" cy="262.44" rx="8.99" ry="8.41" transform="translate(-39.95 451.3) rotate(-57)"/><ellipse class="2edf9b06-3159-4cc7-af31-d9b449432a48" cx="399.81" cy="260.76" rx="0.35" ry="0.33" transform="translate(-36.62 454.07) rotate(-57)"/><path class="2edf9b06-3159-4cc7-af31-d9b449432a48" d="M387.8,288.32s8.06,12.44,10.47,18.77h2.21l5-15.93S394.17,292.13,387.8,288.32Z"/><path class="2edf9b06-3159-4cc7-af31-d9b449432a48" d="M397.94,307.09v3.34h6s3.27-1.85,0-3.34-3.7,0-3.7,0Z"/><path class="37c88669-ab6c-454a-82aa-c7915539076e" d="M400.16,274.25s10.34,7.53,12.94,7.76-14.43-.68-15.67-6"/><polygon class="e0d610c9-59fc-4b19-85d2-631fc9f237e2" points="402.42 256.15 402.37 252.01 392.03 249.4 383.75 254.75 382.65 259.84 388.98 263.69 391.52 259.79 397.55 257.7 402.42 256.15"/></g><g id="9f9fa27c-9110-4f0d-b311-1e0973bc7d91" data-name="&lt;trigger_playing_basketball&gt;"><circle class="1f063887-e0e2-42b2-87f8-c6bd6e2f043c" cx="454.14" cy="226.06" r="7.65"/><path class="5056540b-6960-4dc6-ac34-21c3c16626ba" d="M454.14,218.41A22.19,22.19,0,0,0,456,233.47"/><path class="5056540b-6960-4dc6-ac34-21c3c16626ba" d="M448.38,221s0,5.18,5.35,5c4.38-.12,4.31-6.58,4.31-6.58"/><path class="5056540b-6960-4dc6-ac34-21c3c16626ba" d="M451.3,233.16s.48-3.9,3-4.22a4.26,4.26,0,0,1,4.41,2.88"/><g id="e70fd1bf-9458-4034-9bb2-094f220cec50" data-name="child"><path class="37c88669-ab6c-454a-82aa-c7915539076e" d="M485.16,236.54s-8.24,21.49-3.67,23.59,17,1.46,16.4-7.61a59.23,59.23,0,0,0-4.16-17.39Z"/><ellipse class="37c88669-ab6c-454a-82aa-c7915539076e" cx="489.01" cy="230.92" rx="8.03" ry="8.58"/><circle class="2edf9b06-3159-4cc7-af31-d9b449432a48" cx="485.84" cy="228.08" r="0.35"/><path class="2edf9b06-3159-4cc7-af31-d9b449432a48" d="M497,256.66s-7.7,11.86-10,17.91h-2.1l-4.73-15.2S491,260.3,497,256.66Z"/><path class="2edf9b06-3159-4cc7-af31-d9b449432a48" d="M487.36,274.57v3.18h-5.73s-3.12-1.76,0-3.18,3.52,0,3.52,0Z"/><path class="37c88669-ab6c-454a-82aa-c7915539076e" d="M486.19,242.11s-9.26-8-10-10.31,3.79,13.26,9,13.24"/><polygon class="e0d610c9-59fc-4b19-85d2-631fc9f237e2" points="486.82 222.34 489.01 219.05 498.64 222.34 502.48 230.92 500.72 235.57 493.65 235.36 493.65 230.92 489.91 226.12 486.82 222.34"/></g><path class="ab231106-dc1a-4b8e-95ca-909001c32665" d="M484.39,240.52s3.34-1.54,2.6,2.95-3.47,3.58-3.8,1.57"/><g id="11412c75-771f-4311-b362-7b9d6635bb1c" data-name="child"><path class="a89b63b4-8495-4b60-ad94-075503a8ba33" d="M440.39,224s8.26,21.53,3.68,23.64-17,1.47-16.43-7.62a59.48,59.48,0,0,1,4.16-17.43Z"/><ellipse class="a89b63b4-8495-4b60-ad94-075503a8ba33" cx="436.54" cy="218.41" rx="8.59" ry="8.04" transform="translate(43.74 508.2) rotate(-63)"/><ellipse class="a89b63b4-8495-4b60-ad94-075503a8ba33" cx="440.55" cy="216.37" rx="0.31" ry="0.34"/><path class="a89b63b4-8495-4b60-ad94-075503a8ba33" d="M428.49,244.19s7.71,11.89,10,17.95h2.12l4.73-15.23S434.58,247.84,428.49,244.19Z"/><path class="a89b63b4-8495-4b60-ad94-075503a8ba33" d="M438.19,262.14v3.19h5.74s3.13-1.77,0-3.19-3.53,0-3.53,0Z"/><path class="a89b63b4-8495-4b60-ad94-075503a8ba33" d="M438.84,231.52s12.15,1.37,14.41.33-12.3,6.27-15.84,2.45"/></g><path class="fd9d1bb4-69cf-4eb9-8e26-ebae692c793f" d="M442.12,212s-1.81-7.14-3.8-7.82l-1.09,1.36s-6.18-1.13-7.35.57a17.31,17.31,0,0,1-3.06,3.19s.94,4.44,0,4.78,2.47,4.45,2.47,4.45l2.59-6.53,3.29-1.58,4.3.18Z"/><path class="ab231106-dc1a-4b8e-95ca-909001c32665" d="M435.82,246.66s3.17,12,2.92,15.31"/><path class="ab231106-dc1a-4b8e-95ca-909001c32665" d="M437.17,246.83s3.17,11.95,2.91,15.31"/><rect id="62f8d82d-23d2-4771-86e3-c9e0b90d8371" data-name="hidden" class="4eac599a-6d16-4938-a9a7-eff983c406db" x="419.05" y="176.7" width="88.95" height="99.12"/><g id="3087b17c-6dd9-48f3-81c4-c1c09cc8018f" data-name="sign"><path class="9eb6cef0-4398-4533-8cee-37c96185823c" d="M452.49,195.23,452,205.52H451l-.48-10.29Zm-.07,14.63h-1.88v-2.41h1.88Z"/></g></g></g><g id="6bc81b8f-74f5-419d-bcbc-fa96b3d9f549" data-name="man"><path class="c5c65878-241b-4ef1-a706-c1899dccf650" d="M186.06,160.75s6.33-2.95,8.48,2.62,1.41,5.7,1.41,5.7l-2.39,1,.27,8.34s-9.49,0-10.71-1.94S185,166.09,185,166.09s-1.85-.48-1.84-1.67,1.38-1.49,2.61-.3S186.06,160.75,186.06,160.75Z"/><ellipse class="2edf9b06-3159-4cc7-af31-d9b449432a48" cx="191.72" cy="163.82" rx="0.23" ry="0.24"/><path class="fd9d1bb4-69cf-4eb9-8e26-ebae692c793f" d="M193.24,161s-1.36-5.34-2.84-5.86l-.82,1s-4.62-.86-5.5.42a12.9,12.9,0,0,1-2.29,2.39s.7,3.32,0,3.58,4.1,2.2,4.1,2.2l-.32-3.76L188,159.8l3.21.13Z"/><path class="1f063887-e0e2-42b2-87f8-c6bd6e2f043c" d="M183.12,175.87s-13.87,21.76-12.47,35.18c0,0,20.8,1.66,27.57-2.46,0,0-1.25-25.93-4.39-30.62C193.83,178,185.43,177.85,183.12,175.87Z"/><path class="e0d610c9-59fc-4b19-85d2-631fc9f237e2" d="M170.55,211.45s10.57,18.23,17.15,32.06l5.5,1s4.34-25,4.46-35.62"/><path class="829e50f8-aed7-49c0-92a0-0163c3668c7d" d="M187.7,243.51v4.06s6.73,2.4,10.52,0l-5-3.08Z"/><path class="1f063887-e0e2-42b2-87f8-c6bd6e2f043c" d="M193.69,192.33s5.06,12.08,8.46,13.95c0,0-12.55-7.83-13-16.39"/></g></svg>