<svg xmlns="http://www.w3.org/2000/svg" xmlns:xlink="http://www.w3.org/1999/xlink" viewBox="0 0 563.89 467.28"><defs><style>.cls-1,.cls-21,.cls-31,.cls-33,.cls-35,.cls-6{fill:none;}.cls-2{isolation:isolate;}.cls-10,.cls-26,.cls-3,.cls-30,.cls-32,.cls-34,.cls-8{fill:#c92028;}.cls-21,.cls-22,.cls-23,.cls-24,.cls-25,.cls-27,.cls-28,.cls-29,.cls-3,.cls-30,.cls-32,.cls-33,.cls-34,.cls-35,.cls-4,.cls-5,.cls-6,.cls-7,.cls-8{stroke:#1a1a1a;}.cls-22,.cls-25,.cls-29,.cls-3,.cls-32,.cls-33,.cls-34,.cls-35,.cls-4,.cls-6{stroke-linejoin:round;}.cls-20,.cls-22,.cls-23,.cls-28,.cls-29,.cls-4,.cls-5{fill:#fff;}.cls-20,.cls-21,.cls-23,.cls-24,.cls-27,.cls-28,.cls-30,.cls-31,.cls-5,.cls-7,.cls-8{stroke-miterlimit:10;}.cls-22,.cls-25,.cls-28,.cls-29,.cls-32,.cls-35,.cls-6{stroke-linecap:round;}.cls-11,.cls-24,.cls-25,.cls-7{fill:#1a1a1a;}.cls-9{clip-path:url(#clip-path);}.cls-12{clip-path:url(#clip-path-2);}.cls-13{clip-path:url(#clip-path-3);}.cls-14{clip-path:url(#clip-path-4);}.cls-15{clip-path:url(#clip-path-5);}.cls-16{clip-path:url(#clip-path-6);}.cls-17{clip-path:url(#clip-path-7);}.cls-18{clip-path:url(#clip-path-8);}.cls-19{clip-path:url(#clip-path-9);}.cls-20{stroke:#000;}.cls-22,.cls-23,.cls-24,.cls-25,.cls-27,.cls-30,.cls-34,.cls-35{stroke-width:0.8px;}.cls-26{mix-blend-mode:multiply;}.cls-27{fill:#fff5f6;}.cls-31{stroke:#e6e6e6;stroke-width:0.75px;}</style><clipPath id="clip-path"><polygon class="cls-1" points="224.66 61.13 224.64 53.08 235.7 46.7 235.72 54.75 224.66 61.13"/></clipPath><clipPath id="clip-path-2"><polygon class="cls-1" points="261.22 77.84 261.2 69.8 272.25 63.41 272.27 71.46 261.22 77.84"/></clipPath><clipPath id="clip-path-3"><polygon class="cls-1" points="266.44 112.31 266.42 104.26 277.48 97.87 277.5 105.92 266.44 112.31"/></clipPath><clipPath id="clip-path-4"><polygon class="cls-1" points="255.99 154.07 255.97 146.03 267.03 139.64 267.05 147.69 255.99 154.07"/></clipPath><clipPath id="clip-path-5"><polygon class="cls-1" points="222.58 184.36 222.55 176.31 233.61 169.93 233.64 177.97 222.58 184.36"/></clipPath><clipPath id="clip-path-6"><polygon class="cls-1" points="191.25 95.6 191.22 87.55 202.28 81.16 202.31 89.22 191.25 95.6"/></clipPath><clipPath id="clip-path-7"><polygon class="cls-1" points="173.5 144.68 173.48 136.63 184.54 130.25 184.56 138.29 173.5 144.68"/></clipPath><clipPath id="clip-path-8"><polygon class="cls-1" points="184.98 181.23 184.96 173.18 196.02 166.79 196.04 174.84 184.98 181.23"/></clipPath><clipPath id="clip-path-9"><polygon class="cls-1" points="189.2 267.52 189.23 259.25 232.2 284.06 232.18 292.33 189.2 267.52"/></clipPath></defs><title>美麗華</title><g class="cls-2"><g id="圖層_1" data-name="圖層 1"><g id="_Island_2_" data-name="&lt;Island 2&gt;"><polygon class="cls-3" points="459.03 243.71 458.91 269.02 223.48 410.28 223.48 381.62 276.7 334.53 326.86 296.66 422.06 250.59 459.03 243.71"/><polygon class="cls-3" points="45.37 278.23 45.37 306.89 223.48 410.28 223.48 381.62 165.13 328.39 84.26 288.47 45.37 278.23"/><polygon class="cls-4" points="45.37 278.23 283.36 140.55 459.42 243.94 223.48 381.62 45.37 278.23"/><polygon class="cls-3" points="355.52 170.09 355.52 205.6 284.51 247.37 279.28 202.47 313.75 180.54 344.03 170.09 355.52 170.09"/><line class="cls-5" x1="282.42" y1="222.83" x2="355.52" y2="179.49"/><line class="cls-5" x1="282.42" y1="232.23" x2="355.52" y2="188.89"/><line class="cls-5" x1="282.42" y1="240.58" x2="355.52" y2="197.25"/><line class="cls-5" x1="348.11" y1="174.85" x2="348.11" y2="210.39"/><line class="cls-5" x1="339.75" y1="179.02" x2="339.75" y2="214.57"/><line class="cls-5" x1="331.4" y1="184.25" x2="331.4" y2="219.79"/><line class="cls-5" x1="323.05" y1="189.47" x2="323.05" y2="225.01"/><line class="cls-5" x1="313.65" y1="194.69" x2="313.65" y2="230.23"/><polygon class="cls-4" points="283.46 211.87 234.38 240.06 274.06 284.97 318.97 258.86 283.46 211.87"/><polygon class="cls-3" points="318.97 258.86 318.97 281.83 274.06 307.94 274.06 284.97 318.97 258.86"/><polygon class="cls-5" points="281.37 127.28 160.24 196.2 235.42 240.06 355.52 170.09 281.37 127.28"/><ellipse class="cls-6" cx="210.17" cy="103.31" rx="69.04" ry="41.86" transform="translate(25.28 247.06) rotate(-64.04)"/><line class="cls-7" x1="253.33" y1="53.47" x2="172.39" y2="159.56"/><line class="cls-7" x1="219.76" y1="39.56" x2="210.17" y2="163.19"/><line class="cls-7" x1="180.08" y1="71.93" x2="243.78" y2="130.41"/><line class="cls-7" x1="162.18" y1="124.76" x2="258.39" y2="88.65"/><path class="cls-5" d="M210.36,108.48,175.9,195.16s1,8.35,9.4,5.22l30.28-89.81Z"/><path class="cls-5" d="M215.58,108.48l27.15,61.61s8.36,3.14,8.36-5.22L220.8,105.35"/><ellipse class="cls-8" cx="215.19" cy="103.62" rx="12.52" ry="7.59" transform="translate(27.83 251.74) rotate(-64.04)"/><g class="cls-2"><path class="cls-4" d="M235.55,45.75l-.36-.18a1.25,1.25,0,0,0-.29-.11.19.19,0,0,0-.1,0,1.52,1.52,0,0,0-.38-.11,2.12,2.12,0,0,0-.45-.07,5.69,5.69,0,0,0-2.58.39h0a8.78,8.78,0,0,0-1.36.65,17.09,17.09,0,0,0-7.76,13.43c0,.2,0,.39,0,.6l0,11.33-13.24-7.71L209,52.62a5.8,5.8,0,0,0,0-.59c0-4.94,3.47-11,7.76-13.44,2.16-1.24,4.12-1.36,5.54-.53Z"/><path class="cls-4" d="M237.85,62.66l-15.56,9,0-11.33c0-.21,0-.4,0-.6A17.09,17.09,0,0,1,230,46.29a9.29,9.29,0,0,1,1.36-.65h0a5.69,5.69,0,0,1,2.58-.39l.45.07.38.11a.19.19,0,0,1,.1,0,2,2,0,0,1,.29.11l.36.18c1.4.82,2.26,2.54,2.27,5,0,.2,0,.41,0,.61Z"/></g><g class="cls-2"><g class="cls-9"><path class="cls-10" d="M230.17,50.71A10.58,10.58,0,0,0,225.38,59v.3l0,.42,0,0v.13L235,54.34v-.5c0-.18,0-.28,0-.38,0-3.05-2.17-4.29-4.84-2.75"/><path class="cls-11" d="M225.38,59.9v-.13l0,0,0-.42V59a10.58,10.58,0,0,1,4.79-8.31c2.67-1.54,4.83-.3,4.84,2.75,0,.1,0,.2,0,.38v.5l-9.63,5.56m4.79-10a12.21,12.21,0,0,0-5.51,9.54v1.7l11.05-6.38V53.29a1.93,1.93,0,0,0,0-.24c0-3.5-2.5-4.92-5.55-3.16"/></g></g><g class="cls-2"><path class="cls-4" d="M272.1,62.46l-.36-.18a1.25,1.25,0,0,0-.29-.11.19.19,0,0,0-.1,0A1.19,1.19,0,0,0,271,62a2.12,2.12,0,0,0-.45-.07,5.69,5.69,0,0,0-2.58.39h0a8.37,8.37,0,0,0-1.36.65,17.08,17.08,0,0,0-7.76,13.43c0,.2,0,.39,0,.6l0,11.33L245.6,80.65l0-11.32a5.8,5.8,0,0,0,0-.59c0-4.94,3.47-11,7.76-13.44,2.16-1.25,4.12-1.36,5.54-.54Z"/><path class="cls-4" d="M274.4,79.37l-15.56,9,0-11.33c0-.21,0-.4,0-.6A17.08,17.08,0,0,1,266.57,63a8.83,8.83,0,0,1,1.36-.65h0a5.69,5.69,0,0,1,2.58-.39L271,62a2.72,2.72,0,0,1,.38.11.19.19,0,0,1,.1,0,2,2,0,0,1,.29.11l.36.18c1.4.81,2.26,2.54,2.27,5,0,.2,0,.41,0,.61Z"/></g><g class="cls-2"><g class="cls-12"><path class="cls-10" d="M266.72,67.42a10.59,10.59,0,0,0-4.79,8.32,2.62,2.62,0,0,0,0,.28l0,.42,0,0v.15l9.63-5.56v-.6c0-.1,0-.19,0-.28,0-3.06-2.17-4.3-4.84-2.76"/><path class="cls-11" d="M261.93,76.62v-.15l0,0,0-.42a2.62,2.62,0,0,1,0-.28,10.59,10.59,0,0,1,4.79-8.32c2.67-1.54,4.83-.3,4.84,2.76,0,.09,0,.18,0,.28v.6l-9.63,5.56m4.79-10a12.12,12.12,0,0,0-5.5,9.52v1.71l11-6.38V70a1.85,1.85,0,0,0,0-.23c0-3.51-2.5-4.93-5.55-3.16"/></g></g><g class="cls-2"><path class="cls-4" d="M277.32,96.92l-.35-.18a1.54,1.54,0,0,0-.3-.11.19.19,0,0,0-.1,0,1.52,1.52,0,0,0-.38-.11,2.12,2.12,0,0,0-.45-.07,5.69,5.69,0,0,0-2.58.39h0a9.24,9.24,0,0,0-1.36.65A17.09,17.09,0,0,0,264,110.89c0,.2,0,.39,0,.6l0,11.33-13.24-7.71,0-11.32a5.8,5.8,0,0,0,0-.59c0-4.94,3.46-11,7.75-13.44,2.17-1.24,4.12-1.36,5.54-.53Z"/><path class="cls-4" d="M279.62,113.83l-15.56,9,0-11.33c0-.21,0-.4,0-.6a17.09,17.09,0,0,1,7.76-13.43,9.8,9.8,0,0,1,1.36-.65h0a5.69,5.69,0,0,1,2.58-.39l.45.07.38.11a.19.19,0,0,1,.1,0,2.65,2.65,0,0,1,.3.11l.35.18c1.4.82,2.26,2.54,2.27,5,0,.2,0,.41,0,.61Z"/></g><g class="cls-2"><g class="cls-13"><path class="cls-10" d="M272,101.88a10.59,10.59,0,0,0-4.8,8.32,2.71,2.71,0,0,0,0,.29l0,.42,0,0v.14l9.63-5.56V105c0-.17,0-.28,0-.37,0-3.06-2.17-4.29-4.83-2.76"/><path class="cls-11" d="M267.15,111.08v-.14l0,0,0-.42a2.71,2.71,0,0,1,0-.29,10.59,10.59,0,0,1,4.8-8.32c2.66-1.53,4.82-.3,4.83,2.76,0,.09,0,.2,0,.37v.51l-9.63,5.56m4.8-10a12.1,12.1,0,0,0-5.51,9.53v1.71l11.06-6.39v-1.3l0-.16a2,2,0,0,0,0-.23c0-3.51-2.5-4.92-5.55-3.16"/></g></g><g class="cls-2"><path class="cls-4" d="M266.88,138.69a4,4,0,0,0-.36-.17.93.93,0,0,0-.29-.12.19.19,0,0,0-.1,0,2.11,2.11,0,0,0-.38-.11,2.22,2.22,0,0,0-.45-.07,5.69,5.69,0,0,0-2.58.39h0a9,9,0,0,0-1.37.66,17.09,17.09,0,0,0-7.76,13.43,5.8,5.8,0,0,1,0,.59l0,11.33-13.25-7.71,0-11.32a5.81,5.81,0,0,0,0-.59c0-4.94,3.47-11,7.76-13.44,2.16-1.24,4.12-1.36,5.54-.53Z"/><path class="cls-4" d="M269.18,155.6l-15.56,9,0-11.33a5.8,5.8,0,0,0,0-.59,17.09,17.09,0,0,1,7.76-13.43,9.48,9.48,0,0,1,1.37-.66h0a5.69,5.69,0,0,1,2.58-.39l.45.07.38.11a.19.19,0,0,1,.1,0,1.26,1.26,0,0,1,.29.12,4,4,0,0,1,.36.17c1.4.82,2.25,2.54,2.26,5,0,.2,0,.41,0,.61Z"/></g><g class="cls-2"><g class="cls-14"><path class="cls-10" d="M261.5,143.65a10.64,10.64,0,0,0-4.8,8.32c0,.1,0,.2,0,.29l0,.42,0,0v.14l9.63-5.56v-.51c0-.17,0-.27,0-.38,0-3.05-2.17-4.29-4.84-2.75"/><path class="cls-11" d="M256.71,152.85v-.14l0,0,0-.42c0-.09,0-.19,0-.29a10.64,10.64,0,0,1,4.8-8.32c2.67-1.54,4.83-.3,4.84,2.75,0,.11,0,.21,0,.38v.51l-9.63,5.56m4.79-10a12.21,12.21,0,0,0-5.51,9.54v1.7l11.06-6.38v-1.46a1.77,1.77,0,0,0,0-.23c0-3.51-2.5-4.93-5.55-3.17"/></g></g><g class="cls-2"><path class="cls-4" d="M233.46,169a2.31,2.31,0,0,0-.35-.18l-.3-.12a.19.19,0,0,0-.1,0,1.51,1.51,0,0,0-.38-.1,2.12,2.12,0,0,0-.45-.07,5.67,5.67,0,0,0-2.58.38h0a10.5,10.5,0,0,0-1.36.66A17.08,17.08,0,0,0,220.17,183c0,.2,0,.39,0,.6l0,11.33L207,187.17l0-11.32c0-.21,0-.4,0-.6,0-4.94,3.46-10.95,7.75-13.44,2.17-1.24,4.12-1.35,5.54-.53Z"/><path class="cls-4" d="M235.76,185.88l-15.56,9,0-11.33c0-.21,0-.4,0-.6a17.08,17.08,0,0,1,7.76-13.43,11.22,11.22,0,0,1,1.36-.66h0a5.67,5.67,0,0,1,2.58-.38l.45.07.38.1a.19.19,0,0,1,.1,0l.3.12a2.31,2.31,0,0,1,.35.18c1.4.81,2.26,2.53,2.27,5,0,.2,0,.41,0,.6Z"/></g><g class="cls-2"><g class="cls-15"><path class="cls-10" d="M228.09,173.93a10.6,10.6,0,0,0-4.8,8.32v.29l0,.42,0,0v.14l9.63-5.56v-.51c0-.17,0-.27,0-.37,0-3.05-2.17-4.29-4.83-2.76"/><path class="cls-11" d="M223.29,183.13V183l0,0,0-.42v-.29a10.6,10.6,0,0,1,4.8-8.32c2.66-1.53,4.82-.29,4.83,2.76,0,.1,0,.2,0,.37v.51l-9.63,5.56m4.79-10a12.19,12.19,0,0,0-5.51,9.53v1.71L233.64,178v-1.47a1.85,1.85,0,0,0,0-.23c0-3.51-2.49-4.92-5.55-3.16"/></g></g><g class="cls-2"><path class="cls-4" d="M202.13,80.21l-.35-.17a1.19,1.19,0,0,0-.29-.12l-.11,0a1.41,1.41,0,0,0-.38-.1,1.63,1.63,0,0,0-.44-.08,5.67,5.67,0,0,0-2.58.39s0,0,0,0a9,9,0,0,0-1.37.66,17.09,17.09,0,0,0-7.76,13.43c0,.19,0,.38,0,.59l0,11.33L175.63,98.4l0-11.32a5.81,5.81,0,0,0,0-.59,17.11,17.11,0,0,1,7.76-13.44c2.16-1.24,4.11-1.36,5.53-.53Z"/><path class="cls-4" d="M204.43,97.12l-15.56,9,0-11.33c0-.21,0-.4,0-.59a17.09,17.09,0,0,1,7.76-13.43A9.48,9.48,0,0,1,198,80.1s0,0,0,0a5.67,5.67,0,0,1,2.58-.39,3.39,3.39,0,0,1,.44.08l.38.1.11,0a1.78,1.78,0,0,1,.29.12l.35.17c1.4.82,2.26,2.54,2.27,5,0,.2,0,.41,0,.61Z"/></g><g class="cls-2"><g class="cls-16"><path class="cls-10" d="M196.76,85.17a10.57,10.57,0,0,0-4.8,8.32c0,.1,0,.19,0,.29l0,.42,0,0v.14l9.64-5.57,0-.5c0-.17,0-.27,0-.38,0-3-2.17-4.29-4.83-2.75"/><path class="cls-11" d="M192,94.37v-.14l0,0,0-.42c0-.1,0-.19,0-.29a10.57,10.57,0,0,1,4.8-8.32c2.66-1.54,4.82-.3,4.83,2.75,0,.11,0,.21,0,.38l0,.5L192,94.37m4.79-10a12.21,12.21,0,0,0-5.51,9.54V95.6l11.06-6.38V87.51c0-3.5-2.49-4.92-5.55-3.16"/></g></g><g class="cls-2"><path class="cls-4" d="M184.38,129.29a4,4,0,0,0-.36-.17.93.93,0,0,0-.29-.12.19.19,0,0,0-.1,0,1.51,1.51,0,0,0-.38-.1,1.63,1.63,0,0,0-.45-.08,5.83,5.83,0,0,0-2.58.39h0a9.91,9.91,0,0,0-1.36.66,17.06,17.06,0,0,0-7.76,13.43c0,.2,0,.38,0,.59l0,11.33-13.24-7.7,0-11.32c0-.21,0-.4,0-.6,0-4.94,3.47-10.95,7.76-13.44,2.16-1.24,4.12-1.36,5.54-.53Z"/><path class="cls-4" d="M186.68,146.2l-15.56,9,0-11.33c0-.21,0-.39,0-.59a17.06,17.06,0,0,1,7.76-13.43,10.55,10.55,0,0,1,1.36-.66h0a5.83,5.83,0,0,1,2.58-.39l.45.08.38.1a.19.19,0,0,1,.1,0,2,2,0,0,1,.29.12,4,4,0,0,1,.36.17c1.4.82,2.26,2.54,2.27,5,0,.19,0,.4,0,.6Z"/></g><g class="cls-2"><g class="cls-17"><path class="cls-10" d="M179,134.25a10.64,10.64,0,0,0-4.81,8.32,2.64,2.64,0,0,0,0,.29l0,.43,0,0v.14l9.64-5.57,0-.5c0-.19,0-.29,0-.38,0-3.06-2.19-4.29-4.84-2.76"/><path class="cls-11" d="M174.21,143.46v-.14l0,0,0-.43a2.64,2.64,0,0,1,0-.29,10.64,10.64,0,0,1,4.81-8.32c2.65-1.53,4.83-.3,4.84,2.76,0,.09,0,.19,0,.38l0,.5-9.64,5.57m4.8-10A12.14,12.14,0,0,0,173.5,143v1.71l11.06-6.39V136.6c0-3.51-2.5-4.92-5.54-3.16"/></g></g><g class="cls-2"><path class="cls-4" d="M195.87,165.84a4,4,0,0,0-.36-.17,1,1,0,0,0-.29-.12.19.19,0,0,0-.1,0,1.64,1.64,0,0,0-.38-.1,1.7,1.7,0,0,0-.45-.08,5.83,5.83,0,0,0-2.58.39s0,0,0,0a10,10,0,0,0-1.37.66,17.09,17.09,0,0,0-7.76,13.43c0,.2,0,.38,0,.59l0,11.33L169.36,184l0-11.32c0-.21,0-.4,0-.6,0-4.94,3.47-11,7.76-13.44,2.16-1.24,4.11-1.36,5.53-.53Z"/><path class="cls-4" d="M198.16,182.75l-15.56,9,0-11.33c0-.21,0-.39,0-.59a17.09,17.09,0,0,1,7.76-13.43,10.65,10.65,0,0,1,1.37-.66s0,0,0,0a5.83,5.83,0,0,1,2.58-.39l.45.08.38.1a.19.19,0,0,1,.1,0,2.52,2.52,0,0,1,.29.12,4,4,0,0,1,.36.17c1.4.82,2.25,2.54,2.26,5,0,.19,0,.4,0,.6Z"/></g><g class="cls-2"><g class="cls-18"><path class="cls-10" d="M190.49,170.8a10.61,10.61,0,0,0-4.8,8.32c0,.1,0,.2,0,.29l0,.43,0,0V180l9.64-5.56,0-.5c0-.18,0-.29,0-.38,0-3.06-2.18-4.29-4.84-2.76"/><path class="cls-11" d="M185.69,180v-.14l0,0,0-.43c0-.09,0-.19,0-.29a10.61,10.61,0,0,1,4.8-8.32c2.66-1.53,4.83-.3,4.84,2.76,0,.09,0,.2,0,.38l0,.5L185.69,180m4.8-10a12.19,12.19,0,0,0-5.51,9.53v1.71L196,174.84v-1.46a1.85,1.85,0,0,0,0-.23c0-3.51-2.5-4.92-5.55-3.16"/></g></g><ellipse class="cls-6" cx="231.06" cy="113.76" rx="69.04" ry="41.86" transform="translate(27.64 271.71) rotate(-64.04)"/><line class="cls-7" x1="274.22" y1="63.92" x2="193.27" y2="170"/><line class="cls-7" x1="240.65" y1="50" x2="231.06" y2="173.63"/><line class="cls-7" x1="200.96" y1="82.37" x2="264.66" y2="140.85"/><line class="cls-7" x1="183.06" y1="135.2" x2="279.28" y2="99.09"/><path class="cls-5" d="M231.25,118.92,196.79,205.6s1,8.35,9.39,5.22L236.47,121Z"/><path class="cls-5" d="M236.47,118.92l27.15,61.62s8.35,3.13,8.35-5.22l-30.28-59.53"/><ellipse class="cls-8" cx="236.07" cy="114.07" rx="12.52" ry="7.59" transform="translate(30.18 276.39) rotate(-64.04)"/><polygon class="cls-5" points="163.37 197.25 111.16 226.49 134.13 241.11 185.3 210.82 163.37 197.25"/><polygon class="cls-4" points="203.05 223.35 203.05 251.55 203.05 257.81 263.62 293.32 274.06 281.83 269.89 248.42 228.11 226.49 203.05 223.35"/><polygon class="cls-3" points="203.05 202.47 203.05 232.51 150.84 263.04 145.62 241.11 163.37 213.96 203.05 202.47"/><polygon class="cls-3" points="254.22 267.21 254.22 288.1 235.85 298.73 234.38 267.21 254.22 267.21"/><polygon class="cls-3" points="163.37 180.54 163.37 197.25 111.16 226.49 98.62 235.88 98.62 215 110.11 189.94 163.37 180.54"/><polyline class="cls-4" points="254.22 288.1 254.22 267.21 206.55 239.02 173.81 257.81 222.89 286.01 254.22 267.21"/><polygon class="cls-4" points="263.62 293.32 254.22 288.1 234.38 299.59 234.38 321.52 268.84 307.94 263.62 293.32"/><polygon class="cls-4" points="137.26 164.87 85.05 195.16 111.16 209.78 163.37 180.54 137.26 164.87"/><polygon class="cls-4" points="85.05 195.16 85.05 271.39 228.11 353.89 228.11 278.7 167.55 243.19 167.55 272.44 150.84 263.04 150.84 232.75 134.13 222.31 134.13 240.06 111.16 226.49 111.16 209.78 85.05 195.16"/><polygon class="cls-4" points="134.13 222.31 184.25 192.03 203.05 202.47 150.84 232.75 134.13 222.31"/><polygon class="cls-4" points="167.55 243.19 182.17 233.8 243.78 269.3 228.11 278.7 167.55 243.19"/><polygon class="cls-4" points="203.05 223.35 218.72 212.91 279.28 248.42 263.62 257.81 203.05 223.35"/><polygon class="cls-4" points="243.78 269.3 228.11 278.7 228.11 353.89 279.28 323.61 279.28 248.42 263.62 257.81 263.62 293.32 243.78 305.85 243.78 269.3"/><g class="cls-2"><g class="cls-19"><path d="M195.71,263.05l-1-.56-1.32,3.42a22.7,22.7,0,0,0-.75,2.32l0,0c-.18-1-.41-2-.71-3.17l-1.25-4.9-1-.55-.52,7.93.74.43.21-3.5c.08-1.22.13-2.55.15-3.54l0,0c.2,1.06.47,2.26.81,3.64l1.18,4.72.57.33,1.29-3.38c.35-.94.65-1.79.89-2.58h0c0,.84.06,2.4.11,3.61l.17,3.8.77.45-.43-8.48"/><polyline points="198.68 264.76 197.9 264.31 197.87 272.53 198.65 272.98 198.68 264.76"/><path d="M201.39,270.23v-3.15a5,5,0,0,1,.88.42,3,3,0,0,1,1.67,2.57c0,1-.64,1.26-1.64.69l-.92-.53m.85-3.46a9.62,9.62,0,0,0-1.62-.77l0,8.1.78.45v-3.63l.87.5a3.07,3.07,0,0,1,1.44,2.49,15.27,15.27,0,0,0,.46,2.24l.8.47a19.07,19.07,0,0,1-.52-2.52,4,4,0,0,0-1.05-2.32v0c.77.13,1.34-.24,1.35-1.33a3.61,3.61,0,0,0-.54-1.84,5.09,5.09,0,0,0-2-1.8"/><path d="M207.54,274.73l.73-2.05c.12-.45.26-.89.36-1.33h0c.1.54.22,1.14.36,1.78l.7,2.84-2.17-1.25m1.57-3.94-.9-.52-2.39,6.85.8.46.76-2.23,2.49,1.44.76,3.1.82.48-2.34-9.58"/><path d="M219.16,276.58l-1-.56-1.31,3.42a21.36,21.36,0,0,0-.76,2.32h0c-.19-1-.42-2-.72-3.17l-1.24-4.9-1-.55-.52,7.93.74.42.21-3.49c.06-1.23.13-2.55.15-3.54h0c.2,1.06.47,2.26.81,3.64l1.18,4.73.58.33,1.29-3.39c.34-.94.64-1.79.87-2.58l0,0c0,.84.05,2.4.11,3.61l.17,3.8.76.44-.42-8.48"/><path d="M222.52,283.38l.72-2.06c.13-.44.27-.88.37-1.32h0c.1.54.22,1.13.36,1.78l.7,2.84-2.17-1.25m1.57-3.95-.9-.52-2.39,6.85.8.46.76-2.22,2.48,1.43.77,3.11.82.47-2.34-9.58"/><path d="M228.6,285.94v-3.15a4.89,4.89,0,0,1,.89.43,3,3,0,0,1,1.66,2.56c0,1-.64,1.27-1.64.69l-.92-.53m.86-3.46a9.68,9.68,0,0,0-1.63-.77l0,8.1.78.45v-3.63l.88.5a3.08,3.08,0,0,1,1.43,2.49,18.56,18.56,0,0,0,.46,2.25l.81.46a19.07,19.07,0,0,1-.52-2.52,4,4,0,0,0-1-2.32v0c.76.13,1.34-.24,1.34-1.32a3.66,3.66,0,0,0-.53-1.85,5.16,5.16,0,0,0-2-1.8"/></g></g><polygon class="cls-3" points="237.51 319.31 237.51 325.69 272.99 304.07 272.99 296.98 237.51 319.31"/><polygon class="cls-3" points="237.51 331.84 237.51 338.23 272.99 316.6 272.99 309.51 237.51 331.84"/><polygon class="cls-3" points="95.49 228.89 95.49 238.12 141.96 265.13 141.96 255.9 95.49 228.89"/><polygon class="cls-3" points="95.49 246.65 95.49 255.87 141.96 282.88 141.96 273.65 95.49 246.65"/><ellipse class="cls-20" cx="364.39" cy="254.68" rx="39.16" ry="22.97"/><ellipse class="cls-3" cx="357.61" cy="271.21" rx="2.09" ry="1.23"/><ellipse class="cls-3" cx="385.8" cy="268.08" rx="2.09" ry="1.23"/><ellipse class="cls-3" cx="396.24" cy="249.28" rx="2.09" ry="1.23"/><ellipse class="cls-3" cx="373.27" cy="236.75" rx="2.09" ry="1.23"/><ellipse class="cls-3" cx="348.21" cy="238.84" rx="2.09" ry="1.23"/><ellipse class="cls-3" cx="333.59" cy="256.59" rx="2.09" ry="1.23"/><g class="cls-2"><path class="cls-21" d="M375.36,251.35v2.55c0,1.54-1,3.08-3,4.25a16.27,16.27,0,0,1-14.76,0c-2.06-1.19-3.09-2.75-3.09-4.31v-2.55c0,1.56,1,3.12,3.08,4.31a16.29,16.29,0,0,0,14.77,0C374.35,254.42,375.36,252.89,375.36,251.35Z"/><ellipse class="cls-21" cx="364.92" cy="251.32" rx="6.05" ry="10.44" transform="translate(112.57 615.53) rotate(-89.84)"/></g><path class="cls-22" d="M309,141.19s-3.17-1.54-4.25,1.38-.71,3-.71,3l1.2.53-.14,4.37s4.76,0,5.37-1-.93-5.45-.93-5.45.93-.25.92-.87-.69-.79-1.3-.16S309,141.19,309,141.19Z"/><ellipse class="cls-23" cx="306.15" cy="142.8" rx="0.12" ry="0.13"/><path class="cls-24" d="M305.39,141.31s.68-2.8,1.42-3.07l.41.54s2.32-.45,2.76.22a6.54,6.54,0,0,0,1.15,1.25s-.35,1.74,0,1.88-2.05,1.15-2.05,1.15l.15-2-1.23-.62-1.61.07Z"/><path class="cls-22" d="M310.46,149.12s7,11.41,6.26,18.44c0,0-10.43.87-13.83-1.29,0,0,.63-13.59,2.2-16.05C305.09,150.22,309.31,150.15,310.46,149.12Z"/><path class="cls-25" d="M316.77,167.77s-5.31,9.55-8.6,16.8l-2.76.51s-2.17-13.12-2.24-18.67"/><path class="cls-6" d="M308.17,184.57v2.13s-3.38,1.26-5.28,0l2.52-1.62Z"/><rect class="cls-26" x="308.9" y="141.59" width="1.87" height="0.85" rx="0.39" ry="0.39" transform="translate(619.66 284.02) rotate(-180)"/><path class="cls-22" d="M305.55,153s-2.92,7.23-4.89,8.35c0,0,7.26-4.69,7.51-9.81"/><path class="cls-22" d="M287.39,151.91s-3.3-1.61-4.42,1.43-.73,3.1-.73,3.1l1.24.55-.14,4.55s4.94,0,5.58-1.06-1-5.66-1-5.66,1-.26,1-.91-.72-.81-1.36-.16S287.39,151.91,287.39,151.91Z"/><ellipse class="cls-23" cx="284.44" cy="153.58" rx="0.12" ry="0.13"/><path class="cls-24" d="M283.65,152s.7-2.91,1.48-3.18l.42.55s2.41-.46,2.87.23a6.84,6.84,0,0,0,1.19,1.3s-.36,1.81,0,1.95-2.13,1.2-2.13,1.2l.16-2.05-1.28-.64-1.68.07Z"/><path class="cls-22" d="M288.92,160.15s7.23,11.85,6.5,19.16c0,0-10.84.91-14.37-1.34,0,0,.65-14.12,2.29-16.68C283.34,161.29,287.72,161.23,288.92,160.15Z"/><path class="cls-25" d="M295.47,179.53S290,189.46,286.53,197l-2.87.53s-2.25-13.64-2.32-19.41"/><path class="cls-6" d="M286.53,197v2.21s-3.5,1.31-5.48,0l2.61-1.68Z"/><rect class="cls-26" x="287.29" y="152.32" width="1.94" height="0.88" rx="0.41" ry="0.41" transform="translate(576.52 305.52) rotate(-180)"/><path class="cls-22" d="M283.82,164.14s-3.05,7.51-5.09,8.68c0,0,7.54-4.87,7.8-10.2"/><polygon class="cls-20" points="277.34 166.44 273.54 169.29 280.19 176.88 283.98 174.03 277.34 166.44"/><g id="people"><path class="cls-27" d="M260.71,169.55a2.3,2.3,0,0,0,0-3.46c-1.84-1.74-1.82.21-1.24.74s-3.27-2.86-3.72-.71c0,0-2.28-1.16-2.05,1.06,0,0-2.95,2.69-.91,4,0,0-.74,2.7,1.34,2.18,0,0-.45,1.53.55.62"/><path class="cls-22" d="M255.27,175.82a17.8,17.8,0,0,0-5.93,17.74s9.89.84,13.11-1.24c0,0-.59-13.08-2.08-15.44C260.37,176.88,256.37,176.82,255.27,175.82Z"/><path class="cls-25" d="M249.3,193.76s5,9.2,8.15,16.17l2.62.49s2.06-12.62,2.12-18"/><path class="cls-22" d="M256.32,168.25s3.27-1.46,4.39,1.3.72,2.83.72,2.83l-1.23.5.14,4.14s-4.91,0-5.54-1,1-5.16,1-5.16-.95-.24-.95-.83.72-.74,1.35-.15S256.32,168.25,256.32,168.25Z"/><ellipse class="cls-23" cx="259.73" cy="170.19" rx="0.12" ry="0.13"/><path class="cls-6" d="M257.14,210.32v2.47s4.06,1.46,6.34,0l-3-1.88Z"/><polyline class="cls-22" points="254.13 177.77 259.79 179.07 260.41 177.47"/></g><path class="cls-22" d="M260.29,184.38s7.46,2.27,9.57,1.45c0,0-8.21,2.69-12.35-.34"/><path class="cls-8" d="M260.76,168s2.56.72,3.31,0-4.66-2.19-4.66-2.19l.33,2.19"/><path class="cls-8" d="M252.12,168s-.78-5.47,4.68-5.47c3.91,0,4,5.47,4,5.47Z"/><g id="child"><path class="cls-23" d="M350.44,251.69s4.13,10.77,1.83,11.82-8.49.73-8.21-3.81a29.45,29.45,0,0,1,2.08-8.71Z"/><ellipse class="cls-5" cx="348.51" cy="248.88" rx="4.02" ry="4.3"/><ellipse class="cls-23" cx="349.76" cy="247.11" rx="0.16" ry="0.17"/><path class="cls-23" d="M344.49,261.77s3.85,6,5,9h1.06l2.37-7.61S347.53,263.6,344.49,261.77Z"/><path class="cls-23" d="M349.34,270.74v1.6h2.87s1.56-.88,0-1.6-1.77,0-1.77,0Z"/><polygon class="cls-25" points="349.61 244.58 348.51 242.93 343.69 244.58 341.76 248.88 342.64 251.21 346.18 251.1 346.18 248.88 348.06 246.47 349.61 244.58"/></g><g id="_trigger_fountain_" data-name="&lt;trigger_fountain&gt;"><path class="cls-5" d="M359.72,252.53s1-20.82-4-27.1c-1.64-2.06-4-3-4.34-4-1.11-3.27,3.13-.13,3.13-.13s8.74,4.94,8.11,28"/><path class="cls-5" d="M369.59,254.62s-.23-28.27,4.13-31.13.5-3.6,0-3.27c-6.1,4.07-6.66,8.08-6,31.14"/><path class="cls-5" d="M361.78,226.49s-1-12.54-7.31-12.54-1-4.17,2.09-3.13,6.27,9.4,6.27,9.4"/><path class="cls-5" d="M368.05,215s6.26-9.4,11.49-8.36-3.14,4.18-5.23,6.27S367,217.09,367,225.44"/><path class="cls-5" d="M349.25,224.4a3.7,3.7,0,0,1,3.13,2.09c1.05,2.08-4.17-1.05-4.17-1.05Z"/><path class="cls-5" d="M374.31,228.57c1.05-4.17,2.09-7.31,5.23-8.35s-2.09,3.13-3.14,8.35S374.31,228.57,374.31,228.57Z"/><path class="cls-5" d="M362.83,239s1-7.31-1.05-10.45,1.05-3.13,2.09,0,1.05,8.36,1.05,14.62"/><path class="cls-28" d="M357.61,240.06s1-7.31-4.18-9.4,1,4.18,1,4.18,4.18,2.09,3.14,5.22"/><path class="cls-29" d="M371.18,245.28l2.09-8.35s2.09-4.18,6.27-4.18-4.18,4.18-4.18,6.27S371.18,245.28,371.18,245.28Z"/><path class="cls-23" d="M349.92,254.48s4.64-4,5-5.16-1.9,6.64-4.5,6.63"/><g id="child-2" data-name="child"><path class="cls-30" d="M388.09,232.89s-4.13,10.77-1.84,11.83,8.5.73,8.21-3.82a29.56,29.56,0,0,0-2.08-8.71Z"/><ellipse class="cls-5" cx="390.02" cy="230.08" rx="4.02" ry="4.3"/><ellipse class="cls-23" cx="388.76" cy="228.31" rx="0.16" ry="0.17"/><path class="cls-23" d="M394,243s-3.86,5.95-5,9h-1l-2.37-7.62S391,244.8,394,243Z"/><path class="cls-23" d="M389.19,252v1.59h-2.87s-1.56-.88,0-1.59,1.77,0,1.77,0Z"/><path class="cls-30" d="M388.61,235.69s-4.64-4-5-5.17,1.9,6.64,4.51,6.63"/><polygon class="cls-25" points="388.92 225.78 390.02 224.13 394.84 225.78 396.77 230.08 395.88 232.41 392.34 232.31 392.34 230.08 390.47 227.67 388.92 225.78"/></g><rect id="hidden" class="cls-31" x="329.41" y="187.39" width="77.28" height="91.04"/><g id="sign"><path class="cls-10" d="M384.67,209.86l-.49,10.49h-1.07l-.49-10.49Zm-.07,14.91h-1.92v-2.45h1.92Z"/></g></g></g><g id="_Island_1_" data-name="&lt;Island 1&gt;"><polygon class="cls-4" points="443.86 307.67 443.86 252.53 496.74 284.04 496.74 341.42 452.86 326.79 443.86 307.67"/><polygon class="cls-3" points="452.29 316.11 452.29 274.25 486.05 293.6 486.05 335.98 452.29 329.61 452.29 316.11"/><line class="cls-3" x1="469.17" y1="283.93" x2="468.05" y2="337.48"/><line class="cls-32" x1="472.55" y1="304.85" x2="472.55" y2="310.48"/><line class="cls-32" x1="474.8" y1="306.54" x2="474.8" y2="312.17"/><line class="cls-32" x1="462.42" y1="299.23" x2="462.42" y2="304.85"/><line class="cls-32" x1="464.67" y1="300.92" x2="464.67" y2="306.54"/><g class="cls-2"><polygon class="cls-3" points="508.94 345.1 508.85 375.97 376.3 453 376.38 422.13 508.94 345.1"/><polygon class="cls-3" points="376.38 422.13 376.3 453 279.58 397.16 279.67 366.29 376.38 422.13"/><polygon class="cls-4" points="508.94 345.1 376.38 422.13 279.67 366.29 412.23 289.26 508.94 345.1"/></g><path class="cls-8" d="M363.85,294.66s2.87.81,3.71,0-5.22-2.45-5.22-2.45l.38,2.45"/><path class="cls-22" d="M357.94,295s3.89-1.89,5.21,1.69.86,3.66.86,3.66l-1.47.65.17,5.35s-5.83,0-6.58-1.24,1.15-6.68,1.15-6.68-1.14-.3-1.13-1.07.85-1,1.6-.19S357.94,295,357.94,295Z"/><ellipse class="cls-23" cx="361.41" cy="297.01" rx="0.14" ry="0.16"/><path class="cls-24" d="M362.35,295.18s-.83-3.43-1.75-3.76l-.5.66s-2.84-.55-3.38.27a8.14,8.14,0,0,1-1.4,1.53s.43,2.14,0,2.3,2.51,1.42,2.51,1.42l-.19-2.42,1.51-.76,2,.09Z"/><path class="cls-22" d="M356.13,304.74s-8.52,14-7.66,22.6c0,0,12.78,1.06,16.94-1.58,0,0-.77-16.65-2.7-19.67C362.71,306.09,357.55,306,356.13,304.74Z"/><path class="cls-25" d="M348.41,327.6s6.5,11.7,10.54,20.58l3.38.63s2.66-16.08,2.73-22.88"/><path class="cls-6" d="M359,348.18v2.61s4.13,1.54,6.46,0l-3.08-2Z"/><rect class="cls-26" x="355.76" y="295.52" width="2.29" height="1.04" rx="0.4" ry="0.4"/><path class="cls-22" d="M362.15,309.45s3.59,8.86,6,10.23c0,0-8.89-5.74-9.19-12"/><path class="cls-8" d="M354.18,294.66s-.87-6.12,5.25-6.12c4.37,0,4.47,6.12,4.47,6.12Z"/><g class="cls-2"><polygon class="cls-4" points="421.38 314.44 421.32 333.79 338.1 382.15 338.16 362.8 421.38 314.44"/><polygon class="cls-4" points="338.16 362.8 338.1 382.15 320.8 372.16 320.85 352.8 338.16 362.8"/><polygon class="cls-4" points="421.38 314.44 338.16 362.8 320.85 352.8 404.07 304.44 421.38 314.44"/></g><polygon class="cls-4" points="397.02 305.37 392.19 308.82 399.78 312.27 404.61 308.13 397.02 305.37"/><polygon class="cls-4" points="392.19 308.82 393.57 318.47 399.78 320.54 399.78 312.27 392.19 308.82"/><polygon class="cls-4" points="404.61 308.13 399.78 312.27 399.78 320.54 403.23 317.09 404.61 308.13"/><path class="cls-4" d="M331.18,341.05l1.25,11.22s2.49,2.49,6.23,0l1.24-11.22Z"/><ellipse class="cls-4" cx="335.54" cy="341.68" rx="4.36" ry="3.11"/><polyline class="cls-33" points="337.41 342.3 338.66 336.07 342.39 336.07"/><path class="cls-4" d="M341.74,335.78,343,347s2.49,2.49,6.23,0l1.25-11.21Z"/><ellipse class="cls-4" cx="346.1" cy="336.4" rx="4.36" ry="3.11"/><polyline class="cls-33" points="347.96 337.02 349.21 330.79 352.95 330.79"/><path class="cls-4" d="M337.78,343.69,339,354.91s2.5,2.49,6.23,0l1.25-11.22Z"/><ellipse class="cls-4" cx="342.14" cy="344.32" rx="4.36" ry="3.11"/><polyline class="cls-33" points="344.01 344.94 345.25 338.71 348.99 338.71"/><path class="cls-4" d="M393.52,307.61s1-2.9,3.62-1.58c3,1.5,4.08-3.11,5.28-1.32,2.64,4-.71,4.62-.71,4.62"/><polygon class="cls-4" points="356.25 335.05 352.29 337.69 352.29 341.65 360.2 345.61 360.2 337.69 356.25 335.05"/><polygon class="cls-4" points="360.2 337.69 368.12 332.42 368.12 340.33 360.2 345.61 360.2 337.69"/><polyline class="cls-4" points="356.25 335.05 360.2 337.69 368.12 332.42 364.16 329.78 356.25 335.05"/><line class="cls-29" x1="362.84" y1="328.46" x2="362.84" y2="332.41"/><polygon class="cls-4" points="358.88 328.31 358.88 332.42 365.85 327.87 365.48 324.5 358.88 328.31"/><polygon class="cls-4" points="379.99 320.54 376.04 323.18 376.04 327.14 383.95 331.1 383.95 323.18 379.99 320.54"/><polygon class="cls-4" points="383.95 323.18 391.87 317.9 391.87 325.82 383.95 331.1 383.95 323.18"/><polyline class="cls-4" points="379.99 320.54 383.95 323.18 391.87 317.9 387.91 315.26 379.99 320.54"/><line class="cls-29" x1="386.59" y1="313.95" x2="386.59" y2="317.9"/><polygon class="cls-4" points="382.63 313.8 382.63 317.9 389.59 313.36 389.23 309.99 382.63 313.8"/><g id="mother"><path class="cls-34" d="M396.8,342.57s-8.33,13.26-7.49,21.42c0,0,12.49,1,16.56-1.5,0,0-.75-15.78-2.63-18.64C403.24,343.85,398.19,343.78,396.8,342.57Z"/><polygon class="cls-22" points="397.01 342.92 401.6 345.21 402.37 344.06 397.01 342.92"/><path class="cls-34" d="M400.07,347.39s6,6.55,8.67,6.88c0,0-9.93-1.83-12.16-7.29"/><path class="cls-25" d="M389.25,364.24s6.35,11.1,10.3,19.52l3.31.59s2.6-15.24,2.67-21.69"/><line class="cls-35" x1="402.62" y1="355.36" x2="402.7" y2="362.66"/><path class="cls-24" d="M402.34,336.55c2.88-1,3.86-5.78-4.27-3.54,0,0-1.45-.4-1.45-.37-.18.78-1.82,13.41-5,10.74,0,0,3.29,3.41,5.05,1.93l1.08-1.16,4.59-7.53S402.32,336.56,402.34,336.55Z"/><path class="cls-22" d="M398,335.49a.09.09,0,0,1,.05-.1c.52-.22,4.08-2.06,5.27,1,1.12,2.9,1.16,3,1.08,3.09l0,0-1.36.58a.09.09,0,0,0-.06.09l.26,3.71s-5.11.19-5.85-1,.15-4.4.4-5.1a.1.1,0,0,0-.05-.13c-.27-.08-1-.38-1-1s.83-.9,1.57-.18S398.11,335.93,398,335.49Z"/><ellipse class="cls-23" cx="401.74" cy="337.62" rx="0.14" ry="0.15"/><path class="cls-6" d="M399.55,383.76v2.47s4.05,1.46,6.32,0l-3-1.88Z"/><path class="cls-4" d="M407.48,350l.8,7.9s1.62,1.76,4,0l.81-7.9Z"/><ellipse class="cls-4" cx="410.3" cy="350.45" rx="2.82" ry="2.19"/><polyline class="cls-33" points="411.51 350.89 412.31 346.5 414.73 346.5"/></g><polygon class="cls-4" points="502.93 287.41 519.14 297.14 519.14 320.61 502.93 311.34 502.93 287.41"/><g class="cls-2"><path class="cls-3" d="M511,297.31a3.87,3.87,0,0,0-3.52-.42l1.37,2.7a2,2,0,0,1,2,.08,2.4,2.4,0,0,1,1.29,2.12c0,1-.62,1.36-2.56.25v2.17c2.38,1.38,2.89,2.34,2.89,3.46s-.69,1.08-1.74.47a7.05,7.05,0,0,1-2.36-2.61l-1.25,1.24a9.92,9.92,0,0,0,3.87,4.05c2.26,1.3,4.2,1.05,4.2-1.38A6.19,6.19,0,0,0,513,305v-.09c1.22.15,1.83-.51,1.84-1.81,0-2.32-1.53-4.46-3.88-5.81"/></g><path class="cls-22" d="M485.35,294.53s-3.73-1.81-5,1.62-.83,3.51-.83,3.51l1.41.62-.16,5.14s5.59,0,6.31-1.19-1.1-6.41-1.1-6.41,1.09-.29,1.09-1-.82-.92-1.54-.18S485.35,294.53,485.35,294.53Z"/><ellipse class="cls-23" cx="482.01" cy="296.43" rx="0.14" ry="0.15"/><path class="cls-24" d="M481.12,294.67s.8-3.29,1.67-3.61l.48.63s2.73-.52,3.25.27a7.84,7.84,0,0,0,1.34,1.47s-.41,2,0,2.2-2.41,1.36-2.41,1.36l.18-2.32-1.45-.73-1.89.09Z"/><path class="cls-22" d="M487.08,303.85s8.18,13.41,7.35,21.68c0,0-12.26,1-16.25-1.52,0,0,.73-16,2.59-18.87C480.77,305.14,485.72,305.07,487.08,303.85Z"/><path class="cls-25" d="M494.49,325.78s-6.23,11.23-10.11,19.76l-3.24.6s-2.56-15.43-2.63-22"/><path class="cls-6" d="M484.38,345.54V348s-4,1.48-6.2,0l3-1.9Z"/><rect class="cls-26" x="485.24" y="294.99" width="2.2" height="1" rx="0.34" ry="0.34" transform="translate(972.67 590.98) rotate(-180)"/><path class="cls-8" d="M489,294.17s.84-5.87-5-5.87c-4.19,0-4.29,5.87-4.29,5.87Z"/><path class="cls-8" d="M479.67,294.17s-2.75.78-3.55,0,5-2.35,5-2.35l-.37,2.35"/><path class="cls-22" d="M436,303.17s4-1.77,5.34,1.58.88,3.42.88,3.42l-1.5.61.17,5s-6,0-6.73-1.16,1.17-6.25,1.17-6.25-1.16-.29-1.16-1,.87-.9,1.64-.18S436,303.17,436,303.17Z"/><circle class="cls-23" cx="439.59" cy="305.02" r="0.15"/><path class="cls-24" d="M440.55,303.31s-.86-3.21-1.79-3.52l-.51.61s-2.91-.51-3.46.26a7.65,7.65,0,0,1-1.44,1.43s.45,2,0,2.15,2.58,1.33,2.58,1.33l-.2-2.26,1.55-.71,2,.08Z"/><path class="cls-22" d="M434.19,312.26s-8.72,13.08-7.84,21.14c0,0,13.07,1,17.33-1.48,0,0-.79-15.58-2.76-18.4C440.92,313.52,435.64,313.45,434.19,312.26Z"/><path class="cls-25" d="M426.29,333.65s6.64,11,10.78,19.27l3.46.58s2.72-15,2.79-21.41"/><path class="cls-6" d="M437.07,352.92v2.43s4.23,1.45,6.61,0l-3.15-1.85Z"/><rect class="cls-26" x="433.81" y="303.62" width="2.34" height="0.97" rx="0.37" ry="0.37"/><g id="child-3" data-name="child"><path class="cls-30" d="M462.15,338.88s4.63,12.08,2.06,13.27-9.54.82-9.22-4.28a33.18,33.18,0,0,1,2.34-9.78Z"/><ellipse class="cls-5" cx="459.98" cy="335.72" rx="4.52" ry="4.82"/><ellipse class="cls-23" cx="461.39" cy="333.73" rx="0.18" ry="0.19"/><path class="cls-23" d="M455.47,350.19s4.33,6.68,5.62,10.08h1.18l2.66-8.55S458.89,352.24,455.47,350.19Z"/><path class="cls-23" d="M460.91,360.27v1.79h3.22s1.76-1,0-1.79-2,0-2,0Z"/><polygon class="cls-25" points="461.21 330.89 459.99 329.04 454.57 330.89 452.41 335.72 453.4 338.33 457.37 338.21 457.37 335.72 459.48 333.02 461.21 330.89"/></g><g id="_trigger_film_advocacy_" data-name="&lt;trigger_film_advocacy&gt;"><path class="cls-4" d="M446.22,321.71l1,8.75s1.95,1.94,4.86,0l1-8.75Z"/><ellipse class="cls-4" cx="449.62" cy="322.19" rx="3.4" ry="2.43"/><polyline class="cls-33" points="451.08 322.68 452.05 317.82 454.97 317.82"/><path class="cls-30" d="M461.39,342s6.41,3.38,7.89,3.3-8.15.8-9.28-2.08"/><path class="cls-22" d="M440.18,319.93s5.83,6.38,8.44,6.8c0,0-9.85-2.11-11.91-7.32"/><polygon class="cls-4" points="471.13 336.92 467.73 339.35 473.07 341.78 476.48 338.86 471.13 336.92"/><polygon class="cls-4" points="467.73 339.35 468.7 346.15 473.07 347.61 473.07 341.78 467.73 339.35"/><polygon class="cls-4" points="476.48 338.86 473.07 341.78 473.07 347.61 475.5 345.18 476.48 338.86"/><path class="cls-4" d="M468.56,339.09a1.64,1.64,0,0,1,2.36-1c2,1,2.67-2,3.45-.87,1.72,2.59-.46,3-.46,3"/><path class="cls-22" d="M481.31,315.12s-3.44,8.5-5.75,9.82c0,0,8.53-5.52,8.82-11.54"/><rect id="hidden-2" data-name="hidden" class="cls-31" x="399.97" y="266.64" width="99.05" height="116.69"/><g id="sign-2" data-name="sign"><path class="cls-10" d="M429.52,287.68,429,299.59h-1.22l-.55-11.91Zm-.08,16.92h-2.18v-2.78h2.18Z"/></g></g><g id="_trigger_speaker_" data-name="&lt;trigger_speaker&gt;"><path class="cls-4" d="M504.36,277.47a23.83,23.83,0,0,1,10.08-.68c.84.1,1.84-.39,2.68-2a3.48,3.48,0,0,0-.46-3.49s-3-1.4-7-7.37l-4.8.73-3.5,7.46Z"/><polygon class="cls-33" points="506.94 268.49 509.38 268.86 510.17 271.71 508.06 272.9 506.07 272.13 506.94 268.49"/><path class="cls-4" d="M510.47,272c1.53-4,.73-7.75-1.87-8.75s-5.71,1.25-7.25,5.23-.73,7.74,1.87,8.75S508.93,276,510.47,272Zm-6.59,3.5c-1.56-.6-1.93-3.45-.8-6.35s3.29-4.78,4.86-4.18,1.93,3.45.81,6.36S505.45,276.13,503.88,275.52Z"/><ellipse class="cls-4" cx="506.23" cy="270.38" rx="1.88" ry="0.94" transform="matrix(0.32, -0.95, 0.95, 0.32, 90.11, 665.62)"/><path class="cls-33" d="M496.17,270s-1.12-3.37,3.38-6.75"/><path class="cls-33" d="M490.55,270s-2.25-7.87,5.62-11.25"/><path class="cls-33" d="M486.05,270s-4.63-9.59,5.62-15.75"/><path class="cls-33" d="M485.47,249.16s-11,8.57-4.9,20.81"/><g id="sign-3" data-name="sign"><path class="cls-10" d="M516.33,244.19l-.53,11.3h-1.15l-.53-11.3Zm-.07,16.06h-2.07v-2.64h2.07Z"/></g><rect id="hidden-3" data-name="hidden" class="cls-31" x="469.17" y="239.6" width="56.26" height="51.47"/></g></g></g></g></svg>