<svg xmlns="http://www.w3.org/2000/svg" xmlns:xlink="http://www.w3.org/1999/xlink" viewBox="0 0 589.89 506.28"><defs><style>.cls-1,.cls-10,.cls-14,.cls-17,.cls-18,.cls-22,.cls-26,.cls-33,.cls-34,.cls-6{fill:none;}.cls-2{isolation:isolate;}.cls-11,.cls-19,.cls-20,.cls-23,.cls-3,.cls-5{fill:#c92028;}.cls-10,.cls-3,.cls-4,.cls-5,.cls-6,.cls-7{stroke:#000;}.cls-11,.cls-12,.cls-13,.cls-14,.cls-17,.cls-24,.cls-25,.cls-3,.cls-33,.cls-35,.cls-4,.cls-6{stroke-linejoin:round;}.cls-12,.cls-16,.cls-21,.cls-24,.cls-31,.cls-35,.cls-4,.cls-7{fill:#fff;}.cls-10,.cls-15,.cls-16,.cls-18,.cls-20,.cls-21,.cls-22,.cls-26,.cls-34,.cls-5,.cls-7{stroke-miterlimit:10;}.cls-8{clip-path:url(#clip-path);}.cls-9{clip-path:url(#clip-path-2);}.cls-11,.cls-12,.cls-13,.cls-14,.cls-15,.cls-16,.cls-17,.cls-20,.cls-21,.cls-24,.cls-25,.cls-26,.cls-33,.cls-34,.cls-35{stroke:#1a1a1a;}.cls-11,.cls-12,.cls-13,.cls-14,.cls-15,.cls-16,.cls-20,.cls-26{stroke-width:0.8px;}.cls-12,.cls-13,.cls-14,.cls-17,.cls-35{stroke-linecap:round;}.cls-13,.cls-15,.cls-25,.cls-27,.cls-28,.cls-29,.cls-32{fill:#1a1a1a;}.cls-18{stroke:#c92028;}.cls-19{mix-blend-mode:multiply;}.cls-22{stroke:#e6e6e6;stroke-width:0.75px;}.cls-27{font-size:12.61px;}.cls-27,.cls-28,.cls-29{font-family:NotoSansCJKtc-Medium-B5pc-H, Noto Sans CJK TC;}.cls-28{font-size:12.61px;}.cls-29{font-size:12.61px;}.cls-30{clip-path:url(#clip-path-3);}</style><clipPath id="clip-path"><polygon class="cls-1" points="255.74 217.41 255.72 212.21 260.25 209.59 260.26 214.8 255.74 217.41"/></clipPath><clipPath id="clip-path-2"><polygon class="cls-1" points="262.71 213.43 262.7 208.22 267.23 205.61 267.25 210.81 262.71 213.43"/></clipPath><clipPath id="clip-path-3"><polygon class="cls-1" points="368.9 303 368.81 271.33 396.38 255.42 396.47 287.09 368.9 303"/></clipPath></defs><title>行天宮</title><g class="cls-2"><g id="圖層_1" data-name="圖層 1"><g id="_Island_3_" data-name="&lt;Island 3&gt;"><polygon class="cls-3" points="285.05 372.15 286.1 335.37 406.97 260.74 447.96 231.31 505.77 216.6 505.77 244.98 285.05 372.15"/><polygon class="cls-3" points="239.86 315.4 239.86 345.88 285.05 372.15 286.1 342.72 275.59 319.6 239.86 315.4"/><polygon class="cls-3" points="168.39 387.92 168.39 357.44 213.58 315.4 239.86 315.4 239.86 345.88 168.39 387.92"/><polygon class="cls-3" points="38.06 279.66 38.06 312.24 168.39 387.92 169.44 357.44 135.81 322.75 60.13 283.87 38.06 279.66"/><polygon class="cls-4" points="505.77 216.6 328.15 112.55 38.06 279.66 169.44 357.44 239.86 315.4 286.1 342.72 505.77 216.6"/><g class="cls-2"><polygon class="cls-4" points="483.45 164.78 483.29 222.38 478.31 225.27 478.47 167.67 483.45 164.78"/><polygon class="cls-4" points="478.47 167.67 478.31 225.27 472.67 222.01 472.83 164.42 478.47 167.67"/><polygon class="cls-4" points="483.45 164.78 478.47 167.67 472.83 164.42 477.81 161.52 483.45 164.78"/></g><g class="cls-2"><polygon class="cls-4" points="399.03 117.99 398.87 175.59 393.89 178.48 394.05 120.89 399.03 117.99"/><polygon class="cls-4" points="394.05 120.89 393.89 178.48 388.25 175.23 388.41 117.63 394.05 120.89"/><polygon class="cls-4" points="399.03 117.99 394.05 120.89 388.41 117.63 393.39 114.74 399.03 117.99"/></g><path class="cls-4" d="M406.66,69.14s-3.05,1-4.07-1-3-13.22,2-8.14c3.59,3.6,96.79,62.08,117,66.11,5.09,1-3.11,8.32-5.08,8.14-1.27-.12-4.07-3.05-4.07-3.05L457.51,118Z"/><polygon class="cls-4" points="375.01 107.28 375.13 121.09 497.88 192.21 497.88 174.68 375.01 107.28"/><path class="cls-5" d="M373.1,109.83l131.2,77.3c-3.05-36.62,8.14-55.94,8.14-55.94l-105.78-62c-17.29,19.33-43.74,31.53-50.86,31.53Z"/><path class="cls-6" d="M416.83,76.26s-11.39,28.79-35.7,38.3"/><path class="cls-6" d="M429,83.38s-11.4,28.79-35.71,38.3"/><path class="cls-6" d="M441.24,90.5s-11.39,28.79-35.7,38.3"/><path class="cls-6" d="M453.45,97.62s-11.4,28.79-35.71,38.3"/><path class="cls-6" d="M465.65,104.74S454.26,133.53,430,143"/><path class="cls-6" d="M477.86,111.86s-11.4,28.79-35.71,38.3"/><path class="cls-6" d="M490.06,119s-11.39,28.79-35.7,38.3"/><path class="cls-6" d="M502.27,126.1s-11.4,28.79-35.71,38.3"/><path class="cls-5" d="M481,182.55S480.71,196,481,196c3.12.25.57-4.07,4.14-5.85,2-1,3.05,2,5.21,1.78a3.87,3.87,0,0,0,3-2.15Z"/><path class="cls-5" d="M388.42,128.64s.22,13.62,0,13.48c-3.43-2.25-1.73-5.05-3.32-8.7-1.15-2.64-5.79-3.44-7-5.54-1.12-1.88.07-5.2.07-5.2Z"/><g class="cls-2"><polygon class="cls-4" points="370.25 101.45 370.06 166.46 363.44 170.72 363.63 105.72 370.25 101.45"/><polygon class="cls-6" points="363.63 105.72 363.44 170.72 357.08 167.05 357.26 102.04 363.63 105.72"/><polygon class="cls-6" points="369.25 102.45 363.63 105.72 357.26 102.04 362.89 98.77 369.25 102.45"/></g><path class="cls-5" d="M361.24,106.84s.25,13.18,0,13.2c-3.06.25-1.66-3-5.25-4.54-2.8-1.19-3.69,2.61-4.91.56a5.3,5.3,0,0,1-.93-3.11Z"/><path class="cls-5" d="M345.72,75.93s15.95,25.92,29.9,23.93l-47.85,25.92-21.93-16,7.54-21.07,29.35-11.83Z"/><path class="cls-5" d="M296.58,94.58s46-19,52-45.92c4.12-18.58,5.12.36,5.12.36.18,3.61-2,5-7.17,15l-.91,12.24S326.78,85.9,305.06,99Z"/><polygon class="cls-7" points="172.07 278.3 358.18 166.84 358.55 130.16 308.24 133.25 207.55 201.04 162.69 230.95 166.18 265.34 172.07 278.3"/><polygon class="cls-5" points="245.53 233.94 245.53 204.03 276.43 186.09 276.43 215.99 245.53 233.94"/><polygon class="cls-7" points="248.52 181.1 282.42 161.16 277.43 179.11 244.53 198.05 248.52 181.1"/><g class="cls-2"><polygon class="cls-4" points="174.86 228.06 174.68 293.06 169.05 296.33 169.24 231.32 174.86 228.06"/><polygon class="cls-4" points="169.24 231.32 169.05 296.33 106.97 259.76 107.15 194.75 169.24 231.32"/><polygon class="cls-4" points="174.86 228.06 169.24 231.32 162.87 227.65 168.5 224.38 174.86 228.06"/></g><g class="cls-2"><polygon class="cls-4" points="367.26 118.4 367.07 183.41 361.45 186.68 361.63 121.67 367.26 118.4"/><polygon class="cls-4" points="361.63 121.67 361.45 186.68 342.23 177.02 342.41 112.01 361.63 121.67"/><polygon class="cls-4" points="367.26 118.4 361.63 121.67 355.27 117.99 360.89 114.72 367.26 118.4"/></g><g class="cls-2"><path class="cls-7" d="M240,227.74l-.11,36.43c0,1.32-.87,2.63-2.59,3.64a13.94,13.94,0,0,1-12.64,0c-1.76-1-2.64-2.35-2.64-3.68l.1-36.44c0,1.34.88,2.67,2.64,3.69a13.91,13.91,0,0,0,12.64,0C239.17,230.37,240,229.05,240,227.74Z"/><path class="cls-7" d="M237.4,224.06c3.5,2,3.52,5.29,0,7.31a13.91,13.91,0,0,1-12.64,0c-3.5-2-3.52-5.3,0-7.32A13.88,13.88,0,0,1,237.4,224.06Z"/></g><g class="cls-2"><path class="cls-7" d="M304.84,188.57,304.75,223c0,1.24-.82,2.49-2.46,3.44a13.16,13.16,0,0,1-11.94,0c-1.67-1-2.5-2.22-2.5-3.48l.1-34.44c0,1.26.83,2.52,2.5,3.49a13.19,13.19,0,0,0,11.94,0C304,191.06,304.84,189.82,304.84,188.57Z"/><path class="cls-7" d="M302.36,185.09c3.3,1.91,3.32,5,0,6.92a13.19,13.19,0,0,1-11.94,0c-3.32-1.92-3.33-5,0-6.93A13.18,13.18,0,0,1,302.36,185.09Z"/></g><g class="cls-2"><polygon class="cls-4" points="237.66 162.26 237.48 227.27 231.86 230.54 232.04 165.53 237.66 162.26"/><polygon class="cls-4" points="232.04 165.53 231.86 230.54 225.49 226.86 225.68 161.85 232.04 165.53"/><polygon class="cls-4" points="237.66 162.26 232.04 165.53 225.68 161.85 231.3 158.59 237.66 162.26"/></g><g class="cls-2"><polygon class="cls-4" points="302.46 123.38 302.27 188.39 296.65 191.66 296.84 126.65 302.46 123.38"/><polygon class="cls-4" points="296.84 126.65 296.65 191.66 290.29 187.98 290.47 122.97 296.84 126.65"/><polygon class="cls-4" points="302.46 123.38 296.84 126.65 290.47 122.97 296.1 119.71 302.46 123.38"/></g><path class="cls-5" d="M235.06,193.56s-.2,13.35,0,13.21c3.37-2.21,2.7-4.94,4.26-8.53,1.13-2.58,4.68-5.36,5.9-7.42a2.58,2.58,0,0,0-.06-3.1Z"/><path class="cls-5" d="M299.86,156.68s-.21,13.34,0,13.21c3.36-2.21,2.7-4.95,4.26-8.53,1.12-2.59,4.68-5.37,5.9-7.42a2.57,2.57,0,0,0-.07-3.1Z"/><path class="cls-5" d="M175.25,227.46s-.21,13.34,0,13.21c3.37-2.21,1.7-4.95,3.26-8.53,1.13-2.59,5.68-3.38,6.9-5.43,1.1-1.85-.07-5.1-.07-5.1Z"/><path class="cls-5" d="M294.75,73s49,42.82,76.89,42.82L164.78,234.93,139.36,180.6l12-39.87,14.95,6,28.91-6L246,114.81l20.93-17Z"/><path class="cls-5" d="M180.24,139.73c2.06,8.08,35,49.91,57.45,53.53"/><path class="cls-5" d="M169.27,145.71c2.07,8.08,35,49.91,57.46,53.53"/><path class="cls-5" d="M157.31,144.72c4,14.95,36,56.88,58.45,60.5"/><path class="cls-5" d="M195.19,139.73c2.29,6.89,34.59,45.62,51.47,48.54"/><path class="cls-5" d="M205.16,133.75c2,7,32.91,45.48,51.47,48.54"/><path class="cls-5" d="M215.13,128.77c1.9,7.41,32,45.09,50.84,47.85"/><path class="cls-5" d="M226.09,122.79c1.55,6.37,31.35,44.13,50.84,47.85"/><path class="cls-5" d="M236.06,116.8c1.9,7.41,32,45.1,50.84,47.85"/><path class="cls-5" d="M246,110.82c1.9,7.41,32,45.09,50.84,47.85"/><path class="cls-5" d="M256,104.84c1.79,6.64,32.1,43.87,52.47,47.55"/><path class="cls-5" d="M266,98.86c.63,7.19,26.55,43.71,52.47,47.54"/><path class="cls-5" d="M275.94,92.88c.62,7.18,26.55,43.71,52.47,47.54"/><path class="cls-5" d="M284.91,84.9c.63,7.19,27.55,45.71,53.47,49.54"/><path class="cls-5" d="M291.89,65c-4,8-10.26,12.43-20.52,22-33.27,30.92-95.12,57.79-117,50.81,0,0-18.94-6-27.92-17s-5,4-5,4l24.92,18.94s-20.93,43.86-56.82,45.86l74.77,44.86s-16.95-45.86-12-88.73c0,0,29.73,8.68,85.73-24.92,39.88-23.92,47.71-36,58.82-50.84,6-8,10.38-22.27,9-27.91-1-4-3-3-4,1C300.24,49.48,293.49,61.75,291.89,65Z"/><path class="cls-4" d="M154.32,153.65l4.13,2s13.45,38.62,50.69,35.57l-6.2,2-21.73,4.07L163.63,175Z"/><path class="cls-4" d="M202.94,207.52c-45.52-12.5-48.62-53.87-48.62-53.87,8.27,18.3,15.51,40.66,48.62,39.64Z"/><polygon class="cls-4" points="202.94 193.29 202.94 207.52 209.15 203.45 209.15 191.26 202.94 193.29"/><path class="cls-4" d="M294.88,82,297,80.8s16.84,35.25,54.72,32.32l-6.32,1.95L323.29,119,301.36,96.37l-1.22-3.89Z"/><path class="cls-4" d="M345.38,128.77C301.19,117.36,294.88,82,294.88,82c8.41,17.6,16.83,34.09,50.5,33.11Z"/><polygon class="cls-4" points="345.38 115.08 345.38 128.77 351.7 124.86 351.7 113.12 345.38 115.08"/><path class="cls-5" d="M358.25,123.78s.25,13.19,0,13.21c-3.06.25-.57-4-4.06-5.73-2-1-3,1-5.1.75a3.8,3.8,0,0,1-2.93-2.11Z"/><g class="cls-2"><polygon class="cls-4" points="87.14 219.08 86.95 284.09 81.33 287.36 81.51 222.35 87.14 219.08"/><polygon class="cls-4" points="81.51 222.35 81.33 287.36 74.96 283.69 75.15 218.68 81.51 222.35"/><polygon class="cls-4" points="87.14 219.08 81.51 222.35 75.15 218.68 80.77 215.41 87.14 219.08"/></g><path class="cls-5" d="M116.44,239.42s-.21,13.35,0,13.21c3.36-2.21,2.69-4.95,4.25-8.53,1.13-2.59,4.68-5.37,5.91-7.42a2.59,2.59,0,0,0-.07-3.1Z"/><path class="cls-5" d="M87.53,223.47s-.21,13.34,0,13.21c3.36-2.21,2.69-5,4.25-8.53,1.13-2.59,4.68-5.37,5.91-7.42a2.59,2.59,0,0,0-.07-3.1Z"/><g class="cls-2"><polygon class="cls-4" points="116.04 235.03 115.86 300.04 110.24 303.31 110.42 238.3 116.04 235.03"/><polygon class="cls-4" points="110.42 238.3 110.24 303.31 103.87 299.63 104.06 234.63 110.42 238.3"/><polygon class="cls-4" points="116.04 235.03 110.42 238.3 104.06 234.63 109.68 231.36 116.04 235.03"/></g><path class="cls-5" d="M95.5,202.54s-9,12-27.91,16l42.86,24.92Z"/><path class="cls-5" d="M136.37,190.57s10,22.93,20.07,27.2c-.58-.25-42.07,23.51-46,25.64,0,0-15-13-15-40.87l15-14Z"/><path class="cls-5" d="M138.61,181s-42.19,12.49-61.68-7-8,1.15-8,1.15c2.67,2.44,6.65,8.42,17.94,10.91l8.72,16.45s17.87-5,41-12.19Z"/><polygon class="cls-5" points="192.11 266.3 209.15 256.1 209.64 230.95 192.7 241.91 192.11 266.3"/><polygon class="cls-5" points="311.73 194.52 328.77 184.32 329.27 159.17 312.32 170.14 311.73 194.52"/><g class="cls-2"><g class="cls-8"><path d="M258,215c-.7.4-1.28.08-1.28-.73A2.8,2.8,0,0,1,258,212c.7-.4,1.27-.08,1.28.72A2.83,2.83,0,0,1,258,215m0-4.06a5,5,0,0,0-2.26,3.91c0,1.43,1,2,2.27,1.29a5,5,0,0,0,2.25-3.91c0-1.43-1-2-2.26-1.29"/></g></g><g class="cls-2"><g class="cls-9"><path d="M265,211c-.71.41-1.28.08-1.28-.72a2.79,2.79,0,0,1,1.27-2.2c.7-.4,1.27-.08,1.27.73A2.78,2.78,0,0,1,265,211m0-4.06a5,5,0,0,0-2.26,3.91c0,1.44,1,2,2.28,1.3a5,5,0,0,0,2.26-3.92c0-1.43-1-2-2.28-1.29"/></g></g><line class="cls-10" x1="261.48" y1="194.77" x2="261.48" y2="224.68"/><g id="_trigger_noise_" data-name="&lt;trigger_noise&gt;"><g id="mother"><path class="cls-11" d="M361.7,190.92s9.94,15.82,8.94,25.57c0,0-14.92,1.21-19.78-1.78,0,0,.9-18.85,3.15-22.26C354,192.45,360,192.36,361.7,190.92Z"/><polygon class="cls-12" points="361.45 191.33 355.96 194.06 355.04 192.7 361.45 191.33"/><path class="cls-11" d="M357.79,196.67s-7.21,7.82-10.35,8.22c0,0,11.85-2.19,14.51-8.71"/><path class="cls-13" d="M370.71,216.79s-7.58,13.25-12.3,23.31l-4,.7s-3.11-18.19-3.2-25.89"/><line class="cls-14" x1="354.74" y1="206.19" x2="354.65" y2="214.91"/><path class="cls-15" d="M355.08,183.72c-3.44-1.18-4.61-6.9,5.1-4.23,0,0,1.72-.47,1.73-.43.22.93,2.17,16,6,12.82,0,0-3.93,4.07-6,2.3l-1.28-1.39-5.49-9S355.1,183.73,355.08,183.72Z"/><path class="cls-12" d="M360.23,182.46a.11.11,0,0,0-.06-.12c-.62-.26-4.88-2.46-6.3,1.21-1.34,3.45-1.38,3.61-1.29,3.69l0,0,1.63.69a.12.12,0,0,1,.07.11l-.31,4.43s6.1.23,7-1.16-.18-5.25-.48-6.09a.12.12,0,0,1,.06-.15c.32-.11,1.22-.46,1.22-1.17s-1-1.06-1.87-.21S360.13,183,360.23,182.46Z"/><ellipse class="cls-16" cx="355.8" cy="185" rx="0.16" ry="0.18"/><path class="cls-17" d="M358.41,240.1v3s-4.83,1.74-7.55,0l3.6-2.25Z"/></g><line class="cls-7" x1="343.33" y1="192.16" x2="346.54" y2="207.16"/><line class="cls-18" x1="342.76" y1="189.51" x2="343.52" y2="193.04"/><g id="_man_" data-name="&lt;man&gt;"><path class="cls-12" d="M410.44,162s-5.23-2.55-7,2.26-1.16,4.93-1.16,4.93l2,.88-.23,7.2s7.85,0,8.86-1.67-1.54-9-1.54-9,1.53-.42,1.52-1.45-1.14-1.29-2.15-.26S410.44,162,410.44,162Z"/><ellipse class="cls-16" cx="405.76" cy="164.7" rx="0.19" ry="0.21"/><path class="cls-15" d="M404.5,162.24s1.13-4.62,2.35-5.06l.68.88s3.82-.74,4.55.37a11.16,11.16,0,0,0,1.89,2.06s-.58,2.87,0,3.09-3.39,1.91-3.39,1.91l.26-3.25-2-1-2.66.11Z"/><path class="cls-12" d="M412.87,175.1s11.47,18.82,10.31,30.41c0,0-17.19,1.44-22.79-2.12,0,0,1-22.41,3.62-26.47C404,176.92,411,176.82,412.87,175.1Z"/><path class="cls-13" d="M423.26,205.86s-8.74,15.76-14.18,27.71l-4.55.84s-3.58-21.63-3.68-30.79"/><path class="cls-17" d="M409.08,233.57v3.51s-5.56,2.07-8.69,0l4.14-2.67Z"/><rect class="cls-19" x="410.29" y="162.69" width="3.08" height="1.4" rx="0.66" ry="0.66" transform="translate(823.65 326.77) rotate(-180)"/><path class="cls-12" d="M404.77,181.44s-4.82,11.92-8.06,13.77c0,0,12-7.73,12.37-16.18"/></g><g id="child"><path class="cls-20" d="M386.89,209.21s5,13.12,2.24,14.4-10.36.89-10-4.65a36.23,36.23,0,0,1,2.54-10.61Z"/><ellipse class="cls-21" cx="384.54" cy="205.78" rx="4.9" ry="5.24"/><ellipse class="cls-16" cx="386.06" cy="203.62" rx="0.19" ry="0.21"/><path class="cls-16" d="M379.63,221.49s4.7,7.25,6.11,10.94H387l2.89-9.28S383.34,223.71,379.63,221.49Z"/><path class="cls-16" d="M385.54,232.43v1.94H389s1.91-1.08,0-1.94-2.15,0-2.15,0Z"/><path class="cls-20" d="M386.26,212.61s5.65-4.85,6.13-6.29-2.32,8.09-5.49,8.08"/><polygon class="cls-13" points="385.87 200.54 384.54 198.53 378.66 200.54 376.31 205.78 377.39 208.62 381.7 208.49 381.7 205.78 383.98 202.84 385.87 200.54"/></g><rect id="hidden" class="cls-22" x="337.37" y="150.92" width="90.63" height="97.28"/><g id="sign"><path class="cls-23" d="M382,176.91l-.52,11.22H380.3l-.52-11.22Zm-.07,16h-2v-2.62h2Z"/></g></g><g id="_trigger_instruction_" data-name="&lt;trigger_instruction&gt;"><polygon class="cls-12" points="300.84 250.62 295.56 254.13 306.12 270.86 308.76 269.1 300.84 250.62"/><path class="cls-7" d="M332.87,278.61s-8.6,14.19-14,24.95l-4.47.75s-3.53-19.47-3.63-27.72"/><path class="cls-12" d="M321.18,238s-5.17-2.3-6.93,2-1.15,4.45-1.15,4.45l2,.8-.23,6.51s7.75,0,8.75-1.52-1.52-8.11-1.52-8.11,1.51-.38,1.5-1.31-1.13-1.16-2.13-.23S321.18,238,321.18,238Z"/><circle class="cls-16" cx="316.56" cy="240.43" r="0.19"/><path class="cls-15" d="M315.31,238.21s1.11-4.18,2.32-4.58l.67.8s3.78-.66,4.5.33a10.18,10.18,0,0,0,1.86,1.87s-.57,2.59,0,2.79-3.34,1.72-3.34,1.72l.26-2.93-2-.93-2.62.11Z"/><path class="cls-12" d="M323.58,249.83s11.33,17,10.18,27.48c0,0-17,1.3-22.51-1.92,0,0,1-20.25,3.58-23.91C314.83,251.48,321.69,251.38,323.58,249.83Z"/><path class="cls-5" d="M313.73,254.32l-1.15,6.28-2.13,3.62s.95-.79.95,2.54a87.31,87.31,0,0,1-.57,8.84c.1,8.28,4.51,19.9,4.51,19.9l14.18,2.77a41.13,41.13,0,0,0,4.32-20.64s.44-20-10.12-27.9l-8.8,1.76Z"/><path class="cls-17" d="M319.84,302.67v3.17s-5.5,1.87-8.59,0l4.09-2.42Z"/><rect class="cls-19" x="321.02" y="238.61" width="3.05" height="1.26" rx="0.6" ry="0.6" transform="translate(645.09 478.49) rotate(-180)"/><path class="cls-12" d="M320.52,262.87c-7.37,7.35-16.91,3.08-18.87,2.69,3.5.89,14.25-3.92,14.25-3.92"/><path class="cls-24" d="M318.44,240.05a7.93,7.93,0,0,1,0-5.28c1.42-3.15,5.16-5.9,6.16-4.4a5,5,0,0,1,.79,3.27,62.36,62.36,0,0,1-.79,8.17Z"/><path class="cls-25" d="M324.6,230.37s-3.65-4.35-6.16-3.52-3.52,10.56-3.52,10.56l3.52,2.64S318.44,233,324.6,230.37Z"/><circle class="cls-12" cx="326.36" cy="251.49" r="1.76"/><circle class="cls-12" cx="324.6" cy="253.25" r="1.76"/><circle class="cls-12" cx="321.96" cy="255.01" r="1.76"/><circle class="cls-12" cx="319.32" cy="256.77" r="1.76"/><circle class="cls-12" cx="317.11" cy="258.56" r="1.76"/><circle class="cls-12" cx="314.98" cy="259.85" r="1.76"/><circle class="cls-12" cx="312.87" cy="261.81" r="1.76"/><circle class="cls-12" cx="310.98" cy="263.79" r="1.76"/><path class="cls-5" d="M320.2,259.41s-7.92,5.28-11.44,4.4S307,277,307,277s6.16,17.6,12.32,13.2S320.2,259.41,320.2,259.41Z"/><path class="cls-12" d="M271.22,242.48s5.16-2.27,6.91,2,1.14,4.39,1.14,4.39l-1.94.78.22,6.43s-7.73,0-8.72-1.5,1.52-8,1.52-8-1.51-.37-1.5-1.29,1.12-1.15,2.12-.23S271.22,242.48,271.22,242.48Z"/><path class="cls-15" d="M277.07,242.66s-1.11-4.12-2.31-4.51l-.67.78s-3.76-.65-4.48.33a10.22,10.22,0,0,1-1.86,1.84s.57,2.56,0,2.76,3.33,1.69,3.33,1.69l-.25-2.89,2-.92,2.62.11Z"/><path class="cls-12" d="M269.38,254.13s-10.79,14.62-9.7,23.63c0,0,16.18,1.12,21.44-1.65,0,0-1-17.42-3.41-20.57C277.71,255.54,271.18,255.46,269.38,254.13Z"/><path class="cls-13" d="M259.6,277.46s8.23,14.05,13.35,24.71l4.27.74s3.37-19.28,3.47-27.44"/><line class="cls-26" x1="276.08" y1="244.77" x2="275.16" y2="245.55"/><path class="cls-17" d="M272.53,302.29v3.13s5.48,1.85,8.56,0L277,303Z"/><rect class="cls-19" x="268.34" y="243.06" width="3.04" height="1.25" rx="0.59" ry="0.59"/><path class="cls-12" d="M276.81,259.78s4.75,10.63,7.94,12.28c0,0-11.78-6.9-12.19-14.43"/><path class="cls-5" d="M269,255.2s6.6,2.77,9.29,1.32l-.54-1s-7.22-.2-8.33-1.41Z"/><line class="cls-7" x1="286.78" y1="259.56" x2="282.99" y2="275.11"/><line class="cls-18" x1="287.45" y1="256.82" x2="286.56" y2="260.48"/><rect id="hidden-2" data-name="hidden" class="cls-22" x="244.88" y="212.93" width="90.63" height="97.28"/><g id="sign-2" data-name="sign"><path class="cls-23" d="M289.48,227.36,289,238.58h-1.15l-.52-11.22Zm-.07,15.95h-2.05v-2.63h2.05Z"/></g><text class="cls-27" transform="translate(294.68 238.98) rotate(1.95)">#?</text><text class="cls-28" transform="translate(306.39 227.25) rotate(18.89)">+</text><text class="cls-29" transform="translate(301.59 251.85) rotate(-16.45)">=</text></g></g><g id="_Island_2_" data-name="&lt;Island 2&gt;"><polygon class="cls-3" points="432.21 401.58 432.21 379.65 454.14 353.91 525.65 317.68 550.44 311 550.44 331.03 432.21 401.58"/><polygon class="cls-3" points="350.22 331.03 350.22 354.86 432.21 401.58 432.21 379.65 419.82 364.4 350.22 331.03"/><polygon class="cls-4" points="467.49 263.33 350.22 331.03 432.21 379.65 550.44 311 467.49 263.33"/><polygon class="cls-24" points="399.96 244.45 363.88 266.32 363.88 312.24 399.96 289.28 399.96 244.45"/><g class="cls-2"><g class="cls-30"><path class="cls-31" d="M382.43,286.1c-3.43,2-6.23.38-6.24-3.56a13.69,13.69,0,0,1,6.2-10.74l.32-.18c3.31-1.71,5.91-.08,5.92,3.74a13.74,13.74,0,0,1-5.88,10.55l-.32.19M387.14,264l-9.06,5.24-6.4,11.07,0,10.42,6.44,3.66,9.06-5.24,6.39-11.06,0-10.42L387.14,264"/><path class="cls-32" d="M383.49,281a2.67,2.67,0,0,1,1.21-2.09c.67-.39,1.22-.08,1.22.69a2.7,2.7,0,0,1-1.21,2.1c-.67.38-1.21.07-1.22-.7l.36-.2-.36.2m0-8.51.17.14a2.58,2.58,0,0,1,.76,1.89,4.93,4.93,0,0,1-.47,2A11.61,11.61,0,0,1,382.3,279a8.18,8.18,0,0,0-1.16,1.82,3.17,3.17,0,0,0-.3,1.29,2.36,2.36,0,0,0,.93,1.82,3.71,3.71,0,0,0,1.13.61h0l.05,0a11.62,11.62,0,0,0,4.66-8.68c0-2.88-1.78-4.28-4.16-3.48"/><path class="cls-31" d="M384.71,279.68a1.1,1.1,0,0,0-.51.88l-.35.2.35-.2c0,.31.23.44.51.28a1.12,1.12,0,0,0,.5-.87c0-.32-.22-.45-.5-.29"/><path class="cls-31" d="M379.75,278.94a.64.64,0,0,1-.28-.6,1.88,1.88,0,0,1,.27-.91,1.91,1.91,0,0,1,.66-.69.65.65,0,0,1,.65-.07.64.64,0,0,1,.28.6,1.88,1.88,0,0,1-.27.91,2,2,0,0,1-.63.68h-.05a.63.63,0,0,1-.63.06l.25-.43-.25.43m2.64-6h0a11.53,11.53,0,0,0-5.21,9c0,3.11,2.08,4.48,4.72,3.26a3,3,0,0,1-.56-.35,2.79,2.79,0,0,1-1.21-2.32,4.47,4.47,0,0,1,.42-1.81,9.62,9.62,0,0,1,1.4-2.21,9.86,9.86,0,0,0,1.4-2.19,3.62,3.62,0,0,0,.35-1.46,2.07,2.07,0,0,0-1.24-1.9h0l-.06,0"/><polyline class="cls-32" points="380.4 277.55 380.24 277.72 380.18 277.93 380.24 278.07 380 278.51 380.24 278.07 380.4 278.05 380.56 277.89 380.62 277.68 380.56 277.54 380.4 277.55"/><path class="cls-32" d="M378.15,294.4l-6.44-3.66,0-10.42,6.4-11.07,9.06-5.24,6.43,3.67,0,10.42-6.39,11.06-9.06,5.24m9.57-34-10.24,5.91a3,3,0,0,0-1,1.06l-7.21,12.5a2.85,2.85,0,0,0-.42,1.39l0,11.77a1,1,0,0,0,.42.91l7.26,4.15a1,1,0,0,0,1-.11l10.24-5.91a2.93,2.93,0,0,0,1-1.06l7.22-12.5a2.83,2.83,0,0,0,.41-1.39l0-11.77a1,1,0,0,0-.42-.91l-7.27-4.14a1,1,0,0,0-1,.1"/><path class="cls-32" d="M382.42,272.93h0l.06,0h0a2.07,2.07,0,0,1,1.24,1.9,3.62,3.62,0,0,1-.35,1.46,9.86,9.86,0,0,1-1.4,2.19,9.62,9.62,0,0,0-1.4,2.21,4.47,4.47,0,0,0-.42,1.81,2.79,2.79,0,0,0,1.21,2.32,3,3,0,0,0,.56.35,4.3,4.3,0,0,0,.52-.27l.27-.16.29-.19-.05,0h0a3.71,3.71,0,0,1-1.13-.61,2.36,2.36,0,0,1-.93-1.82,3.17,3.17,0,0,1,.3-1.29A8.18,8.18,0,0,1,382.3,279a11.61,11.61,0,0,0,1.64-2.57,4.93,4.93,0,0,0,.47-2,2.58,2.58,0,0,0-.76-1.89l-.17-.14a4.39,4.39,0,0,0-.82.35l-.24.13"/><path class="cls-32" d="M380.4,276.74a1.91,1.91,0,0,0-.66.69,1.88,1.88,0,0,0-.27.91.64.64,0,0,0,.28.6l.25-.43.24-.44-.06-.14.06-.21.16-.17h.16l.06.14-.06.21-.16.16-.16,0-.24.44-.25.43a.63.63,0,0,0,.63-.06h.05a2,2,0,0,0,.63-.68,1.88,1.88,0,0,0,.27-.91.64.64,0,0,0-.28-.6.65.65,0,0,0-.65.07"/><path class="cls-32" d="M384.7,278.87a2.67,2.67,0,0,0-1.21,2.09l.36-.2.35-.2a1.1,1.1,0,0,1,.51-.88c.28-.16.5,0,.5.29a1.12,1.12,0,0,1-.5.87c-.28.16-.51,0-.51-.28l-.35.2-.36.2c0,.77.55,1.08,1.22.7a2.7,2.7,0,0,0,1.21-2.1c0-.77-.55-1.08-1.22-.69"/><path class="cls-32" d="M382.39,272.94h0l.24-.13a4.39,4.39,0,0,1,.82-.35c2.38-.8,4.15.6,4.16,3.48a11.62,11.62,0,0,1-4.66,8.68l-.29.19-.27.16a4.3,4.3,0,0,1-.52.27c-2.64,1.22-4.71-.15-4.72-3.26a11.53,11.53,0,0,1,5.21-9h0m0-1.14a13.69,13.69,0,0,0-6.2,10.74c0,3.94,2.81,5.54,6.24,3.56l.32-.19a13.74,13.74,0,0,0,5.88-10.55c0-3.82-2.61-5.45-5.92-3.74l-.32.18"/></g></g><path class="cls-12" d="M427.14,259.06s4.93-2.2,6.61,1.95,1.09,4.25,1.09,4.25L433,266l.22,6.21s-7.39,0-8.35-1.44,1.46-7.74,1.46-7.74-1.45-.36-1.44-1.25,1.08-1.11,2-.22S427.14,259.06,427.14,259.06Z"/><circle class="cls-16" cx="431.55" cy="261.35" r="0.18"/><path class="cls-16" d="M432.74,259.23s-1.06-4-2.22-4.36l-.63.76s-3.61-.64-4.29.32a9.92,9.92,0,0,1-1.78,1.77s.55,2.48,0,2.67S427,262,427,262l-.25-2.8,1.92-.88,2.51.1Z"/><path class="cls-12" d="M424.85,270.32s-10.8,16.22-9.71,26.21c0,0,16.2,1.24,21.48-1.83,0,0-1-19.32-3.42-22.81C433.2,271.89,426.65,271.8,424.85,270.32Z"/><path class="cls-13" d="M415.06,296.83s8.24,13.58,13.36,23.89l4.29.72s3.37-18.65,3.47-26.54"/><path class="cls-17" d="M428.42,320.72v3s5.24,1.79,8.2,0l-3.91-2.3Z"/><path class="cls-24" d="M441.47,322.72v21.4s3.42,3.42,6,0v-21.4Z"/><path class="cls-24" d="M484.46,298.76v21.4s3.42,3.42,6,0v-21.4Z"/><path class="cls-24" d="M416.84,306.46v21.4s3.43,3.42,6,0v-21.4Z"/><g class="cls-2"><polygon class="cls-24" points="414.04 307.11 414.05 311.23 445.1 329.28 445.09 325.15 414.04 307.11"/><polygon class="cls-24" points="445.09 325.15 445.1 329.28 491.73 302.36 491.72 298.23 445.09 325.15"/><polygon class="cls-24" points="414.04 307.11 445.09 325.15 491.72 298.23 460.67 280.19 414.04 307.11"/></g><path class="cls-24" d="M455.32,290.17l-31.53,18.92,21.94,13.4a8.23,8.23,0,0,1,3.95,6.82l.39,15.34,31.53-19.79.27-15.1a5.57,5.57,0,0,0-2.63-4.83Z"/><path class="cls-12" d="M481.6,279s-4.93-2.2-6.61,2-1.09,4.25-1.09,4.25l1.86.75-.22,6.21s7.4,0,8.35-1.44-1.45-7.74-1.45-7.74,1.44-.36,1.43-1.25-1.07-1.11-2-.22S481.6,279,481.6,279Z"/><circle class="cls-16" cx="477.19" cy="281.32" r="0.18"/><path class="cls-15" d="M476,279.2s1.05-4,2.21-4.36l.64.76s3.6-.64,4.28.32a9.82,9.82,0,0,0,1.79,1.77s-.55,2.48,0,2.67-3.2,1.64-3.2,1.64l.25-2.8-1.92-.88-2.51.1Z"/><path class="cls-12" d="M483.89,290.29s10.8,16.22,9.72,26.21c0,0-16.21,1.24-21.48-1.83,0,0,1-19.32,3.41-22.81C475.54,291.86,482.09,291.77,483.89,290.29Z"/><path class="cls-13" d="M493.68,316.8s-8.23,13.58-13.36,23.89l-4.28.72s-3.38-18.65-3.47-26.54"/><path class="cls-17" d="M480.32,340.69v3s-5.24,1.79-8.19,0l3.91-2.3Z"/><rect class="cls-19" x="481.45" y="279.59" width="2.91" height="1.2" rx="0.54" ry="0.54" transform="translate(965.81 560.38) rotate(-180)"/><path class="cls-12" d="M476.67,297.62s-7.57,8.3-11,8.84c0,0,12.8-2.74,15.48-9.52"/><g id="_trigger_fortune_telling_" data-name="&lt;trigger_fortune_telling&gt;"><g class="cls-2"><path class="cls-3" d="M470.25,282.58l0,7.27a2.15,2.15,0,0,1-1.25,1.76,6.76,6.76,0,0,1-6.1,0,2.18,2.18,0,0,1-1.27-1.78l0-7.27a2.15,2.15,0,0,0,1.27,1.77,6.73,6.73,0,0,0,6.1,0A2.15,2.15,0,0,0,470.25,282.58Z"/><path class="cls-4" d="M469,280.8c1.69,1,1.7,2.56,0,3.54a6.73,6.73,0,0,1-6.1,0c-1.69-1-1.7-2.55,0-3.52A6.73,6.73,0,0,1,469,280.8Z"/></g><line class="cls-21" x1="466.16" y1="275.94" x2="464.86" y2="285.11"/><polyline class="cls-33" points="467.07 277.75 467.49 284.87 471.61 275.94"/><line class="cls-34" x1="463.44" y1="275.94" x2="463.44" y2="284.11"/><polygon class="cls-24" points="453.22 298.58 439.56 306.99 449.01 312.24 461.63 303.83 453.22 298.58"/><polygon class="cls-21" points="446.91 308.04 429.05 309.09 428.63 311.22 444.71 310.27 446.91 308.04"/><path id="_hand_" data-name="&lt;hand&gt;" class="cls-12" d="M432.48,275.78s4.55,10.28,7.6,11.87c0,0-11.27-6.66-11.66-13.94"/><path class="cls-32" d="M444.42,310.24s4.49,2.28,7.66-.4c.39-.34-1-2.29-2.8-2.79a7.12,7.12,0,0,0-3.94.49Z"/></g><rect id="hidden-3" data-name="hidden" class="cls-22" x="403.58" y="245.51" width="97.98" height="105.62"/><g id="sign-3" data-name="sign"><path class="cls-23" d="M470.26,264.15l-.52,11.22h-1.15l-.52-11.22Zm-.07,15.94h-2.05v-2.62h2.05Z"/></g></g><g id="_Island_1_" data-name="&lt;Island 1&gt;"><polyline class="cls-7" points="258.78 358.98 258.78 300.16 336.89 343.55 336.89 399.48"/><polygon class="cls-3" points="341.81 400.53 341.81 426.81 264.03 472 264.03 438.37 300.82 417.35 318.69 406.84 341.81 400.53"/><polygon class="cls-3" points="177.85 394.22 177.85 422.6 264.03 472 264.03 440.47 228.3 409.99 179.43 394.22 177.85 394.22"/><polygon class="cls-35" points="252.47 350.08 177.85 394.22 264.03 445.72 341.81 400.53 252.47 350.08"/><g class="cls-2"><polygon class="cls-4" points="328.93 386.02 328.89 401.13 308.57 412.93 308.62 397.83 328.93 386.02"/><polygon class="cls-4" points="308.62 397.83 308.57 412.93 243.59 375.41 243.63 360.31 308.62 397.83"/><polygon class="cls-4" points="328.93 386.02 308.62 397.83 243.63 360.31 263.94 348.5 328.93 386.02"/><polygon class="cls-4" points="328.93 386.02 308.62 397.83 243.63 360.31 263.94 348.5 328.93 386.02"/><polygon class="cls-4" points="322.4 386.01 308.69 393.71 250.83 360.63 264.54 352.92 322.4 386.01"/></g><path class="cls-35" d="M289.16,342.17s-.78,2.35-1.56,2.74-5.89,1.57-5.75,8.09a4.09,4.09,0,0,0,.25.94c1.18,2.35,4.32,0,4.32,0a2.43,2.43,0,0,1,2-3.14c3.85-1.1,2,.78,6.28-.39a7.36,7.36,0,0,0,2.66-1c.66-.38,1.67-1.93,2.05-2.18a43.82,43.82,0,0,1,5.49-2.36s1.57-3.13-1.57-3.92l-7.46,2.36-.39-1.57Z"/><path class="cls-35" d="M287.2,339.42s0-6.67,5.1-5.49,3.95,8,2.4,9c-.68.46-3.16.4-4.36.4C287.6,343.35,287.2,341.38,287.2,339.42Z"/><path class="cls-35" d="M293.29,338.1s.72,1.8.36,2.52.73-.5,1.8-.36a23.72,23.72,0,0,0,7.19-1.08c1-.54,2.23-5-2.16-5-1.8,0-2.46,3.46-3.07,3.82-1.83,1.09-2,.61-2,.61Z"/><path class="cls-35" d="M268.14,331.66s-.78,2.35-1.57,2.74-5.88,1.57-5.74,8.09a4.09,4.09,0,0,0,.25.94c1.18,2.35,4.32,0,4.32,0a2.43,2.43,0,0,1,2-3.14c3.85-1.1,2,.78,6.28-.39a7.36,7.36,0,0,0,2.66-1c.66-.38,1.67-1.93,2.05-2.18a43.82,43.82,0,0,1,5.49-2.36s1.57-3.13-1.57-3.92l-7.46,2.35-.39-1.56Z"/><path class="cls-35" d="M266.18,328.91s0-6.67,5.1-5.49,4,8,2.4,9c-.68.46-3.16.39-4.36.39C266.57,332.83,266.18,330.87,266.18,328.91Z"/><path class="cls-35" d="M268.93,327.59s-.72,1.8-.36,2.52-.73-.5-1.8-.36a23.67,23.67,0,0,1-7.19-1.08c-1-.54-2.23-5,2.16-5,1.79,0,2.46,3.46,3.07,3.82,1.83,1.09,2,.61,2,.61Z"/><path class="cls-35" d="M312.29,354.78s-.79,2.35-1.57,2.75-5.89,1.57-5.74,8.08a3.61,3.61,0,0,0,.24.94c1.18,2.36,4.32,0,4.32,0a2.44,2.44,0,0,1,2-3.14c3.85-1.1,2,.79,6.28-.39a7.39,7.39,0,0,0,2.66-.95c.67-.39,1.67-1.94,2.05-2.19a45.65,45.65,0,0,1,5.49-2.35s1.57-3.14-1.57-3.93L319,356l-.4-1.57Z"/><path class="cls-35" d="M310.33,352s0-6.67,5.1-5.49,3.94,8,2.39,9c-.68.45-3.15.39-4.36.39C310.72,356,310.33,354,310.33,352Z"/><path class="cls-35" d="M313.07,350.71s-.72,1.8-.36,2.52-.73-.5-1.8-.36a23.46,23.46,0,0,1-7.19-1.08c-1-.54-2.23-5,2.16-5,1.8,0,2.47,3.47,3.07,3.83,1.84,1.09,2,.6,2,.6Z"/><g id="_trigger_wash_hand_" data-name="&lt;trigger_wash_hand&gt;"><g id="mother-2" data-name="mother"><path class="cls-11" d="M263.61,346.88s-9.87,15.7-8.87,25.38c0,0,14.8,1.2,19.62-1.78,0,0-.88-18.7-3.12-22.09C271.24,348.39,265.26,348.3,263.61,346.88Z"/><polygon class="cls-12" points="263.86 347.28 269.3 350 270.21 348.64 263.86 347.28"/><path class="cls-13" d="M254.67,372.55s7.52,13.15,12.21,23.13l3.91.7s3.09-18.06,3.18-25.7"/><path class="cls-15" d="M270.18,339.73c3.41-1.16,4.58-6.84-5.06-4.19,0,0-1.71-.47-1.72-.44-.21.93-2.15,15.9-5.93,12.73,0,0,3.9,4,6,2.28l1.27-1.37,5.45-8.92S270.15,339.74,270.18,339.73Z"/><path class="cls-12" d="M265.07,338.48a.1.1,0,0,1,.06-.12c.61-.26,4.84-2.44,6.25,1.2,1.32,3.43,1.37,3.58,1.28,3.66l0,0-1.62.69a.11.11,0,0,0-.06.11l.3,4.4s-6.05.22-6.92-1.16.17-5.2.47-6a.12.12,0,0,0-.06-.15c-.32-.1-1.21-.46-1.21-1.16s1-1.06,1.86-.21S265.17,339,265.07,338.48Z"/><ellipse class="cls-16" cx="269.46" cy="341" rx="0.16" ry="0.18"/><path class="cls-17" d="M266.88,395.68v2.92s4.79,1.74,7.48,0l-3.57-2.22Z"/></g><path id="_hand_2" data-name="&lt;hand&gt;" class="cls-11" d="M272.51,360.19s9.47,4.65,12.52,3.89c0,0-11.75,2.22-16.55-2.86"/><line id="_water-4_" data-name="&lt;water-4&gt;" class="cls-11" x1="280.85" y1="360.59" x2="280.85" y2="376.36"/><line id="_water-3_" data-name="&lt;water-3&gt;" class="cls-11" x1="284" y1="366.9" x2="284" y2="371.1"/><line id="_water-2_" data-name="&lt;water-2&gt;" class="cls-11" x1="286.1" y1="360.59" x2="286.1" y2="369"/><line id="_water-1_" data-name="&lt;water-1&gt;" class="cls-11" x1="282.95" y1="356.39" x2="282.95" y2="366.9"/></g><g id="sign-4" data-name="sign"><path class="cls-23" d="M225.37,370.3l-.52,11.22H223.7l-.52-11.22Zm-.07,15.95h-2.05v-2.62h2.05Z"/></g><rect id="hidden-4" data-name="hidden" class="cls-22" x="199.68" y="328.54" width="90.63" height="97.28"/><g id="_群組_" data-name="&lt;群組&gt;"><path class="cls-12" d="M240.89,358.14s4.62-2.24,6.19,2,1,4.34,1,4.34l-1.74.77.2,6.35s-6.91,0-7.81-1.47,1.36-7.92,1.36-7.92-1.35-.36-1.34-1.27,1-1.14,1.9-.23S240.89,358.14,240.89,358.14Z"/><ellipse class="cls-16" cx="245.02" cy="360.48" rx="0.17" ry="0.18"/><path class="cls-15" d="M246.13,358.32s-1-4.07-2.07-4.46l-.6.78s-3.37-.65-4,.32a9.86,9.86,0,0,1-1.66,1.82s.51,2.53,0,2.72,3,1.68,3,1.68l-.23-2.86,1.8-.9,2.34.1Z"/><path class="cls-12" d="M238.75,369.66s-10.1,16.58-9.08,26.79c0,0,15.15,1.27,20.09-1.87,0,0-.91-19.75-3.2-23.32C246.56,371.26,240.44,371.17,238.75,369.66Z"/><path class="cls-13" d="M229.6,396.76s7.7,13.89,12.49,24.42l4,.74s3.16-19.06,3.25-27.13"/><path class="cls-17" d="M242.09,421.18v3.09s4.91,1.83,7.67,0l-3.66-2.35Z"/><rect class="cls-19" x="238.32" y="358.71" width="2.72" height="1.23" rx="0.59" ry="0.59"/><path class="cls-12" d="M245.89,375.24s4.26,10.51,7.11,12.14c0,0-10.54-6.82-10.91-14.26"/></g></g></g></g></svg>