<?xml version="1.0" encoding="utf-8"?>
<!-- Generator: Adobe Illustrator 22.0.1, SVG Export Plug-In . SVG Version: 6.00 Build 0)  -->
<svg version="1.1" id="圖層_1" xmlns="http://www.w3.org/2000/svg" xmlns:xlink="http://www.w3.org/1999/xlink" x="0px" y="0px"
	 viewBox="0 0 614.2 529.4" style="enable-background:new 0 0 614.2 529.4;" xml:space="preserve">
<style type="text/css">
	.st0{fill:none;stroke:#000000;stroke-miterlimit:10;}
	.st1{fill:#C92028;stroke:#000000;stroke-miterlimit:10;}
	.st2{fill:#FFFFFF;stroke:#000000;stroke-miterlimit:10;}
	.st3{fill:#FFFFFF;stroke:#1A1A1A;stroke-linecap:round;stroke-linejoin:round;}
	.st4{fill:#FFF5F6;stroke:#1A1A1A;stroke-linecap:round;stroke-linejoin:round;}
	.st5{fill:#FFFFFF;stroke:#1A1A1A;stroke-width:0.8;stroke-linecap:round;stroke-linejoin:round;}
	.st6{fill:#FFFFFF;stroke:#1A1A1A;stroke-width:0.8;stroke-miterlimit:10;}
	.st7{fill:#1A1A1A;stroke:#1A1A1A;stroke-width:0.8;stroke-miterlimit:10;}
	.st8{fill:#C92028;}
	.st9{fill:none;stroke:#191919;stroke-miterlimit:10;}
	.st10{fill:none;stroke:#1A1A1A;stroke-width:0.8;stroke-miterlimit:10;}
	.st11{fill:#BE2229;}
	.st12{fill:#FFF5F6;}
	.st13{fill:#DBC6C9;}
	.st14{fill:#FEF4F5;}
	.st15{fill:#FFFFFF;}
	.st16{fill:none;stroke:#000000;stroke-linecap:round;stroke-linejoin:round;}
	.st17{fill:#FFFFFF;stroke:#000000;stroke-linecap:round;stroke-linejoin:round;}
	.st18{fill:#B02028;stroke:#000000;stroke-linecap:round;stroke-linejoin:round;}
	.st19{fill:none;stroke:#000000;stroke-width:2;stroke-miterlimit:10;}
	.st20{fill:none;stroke:#000000;stroke-width:2;stroke-linejoin:round;}
	.st21{fill:#B02028;stroke:#000000;stroke-miterlimit:10;}
	.st22{fill:none;stroke:#000000;stroke-width:2;stroke-linecap:round;stroke-linejoin:round;}
	.st23{fill:#FFF5F6;stroke:#000000;stroke-miterlimit:10;}
	.st24{fill:#C92028;stroke:#1A1A1A;stroke-width:0.8;stroke-linecap:round;stroke-linejoin:round;}
	.st25{fill:none;stroke:#1A1A1A;stroke-width:0.8;stroke-linecap:round;stroke-linejoin:round;}
	.st26{fill:#C92028;stroke:#1A1A1A;stroke-width:0.8;stroke-linejoin:round;}
	.st27{fill:#1A1A1A;stroke:#1A1A1A;stroke-width:0.8;stroke-linecap:round;stroke-linejoin:round;}
	.st28{fill:none;stroke:#1A1A1A;stroke-linecap:round;stroke-linejoin:round;}
	.st29{fill:#C92028;stroke:#1A1A1A;stroke-width:0.8;stroke-miterlimit:10;}
	.st30{fill:#FFFFFF;stroke:#1A1A1A;stroke-miterlimit:10;}
	.st31{fill:#C92028;stroke:#1A1A1A;stroke-miterlimit:10;}
	.st32{fill:none;stroke:#1A1A1A;stroke-width:2;stroke-linecap:round;stroke-linejoin:round;}
	.st33{fill:#BE2229;stroke:#1A1A1A;stroke-linecap:round;stroke-linejoin:round;}
	.st34{fill:#C92028;stroke:#000000;stroke-linejoin:round;}
	.st35{fill:none;stroke:#000000;stroke-linejoin:round;}
	.st36{fill:none;stroke:#000000;stroke-linecap:round;stroke-miterlimit:10;}
	.st37{fill:#FFFFFF;stroke:#1A1A1A;stroke-width:0.8;stroke-linejoin:round;}
	.st38{fill:none;stroke:#1A1A1A;stroke-miterlimit:10;}
	.st39{fill:#FFF5F6;stroke:#1A1A1A;stroke-width:0.8;stroke-miterlimit:10;}
</style>
<title>_</title>
<g>
	<g id="西門站">
		<g id="island_1">
			<g id="大地板">
				<polyline class="st0" points="24.1,240.4 271.6,97.5 545.7,255.8 354.1,365.4 217.1,286.3 				"/>
				<polygon class="st1" points="545.7,255.8 545.7,275.7 354.1,384.4 354.8,366 				"/>
				<polygon class="st1" points="353.8,384.1 354.5,365.6 217.4,286.5 217.4,306 				"/>
				<polygon class="st1" points="160.4,338.6 161.1,320.1 24.1,241 24.1,260.5 				"/>
				<polygon class="st1" points="161.1,320.1 160.4,338.6 217.4,306 217.4,286.5 				"/>
				<polygon class="st2" points="24.1,241 161.1,320.1 217.4,286.5 354.5,365.6 545.7,255.8 271.6,97.5 				"/>
			</g>
			<g id="售票亭">
				<polygon class="st3" points="137.5,122.3 172.9,143.3 138.1,163.1 102.6,142.7 				"/>
				<polygon class="st4" points="102.6,212.2 102.6,142.7 138.1,163.1 138.1,234 				"/>
				<polygon class="st3" points="173.1,212.9 172.9,143.3 138.1,163.1 138.1,234 				"/>
				<polygon class="st3" points="154.6,219.5 154.6,195.1 142.3,202 142.3,226.9 				"/>
				<path class="st5" d="M155.1,166.9c0,0,5.8-2.7,7.8,2.4s1.3,5.3,1.3,5.3l-2.2,0.9l0.3,7.8c0,0-8.7,0-9.9-1.8s1.7-9.7,1.7-9.7
					s-1.7-0.4-1.7-1.6s1.3-1.4,2.4-0.3S155.1,166.9,155.1,166.9z"/>
				<ellipse class="st6" cx="160.3" cy="169.8" rx="0.2" ry="0.2"/>
				<path class="st7" d="M161.7,167.1c0,0-1.2-5-2.6-5.4l-0.8,1c0,0-4.2-0.8-5.1,0.4c-0.6,0.8-1.3,1.6-2.1,2.2c0,0,0.6,3.1,0,3.3
					s3.8,2,3.8,2l-0.3-3.5l2.3-1.1l3,0.1L161.7,167.1z"/>
				<path class="st8" d="M152.5,167.6h2.1c0.4,0,0.7,0.3,0.7,0.7v0.2c0,0.4-0.3,0.7-0.7,0.7h-2.1c-0.4,0-0.7-0.3-0.7-0.7v-0.2
					C151.8,167.9,152.1,167.6,152.5,167.6z"/>
				<path class="st9" d="M166.7,164c-0.5-9.9-9.3-4.5-9.3-4.5c-5.4,2.9-9,8.5-9.3,14.7c-0.5,10.4,0,21,0,21l9.3-5.1l9.3-5.1
					C166.7,185,167.2,173.9,166.7,164z"/>
				<line class="st0" x1="147.1" y1="213.7" x2="152.5" y2="210.7"/>
				<circle class="st2" cx="144.9" cy="214.6" r="0.5"/>
				<line class="st10" x1="147.9" y1="188.1" x2="152.4" y2="181.6"/>
				<line class="st0" x1="162.2" y1="183.4" x2="165" y2="186"/>
				<circle class="st2" cx="144.7" cy="204.7" r="0.5"/>
				<line class="st0" x1="146.9" y1="203.7" x2="152.4" y2="200.7"/>
				<circle class="st2" cx="144.9" cy="208" r="0.5"/>
				<line class="st0" x1="147.1" y1="207.1" x2="152.5" y2="204.1"/>
				<circle class="st2" cx="144.9" cy="211.3" r="0.5"/>
				<line class="st0" x1="147.1" y1="210.4" x2="152.5" y2="207.4"/>
			</g>
			<polygon class="st11" points="262.1,192.1 262.1,39.6 326.6,3.9 465.9,85.4 465.9,236.7 424.7,261.3 354.3,273.6 275.9,230.6 			
				"/>
			<polygon class="st12" points="262.1,60.9 262.1,89.6 275.9,128.1 348.3,167.8 354.3,171.1 424.7,158.8 465.9,134.2 465.9,103.7 
				424.7,128.2 416.4,129.7 416.5,141.3 362.7,150.1 362.9,139 356.9,140.1 277.4,101.3 			"/>
			<polygon class="st13" points="353.7,186.3 273.6,142.4 262.1,107.4 262.4,97.9 277.9,138.7 354.6,180.7 423.6,168.7 465.8,143.5 
				465.9,149.7 425.5,173.8 			"/>
			<polygon class="st14" points="353.7,189.2 273.6,145.3 262.1,110.3 262.4,100.8 277.9,141.6 354.6,183.6 423.6,171.6 
				465.8,146.4 465.9,152.6 425.5,176.6 			"/>
			<polygon class="st13" points="353.7,204.9 273.6,161 262.1,126.1 262.4,116.5 277.9,157.3 354.6,199.4 423.6,187.3 465.8,162.2 
				465.9,168.3 425.5,192.4 			"/>
			<polygon class="st14" points="353.7,206.9 273.6,163 262.1,128 262.4,118.5 277.9,159.2 354.6,201.3 423.6,189.3 465.8,164.1 
				465.9,170.3 425.5,194.3 			"/>
			<polygon class="st13" points="353.7,224.4 273.6,180.5 262.1,145.5 262.4,136 277.9,176.8 354.6,218.8 423.6,206.8 465.8,181.6 
				465.9,187.8 425.5,211.9 			"/>
			<polygon class="st14" points="353.7,226.3 273.6,182.4 262.1,147.5 262.4,137.9 277.9,178.7 354.6,220.8 423.6,208.7 
				465.8,183.6 465.9,189.7 425.5,213.8 			"/>
			<polygon class="st0" points="262.1,39.6 262.1,192.1 275.9,230.6 354.3,273.6 424.7,261.3 465.9,236.7 465.9,85.4 326.6,3.9 			
				"/>
			<polygon class="st12" points="419.2,159.8 419.5,267.2 425,270.4 430.8,268.5 430,155.6 424.7,158.8 			"/>
			<polyline class="st12" points="348.8,276.1 354.3,279.3 360,277.5 359.8,170.6 354.3,171.1 348.3,167.8 			"/>
			<polygon class="st12" points="270.5,113.9 270.7,234.9 276.2,238 282,236.2 282,128.8 274.8,125.9 			"/>
			<polygon class="st15" points="264.6,124.1 267.8,129.6 267.5,161.6 264.6,156.4 			"/>
			<polygon class="st12" points="260.2,43.2 260.2,47.7 267.1,54.1 270.1,47.2 273.5,63.5 283.4,76 286.5,75.5 286.3,70.9 278,60.3 
				275.2,39.6 271.7,40.4 267.8,48.3 262.2,42.1 			"/>
			<polygon class="st12" points="287.5,82.4 304.4,92.1 317.9,80.8 335.5,111.4 353.5,119.2 357.5,117.4 357.6,111.9 342.8,104.7 
				324.7,74 318.4,74.5 306.9,83.8 292.4,75.4 286.8,77.5 			"/>
			<polygon class="st12" points="361.4,119.6 361.4,115.3 379.1,112.4 387.9,90.8 390.3,93.3 400.7,108.9 416.7,106.8 419.4,109.8 
				419.4,113.8 401.8,116.2 391.1,101.3 384.4,119 364,122.1 			"/>
			<polygon class="st15" points="377.6,229.6 377.9,250.8 405.3,247.4 405.3,231 384.4,234.6 			"/>
			<polyline class="st0" points="262.1,89.6 275.9,128.1 354.3,171.1 424.7,158.8 465.9,134.2 			"/>
			<polyline class="st0" points="262,70.7 275.8,109.2 354.2,152.1 424.6,139.9 465.8,115.3 			"/>
			<polyline class="st0" points="416.3,129.7 424.7,128.2 465.9,103.7 			"/>
			<line class="st0" x1="356.9" y1="140.1" x2="362.7" y2="139"/>
			<polyline class="st0" points="353.3,139.9 275.9,97.5 262.1,59 			"/>
			<polyline class="st0" points="419.8,110.4 424.6,109.5 465.8,85 			"/>
			<line class="st0" x1="356.5" y1="121.4" x2="362.7" y2="120.3"/>
			<line class="st0" x1="283.1" y1="82.9" x2="288.5" y2="85.8"/>
			<line class="st0" x1="262" y1="40.4" x2="263.1" y2="43.5"/>
			<polygon class="st16" points="419.4,113.8 401.9,116.4 391.4,100.6 384.4,119 364,122.1 364,118.1 382,115.4 390.3,93.3 
				403,112.3 419.4,109.8 			"/>
			<line class="st16" x1="382" y1="115.4" x2="379.1" y2="112.4"/>
			<line class="st16" x1="364.3" y1="118.3" x2="361.4" y2="115.3"/>
			<line class="st16" x1="361.4" y1="115.3" x2="379.1" y2="112.4"/>
			<line class="st16" x1="390.8" y1="93.8" x2="387.9" y2="90.8"/>
			<line class="st16" x1="419.5" y1="109.8" x2="416.7" y2="106.8"/>
			<line class="st16" x1="364" y1="122.1" x2="361.4" y2="119.6"/>
			<line class="st16" x1="361.4" y1="115.3" x2="361.4" y2="119.6"/>
			<line class="st16" x1="379.1" y1="112.4" x2="387.9" y2="90.8"/>
			<line class="st16" x1="416.7" y1="106.8" x2="400.7" y2="108.9"/>
			<polygon class="st16" points="260.2,47 267.1,54.1 270.1,47.2 272.9,62.3 283.4,76 283.4,71.7 275.5,61.2 271.8,40.2 266.7,50.5 
				260.2,43.2 			"/>
			<line class="st16" x1="275.5" y1="61.2" x2="278.1" y2="60.6"/>
			<line class="st16" x1="283.4" y1="71.7" x2="286" y2="71.1"/>
			<line class="st16" x1="286.3" y1="70.9" x2="278.1" y2="60.6"/>
			<line class="st16" x1="271.8" y1="40.2" x2="275.2" y2="39.6"/>
			<line class="st16" x1="260.2" y1="43.2" x2="262.2" y2="42.1"/>
			<line class="st16" x1="284.3" y1="75.8" x2="286.5" y2="75.5"/>
			<line class="st16" x1="286.7" y1="71.2" x2="286.6" y2="75.2"/>
			<line class="st16" x1="278.1" y1="60.6" x2="275.2" y2="39.6"/>
			<line class="st16" x1="262.2" y1="42.1" x2="267.2" y2="47.3"/>
			<polygon class="st16" points="287.5,82.4 304.4,92.1 317.9,80.8 335.5,111.4 353.9,119.6 353.9,114.6 337.4,107.2 318.7,75 
				303.6,86.6 287.5,76.7 			"/>
			<line class="st16" x1="337.9" y1="106.8" x2="342.9" y2="104.8"/>
			<line class="st16" x1="353.9" y1="114.6" x2="357.6" y2="111.9"/>
			<line class="st16" x1="357.6" y1="111.9" x2="342.9" y2="104.8"/>
			<line class="st16" x1="318.7" y1="75" x2="324.3" y2="74"/>
			<line class="st16" x1="288.2" y1="76.4" x2="292.1" y2="75.5"/>
			<line class="st16" x1="354.1" y1="119.8" x2="357.5" y2="117.4"/>
			<line class="st16" x1="357.6" y1="111.9" x2="357.5" y2="117.4"/>
			<line class="st16" x1="342.9" y1="104.8" x2="324.7" y2="74"/>
			<line class="st16" x1="292.4" y1="75.4" x2="307.1" y2="84.1"/>
			<line class="st16" x1="366" y1="122.1" x2="366" y2="150.1"/>
			<line class="st16" x1="362.7" y1="120.8" x2="362.7" y2="150.1"/>
			<line class="st16" x1="356.8" y1="118.1" x2="356.8" y2="150.9"/>
			<polyline class="st16" points="353.5,119.2 353.5,153.4 354.3,279.3 			"/>
			<polyline class="st16" points="348.2,167.8 348.2,201.9 348.8,276.1 			"/>
			<polyline class="st16" points="359.5,170.2 359.5,201.9 360,277.5 			"/>
			<line class="st16" x1="283.4" y1="73.4" x2="283.4" y2="101.3"/>
			<line class="st16" x1="280.4" y1="72.3" x2="280.4" y2="99.8"/>
			<line class="st16" x1="288.5" y1="83.3" x2="288.5" y2="104.1"/>
			<line class="st16" x1="416.3" y1="114.5" x2="416.5" y2="141.3"/>
			<line class="st16" x1="354.3" y1="279.3" x2="348.8" y2="276.4"/>
			<line class="st16" x1="354.3" y1="279.3" x2="360" y2="277.8"/>
			<polyline class="st16" points="275.4,97.5 275.4,97.5 276.2,238 			"/>
			<polyline class="st16" points="270.2,113.6 270.2,160.6 270.7,234.9 			"/>
			<polyline class="st16" points="281.5,131.1 281.5,162.2 282,236.2 			"/>
			<line class="st16" x1="276.2" y1="238" x2="270.7" y2="235.1"/>
			<line class="st16" x1="276.2" y1="238" x2="282" y2="236.6"/>
			<polyline class="st16" points="424.2,110.3 424.2,144.4 425,270.4 			"/>
			<polyline class="st16" points="419,159.8 419,193 419.5,267.2 			"/>
			<polyline class="st16" points="430.2,155.6 430.2,193 430.8,268.5 			"/>
			<line class="st16" x1="425" y1="270.4" x2="419.5" y2="267.5"/>
			<line class="st16" x1="425" y1="270.4" x2="430.8" y2="268.9"/>
			<polygon class="st17" points="290.5,117.1 272.9,107.4 272.3,89.4 289.9,99.1 			"/>
			<polygon class="st17" points="312,128.8 293,118.3 292.4,99 311.4,109.5 			"/>
			<polygon class="st17" points="334.4,141.5 314.6,130.6 313.9,110.4 333.8,121.3 			"/>
			<polygon class="st17" points="358.6,155.1 338.1,143.8 337.4,122.9 357.9,134.2 			"/>
			<path class="st17" d="M306,189.2v-24.1c0-1.2,0.2-2.3,0.5-3.4c1-3.1,3.7-7.9,10.1-3.7c7.7,5.1,7.6,15,7.6,15v27.4L306,189.2z"/>
			<path class="st17" d="M292.5,239.9V215c0-1.2,0.3-2.4,0.9-3.5c1.7-3.1,6.3-8,17.1-3.7c13.1,5.2,20.8,16.2,20.8,16.2v37.5
				L292.5,239.9z"/>
			<polygon class="st17" points="288.5,146.4 288.5,179.7 300.4,186.6 300.4,153.3 			"/>
			<line class="st16" x1="294.5" y1="149.8" x2="294.5" y2="182.9"/>
			<line class="st16" x1="314.9" y1="157.1" x2="314.9" y2="194.4"/>
			<line class="st16" x1="289.1" y1="158.5" x2="300.4" y2="164.9"/>
			<line class="st16" x1="288.5" y1="168.8" x2="300.4" y2="175.3"/>
			<polygon class="st17" points="331.3,170.6 331.3,203.9 343.3,210.8 343.3,177.5 			"/>
			<line class="st16" x1="337.3" y1="174" x2="337.3" y2="207.1"/>
			<line class="st16" x1="331.9" y1="182.7" x2="343.3" y2="189.1"/>
			<line class="st16" x1="331.3" y1="193" x2="343.3" y2="199.5"/>
			<line class="st16" x1="306.1" y1="167" x2="324.2" y2="177.1"/>
			<line class="st16" x1="305.9" y1="177.8" x2="324" y2="187.9"/>
			<polygon class="st18" points="343.5,222.6 292.6,192.9 277.9,200.9 330,231.4 			"/>
			<line class="st19" x1="330" y1="231.4" x2="341.3" y2="241.7"/>
			<line class="st19" x1="277.9" y1="200.9" x2="287" y2="212.1"/>
			<line class="st19" x1="341" y1="238" x2="341.3" y2="244.5"/>
			<line class="st19" x1="287.1" y1="209.1" x2="286.9" y2="214.2"/>
			<path class="st17" d="M383.1,215.3v-23.8c0-1.2,0.1-2.4,0.4-3.6c0.8-3.6,3-9.9,8.3-10.1c6.4-0.3,6.4,9.1,6.4,9.1l0.1,26
				L383.1,215.3z"/>
			<polygon class="st17" points="367.5,185.2 367.6,216.8 377.6,215.4 377.4,183.9 			"/>
			<line class="st16" x1="372.4" y1="184.5" x2="372.6" y2="215.8"/>
			<line class="st16" x1="391.6" y1="177.9" x2="391.8" y2="213.2"/>
			<line class="st16" x1="368" y1="196.3" x2="377.5" y2="194.9"/>
			<line class="st16" x1="367.6" y1="206.5" x2="377.5" y2="204.7"/>
			<polygon class="st17" points="403.1,179.8 403.3,211.4 413.2,210.1 413.1,178.5 			"/>
			<line class="st16" x1="408.1" y1="179.2" x2="408.3" y2="210.5"/>
			<line class="st16" x1="403.7" y1="190.9" x2="413.1" y2="189.5"/>
			<line class="st16" x1="403.2" y1="201.1" x2="413.2" y2="199.4"/>
			<line class="st16" x1="383.3" y1="193.1" x2="398.3" y2="190.8"/>
			<line class="st16" x1="383.1" y1="203.5" x2="398.2" y2="201.2"/>
			<polygon class="st18" points="373,225.3 403.2,220 415.4,229.3 384.3,234.7 			"/>
			<line class="st16" x1="377.6" y1="229.1" x2="377.6" y2="251.4"/>
			<line class="st16" x1="405.3" y1="231" x2="405.3" y2="246.8"/>
			<line class="st16" x1="377.6" y1="251.4" x2="405.3" y2="247.4"/>
			<line class="st20" x1="382.1" y1="232.9" x2="372.5" y2="241.3"/>
			<line class="st20" x1="415.4" y1="229.6" x2="407.6" y2="236.4"/>
			<line class="st19" x1="371.9" y1="238" x2="372.2" y2="244.5"/>
			<line class="st19" x1="407.6" y1="234.7" x2="407.6" y2="240.3"/>
			<polygon class="st21" points="270.5,187.1 258.7,166.9 263.6,163.8 270.6,176.4 			"/>
			<line class="st0" x1="264.6" y1="124.1" x2="267.8" y2="129.6"/>
			<line class="st0" x1="264.6" y1="124.1" x2="264.6" y2="156.4"/>
			<line class="st0" x1="264.6" y1="156.4" x2="267.5" y2="161.6"/>
			<line class="st0" x1="267.8" y1="129.6" x2="267.5" y2="161.6"/>
			<line class="st22" x1="287" y1="179" x2="300.4" y2="186.6"/>
			<line class="st22" x1="330.9" y1="203.9" x2="344.3" y2="211.4"/>
			<line class="st22" x1="304.5" y1="188.3" x2="325" y2="200.3"/>
			<path class="st17" d="M381.4,142.4l0-12.9c0-0.7,0.2-1.4,0.6-2c1.2-2.1,3.1-5.7,11.1-6.8c9.6-1.3,11,4.3,11,4.3l0.3,13.3
				L381.4,142.4z"/>
			<line class="st16" x1="381.6" y1="130.3" x2="404.2" y2="126.5"/>
			<line class="st16" x1="381.4" y1="136" x2="404.2" y2="132.2"/>
			<line class="st16" x1="393.1" y1="120.6" x2="393.1" y2="140.2"/>
			<path class="st17" d="M273,80.8l0.4-8.5c0-0.5,0-1.1-0.1-1.6c-0.3-1.9-0.3-5.8-2.8-9.8c-2.7-4.4-3.2-1.4-3.2-1.4l-0.4,6.8
				L273,80.8z"/>
			<path d="M276.5,98.1l3.3,1.8v-0.2l-0.1-1.5l-4-2.1v-0.5l11.3,6.1v0.5l-4-2.1l0.1,1.7l3.4,1.8l0.4,6.7l-0.7-0.4v-0.6l-8.8-4.7v0.6
				l-0.7-0.4L276.5,98.1z M284.1,105.8c-0.9-0.5-1.4-1-1.4-1.7l-0.1-2.2l-2-1.1c0.1,1.6-0.6,2.4-2,2.5c-0.1-0.1-0.1-0.2-0.2-0.3
				l-0.3-0.3c1.4,0,2-0.8,1.9-2.2l-2.7-1.4l0.3,5.1l8.8,4.7l-0.3-5.1l-2.7-1.5l0.1,2.2c0,0.4,0.3,0.7,0.8,1s1,0.5,1.5,0.8
				c0,0.1,0,0.2,0,0.2c0,0.1,0,0.2-0.1,0.2L284.1,105.8z M280.4,100.1v0.2l2,1.1l-0.1-1.7l-2.1-1.1L280.4,100.1z"/>
			<path d="M296.9,106.8l4.2,2.2l0.2,3.7l-3.5-1.9l0.3,5.2l-0.6-0.3L296.9,106.8z M297.6,107.6l0.1,1.2l2.9,1.6l-0.1-1.2
				L297.6,107.6z M297.7,110.4l2.9,1.6l-0.1-1.2l-2.9-1.6L297.7,110.4z M305.6,119.5c0.8,0.5,1.1,0.4,1-0.2l-0.2-3.7l-3.6-1.9
				l-0.2-3.8l4.3,2.3l0.4,7.6c0.1,0.9-0.4,1-1.5,0.4l-1.6-0.9c0,0,0-0.1-0.1-0.2c0-0.2-0.1-0.3-0.1-0.4
				C304.4,118.9,305,119.2,305.6,119.5z M303.3,110.7l0.1,1.2l3,1.6l-0.1-1.2L303.3,110.7z M303.4,112.3l0.1,1.2l3,1.6l-0.1-1.2
				L303.4,112.3z"/>
			<path d="M318.5,120.3l0.3-0.2l0.4,0.4c0.5-0.4,1.1-0.9,1.5-1.4l0.7,0.6c-0.5,0.5-1.1,0.9-1.7,1.3c0.4,0.4,0.8,0.8,1.2,1.2
				c0.2-0.2,0.5-0.4,0.8-0.7s0.4-0.3,0.5-0.4l0.6,0.6c-0.9,0.7-1.7,1.2-2.6,1.8l2.5,1.1l-0.6-1.3l0.5,0.1c0.2,0.3,0.5,1,1,1.9
				c0.1,0.3,0.2,0.5,0.4,0.8l-0.6-0.1c-0.1-0.2-0.2-0.5-0.4-0.9l-1.4-0.6l0.2,4.1l-0.6-0.3l-0.2-4.1l-1.7-0.7l-0.5-0.2l-0.1-0.6
				l0.9,0.4c0.4-0.2,0.8-0.4,1.2-0.7l-1.4-1.5L318.5,120.3z M319.3,126.5l-0.6-0.5c0.4-0.4,0.8-0.9,1.1-1.5l0.6,0.6
				C320.1,125.6,319.7,126.1,319.3,126.5z M322.3,126.1l0.5,0.1c0.4,0.7,0.7,1.4,1,2.1l-0.6-0.1C323,127.5,322.7,126.8,322.3,126.1
				L322.3,126.1z M323.7,128.7l2.9,1.5l-0.4-6.8l-2.5-1.4v-0.5l5.8,3.1v0.5l-2.5-1.3l0.4,6.8l2.9,1.6v0.4l-6.5-3.4L323.7,128.7z"/>
			<path d="M341.7,132.3l1.4,0.8L343,131l0.6,0.3l0.1,2.1l1.1,0.6v0.5l-1.1-0.6l0.1,1.6l0.3-0.1c0.1,0.2,0.3,0.5,0.6,0.8l0.7,1
				l-0.5,0.1c-0.3-0.5-0.6-1-1.1-1.6l0.3,5.2l-0.6-0.3l-0.3-5.7c-0.2,0.9-0.6,1.7-1.3,2.3c-0.1-0.1-0.1-0.2-0.2-0.4l-0.2-0.3
				c0.7-0.8,1.3-1.7,1.5-2.8l-1.4-0.7L341.7,132.3z M346.4,140.6l0.4-0.1l0.5-0.2l-2.1-1.1v-0.4l2.6,1.4l0.2-0.1
				c0.2-0.1,0.3-0.2,0.4-0.3l0.6,0.5c-0.2,0.1-0.3,0.3-0.5,0.3l4.9,2.6v0.4l-1.7-0.9c-0.4,0.3-0.9,0.4-1.3,0.3c1,0.7,2,1.5,3,2.2
				l-0.3,0.2l-2-1.6l-1.3-1c-1.5-0.3-2.9-0.8-4.2-1.4c-0.1-0.2-0.2-0.4-0.3-0.6c1.2,0.6,2.4,1.1,3.7,1.4c-0.2-0.2-0.5-0.4-0.9-0.6
				l-0.7-0.5h-0.3L346.4,140.6z M345.9,136.7l2.9,1.5v-0.7l-2.9-1.5l-0.1-1.2l-0.7-0.4V134l0.7,0.4l-0.1-1.2l2.9,1.5l0-0.8l0.6,0.3
				v0.8l2.9,1.5l0.1,1.2l0.8,0.4v0.4l-0.8-0.4l0.1,1.1l-2.9-1.5v0.7l2.9,1.5l0.1,1.7l-6.4-3.4L345.9,136.7z M346.3,134l0,0.8
				l2.3,1.2v-0.8L346.3,134z M346.4,135.2v0.7l2.3,1.2v-0.7L346.4,135.2z M346.5,137.4l0,0.9l2.3,1.2l0-0.9L346.5,137.4z
				 M347.5,140.9l1.9,1.5c0.5,0.1,0.9,0,1.4-0.2l-2.9-1.5C347.9,140.8,347.7,140.8,347.5,140.9L347.5,140.9z M351.5,136.8l-2.3-1.2
				v0.8l2.3,1.2V136.8z M349.3,136.8v0.7l2.3,1.2l0-0.7L349.3,136.8z M351.7,140.2l-2.3-1.2l0,0.9l2.3,1.2L351.7,140.2z"/>
			<g id="柱子">
				<path class="st2" d="M113.9,242.3c0,2.4-6.4,4.2-14.3,4.2s-14.3-1.9-14.3-4.2l3-3.1h22.6L113.9,242.3z"/>
				<path class="st2" d="M85.3,231.6l3,7.6c0,1.9,5.1,3.4,11.3,3.4s11.3-1.5,11.3-3.4l2.7-6.7"/>
				<path class="st1" d="M85.3,159.2v72.3c0,2.3,6.4,4.2,14.3,4.2s14.3-1.9,14.3-4.2v-72.3"/>
				<ellipse class="st2" cx="99.6" cy="159.2" rx="14.3" ry="4.2"/>
				<ellipse class="st2" cx="99.4" cy="156" rx="14.3" ry="4.2"/>
				<path class="st17" d="M109.9,154.4c0,1.5-4.6,2.7-10.3,2.7s-10.3-1.2-10.3-2.7l-7.8-9.3h36.2L109.9,154.4z"/>
				<ellipse class="st23" cx="99.6" cy="145.1" rx="18.1" ry="5"/>
				<line class="st16" x1="99.6" y1="157.1" x2="99.6" y2="150.1"/>
				<line class="st16" x1="96.5" y1="156.9" x2="94.7" y2="149.9"/>
				<line class="st16" x1="92.9" y1="156" x2="89.9" y2="149.9"/>
				<line class="st16" x1="102.1" y1="156.9" x2="104" y2="149.9"/>
				<line class="st16" x1="105.7" y1="156" x2="108.8" y2="149.9"/>
			</g>
			<g id="柱子-2">
				<path class="st2" d="M488.9,269.2c0,2.3-6.4,4.2-14.3,4.2s-14.3-1.9-14.3-4.2l3-3.1h22.6L488.9,269.2z"/>
				<path class="st2" d="M460.3,258.5l3,7.6c0,1.9,5.1,3.4,11.3,3.4s11.3-1.5,11.3-3.4l2.7-6.7"/>
				<path class="st1" d="M460.3,186.2v72.3c0,2.3,6.4,4.2,14.3,4.2s14.3-1.9,14.3-4.2v-72.3"/>
				<ellipse class="st2" cx="474.6" cy="186.2" rx="14.3" ry="4.2"/>
				<ellipse class="st2" cx="474.4" cy="182.9" rx="14.3" ry="4.2"/>
				<path class="st17" d="M484.8,181.3c0,1.5-4.6,2.7-10.3,2.7s-10.3-1.2-10.3-2.7l-7.8-9.3h36.2L484.8,181.3z"/>
				<ellipse class="st23" cx="474.6" cy="172" rx="18.1" ry="5"/>
				<line class="st16" x1="474.6" y1="184" x2="474.6" y2="177"/>
				<line class="st16" x1="471.5" y1="183.9" x2="469.6" y2="176.8"/>
				<line class="st16" x1="467.9" y1="182.9" x2="464.9" y2="176.8"/>
				<line class="st16" x1="477.1" y1="183.9" x2="479" y2="176.8"/>
				<line class="st16" x1="480.7" y1="182.9" x2="483.8" y2="176.8"/>
			</g>
			<g id="柱子-3">
				<path class="st2" d="M248.4,181.8c0,2.4-6.4,4.2-14.3,4.2s-14.3-1.9-14.3-4.2l3-3.1h22.6L248.4,181.8z"/>
				<path class="st2" d="M219.8,171.1l3,7.6c0,1.9,5.1,3.4,11.3,3.4s11.3-1.5,11.3-3.4l2.7-6.7"/>
				<path class="st1" d="M219.8,98.8v72.3c0,2.4,6.4,4.2,14.3,4.2s14.3-1.9,14.3-4.2V98.8"/>
				<ellipse class="st2" cx="234.1" cy="98.8" rx="14.3" ry="4.2"/>
				<ellipse class="st2" cx="234" cy="95.5" rx="14.3" ry="4.2"/>
				<path class="st17" d="M244.4,93.9c0,1.5-4.6,2.7-10.3,2.7s-10.3-1.2-10.3-2.7l-7.9-9.3h36.2L244.4,93.9z"/>
				<ellipse class="st23" cx="234.1" cy="84.6" rx="18.1" ry="5"/>
				<line class="st16" x1="234.1" y1="96.6" x2="234.1" y2="89.6"/>
				<line class="st16" x1="231.1" y1="96.5" x2="229.2" y2="89.4"/>
				<line class="st16" x1="227.5" y1="95.5" x2="224.4" y2="89.4"/>
				<line class="st16" x1="236.7" y1="96.5" x2="238.6" y2="89.4"/>
				<line class="st16" x1="240.3" y1="95.5" x2="243.3" y2="89.4"/>
			</g>
			<g id="tickettrigger">
				
					<rect x="176.1" y="201" transform="matrix(0.7428 -0.6695 0.6695 0.7428 -92.9861 173.0162)" class="st24" width="5.2" height="13.1"/>
				
					<rect x="179.3" y="209.4" transform="matrix(0.7428 -0.6695 0.6695 0.7428 -94.5593 176.1018)" class="st5" width="5.2" height="3.4"/>
				
					<rect x="174.9" y="201.4" transform="matrix(0.7428 -0.6695 0.6695 0.7428 -92.4292 171.9183)" class="st25" width="5.2" height="9.7"/>
				<line class="st25" x1="178.8" y1="211.6" x2="182.7" y2="208.1"/>
			</g>
			<path class="st26" d="M201.8,193.3c0,0,13.2,19.6,11.8,31.6c0,0-19.7,1.5-26.2-2.2c0,0,1.2-23.3,4.2-27.5
				C191.6,195.2,199.6,195.1,201.8,193.3z"/>
			<polygon class="st24" points="201.5,193.8 194.2,198.2 193,196 			"/>
			<path class="st26" d="M196.6,200.4c0,0-9.5,9.6-13.6,10.1c0,0,15.7-2.7,19.2-10.8"/>
			<path class="st27" d="M213.7,225.2c0,0-10,16.4-16.3,28.8l-5.2,0.9c0,0-4.1-22.5-4.2-32"/>
			<line class="st25" x1="192.6" y1="212.1" x2="192.5" y2="222.9"/>
			<path class="st7" d="M193.1,184.4c-4.6-1.5-6.1-8.5,6.7-5.2c0,0,2.3-0.6,2.3-0.5c0.3,1.1,2.9,19.8,7.9,15.8c0,0-5.2,5-8,2.8
				l-1.7-1.7L193.1,184.4C193,184.5,193.1,184.4,193.1,184.4z"/>
			<path class="st5" d="M199.9,182.8c0-0.1,0-0.1-0.1-0.1c-0.8-0.3-6.4-3-8.3,1.5c-1.8,4.3-1.8,4.5-1.7,4.6l0,0l2.2,0.9
				c0.1,0,0.1,0.1,0.1,0.1l-0.4,5.5c0,0,8.1,0.3,9.2-1.4s-0.2-6.5-0.6-7.5c0-0.1,0-0.2,0.1-0.2c0,0,0,0,0,0c0.4-0.1,1.6-0.6,1.6-1.4
				c0-1.1-1.3-1.3-2.5-0.3S199.7,183.5,199.9,182.8z"/>
			<circle class="st6" cx="194" cy="186" r="0.2"/>
			<path class="st28" d="M197.4,254v3.6c0,0-6.4,2.2-10,0l4.8-2.8L197.4,254z"/>
			<path class="st5" d="M340.9,254.2c0,0-5.4-2.5-7.2,2.3c-1.8,4.8-1.2,4.9-1.2,4.9l2,0.9l-0.2,7.2c0,0,8.1,0,9.2-1.7s-1.6-9-1.6-9
				s1.6-0.4,1.6-1.5s-1.2-1.3-2.2-0.2S340.9,254.2,340.9,254.2z"/>
			<ellipse class="st6" cx="336" cy="256.9" rx="0.2" ry="0.2"/>
			<path class="st7" d="M334.7,254.4c0,0,1.2-4.6,2.4-5l0.7,0.9c0,0,4-0.7,4.7,0.4c0.6,0.8,1.2,1.5,2,2.1c0,0-0.6,2.9,0,3.1
				c0.6,0.2-3.5,1.9-3.5,1.9l0.3-3.2l-2.1-1l-2.8,0.1L334.7,254.4z"/>
			<path class="st5" d="M343.4,267.3c0,0,11.9,18.8,10.7,30.4c0,0-17.8,1.4-23.6-2.1c0,0,1.1-22.4,3.8-26.4
				C334.2,269.1,341.4,269,343.4,267.3z"/>
			<path class="st27" d="M354.1,298c0,0-9,15.7-14.7,27.7l-4.7,0.8c0,0-3.7-21.6-3.8-30.8"/>
			<path class="st28" d="M339.5,325.7v3.5c0,0-5.8,2.1-9,0l4.3-2.7L339.5,325.7z"/>
			<path class="st8" d="M343.2,256.3h-1.8c-0.4,0-0.7-0.3-0.7-0.7v-0.1c0-0.4,0.3-0.7,0.7-0.7h1.8c0.4,0,0.7,0.3,0.7,0.7v0.1
				C343.9,256,343.6,256.3,343.2,256.3z"/>
			<path class="st5" d="M340.5,275.9c0,0-12.6,2.6-16.1,0.9c0,0,13.4,5.8,20.6,1.4"/>
			<path class="st29" d="M168.9,231.2c0,0-5,12.9-2.2,14.2s10.2,0.9,9.9-4.6c-0.3-3.6-1.1-7.1-2.5-10.5L168.9,231.2z"/>
			<ellipse class="st30" cx="171.2" cy="227.9" rx="4.8" ry="5.2"/>
			<ellipse class="st6" cx="169.8" cy="225.8" rx="0.2" ry="0.2"/>
			<path class="st6" d="M176.1,243.4c0,0-4.6,7.1-6,10.8h-1.3L166,245C166,245,172.4,245.6,176.1,243.4z"/>
			<path class="st6" d="M170.3,254.1v1.9h-3.4c0,0-1.9-1.1,0-1.9s2.1,0,2.1,0L170.3,254.1z"/>
			<path class="st29" d="M169.6,234.6c0,0-5.6-4.8-6-6.2s2.3,8,5.4,8"/>
			<polygon class="st27" points="169.9,222.7 171.2,220.7 177.1,222.7 179.4,227.9 178.3,230.7 174.1,230.5 174.1,227.9 171.8,225 
							"/>
			<path class="st29" d="M301.6,278.5c0,0,5,12.9,2.2,14.2s-10.2,0.9-9.9-4.6c0.3-3.6,1.1-7.1,2.5-10.5L301.6,278.5z"/>
			<ellipse class="st30" cx="299.3" cy="275.1" rx="4.8" ry="5.2"/>
			<ellipse class="st6" cx="300.8" cy="273" rx="0.2" ry="0.2"/>
			<path class="st6" d="M294.5,290.6c0,0,4.6,7.1,6,10.8h1.3l2.9-9.1C304.6,292.2,298.2,292.8,294.5,290.6z"/>
			<path class="st6" d="M300.3,301.4v1.9h3.4c0,0,1.9-1.1,0-1.9s-2.1,0-2.1,0H300.3z"/>
			<path class="st29" d="M301,281.8c0,0,5.6-4.8,6-6.2s-2.3,8-5.4,8"/>
			<polygon class="st27" points="300.6,269.9 299.3,267.9 293.5,269.9 291.2,275.1 292.3,277.9 296.5,277.8 296.5,275.1 
				298.8,272.2 			"/>
			<path class="st26" d="M272.8,237.5c0,0-13.2,19.5-11.8,31.6c0,0,19.7,1.5,26.1-2.2c0,0-1.2-23.3-4.2-27.5
				C283,239.4,275,239.3,272.8,237.5z"/>
			<polygon class="st24" points="273.1,238 280.4,242.5 281.6,240.3 			"/>
			<path class="st26" d="M278,244.6c0,0,9.5,9.6,13.7,10.1c0,0-15.7-2.7-19.2-10.8"/>
			<path class="st27" d="M260.9,269.5c0,0,10,16.4,16.3,28.8l5.2,0.9c0,0,4.1-22.5,4.2-32"/>
			<line class="st25" x1="282" y1="256.4" x2="282.1" y2="267.2"/>
			<path class="st7" d="M281.6,228.6c4.5-1.5,6.1-8.5-6.8-5.2c0,0-2.3-0.6-2.3-0.5c-0.3,1.2-2.9,19.8-7.9,15.9c0,0,5.2,5,8,2.8
				l1.7-1.7l7.3-11.1C281.6,228.8,281.5,228.7,281.6,228.6z"/>
			<path class="st5" d="M274.8,227.1c0-0.1,0-0.1,0.1-0.1c0,0,0,0,0,0c0.8-0.3,6.4-3,8.3,1.5c1.8,4.3,1.8,4.5,1.7,4.6h0l-2.1,0.9
				c-0.1,0-0.1,0.1-0.1,0.1l0.4,5.5c0,0-8.1,0.3-9.2-1.4c-1.1-1.6,0.2-6.5,0.6-7.5c0-0.1,0-0.2-0.1-0.2c0,0,0,0,0,0
				c-0.4-0.1-1.6-0.6-1.6-1.4c0-1.1,1.3-1.3,2.5-0.3S274.9,227.7,274.8,227.1z"/>
			<circle class="st6" cx="280.6" cy="230.2" r="0.2"/>
			<path class="st28" d="M277.2,298.3v3.6c0,0,6.4,2.1,10,0l-4.8-2.8L277.2,298.3z"/>
			<path class="st5" d="M392.9,227.9c0,0,5.8-2.7,7.8,2.4s1.3,5.3,1.3,5.3l-2.2,0.9l0.2,7.8c0,0-8.7,0-9.9-1.8s1.7-9.7,1.7-9.7
				s-1.7-0.4-1.7-1.6s1.3-1.4,2.4-0.3S392.9,227.9,392.9,227.9z"/>
			<ellipse class="st6" cx="398.1" cy="230.7" rx="0.2" ry="0.2"/>
			<path class="st7" d="M399.5,228.1c0,0-1.2-5-2.6-5.4l-0.8,1c0,0-4.3-0.8-5.1,0.4c-0.6,0.8-1.3,1.6-2.1,2.2c0,0,0.6,3.1,0,3.3
				s3.8,2,3.8,2l-0.3-3.5l2.3-1.1l3,0.1L399.5,228.1z"/>
			<path class="st5" d="M390.2,241.9c0,0-12.8,20.2-11.5,32.7c0,0,19.2,1.5,25.4-2.3c0,0-1.1-24.1-4-28.4
				C400.1,243.9,392.3,243.8,390.2,241.9z"/>
			<path class="st27" d="M378.6,275c0,0,9.7,17,15.8,29.8l5.1,0.9c0,0,4-23.3,4.1-33.1"/>
			<path class="st28" d="M394.4,304.8v3.8c0,0,6.2,2.2,9.7,0l-4.6-2.9L394.4,304.8z"/>
			<path class="st8" d="M390.3,228.6h2.1c0.4,0,0.7,0.3,0.7,0.7v0.2c0,0.4-0.3,0.7-0.7,0.7h-2.1c-0.4,0-0.7-0.3-0.7-0.7v-0.2
				C389.6,228.9,389.9,228.6,390.3,228.6z"/>
			<path class="st5" d="M399.2,248.7c0,0,5.4,12.8,9,14.8c0,0-13.3-8.3-13.8-17.4"/>
			<g id="sign">
				<path class="st8" d="M307.4,241.4l-0.5,11.2h-1.1l-0.5-11.2H307.4z M307.4,257.4h-2v-2.6h2V257.4z"/>
			</g>
			<g id="sign-ticket">
				<path class="st8" d="M184.5,159.1l-0.5,11.2h-1.2l-0.5-11.2H184.5z M184.4,175h-2.1v-2.6h2.1V175z"/>
			</g>
			<g id="柱子-4">
				<path class="st2" d="M371.2,338.1c0,2.4-6.4,4.2-14.3,4.2s-14.3-1.9-14.3-4.2l3-3.1h22.6L371.2,338.1z"/>
				<path class="st2" d="M342.6,327.4l3,7.6c0,1.9,5.1,3.4,11.3,3.4s11.3-1.5,11.3-3.4l2.7-6.7"/>
				<path class="st1" d="M342.6,255.1v72.3c0,2.4,6.4,4.2,14.3,4.2s14.3-1.9,14.3-4.2v-72.3"/>
				<ellipse class="st2" cx="356.9" cy="255.1" rx="14.3" ry="4.2"/>
				<ellipse class="st2" cx="356.8" cy="251.8" rx="14.3" ry="4.2"/>
				<path class="st17" d="M367.2,250.2c0,1.5-4.6,2.7-10.3,2.7s-10.3-1.2-10.3-2.7l-7.8-9.3H375L367.2,250.2z"/>
				<ellipse class="st23" cx="356.9" cy="240.9" rx="18.1" ry="5"/>
				<line class="st16" x1="356.9" y1="252.9" x2="356.9" y2="245.9"/>
				<line class="st16" x1="353.9" y1="252.8" x2="352" y2="245.7"/>
				<line class="st16" x1="350.3" y1="251.8" x2="347.2" y2="245.7"/>
				<line class="st16" x1="359.5" y1="252.8" x2="361.3" y2="245.7"/>
				<line class="st16" x1="363" y1="251.8" x2="366.1" y2="245.7"/>
			</g>
		</g>
		<g id="island_3">
			<g id="小小地板">
				<polygon class="st6" points="487.1,338.9 404.2,386.4 486.2,433.7 568.9,386.3 				"/>
				<polygon class="st31" points="404.1,406.9 404.2,386.4 486.2,433.7 486.5,454.3 				"/>
				<polygon class="st30" points="569.1,406.3 568.9,386.3 486.2,433.7 486.5,454.8 				"/>
			</g>
			<polygon class="st4" points="497.6,362.7 527.7,381.7 473.2,416.7 443.1,398.2 			"/>
			<polygon class="st3" points="477.2,336.4 497.7,348.9 460.6,371.9 440.1,359.8 			"/>
			<polygon class="st4" points="440.1,382 440.1,359.8 460.6,371.9 460.6,395 			"/>
			<polygon class="st3" points="497.8,371.2 497.7,348.9 460.6,371.9 460.6,395 			"/>
			<ellipse class="st3" cx="472.8" cy="402.3" rx="7.1" ry="5.4"/>
			<polygon class="st3" points="496,380.5 505.5,387.5 510.2,384.4 499.5,376.3 			"/>
			<g id="旗子">
				<line class="st32" x1="434.7" y1="386.3" x2="434.7" y2="314.5"/>
				<path class="st33" d="M435.1,312.6c0,0-11.9,10.5-15.7,23.1l-0.1,45.6c0,0,13.5-15.8,16-17.4L435.1,312.6z"/>
				<ellipse class="st28" cx="435.1" cy="387.5" rx="5.8" ry="3.4"/>
			</g>
			<ellipse class="st3" cx="487.8" cy="391.3" rx="7.1" ry="5.4"/>
			<polygon class="st34" points="486.2,355.8 486.3,358.9 489.5,358.3 490.7,361.8 493.6,360.2 495.7,362 497.8,360.2 497.6,348.8 
							"/>
			<ellipse class="st35" cx="471.4" cy="378.9" rx="3.7" ry="5"/>
			<ellipse class="st35" cx="480.7" cy="372.9" rx="3.7" ry="5"/>
			<ellipse class="st35" cx="489.5" cy="368.2" rx="3.7" ry="5"/>
			<path class="st34" d="M525,328.3l0.5,8l-3.2-1.5l-10.9,6.3c-4.5-4.2-5.5-11-2.5-16.4l13.4,5.9L525,328.3"/>
			<path class="st5" d="M534.1,318.7c0,0-5.4-2.5-7.3,2.3s-1.2,4.9-1.2,4.9l2,0.9l-0.2,7.2c0,0,8.1,0,9.2-1.7s-1.6-9-1.6-9
				s1.6-0.4,1.6-1.5s-1.2-1.3-2.2-0.2S534.1,318.7,534.1,318.7z"/>
			<ellipse class="st6" cx="529.2" cy="321.3" rx="0.2" ry="0.2"/>
			<path class="st7" d="M527.9,318.9c0,0,1.2-4.6,2.4-5l0.7,0.9c0,0,4-0.7,4.7,0.4c0.6,0.8,1.2,1.5,2,2.1c0,0-0.6,2.9,0,3.1
				s-3.5,1.9-3.5,1.9l0.3-3.2l-2.1-1l-2.8,0.1L527.9,318.9z"/>
			<path class="st5" d="M536.6,331.7c0,0,11.9,18.8,10.7,30.4c0,0-17.8,1.4-23.6-2.1c0,0,1.1-22.4,3.8-26.4
				C527.4,333.5,534.6,333.4,536.6,331.7z"/>
			<path class="st27" d="M547.3,362.5c0,0-9,15.7-14.7,27.7L528,391c0,0-3.7-21.6-3.8-30.8"/>
			<path class="st28" d="M532.7,390.1v3.5c0,0-5.8,2.1-9,0l4.3-2.6L532.7,390.1z"/>
			<path class="st8" d="M536.4,320.7h-1.9c-0.4,0-0.7-0.3-0.7-0.7V320c0-0.4,0.3-0.7,0.7-0.7h1.9c0.4,0,0.7,0.3,0.7,0.7v0.1
				C537.1,320.4,536.8,320.7,536.4,320.7z"/>
			<path class="st5" d="M534.7,341.1c0,0-11.5-5.9-13.1-9.3c0,0,6.8,12.9,15.2,14"/>
		</g>
		<g id="island_2">
			<g id="小地板">
				<polyline class="st1" points="199.9,524.3 330.1,450.7 330,417.9 199.9,493 				"/>
				<polygon class="st23" points="100.1,436.2 100.1,466.8 199.9,524.3 199.9,493 				"/>
				<polygon class="st1" points="51.9,393.5 51.9,409.5 233.8,514.3 233.4,496.9 				"/>
				<polygon class="st2" points="172.9,324.6 354.4,428 233.4,496.9 51.9,393.5 				"/>
				<polygon class="st1" points="354.4,428 354.4,445.6 233.8,514.3 233.4,496.9 				"/>
			</g>
			<polygon class="st3" points="289.4,350.9 318.4,368.6 265.8,401.3 236.7,384.1 			"/>
			<polygon class="st4" points="236.7,415.6 236.7,384.1 265.8,401.3 265.8,434 			"/>
			<polygon class="st3" points="318.5,400.2 318.4,368.6 265.8,401.3 265.8,434 			"/>
			<polygon class="st3" points="314.6,388.9 335.1,401.1 298,423.5 277.5,411.7 			"/>
			<polygon class="st4" points="277.5,433.3 277.5,411.7 298,423.5 298,445.9 			"/>
			<polygon class="st3" points="335.2,422.7 335.1,401.1 298,423.5 298,445.9 			"/>
			<g id="大商店">
				<polygon class="st3" points="142.9,277.6 182.4,301.1 117.6,337.8 78.4,315.3 				"/>
				<polygon class="st4" points="78.4,392.1 78.4,315.3 117.6,337.8 117.6,416.2 				"/>
				<polygon class="st3" points="182.4,377.2 182.4,301.1 117.6,337.8 117.6,416.2 				"/>
				<line class="st0" x1="177" y1="314.1" x2="174.4" y2="312.4"/>
				<line class="st0" x1="127.4" y1="342" x2="125.1" y2="340.8"/>
				<line class="st0" x1="125.5" y1="341" x2="174.9" y2="312.7"/>
				<line class="st0" x1="127.4" y1="362.6" x2="125.1" y2="361.4"/>
				<line class="st0" x1="125.1" y1="361.4" x2="125.1" y2="340.8"/>
				<polygon class="st1" points="127.4,342 127.4,362.2 176.7,333.2 177,314.1 				"/>
				<line class="st36" x1="181.5" y1="311.7" x2="179.4" y2="310.1"/>
				<line class="st36" x1="181.5" y1="314.1" x2="179.4" y2="312.7"/>
				<line class="st36" x1="181.5" y1="326.7" x2="179.4" y2="325.1"/>
				<line class="st36" x1="181.5" y1="329.1" x2="179.4" y2="327.8"/>
				<line class="st36" x1="181.5" y1="341.8" x2="179.4" y2="340.1"/>
				<line class="st36" x1="181.5" y1="344.1" x2="179.4" y2="342.8"/>
				<path class="st1" d="M185.2,320h2c2.6,0,4.7,3,4.7,6.6s-2.1,6.6-4.7,6.6h-2V320"/>
				<ellipse class="st4" cx="185.2" cy="326.6" rx="4.7" ry="6.6"/>
				<path class="st1" d="M185.2,305.1h2c2.6,0,4.7,3,4.7,6.6s-2.1,6.6-4.7,6.6h-2V305.1"/>
				<ellipse class="st4" cx="185.2" cy="311.7" rx="4.7" ry="6.6"/>
				<path class="st1" d="M185.2,336h2c2.6,0,4.7,3,4.7,6.6s-2.1,6.6-4.7,6.6h-2V336"/>
				<ellipse class="st4" cx="185.2" cy="342.6" rx="4.7" ry="6.6"/>
				<polyline class="st0" points="132.8,406.2 132.2,370.4 174.3,346.3 174.3,382 				"/>
				<line class="st0" x1="154.6" y1="357.5" x2="154.6" y2="386.1"/>
			</g>
			<polygon class="st30" points="205.8,396.1 205.8,405.3 193.2,398.6 193.2,391.4 			"/>
			<polygon class="st30" points="197.8,388.7 193.2,391.4 205.8,396.1 208.6,394.2 			"/>
			<polygon class="st30" points="205.8,405.3 209.6,402.6 208.6,394.2 205.8,396.1 			"/>
			<circle class="st30" cx="198.2" cy="397.4" r="2.3"/>
			<path class="st37" d="M221.6,380.1c0,0,13.1,19.5,11.8,31.6c0,0-19.7,1.5-26.2-2.2c0,0,1.2-23.3,4.2-27.5
				C211.5,382,219.4,381.9,221.6,380.1z"/>
			<polygon class="st5" points="221.3,380.6 214.1,385.1 212.8,382.9 			"/>
			<path class="st37" d="M216.5,387.2c0,0-9.5,9.7-13.7,10.1c0,0,15.7-2.7,19.2-10.8"/>
			<path class="st27" d="M233.6,412.1c0,0-10,16.4-16.3,28.8l-5.2,0.9c0,0-4.1-22.5-4.2-32"/>
			<line class="st25" x1="212.4" y1="399" x2="212.3" y2="409.8"/>
			<path class="st6" d="M212.9,371.2c-4.6-1.5-6.1-8.5,6.7-5.2c0,0,2.3-0.6,2.3-0.5c0.3,1.2,2.9,19.8,7.9,15.8c0,0-5.2,5-8,2.8
				l-1.7-1.7l-7.3-11.1C212.9,371.3,212.9,371.3,212.9,371.2z"/>
			<path class="st5" d="M219.7,369.7c0-0.1,0-0.1-0.1-0.2c-0.8-0.3-6.4-3-8.3,1.5c-1.8,4.3-1.8,4.5-1.7,4.6l0,0l2.2,0.9
				c0.1,0,0.1,0.1,0.1,0.1l-0.4,5.5c0,0,8.1,0.3,9.2-1.4c1.1-1.6-0.2-6.5-0.6-7.5c0-0.1,0-0.1,0.1-0.2c0,0,0,0,0,0
				c0.4-0.1,1.6-0.6,1.6-1.4c0-1-1.3-1.3-2.5-0.3S219.6,370.3,219.7,369.7z"/>
			<circle class="st6" cx="213.8" cy="372.8" r="0.2"/>
			<path class="st28" d="M217.3,440.9v3.6c0,0-6.4,2.1-10,0l4.8-2.8L217.3,440.9z"/>
			<line class="st38" x1="186" y1="391.4" x2="181.6" y2="384"/>
			<line class="st38" x1="176.7" y1="396.1" x2="183.8" y2="396.1"/>
			<line class="st38" x1="187.6" y1="403.2" x2="176.7" y2="412"/>
			<path class="st39" d="M157.9,396.6c0,0,5,12.9,2.2,14.2s-10.2,0.9-9.9-4.6c0.3-3.6,1.1-7.1,2.5-10.5L157.9,396.6z"/>
			<ellipse class="st30" cx="155.6" cy="393.3" rx="4.8" ry="5.2"/>
			<ellipse class="st6" cx="157.1" cy="391.1" rx="0.2" ry="0.2"/>
			<path class="st29" d="M150.8,408.7c0,0,4.6,7.1,6,10.8h1.3l2.9-9.1C160.9,410.4,154.4,410.9,150.8,408.7z"/>
			<path class="st6" d="M156.6,419.5v1.9h3.4c0,0,1.9-1.1,0-1.9s-2.1,0-2.1,0H156.6z"/>
			<path class="st39" d="M157.3,400c0,0,5.6-4.8,6-6.2s-2.3,8-5.4,8"/>
			<polygon class="st5" points="156.9,388.1 155.6,386.1 149.8,388.1 147.5,393.3 148.6,396.1 152.8,395.9 152.8,393.3 155.1,390.4 
							"/>
			<path class="st5" d="M143.8,363.3c0,0,4.6-2.2,6.2,1.9s1,4.2,1,4.2l-1.7,0.8l0.2,6.1c0,0-6.9,0-7.8-1.4s1.4-7.6,1.4-7.6
				s-1.4-0.4-1.4-1.2s1-1.1,1.9-0.2S143.8,363.3,143.8,363.3z"/>
			<ellipse class="st6" cx="147.9" cy="365.5" rx="0.2" ry="0.2"/>
			<path class="st6" d="M149.1,363.5c0,0-1-3.9-2.1-4.3l-0.6,0.8c0,0-3.4-0.6-4,0.3c-0.5,0.7-1,1.2-1.7,1.8c0,0,0.5,2.4,0,2.6
				s3,1.6,3,1.6l-0.2-2.8l1.8-0.9l2.3,0.1L149.1,363.5z"/>
			<path class="st24" d="M141.7,374.4c0,0-10.1,16-9.1,25.9c0,0,15.1,1.2,20.1-1.8c0,0-0.9-19-3.2-22.5
				C149.5,375.9,143.4,375.8,141.7,374.4z"/>
			<path class="st27" d="M132.5,400.5c0,0,7.7,13.4,12.5,23.6l4,0.7c0,0,3.2-18.4,3.2-26.2"/>
			<path class="st24" d="M148.8,379.8c0,0,4.2,10.1,7.1,11.7c0,0-10.5-6.6-10.9-13.8"/>
			<path class="st28" d="M145,424.1v3c0,0,4.9,1.8,7.7,0l-3.7-2.3L145,424.1z"/>
			<g id="sign-2">
				<path class="st8" d="M199.1,360.7l-0.5,11.2h-1.1l-0.5-11.2H199.1z M199,376.6h-2V374h2V376.6z"/>
			</g>
		</g>
	</g>
</g>
</svg>
