<svg xmlns="http://www.w3.org/2000/svg" viewBox="0 0 614.2 529.39"><defs><style>.cls-1{isolation:isolate;}.cls-11,.cls-18,.cls-2,.cls-21,.cls-22,.cls-24,.cls-27,.cls-30,.cls-34,.cls-37,.cls-38,.cls-40{fill:none;}.cls-18,.cls-19,.cls-2,.cls-20,.cls-21,.cls-22,.cls-23,.cls-24,.cls-25,.cls-3,.cls-36,.cls-37,.cls-38,.cls-4{stroke:#000;}.cls-11,.cls-12,.cls-2,.cls-21,.cls-23,.cls-25,.cls-3,.cls-31,.cls-33,.cls-38,.cls-4,.cls-40,.cls-41,.cls-8,.cls-9{stroke-miterlimit:10;}.cls-10,.cls-12,.cls-26,.cls-28,.cls-3,.cls-32,.cls-33,.cls-36{fill:#c92028;}.cls-17,.cls-19,.cls-31,.cls-39,.cls-4,.cls-5,.cls-7,.cls-8{fill:#fff;}.cls-12,.cls-26,.cls-27,.cls-28,.cls-29,.cls-30,.cls-31,.cls-33,.cls-34,.cls-35,.cls-39,.cls-40,.cls-41,.cls-5,.cls-6,.cls-7,.cls-8,.cls-9{stroke:#1a1a1a;}.cls-18,.cls-19,.cls-20,.cls-24,.cls-26,.cls-27,.cls-29,.cls-30,.cls-34,.cls-35,.cls-38,.cls-5,.cls-6,.cls-7{stroke-linecap:round;}.cls-18,.cls-19,.cls-20,.cls-22,.cls-24,.cls-26,.cls-27,.cls-28,.cls-29,.cls-30,.cls-34,.cls-35,.cls-36,.cls-37,.cls-39,.cls-5,.cls-6,.cls-7{stroke-linejoin:round;}.cls-14,.cls-25,.cls-41,.cls-6{fill:#fff5f6;}.cls-12,.cls-26,.cls-27,.cls-28,.cls-29,.cls-39,.cls-41,.cls-7,.cls-8,.cls-9{stroke-width:0.8px;}.cls-29,.cls-9{fill:#1a1a1a;}.cls-10{mix-blend-mode:multiply;}.cls-11{stroke:#191919;}.cls-13,.cls-35{fill:#be2229;}.cls-15{fill:#dbc6c9;}.cls-16{fill:#fef4f5;}.cls-20,.cls-23{fill:#b02028;}.cls-21,.cls-22,.cls-24,.cls-34{stroke-width:2px;}</style></defs><title>_</title><g class="cls-1"><g id="西門站"><g id="island_1"><g id="大地板"><polyline class="cls-2" points="24.08 240.42 271.61 97.51 545.69 255.75 354.12 365.38 217.08 286.26"/><polygon class="cls-3" points="545.69 255.75 545.69 275.71 354.14 384.44 354.81 365.97 545.69 255.75"/><polygon class="cls-3" points="353.8 384.06 354.47 365.58 217.43 286.46 217.43 305.96 353.8 384.06"/><polygon class="cls-3" points="160.45 338.56 161.12 320.09 24.08 240.97 24.08 260.47 160.45 338.56"/><polygon class="cls-3" points="161.12 320.09 160.45 338.56 217.43 305.96 217.43 286.46 161.12 320.09"/><polygon class="cls-4" points="24.08 240.97 161.12 320.09 217.43 286.46 354.47 365.58 545.69 255.75 271.61 97.51 24.08 240.97"/></g><g id="售票亭"><polygon class="cls-5" points="137.5 122.27 172.95 143.31 138.08 163.06 102.63 142.68 137.5 122.27"/><polygon class="cls-6" points="102.63 212.23 102.63 142.68 138.08 163.06 138.08 234.03 102.63 212.23"/><polygon class="cls-5" points="173.07 212.93 172.95 143.31 138.08 163.06 138.08 234.03 173.07 212.93"/><polygon class="cls-5" points="154.6 219.52 154.56 195.05 142.3 201.99 142.3 226.93 154.6 219.52"/><path class="cls-7" d="M155.07,166.92s5.83-2.73,7.81,2.44,1.3,5.3,1.3,5.3l-2.21.94.26,7.75s-8.74,0-9.87-1.8,1.72-9.66,1.72-9.66-1.7-.45-1.7-1.55,1.28-1.39,2.41-.28S155.07,166.92,155.07,166.92Z"/><ellipse class="cls-8" cx="160.28" cy="169.78" rx="0.21" ry="0.23"/><path class="cls-9" d="M161.68,167.14s-1.25-5-2.61-5.44l-.76,1s-4.25-.79-5.06.39a11.87,11.87,0,0,1-2.11,2.22s.65,3.09,0,3.33,3.77,2,3.77,2l-.29-3.49,2.27-1.1,3,.13Z"/><rect class="cls-10" x="151.81" y="167.62" width="3.44" height="1.5" rx="0.67" ry="0.67"/><path class="cls-11" d="M166.7,164c-.52-9.89-9.33-4.47-9.33-4.47a17.78,17.78,0,0,0-9.29,14.7c-.47,10.44,0,21,0,21l9.31-5.12,9.32-5.12S167.23,173.9,166.7,164Z"/><line class="cls-2" x1="147.05" y1="213.67" x2="152.52" y2="210.67"/><circle class="cls-4" cx="144.86" cy="214.61" r="0.47"/><line class="cls-12" x1="147.88" y1="188.07" x2="152.36" y2="181.55"/><line class="cls-3" x1="162.23" y1="183.35" x2="165.04" y2="185.96"/><circle class="cls-4" cx="144.7" cy="204.67" r="0.47"/><line class="cls-2" x1="146.89" y1="203.73" x2="152.36" y2="200.73"/><circle class="cls-4" cx="144.86" cy="207.99" r="0.47"/><line class="cls-2" x1="147.05" y1="207.05" x2="152.52" y2="204.05"/><circle class="cls-4" cx="144.86" cy="211.3" r="0.47"/><line class="cls-2" x1="147.05" y1="210.36" x2="152.52" y2="207.36"/></g><polygon class="cls-13" points="262.08 192.11 262.08 39.62 326.56 3.88 465.94 85.36 465.94 236.72 424.69 261.29 354.29 273.57 275.91 230.6 262.08 192.11"/><polygon class="cls-14" points="262.08 60.91 262.08 89.63 275.91 128.12 348.26 167.78 354.29 171.09 424.69 158.8 465.94 134.24 465.94 103.66 424.69 128.22 416.44 129.66 416.54 141.26 362.7 150.08 362.87 139.01 356.93 140.05 277.41 101.32 262.08 60.91"/><polygon class="cls-15" points="353.71 186.28 273.65 142.39 262.08 107.43 262.36 97.87 277.93 138.66 354.63 180.71 423.63 168.67 465.82 143.54 465.94 149.67 425.51 173.75 353.71 186.28"/><polygon class="cls-16" points="353.71 189.18 273.65 145.29 262.08 110.33 262.36 100.78 277.93 141.56 354.63 183.61 423.63 171.57 465.82 146.45 465.94 152.57 425.51 176.65 353.71 189.18"/><polygon class="cls-15" points="353.71 204.93 273.65 161.04 262.08 126.08 262.36 116.53 277.93 157.31 354.63 199.36 423.63 187.32 465.82 162.19 465.94 168.32 425.51 192.4 353.71 204.93"/><polygon class="cls-16" points="353.71 206.86 273.65 162.98 262.08 128.02 262.36 118.46 277.93 159.25 354.63 201.3 423.63 189.26 465.82 164.13 465.94 170.26 425.51 194.34 353.71 206.86"/><polygon class="cls-15" points="353.71 224.38 273.65 180.49 262.08 145.53 262.36 135.97 277.93 176.76 354.63 218.81 423.63 206.77 465.82 181.64 465.94 187.77 425.51 211.85 353.71 224.38"/><polygon class="cls-16" points="353.71 226.31 273.65 182.42 262.08 147.47 262.36 137.91 277.93 178.69 354.63 220.75 423.63 208.71 465.82 183.58 465.94 189.71 425.51 213.79 353.71 226.31"/><polygon class="cls-2" points="262.08 39.62 262.08 192.11 275.91 230.6 354.29 273.57 424.69 261.29 465.94 236.72 465.94 85.36 326.56 3.88 262.08 39.62"/><polygon class="cls-14" points="419.24 159.8 419.49 267.21 425.04 270.35 430.75 268.54 430.05 155.61 424.69 158.8 419.24 159.8"/><polyline class="cls-14" points="348.75 276.13 354.29 279.27 360 277.46 359.75 170.56 354.29 171.09 348.26 167.78"/><polygon class="cls-14" points="270.45 113.9 270.7 234.88 276.25 238.02 281.96 236.21 281.96 128.79 274.78 125.94 270.45 113.9"/><polygon class="cls-17" points="264.65 124.11 267.79 129.65 267.49 161.62 264.65 156.36 264.65 124.11"/><polygon class="cls-14" points="260.21 43.24 260.21 47.75 267.15 54.09 270.09 47.18 273.48 63.54 283.41 75.97 286.5 75.46 286.29 70.94 278.03 60.3 275.21 39.62 271.7 40.38 267.79 48.35 262.2 42.09 260.21 43.24"/><polygon class="cls-14" points="287.51 82.38 304.41 92.06 317.93 80.82 335.55 111.42 353.45 119.25 357.53 117.44 357.56 111.87 342.77 104.7 324.69 73.97 318.36 74.51 306.93 83.81 292.42 75.39 286.81 77.55 287.51 82.38"/><polygon class="cls-14" points="361.39 119.58 361.39 115.3 379.09 112.37 387.88 90.79 390.32 93.31 400.69 108.87 416.66 106.76 419.43 109.82 419.43 113.82 401.8 116.22 391.13 101.32 384.43 119.03 364.01 122.06 361.39 119.58"/><polygon class="cls-17" points="377.59 229.62 377.89 250.8 405.31 247.37 405.31 231.03 384.38 234.57 377.59 229.62"/><polyline class="cls-2" points="262.08 89.63 275.91 128.12 354.29 171.09 424.69 158.8 465.94 134.24"/><polyline class="cls-2" points="261.96 70.69 275.79 109.18 354.17 152.15 424.57 139.86 465.82 115.3"/><polyline class="cls-2" points="416.28 129.69 424.69 128.22 465.94 103.66"/><line class="cls-2" x1="356.93" y1="140.05" x2="362.7" y2="139.04"/><polyline class="cls-2" points="353.29 139.95 275.91 97.54 262.08 59.05"/><polyline class="cls-2" points="419.83 110.38 424.57 109.55 465.82 84.99"/><line class="cls-2" x1="356.52" y1="121.43" x2="362.7" y2="120.35"/><line class="cls-2" x1="283.12" y1="82.88" x2="288.49" y2="85.83"/><line class="cls-2" x1="261.96" y1="40.38" x2="263.08" y2="43.5"/><polygon class="cls-18" points="419.43 113.82 401.93 116.42 391.4 100.61 384.43 119.03 364.01 122.06 364.01 118.06 381.97 115.39 390.32 93.31 402.95 112.27 419.43 109.82 419.43 113.82"/><line class="cls-18" x1="381.97" y1="115.39" x2="379.09" y2="112.37"/><line class="cls-18" x1="364.26" y1="118.32" x2="361.39" y2="115.29"/><line class="cls-18" x1="361.39" y1="115.29" x2="379.09" y2="112.37"/><line class="cls-18" x1="390.76" y1="93.81" x2="387.88" y2="90.79"/><line class="cls-18" x1="419.54" y1="109.78" x2="416.66" y2="106.76"/><line class="cls-18" x1="364.01" y1="122.07" x2="361.39" y2="119.58"/><line class="cls-18" x1="361.39" y1="115.29" x2="361.39" y2="119.58"/><line class="cls-18" x1="379.09" y1="112.37" x2="387.88" y2="90.79"/><line class="cls-18" x1="416.66" y1="106.76" x2="400.69" y2="108.87"/><polygon class="cls-18" points="260.21 46.97 267.15 54.09 270.09 47.18 272.88 62.34 283.41 75.97 283.41 71.7 275.51 61.2 271.81 40.16 266.72 50.54 260.21 43.24 260.21 46.97"/><line class="cls-18" x1="275.51" y1="61.2" x2="278.07" y2="60.61"/><line class="cls-18" x1="283.41" y1="71.7" x2="285.97" y2="71.11"/><line class="cls-18" x1="286.29" y1="70.94" x2="278.07" y2="60.61"/><line class="cls-18" x1="271.81" y1="40.16" x2="275.21" y2="39.62"/><line class="cls-18" x1="260.21" y1="43.24" x2="262.2" y2="42.09"/><line class="cls-18" x1="284.26" y1="75.78" x2="286.5" y2="75.46"/><line class="cls-18" x1="286.73" y1="71.21" x2="286.61" y2="75.19"/><line class="cls-18" x1="278.07" y1="60.61" x2="275.21" y2="39.62"/><line class="cls-18" x1="262.2" y1="42.09" x2="267.16" y2="47.27"/><polygon class="cls-18" points="287.51 82.38 304.41 92.06 317.93 80.82 335.55 111.42 353.85 119.58 353.85 114.57 337.38 107.25 318.71 75.02 303.6 86.62 287.51 76.75 287.51 82.38"/><line class="cls-18" x1="337.86" y1="106.84" x2="342.9" y2="104.79"/><line class="cls-18" x1="353.85" y1="114.57" x2="357.57" y2="111.87"/><line class="cls-18" x1="357.57" y1="111.87" x2="342.9" y2="104.79"/><line class="cls-18" x1="318.71" y1="75.02" x2="324.3" y2="74.01"/><line class="cls-18" x1="288.17" y1="76.44" x2="292.13" y2="75.49"/><line class="cls-18" x1="354.06" y1="119.79" x2="357.53" y2="117.44"/><line class="cls-18" x1="357.57" y1="111.87" x2="357.53" y2="117.44"/><line class="cls-18" x1="342.9" y1="104.79" x2="324.69" y2="73.97"/><line class="cls-18" x1="292.42" y1="75.39" x2="307.12" y2="84.14"/><line class="cls-18" x1="366.01" y1="122.07" x2="366.01" y2="150.08"/><line class="cls-18" x1="362.7" y1="120.82" x2="362.7" y2="150.08"/><line class="cls-18" x1="356.76" y1="118.06" x2="356.76" y2="150.91"/><polyline class="cls-18" points="353.45 119.25 353.45 153.36 354.29 279.27"/><polyline class="cls-18" points="348.25 167.78 348.25 201.88 348.75 276.13"/><polyline class="cls-18" points="359.49 170.18 359.49 201.88 360 277.46"/><line class="cls-18" x1="283.41" y1="73.36" x2="283.41" y2="101.32"/><line class="cls-18" x1="280.42" y1="72.29" x2="280.42" y2="99.78"/><line class="cls-18" x1="288.49" y1="83.33" x2="288.49" y2="104.1"/><line class="cls-18" x1="416.31" y1="114.55" x2="416.54" y2="141.26"/><line class="cls-18" x1="354.29" y1="279.27" x2="348.75" y2="276.4"/><line class="cls-18" x1="354.29" y1="279.27" x2="360" y2="277.84"/><polyline class="cls-18" points="275.4 97.54 275.4 97.54 276.25 238.02"/><polyline class="cls-18" points="270.2 113.62 270.2 160.63 270.7 234.88"/><polyline class="cls-18" points="281.45 131.12 281.45 162.17 281.96 236.21"/><line class="cls-18" x1="276.25" y1="238.02" x2="270.7" y2="235.15"/><line class="cls-18" x1="276.25" y1="238.02" x2="281.96" y2="236.59"/><polyline class="cls-18" points="424.19 110.33 424.19 144.44 425.04 270.35"/><polyline class="cls-18" points="418.99 159.8 418.99 192.97 419.49 267.21"/><polyline class="cls-18" points="430.24 155.61 430.24 192.97 430.75 268.54"/><line class="cls-18" x1="425.04" y1="270.35" x2="419.49" y2="267.48"/><line class="cls-18" x1="425.04" y1="270.35" x2="430.75" y2="268.92"/><polygon class="cls-19" points="290.51 117.09 272.88 107.39 272.3 89.45 289.93 99.15 290.51 117.09"/><polygon class="cls-19" points="311.98 128.79 292.99 118.34 292.37 99.01 311.36 109.47 311.98 128.79"/><polygon class="cls-19" points="334.42 141.51 314.57 130.58 313.92 110.38 333.77 121.31 334.42 141.51"/><polygon class="cls-19" points="358.61 155.08 338.08 143.78 337.4 122.88 357.94 134.18 358.61 155.08"/><path class="cls-19" d="M306,189.23V165.15a10.91,10.91,0,0,1,.53-3.45c1-3.07,3.68-7.9,10.06-3.69,7.71,5.08,7.63,15,7.63,15v27.4Z"/><path class="cls-19" d="M292.53,239.91V215a7.09,7.09,0,0,1,.9-3.48c1.71-3.1,6.26-8,17.12-3.72C323.67,213,331.32,224,331.32,224v37.49Z"/><polygon class="cls-19" points="288.5 146.37 288.5 179.68 300.44 186.62 300.44 153.26 288.5 146.37"/><line class="cls-18" x1="294.47" y1="149.81" x2="294.47" y2="182.86"/><line class="cls-18" x1="314.91" y1="157.07" x2="314.91" y2="194.37"/><line class="cls-18" x1="289.09" y1="158.5" x2="300.44" y2="164.87"/><line class="cls-18" x1="288.49" y1="168.84" x2="300.44" y2="175.32"/><polygon class="cls-19" points="331.32 170.56 331.32 203.87 343.27 210.81 343.27 177.46 331.32 170.56"/><line class="cls-18" x1="337.3" y1="174.01" x2="337.3" y2="207.06"/><line class="cls-18" x1="331.92" y1="182.69" x2="343.27" y2="189.06"/><line class="cls-18" x1="331.32" y1="193.04" x2="343.27" y2="199.51"/><line class="cls-18" x1="306.12" y1="167" x2="324.21" y2="177.15"/><line class="cls-18" x1="305.86" y1="177.78" x2="323.95" y2="187.94"/><polygon class="cls-20" points="343.5 222.61 292.63 192.94 277.86 200.93 330.05 231.36 343.5 222.61"/><line class="cls-21" x1="330.05" y1="231.36" x2="341.32" y2="241.71"/><line class="cls-21" x1="277.86" y1="200.93" x2="286.97" y2="212.15"/><line class="cls-21" x1="341.05" y1="238.02" x2="341.32" y2="244.49"/><line class="cls-21" x1="287.09" y1="209.11" x2="286.92" y2="214.24"/><path class="cls-19" d="M383.14,215.26V191.45a15.44,15.44,0,0,1,.42-3.62c.82-3.57,3-9.91,8.33-10.14,6.42-.28,6.4,9.14,6.4,9.14l.15,26Z"/><polygon class="cls-19" points="367.47 185.21 367.64 216.77 377.59 215.45 377.41 183.85 367.47 185.21"/><line class="cls-18" x1="372.44" y1="184.53" x2="372.61" y2="215.84"/><line class="cls-18" x1="391.56" y1="177.9" x2="391.76" y2="213.24"/><line class="cls-18" x1="368.02" y1="196.31" x2="377.47" y2="194.85"/><line class="cls-18" x1="367.58" y1="206.51" x2="377.53" y2="204.74"/><polygon class="cls-19" points="403.11 179.84 403.29 211.4 413.23 210.08 413.06 178.48 403.11 179.84"/><line class="cls-18" x1="408.09" y1="179.16" x2="408.26" y2="210.47"/><line class="cls-18" x1="403.67" y1="190.94" x2="413.12" y2="189.48"/><line class="cls-18" x1="403.23" y1="201.14" x2="413.17" y2="199.37"/><line class="cls-18" x1="383.26" y1="193.11" x2="398.32" y2="190.78"/><line class="cls-18" x1="383.1" y1="203.5" x2="398.16" y2="201.17"/><polygon class="cls-20" points="372.95 225.26 403.25 219.98 415.35 229.28 384.27 234.69 372.95 225.26"/><line class="cls-18" x1="377.59" y1="229.12" x2="377.59" y2="251.42"/><line class="cls-18" x1="405.31" y1="231.03" x2="405.31" y2="246.77"/><line class="cls-18" x1="377.59" y1="251.42" x2="405.31" y2="247.37"/><line class="cls-22" x1="382.07" y1="232.86" x2="372.53" y2="241.26"/><line class="cls-22" x1="415.35" y1="229.62" x2="407.62" y2="236.41"/><line class="cls-21" x1="371.94" y1="238.04" x2="372.21" y2="244.51"/><line class="cls-21" x1="407.62" y1="234.69" x2="407.62" y2="240.27"/><polygon class="cls-23" points="270.45 187.13 258.71 166.95 263.65 163.83 270.59 176.43 270.45 187.13"/><line class="cls-2" x1="264.65" y1="124.11" x2="267.79" y2="129.65"/><line class="cls-2" x1="264.65" y1="124.11" x2="264.65" y2="156.36"/><line class="cls-2" x1="264.65" y1="156.36" x2="267.49" y2="161.61"/><line class="cls-2" x1="267.79" y1="129.65" x2="267.49" y2="161.61"/><line class="cls-24" x1="287.01" y1="179.04" x2="300.44" y2="186.62"/><line class="cls-24" x1="330.88" y1="203.86" x2="344.31" y2="211.44"/><line class="cls-24" x1="304.52" y1="188.29" x2="324.97" y2="200.26"/><path class="cls-19" d="M381.44,142.35l-.05-12.91a3.86,3.86,0,0,1,.62-2c1.21-2.09,3.11-5.7,11.08-6.79,9.63-1.32,11,4.32,11,4.32l.27,13.3Z"/><line class="cls-18" x1="381.59" y1="130.32" x2="404.16" y2="126.53"/><line class="cls-18" x1="381.36" y1="135.98" x2="404.18" y2="132.16"/><line class="cls-18" x1="393.09" y1="120.61" x2="393.14" y2="140.25"/><path class="cls-19" d="M273,80.78l.38-8.46a8.59,8.59,0,0,0-.11-1.61c-.28-1.89-.29-5.81-2.75-9.8-2.69-4.37-3.23-1.41-3.23-1.41l-.35,6.75Z"/><path d="M276.5,98.14l3.3,1.76v-.19l-.09-1.48-4-2.14,0-.52L287,101.65l0,.52-4-2.12.09,1.67,3.4,1.81.39,6.73-.67-.36,0-.64-8.75-4.67,0,.64-.67-.36Zm7.58,7.68c-.92-.47-1.39-1-1.4-1.71l-.13-2.23-2.05-1.1c.12,1.58-.56,2.43-2,2.54a1.56,1.56,0,0,0-.24-.33l-.3-.35c1.41,0,2.05-.78,1.91-2.22L277.2,99l.29,5.09,8.75,4.67-.29-5.09-2.73-1.46.13,2.19c0,.36.27.68.84,1s1,.54,1.48.76a1.75,1.75,0,0,1,0,.25.53.53,0,0,1-.08.23Zm-3.63-5.76,0,.2,2,1.1-.09-1.67-2.06-1.1Z"/><path d="M296.92,106.81l4.16,2.22.22,3.74-3.54-1.89.3,5.22-.62-.34Zm.65.81.07,1.15,2.91,1.56-.06-1.15Zm.16,2.82,2.92,1.56-.07-1.19-2.92-1.56Zm7.9,9.08c.8.48,1.15.39,1.05-.25l-.22-3.74-3.58-1.91-.22-3.75,4.26,2.28.43,7.56c.08.86-.43,1-1.55.44l-1.62-.87s0-.12-.06-.22a4.64,4.64,0,0,0-.12-.45C304.41,118.86,305,119.16,305.63,119.52Zm-2.32-8.84.07,1.16,3,1.58-.07-1.15Zm.09,1.63.07,1.2,3,1.58-.07-1.19Z"/><path d="M318.55,120.29l.31-.22.39.4a9.39,9.39,0,0,0,1.5-1.36l.68.56a19.21,19.21,0,0,1-1.68,1.33,13.38,13.38,0,0,1,1.18,1.25c.18-.16.46-.4.84-.71s.42-.31.53-.41l.6.63c-.86.65-1.74,1.25-2.63,1.8l2.47,1.08-.63-1.26.51.09c.18.32.49,1,.95,1.89a8.52,8.52,0,0,0,.37.77l-.56-.1c-.11-.21-.25-.51-.43-.89l-1.37-.58.24,4.14-.63-.33-.23-4.06-1.71-.68-.52-.24-.13-.61.9.41a6.62,6.62,0,0,0,1.17-.73L319.29,121Zm.73,6.21-.58-.47a5.35,5.35,0,0,0,1.07-1.47l.59.55A5.62,5.62,0,0,1,319.28,126.5Zm3-.38.52.08c.38.71.73,1.43,1.05,2.14l-.56-.07A19.86,19.86,0,0,0,322.31,126.12Zm1.4,2.55,2.87,1.54-.39-6.81L323.61,122l0-.47,5.79,3.09,0,.47-2.53-1.35.39,6.8,2.92,1.56,0,.44-6.46-3.45Z"/><path d="M341.7,132.34l1.43.76L343,131l.57.31.12,2.15,1.1.59,0,.47-1.1-.58.09,1.55.32-.06c.14.2.32.47.56.8l.66,1-.46.06c-.28-.46-.63-1-1.07-1.61l.3,5.17-.57-.31-.34-5.73a4,4,0,0,1-1.3,2.28,3.77,3.77,0,0,1-.16-.36l-.16-.31a6,6,0,0,0,1.51-2.79l-1.39-.74Zm4.69,8.25.41-.13.45-.18-2.15-1.15,0-.44,2.58,1.38.18-.14a1.07,1.07,0,0,0,.44-.3l.63.49a1.51,1.51,0,0,1-.53.33l4.87,2.61,0,.44-1.72-.92a2.14,2.14,0,0,1-1.33.33c1,.72,2,1.47,3,2.24l-.31.25-2-1.56-1.31-1a17.55,17.55,0,0,1-4.21-1.39,2.53,2.53,0,0,0-.31-.64,20.86,20.86,0,0,0,3.69,1.4c-.19-.16-.5-.37-.91-.65l-.68-.47-.28,0Zm-.45-3.87,2.86,1.53,0-.71L345.89,136l-.06-1.16-.72-.38,0-.44.72.38-.07-1.19,2.87,1.53-.05-.83.63.33,0,.83,2.87,1.54.07,1.19.77.41,0,.44-.76-.41.07,1.15-2.87-1.53,0,.72,2.87,1.53.09,1.67-6.36-3.4Zm.39-2.76.05.76,2.29,1.23,0-.76Zm.07,1.2,0,.71,2.3,1.23,0-.72Zm.13,2.27.05.87,2.3,1.23-.05-.88Zm1,3.45,1.94,1.5a2.66,2.66,0,0,0,1.38-.19L348,140.66A1.35,1.35,0,0,1,347.52,140.88Zm4-4.13-2.3-1.23,0,.76,2.3,1.22Zm-2.23,0,0,.72,2.3,1.23-.05-.72Zm2.43,3.5-2.3-1.23.05.88,2.3,1.22Z"/><g id="柱子"><path class="cls-4" d="M113.89,242.26c0,2.35-6.4,4.25-14.3,4.25s-14.3-1.9-14.3-4.25l3-3.11h22.64Z"/><path class="cls-4" d="M85.29,231.55l3,7.6c0,1.86,5.07,3.36,11.32,3.36s11.32-1.5,11.32-3.36l2.68-6.73"/><path class="cls-3" d="M85.29,159.25v72.3c0,2.34,6.4,4.24,14.3,4.24s14.3-1.9,14.3-4.24v-72.3"/><ellipse class="cls-4" cx="99.59" cy="159.25" rx="14.3" ry="4.24"/><ellipse class="cls-4" cx="99.44" cy="155.99" rx="14.3" ry="4.24"/><path class="cls-19" d="M109.86,154.4c0,1.47-4.6,2.66-10.27,2.66s-10.26-1.19-10.26-2.66l-7.83-9.3h36.19Z"/><ellipse class="cls-25" cx="99.59" cy="145.1" rx="18.09" ry="4.99"/><line class="cls-19" x1="99.59" y1="157.06" x2="99.59" y2="150.08"/><line class="cls-19" x1="96.54" y1="156.94" x2="94.67" y2="149.89"/><line class="cls-19" x1="92.94" y1="155.99" x2="89.88" y2="149.89"/><line class="cls-19" x1="102.13" y1="156.94" x2="104" y2="149.89"/><line class="cls-19" x1="105.73" y1="155.99" x2="108.79" y2="149.89"/></g><g id="柱子-2" data-name="柱子"><path class="cls-4" d="M488.86,269.2c0,2.34-6.4,4.24-14.3,4.24s-14.3-1.9-14.3-4.24l3-3.12h22.64Z"/><path class="cls-4" d="M460.26,258.48l3,7.6c0,1.86,5.07,3.36,11.32,3.36s11.32-1.5,11.32-3.36l2.68-6.73"/><path class="cls-3" d="M460.26,186.18v72.3c0,2.34,6.4,4.24,14.3,4.24s14.3-1.9,14.3-4.24v-72.3"/><ellipse class="cls-4" cx="474.56" cy="186.18" rx="14.3" ry="4.24"/><ellipse class="cls-4" cx="474.41" cy="182.92" rx="14.3" ry="4.24"/><path class="cls-19" d="M484.83,181.33c0,1.47-4.6,2.66-10.27,2.66s-10.26-1.19-10.26-2.66l-7.83-9.3h36.19Z"/><ellipse class="cls-25" cx="474.56" cy="172.03" rx="18.09" ry="4.99"/><line class="cls-19" x1="474.56" y1="183.99" x2="474.56" y2="177.01"/><line class="cls-19" x1="471.51" y1="183.87" x2="469.64" y2="176.82"/><line class="cls-19" x1="467.91" y1="182.92" x2="464.85" y2="176.82"/><line class="cls-19" x1="477.1" y1="183.87" x2="478.97" y2="176.82"/><line class="cls-19" x1="480.7" y1="182.92" x2="483.76" y2="176.82"/></g><g id="柱子-3" data-name="柱子"><path class="cls-4" d="M248.44,181.79c0,2.35-6.41,4.25-14.3,4.25s-14.3-1.9-14.3-4.25l3-3.11h22.64Z"/><path class="cls-4" d="M219.84,171.07l3,7.61c0,1.85,5.07,3.36,11.32,3.36s11.32-1.51,11.32-3.36l2.67-6.73"/><path class="cls-3" d="M219.84,98.78v72.29c0,2.35,6.4,4.25,14.3,4.25s14.3-1.9,14.3-4.25V98.78"/><ellipse class="cls-4" cx="234.14" cy="98.78" rx="14.3" ry="4.24"/><ellipse class="cls-4" cx="233.98" cy="95.52" rx="14.3" ry="4.24"/><path class="cls-19" d="M244.4,93.93c0,1.47-4.59,2.66-10.26,2.66s-10.27-1.19-10.27-2.66L216,84.62h36.19Z"/><ellipse class="cls-25" cx="234.14" cy="84.62" rx="18.09" ry="4.99"/><line class="cls-19" x1="234.14" y1="96.59" x2="234.14" y2="89.61"/><line class="cls-19" x1="231.08" y1="96.47" x2="229.21" y2="89.42"/><line class="cls-19" x1="227.48" y1="95.52" x2="224.42" y2="89.42"/><line class="cls-19" x1="236.68" y1="96.47" x2="238.55" y2="89.42"/><line class="cls-19" x1="240.27" y1="95.52" x2="243.33" y2="89.42"/></g><g id="tickettrigger"><rect class="cls-26" x="176.07" y="200.99" width="5.24" height="13.07" transform="translate(-92.98 173.02) rotate(-42.03)"/><rect class="cls-7" x="179.3" y="209.4" width="5.24" height="3.42" transform="translate(-94.55 176.11) rotate(-42.03)"/><rect class="cls-27" x="174.93" y="201.42" width="5.24" height="9.66" transform="translate(-92.43 171.93) rotate(-42.03)"/><line class="cls-27" x1="178.83" y1="211.59" x2="182.72" y2="208.09"/></g><path class="cls-28" d="M201.8,193.27s13.16,19.55,11.83,31.59c0,0-19.73,1.5-26.16-2.21,0,0,1.19-23.28,4.16-27.49C191.63,195.16,199.61,195.05,201.8,193.27Z"/><polygon class="cls-26" points="201.47 193.78 194.22 198.21 193 195.99 201.47 193.78"/><path class="cls-28" d="M196.63,200.38S187.1,210,183,210.53c0,0,15.67-2.71,19.19-10.76"/><path class="cls-29" d="M213.72,225.22s-10,16.38-16.27,28.79l-5.22.88s-4.11-22.48-4.22-32"/><line class="cls-27" x1="192.6" y1="212.13" x2="192.49" y2="222.9"/><path class="cls-9" d="M193.05,184.38c-4.55-1.46-6.1-8.52,6.74-5.23,0,0,2.29-.57,2.29-.53.29,1.15,2.87,19.78,7.91,15.84,0,0-5.2,5-8,2.84l-1.69-1.72-7.26-11.1S193.08,184.39,193.05,184.38Z"/><path class="cls-7" d="M199.86,182.82a.13.13,0,0,0-.08-.15c-.82-.32-6.45-3-8.32,1.49-1.77,4.27-1.83,4.46-1.72,4.56l0,0,2.16.85a.14.14,0,0,1,.09.14l-.41,5.47s8.07.28,9.23-1.43-.23-6.49-.63-7.53a.14.14,0,0,1,.09-.19c.42-.12,1.61-.56,1.61-1.43,0-1.06-1.32-1.32-2.48-.27S199.73,183.46,199.86,182.82Z"/><circle class="cls-8" cx="194" cy="185.96" r="0.22"/><path class="cls-30" d="M197.45,254v3.65s-6.38,2.16-10,0l4.76-2.77Z"/><path class="cls-7" d="M340.88,254.25s-5.41-2.54-7.25,2.27-1.21,4.92-1.21,4.92l2.05.87-.24,7.2s8.12,0,9.17-1.67-1.6-9-1.6-9,1.59-.42,1.58-1.45-1.19-1.28-2.23-.25S340.88,254.25,340.88,254.25Z"/><ellipse class="cls-8" cx="336.04" cy="256.91" rx="0.2" ry="0.21"/><path class="cls-9" d="M334.74,254.45s1.16-4.61,2.43-5l.7.88s3.95-.73,4.71.37a11.2,11.2,0,0,0,1.95,2.06s-.6,2.87,0,3.09-3.5,1.9-3.5,1.9l.27-3.25-2.11-1-2.75.12Z"/><path class="cls-7" d="M343.4,267.31s11.86,18.79,10.67,30.37c0,0-17.8,1.44-23.59-2.12,0,0,1.06-22.39,3.75-26.44C334.23,269.12,341.42,269,343.4,267.31Z"/><path class="cls-29" d="M354.15,298s-9,15.74-14.67,27.68l-4.71.84s-3.71-21.61-3.81-30.75"/><path class="cls-30" d="M339.48,325.71v3.5s-5.76,2.08-9,0l4.29-2.66Z"/><rect class="cls-10" x="340.72" y="254.9" width="3.19" height="1.4" rx="0.67" ry="0.67" transform="translate(684.63 511.2) rotate(-180)"/><path class="cls-7" d="M340.52,275.89s-12.65,2.62-16.07.91c0,0,13.38,5.83,20.57,1.4"/><path class="cls-12" d="M168.94,231.25s-5,12.93-2.21,14.2,10.21.88,9.87-4.58a35.63,35.63,0,0,0-2.5-10.47Z"/><ellipse class="cls-31" cx="171.25" cy="227.87" rx="4.83" ry="5.16"/><ellipse class="cls-8" cx="169.75" cy="225.75" rx="0.19" ry="0.2"/><path class="cls-8" d="M176.09,243.36s-4.63,7.14-6,10.77h-1.26L166,245S172.43,245.55,176.09,243.36Z"/><path class="cls-8" d="M170.26,254.13v1.92h-3.44s-1.88-1.06,0-1.92,2.12,0,2.12,0Z"/><path class="cls-12" d="M169.56,234.6s-5.57-4.78-6-6.2,2.28,8,5.4,8"/><polygon class="cls-29" points="169.94 222.71 171.25 220.73 177.05 222.71 179.36 227.87 178.3 230.67 174.05 230.54 174.05 227.87 171.8 224.98 169.94 222.71"/><path class="cls-12" d="M301.65,278.46s5,12.93,2.2,14.2-10.2.88-9.86-4.58a35.51,35.51,0,0,1,2.5-10.46Z"/><ellipse class="cls-31" cx="299.33" cy="275.08" rx="4.83" ry="5.16"/><ellipse class="cls-8" cx="300.84" cy="272.96" rx="0.19" ry="0.2"/><path class="cls-8" d="M294.5,290.57s4.63,7.14,6,10.78h1.27l2.85-9.15S298.16,292.76,294.5,290.57Z"/><path class="cls-8" d="M300.33,301.35v1.91h3.44s1.88-1.06,0-1.91-2.12,0-2.12,0Z"/><path class="cls-12" d="M301,281.82s5.57-4.79,6-6.21-2.28,8-5.41,8"/><polygon class="cls-29" points="300.65 269.92 299.33 267.94 293.54 269.92 291.23 275.08 292.29 277.88 296.54 277.75 296.54 275.08 298.79 272.19 300.65 269.92"/><path class="cls-28" d="M272.81,237.54S259.65,257.08,261,269.13c0,0,19.73,1.49,26.15-2.21,0,0-1.18-23.28-4.16-27.5C283,239.42,275,239.32,272.81,237.54Z"/><polygon class="cls-26" points="273.13 238.04 280.38 242.48 281.6 240.26 273.13 238.04"/><path class="cls-28" d="M278,244.65s9.54,9.65,13.69,10.14c0,0-15.67-2.7-19.19-10.75"/><path class="cls-29" d="M260.88,269.49s10,16.37,16.28,28.79l5.22.88s4.1-22.48,4.22-32"/><line class="cls-27" x1="282.01" y1="256.4" x2="282.12" y2="267.17"/><path class="cls-9" d="M281.56,228.65c4.54-1.46,6.1-8.52-6.75-5.23,0,0-2.28-.58-2.29-.54-.28,1.16-2.87,19.79-7.9,15.85,0,0,5.2,5,8,2.84l1.7-1.72,7.26-11.1S281.52,228.66,281.56,228.65Z"/><path class="cls-7" d="M274.75,227.09a.12.12,0,0,1,.08-.15c.82-.32,6.44-3,8.32,1.49,1.77,4.27,1.83,4.46,1.71,4.56l-.05,0-2.15.86a.12.12,0,0,0-.09.13l.4,5.48s-8.07.28-9.23-1.44c-1.06-1.57.24-6.48.64-7.52a.14.14,0,0,0-.09-.19c-.42-.12-1.61-.57-1.61-1.43,0-1.06,1.32-1.32,2.48-.27S274.88,227.73,274.75,227.09Z"/><circle class="cls-8" cx="280.6" cy="230.23" r="0.22"/><path class="cls-30" d="M277.16,298.28v3.65s6.38,2.15,10,0l-4.75-2.77Z"/><path class="cls-7" d="M392.91,227.86s5.83-2.74,7.81,2.43,1.3,5.3,1.3,5.3l-2.2.94.25,7.75s-8.74,0-9.86-1.8,1.71-9.66,1.71-9.66-1.7-.44-1.69-1.55,1.27-1.39,2.4-.28S392.91,227.86,392.91,227.86Z"/><ellipse class="cls-8" cx="398.13" cy="230.72" rx="0.21" ry="0.23"/><path class="cls-9" d="M399.53,228.07s-1.25-5-2.62-5.44l-.75,1s-4.26-.79-5.07.4a12,12,0,0,1-2.11,2.21s.65,3.09,0,3.33,3.78,2,3.78,2l-.29-3.5,2.26-1.1,3,.13Z"/><path class="cls-7" d="M390.21,241.91s-12.78,20.22-11.49,32.69c0,0,19.16,1.54,25.39-2.29,0,0-1.14-24.09-4-28.45C400.07,243.86,392.33,243.75,390.21,241.91Z"/><path class="cls-29" d="M378.63,275s9.74,16.95,15.8,29.8l5.06.9s4-23.26,4.11-33.1"/><path class="cls-30" d="M394.43,304.77v3.77s6.19,2.23,9.68,0l-4.62-2.87Z"/><rect class="cls-10" x="389.65" y="228.56" width="3.44" height="1.5" rx="0.67" ry="0.67"/><path class="cls-7" d="M399.23,248.72s5.37,12.82,9,14.81c0,0-13.32-8.32-13.78-17.4"/><g id="sign"><path class="cls-32" d="M307.44,241.45l-.52,11.22h-1.15l-.52-11.22Zm-.07,15.94h-2.05v-2.62h2.05Z"/></g><g id="sign-ticket"><path class="cls-32" d="M184.48,159.05,184,170.27H182.8l-.52-11.22ZM184.41,175h-2.06v-2.62h2.06Z"/></g><g id="柱子-4" data-name="柱子"><path class="cls-4" d="M371.22,338.11c0,2.35-6.41,4.25-14.3,4.25s-14.3-1.9-14.3-4.25l3-3.11h22.63Z"/><path class="cls-4" d="M342.62,327.39l3,7.61c0,1.85,5.07,3.36,11.32,3.36s11.31-1.51,11.31-3.36l2.68-6.73"/><path class="cls-3" d="M342.62,255.1v72.29c0,2.35,6.4,4.25,14.3,4.25s14.3-1.9,14.3-4.25V255.1"/><ellipse class="cls-4" cx="356.92" cy="255.1" rx="14.3" ry="4.24"/><ellipse class="cls-4" cx="356.76" cy="251.84" rx="14.3" ry="4.24"/><path class="cls-19" d="M367.18,250.25c0,1.47-4.59,2.66-10.26,2.66s-10.27-1.19-10.27-2.66l-7.83-9.31H375Z"/><ellipse class="cls-25" cx="356.92" cy="240.94" rx="18.09" ry="4.99"/><line class="cls-19" x1="356.92" y1="252.91" x2="356.92" y2="245.93"/><line class="cls-19" x1="353.86" y1="252.79" x2="351.99" y2="245.74"/><line class="cls-19" x1="350.26" y1="251.84" x2="347.2" y2="245.74"/><line class="cls-19" x1="359.45" y1="252.79" x2="361.32" y2="245.74"/><line class="cls-19" x1="363.05" y1="251.84" x2="366.11" y2="245.74"/></g></g><g id="island_3"><g id="小小地板"><polygon class="cls-8" points="487.15 338.87 404.18 386.35 486.21 433.7 568.91 386.29 487.15 338.87"/><polygon class="cls-33" points="404.11 406.88 404.18 386.35 486.21 433.7 486.48 454.26 404.11 406.88"/><polygon class="cls-31" points="569.14 406.3 568.91 386.29 486.21 433.7 486.55 454.8 569.14 406.3"/></g><polygon class="cls-6" points="497.62 362.68 527.68 381.69 473.2 416.66 443.14 398.24 497.62 362.68"/><polygon class="cls-5" points="477.23 336.43 497.69 348.94 460.61 371.94 440.15 359.82 477.23 336.43"/><polygon class="cls-6" points="440.15 382.02 440.15 359.82 460.61 371.94 460.61 394.98 440.15 382.02"/><polygon class="cls-5" points="497.76 371.18 497.69 348.94 460.61 371.94 460.61 394.98 497.76 371.18"/><ellipse class="cls-5" cx="472.82" cy="402.3" rx="7.12" ry="5.43"/><polygon class="cls-5" points="496.04 380.48 505.52 387.53 510.17 384.44 499.53 376.32 496.04 380.48"/><g id="旗子"><line class="cls-34" x1="434.67" y1="386.29" x2="434.67" y2="314.49"/><path class="cls-35" d="M435.15,312.58s-11.86,10.51-15.66,23.13l-.11,45.59s13.49-15.79,16-17.37Z"/><ellipse class="cls-30" cx="435.1" cy="387.53" rx="5.76" ry="3.41"/></g><ellipse class="cls-5" cx="487.8" cy="391.31" rx="7.12" ry="5.43"/><polygon class="cls-36" points="486.21 355.79 486.27 358.86 489.53 358.26 490.74 361.76 493.62 360.25 495.73 361.96 497.78 360.17 497.56 348.83 486.21 355.79"/><ellipse class="cls-37" cx="471.43" cy="378.93" rx="3.66" ry="4.99"/><ellipse class="cls-37" cx="480.69" cy="372.85" rx="3.66" ry="4.99"/><ellipse class="cls-37" cx="489.47" cy="368.2" rx="3.66" ry="4.99"/><path class="cls-36" d="M525,328.31l.48,8-3.25-1.55-10.89,6.26a13.46,13.46,0,0,1-2.5-16.35l13.39,5.88,2.77-2.27"/><path class="cls-7" d="M534.07,318.67s-5.42-2.54-7.26,2.27-1.2,4.92-1.2,4.92l2,.87-.23,7.2s8.12,0,9.16-1.67-1.59-9-1.59-9,1.58-.42,1.58-1.45-1.19-1.28-2.24-.25S534.07,318.67,534.07,318.67Z"/><ellipse class="cls-8" cx="529.23" cy="321.33" rx="0.2" ry="0.21"/><path class="cls-9" d="M527.92,318.87s1.17-4.61,2.43-5.05l.7.88s4-.73,4.71.37a11.45,11.45,0,0,0,2,2.06s-.6,2.87,0,3.09-3.51,1.9-3.51,1.9l.27-3.25-2.1-1-2.76.12Z"/><path class="cls-7" d="M536.58,331.73s11.87,18.79,10.67,30.37c0,0-17.79,1.44-23.59-2.12,0,0,1.07-22.39,3.76-26.44C527.42,333.54,534.61,333.44,536.58,331.73Z"/><path class="cls-29" d="M547.34,362.45s-9.05,15.74-14.68,27.68L528,391s-3.71-21.61-3.82-30.75"/><path class="cls-30" d="M532.66,390.13v3.5s-5.76,2.08-9,0L528,391Z"/><rect class="cls-10" x="533.91" y="319.32" width="3.19" height="1.4" rx="0.67" ry="0.67" transform="translate(1071.01 640.04) rotate(-180)"/><path class="cls-7" d="M534.74,341.07s-11.5-5.87-13.1-9.34c0,0,6.79,12.91,15.17,14"/></g><g id="island_2"><g id="小地板"><polyline class="cls-3" points="199.9 524.33 330.14 450.72 330.05 417.9 199.9 492.97"/><polygon class="cls-25" points="100.14 436.24 100.14 466.79 199.9 524.33 199.9 492.97 100.14 436.24"/><polygon class="cls-3" points="51.89 393.5 51.89 409.52 233.84 514.28 233.4 496.86 51.89 393.5"/><polygon class="cls-4" points="172.89 324.6 354.4 427.95 233.4 496.86 51.89 393.5 172.89 324.6"/><polygon class="cls-3" points="354.4 427.95 354.4 445.63 233.84 514.28 233.4 496.86 354.4 427.95"/></g><polygon class="cls-5" points="289.36 350.91 318.39 368.65 265.78 401.3 236.74 384.1 289.36 350.91"/><polygon class="cls-6" points="236.74 415.61 236.74 384.1 265.78 401.3 265.78 434 236.74 415.61"/><polygon class="cls-5" points="318.49 400.22 318.39 368.65 265.78 401.3 265.78 434 318.49 400.22"/><polygon class="cls-5" points="314.61 388.92 335.11 401.08 297.96 423.46 277.46 411.67 314.61 388.92"/><polygon class="cls-6" points="277.46 433.27 277.46 411.67 297.96 423.46 297.96 445.87 277.46 433.27"/><polygon class="cls-5" points="335.18 422.72 335.11 401.08 297.96 423.46 297.96 445.87 335.18 422.72"/><g id="大商店"><polygon class="cls-5" points="142.86 277.62 182.35 301.14 117.58 337.83 78.42 315.32 142.86 277.62"/><polygon class="cls-6" points="78.42 392.13 78.42 315.32 117.58 337.83 117.58 416.21 78.42 392.13"/><polygon class="cls-5" points="182.35 377.16 182.35 301.14 117.58 337.83 117.58 416.21 182.35 377.16"/><line class="cls-2" x1="176.99" y1="314.06" x2="174.39" y2="312.35"/><line class="cls-2" x1="127.4" y1="342.02" x2="125.13" y2="340.76"/><line class="cls-2" x1="125.53" y1="340.98" x2="174.86" y2="312.66"/><line class="cls-2" x1="127.38" y1="362.64" x2="125.11" y2="361.39"/><line class="cls-2" x1="125.11" y1="361.39" x2="125.13" y2="340.76"/><polygon class="cls-3" points="127.4 342.01 127.4 362.24 176.66 333.2 176.99 314.06 127.4 342.01"/><line class="cls-38" x1="181.52" y1="311.73" x2="179.42" y2="310.09"/><line class="cls-38" x1="181.52" y1="314.11" x2="179.42" y2="312.74"/><line class="cls-38" x1="181.52" y1="326.74" x2="179.42" y2="325.1"/><line class="cls-38" x1="181.52" y1="329.12" x2="179.42" y2="327.75"/><line class="cls-38" x1="181.52" y1="341.75" x2="179.42" y2="340.1"/><line class="cls-38" x1="181.52" y1="344.12" x2="179.42" y2="342.76"/><path class="cls-3" d="M185.23,320h2c2.6,0,4.71,3,4.71,6.6s-2.11,6.61-4.71,6.61h-2V320"/><ellipse class="cls-6" cx="185.23" cy="326.63" rx="4.71" ry="6.61"/><path class="cls-3" d="M185.23,305.12h2c2.6,0,4.71,3,4.71,6.61s-2.11,6.6-4.71,6.6h-2V305.12"/><ellipse class="cls-6" cx="185.23" cy="311.73" rx="4.71" ry="6.61"/><path class="cls-3" d="M185.23,336h2c2.6,0,4.71,3,4.71,6.6s-2.11,6.61-4.71,6.61h-2V336"/><ellipse class="cls-6" cx="185.23" cy="342.59" rx="4.71" ry="6.61"/><polyline class="cls-2" points="132.77 406.19 132.21 370.43 174.3 346.29 174.3 382.01"/><line class="cls-2" x1="154.55" y1="357.53" x2="154.55" y2="386.12"/></g><polygon class="cls-31" points="205.78 396.08 205.78 405.27 193.16 398.56 193.16 391.41 205.78 396.08"/><polygon class="cls-31" points="197.83 388.71 193.16 391.41 205.78 396.08 208.64 394.19 197.83 388.71"/><polygon class="cls-31" points="205.78 405.27 209.59 402.61 208.64 394.19 205.78 396.08 205.78 405.27"/><circle class="cls-31" cx="198.19" cy="397.4" r="2.33"/><path class="cls-39" d="M221.64,380.13s13.15,19.55,11.83,31.6c0,0-19.73,1.49-26.16-2.21,0,0,1.19-23.29,4.16-27.5C211.47,382,219.45,381.91,221.64,380.13Z"/><polygon class="cls-7" points="221.31 380.64 214.06 385.08 212.84 382.86 221.31 380.64"/><path class="cls-39" d="M216.47,387.24s-9.53,9.66-13.68,10.15c0,0,15.67-2.7,19.19-10.75"/><path class="cls-29" d="M233.56,412.09s-10,16.37-16.27,28.79l-5.22.87s-4.11-22.47-4.22-32"/><line class="cls-27" x1="212.44" y1="399" x2="212.33" y2="409.77"/><path class="cls-8" d="M212.89,371.24c-4.55-1.45-6.1-8.52,6.74-5.22,0,0,2.28-.58,2.29-.54.29,1.16,2.87,19.79,7.91,15.84,0,0-5.2,5-8,2.84l-1.69-1.71-7.26-11.1S212.92,371.26,212.89,371.24Z"/><path class="cls-7" d="M219.7,369.69a.15.15,0,0,0-.08-.16c-.82-.32-6.45-3-8.33,1.5-1.77,4.27-1.83,4.46-1.71,4.56l0,0,2.16.85a.15.15,0,0,1,.09.14l-.41,5.48s8.07.28,9.23-1.44c1.07-1.57-.23-6.48-.63-7.53a.13.13,0,0,1,.09-.18c.42-.13,1.61-.57,1.6-1.44,0-1.05-1.31-1.32-2.47-.26S219.57,370.33,219.7,369.69Z"/><circle class="cls-8" cx="213.84" cy="372.83" r="0.22"/><path class="cls-30" d="M217.29,440.88v3.65s-6.38,2.15-10,0l4.76-2.78Z"/><line class="cls-40" x1="185.99" y1="391.41" x2="181.55" y2="384.02"/><line class="cls-40" x1="176.7" y1="396.08" x2="183.77" y2="396.08"/><line class="cls-40" x1="187.61" y1="403.21" x2="176.7" y2="412.02"/><path class="cls-41" d="M157.92,396.64s5,12.93,2.21,14.2-10.21.87-9.87-4.59a35.62,35.62,0,0,1,2.5-10.46Z"/><ellipse class="cls-31" cx="155.6" cy="393.26" rx="4.83" ry="5.16"/><ellipse class="cls-8" cx="157.11" cy="391.13" rx="0.19" ry="0.2"/><path class="cls-12" d="M150.77,408.74s4.63,7.14,6,10.78h1.26l2.85-9.15S154.43,410.93,150.77,408.74Z"/><path class="cls-8" d="M156.6,419.52v1.92H160s1.88-1.06,0-1.92-2.12,0-2.12,0Z"/><path class="cls-41" d="M157.3,400s5.57-4.78,6-6.2-2.28,8-5.41,8"/><polygon class="cls-7" points="156.92 388.1 155.6 386.12 149.81 388.1 147.5 393.26 148.56 396.06 152.81 395.93 152.81 393.26 155.06 390.37 156.92 388.1"/><path class="cls-7" d="M143.82,363.28s4.61-2.17,6.17,1.92,1,4.19,1,4.19l-1.74.75.2,6.12s-6.91,0-7.8-1.42S143,367.2,143,367.2s-1.35-.35-1.35-1.22,1-1.1,1.9-.22S143.82,363.28,143.82,363.28Z"/><ellipse class="cls-8" cx="147.94" cy="365.54" rx="0.17" ry="0.18"/><path class="cls-8" d="M149.05,363.45s-1-3.93-2.07-4.3l-.6.75s-3.36-.63-4,.31a9.37,9.37,0,0,1-1.66,1.75s.51,2.44,0,2.63,3,1.62,3,1.62l-.23-2.76,1.8-.87,2.34.1Z"/><path class="cls-26" d="M141.68,374.39s-10.1,16-9.09,25.85c0,0,15.15,1.22,20.08-1.81,0,0-.9-19.05-3.19-22.5C149.48,375.93,143.36,375.84,141.68,374.39Z"/><path class="cls-29" d="M132.52,400.53s7.7,13.4,12.49,23.56l4,.72s3.16-18.4,3.24-26.18"/><path class="cls-26" d="M148.81,379.77s4.25,10.14,7.1,11.71c0,0-10.53-6.57-10.9-13.75"/><path class="cls-30" d="M145,424.09v3s4.9,1.77,7.66,0L149,424.81Z"/><g id="sign-2" data-name="sign"><path class="cls-32" d="M199.08,360.68l-.52,11.22h-1.15l-.52-11.22ZM199,376.62h-2V374h2Z"/></g></g></g></g></svg>