<svg id="3137d59c-f3ab-4dc7-9153-829a403c44c6" data-name="圖層 1" xmlns="http://www.w3.org/2000/svg" viewBox="0 0 58.88 59.33"><defs><style>.bfec94c1-c0b4-413b-a2f6-f0176352de38,.bff3d1b2-2723-4b99-94ba-f4877f02e58b,.c6e99868-ceb0-45ce-ba2b-b760a06f2aba{fill:none;stroke-linejoin:round;stroke-width:1.7px;}.bfec94c1-c0b4-413b-a2f6-f0176352de38,.c6e99868-ceb0-45ce-ba2b-b760a06f2aba{stroke:#495338;}.bfec94c1-c0b4-413b-a2f6-f0176352de38,.bff3d1b2-2723-4b99-94ba-f4877f02e58b{stroke-linecap:round;}.bff3d1b2-2723-4b99-94ba-f4877f02e58b{stroke:#9dd5d3;}</style></defs><title>icon</title><rect class="c6e99868-ceb0-45ce-ba2b-b760a06f2aba" x="21.01" y="4.76" width="16.86" height="6.3"/><line class="bfec94c1-c0b4-413b-a2f6-f0176352de38" x1="29.44" y1="35.74" x2="29.44" y2="47.32"/><line class="bfec94c1-c0b4-413b-a2f6-f0176352de38" x1="21.23" y1="14.92" x2="37.46" y2="14.92"/><line class="bfec94c1-c0b4-413b-a2f6-f0176352de38" x1="17.51" y1="18.8" x2="41.37" y2="18.8"/><line class="bfec94c1-c0b4-413b-a2f6-f0176352de38" x1="24.13" y1="24.04" x2="24.21" y2="22.33"/><line class="bfec94c1-c0b4-413b-a2f6-f0176352de38" x1="34.62" y1="24.04" x2="34.56" y2="22.33"/><line class="bfec94c1-c0b4-413b-a2f6-f0176352de38" x1="18.78" y1="23.66" x2="19.14" y2="21.5"/><line class="bfec94c1-c0b4-413b-a2f6-f0176352de38" x1="39.98" y1="23.67" x2="39.61" y2="21.5"/><line class="bfec94c1-c0b4-413b-a2f6-f0176352de38" x1="18.91" y1="35.74" x2="39.64" y2="35.74"/><path class="bfec94c1-c0b4-413b-a2f6-f0176352de38" d="M18.91,35.74a135.58,135.58,0,0,1-.35,14.08"/><line class="bfec94c1-c0b4-413b-a2f6-f0176352de38" x1="24.18" y1="40.6" x2="24.21" y2="39.9"/><line class="bfec94c1-c0b4-413b-a2f6-f0176352de38" x1="24.16" y1="43.9" x2="24.11" y2="46.96"/><line class="bfec94c1-c0b4-413b-a2f6-f0176352de38" x1="34.71" y1="40.63" x2="34.68" y2="39.92"/><line class="bfec94c1-c0b4-413b-a2f6-f0176352de38" x1="34.74" y1="43.9" x2="34.78" y2="47.04"/><path class="bfec94c1-c0b4-413b-a2f6-f0176352de38" d="M39.82,35.74a134.94,134.94,0,0,0,.44,14.08"/><line class="bfec94c1-c0b4-413b-a2f6-f0176352de38" x1="19.48" y1="31.75" x2="39.42" y2="31.75"/><line class="bfec94c1-c0b4-413b-a2f6-f0176352de38" x1="29.44" y1="4.76" x2="29.44" y2="31.75"/><line class="bfec94c1-c0b4-413b-a2f6-f0176352de38" x1="33.91" y1="7.82" x2="33.54" y2="7.86"/><line class="bfec94c1-c0b4-413b-a2f6-f0176352de38" x1="25.34" y1="7.86" x2="24.97" y2="7.82"/><line class="bfec94c1-c0b4-413b-a2f6-f0176352de38" x1="22.15" y1="27.51" x2="36.75" y2="27.51"/><line class="bff3d1b2-2723-4b99-94ba-f4877f02e58b" x1="18.48" y1="53.1" x2="18.48" y2="55.07"/><line class="bff3d1b2-2723-4b99-94ba-f4877f02e58b" x1="23.94" y1="53.1" x2="23.94" y2="55.07"/><line class="bff3d1b2-2723-4b99-94ba-f4877f02e58b" x1="29.45" y1="53.1" x2="29.45" y2="55.07"/><line class="bff3d1b2-2723-4b99-94ba-f4877f02e58b" x1="34.69" y1="53.1" x2="34.69" y2="55.07"/><line class="bff3d1b2-2723-4b99-94ba-f4877f02e58b" x1="40.24" y1="53.1" x2="40.24" y2="55.07"/></svg>