<svg id="39190e65-5e94-4f07-96ef-7307967210f0" data-name="圖層 1" xmlns="http://www.w3.org/2000/svg" viewBox="0 0 58.88 59.33"><title>icon</title><path d="M47.77,5.54V8.89c0,.06,0,.13,0,.2H46.16V7c-.13,0-34.35-.05-34.64,0,0,.22,0,.45,0,.68s0,.46,0,.69V9H10.08a.93.93,0,0,1,0-.13q0-1.62,0-3.25s0-.07,0-.1Z"/><path d="M52.82,54.68l0,.14a.67.67,0,0,1-.75.38.6.6,0,0,1-.49-.6H52l0,.09a.22.22,0,0,0,.23.1.17.17,0,0,0,.15-.13.15.15,0,0,0-.07-.17l-.15-.07-.22-.08a.51.51,0,0,1-.36-.47.52.52,0,0,1,.32-.51.59.59,0,0,1,.86.49h-.36s-.06,0-.09-.06a.43.43,0,0,0-.13-.06.14.14,0,0,0-.17.1.13.13,0,0,0,.09.17l.2.07.26.11a.53.53,0,0,1,.25.31Z"/><path d="M12.19,26.45h-.41L8.09,12.64h0c0,.06,0,.11,0,.17q0,1.15,0,2.29,0,4.25,0,8.51a5.57,5.57,0,0,0,.07,1.05c0,.11,0,.22.08.32a1.13,1.13,0,0,0,.85.81l.34.07.15,0v.55H6.08c0-.06,0-.1,0-.15s0-.26,0-.4l.3-.06a4.12,4.12,0,0,0,.42-.13.81.81,0,0,0,.5-.55,3.8,3.8,0,0,0,.11-.61,5.55,5.55,0,0,0,0-.56q0-5.56,0-11.11c0-.25,0-.49,0-.74a1.4,1.4,0,0,0-.06-.27.83.83,0,0,0-.54-.58,4.45,4.45,0,0,0-.44-.12l-.22,0v-.54c.11,0,3.46-.05,3.76,0l2.94,11h0q1.48-5.51,2.95-11H19.5a1.47,1.47,0,0,1,0,.56l-.38.06a.89.89,0,0,0-.76.7A4.67,4.67,0,0,0,18.22,13c0,.14,0,.27,0,.41q0,5.14,0,10.27c0,.38,0,.76.06,1.13a1.71,1.71,0,0,0,.08.35.85.85,0,0,0,.58.6l.46.13.11,0v.55H14.61v-.56l.3-.06.35-.09a.8.8,0,0,0,.52-.53,2.39,2.39,0,0,0,.12-.68c0-.16,0-.33,0-.49q0-5.78,0-11.56v-.19h0Z"/><path d="M29.1,44.84v.6c-.12,0-4.2,0-4.46,0,0-.2,0-.4,0-.61l.3-.08a.94.94,0,0,0,.78-.86,8.27,8.27,0,0,0,.08-1.33c0-1.3,0-2.61,0-3.91q0-3.55,0-7.11c0-.39,0-.78,0-1.17a2.31,2.31,0,0,0-.16-.7.77.77,0,0,0-.59-.5l-.36-.07v-.6l.12,0c1.49,0,3,0,4.48,0a3.16,3.16,0,0,1,2.6,1.34,3.88,3.88,0,0,1,.65,1.56,7.76,7.76,0,0,1-.09,3.45,3.62,3.62,0,0,1-.95,1.71,3.93,3.93,0,0,1-.73.56l-.16.1,0,.14,2.59,6.93a1.68,1.68,0,0,0,.11.24.46.46,0,0,0,.44.3v.61c-.12,0-2.18.05-2.7,0L28.3,37.63H28c0,.06,0,.1,0,.15q0,2.58,0,5.16a4.72,4.72,0,0,0,.1,1l0,.13a.88.88,0,0,0,.63.66Zm-1.16-8h.15c.22,0,.45,0,.67-.07A1.53,1.53,0,0,0,30,35.81a4.24,4.24,0,0,0,.22-.69,7.77,7.77,0,0,0,.16-1.57,12.12,12.12,0,0,0-.13-2.43A3.36,3.36,0,0,0,29.85,30a1.15,1.15,0,0,0-.77-.6,2.17,2.17,0,0,0-.54,0,.49.49,0,0,0-.53.46,4.33,4.33,0,0,0-.07.72q0,3,0,6.05Z"/><path d="M23.82,37a17.66,17.66,0,0,1-.45,4,10,10,0,0,1-.93,2.49,5.56,5.56,0,0,1-1.17,1.52,3.23,3.23,0,0,1-1.56.8,3,3,0,0,1-2.28-.48A4.84,4.84,0,0,1,16,43.83a9.76,9.76,0,0,1-1.13-2.92,16,16,0,0,1-.37-2.67,20.11,20.11,0,0,1,0-2.69A14.28,14.28,0,0,1,15.19,32a8.09,8.09,0,0,1,1.1-2.2,4.25,4.25,0,0,1,1.39-1.29,2.87,2.87,0,0,1,3.16.17,4.9,4.9,0,0,1,1.44,1.59,9.77,9.77,0,0,1,1.11,2.86,14.92,14.92,0,0,1,.37,2.62C23.79,36.18,23.8,36.61,23.82,37Zm-2.33.36c0-1.25,0-2.25-.12-3.24A18.72,18.72,0,0,0,21,31.58a6.74,6.74,0,0,0-.55-1.6,2.43,2.43,0,0,0-.51-.7,1.15,1.15,0,0,0-1.64,0,2.72,2.72,0,0,0-.56.85,8.34,8.34,0,0,0-.57,1.94,23.29,23.29,0,0,0-.36,3.6c0,1.32,0,2.64.05,4a19.37,19.37,0,0,0,.34,2.71,7.06,7.06,0,0,0,.5,1.58,2.65,2.65,0,0,0,.55.8,1.24,1.24,0,0,0,1.77,0,2.43,2.43,0,0,0,.47-.63A5.8,5.8,0,0,0,21,42.78a17.56,17.56,0,0,0,.45-3.37C21.46,38.66,21.47,37.9,21.48,37.4Z"/><path d="M20.11,26.44v-.56l.31-.06.35-.09a.74.74,0,0,0,.49-.48,3.35,3.35,0,0,0,.13-.61,4.12,4.12,0,0,0,0-.54q0-5.61,0-11.21a3.72,3.72,0,0,0-.09-.93,1.07,1.07,0,0,0-.3-.56,1.14,1.14,0,0,0-.63-.25l-.27,0v-.56h8.52v4.71h-.35c0-.25-.06-.49-.1-.73a6.71,6.71,0,0,0-.43-1.62,2.46,2.46,0,0,0-.87-1.13,2.62,2.62,0,0,0-1.12-.4,6.29,6.29,0,0,0-1.25,0h0a.6.6,0,0,0-.64.57,2.86,2.86,0,0,0,0,.49q0,2.67,0,5.34c0,.05,0,.11,0,.16a1.73,1.73,0,0,0,1.72-.75A3.69,3.69,0,0,0,26,16a10.07,10.07,0,0,0,.2-1.38c0-.06,0-.12,0-.19h.36c0,.13,0,7.75,0,7.94H26.2c0-.21,0-.42-.06-.62a6.69,6.69,0,0,0-.3-1.55,3.7,3.7,0,0,0-.29-.63,1.66,1.66,0,0,0-1.35-.82l-.39,0c0,.06,0,.11,0,.16,0,1.88,0,3.76,0,5.64a3,3,0,0,0,.08.63.68.68,0,0,0,.53.53,1.56,1.56,0,0,0,.29.06,3.75,3.75,0,0,0,1.5-.16,3,3,0,0,0,1.38-1,6.38,6.38,0,0,0,1-2c.11-.31.2-.63.3-.94l0-.1h.41l-.59,4.87Z"/><path d="M39.11,10.26h.37v5.5h-.34l0-.15a12.45,12.45,0,0,0-.94-2.46,5.55,5.55,0,0,0-1.06-1.5,3.17,3.17,0,0,0-.57-.44,1.69,1.69,0,0,0-2.16.33,3.77,3.77,0,0,0-.74,1.31,9.89,9.89,0,0,0-.47,2,28.19,28.19,0,0,0-.22,4.69,19.62,19.62,0,0,0,.22,2.59,9,9,0,0,0,.69,2.48,3.39,3.39,0,0,0,.61.92,1.9,1.9,0,0,0,1.73.57l.29-.06a1.09,1.09,0,0,0,.8-.91,3.32,3.32,0,0,0,.06-.61c0-.9,0-1.79,0-2.69a4.1,4.1,0,0,0-.09-.77.81.81,0,0,0-.68-.66l-.47-.08-.24,0v-.54c.13,0,4.83,0,5,0v.55l-.28.06a1,1,0,0,0-.91,1,6.22,6.22,0,0,0-.07.92c0,1,0,2,0,3a.36.36,0,0,1-.13.3,4.16,4.16,0,0,1-1.13.7,7.26,7.26,0,0,1-2.35.62,4.22,4.22,0,0,1-3.31-1.11,6.34,6.34,0,0,1-1.53-2.24,11.12,11.12,0,0,1-.78-3,14.23,14.23,0,0,1-.12-2.37,12.74,12.74,0,0,1,.85-4.36,7.36,7.36,0,0,1,1.22-2.08,4.63,4.63,0,0,1,1.48-1.19,3.65,3.65,0,0,1,2-.38,2.81,2.81,0,0,1,1.07.32c.36.19.72.41,1.07.61l.31.16a.38.38,0,0,0,.49-.12,1,1,0,0,0,.15-.25c.06-.16.11-.33.16-.5Z"/><path d="M51.56,40.25h.36l-.53,5.21H43.63v-.62l.33-.08a.87.87,0,0,0,.72-.72c0-.21.07-.42.09-.64a3.94,3.94,0,0,0,0-.4q0-6,0-12.05a4.42,4.42,0,0,0-.07-.9l0-.14a.92.92,0,0,0-.86-.76h-.08l-.11,0v-.6c.12,0,7.45,0,7.65,0v5H51c0-.25-.05-.5-.08-.74a7.81,7.81,0,0,0-.46-2,2.55,2.55,0,0,0-.59-.92,2.1,2.1,0,0,0-1.17-.53,5.06,5.06,0,0,0-1.09,0,.56.56,0,0,0-.59.51,3.79,3.79,0,0,0-.06.66q0,2.83,0,5.66c0,.05,0,.11,0,.18a1.56,1.56,0,0,0,1.38-.53,2.77,2.77,0,0,0,.48-1,9.2,9.2,0,0,0,.27-1.61c0-.18,0-.36,0-.55h.32v8.46h-.32c0-.22,0-.44,0-.66a7.47,7.47,0,0,0-.37-1.94,3.22,3.22,0,0,0-.29-.59,1.44,1.44,0,0,0-1.09-.67l-.38,0c0,.08,0,.14,0,.2q0,1.08,0,2.16c0,1.21,0,2.43,0,3.64,0,.24,0,.48,0,.72a.76.76,0,0,0,0,.14.74.74,0,0,0,.69.59,2.62,2.62,0,0,0,2.68-1.27,7.56,7.56,0,0,0,.9-2.06C51.38,41,51.47,40.62,51.56,40.25Z"/><path d="M46.32,48.92V46.84h1.43c0,.12,0,3.23,0,3.44H10.08V46.78a10.22,10.22,0,0,1,1.6,0v2.14Z"/><path d="M10.83,44.84v.62H6.07a6.1,6.1,0,0,1,0-.62l.35-.08A.87.87,0,0,0,7.14,44c0-.25.06-.51.09-.77,0-.09,0-.19,0-.28q0-6,0-12a4.42,4.42,0,0,0-.09-1l0-.13a.88.88,0,0,0-.8-.68l-.24,0V28.5h7.49c0,.12,0,4.81,0,5h-.31c0-.23-.05-.45-.08-.67a9.55,9.55,0,0,0-.33-1.66,4.94,4.94,0,0,0-.23-.6A2.07,2.07,0,0,0,11,29.39a4.25,4.25,0,0,0-1,0,.55.55,0,0,0-.58.5,3.26,3.26,0,0,0-.06.62q0,2.86,0,5.72s0,.1,0,.16a1.4,1.4,0,0,0,.8-.16,1.42,1.42,0,0,0,.55-.53,3.17,3.17,0,0,0,.42-1.15c.08-.48.14-1,.21-1.43,0-.15,0-.29,0-.45h.32v8.46h-.32l0-.57a9.9,9.9,0,0,0-.27-1.74,3.14,3.14,0,0,0-.34-.84,1.5,1.5,0,0,0-1.3-.75H9.39c0,.06,0,.11,0,.16,0,1.9,0,3.8,0,5.71a5,5,0,0,0,.07.79,1,1,0,0,0,1,.92Z"/><path d="M41.41,26.44v-.53l0,0a1.23,1.23,0,0,0,.81-.76,6.73,6.73,0,0,0,.31-.88c.37-1.4.73-2.81,1.08-4.21L46,10.73l.14-.53h.41l.05.18,2.44,9.17c.4,1.51.81,3,1.22,4.53.11.39.26.77.4,1.15a1.87,1.87,0,0,0,.2.36.65.65,0,0,0,.51.3h.09v.55H46.69c0-.18,0-.36,0-.55l.39-.06.37-.08a.53.53,0,0,0,.4-.47,2.24,2.24,0,0,0,0-.72,26.49,26.49,0,0,0-.62-2.64.51.51,0,0,0,0-.08H43.85c-.05.21-.1.41-.15.61-.16.69-.31,1.38-.46,2.07a1.54,1.54,0,0,0,0,.56.78.78,0,0,0,.53.68,3.83,3.83,0,0,0,.48.11l.18,0v.53C44.28,26.46,41.63,26.47,41.41,26.44ZM47,20.91l-1.47-5.64h0q-.69,2.81-1.37,5.64Z"/><path d="M42.56,41.64l.37.59a.14.14,0,0,1,0,.11,11.35,11.35,0,0,1-1.35,2.31,3.63,3.63,0,0,1-1.18,1,2.61,2.61,0,0,1-1.57.24,3.44,3.44,0,0,1-2.08-1.13,6.79,6.79,0,0,1-1.36-2.3,13.16,13.16,0,0,1-.7-2.87,18.37,18.37,0,0,1-.15-3.17A15.47,15.47,0,0,1,35.27,32a8,8,0,0,1,1.22-2.38A3.92,3.92,0,0,1,38,28.4a2.52,2.52,0,0,1,1.89-.16,3.84,3.84,0,0,1,1,.51l.5.36.23.16a.34.34,0,0,0,.54-.15,5.28,5.28,0,0,0,.22-.64c0-.08,0-.17.06-.26h.33c0,.12,0,5.62,0,5.84h-.31l-.16-.64a13.21,13.21,0,0,0-.93-2.6,5,5,0,0,0-.81-1.24,2.87,2.87,0,0,0-.41-.36,1.33,1.33,0,0,0-1.78.16,3.28,3.28,0,0,0-.7,1.18,9.69,9.69,0,0,0-.49,2,31.33,31.33,0,0,0-.27,4.65c0,.88,0,1.76.11,2.63a14,14,0,0,0,.39,2.44,4.73,4.73,0,0,0,.59,1.39,2.82,2.82,0,0,0,.57.64,1.53,1.53,0,0,0,1.65.25,2.76,2.76,0,0,0,1-.71,7.48,7.48,0,0,0,1.07-1.56c.1-.18.19-.37.28-.56Z"/><path d="M6.93,52.77l.62,1.77h0l.63-1.76H8.8c0,.13,0,2.21,0,2.38H8.39c0-.19,0-.37,0-.56s0-.36,0-.54a4.76,4.76,0,0,0,0-.57.56.56,0,0,0,0,.09L7.83,55c-.06.18-.06.18-.25.18H7.39L6.81,53.5h0s0,.09,0,.13q0,.67,0,1.34c0,.06,0,.12,0,.19H6.33V52.78A4.18,4.18,0,0,1,6.93,52.77Z"/><path d="M39.22,55.29h.41a.31.31,0,0,1,.13.06.59.59,0,0,0,.58,0,.49.49,0,0,0,.3-.46l-.1.08a.69.69,0,0,1-.75.12.93.93,0,0,1-.62-.9.91.91,0,0,1,.59-.89.71.71,0,0,1,.83.15l.05,0,0-.17H41a1.18,1.18,0,0,1,0,.13c0,.48,0,1,0,1.43a.94.94,0,0,1-.63.9,1,1,0,0,1-1.07-.27,2.12,2.12,0,0,1-.16-.23Zm.91-.5a.52.52,0,0,0,.51-.53.53.53,0,0,0-.53-.54.51.51,0,0,0-.52.52A.52.52,0,0,0,40.13,54.79Z"/><path d="M12.67,54.95l-.09.07a.68.68,0,0,1-.75.14.93.93,0,0,1-.63-.88.92.92,0,0,1,.56-.91.73.73,0,0,1,.87.14l.05,0,0-.17h.37a1.2,1.2,0,0,1,0,.13c0,.47,0,.94,0,1.42a1,1,0,0,1-.89,1,.94.94,0,0,1-1-.59c.2,0,.39-.05.58.08A.54.54,0,0,0,12.67,54.95Zm-.52-.16a.51.51,0,0,0,.53-.51.53.53,0,0,0-.53-.55.52.52,0,0,0-.52.52A.53.53,0,0,0,12.15,54.79Z"/><path d="M48,52.77h.41c0,.12,0,2.18,0,2.37l-.09,0h-.27L48,55h0a.81.81,0,0,1-1.23-.11,1,1,0,0,1,.4-1.52.76.76,0,0,1,.71.07l.13.09Zm-.49,2a.52.52,0,0,0,.53-.54.53.53,0,0,0-.54-.53.54.54,0,0,0-.52.53A.53.53,0,0,0,47.52,54.79Z"/><path d="M35.75,53.52v-.75h.43v2.37h-.37l0-.08s0-.05,0-.1l-.07,0a.8.8,0,0,1-1.09,0,1,1,0,0,1-.28-1,.9.9,0,0,1,.71-.68.73.73,0,0,1,.57.1Zm0,.73a.53.53,0,0,0-.54-.53.53.53,0,0,0-.52.53.53.53,0,1,0,1.05,0Z"/><path d="M9.59,54.45a.43.43,0,0,0,.33.33.52.52,0,0,0,.43-.06.46.46,0,0,1,.29-.08h.26a.9.9,0,0,1-1.06.55,1,1,0,1,1,.48-1.85A.93.93,0,0,1,11,54.45Zm.94-.39a.46.46,0,0,0-.48-.33.46.46,0,0,0-.45.33Z"/><path d="M28.89,54.45H27.52a.44.44,0,0,0,.34.33.51.51,0,0,0,.41-.06.5.5,0,0,1,.33-.08h.23a.89.89,0,0,1-1,.56,1,1,0,0,1,.38-1.88A.93.93,0,0,1,28.89,54.45ZM27.53,54a3.8,3.8,0,0,0,.93,0,.5.5,0,0,0-.93,0Z"/><path d="M24.84,54.64a.91.91,0,0,1-1.12.53,1,1,0,0,1,.49-1.85.93.93,0,0,1,.67,1.12H23.54a.4.4,0,0,0,.33.33.55.55,0,0,0,.41-.07.43.43,0,0,1,.28-.07Zm-1.32-.59h.94a.45.45,0,0,0-.43-.33A.51.51,0,0,0,23.52,54.05Z"/><path d="M14.82,53.57l0-.19h.38v1.77h-.37l0-.18-.08.06a.84.84,0,0,1-1.32-.34,1,1,0,0,1,.23-1.15.8.8,0,0,1,1.1,0Zm-.53,1.22a.53.53,0,0,0,0-1.07.53.53,0,0,0-.54.54A.52.52,0,0,0,14.3,54.79Z"/><path d="M25.11,7.36a1.36,1.36,0,0,1,1.08,1.43A1.33,1.33,0,0,1,25.12,10C25.09,9.9,25.08,7.56,25.11,7.36Z"/><path d="M33.7,45.83v2.64a1.32,1.32,0,0,1-1.09-1.25A1.35,1.35,0,0,1,33.7,45.83Z"/><path d="M25.53,45.82a1.35,1.35,0,0,1,1.09,1.39,1.32,1.32,0,0,1-1.09,1.26Z"/><path d="M25,45.83v2.63c-.47,0-1-.58-1.09-1.23A1.35,1.35,0,0,1,25,45.83Z"/><path d="M33.28,10a1.34,1.34,0,0,1,0-2.64Z"/><path d="M33.84,7.37a1.34,1.34,0,0,1,0,2.64Z"/><path d="M43.5,7.41,42.18,9.7a1.3,1.3,0,0,1-.35-1.57A1.35,1.35,0,0,1,43.5,7.41Z"/><path d="M24.54,7.37V10c-.45,0-1-.57-1.08-1.15A1.34,1.34,0,0,1,24.54,7.37Z"/><path d="M42.64,10,44,7.69A1.36,1.36,0,0,1,42.64,10Z"/><path d="M34.26,48.48V45.83a1.35,1.35,0,0,1,0,2.64Z"/><path d="M33.06,54.28a1,1,0,0,1-1.93,0,1,1,0,0,1,1-1A1,1,0,0,1,33.06,54.28Zm-.68,0A.28.28,0,0,0,32.1,54a.29.29,0,0,0-.29.29.28.28,0,0,0,.3.28A.27.27,0,0,0,32.38,54.27ZM31.83,54l-.34-.33a.81.81,0,0,0-.25.61h.45Zm.56.55.33.33a.66.66,0,0,0,.22-.58h-.45Z"/><path d="M15.44,45.83v2.65a1.32,1.32,0,0,1-1.08-1.24A1.35,1.35,0,0,1,15.44,45.83Z"/><path d="M16.08,10V7.37a1.34,1.34,0,0,1,1.08,1.39A1.32,1.32,0,0,1,16.08,10Z"/><path d="M42.71,48.47a1.33,1.33,0,0,1-1.07-1.19,1.36,1.36,0,0,1,1.06-1.46C42.74,45.95,42.74,48.31,42.71,48.47Z"/><path d="M43.3,45.82a1.36,1.36,0,0,1,1.07,1.45,1.34,1.34,0,0,1-1.07,1.2C43.27,48.36,43.26,46,43.3,45.82Z"/><path d="M15.52,10a1.33,1.33,0,0,1-1.08-1.21,1.35,1.35,0,0,1,1.08-1.44Z"/><path d="M16,48.47V45.83a1.35,1.35,0,0,1,1.08,1.42A1.34,1.34,0,0,1,16,48.47Z"/><path d="M17.95,54.26a1,1,0,1,1,.95,1A1,1,0,0,1,17.95,54.26Zm.94.53a.51.51,0,0,0,.53-.53.52.52,0,0,0-.51-.54.53.53,0,0,0-.53.53A.51.51,0,0,0,18.89,54.79Z"/><path d="M49.48,54.27a1,1,0,1,1,1,.95A1,1,0,0,1,49.48,54.27Zm1,.52a.51.51,0,0,0,.52-.54.52.52,0,0,0-.52-.53.53.53,0,0,0-.52.54A.51.51,0,0,0,50.43,54.79Z"/><path d="M45.87,53.37h.41v1.77a1.17,1.17,0,0,1-.36,0l0-.13a.61.61,0,0,1-.69.15.65.65,0,0,1-.48-.57c0-.13,0-.25,0-.38,0-.28,0-.56,0-.85h.43s0,.09,0,.14c0,.26,0,.53,0,.79a1,1,0,0,0,0,.21.32.32,0,0,0,.34.27.31.31,0,0,0,.33-.26,1.37,1.37,0,0,0,0-.29c0-.23,0-.46,0-.69C45.86,53.49,45.86,53.44,45.87,53.37Z"/><path d="M37.3,53.37h.37l0,.12.07,0a.68.68,0,0,1,.92.09.59.59,0,0,1,.17.38c0,.29,0,.58,0,.87,0,.11,0,.23,0,.35a1.26,1.26,0,0,1-.43,0c0-.06,0-.11,0-.15,0-.26,0-.53,0-.79a1,1,0,0,0,0-.24.32.32,0,0,0-.32-.24.33.33,0,0,0-.34.24,1.27,1.27,0,0,0,0,.31c0,.24,0,.47,0,.71,0,.05,0,.11,0,.17H37.3Z"/><path d="M17,55.15h-.42c0-.12,0-2.2,0-2.37h1.19v.41H17v.55h.71v.43H17C17,54.5,17,54.82,17,55.15Z"/><path d="M31,54.58a.91.91,0,0,1-1,.63A1,1,0,0,1,30,53.3.9.9,0,0,1,31,54h-.41a.18.18,0,0,1-.1-.07.52.52,0,0,0-.63-.09.55.55,0,0,0-.24.6.51.51,0,0,0,.49.4.44.44,0,0,0,.37-.14.22.22,0,0,1,.19-.08Z"/><path d="M22.8,54.58a.88.88,0,0,1-.93.63,1,1,0,0,1-.06-1.9.92.92,0,0,1,1,.64,3,3,0,0,1-.44,0s-.06,0-.09-.07a.51.51,0,0,0-.62-.09.54.54,0,0,0-.25.61.51.51,0,0,0,.47.39.47.47,0,0,0,.39-.14.2.2,0,0,1,.11-.07Z"/><path d="M42.18,54.6h.42a1.06,1.06,0,0,0,.07.12.24.24,0,0,0,.29.05.16.16,0,0,0,0-.25.53.53,0,0,0-.16-.09l-.22-.07a.51.51,0,0,1-.38-.47.52.52,0,0,1,.34-.52.6.6,0,0,1,.82.34,1.07,1.07,0,0,1,0,.16h-.34a.11.11,0,0,1-.1-.06.16.16,0,0,0-.19-.06c-.06,0-.12.06-.11.13a.21.21,0,0,0,.08.13.63.63,0,0,0,.17.07l.25.09a.51.51,0,0,1,.19.81.66.66,0,0,1-.71.24.6.6,0,0,1-.47-.52A.53.53,0,0,1,42.18,54.6Z"/><path d="M44.47,53.37v.36l-.25,0v1.37a1.21,1.21,0,0,1-.42,0,4.23,4.23,0,0,1,0-.46c0-.15,0-.31,0-.46v-.47l-.21,0v-.35l.2,0c0-.18,0-.38,0-.57h.42v.57Z"/><path d="M26.54,55.15h-.39a13.86,13.86,0,0,1,0-1.78h.36l0,.11a.45.45,0,0,1,.39-.16v.39l0,0c-.28.07-.35.15-.35.45s0,.53,0,.79C26.55,55,26.54,55.07,26.54,55.15Z"/><path d="M33.37,53.37h.36l0,.1c.11-.09.22-.19.38-.16a.86.86,0,0,1,0,.4H34.1a.35.35,0,0,0-.31.4c0,.3,0,.59,0,.89,0,0,0,.08,0,.14h-.4Z"/><path d="M20.52,53.49a.42.42,0,0,1,.39-.18v.39l0,0a.38.38,0,0,0-.36.44c0,.27,0,.54,0,.81,0,.05,0,.11,0,.17a1.57,1.57,0,0,1-.4,0,14.73,14.73,0,0,1,0-1.78h.36Z"/><path d="M36.53,53.37h.41v1.78h-.4A15.24,15.24,0,0,1,36.53,53.37Z"/><path d="M48.78,53.36h.42v1.77h-.42Z"/><path d="M36.73,55.41a.38.38,0,0,1,.38.37.4.4,0,0,1-.37.39.39.39,0,0,1-.38-.38A.37.37,0,0,1,36.73,55.41Z"/><circle cx="49.02" cy="52.82" r="0.38"/></svg>