<svg id="45c0d0d3-256a-40af-873c-cd600058a3e8" data-name="圖層 1" xmlns="http://www.w3.org/2000/svg" viewBox="0 0 216.76 212.62"><defs><style>.\37 5fd900d-da4f-4674-a5bc-1b4d6292f956{fill:#fff;}.\37 5fd900d-da4f-4674-a5bc-1b4d6292f956,.c5c820e7-e3bd-4968-b905-2cb820e692e7,.e3d452dc-c6fa-4858-a580-0c2b6a5ee283{stroke:#1a1a1a;stroke-miterlimit:10;}.c5c820e7-e3bd-4968-b905-2cb820e692e7{fill:#ededed;}.e3d452dc-c6fa-4858-a580-0c2b6a5ee283{fill:#c92028;}</style></defs><title>icon</title><polygon class="75fd900d-da4f-4674-a5bc-1b4d6292f956" points="29.49 147.2 61.86 165.89 94.22 147.2 61.76 128.46 29.49 147.2"/><polygon class="c5c820e7-e3bd-4968-b905-2cb820e692e7" points="29.49 156.55 29.49 147.2 61.86 165.89 61.86 175.23 29.49 156.55"/><polygon class="e3d452dc-c6fa-4858-a580-0c2b6a5ee283" points="94.22 147.2 61.86 165.89 61.86 175.23 94.22 156.55 94.22 147.2"/><polygon class="75fd900d-da4f-4674-a5bc-1b4d6292f956" points="140.07 126.43 172.43 145.11 204.8 126.43 172.34 107.69 140.07 126.43"/><polygon class="c5c820e7-e3bd-4968-b905-2cb820e692e7" points="140.07 135.77 140.07 126.43 172.43 145.11 172.43 154.46 140.07 135.77"/><polygon class="e3d452dc-c6fa-4858-a580-0c2b6a5ee283" points="204.8 126.43 172.43 145.11 172.43 154.46 204.8 135.77 204.8 126.43"/><polygon class="75fd900d-da4f-4674-a5bc-1b4d6292f956" points="29.49 98.34 114.52 147.43 199.54 98.34 114.27 49.11 29.49 98.34"/><polygon class="c5c820e7-e3bd-4968-b905-2cb820e692e7" points="29.49 122.89 29.49 98.34 114.52 147.43 114.52 171.98 29.49 122.89"/><polygon class="e3d452dc-c6fa-4858-a580-0c2b6a5ee283" points="199.54 98.34 114.52 147.43 114.52 171.98 199.54 122.89 199.54 98.34"/><polygon class="75fd900d-da4f-4674-a5bc-1b4d6292f956" points="61.86 84.57 112.54 113.83 163.22 84.57 112.39 55.23 61.86 84.57"/><polygon class="c5c820e7-e3bd-4968-b905-2cb820e692e7" points="61.86 99.2 61.86 84.57 112.54 113.83 112.54 128.46 61.86 99.2"/><polygon class="e3d452dc-c6fa-4858-a580-0c2b6a5ee283" points="163.22 84.57 112.54 113.83 112.54 128.46 163.22 99.2 163.22 84.57"/><path class="75fd900d-da4f-4674-a5bc-1b4d6292f956" d="M137.37,74.89c9.59,8,6.36,18.56-7.21,23.51s-32.35,2.45-41.94-5.58-6.36-18.56,7.21-23.51S127.78,66.86,137.37,74.89Z"/><path class="e3d452dc-c6fa-4858-a580-0c2b6a5ee283" d="M117.48,82.15c1.83,1.53,1.21,3.53-1.37,4.48s-6.16.47-8-1.06-1.21-3.53,1.37-4.48S115.65,80.62,117.48,82.15Z"/><polygon class="c5c820e7-e3bd-4968-b905-2cb820e692e7" points="29.49 59.43 29.49 97.48 40.12 103.62 40.12 65.56 29.49 59.43"/><polygon class="75fd900d-da4f-4674-a5bc-1b4d6292f956" points="40.12 53.29 29.49 59.43 40.12 65.56 50.75 59.43 40.12 53.29"/><polygon class="e3d452dc-c6fa-4858-a580-0c2b6a5ee283" points="50.75 97.48 40.12 103.62 40.12 65.56 50.75 59.43 50.75 97.48"/><polygon class="c5c820e7-e3bd-4968-b905-2cb820e692e7" points="114.52 155.85 114.52 166.94 123.66 172.22 123.66 161.13 114.52 155.85"/><polygon class="75fd900d-da4f-4674-a5bc-1b4d6292f956" points="123.66 150.57 114.52 155.85 123.66 161.13 132.81 155.85 123.66 150.57"/><polygon class="e3d452dc-c6fa-4858-a580-0c2b6a5ee283" points="132.81 166.94 123.66 172.22 123.66 161.13 132.81 155.85 132.81 166.94"/></svg>