<svg id="a36da3b6-3a7a-4868-9dcd-a58c1201fd5f" data-name="圖層 1" xmlns="http://www.w3.org/2000/svg" viewBox="0 0 216.76 212.62"><defs><style>.f7b76120-cfce-48d0-b72b-12e5da72ad0f{fill:#ededed;}.\30 a97a258-bf0e-4281-b688-686f09996d0e,.b02cebb0-160f-4c2d-aed8-11b7c224c22b,.f7b76120-cfce-48d0-b72b-12e5da72ad0f{stroke:#1a1a1a;stroke-miterlimit:10;}.b02cebb0-160f-4c2d-aed8-11b7c224c22b{fill:#fff;}.\30 a97a258-bf0e-4281-b688-686f09996d0e{fill:#c92028;}</style></defs><title>icon</title><polygon class="f7b76120-cfce-48d0-b72b-12e5da72ad0f" points="77.52 64.17 77.52 121.09 93.42 130.28 93.42 73.35 77.52 64.17"/><polygon class="b02cebb0-160f-4c2d-aed8-11b7c224c22b" points="93.42 54.99 77.52 64.17 93.42 73.35 109.32 64.17 93.42 54.99"/><polygon class="0a97a258-bf0e-4281-b688-686f09996d0e" points="109.32 121.09 93.42 130.28 93.42 73.35 109.32 64.17 109.32 121.09"/><polygon class="f7b76120-cfce-48d0-b72b-12e5da72ad0f" points="40.83 48.51 125.99 97.67 125.99 196 40.83 147.76 40.83 48.51"/><polygon class="b02cebb0-160f-4c2d-aed8-11b7c224c22b" points="83.41 23.93 168.56 73.09 125.99 97.67 40.83 48.51 83.41 23.93"/><polygon class="0a97a258-bf0e-4281-b688-686f09996d0e" points="168.56 171.42 168.56 73.09 125.99 97.67 125.99 196 168.56 171.42"/><polygon class="f7b76120-cfce-48d0-b72b-12e5da72ad0f" points="38.5 76.02 38.5 92.62 52.18 100.52 52.18 83.92 38.5 76.02"/><polygon class="b02cebb0-160f-4c2d-aed8-11b7c224c22b" points="52.18 68.12 38.5 76.02 52.18 83.92 65.86 76.02 52.18 68.12"/><polygon class="0a97a258-bf0e-4281-b688-686f09996d0e" points="65.86 92.62 52.18 100.52 52.18 83.92 65.86 76.02 65.86 92.62"/><polygon class="f7b76120-cfce-48d0-b72b-12e5da72ad0f" points="38.5 98.57 93.42 130.28 93.42 193.69 38.5 162.58 38.5 98.57"/><polygon class="b02cebb0-160f-4c2d-aed8-11b7c224c22b" points="65.96 82.71 120.88 114.42 93.42 130.28 38.5 98.57 65.96 82.71"/><polygon class="0a97a258-bf0e-4281-b688-686f09996d0e" points="120.88 177.84 120.88 114.42 93.42 130.28 93.42 193.69 120.88 177.84"/><polygon class="f7b76120-cfce-48d0-b72b-12e5da72ad0f" points="46.35 112.17 85.56 134.81 85.56 180.09 46.35 157.87 46.35 112.17"/><polygon class="b02cebb0-160f-4c2d-aed8-11b7c224c22b" points="46.35 157.45 85.56 134.81 85.56 180.09 46.35 157.45"/><polygon class="f7b76120-cfce-48d0-b72b-12e5da72ad0f" points="156.71 150.88 156.71 107.32 137.84 118.21 137.84 161.78 156.71 150.88"/><polygon class="b02cebb0-160f-4c2d-aed8-11b7c224c22b" points="156.49 151.01 137.84 140.65 137.84 161.78 156.49 151.01"/></svg>