<svg id="eca96986-78d6-4e97-b805-2f5164b20061" data-name="圖層 1" xmlns="http://www.w3.org/2000/svg" viewBox="0 0 656.33 720"><defs><style>.\33 414f9cb-cdad-4c6d-901b-a536c3a4d381,.a657fa2b-56ad-4f92-8838-2d37e77592e9,.bfcef2f1-a40a-4439-8202-0d39902e5561{fill:none;stroke:#fff;stroke-miterlimit:10;}.\33 414f9cb-cdad-4c6d-901b-a536c3a4d381{stroke-width:0.5px;}.a657fa2b-56ad-4f92-8838-2d37e77592e9{stroke-width:2px;}.bfcef2f1-a40a-4439-8202-0d39902e5561{stroke-width:0.25px;}</style></defs><title>map</title><polygon class="3414f9cb-cdad-4c6d-901b-a536c3a4d381" points="329.81 510.16 324.71 508.94 316.91 487.01 327.96 479.41 329.81 510.16"/><polyline class="3414f9cb-cdad-4c6d-901b-a536c3a4d381" points="278.92 456.74 245.6 426.56 243.06 403.99 259.73 402.75"/><line class="3414f9cb-cdad-4c6d-901b-a536c3a4d381" x1="319.49" y1="501.47" x2="321.42" y2="499.7"/><line class="3414f9cb-cdad-4c6d-901b-a536c3a4d381" x1="328.63" y1="490.66" x2="346.68" y2="497.96"/><polyline class="3414f9cb-cdad-4c6d-901b-a536c3a4d381" points="315.97 469.42 324.31 464.62 332.65 459.83 332.37 452.29 332 442.51 352.91 439.05 356.46 438.44"/><polyline class="3414f9cb-cdad-4c6d-901b-a536c3a4d381" points="324.31 464.62 342.4 482.87 337.07 494.07"/><polyline class="3414f9cb-cdad-4c6d-901b-a536c3a4d381" points="332.37 452.29 345.46 461.78 333.53 473.93"/><polyline class="3414f9cb-cdad-4c6d-901b-a536c3a4d381" points="303.4 461.73 315.79 443.97 300.59 439.31 292.33 436.78 298.6 463.14"/><polyline class="3414f9cb-cdad-4c6d-901b-a536c3a4d381" points="308.59 441.76 308.43 432.84 329.14 436.03 337.8 431.42 339.57 441.25"/><polyline class="3414f9cb-cdad-4c6d-901b-a536c3a4d381" points="329.84 461.44 321 449.56 310.02 459.77"/><polyline class="3414f9cb-cdad-4c6d-901b-a536c3a4d381" points="270.5 449.12 292.68 421.71 316.49 427.42 316.2 434.04"/><polyline class="3414f9cb-cdad-4c6d-901b-a536c3a4d381" points="301.5 423.83 303.77 403.64 278.42 397.56 286.52 429.32"/><polyline class="3414f9cb-cdad-4c6d-901b-a536c3a4d381" points="255.17 435.23 265.6 427.38 270.24 423.89 280.6 429.29 268.4 447.21"/><polyline class="3414f9cb-cdad-4c6d-901b-a536c3a4d381" points="262.58 429.65 254.75 412.62 262.12 410.3 267.64 408.57 285.06 431.13"/><polyline class="3414f9cb-cdad-4c6d-901b-a536c3a4d381" points="261.07 410.63 258.64 396.39 272.5 394.24 285.74 392.19 287.68 399.78"/><path class="3414f9cb-cdad-4c6d-901b-a536c3a4d381" d="M269.17,376.85l3.33,17.39Z"/><polyline class="3414f9cb-cdad-4c6d-901b-a536c3a4d381" points="296.11 401.81 296.43 393.41 312.38 392.43 324.69 412.67 317.57 414.71 301.85 419.23"/><polyline class="3414f9cb-cdad-4c6d-901b-a536c3a4d381" points="333.72 433.59 331.34 405.35 320.68 405.79"/><polyline class="3414f9cb-cdad-4c6d-901b-a536c3a4d381" points="350.15 439.51 348.08 412.36 332.19 415.51"/><polyline class="3414f9cb-cdad-4c6d-901b-a536c3a4d381" points="340.56 413.85 336.68 396.82 317.29 399.27"/><polyline class="3414f9cb-cdad-4c6d-901b-a536c3a4d381" points="269.17 376.85 253.94 376.09 250.41 403.55"/><polyline class="3414f9cb-cdad-4c6d-901b-a536c3a4d381" points="251.39 431.8 245.05 453.07 272.92 461.32 278.92 456.74 311.11 491.66 319.68 475.44 315.97 469.42 310.02 459.77 289.08 465.94 277.83 470.97 293.24 479.35 293.24 479.35 282.44 492.58 308.1 508.1 319.49 501.47 324.17 520.42 337.41 514.24 338.37 523.83"/><line class="3414f9cb-cdad-4c6d-901b-a536c3a4d381" x1="316.91" y1="487.01" x2="314.46" y2="484.89"/><line class="3414f9cb-cdad-4c6d-901b-a536c3a4d381" x1="293.23" y1="479.35" x2="296.32" y2="475.61"/><line class="3414f9cb-cdad-4c6d-901b-a536c3a4d381" x1="329.14" y1="436.03" x2="325" y2="454.94"/><polygon class="3414f9cb-cdad-4c6d-901b-a536c3a4d381" points="433 538.63 427.38 537.28 419.01 512.14 431.31 503.26 433 538.63"/><polyline class="3414f9cb-cdad-4c6d-901b-a536c3a4d381" points="377.37 477.74 340.89 443.4 338.35 417.46 356.78 415.85"/><line class="3414f9cb-cdad-4c6d-901b-a536c3a4d381" x1="421.7" y1="528.75" x2="423.86" y2="526.69"/><polyline class="3414f9cb-cdad-4c6d-901b-a536c3a4d381" points="418.18 491.91 427.45 486.29 436.73 480.68 436.5 472.01 436.2 460.76 456.31 457.09"/><line class="3414f9cb-cdad-4c6d-901b-a536c3a4d381" x1="437.54" y1="496.89" x2="427.45" y2="486.29"/><polyline class="3414f9cb-cdad-4c6d-901b-a536c3a4d381" points="436.5 472.01 450.86 482.78 437.54 496.89"/><polyline class="3414f9cb-cdad-4c6d-901b-a536c3a4d381" points="404.37 483.2 418.27 462.63 401.53 457.44 392.42 454.63 399.05 484.88"/><polyline class="3414f9cb-cdad-4c6d-901b-a536c3a4d381" points="410.35 460.17 410.27 449.91 433.12 453.33 442.75 447.93 444.6 459.23"/><polyline class="3414f9cb-cdad-4c6d-901b-a536c3a4d381" points="433.6 482.57 423.97 469 411.72 480.88"/><polyline class="3414f9cb-cdad-4c6d-901b-a536c3a4d381" points="368.16 469.07 392.99 437.28 419.24 443.58 418.84 451.19"/><polyline class="3414f9cb-cdad-4c6d-901b-a536c3a4d381" points="402.71 439.61 405.46 416.36 377.5 409.66 386.1 446.1"/><polyline class="3414f9cb-cdad-4c6d-901b-a536c3a4d381" points="351.37 453.26 362.99 444.11 368.16 440.05 379.55 446.14 365.86 466.9"/><polyline class="3414f9cb-cdad-4c6d-901b-a536c3a4d381" points="359.63 446.76 351.17 427.25 359.34 424.51 365.46 422.45 384.45 448.21"/><polyline class="3414f9cb-cdad-4c6d-901b-a536c3a4d381" points="358.17 424.9 355.66 408.53 371 405.9 385.65 403.39 387.71 412.11"/><polyline class="3414f9cb-cdad-4c6d-901b-a536c3a4d381" points="397.01 414.34 397.46 404.68 415.1 403.36 428.48 426.51 420.58 428.94 403.15 434.32"/><polyline class="3414f9cb-cdad-4c6d-901b-a536c3a4d381" points="438.21 450.48 435.9 418.01 424.12 418.64"/><polyline class="3414f9cb-cdad-4c6d-901b-a536c3a4d381" points="456.31 457.09 454.32 425.88 436.73 429.69"/><polyline class="3414f9cb-cdad-4c6d-901b-a536c3a4d381" points="434.43 546.66 426.65 550.5 421.7 528.75 409.04 536.51 380.85 518.95 392.94 503.59 392.94 503.59 376.01 494.14 388.5 488.22 411.72 480.88 418.18 491.91 422.21 498.8 412.55 517.56 377.37 477.74 370.69 483.09 339.98 473.92 347.23 449.37"/><line class="3414f9cb-cdad-4c6d-901b-a536c3a4d381" x1="419.01" y1="512.14" x2="416.34" y2="509.73"/><line class="3414f9cb-cdad-4c6d-901b-a536c3a4d381" x1="392.93" y1="503.59" x2="396.39" y2="499.26"/><line class="3414f9cb-cdad-4c6d-901b-a536c3a4d381" x1="433.12" y1="453.33" x2="428.33" y2="475.14"/><polygon class="3414f9cb-cdad-4c6d-901b-a536c3a4d381" points="429.73 645.29 424.11 643.94 415.75 618.8 428.05 609.92 429.73 645.29"/><polyline class="3414f9cb-cdad-4c6d-901b-a536c3a4d381" points="374.1 584.4 337.63 550.06 335.08 524.12 353.52 522.5"/><line class="3414f9cb-cdad-4c6d-901b-a536c3a4d381" x1="418.43" y1="635.4" x2="420.59" y2="633.35"/><line class="3414f9cb-cdad-4c6d-901b-a536c3a4d381" x1="428.66" y1="622.86" x2="438.09" y2="623.99"/><polyline class="3414f9cb-cdad-4c6d-901b-a536c3a4d381" points="414.91 598.57 424.19 592.95 433.46 587.33 433.23 578.66 432.94 567.41 453.04 563.75"/><polyline class="3414f9cb-cdad-4c6d-901b-a536c3a4d381" points="401.11 589.86 415 569.28 398.26 564.1 389.16 561.28 395.78 591.54"/><polyline class="3414f9cb-cdad-4c6d-901b-a536c3a4d381" points="407.08 566.83 407 556.56 429.85 559.99 439.48 554.58 441.33 565.88"/><polyline class="3414f9cb-cdad-4c6d-901b-a536c3a4d381" points="430.34 589.23 420.7 575.66 408.45 587.53"/><polyline class="3414f9cb-cdad-4c6d-901b-a536c3a4d381" points="364.89 575.73 389.72 543.94 415.97 550.23 415.57 557.85"/><polyline class="3414f9cb-cdad-4c6d-901b-a536c3a4d381" points="399.44 546.27 402.19 523.02 374.23 516.31 382.83 552.76"/><polyline class="3414f9cb-cdad-4c6d-901b-a536c3a4d381" points="348.1 559.92 359.73 550.77 364.89 546.7 376.28 552.8 362.59 573.56"/><polyline class="3414f9cb-cdad-4c6d-901b-a536c3a4d381" points="356.36 553.42 347.9 533.91 356.07 531.16 362.19 529.11 381.18 554.87"/><polyline class="3414f9cb-cdad-4c6d-901b-a536c3a4d381" points="354.91 531.55 352.39 515.19 367.73 512.56 382.39 510.04 384.44 518.76"/><path class="3414f9cb-cdad-4c6d-901b-a536c3a4d381" d="M364.25,492.58l3.48,20Z"/><polyline class="3414f9cb-cdad-4c6d-901b-a536c3a4d381" points="393.75 520.99 394.2 511.33 411.84 510.02 425.21 533.17 417.32 535.6 399.88 540.97"/><polyline class="3414f9cb-cdad-4c6d-901b-a536c3a4d381" points="434.94 557.13 432.64 524.66 420.85 525.3"/><polyline class="3414f9cb-cdad-4c6d-901b-a536c3a4d381" points="453.04 563.75 451.06 532.54 433.47 536.34"/><polyline class="3414f9cb-cdad-4c6d-901b-a536c3a4d381" points="364.25 492.58 347.43 491.89 343.21 523.53"/><path class="3414f9cb-cdad-4c6d-901b-a536c3a4d381" d="M344,556l-7.25,24.55,30.71,9.18,6.68-5.35,35.19,39.81,9.66-18.76-4-6.88-6.46-11-23.22,7.34-12.49,5.92,16.93,9.46h0l-12.08,15.36,28.18,17.56,12.66-7.76,5,21.75,14.71-7.27V624"/><line class="3414f9cb-cdad-4c6d-901b-a536c3a4d381" x1="415.75" y1="618.8" x2="413.07" y2="616.38"/><line class="3414f9cb-cdad-4c6d-901b-a536c3a4d381" x1="389.67" y1="610.25" x2="393.12" y2="605.92"/><line class="3414f9cb-cdad-4c6d-901b-a536c3a4d381" x1="429.85" y1="559.99" x2="425.06" y2="581.8"/><polyline class="3414f9cb-cdad-4c6d-901b-a536c3a4d381" points="263.4 376.56 262.97 370.56 247.52 369.39 243.26 374.42 252.72 382.7"/><polyline class="3414f9cb-cdad-4c6d-901b-a536c3a4d381" points="270.14 382.62 299.65 374.21 302.72 383.56 305.74 392.74"/><polyline class="3414f9cb-cdad-4c6d-901b-a536c3a4d381" points="302.72 383.56 353.92 388.02 355.56 422.81 349.02 424.75"/><polyline class="3414f9cb-cdad-4c6d-901b-a536c3a4d381" points="355.86 492.44 361.36 469.51 395.85 493.7 389.55 519.99"/><line class="3414f9cb-cdad-4c6d-901b-a536c3a4d381" x1="339.95" y1="467.87" x2="358.78" y2="479.99"/><line class="3414f9cb-cdad-4c6d-901b-a536c3a4d381" x1="376.71" y1="457.89" x2="370.88" y2="476.18"/><polygon class="3414f9cb-cdad-4c6d-901b-a536c3a4d381" points="571.25 490.44 567.76 495.05 541.38 492.62 538.18 477.79 571.25 490.44"/><polyline class="3414f9cb-cdad-4c6d-901b-a536c3a4d381" points="493.16 516.96 447.06 536.58 422.28 528.5 428.2 510.97"/><line class="3414f9cb-cdad-4c6d-901b-a536c3a4d381" x1="557.66" y1="496.83" x2="556.65" y2="494.03"/><line class="3414f9cb-cdad-4c6d-901b-a536c3a4d381" x1="550.29" y1="482.42" x2="559.27" y2="473.76"/><polyline class="3414f9cb-cdad-4c6d-901b-a536c3a4d381" points="522.51 485.26 521.09 474.51 519.67 463.77 511.64 460.5 501.21 456.25 506.64 433.36 533.59 444.63 544.79 465.93"/><polyline class="3414f9cb-cdad-4c6d-901b-a536c3a4d381" points="521.09 474.51 548.07 464.74 555.94 476.97"/><polyline class="3414f9cb-cdad-4c6d-901b-a536c3a4d381" points="511.64 460.5 527.27 451.67 534.84 469.53"/><polyline class="3414f9cb-cdad-4c6d-901b-a536c3a4d381" points="508.99 494.42 495.73 473.43 484.26 486.68 478.03 493.89 508.4 499.96"/><polyline class="3414f9cb-cdad-4c6d-901b-a536c3a4d381" points="490.3 479.7 480.87 475.65 488.02 456.16 492.09 445.11 503.18 447.95"/><polyline class="3414f9cb-cdad-4c6d-901b-a536c3a4d381" points="520.15 467.39 503.86 470.77 509.81 486.75"/><polyline class="3414f9cb-cdad-4c6d-901b-a536c3a4d381" points="481.52 521.91 462.36 486.41 478.67 464.89 484.02 467.16"/><polyline class="3414f9cb-cdad-4c6d-901b-a536c3a4d381" points="468.4 478.44 448.21 466.6 430.85 489.51 467.68 496.26"/><polyline class="3414f9cb-cdad-4c6d-901b-a536c3a4d381" points="460.3 530.95 456.58 516.63 454.93 510.27 465.09 502.28 478.61 523.15"/><polyline class="3414f9cb-cdad-4c6d-901b-a536c3a4d381" points="457.66 520.77 436.4 520.69 437.16 512.11 437.73 505.68 468.95 498.62"/><polyline class="3414f9cb-cdad-4c6d-901b-a536c3a4d381" points="437.05 513.33 421.05 509.06 424.8 493.96 428.38 479.52 437.19 481.14"/><polyline class="3414f9cb-cdad-4c6d-901b-a536c3a4d381" points="442.96 473.52 434.3 469.23 440.18 452.54 466.74 449.58 465.8 457.79 463.73 475.92"/><polyline class="3414f9cb-cdad-4c6d-901b-a536c3a4d381" points="490.36 449.5 461.94 439.37 457.79 450.42"/><polyline class="3414f9cb-cdad-4c6d-901b-a536c3a4d381" points="505.93 436.37 476.54 425.66 472.97 443.3"/><polyline class="3414f9cb-cdad-4c6d-901b-a536c3a4d381" points="455.07 533.17 474.65 549.67 495.38 525.23 493.16 516.96 543.75 500.71 530.44 484.33 522.51 485.26 509.81 486.75 507.22 510.97 507.63 524.78 523.08 513.08 523.08 513.08 532.3 530.3 559.69 511.54 557.66 496.83 579.58 501.02 578.82 484.63 559.27 473.76"/><line class="3414f9cb-cdad-4c6d-901b-a536c3a4d381" x1="541.38" y1="492.62" x2="538.09" y2="494.1"/><line class="3414f9cb-cdad-4c6d-901b-a536c3a4d381" x1="523.08" y1="513.08" x2="520.5" y2="508.18"/><line class="3414f9cb-cdad-4c6d-901b-a536c3a4d381" x1="179.87" y1="206.13" x2="238.64" y2="264.89"/><polygon class="3414f9cb-cdad-4c6d-901b-a536c3a4d381" points="442.59 328.58 446.76 331.75 445.06 354.97 431.88 357.47 442.59 328.58"/><line class="3414f9cb-cdad-4c6d-901b-a536c3a4d381" x1="467.62" y1="397.99" x2="482.76" y2="431.9"/><line class="3414f9cb-cdad-4c6d-901b-a536c3a4d381" x1="448.53" y1="340.69" x2="446.04" y2="341.53"/><line class="3414f9cb-cdad-4c6d-901b-a536c3a4d381" x1="435.8" y1="346.9" x2="422.23" y2="332.94"/><polyline class="3414f9cb-cdad-4c6d-901b-a536c3a4d381" points="438.82 371.44 429.26 372.47 419.69 373.5 416.92 380.51 413.31 389.61 392.78 384.34 382.35 381.75"/><polyline class="3414f9cb-cdad-4c6d-901b-a536c3a4d381" points="429.26 372.47 420.06 348.48 429.46 340.38"/><polyline class="3414f9cb-cdad-4c6d-901b-a536c3a4d381" points="416.92 380.51 408.76 366.54 424.57 360.24"/><polyline class="3414f9cb-cdad-4c6d-901b-a536c3a4d381" points="447.23 383.55 428.73 394.81 440.76 405.19 447.31 410.84 452.19 384.19"/><polyline class="3414f9cb-cdad-4c6d-901b-a536c3a4d381" points="434.43 399.72 430.98 407.95 408.14 397.08"/><polyline class="3414f9cb-cdad-4c6d-901b-a536c3a4d381" points="422.91 373.15 426.22 387.58 440.38 382.67"/><polyline class="3414f9cb-cdad-4c6d-901b-a536c3a4d381" points="472.25 408.35 440.91 424.49 421.42 409.67 423.69 404.66"/><polyline class="3414f9cb-cdad-4c6d-901b-a536c3a4d381" points="433.69 419 423.47 436.55 444.23 452.34 449.61 420.01"/><polyline class="3414f9cb-cdad-4c6d-901b-a536c3a4d381" points="480.69 427.25 467.97 430.22 462.33 431.55 455.02 422.43 473.41 410.94"/><polyline class="3414f9cb-cdad-4c6d-901b-a536c3a4d381" points="471.65 429.36 471.95 448.11 464.28 447.25 458.53 446.61 451.68 418.94"/><polyline class="3414f9cb-cdad-4c6d-901b-a536c3a4d381" points="465.37 447.37 461.85 461.39 448.3 457.77 435.36 454.31 436.65 446.58"/><path class="3414f9cb-cdad-4c6d-901b-a536c3a4d381" d="M444.34,475l4-17.26Z"/><polyline class="3414f9cb-cdad-4c6d-901b-a536c3a4d381" points="429.74 441.32 426.07 448.88 411.07 443.34 407.97 419.86 415.31 420.86 431.52 423.07"/><polyline class="3414f9cb-cdad-4c6d-901b-a536c3a4d381" points="411.02 389.16 398.94 423.88 408.87 427.77"/><polyline class="3414f9cb-cdad-4c6d-901b-a536c3a4d381" points="395.48 385.04 386.44 410.71 402.25 414.24"/><polyline class="3414f9cb-cdad-4c6d-901b-a536c3a4d381" points="393.92 412.38 390.61 429.53 410.08 435.33"/><polyline class="3414f9cb-cdad-4c6d-901b-a536c3a4d381" points="444.34 475.03 457.97 481.86 457.02 460.16"/><polyline class="3414f9cb-cdad-4c6d-901b-a536c3a4d381" points="482.76 431.9 497.14 414.99 474.96 396.2 467.62 397.99 452.24 353.05 437.85 364.44 438.82 371.44 440.38 382.67 462.03 385.46 474.35 385.39 463.63 371.52 463.63 371.52 478.85 363.76 461.62 339.22 448.53 340.69 451.88 321.46 437.27 321.78 440.26 312.62"/><line class="3414f9cb-cdad-4c6d-901b-a536c3a4d381" x1="445.06" y1="354.97" x2="446.44" y2="357.89"/><line class="3414f9cb-cdad-4c6d-901b-a536c3a4d381" x1="463.63" y1="371.52" x2="459.31" y2="373.7"/><polygon class="3414f9cb-cdad-4c6d-901b-a536c3a4d381" points="333.41 273.09 338.01 276.59 335.53 302.98 320.69 306.14 333.41 273.09"/><polyline class="3414f9cb-cdad-4c6d-901b-a536c3a4d381" points="359.77 351.24 379.31 397.37 371.18 422.14 353.66 416.19"/><line class="3414f9cb-cdad-4c6d-901b-a536c3a4d381" x1="339.77" y1="286.7" x2="336.96" y2="287.7"/><polyline class="3414f9cb-cdad-4c6d-901b-a536c3a4d381" points="325.35 294.05 310.47 278.55 327.61 265.51 344 264.79 339.77 286.7 354.48 284.7 373.2 312.12 355.95 321.31 355.95 321.31 367.63 336.79 353.81 337.17 329.6 334.53 328.13 321.82 327.22 313.9 343.62 300.62 359.77 351.24 368.05 349.04 392.45 369.82 375.92 389.36"/><polyline class="3414f9cb-cdad-4c6d-901b-a536c3a4d381" points="328.13 321.82 317.38 323.23 306.63 324.63 297.86 344.25 297.86 344.25 297.86 344.25"/><line class="3414f9cb-cdad-4c6d-901b-a536c3a4d381" x1="312.43" y1="309.46" x2="317.38" y2="323.23"/><polyline class="3414f9cb-cdad-4c6d-901b-a536c3a4d381" points="303.35 332.65 294.55 317.01 312.43 309.46"/><polyline class="3414f9cb-cdad-4c6d-901b-a536c3a4d381" points="337.26 335.36 316.25 348.59 329.48 360.08 336.68 366.33 342.81 335.97"/><polyline class="3414f9cb-cdad-4c6d-901b-a536c3a4d381" points="310.25 324.15 313.6 340.45 329.6 334.53"/><polyline class="3414f9cb-cdad-4c6d-901b-a536c3a4d381" points="364.7 362.89 329.17 381.98 307.68 365.63 320.86 353"/><polyline class="3414f9cb-cdad-4c6d-901b-a536c3a4d381" points="321.21 375.92 309.32 396.09 332.21 413.5 339.03 376.68"/><polyline class="3414f9cb-cdad-4c6d-901b-a536c3a4d381" points="373.7 384.12 359.37 387.81 353.01 389.45 345.04 379.28 365.94 365.8"/><polyline class="3414f9cb-cdad-4c6d-901b-a536c3a4d381" points="363.52 386.75 363.39 408.01 354.81 407.23 348.38 406.64 341.39 375.41"/><polyline class="3414f9cb-cdad-4c6d-901b-a536c3a4d381" points="356.04 407.34 351.74 423.33 336.64 419.56 322.22 415.95 323.85 407.14"/><polyline class="3414f9cb-cdad-4c6d-901b-a536c3a4d381" points="316.24 401.35 311.93 410.01 295.26 404.1 292.35 377.53 300.55 378.48 318.68 380.59"/><line class="3414f9cb-cdad-4c6d-901b-a536c3a4d381" x1="335.53" y1="302.98" x2="337" y2="306.27"/><line class="3414f9cb-cdad-4c6d-901b-a536c3a4d381" x1="355.95" y1="321.31" x2="351.04" y2="323.88"/><line class="3414f9cb-cdad-4c6d-901b-a536c3a4d381" x1="297.86" y1="344.24" x2="312.36" y2="360.99"/><line class="3414f9cb-cdad-4c6d-901b-a536c3a4d381" x1="430.5" y1="191.9" x2="469.9" y2="123.65"/><polygon class="3414f9cb-cdad-4c6d-901b-a536c3a4d381" points="405.61 164.64 410.21 168.14 407.73 194.52 392.9 197.69 405.61 164.64"/><polyline class="3414f9cb-cdad-4c6d-901b-a536c3a4d381" points="431.98 242.79 451.51 288.92 443.38 313.68 425.86 307.73"/><line class="3414f9cb-cdad-4c6d-901b-a536c3a4d381" x1="411.97" y1="178.24" x2="409.17" y2="179.25"/><polyline class="3414f9cb-cdad-4c6d-901b-a536c3a4d381" points="400.34 213.37 389.59 214.77 378.84 216.17 375.55 224.2 371.29 234.62 351.41 229.86"/><line class="3414f9cb-cdad-4c6d-901b-a536c3a4d381" x1="384.63" y1="201.01" x2="389.59" y2="214.77"/><polyline class="3414f9cb-cdad-4c6d-901b-a536c3a4d381" points="375.55 224.2 366.75 208.55 384.63 201.01"/><polyline class="3414f9cb-cdad-4c6d-901b-a536c3a4d381" points="409.46 226.91 388.45 240.13 401.69 251.62 408.88 257.87 415.01 227.51"/><polyline class="3414f9cb-cdad-4c6d-901b-a536c3a4d381" points="394.71 245.57 390.65 255 371.12 242.65 360.13 243.72 362.99 232.63"/><polyline class="3414f9cb-cdad-4c6d-901b-a536c3a4d381" points="382.46 215.7 385.81 232 401.81 226.07"/><polyline class="3414f9cb-cdad-4c6d-901b-a536c3a4d381" points="436.91 254.43 401.37 273.52 379.88 257.17 383.32 250.37"/><polyline class="3414f9cb-cdad-4c6d-901b-a536c3a4d381" points="393.41 267.47 381.53 287.64 404.41 305.04 411.23 268.22"/><polyline class="3414f9cb-cdad-4c6d-901b-a536c3a4d381" points="445.9 275.67 431.57 279.36 425.21 281 417.24 270.83 438.14 257.34"/><polyline class="3414f9cb-cdad-4c6d-901b-a536c3a4d381" points="435.72 278.29 435.6 299.55 427.02 298.77 420.59 298.19 413.59 266.96"/><polyline class="3414f9cb-cdad-4c6d-901b-a536c3a4d381" points="428.24 298.88 423.94 314.87 408.85 311.1 394.42 307.49 396.05 298.68"/><path class="3414f9cb-cdad-4c6d-901b-a536c3a4d381" d="M404,330.78l4.87-19.68Z"/><polyline class="3414f9cb-cdad-4c6d-901b-a536c3a4d381" points="388.44 292.89 384.13 301.55 367.46 295.64 364.55 269.07 372.76 270.02 390.88 272.13"/><polyline class="3414f9cb-cdad-4c6d-901b-a536c3a4d381" points="365.31 243.22 354.33 273.86 365.37 278.03"/><polyline class="3414f9cb-cdad-4c6d-901b-a536c3a4d381" points="351.41 229.86 340.64 259.22 358.28 262.83"/><polyline class="3414f9cb-cdad-4c6d-901b-a536c3a4d381" points="348.99 260.93 344.86 280.47 366.29 285.31"/><polyline class="3414f9cb-cdad-4c6d-901b-a536c3a4d381" points="403.98 330.78 419.1 338.2 435.71 310.94"/><polyline class="3414f9cb-cdad-4c6d-901b-a536c3a4d381" points="448.12 280.9 464.65 261.36 440.25 240.58 431.98 242.79 415.83 192.17 399.42 205.44 400.34 213.37 401.81 226.07 426.01 228.71 439.83 228.33 428.15 212.85 428.15 212.85 445.4 203.67 426.68 176.24 411.97 178.24 416.21 156.33 399.81 157.06 390.36 172.12 400.33 178.24"/><line class="3414f9cb-cdad-4c6d-901b-a536c3a4d381" x1="407.73" y1="194.52" x2="409.21" y2="197.81"/><line class="3414f9cb-cdad-4c6d-901b-a536c3a4d381" x1="428.15" y1="212.85" x2="423.25" y2="215.42"/><line class="3414f9cb-cdad-4c6d-901b-a536c3a4d381" x1="371.12" y1="242.65" x2="384.29" y2="224.62"/><polyline class="3414f9cb-cdad-4c6d-901b-a536c3a4d381" points="411.6 334.3 397.32 353.07 375.51 317.02 391.87 295.51"/><line class="3414f9cb-cdad-4c6d-901b-a536c3a4d381" x1="356.42" y1="100.79" x2="414.49" y2="44.07"/><polygon class="3414f9cb-cdad-4c6d-901b-a536c3a4d381" points="325.28 71.06 331.04 72.65 338.73 98.73 325.67 107.35 325.28 71.06"/><polyline class="3414f9cb-cdad-4c6d-901b-a536c3a4d381" points="380.47 135.54 416.88 172.1 418.51 198.77 399.38 199.72"/><line class="3414f9cb-cdad-4c6d-901b-a536c3a4d381" x1="336.59" y1="81.61" x2="334.28" y2="83.63"/><line class="3414f9cb-cdad-4c6d-901b-a536c3a4d381" x1="325.52" y1="94.07" x2="313.77" y2="88.76"/><polyline class="3414f9cb-cdad-4c6d-901b-a536c3a4d381" points="338.81 119.48 329 124.88 319.2 130.28 319.1 139.17 318.98 150.71 294.87 154.15 295.49 124.21 311.74 105.51"/><polyline class="3414f9cb-cdad-4c6d-901b-a536c3a4d381" points="329 124.88 309.35 102.83 318.13 90.72"/><polyline class="3414f9cb-cdad-4c6d-901b-a536c3a4d381" points="319.1 139.17 304.67 127.59 318.98 113.64"/><polyline class="3414f9cb-cdad-4c6d-901b-a536c3a4d381" points="352.76 128.92 337.59 149.47 354.71 155.42 364.02 158.65 358.32 127.4"/><polyline class="3414f9cb-cdad-4c6d-901b-a536c3a4d381" points="345.7 152.29 345.38 162.8 321.88 158.43 311.72 163.6 310.24 151.95"/><polyline class="3414f9cb-cdad-4c6d-901b-a536c3a4d381" points="322.5 128.46 331.95 142.72 345.07 131.03"/><polyline class="3414f9cb-cdad-4c6d-901b-a536c3a4d381" points="389.66 144.77 362.77 176.4 335.86 168.95 336.57 161.16"/><polyline class="3414f9cb-cdad-4c6d-901b-a536c3a4d381" points="352.8 173.64 349.07 197.35 377.72 205.28 370.23 167.62"/><polyline class="3414f9cb-cdad-4c6d-901b-a536c3a4d381" points="406.42 161.6 394.05 170.54 388.55 174.5 377 167.83 391.96 147.08"/><polyline class="3414f9cb-cdad-4c6d-901b-a536c3a4d381" points="397.63 167.95 405.63 188.26 397.08 190.76 390.67 192.63 372.01 165.52"/><polyline class="3414f9cb-cdad-4c6d-901b-a536c3a4d381" points="398.3 190.4 400.27 207.26 384.3 209.37 369.05 211.39 367.26 202.38"/><path class="3414f9cb-cdad-4c6d-901b-a536c3a4d381" d="M387.13,230l-2.83-20.59Z"/><polyline class="3414f9cb-cdad-4c6d-901b-a536c3a4d381" points="357.73 199.74 356.89 209.62 338.6 210.3 325.65 186.08 333.91 183.89 352.15 179.04"/><polyline class="3414f9cb-cdad-4c6d-901b-a536c3a4d381" points="316.51 161.16 317.65 194.5 329.86 194.31"/><polyline class="3414f9cb-cdad-4c6d-901b-a536c3a4d381" points="298.05 153.69 298.9 185.74 317.24 182.51"/><line class="3414f9cb-cdad-4c6d-901b-a536c3a4d381" x1="307.58" y1="184.21" x2="311.07" y2="204.39"/><polyline class="3414f9cb-cdad-4c6d-901b-a536c3a4d381" points="410.55 165.75 418.99 140.88 387.59 130.32 380.47 135.54 345.61 93.42 334.9 112.27 338.81 119.48 345.07 131.03 369.37 124.39 382.51 118.8 365.37 108.47 365.37 108.47 378.45 93.2 349.98 74.14 336.59 81.61 332.3 59.14 316.81 66.03 313.77 88.76"/><line class="3414f9cb-cdad-4c6d-901b-a536c3a4d381" x1="338.73" y1="98.73" x2="341.4" y2="101.3"/><line class="3414f9cb-cdad-4c6d-901b-a536c3a4d381" x1="365.37" y1="108.47" x2="361.63" y2="112.78"/><line class="3414f9cb-cdad-4c6d-901b-a536c3a4d381" x1="321.88" y1="158.43" x2="327.67" y2="136.27"/><polyline class="3414f9cb-cdad-4c6d-901b-a536c3a4d381" points="387.13 229.97 404.51 231.32 410.08 199.07"/><polygon class="3414f9cb-cdad-4c6d-901b-a536c3a4d381" points="213.97 288.31 215.44 283.14 238.43 276.03 245.84 287.65 213.97 288.31"/><polyline class="3414f9cb-cdad-4c6d-901b-a536c3a4d381" points="271.27 238.32 303.82 205.41 327.26 203.71 327.86 220.83"/><line class="3414f9cb-cdad-4c6d-901b-a536c3a4d381" x1="223.37" y1="278.09" x2="225.12" y2="280.15"/><line class="3414f9cb-cdad-4c6d-901b-a536c3a4d381" x1="234.18" y1="287.89" x2="225.91" y2="306.08"/><polyline class="3414f9cb-cdad-4c6d-901b-a536c3a4d381" points="256.66 275.77 261.28 284.51 265.9 293.24 273.71 293.25 283.84 293.26 286.57 314.82 287.91 324.84"/><polyline class="3414f9cb-cdad-4c6d-901b-a536c3a4d381" points="261.28 284.51 241.68 302.3 230.31 296.39"/><polyline class="3414f9cb-cdad-4c6d-901b-a536c3a4d381" points="273.71 293.25 263.36 306.28 251.29 293.58"/><polyline class="3414f9cb-cdad-4c6d-901b-a536c3a4d381" points="265.12 263.2 282.98 276.6 288.41 261.22 291.36 252.86 263.85 258.23"/><polyline class="3414f9cb-cdad-4c6d-901b-a536c3a4d381" points="285.55 269.32 294.78 269.51 290.66 290.59 295.07 299.65 284.83 301.07"/><polyline class="3414f9cb-cdad-4c6d-901b-a536c3a4d381" points="264.35 290.3 276.99 281.72 266.87 270.07"/><polyline class="3414f9cb-cdad-4c6d-901b-a536c3a4d381" points="279.49 230.02 306.93 253.82 300.06 277.99 293.24 277.42"/><polyline class="3414f9cb-cdad-4c6d-901b-a536c3a4d381" points="304.39 262.77 325.17 265.91 332.48 240.18 299.31 247.22"/><polyline class="3414f9cb-cdad-4c6d-901b-a536c3a4d381" points="294.47 214.86 302.17 225.86 305.58 230.75 299.58 241.15 281.54 227.94"/><polyline class="3414f9cb-cdad-4c6d-901b-a536c3a4d381" points="299.94 222.68 317.87 215.34 319.96 222.97 321.53 228.7 297.5 245.64"/><polyline class="3414f9cb-cdad-4c6d-901b-a536c3a4d381" points="319.66 221.89 334.49 219.97 336.15 234.25 337.74 247.89 329.81 249.58"/><path class="3414f9cb-cdad-4c6d-901b-a536c3a4d381" d="M354.27,231.54l-18.12,2.71Z"/><polyline class="3414f9cb-cdad-4c6d-901b-a536c3a4d381" points="327.38 258.13 336.04 258.8 336.41 275.17 314.99 286.97 313.16 279.6 309.13 263.31"/><polyline class="3414f9cb-cdad-4c6d-901b-a536c3a4d381" points="292.99 295.38 322.29 294.07 322.26 283.14"/><polyline class="3414f9cb-cdad-4c6d-901b-a536c3a4d381" points="286.21 311.98 314.36 310.94 311.75 294.54"/><polyline class="3414f9cb-cdad-4c6d-901b-a536c3a4d381" points="354.27 231.54 355.67 215.97 327.42 211.26"/><polyline class="3414f9cb-cdad-4c6d-901b-a536c3a4d381" points="298.16 211.13 276.43 203.78 266.76 232 271.27 238.32 233.86 269.91 250.28 279.33 256.66 275.77 266.87 270.07 261.34 248.37 256.59 236.65 247.31 252.09 247.31 252.09 234.06 240.51 216.98 266.17 223.38 278.09 203.59 282.13 209.45 295.94 199.49 296.54"/><line class="3414f9cb-cdad-4c6d-901b-a536c3a4d381" x1="238.43" y1="276.03" x2="240.72" y2="273.61"/><line class="3414f9cb-cdad-4c6d-901b-a536c3a4d381" x1="247.31" y1="252.09" x2="251.05" y2="255.4"/><line class="3414f9cb-cdad-4c6d-901b-a536c3a4d381" x1="290.66" y1="290.59" x2="271.27" y2="285.6"/><polygon class="3414f9cb-cdad-4c6d-901b-a536c3a4d381" points="184.44 415.34 186.06 409.64 212.4 402.07 221.09 415.02 184.44 415.34"/><polyline class="3414f9cb-cdad-4c6d-901b-a536c3a4d381" points="249.65 360.8 286.64 324.81 313.56 323.24 314.49 342.19"/><line class="3414f9cb-cdad-4c6d-901b-a536c3a4d381" x1="195.12" y1="404.16" x2="197.16" y2="406.45"/><polyline class="3414f9cb-cdad-4c6d-901b-a536c3a4d381" points="233.35 402.03 238.79 411.75 244.22 421.48 253.2 421.59 264.84 421.73 268.27 445.62"/><polyline class="3414f9cb-cdad-4c6d-901b-a536c3a4d381" points="238.79 411.75 216.5 431.18 202.76 425.75"/><polyline class="3414f9cb-cdad-4c6d-901b-a536c3a4d381" points="253.2 421.59 241.48 435.86 227.42 421.66"/><polyline class="3414f9cb-cdad-4c6d-901b-a536c3a4d381" points="242.92 388.23 263.63 403.29 269.67 386.35 272.95 377.14 241.39 382.72"/><polyline class="3414f9cb-cdad-4c6d-901b-a536c3a4d381" points="266.49 395.27 277.11 395.6 272.64 418.87 277.84 428.95 266.09 430.39"/><polyline class="3414f9cb-cdad-4c6d-901b-a536c3a4d381" points="242.39 418.2 256.81 408.87 245.02 395.85"/><polyline class="3414f9cb-cdad-4c6d-901b-a536c3a4d381" points="258.99 351.71 290.86 378.41 283.29 405.05 275.43 404.33"/><polyline class="3414f9cb-cdad-4c6d-901b-a536c3a4d381" points="288.06 388.27 311.99 392.02 320.05 363.65 282.02 371"/><polyline class="3414f9cb-cdad-4c6d-901b-a536c3a4d381" points="276.01 335.14 285.01 347.42 289 352.87 282.24 364.29 261.32 349.44"/><polyline class="3414f9cb-cdad-4c6d-901b-a536c3a4d381" points="282.4 343.86 302.92 335.98 305.43 344.45 307.31 350.81 279.9 369.23"/><polyline class="3414f9cb-cdad-4c6d-901b-a536c3a4d381" points="305.07 343.25 322.1 341.33 324.2 357.14 326.21 372.25 317.11 374.01"/><path class="3414f9cb-cdad-4c6d-901b-a536c3a4d381" d="M345,354.38l-20.8,2.76Z"/><polyline class="3414f9cb-cdad-4c6d-901b-a536c3a4d381" points="314.43 383.45 324.4 384.3 325.04 402.42 300.57 415.19 298.37 407.01 293.52 388.93"/><polyline class="3414f9cb-cdad-4c6d-901b-a536c3a4d381" points="275.39 424.2 309.06 423.14 308.88 411.04"/><polyline class="3414f9cb-cdad-4c6d-901b-a536c3a4d381" points="267.82 442.47 300.17 441.69 296.95 423.52"/><polyline class="3414f9cb-cdad-4c6d-901b-a536c3a4d381" points="313.84 331.59 346.39 337.17 345 354.38"/><polyline class="3414f9cb-cdad-4c6d-901b-a536c3a4d381" points="280.21 331.06 255.12 322.65 244.39 353.74 249.65 360.8 207.06 395.24 226.07 405.88 233.35 402.03 245.02 395.85 238.37 371.77 232.75 358.75 222.29 375.7 222.29 375.7 206.9 362.72 187.61 390.88 195.12 404.16 172.43 408.36 179.35 423.72 198.41 435.15 207.68 415.14"/><line class="3414f9cb-cdad-4c6d-901b-a536c3a4d381" x1="212.4" y1="402.07" x2="215.01" y2="399.43"/><line class="3414f9cb-cdad-4c6d-901b-a536c3a4d381" x1="222.29" y1="375.7" x2="226.63" y2="379.41"/><line class="3414f9cb-cdad-4c6d-901b-a536c3a4d381" x1="272.65" y1="418.87" x2="250.28" y2="413.09"/><line class="3414f9cb-cdad-4c6d-901b-a536c3a4d381" x1="100.28" y1="354.47" x2="43.13" y2="296.85"/><polygon class="3414f9cb-cdad-4c6d-901b-a536c3a4d381" points="70.21 385.26 71.83 379.56 98.17 371.99 106.85 384.95 70.21 385.26"/><polyline class="3414f9cb-cdad-4c6d-901b-a536c3a4d381" points="135.42 330.71 172.4 294.73 199.33 293.16 200.25 312.11"/><line class="3414f9cb-cdad-4c6d-901b-a536c3a4d381" x1="80.88" y1="374.08" x2="82.92" y2="376.37"/><polyline class="3414f9cb-cdad-4c6d-901b-a536c3a4d381" points="124.55 381.67 102.26 401.1 135.36 424.39 154.03 415.54 150.61 391.65 138.96 391.51 129.99 391.4 124.55 381.67 119.12 371.95"/><polyline class="3414f9cb-cdad-4c6d-901b-a536c3a4d381" points="138.96 391.51 127.24 405.79 113.19 391.58"/><polyline class="3414f9cb-cdad-4c6d-901b-a536c3a4d381" points="128.68 358.15 149.4 373.21 155.43 356.27 158.71 347.06 127.16 352.64"/><polyline class="3414f9cb-cdad-4c6d-901b-a536c3a4d381" points="152.25 365.19 162.87 365.52 158.41 388.79 163.61 398.87 151.85 400.31"/><polyline class="3414f9cb-cdad-4c6d-901b-a536c3a4d381" points="128.15 388.12 142.57 378.79 130.79 365.77"/><polyline class="3414f9cb-cdad-4c6d-901b-a536c3a4d381" points="144.75 321.63 176.63 348.33 169.06 374.97 161.2 374.25"/><polyline class="3414f9cb-cdad-4c6d-901b-a536c3a4d381" points="173.82 358.19 197.75 361.94 205.81 333.57 167.78 340.92"/><polyline class="3414f9cb-cdad-4c6d-901b-a536c3a4d381" points="161.78 305.07 170.77 317.34 174.77 322.79 168.01 334.21 147.09 319.36"/><polyline class="3414f9cb-cdad-4c6d-901b-a536c3a4d381" points="168.17 313.78 188.68 305.9 191.19 314.38 193.07 320.73 165.67 339.15"/><polyline class="3414f9cb-cdad-4c6d-901b-a536c3a4d381" points="190.83 313.17 207.86 311.25 209.96 327.06 211.97 342.18 202.87 343.93"/><path class="3414f9cb-cdad-4c6d-901b-a536c3a4d381" d="M230.76,324.3,210,327.06Z"/><polyline class="3414f9cb-cdad-4c6d-901b-a536c3a4d381" points="200.19 353.37 210.16 354.22 210.81 372.34 186.33 385.11 184.13 376.93 179.28 358.86"/><polyline class="3414f9cb-cdad-4c6d-901b-a536c3a4d381" points="161.16 394.12 194.82 393.06 194.65 380.96"/><polyline class="3414f9cb-cdad-4c6d-901b-a536c3a4d381" points="153.58 412.39 185.94 411.61 182.71 393.44"/><polyline class="3414f9cb-cdad-4c6d-901b-a536c3a4d381" points="230.76 324.3 232.15 307.09 199.61 301.51"/><polyline class="3414f9cb-cdad-4c6d-901b-a536c3a4d381" points="165.97 300.98 140.88 292.57 130.15 323.66 135.42 330.71 92.83 365.16 111.84 375.81 119.12 371.95 130.79 365.77 124.13 341.7 118.52 328.67 108.06 345.63 108.06 345.63 92.66 332.64 73.37 360.8 80.89 374.08 58.19 378.28 65.11 393.64 84.17 405.08 93.44 385.06"/><line class="3414f9cb-cdad-4c6d-901b-a536c3a4d381" x1="98.17" y1="371.99" x2="100.77" y2="369.35"/><line class="3414f9cb-cdad-4c6d-901b-a536c3a4d381" x1="108.06" y1="345.63" x2="112.39" y2="349.33"/><line class="3414f9cb-cdad-4c6d-901b-a536c3a4d381" x1="158.41" y1="388.79" x2="136.05" y2="383.01"/><polyline class="3414f9cb-cdad-4c6d-901b-a536c3a4d381" points="357.83 205.1 362.85 209.66 361.02 225.44 354.8 225.64"/><polyline class="3414f9cb-cdad-4c6d-901b-a536c3a4d381" points="347.73 232.89 355.24 263.45 345.45 266.22 335.83 268.94"/><polyline class="3414f9cb-cdad-4c6d-901b-a536c3a4d381" points="231.24 315.71 254.74 322.26 228.33 356.62 201.4 349.11"/><polygon class="3414f9cb-cdad-4c6d-901b-a536c3a4d381" points="310.35 422.36 314.77 420.51 332.89 432.81 329.11 444.57 310.35 422.36"/><polyline class="3414f9cb-cdad-4c6d-901b-a536c3a4d381" points="377.82 434.95 419.28 439.57 433.9 455.23 422.41 465.25"/><line class="3414f9cb-cdad-4c6d-901b-a536c3a4d381" x1="322.82" y1="423.3" x2="322.4" y2="425.69"/><polyline class="3414f9cb-cdad-4c6d-901b-a536c3a4d381" points="357.08 444.53 358.06 464.69 371.82 459.92 379.3 457.33 359.8 440.85"/><polyline class="3414f9cb-cdad-4c6d-901b-a536c3a4d381" points="388.29 436.12 387.57 468.9 366.91 477.57 361.02 463.83"/><polyline class="3414f9cb-cdad-4c6d-901b-a536c3a4d381" points="379.92 472.11 389.68 488.59 411.67 479.35 387.77 459.8"/><polyline class="3414f9cb-cdad-4c6d-901b-a536c3a4d381" points="407.37 438.25 404.18 449.86 402.76 455.02 392.12 456.59 390.9 436.41"/><polyline class="3414f9cb-cdad-4c6d-901b-a536c3a4d381" points="405.1 446.5 420.47 455.09 416.39 460.85 413.33 465.16 387.82 457.63"/><polyline class="3414f9cb-cdad-4c6d-901b-a536c3a4d381" points="416.97 460.03 426.8 469.46 417.88 478.64 409.36 487.4 403.64 482.73"/><polyline class="3414f9cb-cdad-4c6d-901b-a536c3a4d381" points="396.32 485.8 400.83 492.31 389.72 501.75 369.26 493.18 373.31 487.75 382.27 475.77"/><polyline class="3414f9cb-cdad-4c6d-901b-a536c3a4d381" points="412.07 438.77 404.68 419.25 379.61 428.22 377.82 434.95 334.5 426.14 337.41 443.06 343.53 445.58 353.34 449.62 365.17 433.54 370.56 423.61 354.55 425.69 354.55 425.69 354.95 409.81 327.4 412.09 322.82 423.3 308.67 411.55 302.48 423.44 304.91 440.78 322.24 436.45"/><line class="3414f9cb-cdad-4c6d-901b-a536c3a4d381" x1="332.89" y1="432.81" x2="335.88" y2="433.08"/><line class="3414f9cb-cdad-4c6d-901b-a536c3a4d381" x1="354.55" y1="425.69" x2="354.4" y2="430.19"/><polygon class="3414f9cb-cdad-4c6d-901b-a536c3a4d381" points="214.53 555.84 214.53 550.06 237.03 536.06 248.53 545.95 214.53 555.84"/><polyline class="3414f9cb-cdad-4c6d-901b-a536c3a4d381" points="260.77 487.54 285.66 444.06 310.29 435.54 316.16 453.09"/><line class="3414f9cb-cdad-4c6d-901b-a536c3a4d381" x1="221.51" y1="542.54" x2="224.01" y2="544.16"/><line class="3414f9cb-cdad-4c6d-901b-a536c3a4d381" x1="236.09" y1="549.57" x2="232.76" y2="570.79"/><polyline class="3414f9cb-cdad-4c6d-901b-a536c3a4d381" points="256.51 530.53 264.14 538.24 271.76 545.95 280.14 543.7 291.01 540.79 300.51 562.32"/><line class="3414f9cb-cdad-4c6d-901b-a536c3a4d381" x1="248.54" y1="562.32" x2="264.14" y2="538.24"/><polyline class="3414f9cb-cdad-4c6d-901b-a536c3a4d381" points="280.14 543.7 273.01 560.18 256.18 550.51"/><polyline class="3414f9cb-cdad-4c6d-901b-a536c3a4d381" points="261.76 515.07 285.01 523.79 286.14 506.3 286.76 496.79 258.88 510.29"/><polyline class="3414f9cb-cdad-4c6d-901b-a536c3a4d381" points="285.55 515.51 295.51 513.04 297.51 536.06 305.01 544.16 294.45 548.59"/><polyline class="3414f9cb-cdad-4c6d-901b-a536c3a4d381" points="269.19 543.35 280.14 530.82 265.73 521.67"/><polyline class="3414f9cb-cdad-4c6d-901b-a536c3a4d381" points="267.06 476.56 303.76 493.29 303.76 520.29 296.26 521.67"/><polyline class="3414f9cb-cdad-4c6d-901b-a536c3a4d381" points="303.76 503.29 327.01 500.54 327.01 471.79 293.58 488.65"/><polyline class="3414f9cb-cdad-4c6d-901b-a536c3a4d381" points="278.51 456.55 290.12 465.72 295.28 469.79 292.01 482.29 268.63 473.82"/><polyline class="3414f9cb-cdad-4c6d-901b-a536c3a4d381" points="286.76 463.06 303.76 450.29 308.33 457.59 311.76 463.06 291.14 487.54"/><polyline class="3414f9cb-cdad-4c6d-901b-a536c3a4d381" points="307.68 456.55 323.01 450.29 329.15 464.59 335.01 478.26 327.01 482.29"/><polyline class="3414f9cb-cdad-4c6d-901b-a536c3a4d381" points="327.01 491.85 336.51 490.04 341.9 506.89 322.51 525.29 318.31 518.18 309.01 502.48"/><polyline class="3414f9cb-cdad-4c6d-901b-a536c3a4d381" points="301.48 540.34 332.51 530.53 329.15 519.21"/><polyline class="3414f9cb-cdad-4c6d-901b-a536c3a4d381" points="299.26 559.49 329.15 550.28 321.35 534.06"/><line class="3414f9cb-cdad-4c6d-901b-a536c3a4d381" x1="325.46" y1="542.6" x2="343.51" y2="534.06"/><polyline class="3414f9cb-cdad-4c6d-901b-a536c3a4d381" points="212.01 565.04 201.51 552.43 221.51 542.54 211.01 532.04 221.51 500.54 239.26 508.7 244.51 490.04 253.18 500.81 265.73 521.67 256.51 530.53 250.76 536.06 230.26 531.04 260.77 487.54 254.01 482.29 255.77 450.29 281.34 451.62"/><line class="3414f9cb-cdad-4c6d-901b-a536c3a4d381" x1="237.04" y1="536.06" x2="238.76" y2="532.89"/><line class="3414f9cb-cdad-4c6d-901b-a536c3a4d381" x1="239.26" y1="508.7" x2="244.28" y2="511.05"/><line class="3414f9cb-cdad-4c6d-901b-a536c3a4d381" x1="297.51" y1="536.06" x2="275.19" y2="536.49"/><line class="3414f9cb-cdad-4c6d-901b-a536c3a4d381" x1="232.76" y1="570.79" x2="212.01" y2="565.04"/><line class="3414f9cb-cdad-4c6d-901b-a536c3a4d381" x1="248.54" y1="562.32" x2="235.14" y2="555.65"/><line class="3414f9cb-cdad-4c6d-901b-a536c3a4d381" x1="300.51" y1="562.32" x2="262.36" y2="565.04"/><line class="3414f9cb-cdad-4c6d-901b-a536c3a4d381" x1="263.19" y1="554.54" x2="262.36" y2="565.04"/><line class="3414f9cb-cdad-4c6d-901b-a536c3a4d381" x1="343.51" y1="534.06" x2="337" y2="511.54"/><polygon class="3414f9cb-cdad-4c6d-901b-a536c3a4d381" points="443.38 691.22 440.11 686.45 450.74 662.18 465.82 663.83 443.38 691.22"/><polyline class="3414f9cb-cdad-4c6d-901b-a536c3a4d381" points="442.88 608.74 438.81 558.81 454.3 537.85 469.06 549"/><line class="3414f9cb-cdad-4c6d-901b-a536c3a4d381" x1="441.61" y1="676.31" x2="444.59" y2="676.23"/><line class="3414f9cb-cdad-4c6d-901b-a536c3a4d381" x1="457.61" y1="673.85" x2="466.86" y2="693.24"/><polyline class="3414f9cb-cdad-4c6d-901b-a536c3a4d381" points="463.68 646.6 474.33 648.65 484.97 650.69 490.61 644.1 497.93 635.55 517.94 647.93"/><line class="3414f9cb-cdad-4c6d-901b-a536c3a4d381" x1="475.08" y1="677.33" x2="474.33" y2="648.65"/><polyline class="3414f9cb-cdad-4c6d-901b-a536c3a4d381" points="490.61 644.1 494.05 661.72 474.71 663.27"/><polyline class="3414f9cb-cdad-4c6d-901b-a536c3a4d381" points="459.26 630.89 483.37 624.93 474.41 609.86 469.54 601.67 454.19 628.57"/><polyline class="3414f9cb-cdad-4c6d-901b-a536c3a4d381" points="479.13 617.79 485.95 610.12 500.62 627.97 511.38 630.41 505.19 640.04"/><polyline class="3414f9cb-cdad-4c6d-901b-a536c3a4d381" points="481.39 650 483.32 633.48 466.27 634.08"/><polyline class="3414f9cb-cdad-4c6d-901b-a536c3a4d381" points="441.85 596.14 481.58 589.17 496.85 611.43 491.45 616.82"/><polyline class="3414f9cb-cdad-4c6d-901b-a536c3a4d381" points="487.24 597.41 504.85 582 488.59 558.29 470.55 591.1"/><polyline class="3414f9cb-cdad-4c6d-901b-a536c3a4d381" points="439.98 573.15 454.74 574.14 461.29 574.59 465.67 586.74 441.59 592.99"/><polyline class="3414f9cb-cdad-4c6d-901b-a536c3a4d381" points="450.46 573.86 457.26 553.71 465.16 557.14 471.08 559.72 467.92 591.56"/><polyline class="3414f9cb-cdad-4c6d-901b-a536c3a4d381" points="464.03 556.65 473.13 542.82 486.28 551.14 498.85 559.1 494.53 566.95"/><polyline class="3414f9cb-cdad-4c6d-901b-a536c3a4d381" points="499.94 574.83 506.75 567.96 520.72 578.81 515.14 604.95 507.65 601.47 491.11 593.78"/><polyline class="3414f9cb-cdad-4c6d-901b-a536c3a4d381" points="506.31 629.26 526.35 603.62 517.18 596.19"/><polyline class="3414f9cb-cdad-4c6d-901b-a536c3a4d381" points="515.31 646.3 534.75 621.81 519.14 612.84"/><line class="3414f9cb-cdad-4c6d-901b-a536c3a4d381" x1="527.36" y1="617.56" x2="537.42" y2="600.31"/><polyline class="3414f9cb-cdad-4c6d-901b-a536c3a4d381" points="446.5 700.23 430.71 695.77 441.61 676.3 427.01 673.59 417.85 641.67 437.11 638.36 430.88 620 444.12 623.98 466.27 634.08 463.68 646.6 462.06 654.42 442.32 661.87 442.88 608.74 434.33 608.24 417.68 580.85 439.51 567.49"/><line class="3414f9cb-cdad-4c6d-901b-a536c3a4d381" x1="450.74" y1="662.18" x2="450.37" y2="658.59"/><line class="3414f9cb-cdad-4c6d-901b-a536c3a4d381" x1="437.11" y1="638.36" x2="442.57" y2="637.46"/><line class="3414f9cb-cdad-4c6d-901b-a536c3a4d381" x1="500.62" y1="627.97" x2="482.45" y2="640.96"/><line class="3414f9cb-cdad-4c6d-901b-a536c3a4d381" x1="466.86" y1="693.24" x2="446.5" y2="700.23"/><line class="3414f9cb-cdad-4c6d-901b-a536c3a4d381" x1="475.08" y1="677.33" x2="460.26" y2="679.41"/><line class="3414f9cb-cdad-4c6d-901b-a536c3a4d381" x1="517.94" y1="647.93" x2="488.02" y2="671.76"/><line class="3414f9cb-cdad-4c6d-901b-a536c3a4d381" x1="482.76" y1="662.63" x2="488.02" y2="671.76"/><line class="3414f9cb-cdad-4c6d-901b-a536c3a4d381" x1="537.42" y1="600.31" x2="519.31" y2="585.41"/><polygon class="3414f9cb-cdad-4c6d-901b-a536c3a4d381" points="358.21 379.76 359.49 374.12 384.54 365.47 393.56 377.67 358.21 379.76"/><polyline class="3414f9cb-cdad-4c6d-901b-a536c3a4d381" points="418.48 323.45 452.41 286.6 478.32 283.76 480.14 302.18"/><line class="3414f9cb-cdad-4c6d-901b-a536c3a4d381" x1="367.97" y1="368.34" x2="370.04" y2="370.48"/><line class="3414f9cb-cdad-4c6d-901b-a536c3a4d381" x1="380.62" y1="378.44" x2="372.65" y2="398.39"/><polyline class="3414f9cb-cdad-4c6d-901b-a536c3a4d381" points="404.76 364.42 410.48 373.63 416.2 382.84 424.87 382.51 436.12 382.09 440.59 405.19"/><line class="3414f9cb-cdad-4c6d-901b-a536c3a4d381" x1="389.91" y1="393.64" x2="410.48" y2="373.63"/><polyline class="3414f9cb-cdad-4c6d-901b-a536c3a4d381" points="424.87 382.51 414.25 396.99 400 383.83"/><polyline class="3414f9cb-cdad-4c6d-901b-a536c3a4d381" points="413.32 350.51 434.05 364.18 439.04 347.38 441.76 338.25 411.57 345.21"/><polyline class="3414f9cb-cdad-4c6d-901b-a536c3a4d381" points="436.41 356.23 446.67 356.04 443.5 378.92 449.01 388.49 437.74 390.47"/><polyline class="3414f9cb-cdad-4c6d-901b-a536c3a4d381" points="414.27 379.74 427.73 369.95 415.72 357.83"/><polyline class="3414f9cb-cdad-4c6d-901b-a536c3a4d381" points="427.04 314.15 459.11 338.62 453.11 364.94 445.49 364.62"/><polyline class="3414f9cb-cdad-4c6d-901b-a536c3a4d381" points="456.88 348.37 480.17 350.86 486.56 322.82 450.21 331.83"/><polyline class="3414f9cb-cdad-4c6d-901b-a536c3a4d381" points="442.66 297.18 451.94 308.7 456.07 313.82 450.1 325.28 429.18 311.82"/><polyline class="3414f9cb-cdad-4c6d-901b-a536c3a4d381" points="449.26 305.37 468.67 296.69 471.51 304.83 473.63 310.93 448.08 330.2"/><polyline class="3414f9cb-cdad-4c6d-901b-a536c3a4d381" points="471.1 303.67 487.44 300.97 490.24 316.28 492.92 330.91 484.22 333.06"/><polyline class="3414f9cb-cdad-4c6d-901b-a536c3a4d381" points="482.1 342.39 491.76 342.73 493.27 360.35 470.27 373.98 467.75 366.12 462.18 348.74"/><polyline class="3414f9cb-cdad-4c6d-901b-a536c3a4d381" points="446.42 383.98 478.86 381.32 478.09 369.54"/><polyline class="3414f9cb-cdad-4c6d-901b-a536c3a4d381" points="440 402.15 471.19 399.82 467.19 382.28"/><line class="3414f9cb-cdad-4c6d-901b-a536c3a4d381" x1="469.29" y1="391.52" x2="488.8" y2="387.2"/><polyline class="3414f9cb-cdad-4c6d-901b-a536c3a4d381" points="353.7 388.17 346.27 373.54 367.97 368.34 360.06 355.77 377.31 327.39 392.8 339.3 402.06 322.27 408.12 334.69 415.72 357.83 404.76 364.42 397.92 368.53 379.06 359.08 418.48 323.45 413.05 316.83 421.88 286.02 446.51 293"/><line class="3414f9cb-cdad-4c6d-901b-a536c3a4d381" x1="384.54" y1="365.47" x2="386.93" y2="362.77"/><line class="3414f9cb-cdad-4c6d-901b-a536c3a4d381" x1="392.8" y1="339.3" x2="397.17" y2="342.71"/><line class="3414f9cb-cdad-4c6d-901b-a536c3a4d381" x1="443.5" y1="378.92" x2="421.64" y2="374.38"/><line class="3414f9cb-cdad-4c6d-901b-a536c3a4d381" x1="372.65" y1="398.39" x2="353.7" y2="388.17"/><line class="3414f9cb-cdad-4c6d-901b-a536c3a4d381" x1="389.91" y1="393.64" x2="378.34" y2="384.15"/><line class="3414f9cb-cdad-4c6d-901b-a536c3a4d381" x1="440.59" y1="405.19" x2="402.79" y2="399.36"/><line class="3414f9cb-cdad-4c6d-901b-a536c3a4d381" x1="405.93" y1="389.31" x2="402.79" y2="399.36"/><line class="3414f9cb-cdad-4c6d-901b-a536c3a4d381" x1="488.8" y1="387.2" x2="487.46" y2="363.8"/><line class="a657fa2b-56ad-4f92-8838-2d37e77592e9" x1="505.77" y1="465.97" x2="513.7" y2="465.06"/><line class="bfcef2f1-a40a-4439-8202-0d39902e5561" x1="505.96" y1="466.87" x2="577.49" y2="458.26"/><line class="bfcef2f1-a40a-4439-8202-0d39902e5561" x1="297.12" y1="604.29" x2="385.7" y2="574.26"/><line class="a657fa2b-56ad-4f92-8838-2d37e77592e9" x1="373.25" y1="577.87" x2="385.52" y2="573.79"/><line class="a657fa2b-56ad-4f92-8838-2d37e77592e9" x1="407.76" y1="356" x2="420.89" y2="352.81"/><line class="bfcef2f1-a40a-4439-8202-0d39902e5561" x1="420.52" y1="353.36" x2="528.12" y2="326.16"/><line class="a657fa2b-56ad-4f92-8838-2d37e77592e9" x1="415.31" y1="261.5" x2="422.08" y2="256.63"/><line class="bfcef2f1-a40a-4439-8202-0d39902e5561" x1="422.41" y1="257.11" x2="484.99" y2="212.29"/><line class="bfcef2f1-a40a-4439-8202-0d39902e5561" x1="168.39" y1="506.49" x2="247.75" y2="530.81"/><line class="a657fa2b-56ad-4f92-8838-2d37e77592e9" x1="239.73" y1="528.37" x2="247.75" y2="530.81"/></svg>