<svg xmlns="http://www.w3.org/2000/svg" viewBox="0 0 615.41 689.45"><defs><style>.cls-1,.cls-2,.cls-3,.cls-4,.cls-5,.cls-6{fill:none;stroke-width:7px;}.cls-1{stroke:#e70333;}.cls-1,.cls-2,.cls-3,.cls-4,.cls-5,.cls-6,.cls-7{stroke-miterlimit:10;}.cls-2{stroke:#009164;}.cls-3{stroke:#027bc4;}.cls-4{stroke:#ca9738;}.cls-5{stroke:#f9be1e;}.cls-6{stroke:#dee521;}.cls-7{fill:#4d4d4d;stroke:#fff;stroke-width:5px;}.cls-8{font-size:12px;font-family:FZLTZHB--B51-0, Lantinghei TC;font-weight:700;}</style></defs><title>捷運地圖</title><g id="圖層_4" data-name="圖層 4"><path class="cls-1" d="M149.5,82.5l50.36,40.36c1.37,1.37,2.48,4.09,3.35,6.86A62.18,62.18,0,0,1,206,148.49l-.5,257C205,426.61,214.39,436,226,436H443"/><path class="cls-2" d="M456,330l-255.53-.5C176.39,329,167,338.39,167,350l-.5,64.56a21,21,0,0,0,21,21h19.34a21,21,0,0,1,14.83,6.14l70.72,81.72a21,21,0,0,1,6.14,14.83V623"/><path class="cls-3" d="M40.5,611.5l30.86-30.86a21,21,0,0,0,6.14-14.83V514.19a21,21,0,0,1,6.14-14.83L193.36,384.64a21,21,0,0,1,14.83-6.14H463.31a21,21,0,0,0,14.83-6.14l19.47-19.47a21,21,0,0,1,14.83-6.14H566"/><path class="cls-4" d="M565.5,344V260.4a21,21,0,0,0-5.21-13.84l-38.52-43.92A21,21,0,0,0,506,195.5H357.47a21,21,0,0,0-21,21L336,454a21,21,0,0,0,21,21H375a21,21,0,0,1,21,21V518a21,21,0,0,0,21,21h36"/><path class="cls-5" d="M185.5,575.5V513a21,21,0,0,1,5.94-14.63l61.12-62.78A21,21,0,0,0,258.5,421l.5-124a21,21,0,0,0-21-21H158a21,21,0,0,1-15.18-6.5L105,227"/><line class="cls-5" x1="148.5" y1="275.5" x2="68" y2="356"/><line class="cls-6" x1="267" y1="575" x2="298" y2="575"/></g><g id="圖層_8" data-name="圖層 8"><g id="station_yuanshan"><circle class="cls-7" cx="205" cy="234" r="9"/><text class="cls-8" transform="translate(218.5 224.98)">圓山</text></g><g id="station_tamsui"><circle class="cls-7" cx="150.5" cy="83.5" r="9"/><text class="cls-8" transform="translate(165.5 78.98)">淡水</text></g><g id="station_jiannan"><circle class="cls-7" cx="367" cy="195" r="9"/><text class="cls-8" transform="translate(345.5 177.98)">劍南路</text></g><g id="station_dahupark"><circle class="cls-7" cx="531" cy="213" r="9"/><text class="cls-8" transform="translate(548.5 212.98)">大湖公園</text></g><g id="station_songshan"><circle class="cls-7" cx="336.5" cy="248.5" r="9"/><text class="cls-8" transform="translate(352 252.48)">松山機場</text></g><g id="station_arena"><circle class="cls-7" cx="379.5" cy="329.5" r="9"/><text class="cls-8" transform="translate(365 315.48)">台北小巨蛋</text></g><g id="station_zongshanjh"><circle class="cls-7" cx="336" cy="287" r="9"/><text class="cls-8" transform="translate(351.5 289.98)">中山國中</text></g><g id="station_xingtian"><circle class="cls-7" cx="259" cy="290" r="9"/><text class="cls-8" transform="translate(255.5 277.98)">行天宮</text></g><g id="station_daqiaotou"><circle class="cls-7" cx="172" cy="278" r="9"/><text class="cls-8" transform="translate(142.5 305.98)">大橋頭</text></g><g id="station_zhongshan"><circle class="cls-7" cx="205" cy="329" r="9"/><text class="cls-8" transform="translate(214.5 314.98)">中山</text></g><g id="station_beimen"><circle class="cls-7" cx="167" cy="358" r="9"/><text class="cls-8" transform="translate(125.5 369.98)">北門</text></g><g id="station_ximen"><circle class="cls-7" cx="166.5" cy="413.5" r="9"/><text class="cls-8" transform="translate(128 401.48)">西門</text></g><g id="station_longshan"><circle class="cls-7" cx="134" cy="446" r="9"/><text class="cls-8" transform="translate(83.5 438.98)">龍山寺</text></g><g id="station_zongzang"><circle class="cls-7" cx="209.5" cy="433.5" r="9"/><text class="cls-8" transform="translate(171 458.48)">中正<tspan x="0" y="14.4">紀念堂</tspan></text></g><g id="station_dongman"><circle class="cls-7" cx="252.5" cy="435.5" r="9"/><text class="cls-8" transform="translate(228 418.48)">東門</text></g><g id="station_101"><circle class="cls-7" cx="395" cy="436" r="9"/><text class="cls-8" transform="translate(367.5 418.98)">台北101</text></g><g id="station_nangang"><circle class="cls-7" cx="540" cy="347" r="9"/><text class="cls-8" transform="translate(527.5 369.98)">南港</text></g><g id="station_xiangshan"><circle class="cls-7" cx="442.5" cy="436.5" r="9"/><text class="cls-8" transform="translate(433 466.48)">象山</text></g><g id="station_beitan"><circle class="cls-7" cx="267.5" cy="575.5" r="9"/><text class="cls-8" transform="translate(243 563.48)">小碧潭</text></g><g id="station_daanpark"><circle class="cls-7" cx="297" cy="436" r="9"/><text class="cls-8" transform="translate(261.5 465.98)">大安森林公園</text></g></g></svg>