<svg id="3a4df338-5a07-4b4b-8e3d-42e377ed92ae" data-name="圖層 1" xmlns="http://www.w3.org/2000/svg" viewBox="0 0 1340.93 959.95"><defs><style>.\33 857bd80-49c1-444e-9d9d-3ec97104fa9f,.ddc78091-1b27-433a-a9db-9eedd30f8adc{fill:none;stroke-miterlimit:10;}.\33 857bd80-49c1-444e-9d9d-3ec97104fa9f{stroke:#e8e9e8;stroke-width:3px;}.b637b1a3-9b7b-438f-8b5a-8cd889cc549d{fill:#e8e9e8;}.ddc78091-1b27-433a-a9db-9eedd30f8adc{stroke:#e9eae9;stroke-width:4px;}.be16b2f3-adf8-4f01-8118-65f7108abebc{fill:#e9eae9;}</style></defs><title>sound_split</title><polygon id="be289fde-db0a-4954-ad98-014dcce413ed" data-name="sound_split1" class="3857bd80-49c1-444e-9d9d-3ec97104fa9f" points="718.62 113.93 515.81 113.93 515.81 163.99 697.67 163.99 697.67 209.96 282.37 209.96 282.37 163.99 463.21 163.99 463.21 113.93 249.68 113.93 249.68 66.93 463.21 66.93 463.21 19.43 515.81 19.43 515.81 66.93 718.62 66.93 718.62 113.93"/><path id="43f1576f-5fb5-4321-8d55-e612c480b908" data-name="sound_split3" class="3857bd80-49c1-444e-9d9d-3ec97104fa9f" d="M775.36,825.83V564.28H847.9v-49H154.17v49h54.15V825.83H34.64v48H721.22v65.9h54.14v-65.9H942.92v-48Zm-54.14,0H262V765H721.22Zm0-104.73H262V664.92H721.22Zm0-102.17H262V564.28H721.22Z"/><path id="3964ad96-c4a9-4e02-8957-d80ebdf29957" data-name="sound_split2" class="3857bd80-49c1-444e-9d9d-3ec97104fa9f" d="M75.64,274.88Q75.12,425.59,59.8,486.12T19.44,583.94L59.8,616.13q48.52-84.8,58.74-173.68H447V274.88ZM239.11,395.45H124.68q3.56-51.07,2-73.06H239.11Zm154.78,0H291.22V322.39H393.89Z"/><path id="52f8532b-f468-497c-b9cc-5805c9018748" data-name="sound_split5" class="b637b1a3-9b7b-438f-8b5a-8cd889cc549d" d="M1010.78,456.22h-116q-56.71,0-56.7-50.06V343.33H681.29q-9.7,95-76.62,137.93L571.46,445q63.84-37.81,63.85-149.68H889.2v99.1q0,16.87,17.88,16.86h103.71Z"/><path id="23ef4a2e-1466-4787-bc02-105ca253d54b" data-name="sound_split4" class="3857bd80-49c1-444e-9d9d-3ec97104fa9f" d="M1137.3,655.3q67.94-42.91,112.89-101.65v-46H886v46h28.62q56.17,59.26,119,99.62-58.74,26.05-174.7,48l31.16,42.91q124.63-26,195.65-61.81,93,44.44,213.53,67.94l25-43.94Q1215.44,687,1137.3,655.3Zm-54.67-26q-65.4-38.3-103.18-75.6h205.86Q1150.06,592,1082.64,629.26Z"/><line class="ddc78091-1b27-433a-a9db-9eedd30f8adc" x1="1010.78" y1="454.06" x2="1233.74" y2="454.06"/><rect class="be16b2f3-adf8-4f01-8118-65f7108abebc" x="1103.81" y="436.95" width="129.93" height="17.11"/><line class="ddc78091-1b27-433a-a9db-9eedd30f8adc" x1="648.91" y1="209.96" x2="875.41" y2="209.96"/><rect class="be16b2f3-adf8-4f01-8118-65f7108abebc" x="779.91" y="194.85" width="129.93" height="17.11"/></svg>