<svg id="圖層_1" data-name="圖層 1" xmlns="http://www.w3.org/2000/svg" xmlns:xlink="http://www.w3.org/1999/xlink" viewBox="0 0 719.55 585.55"><defs><style>.cls-1,.cls-11,.cls-12,.cls-13,.cls-16,.cls-21{fill:none;}.cls-14,.cls-15,.cls-2{fill:#c92028;}.cls-10,.cls-11,.cls-12,.cls-15,.cls-16,.cls-17,.cls-2,.cls-21,.cls-3,.cls-4,.cls-5,.cls-7,.cls-8,.cls-9{stroke:#1a1a1a;}.cls-10,.cls-11,.cls-16,.cls-2,.cls-4,.cls-5,.cls-9{stroke-linecap:round;}.cls-10,.cls-11,.cls-15,.cls-16,.cls-2,.cls-21,.cls-3,.cls-4,.cls-5,.cls-9{stroke-linejoin:round;}.cls-3,.cls-5,.cls-7,.cls-8,.cls-9{fill:#fff;}.cls-4{fill:#fff5f6;}.cls-6{isolation:isolate;}.cls-12,.cls-13,.cls-17,.cls-7,.cls-8{stroke-miterlimit:10;}.cls-10,.cls-15,.cls-16,.cls-17,.cls-8,.cls-9{stroke-width:0.8px;}.cls-10,.cls-17,.cls-19{fill:#1a1a1a;}.cls-13{stroke:#e6e6e6;stroke-width:0.75px;}.cls-18{clip-path:url(#clip-path);}.cls-20{clip-path:url(#clip-path-2);}</style><clipPath id="clip-path"><polygon class="cls-1" points="475.81 441.19 475.83 432.93 485.45 438.49 485.43 446.75 475.81 441.19"/></clipPath><clipPath id="clip-path-2"><polygon class="cls-1" points="451.13 426.87 451.15 419.67 459.5 424.49 459.48 431.69 451.13 426.87"/></clipPath></defs><title>101</title><g id="_island2_" data-name="&lt;island2&gt;"><polygon class="cls-2" points="677.83 376.95 446.29 503.24 440.45 531.31 445.13 543 677.83 409.69 677.83 376.95"/><polygon class="cls-2" points="198.39 299.77 198.39 333.69 397.18 447.11 403.03 399.17 272.06 336.02 198.39 299.77"/><polygon class="cls-2" points="329.36 443.61 329.36 476.35 445.13 543 446.29 503.24 341.05 443.61 329.36 443.61"/><polygon class="cls-3" points="376.13 200.38 198.39 299.77 387.83 409.69 330.53 443.61 446.29 510.26 677.83 376.95 376.13 200.38"/><g id="_trigger_firework_" data-name="&lt;trigger_firework&gt;"><polygon class="cls-4" points="419.19 266.79 414.55 241.68 439.27 255.49 439.27 278.82 419.19 266.79"/><polygon class="cls-5" points="459.34 266.79 463.99 241.68 439.27 255.49 439.27 278.82 459.34 266.79"/><polygon class="cls-2" points="414.55 241.68 439.27 227.59 463.99 241.68 439.27 255.49 414.55 241.68"/><polygon class="cls-4" points="419.19 238.47 414.55 213.36 439.27 227.17 439.27 250.5 419.19 238.47"/><polygon class="cls-5" points="459.34 238.47 463.99 213.36 439.27 227.17 439.27 250.5 459.34 238.47"/><polygon class="cls-2" points="414.55 213.36 439.27 199.27 463.99 213.36 439.27 227.17 414.55 213.36"/><polygon class="cls-4" points="419.19 209.77 414.55 184.66 439.27 198.47 439.27 221.8 419.19 209.77"/><polygon class="cls-5" points="459.34 209.77 463.99 184.66 439.27 198.47 439.27 221.8 459.34 209.77"/><polygon class="cls-2" points="414.55 184.66 439.27 170.58 463.99 184.66 439.27 198.47 414.55 184.66"/><polygon class="cls-4" points="419.19 181.45 414.55 156.34 439.27 170.15 439.27 193.48 419.19 181.45"/><polygon class="cls-5" points="459.34 181.45 463.99 156.34 439.27 170.15 439.27 193.48 459.34 181.45"/><polygon class="cls-2" points="414.55 156.34 439.27 142.25 463.99 156.34 439.27 170.15 414.55 156.34"/><polygon class="cls-4" points="419.19 153.07 414.55 127.96 439.27 141.77 439.27 165.1 419.19 153.07"/><polygon class="cls-5" points="459.34 153.07 463.99 127.96 439.27 141.77 439.27 165.1 459.34 153.07"/><polygon class="cls-2" points="414.55 127.96 439.27 113.88 463.99 127.96 439.27 141.77 414.55 127.96"/><polygon class="cls-4" points="419.19 124.75 414.55 99.64 439.27 113.45 439.27 136.78 419.19 124.75"/><polygon class="cls-5" points="459.34 124.75 463.99 99.64 439.27 113.45 439.27 136.78 459.34 124.75"/><polygon class="cls-2" points="414.55 99.64 439.27 85.55 463.99 99.64 439.27 113.45 414.55 99.64"/><polygon class="cls-4" points="427.44 100.24 424.7 85.44 439.27 93.58 439.27 107.33 427.44 100.24"/><polygon class="cls-5" points="451.1 100.24 453.84 85.44 439.27 93.58 439.27 107.33 451.1 100.24"/><polygon class="cls-2" points="424.7 85.44 439.27 77.14 453.84 85.44 439.27 93.58 424.7 85.44"/><polygon class="cls-2" points="435.65 85.47 434.87 47.28 439.03 49.6 439.03 87.5 435.65 85.47"/><polygon class="cls-2" points="442.4 85.47 443.18 47.28 439.03 49.6 439.03 87.5 442.4 85.47"/><polygon class="cls-2" points="434.87 47.28 439.03 44.91 443.18 47.28 439.03 49.6 434.87 47.28"/><g class="cls-6"><polygon class="cls-3" points="366.38 197.94 366.25 245.59 329.68 267.45 329.82 219.78 366.38 197.94"/><polygon class="cls-3" points="329.82 219.78 329.68 267.45 314.55 258.95 314.68 211.28 329.82 219.78"/><polygon class="cls-3" points="351.24 189.43 366.38 197.94 329.82 219.78 314.68 211.28 351.24 189.43"/></g><g class="cls-6"><polygon class="cls-3" points="353.09 168.96 381.94 152.19 386.75 155.5 357.9 172.27 353.09 168.96"/><polygon class="cls-3" points="357.9 172.27 386.75 155.5 386.39 281.28 357.55 298.04 357.9 172.27"/><polygon class="cls-3" points="353.09 168.96 357.9 172.27 357.55 298.04 340.96 288.47 353.09 168.96"/></g><g class="cls-6"><polygon class="cls-3" points="387.78 170.07 386.32 288.16 363.56 301.3 365.02 183.21 387.78 170.07"/><polygon class="cls-2" points="365.02 183.21 363.56 301.3 356.97 297.33 358.43 179.24 365.02 183.21"/><polygon class="cls-3" points="381.19 166.11 387.78 170.07 365.02 183.21 358.43 179.24 381.19 166.11"/></g><g class="cls-6"><polygon class="cls-3" points="368.35 177.81 397.2 161.04 408.61 294.14 379.77 310.9 368.35 177.81"/><polygon class="cls-3" points="363.53 175.55 392.37 158.78 397.2 161.04 368.35 177.81 363.53 175.55"/><polygon class="cls-3" points="368.35 177.81 379.77 310.9 363.17 301.32 363.53 175.55 368.35 177.81"/></g><g class="cls-6"><polygon class="cls-3" points="308.89 245.72 308.77 266.65 276.65 285.95 276.77 265.02 308.89 245.72"/><polygon class="cls-3" points="276.77 265.02 276.65 285.95 255.64 274.1 255.76 253.18 276.77 265.02"/><polygon class="cls-3" points="287.88 233.88 308.89 245.72 276.77 265.02 255.76 253.18 287.88 233.88"/></g><g class="cls-6"><polygon class="cls-7" points="515.16 198.03 514.89 293.35 493.88 305.56 494.15 210.24 515.16 198.03"/><polygon class="cls-2" points="494.15 210.24 493.88 305.56 472.73 293.35 473 198.03 494.15 210.24"/><polygon class="cls-7" points="515.16 198.03 494.15 210.24 473 198.03 494.01 185.81 515.16 198.03"/></g><g class="cls-6"><polygon class="cls-7" points="347.48 249.29 347.35 297.08 334.95 304.28 335.09 256.49 347.48 249.29"/><polygon class="cls-7" points="335.09 256.49 334.95 304.28 321.44 296.48 321.57 248.69 335.09 256.49"/><polygon class="cls-7" points="347.48 249.29 335.09 256.49 321.57 248.69 333.97 241.49 347.48 249.29"/></g><g class="cls-6"><polygon class="cls-3" points="268.43 226.12 268.13 300.28 244.96 313.75 245.26 239.59 268.43 226.12"/><polygon class="cls-3" points="245.26 239.59 244.96 313.75 221.64 300.28 221.93 226.12 245.26 239.59"/><polygon class="cls-3" points="268.43 226.12 245.26 239.59 221.93 226.12 245.1 212.66 268.43 226.12"/></g><polygon class="cls-2" points="263.29 240 263.09 291.71 249.64 298.54 249.84 248.01 263.29 240"/><g class="cls-6"><polygon class="cls-2" points="266.17 308.87 266.29 329.8 298.41 349.1 298.29 328.17 266.17 308.87"/><polygon class="cls-3" points="298.29 328.17 298.41 349.1 319.42 337.25 319.3 316.32 298.29 328.17"/><polygon class="cls-3" points="287.18 297.02 266.17 308.87 298.29 328.17 319.3 316.32 287.18 297.02"/></g></g><g id="_trigger_take_photos_" data-name="&lt;trigger_take_photos&gt;"><path class="cls-2" d="M385.09,311.91l4.3-2.21s5.44,1.09,4.35,6.53l-3.26,2.17"/><polygon class="cls-2" points="374.16 310.79 373.73 320.94 386.13 328.19 386.13 317.31 374.16 310.79"/><polyline class="cls-2" points="374.16 310.79 379.6 308.61 390.48 315.14 386.13 317.31 386.13 328.19 390.48 324.93 390.48 315.14 386.13 317.31"/><line class="cls-2" x1="374.96" y1="311.47" x2="385.49" y2="317.31"/><path class="cls-8" d="M368.22,295.94s-.75-7.73-2.45-8.74l-3.94-1.09s-5.39-.18-6.4,2.34-2.71,6-2.71,6,1.57,2.92.77,3.43,3.7,5.52,3.7,5.52l2.27-7.44,2.81-2.34,3.68.27Z"/><path class="cls-9" d="M357.65,307.65s-10.84,20.45-9.75,33.05c0,0,16.27,1.56,21.56-2.32,0,0-1-24.35-3.43-28.75C366,309.63,359.46,309.51,357.65,307.65Z"/><path class="cls-10" d="M347.82,341.08s8.27,17.12,13.42,30.11l4.3.91s3.39-23.51,3.48-33.46"/><path class="cls-9" d="M359.73,293.73s5.89-2.63,7.89,2.34,1.31,5.09,1.31,5.09l-2.22.9.26,7.45s-8.84,0-10-1.73,1.74-9.28,1.74-9.28S357,298.07,357,297s1.29-1.33,2.43-.27S359.73,293.73,359.73,293.73Z"/><ellipse class="cls-8" cx="366.3" cy="298.73" rx="0.21" ry="0.23"/><path class="cls-11" d="M361.26,370.64v3.81s6.26,2.26,9.79,0l-4.67-2.9Z"/><path class="cls-9" d="M366,315.21s12,7.27,16.15,6.75c0,0-15.83,1.14-21.61-6"/><line class="cls-9" x1="388.3" y1="305.35" x2="389.39" y2="301"/><line class="cls-9" x1="395.92" y1="309.7" x2="399.18" y2="307.52"/><line class="cls-9" x1="398.09" y1="315.14" x2="402.44" y2="315.14"/></g><path class="cls-12" d="M447.46,123.2s18.71-12.86,32.75-12.86"/><circle class="cls-2" cx="491.9" cy="104.49" r="3.51"/><line class="cls-7" x1="486.03" y1="95.48" x2="477.89" y2="86.61"/><line class="cls-7" x1="493.07" y1="91.63" x2="493.07" y2="79.93"/><line class="cls-7" x1="501.25" y1="96.31" x2="511.78" y2="89.29"/><line class="cls-7" x1="490.73" y1="112.68" x2="484.88" y2="124.95"/><line class="cls-7" x1="497.75" y1="111.51" x2="504.76" y2="120.86"/><line class="cls-7" x1="502.42" y1="104.49" x2="515.29" y2="104.49"/><line class="cls-7" x1="480.96" y1="104.99" x2="468.92" y2="105.16"/><path class="cls-12" d="M454.48,177s18.71-12.86,32.74-12.86"/><circle class="cls-7" cx="498.92" cy="158.28" r="3.51"/><line class="cls-7" x1="493.04" y1="151.61" x2="484.91" y2="142.73"/><line class="cls-7" x1="500.08" y1="147.76" x2="500.08" y2="136.06"/><line class="cls-7" x1="507.1" y1="152.43" x2="517.62" y2="145.42"/><line class="cls-7" x1="496.24" y1="165.15" x2="492.23" y2="175.39"/><line class="cls-7" x1="504.76" y1="165.3" x2="511.78" y2="174.65"/><line class="cls-7" x1="508.27" y1="159.45" x2="521.13" y2="159.45"/><line class="cls-7" x1="489.15" y1="158.78" x2="477.11" y2="158.95"/><path class="cls-12" d="M428.75,120.86S410,108,396,108"/><circle class="cls-2" cx="384.32" cy="102.15" r="3.51"/><line class="cls-7" x1="390.19" y1="93.14" x2="398.33" y2="84.27"/><line class="cls-7" x1="383.15" y1="89.29" x2="383.15" y2="77.6"/><line class="cls-7" x1="374.96" y1="93.97" x2="364.44" y2="86.95"/><line class="cls-7" x1="385.49" y1="110.34" x2="391.33" y2="122.62"/><line class="cls-7" x1="378.47" y1="109.17" x2="371.45" y2="118.52"/><line class="cls-7" x1="373.79" y1="102.15" x2="360.93" y2="102.15"/><line class="cls-7" x1="395.25" y1="102.65" x2="407.29" y2="102.82"/><path class="cls-12" d="M427.58,175.82S408.87,163,394.84,163"/><circle class="cls-7" cx="383.15" cy="157.11" r="3.51"/><line class="cls-7" x1="389.02" y1="148.1" x2="397.16" y2="139.23"/><line class="cls-7" x1="381.98" y1="144.25" x2="381.98" y2="132.56"/><line class="cls-7" x1="373.79" y1="148.93" x2="363.27" y2="141.91"/><line class="cls-7" x1="384.32" y1="165.3" x2="390.16" y2="177.58"/><line class="cls-7" x1="377.3" y1="164.13" x2="370.29" y2="173.48"/><line class="cls-7" x1="372.62" y1="157.11" x2="359.76" y2="157.11"/><line class="cls-7" x1="394.09" y1="157.61" x2="406.12" y2="157.78"/><circle class="cls-2" cx="459.16" cy="193.36" r="12.86"/><circle class="cls-7" cx="469.68" cy="214.41" r="7.02"/><circle class="cls-2" cx="408.87" cy="216.75" r="7.02"/><circle class="cls-2" cx="419.4" cy="233.12" r="7.02"/><circle class="cls-7" cx="438.11" cy="243.64" r="7.02"/><circle class="cls-7" cx="434.6" cy="178.16" r="7.02"/><circle class="cls-7" cx="421.74" cy="201.55" r="9.35"/><circle class="cls-7" cx="449.8" cy="122.03" r="7.02"/><circle class="cls-2" cx="424.66" cy="151.85" r="12.28"/><circle class="cls-7" cx="460.91" cy="155.36" r="9.94"/><circle class="cls-7" cx="459.74" cy="241.89" r="9.94"/><circle class="cls-2" cx="453.89" cy="234.87" r="7.6"/><rect id="hidden" class="cls-13" x="350.18" y="38.96" width="187.32" height="218.72"/><g id="sign"><path class="cls-14" d="M470.73,66.85l-.63,13.5h-1.38l-.63-13.5ZM470.65,86h-2.47V82.88h2.47Z"/></g><rect id="hidden-2" data-name="hidden" class="cls-13" x="394.62" y="299.73" width="130.02" height="159.08"/><g id="sign-2" data-name="sign"><path class="cls-14" d="M456.7,306.57l-.63,13.5h-1.38l-.63-13.5Zm-.08,19.18h-2.47V322.6h2.47Z"/></g><rect id="hidden-3" data-name="hidden" class="cls-13" x="325.63" y="275.22" width="85.59" height="109.92"/><g id="sign-3" data-name="sign"><path class="cls-14" d="M391.22,279.67l-.63,13.5h-1.38l-.63-13.5Zm-.09,19.18h-2.47V295.7h2.47Z"/></g><g id="_trigger_gathering_" data-name="&lt;trigger_gathering&gt;"><path class="cls-15" d="M448.45,336.26s13,19.29,11.68,31.17c0,0-19.47,1.47-25.82-2.18,0,0,1.17-23,4.11-27.12C438.42,338.13,446.29,338,448.45,336.26Z"/><polygon class="cls-9" points="448.13 336.76 440.98 340.1 439.77 338.43 448.13 336.76"/><path class="cls-15" d="M438.7,347.35s-12.55-4.64-14.69-8.17c0,0,8.81,13,17.48,12.88"/><path class="cls-10" d="M460.22,367.79s-9.9,16.15-16.06,28.4l-5.15.86s-4.06-22.17-4.17-31.55"/><line class="cls-16" x1="439.37" y1="354.87" x2="439.26" y2="365.5"/><path class="cls-17" d="M439.81,327.49c-4.48-1.43-6-8.4,6.66-5.15,0,0,2.25-.57,2.26-.53.28,1.14,2.83,19.52,7.81,15.63,0,0-5.13,5-7.88,2.8L447,338.55l-7.16-10.95S439.85,327.5,439.81,327.49Z"/><path class="cls-9" d="M446.54,326a.15.15,0,0,0-.08-.16c-.81-.31-6.36-3-8.22,1.48-1.74,4.21-1.8,4.4-1.69,4.5l.05,0,2.13.84a.14.14,0,0,1,.09.14l-.4,5.4s8,.27,9.11-1.42-.23-6.39-.63-7.42a.14.14,0,0,1,.09-.18c.41-.13,1.59-.56,1.59-1.42,0-1-1.3-1.3-2.45-.26S446.41,326.59,446.54,326Z"/><circle class="cls-8" cx="440.76" cy="329.05" r="0.21"/><polyline class="cls-15" points="424.05 341.52 429.15 313.47 411.3 318.57 426.6 328.77"/><path class="cls-8" d="M411.69,363s.73-7.43,2.36-8.4l3.79-1s5.18-.18,6.14,2.25,2.61,5.74,2.61,5.74-1.51,2.8-.74,3.29-3.55,5.31-3.55,5.31L420.12,363l-2.71-2.24-3.53.25Z"/><path class="cls-9" d="M421.85,374.21s10.42,19.64,9.37,31.75c0,0-15.63,1.5-20.72-2.23,0,0,.94-23.39,3.3-27.62C413.8,376.11,420.11,376,421.85,374.21Z"/><path class="cls-10" d="M431.29,406.32s-7.94,16.45-12.89,28.93l-4.13.87S411,413.54,410.92,404"/><path class="cls-9" d="M419.86,360.84s-5.67-2.53-7.59,2.24S411,368,411,368l2.14.87L412.9,376s8.49,0,9.58-1.66-1.66-8.91-1.66-8.91,1.65-.41,1.64-1.44-1.23-1.27-2.33-.25S419.86,360.84,419.86,360.84Z"/><ellipse class="cls-8" cx="413.54" cy="365.64" rx="0.21" ry="0.22"/><path class="cls-11" d="M418.39,434.72v3.67s-6,2.16-9.41,0l4.49-2.79Z"/><path class="cls-9" d="M414.32,381.14s-2.11,13.33-5.05,16c0,0,10.64-10.92,9-19.59"/><path class="cls-8" d="M472.19,314.1s.69-7.13,2.26-8.06l3.63-1s5-.17,5.9,2.16,2.5,5.51,2.5,5.51-1.45,2.69-.71,3.15-3.41,5.1-3.41,5.1l-2.09-6.86-2.6-2.16-3.39.25Z"/><path class="cls-9" d="M481.93,324.9s10,18.84,9,30.46c0,0-15,1.44-19.88-2.13,0,0,.9-22.45,3.16-26.51C474.2,326.72,480.27,326.61,481.93,324.9Z"/><path class="cls-10" d="M491,355.71s-7.62,15.78-12.36,27.75l-4,.84s-3.12-21.67-3.21-30.83"/><path class="cls-9" d="M480,312.06s-5.43-2.43-7.28,2.16-1.21,4.69-1.21,4.69l2.05.83-.23,6.86s8.14,0,9.19-1.59-1.6-8.55-1.6-8.55,1.59-.4,1.58-1.38-1.19-1.23-2.24-.24S480,312.06,480,312.06Z"/><ellipse class="cls-8" cx="473.96" cy="316.67" rx="0.2" ry="0.21"/><path class="cls-11" d="M478.61,383v3.52s-5.78,2.08-9,0l4.31-2.68Z"/><path class="cls-9" d="M474.71,331.54s-2,12.8-4.85,15.4c0,0,10.21-10.48,8.62-18.8"/><path class="cls-11" d="M444.16,396.19v3.6s-6.3,2.13-9.85,0l4.7-2.74Z"/></g><g class="cls-6"><path class="cls-3" d="M612.51,375c-1.53-.89-3.65-.76-6,.58-4.64,2.68-8.38,9.16-8.36,14.49,0,2.65.94,4.51,2.45,5.39l7,4.08c-1.51-.88-2.44-2.74-2.45-5.39,0-5.33,3.73-11.81,8.36-14.48,2.34-1.35,4.45-1.48,6-.59Z"/><path class="cls-3" d="M613.55,379.63c4.64-2.68,8.41-.54,8.43,4.79s-3.74,11.82-8.37,14.49-8.4.53-8.42-4.8S608.92,382.3,613.55,379.63Z"/></g><g class="cls-6"><path class="cls-3" d="M543.36,416c-1.53-.89-3.65-.76-6,.59-4.64,2.67-8.38,9.15-8.36,14.48,0,2.65.94,4.51,2.45,5.39l7,4.08c-1.51-.87-2.44-2.74-2.45-5.39,0-5.32,3.73-11.8,8.36-14.48,2.34-1.35,4.45-1.47,6-.59Z"/><path class="cls-3" d="M544.4,420.62c4.64-2.68,8.41-.54,8.43,4.79s-3.74,11.82-8.37,14.5-8.4.52-8.42-4.81S539.77,423.3,544.4,420.62Z"/></g><path class="cls-7" d="M628.8,294.46,630,379.64l-7.4,4.09s-.78-11.12-8.77-8c-13,5.08-12.25,19.47-12.25,19.47l-48.9,26.2s-2.86-8-10-4.47c-7.53,3.71-9.15,16.07-9.15,16.07l-37.7,21.33s-5.94,3.16-9.44.46l7.8-85L581,306.13Z"/><polygon class="cls-7" points="451.42 413.48 461.93 413.48 486.43 428.65 489.97 430.4 489.93 447.32 450.26 419.32 451.42 413.48"/><path class="cls-3" d="M586.79,268.79l-120.2,70-18.67,35v53.74a8.27,8.27,0,0,0,4.05,7.11l32.92,19.58a4.21,4.21,0,0,0,6.36-3.53l1-52.4,17.5-33.84,119-70ZM487.6,435.66l-36.18-21V382l36.18,21Z"/><line class="cls-7" x1="466.59" y1="338.8" x2="493.43" y2="355.14"/><line class="cls-7" x1="447.92" y1="373.81" x2="480.6" y2="393.65"/><path class="cls-7" d="M497.58,369.16a4.94,4.94,0,0,0-1.92-6.39l-23-13.82a5,5,0,0,0-7.11,2.3l-8.75,16.92a5,5,0,0,0,2.05,6.22"/><g class="cls-6"><g class="cls-18"><path class="cls-14" d="M483.34,438.08l-.11-.05-6.5-3.3c0,.11-.05.25-.07.42a12.77,12.77,0,0,0-.13,1.73,9.74,9.74,0,0,0,.25,2.24,5.44,5.44,0,0,0,1,2,4.38,4.38,0,0,0,1.24,1.06,5.84,5.84,0,0,0,.56.28,4.07,4.07,0,0,0,2.95.21,4.63,4.63,0,0,0,2-1.44,1.14,1.14,0,0,0,.23-.75,3,3,0,0,0-.39-1.35,2.93,2.93,0,0,0-1-1.08"/><path class="cls-19" d="M483.23,438l.11.05a2.93,2.93,0,0,1,1,1.08,3,3,0,0,1,.39,1.35,1.14,1.14,0,0,1-.23.75,4.63,4.63,0,0,1-2,1.44,4.07,4.07,0,0,1-2.95-.21,5.84,5.84,0,0,1-.56-.28,4.38,4.38,0,0,1-1.24-1.06,5.44,5.44,0,0,1-1-2,9.74,9.74,0,0,1-.25-2.24,12.77,12.77,0,0,1,.13-1.73c0-.17,0-.31.07-.42l6.5,3.3m.11-.76-.16-.09h0l-6.76-3.42a.2.2,0,0,0-.33.12,13.22,13.22,0,0,0-.27,2.59,9.77,9.77,0,0,0,.57,3.43,6.85,6.85,0,0,0,1,1.74A5.51,5.51,0,0,0,479,443a5.64,5.64,0,0,0,.65.33,4.51,4.51,0,0,0,3.3.24,4.87,4.87,0,0,0,2.17-1.54,1.7,1.7,0,0,0,.35-1.13,4.38,4.38,0,0,0-.59-2,4.25,4.25,0,0,0-1.52-1.62"/></g></g><ellipse class="cls-7" cx="471.79" cy="420.49" rx="3.5" ry="6.42" transform="translate(-63.97 755.67) rotate(-73.74)"/><polygon class="cls-2" points="512.1 370.31 498.1 399.48 498.1 409.98 624.13 335.3 624.13 304.96 512.1 370.31"/><line class="cls-2" x1="533.76" y1="358.26" x2="533.11" y2="389.56"/><line class="cls-2" x1="564.61" y1="339.38" x2="564.61" y2="370.89"/><line class="cls-2" x1="596.12" y1="320.71" x2="596.12" y2="352.22"/><polyline class="cls-12" points="520.27 440.32 520.27 405.31 499.27 416.99 499.27 451.99"/><path class="cls-12" d="M628.8,341.13s-42,24.51-65.35,37.35S539,403.33,536.61,414.65c-2.06,9.66-2,9.93-11.67,18.67"/><g class="cls-6"><g class="cls-20"><path class="cls-14" d="M453.12,421.22l0,.39h0l-.09-.05a.77.77,0,0,0-.83-.07.8.8,0,0,0-.33.73,2,2,0,0,0,.19.84,19.77,19.77,0,0,0,1.7,3.19,10.86,10.86,0,0,0,2.5,2.72,4.78,4.78,0,0,0,.48.31,1.74,1.74,0,0,0,1,.31.8.8,0,0,0,.6-.37,4,4,0,0,0,.43-2.05,13,13,0,0,0-.16-2l-5.53-3.59,0-.39"/><path class="cls-19" d="M453,420.73a1.29,1.29,0,0,0-1.32-.11,1.34,1.34,0,0,0-.53,1.19,3.53,3.53,0,0,0,.31,1.36,20.68,20.68,0,0,0,1.85,3.47,12.31,12.31,0,0,0,2.85,3.08,5,5,0,0,0,.57.37,2.48,2.48,0,0,0,1.4.42,1.39,1.39,0,0,0,1.11-1,5.75,5.75,0,0,0,.26-1.9,13.79,13.79,0,0,0-.22-2.48.75.75,0,0,0-.32-.5l-5.8-3.76,0,.39,0-.39,0,.39,0,.39,5.53,3.59a13,13,0,0,1,.16,2,4,4,0,0,1-.43,2.05.8.8,0,0,1-.6.37,1.74,1.74,0,0,1-1-.31,4.78,4.78,0,0,1-.48-.31,10.86,10.86,0,0,1-2.5-2.72,19.77,19.77,0,0,1-1.7-3.19,2,2,0,0,1-.19-.84.8.8,0,0,1,.33-.73.77.77,0,0,1,.83.07l.09.05h0l0-.39,0-.39-.14-.09h0"/></g></g><path class="cls-3" d="M447.92,382l-7.3,3.66v8.52s1.22,4.87,4.87,2.44v-8.52l4.87-2.44"/><path class="cls-3" d="M490.53,405.1l-7.31,3.67v8.52s1.22,4.87,4.87,2.43V411.2l4.87-2.43"/></g><g id="_island_1_" data-name="&lt;island 1&gt;"><polygon class="cls-2" points="38.19 407.35 38.19 431.91 165.65 507.92 165.65 481.02 118.87 434.25 79.11 416.71 38.19 407.35"/><polygon class="cls-3" points="165.84 333.63 293.69 406.83 165.93 481.01 38.09 406.79 165.84 333.63"/><polygon class="cls-2" points="293.11 407.35 165.65 481.02 165.65 507.92 293.11 431.91 293.11 407.35"/><path class="cls-3" d="M157.46,399.92v19.4c0,20.61,63.15,30.13,73.28,3.59,0-.12,0-23,0-23l-53.81-6.87Z"/><ellipse class="cls-3" cx="194.1" cy="400.5" rx="36.64" ry="20.04"/><path class="cls-3" d="M163.31,391.3V401c0,17.67,56.24,22.11,62.81,1,0-.11,0-10.71,0-10.71L180,385.41Z"/><ellipse class="cls-3" cx="194.71" cy="391.79" rx="31.41" ry="17.17"/><ellipse class="cls-3" cx="194.71" cy="391.79" rx="28.62" ry="14.39"/><path class="cls-21" d="M168.59,397.55s28.63-19.43,51.57.7"/><g id="_trigger_move_" data-name="&lt;trigger_move&gt;"><path class="cls-3" d="M176.7,387.85a21.94,21.94,0,0,1-3.38,4.87c-1.87,1.88-3,7.5-3,7.5a5.07,5.07,0,0,0,4.49,3.75c3.75.37,9,1.5,10.12-1.13a17.23,17.23,0,0,0-3.75-8.62c-.37-.46-3.24-4.29-2.24-5.62l-1.5-1.12Z"/><path class="cls-3" d="M175.57,394.22a49.44,49.44,0,0,0-2.25,4.5"/><path class="cls-3" d="M177.45,393.47a22.64,22.64,0,0,1,0,7.12"/><path class="cls-3" d="M181.19,396.1c.15.28,1.36,3.71,1.13,4.87"/><path class="cls-3" d="M196.11,383.17a22.32,22.32,0,0,0,3.37,4.88c1.88,1.87,3,7.49,3,7.49a5.08,5.08,0,0,1-4.49,3.75c-3.75.37-9-.84-10.12-3.46,0,0,.37-3.33,3.74-7.46.38-.45,3.25-3.12,2.25-4.45l1.5-1.12Z"/><path class="cls-3" d="M197.24,389.54a48.69,48.69,0,0,1,2.24,4.5"/><path class="cls-3" d="M195.36,390c-.26,1.58-.49.16,0,3.62"/><path class="cls-3" d="M192.78,389.08c-.14.29-1.35,3.71-1.12,4.87"/><g id="_trigger_move_2" data-name="&lt;trigger_move&gt;"><path class="cls-3" d="M212.48,387.85a21.94,21.94,0,0,0,3.38,4.87c1.87,1.88,3,7.5,3,7.5a5.08,5.08,0,0,1-4.49,3.75c-3.75.37-9-.84-10.12-3.47,0,0,.37-3.32,3.74-7.45.38-.46,3.25-3.12,2.25-4.45l1.5-1.12Z"/><path class="cls-3" d="M213.61,394.22a49.44,49.44,0,0,1,2.25,4.5"/><path class="cls-3" d="M211.73,394.64c-.26,1.58-.49.16,0,3.61"/><path class="cls-3" d="M209.15,393.76c-.14.28-1.35,3.71-1.12,4.87"/></g></g><path class="cls-3" d="M194.71,374.61c-17.34,0-31.4,7.69-31.4,17.18S177.37,409,194.71,409s31.41-7.69,31.41-17.17S212.06,374.61,194.71,374.61Zm0,31.57c-15.51,0-28.62-6.59-28.62-14.39s13.11-14.4,28.62-14.4,28.63,6.6,28.63,14.4S210.23,406.18,194.71,406.18Z"/><g id="_trigger_move_3" data-name="&lt;trigger_move&gt;"><path class="cls-2" d="M136.6,395.7l-68-23.43,2.34-4.67,68.42,26.07s2.5,2.94,3,4.44"/><g id="_trigger_move_4" data-name="&lt;trigger_move&gt;"><path class="cls-3" d="M137.85,383.61a29.5,29.5,0,0,0,4.5,6.5c2.5,2.5,4,10,4,10a6.78,6.78,0,0,1-6,5c-5,.5-12-1.12-13.5-4.62,0,0,.5-4.44,5-9.94.5-.61,4.33-4.17,3-5.94l2-1.5Z"/><path class="cls-3" d="M136.85,392.67c-.35,2.1-.66.21,0,4.82"/><path class="cls-3" d="M133.41,391.49c-.19.38-1.81,4.95-1.5,6.5"/><path class="cls-3" d="M139.35,392.11a65.07,65.07,0,0,1,3,6"/></g><polygon id="_trigger_move_5" data-name="&lt;trigger_move&gt;" class="cls-2" points="139.99 403.42 65.08 398 66.25 392.15 139.04 402.34 139.99 403.42"/><path class="cls-3" d="M143.43,367.6s1.17,11.69,16.37,11.69A15,15,0,0,0,175,367.6"/><ellipse class="cls-3" cx="159.22" cy="367.6" rx="15.79" ry="7.02"/><path class="cls-19" d="M157.13,375.06a16,16,0,0,1,2.76-.13c.46,0,.9,0,1.35,0l.64-.16a11.18,11.18,0,0,1,2.71-.4c1.67-.36,3.32-.75,5-1.21l.78-1.12c-11.7-6-23.59-.19-23.59-.19l.41.78a11.78,11.78,0,0,1,3.41.39,12.71,12.71,0,0,1,3.85,1.89C155.32,375,156.22,375,157.13,375.06Z"/></g><g id="sign-4" data-name="sign"><path class="cls-14" d="M184.24,348.66l-.63,13.5h-1.38l-.63-13.5Zm-.08,19.19h-2.48v-3.16h2.48Z"/></g><rect id="hidden-4" data-name="hidden" class="cls-13" x="73.04" y="323.12" width="160.84" height="120.42"/></g></svg>