<svg xmlns="http://www.w3.org/2000/svg" xmlns:xlink="http://www.w3.org/1999/xlink" viewBox="0 0 614.2 529.39"><defs><style>.\31 467a0e0-7e34-48b4-bb75-612c51aba657,.\31 78e67e4-2a9d-45ba-b230-28d4f7fb239b,.\31 c9a6982-fa95-4e19-a806-8a88c27cab18,.\33 db7e172-2703-4c89-a392-a1ebb6ce50aa,.\38 888a597-7135-4415-bd48-2ab10dffbad4,.\38 a7a9328-db61-4870-a833-622a2ea1b7e8,.ccba7817-ab25-4d6f-817f-3ea0b31d941b{fill:none;}.\31 011ab57-1234-45e8-a2d5-29fb6bfa50be{isolation:isolate;}.\30 6787d85-93c7-48e9-9dbf-1b09609e3e44,.\31 24ff6ce-0895-401d-946d-7c4619753872,.\31 78e67e4-2a9d-45ba-b230-28d4f7fb239b,.\31 c9a6982-fa95-4e19-a806-8a88c27cab18,.\32 074782a-b6ee-4838-9dee-0a1614ea63ec,.\34 347f1b9-b339-4ace-b944-d777030ae4d0,.\35 7dbfa91-6dcc-4d3b-85ee-17ebaed4329a,.\36 5bfea67-4852-48c1-9030-d9cddf34bf9b,.\37 8bb270e-b0b5-4609-966d-e727b742c3cd,.\39 5848d1d-05a9-4c95-8a56-dcc2353c877b,.\39 8d4082e-6835-41dd-a7a3-c08bc6135b7c,.f6169f7f-a852-4b13-bcc6-78fd994775c1,.f8a83a70-5406-4dff-b553-4e7a9ac6c44b,.fa5af910-503e-49e7-bad0-adbde3cba4ed{stroke:#1a1a1a;}.\31 467a0e0-7e34-48b4-bb75-612c51aba657,.\31 78e67e4-2a9d-45ba-b230-28d4f7fb239b,.\31 c9a6982-fa95-4e19-a806-8a88c27cab18,.\36 5bfea67-4852-48c1-9030-d9cddf34bf9b,.\39 5848d1d-05a9-4c95-8a56-dcc2353c877b,.\39 8d4082e-6835-41dd-a7a3-c08bc6135b7c,.ccba7817-ab25-4d6f-817f-3ea0b31d941b,.fa5af910-503e-49e7-bad0-adbde3cba4ed{stroke-linecap:round;}.\31 467a0e0-7e34-48b4-bb75-612c51aba657,.\31 78e67e4-2a9d-45ba-b230-28d4f7fb239b,.\31 c9a6982-fa95-4e19-a806-8a88c27cab18,.\32 074782a-b6ee-4838-9dee-0a1614ea63ec,.\36 5bfea67-4852-48c1-9030-d9cddf34bf9b,.\39 5848d1d-05a9-4c95-8a56-dcc2353c877b,.\39 8d4082e-6835-41dd-a7a3-c08bc6135b7c,.ccba7817-ab25-4d6f-817f-3ea0b31d941b,.fa5af910-503e-49e7-bad0-adbde3cba4ed{stroke-linejoin:round;}.\30 6787d85-93c7-48e9-9dbf-1b09609e3e44,.\35 7dbfa91-6dcc-4d3b-85ee-17ebaed4329a,.\39 5848d1d-05a9-4c95-8a56-dcc2353c877b,.aabd2693-b0c3-4fe0-b2c4-3008ba483422,.cab721ee-dbea-4674-aad2-90925f3f9dcc,.fa5af910-503e-49e7-bad0-adbde3cba4ed{fill:#fff;}.\32 074782a-b6ee-4838-9dee-0a1614ea63ec,.\32 9250f4e-5624-4629-bd06-633b7f1bf2f3,.\34 347f1b9-b339-4ace-b944-d777030ae4d0,.\39 5d351a5-54c4-42cc-9241-8ce5aa2af554,.\39 8d4082e-6835-41dd-a7a3-c08bc6135b7c,.b886b63b-8ba7-486e-935a-ac797f344776,.f6169f7f-a852-4b13-bcc6-78fd994775c1{fill:#c92028;}.\30 6787d85-93c7-48e9-9dbf-1b09609e3e44,.\31 24ff6ce-0895-401d-946d-7c4619753872,.\34 347f1b9-b339-4ace-b944-d777030ae4d0,.\35 7dbfa91-6dcc-4d3b-85ee-17ebaed4329a,.\37 8bb270e-b0b5-4609-966d-e727b742c3cd,.\38 888a597-7135-4415-bd48-2ab10dffbad4,.\38 a7a9328-db61-4870-a833-622a2ea1b7e8,.\39 66d68df-e7d0-4aff-a7fd-92d17b4c341b,.b886b63b-8ba7-486e-935a-ac797f344776,.cab721ee-dbea-4674-aad2-90925f3f9dcc,.d43cdcb6-c7ad-40b3-a8b4-31eb56ede4a3,.f6169f7f-a852-4b13-bcc6-78fd994775c1,.f8a83a70-5406-4dff-b553-4e7a9ac6c44b{stroke-miterlimit:10;}.\31 24ff6ce-0895-401d-946d-7c4619753872,.\31 78e67e4-2a9d-45ba-b230-28d4f7fb239b,.\32 074782a-b6ee-4838-9dee-0a1614ea63ec,.\35 7dbfa91-6dcc-4d3b-85ee-17ebaed4329a,.\36 5bfea67-4852-48c1-9030-d9cddf34bf9b,.\37 8bb270e-b0b5-4609-966d-e727b742c3cd,.\39 5848d1d-05a9-4c95-8a56-dcc2353c877b,.f6169f7f-a852-4b13-bcc6-78fd994775c1,.f8a83a70-5406-4dff-b553-4e7a9ac6c44b{stroke-width:0.8px;}.\31 24ff6ce-0895-401d-946d-7c4619753872{fill:#ededed;}.\31 467a0e0-7e34-48b4-bb75-612c51aba657,.ccba7817-ab25-4d6f-817f-3ea0b31d941b{stroke:#c92028;}.\38 888a597-7135-4415-bd48-2ab10dffbad4,.ccba7817-ab25-4d6f-817f-3ea0b31d941b{stroke-width:0.75px;}.\31 467a0e0-7e34-48b4-bb75-612c51aba657{stroke-width:0.4px;}.\38 888a597-7135-4415-bd48-2ab10dffbad4{stroke:#e6e6e6;}.\36 5bfea67-4852-48c1-9030-d9cddf34bf9b,.\37 8bb270e-b0b5-4609-966d-e727b742c3cd{fill:#1a1a1a;}.d43cdcb6-c7ad-40b3-a8b4-31eb56ede4a3,.f8a83a70-5406-4dff-b553-4e7a9ac6c44b{fill:#fff5f6;}.\32 9250f4e-5624-4629-bd06-633b7f1bf2f3{mix-blend-mode:multiply;}.\38 a7a9328-db61-4870-a833-622a2ea1b7e8,.\39 66d68df-e7d0-4aff-a7fd-92d17b4c341b,.b886b63b-8ba7-486e-935a-ac797f344776,.cab721ee-dbea-4674-aad2-90925f3f9dcc,.d43cdcb6-c7ad-40b3-a8b4-31eb56ede4a3{stroke:#000;}.bca0c643-cfde-4c93-aaff-a34c9643f3bc{clip-path:url(#c23cdad9-b441-4677-936f-a45a3acbd5c1);}.\38 87dfdf5-3022-4b75-a87b-1d25762b25ec{clip-path:url(#c0b8af79-b433-44e4-be9c-76e759cb7c53);}.aabd2693-b0c3-4fe0-b2c4-3008ba483422{font-size:5.85px;font-family:CHei2HK-Bold-B5pc-H, CHei2HK;font-weight:700;}</style><clipPath id="c23cdad9-b441-4677-936f-a45a3acbd5c1"><polygon class="3db7e172-2703-4c89-a392-a1ebb6ce50aa" points="370.69 338.06 370.69 363.06 421.69 333.43 421.69 308.56 370.69 338.06"/></clipPath><clipPath id="c0b8af79-b433-44e4-be9c-76e759cb7c53"><polygon class="3db7e172-2703-4c89-a392-a1ebb6ce50aa" points="424.9 307.18 424.9 331.89 475.9 301.01 475.9 277.68 424.9 307.18"/></clipPath></defs><title>scene</title><g class="1011ab57-1234-45e8-a2d5-29fb6bfa50be"><g id="ba0c62f2-ed28-404f-b913-c738ef780472" data-name="圖層 1"><line class="1c9a6982-fa95-4e19-a806-8a88c27cab18" x1="384.45" y1="160.49" x2="384.45" y2="160.49"/><g id="680d5854-c39a-445a-b80d-24a3cf7d7611" data-name="island_3"><polygon class="fa5af910-503e-49e7-bad0-adbde3cba4ed" points="113.93 350.64 40.98 394.41 189.74 482.91 264.34 437.22 113.93 350.64"/><polygon class="98d4082e-6835-41dd-a7a3-c08bc6135b7c" points="40.98 394.41 40.98 410.4 189.96 500.33 189.74 482.91 40.98 394.41"/><polygon class="98d4082e-6835-41dd-a7a3-c08bc6135b7c" points="189.74 482.91 189.96 500.33 264.12 456.34 264.34 437.22 189.74 482.91"/><g id="49587341-be52-4bb9-b467-276f871e3b0f" data-name="trigger_sell_light"><g id="af19f3e2-7b27-4c40-85b5-4cd84d2776cf" data-name="light_shop"><polygon class="fa5af910-503e-49e7-bad0-adbde3cba4ed" points="159.69 343.98 155.27 378.93 210.86 411.62 215.8 376.38 159.69 343.98"/><polygon class="fa5af910-503e-49e7-bad0-adbde3cba4ed" points="134.91 390.68 155.27 378.93 210.86 411.62 190.68 423.28 134.91 390.68"/><polygon class="fa5af910-503e-49e7-bad0-adbde3cba4ed" points="215.8 376.38 159.69 343.98 162.88 342.13 219.81 374.06 215.8 376.38"/><polygon class="98d4082e-6835-41dd-a7a3-c08bc6135b7c" points="219.81 374.44 219.81 438.86 190.74 455.64 190.74 423.28 210.86 411.62 215.8 376.38 219.81 374.44"/><polygon class="fa5af910-503e-49e7-bad0-adbde3cba4ed" points="134.91 390.68 134.99 422.15 190.82 455.34 190.74 423.28 134.91 390.68"/><rect class="fa5af910-503e-49e7-bad0-adbde3cba4ed" x="164.59" y="354.83" width="2.83" height="23.2" transform="translate(136.93 -34.8) rotate(20.23)"/><rect class="98d4082e-6835-41dd-a7a3-c08bc6135b7c" x="172.38" y="360.3" width="2.83" height="23.2" transform="translate(86.7 -29.26) rotate(12.8)"/><rect class="98d4082e-6835-41dd-a7a3-c08bc6135b7c" x="181.42" y="366.2" width="2.83" height="23.2" transform="translate(274.54 -31.78) rotate(38.44)"/><rect class="fa5af910-503e-49e7-bad0-adbde3cba4ed" x="191.04" y="371.48" width="2.83" height="23.2" transform="translate(49.02 -20.92) rotate(7.13)"/><rect class="fa5af910-503e-49e7-bad0-adbde3cba4ed" x="202.54" y="379.08" width="2.83" height="23.2" transform="translate(50.05 -22.29) rotate(7.13)"/><polygon class="fa5af910-503e-49e7-bad0-adbde3cba4ed" points="163.31 404.06 178.56 412.87 193.82 404.06 178.56 395.25 163.31 404.06"/><g id="a61d3407-a6f6-4c68-bdc1-875e0a70466a" data-name="cdbox"><polygon class="57dbfa91-6dcc-4d3b-85ee-17ebaed4329a" points="146.28 389.49 159.58 397.17 172.88 389.49 159.54 381.79 146.28 389.49"/><polygon class="124ff6ce-0895-401d-946d-7c4619753872" points="146.28 393.33 146.28 389.49 159.58 397.17 159.58 401.01 146.28 393.33"/><polygon class="f6169f7f-a852-4b13-bcc6-78fd994775c1" points="172.88 389.49 159.58 397.17 159.58 401.01 172.88 393.33 172.88 389.49"/><path class="57dbfa91-6dcc-4d3b-85ee-17ebaed4329a" d="M166.1,386.95c2.52,2.11,1.67,4.87-1.89,6.17s-8.49.64-11-1.47-1.67-4.87,1.89-6.17S163.58,384.84,166.1,386.95Z"/><path class="f6169f7f-a852-4b13-bcc6-78fd994775c1" d="M160.88,388.85c.48.4.32.93-.36,1.18a2.35,2.35,0,0,1-2.1-.28c-.48-.4-.32-.93.36-1.18A2.35,2.35,0,0,1,160.88,388.85Z"/></g><ellipse class="fa5af910-503e-49e7-bad0-adbde3cba4ed" cx="187.33" cy="415.05" rx="2.18" ry="2.8" transform="matrix(0.59, -0.81, 0.81, 0.59, -258.74, 323.52)"/><ellipse class="fa5af910-503e-49e7-bad0-adbde3cba4ed" cx="195.56" cy="413.38" rx="2.18" ry="2.8" transform="matrix(0.59, -0.81, 0.81, 0.59, -253.98, 329.49)"/><ellipse class="ccba7817-ab25-4d6f-817f-3ea0b31d941b" cx="195.56" cy="410.96" rx="2.18" ry="2.8" transform="matrix(0.59, -0.81, 0.81, 0.59, -252.03, 328.49)"/><path class="1c9a6982-fa95-4e19-a806-8a88c27cab18" d="M177.3,399.53s3.76-3.79,6.16.32-2,4.79-4,3.88S175.95,400.53,177.3,399.53Z"/><path class="1c9a6982-fa95-4e19-a806-8a88c27cab18" d="M177.6,402.22s-8-.74-11,3.73l10.32,5.68s-.14-4.53,2.24-4.73a2.56,2.56,0,0,0,2.38-2.57"/><line class="1c9a6982-fa95-4e19-a806-8a88c27cab18" x1="179.04" y1="400.09" x2="179.23" y2="400.12"/><path class="1467a0e0-7e34-48b4-bb75-612c51aba657" d="M172.09,406a.35.35,0,0,1-.06-.42.73.73,0,0,1,.34-.3.24.24,0,0,1,.18,0,.26.26,0,0,1,.12.12l1,1.55c.06.09.13.19.24.2s.22-.11.26-.23a1,1,0,0,0-.06-.79.54.54,0,0,0-.53-.31c-.21,0-.33.37-.15.49a.09.09,0,0,0,0-.16,1.76,1.76,0,0,0,.34.7.37.37,0,0,0,.5.12.23.23,0,0,0,0,.24l.68-.59-.06.94a15.14,15.14,0,0,1,0-1.56,7.82,7.82,0,0,1,1.1,2.42,3.22,3.22,0,0,1,1.88-1.5,7.92,7.92,0,0,1-1.51,1.66,8.18,8.18,0,0,1,2.15-.51,8.23,8.23,0,0,0-1.76-.13.75.75,0,0,0,.74.24,2.2,2.2,0,0,0,.74-.35.78.78,0,0,1-.4,0,.27.27,0,0,1-.21-.3.39.39,0,0,1,.09-.15l1.07-1.26a4.08,4.08,0,0,0-.23,1.79.32.32,0,0,0,.12.26c.14.08.29-.06.39-.18a1.57,1.57,0,0,1,.94-.46,1.52,1.52,0,0,1-.4.91.48.48,0,0,1,.12-.67,1.38,1.38,0,0,1,.73-.2l2-.16a9.93,9.93,0,0,1,1.92,0c.15,0,.34.09.33.24"/><polyline class="fa5af910-503e-49e7-bad0-adbde3cba4ed" points="178.16 399.06 175.85 400.76 178.39 402.47"/><g id="a674cb48-93ff-4a8e-8485-6497b0fcc1b7" data-name="box"><polygon class="98d4082e-6835-41dd-a7a3-c08bc6135b7c" points="155.88 418.95 182.92 434.64 182.92 456.72 155.27 440.8 155.88 418.95"/><polygon class="98d4082e-6835-41dd-a7a3-c08bc6135b7c" points="187.38 454.28 182.92 456.72 182.92 434.64 187.38 431.48 187.38 454.28"/><polygon class="98d4082e-6835-41dd-a7a3-c08bc6135b7c" points="155.88 418.95 160.42 416.32 187.38 431.48 182.92 434.64 155.88 418.95"/></g></g><rect id="54550721-7b68-4d63-965a-3ebe25061641" data-name="hidden" class="8888a597-7135-4415-bd48-2ab10dffbad4" x="90.2" y="329.89" width="137.73" height="133.98"/><g id="ab1272b4-debf-4f84-9685-32c5aae7a2f9" data-name="sign"><path class="95d351a5-54c4-42cc-9241-8ce5aa2af554" d="M100.08,335.27l-.54,11.55H98.36l-.54-11.55ZM100,351.68H97.9V349H100Z"/></g><path class="65bfea67-4852-48c1-9030-d9cddf34bf9b" d="M106.83,396.78s7.14,13.06,11.58,23l3.71.7s2.93-17.93,3-25.51"/><path class="1c9a6982-fa95-4e19-a806-8a88c27cab18" d="M117.52,420.43v3.5s5.76,2.07,9,0l-4.29-2.67Z"/><g id="ffb998c1-51e0-445a-aa8e-4e1a8889293b" data-name="people_upper"><path class="f8a83a70-5406-4dff-b553-4e7a9ac6c44b" d="M123.82,360.64s4.75-2.85,1.69-5.73-4.75-1.37-3.78-.5-5.41-4.73-6.16-1.18c0,0-5.5-.19-5.12,3.5,0,0-4.87,4.45-1.5,6.57,0,0-1.23,4.46,2.2,3.61,0,0,1,2.53,2.64,1"/><path class="95848d1d-05a9-4c95-8a56-dcc2353c877b" d="M115.32,371.29s-12.11,9.18-8.42,25.2c0,0,14,1.19,18.62-1.76,0,0-.84-18.57-3-21.93C122.55,372.79,116.88,372.71,115.32,371.29Z"/><path class="95848d1d-05a9-4c95-8a56-dcc2353c877b" d="M116.56,358.49s5.42-2.42,7.26,2.15,1.2,4.68,1.2,4.68l-2,.83.24,6.84s-8.12,0-9.17-1.59,1.6-8.53,1.6-8.53-1.58-.39-1.58-1.37,1.19-1.22,2.23-.24S116.56,358.49,116.56,358.49Z"/><ellipse class="57dbfa91-6dcc-4d3b-85ee-17ebaed4329a" cx="122.21" cy="361.7" rx="0.2" ry="0.21"/><polyline class="95848d1d-05a9-4c95-8a56-dcc2353c877b" points="113.69 374.06 121.73 375.91 122.61 373.64"/><g id="7530b6fb-3b1c-4c5d-8fca-b23bb41b3df6" data-name="hand"><rect class="98d4082e-6835-41dd-a7a3-c08bc6135b7c" x="135.31" y="363.39" width="2.5" height="20.5" transform="translate(86.16 -20.97) rotate(12.8)"/><rect class="fa5af910-503e-49e7-bad0-adbde3cba4ed" x="129.95" y="363.45" width="2.5" height="20.5" transform="translate(-37.38 15.31) rotate(-5.85)"/><path class="95848d1d-05a9-4c95-8a56-dcc2353c877b" d="M121.38,377.8s11.65,5.56,15.39,4.71c0,0-14.38,2.47-20.32-3.54"/></g></g></g></g><g id="7e4b44d5-789a-4291-a3d5-8424c94d9aac" data-name="island_1"><polygon class="fa5af910-503e-49e7-bad0-adbde3cba4ed" points="22.35 230.21 262.72 91.44 433.51 192.92 296.45 269.77 330.72 289.55 227.93 348.9 22.35 230.21"/><ellipse class="fa5af910-503e-49e7-bad0-adbde3cba4ed" cx="293.42" cy="184.9" rx="88.55" ry="47.18"/><ellipse class="1c9a6982-fa95-4e19-a806-8a88c27cab18" cx="293.42" cy="176.54" rx="92.24" ry="49.15"/><ellipse class="1c9a6982-fa95-4e19-a806-8a88c27cab18" cx="293.42" cy="157.63" rx="104.11" ry="55.47"/><ellipse class="1c9a6982-fa95-4e19-a806-8a88c27cab18" cx="293.42" cy="149.3" rx="106.08" ry="56.52"/><path class="fa5af910-503e-49e7-bad0-adbde3cba4ed" d="M115.18,203v32.64l73.26-40.55V160.5S141.89,158.69,115.18,203Z"/><path class="fa5af910-503e-49e7-bad0-adbde3cba4ed" d="M198.21,161.47s-56.84,0-84.46,55.77L56.9,184.42s29.37-53.75,84.94-56Z"/><path class="98d4082e-6835-41dd-a7a3-c08bc6135b7c" d="M197.48,156.09S141.37,144.87,109.78,219L52.94,186.21S86.28,114.08,141.12,123Z"/><polygon class="fa5af910-503e-49e7-bad0-adbde3cba4ed" points="174.1 112.21 174.1 121.32 239.05 158.82 242.11 147.13 174.1 112.21"/><path class="98d4082e-6835-41dd-a7a3-c08bc6135b7c" d="M417.62,107.68h0l-.11-.36a40.37,40.37,0,0,0-2-5.64C408,83.33,378.41,29.28,290.42,29.28c-73.87,0-104.25,41.38-115.89,66.45a41.1,41.1,0,0,0-6.25,16.64c32.19-6.26,74.9,6.41,74.9,6.41-10.71,3.57-4.93,38.2-4.93,38.2l-2.49,7.65-4.62,1v9.43a215,215,0,0,0,62.28,8.83c69.29,0,125.46-29.93,125.46-66.85A36.69,36.69,0,0,0,417.62,107.68Z"/><path class="1c9a6982-fa95-4e19-a806-8a88c27cab18" d="M417.62,102.6h0l-.11-.34a36.19,36.19,0,0,0-2-5.28c-7.51-17.15-37.09-67.7-125.08-67.7-73.87,0-104.25,38.7-115.89,62.15a36.44,36.44,0,0,0-6.42,16.82c-.11.44-.16.69-.16.69h.13c-.06.82-.13,1.64-.13,2.47,0,.34,0,.68.05,1,32.22-6.39,75.17,6.36,75.17,6.36-10.71,3.57-4.93,38.2-4.93,38.2l-2.49,7.65-4.58,1a228.93,228.93,0,0,0,62.24,8.24c69.29,0,125.46-28,125.46-62.52A32.23,32.23,0,0,0,417.62,102.6Z"/><path class="fa5af910-503e-49e7-bad0-adbde3cba4ed" d="M409.33,101.55h0l-.1-.34a37.66,37.66,0,0,0-1.91-5.27c-7-17.12-34.61-67.56-116.73-67.56-68.93,0-97.29,38.62-108.15,62a37.91,37.91,0,0,0-6,16.78c-.1.44-.15.68-.15.68h.12c-.06.82-.12,1.64-.12,2.46,0,.29,0,.58,0,.86,30.81-3.1,66.81,7.59,66.81,7.59-10.71,3.57-4.93,38.2-4.93,38.2l-2.49,7.63a201,201,0,0,0,57.66,8.1c64.67,0,117.09-27.93,117.09-62.38A34.24,34.24,0,0,0,409.33,101.55Z"/><path class="98d4082e-6835-41dd-a7a3-c08bc6135b7c" d="M244.63,118.49h0l-.09,0-.36-.1h0l-.13,0h0c-5.67-1.58-33.39-8.84-58.92-7.37v0l-.27,0-.35,0-2.34.18-.37,0-.28,0-.77.07v0l-.62.07-1.36.15-1.63.23-1.36.19-1.59.28-1.23.22,66.39,34.7c-.07-.74-.13-1.5-.19-2.29v-.17c0-.47-.07-1-.09-1.44v-.09c0-.47-.05-1-.08-1.44v-.14c0-.49,0-1-.06-1.49v-.12q0-.79,0-1.58v-.06q0-.76,0-1.53s0-.08,0-.12q0-.78,0-1.55s0-.07,0-.1c0-.5,0-1,.06-1.5,0,0,0-.09,0-.13,0-.49.06-1,.1-1.46v-.15c0-.44.08-.87.13-1.3,0-.09,0-.18,0-.27.05-.43.11-.85.17-1.27,0-.08,0-.17,0-.25.07-.43.14-.85.23-1.27l0-.2c.08-.38.16-.75.25-1.11,0-.09,0-.19.07-.29.09-.36.2-.7.3-1,0-.09.05-.19.08-.27.11-.33.23-.64.35-1,0-.09.06-.18.1-.27.12-.29.25-.55.38-.82,0-.09.09-.2.13-.29.13-.25.28-.48.42-.71s.11-.19.17-.28.31-.42.47-.62.12-.17.19-.25a6.71,6.71,0,0,1,.52-.5c.08-.07.15-.16.23-.22a5.74,5.74,0,0,1,.59-.41c.08-.05.16-.12.24-.17a5.31,5.31,0,0,1,.92-.41Z"/><path class="98d4082e-6835-41dd-a7a3-c08bc6135b7c" d="M405.45,95.85h0l-.1-.33a36.4,36.4,0,0,0-1.84-5.09c-6.77-16.54-33.45-65.3-112.82-65.3-66.63,0-94,37.32-104.53,59.94a36.64,36.64,0,0,0-5.79,16.22c-.1.42-.14.66-.14.66h.11c-.06.79-.11,1.58-.11,2.38a32.89,32.89,0,0,0,.66,6.49c29.69-1.72,62.27,8,62.27,8-10.69,3.56-5,38-4.93,38.19a194.65,194.65,0,0,0,55.17,7.65c62.5,0,113.17-27,113.17-60.3A33.09,33.09,0,0,0,405.45,95.85Z"/><polygon class="fa5af910-503e-49e7-bad0-adbde3cba4ed" points="218.27 212.3 166.67 238.46 137.86 221.06 115.18 232.15 115.18 240.81 137.91 230.11 166.73 247.56 218.27 220.56 218.27 212.3"/><path class="fa5af910-503e-49e7-bad0-adbde3cba4ed" d="M52.94,186.21A47.76,47.76,0,0,0,67.18,212.3l48,28.51"/><g id="1fe482d7-7467-4b77-82ea-80838365df63" data-name="trigger_sell"><path class="fa5af910-503e-49e7-bad0-adbde3cba4ed" d="M169.67,219.54V245.8l46-26.27V191.7S178.19,190.25,169.67,219.54Z"/><path class="fa5af910-503e-49e7-bad0-adbde3cba4ed" d="M220.29,191.37s-36.22,0-54.33,31.37l-36.22-20.91s19.22-30.08,54.63-31.54Z"/><path class="98d4082e-6835-41dd-a7a3-c08bc6135b7c" d="M219.82,187.94s-35.76-7.15-54.1,34.66l-36.22-20.91s19.45-40.52,54.4-34.84Z"/><path class="fa5af910-503e-49e7-bad0-adbde3cba4ed" d="M129.51,201.69s1.85,11.83,8.35,19.37l28.81,17.4s-4.36-9-.94-15.86Z"/><rect id="6b0eec42-3e06-4685-8a77-2bcdd38e786b" data-name="hidden" class="8888a597-7135-4415-bd48-2ab10dffbad4" x="133.24" y="164.86" width="85.61" height="65.02"/><g id="f63cd7d8-69d6-44a8-95ed-5615b3b84d8e" data-name="sign"><path class="95d351a5-54c4-42cc-9241-8ce5aa2af554" d="M206,196.8l-.54,11.55h-1.18l-.54-11.55Zm-.07,16.41h-2.11v-2.7h2.11Z"/></g></g><line class="1c9a6982-fa95-4e19-a806-8a88c27cab18" x1="242.11" y1="174.93" x2="253.79" y2="227.1"/><line class="1c9a6982-fa95-4e19-a806-8a88c27cab18" x1="289.55" y1="181.03" x2="288.17" y2="229.93"/><line class="1c9a6982-fa95-4e19-a806-8a88c27cab18" x1="326.67" y1="178.56" x2="322.86" y2="231.49"/><line class="1c9a6982-fa95-4e19-a806-8a88c27cab18" x1="359.31" y1="171.38" x2="352.59" y2="220.08"/><line class="1c9a6982-fa95-4e19-a806-8a88c27cab18" x1="384.45" y1="160.49" x2="373.53" y2="205.02"/><line class="1c9a6982-fa95-4e19-a806-8a88c27cab18" x1="202.97" y1="137.99" x2="228.95" y2="217.24"/><polygon class="98d4082e-6835-41dd-a7a3-c08bc6135b7c" points="22.35 249.11 22.35 230.21 227.93 348.9 227.93 368.79 22.35 249.11"/><polygon class="98d4082e-6835-41dd-a7a3-c08bc6135b7c" points="227.93 368.79 331.6 308.81 330.72 289.55 227.93 348.9 227.93 368.79"/><polygon class="98d4082e-6835-41dd-a7a3-c08bc6135b7c" points="433.51 192.92 433.51 209.65 313.53 279.63 296.45 269.77 433.51 192.92"/><line class="1c9a6982-fa95-4e19-a806-8a88c27cab18" x1="137.86" y1="221.06" x2="137.86" y2="230.11"/><line class="1c9a6982-fa95-4e19-a806-8a88c27cab18" x1="166.73" y1="247.56" x2="166.73" y2="238.46"/><line class="1c9a6982-fa95-4e19-a806-8a88c27cab18" x1="215.65" y1="210.84" x2="165.59" y2="235.64"/><line class="1c9a6982-fa95-4e19-a806-8a88c27cab18" x1="177.12" y1="229.93" x2="177.12" y2="232.97"/><line class="1c9a6982-fa95-4e19-a806-8a88c27cab18" x1="179.13" y1="229.93" x2="179.13" y2="232.08"/><line class="1c9a6982-fa95-4e19-a806-8a88c27cab18" x1="192.66" y1="223.24" x2="192.66" y2="225.28"/><line class="1c9a6982-fa95-4e19-a806-8a88c27cab18" x1="194.76" y1="221.19" x2="194.76" y2="224.26"/><line class="1c9a6982-fa95-4e19-a806-8a88c27cab18" x1="208.34" y1="214.46" x2="208.34" y2="217.24"/><line class="1c9a6982-fa95-4e19-a806-8a88c27cab18" x1="211.09" y1="213.1" x2="211.09" y2="215.85"/><path class="f6169f7f-a852-4b13-bcc6-78fd994775c1" d="M131.33,235.87s-5,12.93-2.2,14.2,10.2.88,9.86-4.58a35.54,35.54,0,0,0-2.5-10.46Z"/><ellipse class="06787d85-93c7-48e9-9dbf-1b09609e3e44" cx="133.65" cy="232.49" rx="4.83" ry="5.16"/><ellipse class="57dbfa91-6dcc-4d3b-85ee-17ebaed4329a" cx="132.14" cy="230.37" rx="0.19" ry="0.2"/><path class="57dbfa91-6dcc-4d3b-85ee-17ebaed4329a" d="M138.48,248s-4.63,7.14-6,10.78H131.2l-2.85-9.15S134.82,250.17,138.48,248Z"/><path class="57dbfa91-6dcc-4d3b-85ee-17ebaed4329a" d="M132.65,258.75v1.92h-3.45s-1.88-1.06,0-1.92,2.12,0,2.12,0Z"/><path class="f6169f7f-a852-4b13-bcc6-78fd994775c1" d="M132,239.23s-5.57-4.78-6-6.2,2.28,8,5.41,8"/><polygon class="65bfea67-4852-48c1-9030-d9cddf34bf9b" points="132.33 227.33 133.65 225.35 139.44 227.33 141.75 232.49 140.69 235.29 136.44 235.16 136.44 232.49 134.19 229.6 132.33 227.33"/><g id="2b3b63aa-f8fb-472a-bf49-9985450890f0" data-name="trigger_peoples"><g id="96b569d5-7603-475e-acc0-12e9d0ed403b" data-name="people3"><path class="95848d1d-05a9-4c95-8a56-dcc2353c877b" d="M247.49,228.62s5.23-2.54,7,2.26,1.16,4.92,1.16,4.92l-2,.87.23,7.2s-7.84,0-8.85-1.67,1.54-9,1.54-9-1.53-.41-1.52-1.44,1.14-1.29,2.15-.26S247.49,228.62,247.49,228.62Z"/><ellipse class="57dbfa91-6dcc-4d3b-85ee-17ebaed4329a" cx="252.17" cy="231.27" rx="0.19" ry="0.21"/><path class="78bb270e-b0b5-4609-966d-e727b742c3cd" d="M253.43,228.82s-1.12-4.61-2.35-5.05l-.68.88s-3.82-.74-4.55.37a10.91,10.91,0,0,1-1.89,2.06s.58,2.87,0,3.09,3.38,1.9,3.38,1.9l-.26-3.25,2-1,2.66.12Z"/><path class="95848d1d-05a9-4c95-8a56-dcc2353c877b" d="M245.07,241.67s-11.45,18.79-10.3,30.37c0,0,17.18,1.44,22.77-2.12,0,0-1-22.38-3.62-26.43C253.92,243.49,247,243.38,245.07,241.67Z"/><path class="65bfea67-4852-48c1-9030-d9cddf34bf9b" d="M234.69,272.39s8.73,15.74,14.17,27.68l4.54.84s3.58-21.61,3.68-30.75"/><path class="1c9a6982-fa95-4e19-a806-8a88c27cab18" d="M248.85,300.07v3.5s5.56,2.07,8.68,0l-4.14-2.67Z"/><rect class="29250f4e-5624-4629-bd06-633b7f1bf2f3" x="244.57" y="229.27" width="3.08" height="1.4" rx="0.67" ry="0.67"/><path class="95848d1d-05a9-4c95-8a56-dcc2353c877b" d="M253.16,248s4.82,11.91,8.05,13.76c0,0-11.95-7.73-12.36-16.16"/></g><g id="f6f55425-c1aa-4dc9-9030-9619a04158da" data-name="people2"><path class="95848d1d-05a9-4c95-8a56-dcc2353c877b" d="M227.89,240.46s-5.23-2.54-7,2.26-1.16,4.92-1.16,4.92l2,.87-.23,7.2s7.84,0,8.85-1.67-1.54-9-1.54-9,1.53-.41,1.52-1.44-1.14-1.29-2.15-.26S227.89,240.46,227.89,240.46Z"/><ellipse class="57dbfa91-6dcc-4d3b-85ee-17ebaed4329a" cx="223.21" cy="243.12" rx="0.19" ry="0.21"/><path class="78bb270e-b0b5-4609-966d-e727b742c3cd" d="M222,240.66s1.12-4.61,2.35-5.05l.68.88s3.82-.74,4.55.37a10.91,10.91,0,0,0,1.89,2.06s-.58,2.87,0,3.09-3.38,1.9-3.38,1.9l.26-3.25-2-1-2.66.12Z"/><path class="95848d1d-05a9-4c95-8a56-dcc2353c877b" d="M230.31,253.51s11.45,18.79,10.3,30.37c0,0-17.18,1.44-22.77-2.12,0,0,1-22.38,3.62-26.43C221.46,255.33,228.4,255.22,230.31,253.51Z"/><path class="65bfea67-4852-48c1-9030-d9cddf34bf9b" d="M240.69,284.24S232,300,226.53,311.92l-4.54.84s-3.58-21.61-3.68-30.75"/><path class="1c9a6982-fa95-4e19-a806-8a88c27cab18" d="M226.53,311.92v3.5s-5.56,2.07-8.68,0l4.14-2.67Z"/><rect class="29250f4e-5624-4629-bd06-633b7f1bf2f3" x="227.73" y="241.11" width="3.08" height="1.4" rx="0.67" ry="0.67" transform="translate(458.53 483.62) rotate(-180)"/><g id="1aed149f-b4ed-4f83-b788-6af58aaf220e" data-name="hand"><polygon class="fa5af910-503e-49e7-bad0-adbde3cba4ed" points="209.8 283.13 224.84 279.11 228.87 264.07 213.83 268.1 209.8 283.13"/><path class="1c9a6982-fa95-4e19-a806-8a88c27cab18" d="M215.71,271.56s0-4.72,4.05-3.65,1.71,4.27-.09,4.94S215.5,273,215.71,271.56Z"/><path class="1c9a6982-fa95-4e19-a806-8a88c27cab18" d="M217.59,273.05s-5.49,4.56-4.56,9.22l10-2.9s-2.92-2.74-1.55-4.35a2.26,2.26,0,0,0-.12-3.09"/><line class="1c9a6982-fa95-4e19-a806-8a88c27cab18" x1="217.16" y1="270.83" x2="217.29" y2="270.73"/><path class="1467a0e0-7e34-48b4-bb75-612c51aba657" d="M216.5,278.86a.31.31,0,0,1-.3-.23.64.64,0,0,1,0-.4.21.21,0,0,1,.09-.13.23.23,0,0,1,.15,0l1.57.37a.31.31,0,0,0,.27,0,.27.27,0,0,0,0-.31.84.84,0,0,0-.53-.45.48.48,0,0,0-.52.14c-.11.16,0,.44.21.4a.08.08,0,0,0-.12-.08,1.56,1.56,0,0,0,.65.22.33.33,0,0,0,.38-.24.2.2,0,0,0,.18.12l.06-.8.55.63a13.38,13.38,0,0,1-1-1,6.91,6.91,0,0,1,2.2.83,2.85,2.85,0,0,1,.24-2.12,7,7,0,0,1,.09,2,7.23,7.23,0,0,1,1-1.66,7.27,7.27,0,0,0-1.18,1,.66.66,0,0,0,.62-.31,1.94,1.94,0,0,0,.25-.68.69.69,0,0,1-.23.27.24.24,0,0,1-.32-.05.35.35,0,0,1,0-.15l-.12-1.46a3.6,3.6,0,0,0,1,1.26.28.28,0,0,0,.24.09c.13,0,.14-.22.14-.36a1.38,1.38,0,0,1,.31-.87,1.34,1.34,0,0,1,.32.82.42.42,0,0,1-.34-.5,1.22,1.22,0,0,1,.33-.58l1.16-1.35a8.78,8.78,0,0,1,1.19-1.22c.1-.08.27-.16.35-.05"/><polyline class="fa5af910-503e-49e7-bad0-adbde3cba4ed" points="215.96 270.73 215.58 273.24 218.24 272.72"/><path class="95848d1d-05a9-4c95-8a56-dcc2353c877b" d="M222.22,259.84s-4.82,11.91-8.05,13.76c0,0,11.95-7.73,12.36-16.16"/></g></g><g id="053e459a-4e39-43c9-9a0e-021510da8f6e" data-name="people1"><path class="95848d1d-05a9-4c95-8a56-dcc2353c877b" d="M184.22,222.59s5.23-2.54,7,2.26,1.16,4.92,1.16,4.92l-2,.87.23,7.2s-7.84,0-8.85-1.67,1.54-9,1.54-9-1.53-.41-1.52-1.44,1.14-1.29,2.15-.26S184.22,222.59,184.22,222.59Z"/><ellipse class="57dbfa91-6dcc-4d3b-85ee-17ebaed4329a" cx="188.9" cy="225.25" rx="0.19" ry="0.21"/><path class="78bb270e-b0b5-4609-966d-e727b742c3cd" d="M190.16,222.79s-1.12-4.61-2.35-5.05l-.68.88s-3.82-.74-4.55.37A10.91,10.91,0,0,1,180.7,221s.58,2.87,0,3.09,3.38,1.9,3.38,1.9l-.26-3.25,2-1,2.66.12Z"/><path class="95848d1d-05a9-4c95-8a56-dcc2353c877b" d="M181.8,235.64S170.34,254.44,171.5,266c0,0,17.18,1.44,22.77-2.12,0,0-1-22.38-3.62-26.43C190.65,237.46,183.7,237.35,181.8,235.64Z"/><path class="65bfea67-4852-48c1-9030-d9cddf34bf9b" d="M171.42,266.37s8.73,15.74,14.17,27.68l4.54.84s3.58-21.61,3.68-30.75"/><path class="1c9a6982-fa95-4e19-a806-8a88c27cab18" d="M185.58,294v3.5s5.56,2.07,8.68,0l-4.14-2.67Z"/><rect class="29250f4e-5624-4629-bd06-633b7f1bf2f3" x="181.3" y="223.24" width="3.08" height="1.4" rx="0.67" ry="0.67"/><path class="95848d1d-05a9-4c95-8a56-dcc2353c877b" d="M189.89,242s4.82,11.91,8.05,13.76c0,0-11.95-7.73-12.36-16.16"/></g><g id="e147b170-8387-4c3a-8c33-5b83a0750589" data-name="people4"><path class="2074782a-b6ee-4838-9dee-0a1614ea63ec" d="M280.64,233.58s-11.42,18.16-10.27,29.35c0,0,17.12,1.39,22.7-2.05,0,0-1-21.63-3.61-25.54C289.47,235.34,282.54,235.24,280.64,233.58Z"/><polygon class="95848d1d-05a9-4c95-8a56-dcc2353c877b" points="280.93 234.06 287.22 237.19 288.28 235.63 280.93 234.06"/><path class="2074782a-b6ee-4838-9dee-0a1614ea63ec" d="M285.13,240.19s8.27,9,11.88,9.43c0,0-13.6-2.51-16.66-10"/><path class="65bfea67-4852-48c1-9030-d9cddf34bf9b" d="M270.29,263.27S279,278.48,284.42,290l4.53.81s3.57-20.88,3.67-29.72"/><line class="178e67e4-2a9d-45ba-b230-28d4f7fb239b" x1="288.63" y1="251.11" x2="288.73" y2="261.11"/><path class="78bb270e-b0b5-4609-966d-e727b742c3cd" d="M288.24,225.33c3.94-1.35,5.29-7.92-5.86-4.85,0,0-2-.54-2-.5-.25,1.07-2.49,18.38-6.86,14.72,0,0,4.51,4.67,6.93,2.64l1.47-1.59,6.3-10.31S288.21,225.34,288.24,225.33Z"/><path class="95848d1d-05a9-4c95-8a56-dcc2353c877b" d="M282.33,223.88a.13.13,0,0,1,.07-.14c.71-.3,5.59-2.82,7.22,1.39,1.54,4,1.59,4.14,1.49,4.24l0,0-1.87.79a.13.13,0,0,0-.08.13l.35,5.09s-7,.26-8-1.33.2-6,.55-7a.13.13,0,0,0-.08-.17c-.36-.12-1.4-.53-1.39-1.34,0-1,1.14-1.22,2.15-.24S282.44,224.47,282.33,223.88Z"/><ellipse class="57dbfa91-6dcc-4d3b-85ee-17ebaed4329a" cx="287.41" cy="226.79" rx="0.19" ry="0.2"/><path class="1c9a6982-fa95-4e19-a806-8a88c27cab18" d="M284.42,290v3.39s5.54,2,8.66,0l-4.13-2.58Z"/></g><rect id="da0c917d-2606-482c-924d-beb706e6f578" data-name="hidden" class="8888a597-7135-4415-bd48-2ab10dffbad4" x="163.31" y="214.46" width="137.55" height="102.98"/><g id="ba233415-390d-4c5e-bd8d-063240b00b7f" data-name="sign"><path class="95d351a5-54c4-42cc-9241-8ce5aa2af554" d="M206.4,241.31l-.54,11.55h-1.18l-.54-11.55Zm-.07,16.41h-2.11V255h2.11Z"/></g></g></g><g id="6646f291-6d29-4113-94cc-02294a4fa0ca" data-name="island_2"><polygon class="98d4082e-6835-41dd-a7a3-c08bc6135b7c" points="404.37 266.05 404.37 280.85 429.2 297.94 429 282.46 404.37 266.05"/><polyline class="b886b63b-8ba7-486e-935a-ac797f344776" points="437.21 413.15 551.27 348.67 551.2 319.94 437.21 385.68"/><polygon class="d43cdcb6-c7ad-40b3-a8b4-31eb56ede4a3" points="349.85 336.12 349.85 362.88 437.21 413.28 437.21 385.81 349.85 336.12"/><polygon class="fa5af910-503e-49e7-bad0-adbde3cba4ed" points="270.29 376 429 282 404.37 265.6 482.45 220.52 588.11 282 349.85 419.56 270.29 376"/><polygon class="98d4082e-6835-41dd-a7a3-c08bc6135b7c" points="270.29 376.57 270.29 391.82 349.63 436.51 349.85 420.13 270.29 376.57"/><polygon class="98d4082e-6835-41dd-a7a3-c08bc6135b7c" points="588.11 282 349.85 419.56 349.63 435.94 588.11 299.62 588.11 282"/><polygon class="06787d85-93c7-48e9-9dbf-1b09609e3e44" points="326.7 387.72 333.44 383.83 335.87 385.24 329.19 389.15 326.7 387.72"/><polygon class="06787d85-93c7-48e9-9dbf-1b09609e3e44" points="350.82 373.29 357.55 369.4 359.98 370.8 353.31 374.72 350.82 373.29"/><polygon class="06787d85-93c7-48e9-9dbf-1b09609e3e44" points="375.75 359.13 382.49 355.25 384.92 356.65 378.25 360.57 375.75 359.13"/><polygon class="06787d85-93c7-48e9-9dbf-1b09609e3e44" points="399.87 344.7 406.6 340.81 409.04 342.22 402.36 346.14 399.87 344.7"/><polygon class="06787d85-93c7-48e9-9dbf-1b09609e3e44" points="425.79 330.43 432.52 326.55 434.95 327.95 428.28 331.87 425.79 330.43"/><polygon class="06787d85-93c7-48e9-9dbf-1b09609e3e44" points="449.91 316 456.64 312.12 459.07 313.52 452.4 317.44 449.91 316"/><polygon class="06787d85-93c7-48e9-9dbf-1b09609e3e44" points="472.5 303.15 479.23 299.26 481.66 300.67 474.99 304.59 472.5 303.15"/><polygon class="06787d85-93c7-48e9-9dbf-1b09609e3e44" points="496.61 288.72 503.34 284.83 505.77 286.23 499.1 290.15 496.61 288.72"/><polygon class="06787d85-93c7-48e9-9dbf-1b09609e3e44" points="519.62 275.76 526.35 271.88 528.78 273.28 522.11 277.2 519.62 275.76"/><g id="128d2560-bbb0-49cd-896e-c278ce52ab02" data-name="trigger_egg_bus"><polygon class="4347f1b9-b339-4ace-b944-d777030ae4d0" points="510.81 245.43 510.81 248.41 495.79 258.52 495.93 255.18 510.81 245.43"/><polygon class="06787d85-93c7-48e9-9dbf-1b09609e3e44" points="489.13 250.15 504.8 240.71 510.81 244.5 495.93 254.25 489.13 250.15"/><path class="06787d85-93c7-48e9-9dbf-1b09609e3e44" d="M489.13,250.15v3.39s6.66,4.17,6.66,4,.14-3.34.14-3.34Z"/><path class="06787d85-93c7-48e9-9dbf-1b09609e3e44" d="M501,249.05a2.74,2.74,0,0,1-3,0V187.8h3Z"/><polygon class="06787d85-93c7-48e9-9dbf-1b09609e3e44" points="492.03 167.87 492.03 199.53 509.71 189.31 509.71 157.66 492.03 167.87"/><polygon class="4347f1b9-b339-4ace-b944-d777030ae4d0" points="492.03 167.87 492.03 174.18 509.71 163.96 509.71 157.66 492.03 167.87"/><polygon class="06787d85-93c7-48e9-9dbf-1b09609e3e44" points="489.12 166.19 492.03 167.87 492.03 199.53 489.12 197.39 489.12 166.19"/><polygon class="06787d85-93c7-48e9-9dbf-1b09609e3e44" points="489.12 166.19 506.84 156 509.71 157.66 492.03 167.87 489.12 166.19"/><path d="M495.3,180.17a2,2,0,0,1,.14-.6,7,7,0,0,1,.87-1.49l.2-.28c.79-1.11,1.09-1.69,1.09-2.09s-.34-.55-.81-.28a1.6,1.6,0,0,0-.84,1.35l-.54.25a2.61,2.61,0,0,1,1.39-2c.8-.46,1.34-.29,1.34.42a4.35,4.35,0,0,1-1.06,2.21l-.43.62a6.17,6.17,0,0,0-.62,1l2.11-1.22v.5Z"/><path d="M500.41,176.19l-1.86,1.07v-.49l2-3.91.43-.25v2.78l.58-.34v.49l-.58.34v1l-.53.3Zm0-2.42h0l-1.33,2.71,1.34-.78Z"/><path d="M503.52,172.07a6.23,6.23,0,0,1-.65.83c-.19.21-.25.27-.4.42v-.51a6.13,6.13,0,0,0,1.24-1.8l.34-.2v4.31l-.53.3Z"/><path d="M495.3,189.49a2,2,0,0,1,.14-.6,7,7,0,0,1,.87-1.49l.2-.28c.79-1.11,1.09-1.69,1.09-2.09s-.34-.55-.81-.28a1.6,1.6,0,0,0-.84,1.35l-.54.25a2.61,2.61,0,0,1,1.39-2c.8-.46,1.34-.29,1.34.42a4.35,4.35,0,0,1-1.06,2.21l-.43.62a6.17,6.17,0,0,0-.62,1l2.11-1.22v.5Z"/><path d="M499.36,187.14a8.81,8.81,0,0,1,.49-2.35,11.74,11.74,0,0,1,.67-1.6c.15-.3.2-.4.35-.65l-2.1,1.21v-.5l2.78-1.6v.41a10.76,10.76,0,0,0-1.22,2.64,9.62,9.62,0,0,0-.42,2.13Z"/><path d="M502.61,184.09c.08.47.38.59.83.33a1.93,1.93,0,0,0,.91-1.57c0-.59-.37-.76-.92-.44a2,2,0,0,0-.78.86l-.5.23.42-2.45,2.13-1.23v.5l-1.71,1-.23,1.29a3,3,0,0,1,.82-.74c.77-.44,1.33-.18,1.33.62a3,3,0,0,1-1.46,2.38c-.78.45-1.31.3-1.38-.4Z"/><path class="57dbfa91-6dcc-4d3b-85ee-17ebaed4329a" d="M475.34,187.08s-.7-7.11-2.26-8l-3.63-1s-5-.17-5.88,2.15-2.5,5.5-2.5,5.5,1.45,2.68.71,3.15,3.4,5.08,3.4,5.08l2.09-6.84,2.59-2.15,3.38.25Z"/><path class="95848d1d-05a9-4c95-8a56-dcc2353c877b" d="M465.63,197.85s-10,18.79-9,30.37c0,0,15,1.44,19.82-2.12,0,0-.9-22.38-3.15-26.43C473.33,199.66,467.29,199.56,465.63,197.85Z"/><path class="65bfea67-4852-48c1-9030-d9cddf34bf9b" d="M456.59,228.57s7.6,15.74,12.33,27.68l4,.84s3.11-21.61,3.2-30.75"/><path class="95848d1d-05a9-4c95-8a56-dcc2353c877b" d="M467.53,185s5.42-2.42,7.26,2.15,1.2,4.68,1.2,4.68l-2,.83.24,6.84s-8.12,0-9.17-1.59,1.6-8.53,1.6-8.53S465,189,465,188.06s1.19-1.22,2.23-.24S467.53,185,467.53,185Z"/><ellipse class="57dbfa91-6dcc-4d3b-85ee-17ebaed4329a" cx="473.58" cy="189.64" rx="0.2" ry="0.21"/><path class="1c9a6982-fa95-4e19-a806-8a88c27cab18" d="M468.94,255.75v3.5s5.76,2.07,9,0l-4.29-2.67Z"/><path class="95848d1d-05a9-4c95-8a56-dcc2353c877b" d="M467.68,209.56s-3.75-13.06,2.37-9.34S476,213.38,467.68,209.56Z"/><path class="95848d1d-05a9-4c95-8a56-dcc2353c877b" d="M472.83,204.48s2,12.76,4.84,15.35c0,0-10.19-10.45-8.6-18.74"/><g id="70e0b0f9-0bd4-42d4-9fb4-f1a0de386672" data-name="bus"><polygon class="cab721ee-dbea-4674-aad2-90925f3f9dcc" points="314.6 308.56 314.6 360.94 364.19 390.07 364.19 337.19 314.6 308.56"/><polygon class="b886b63b-8ba7-486e-935a-ac797f344776" points="314.6 312.84 314.6 322.23 364.19 351.36 364.19 341.47 314.6 312.84"/><polygon class="cab721ee-dbea-4674-aad2-90925f3f9dcc" points="314.6 308.56 430.88 241.02 480.46 269.65 364.19 337.19 314.6 308.56"/><polygon class="cab721ee-dbea-4674-aad2-90925f3f9dcc" points="364.19 390.07 364.19 337.19 480.46 269.65 480.46 323.3 364.19 390.07"/><g class="bca0c643-cfde-4c93-aaff-a34c9643f3bc"><path class="f6169f7f-a852-4b13-bcc6-78fd994775c1" d="M416,332.91s-5,12.93-2.2,14.2,10.2.88,9.86-4.58a35.54,35.54,0,0,0-2.5-10.46Z"/><ellipse class="06787d85-93c7-48e9-9dbf-1b09609e3e44" cx="418.32" cy="329.53" rx="4.83" ry="5.16"/><ellipse class="57dbfa91-6dcc-4d3b-85ee-17ebaed4329a" cx="416.81" cy="327.4" rx="0.19" ry="0.2"/><path class="57dbfa91-6dcc-4d3b-85ee-17ebaed4329a" d="M423.15,345s-4.63,7.14-6,10.78h-1.27L413,346.64S419.49,347.2,423.15,345Z"/><path class="57dbfa91-6dcc-4d3b-85ee-17ebaed4329a" d="M417.32,355.79v1.92h-3.45s-1.88-1.06,0-1.92,2.12,0,2.12,0Z"/><path class="f6169f7f-a852-4b13-bcc6-78fd994775c1" d="M416.62,336.26s-5.57-4.78-6-6.2,2.28,8,5.41,8"/><polygon class="65bfea67-4852-48c1-9030-d9cddf34bf9b" points="417 324.37 418.31 322.39 424.11 324.37 426.42 329.53 425.36 332.32 421.11 332.2 421.11 329.53 418.86 326.64 417 324.37"/><path class="95848d1d-05a9-4c95-8a56-dcc2353c877b" d="M393.5,327.09s-5.23-2.54-7,2.26-1.16,4.92-1.16,4.92l2,.87-.23,7.2s7.84,0,8.85-1.67-1.54-9-1.54-9,1.53-.41,1.52-1.44-1.14-1.29-2.15-.26S393.5,327.09,393.5,327.09Z"/><ellipse class="57dbfa91-6dcc-4d3b-85ee-17ebaed4329a" cx="388.82" cy="329.75" rx="0.19" ry="0.21"/><path class="78bb270e-b0b5-4609-966d-e727b742c3cd" d="M387.56,327.29s1.12-4.61,2.35-5.05l.68.88s3.82-.74,4.55.37a10.91,10.91,0,0,0,1.89,2.06s-.58,2.87,0,3.09-3.38,1.9-3.38,1.9l.26-3.25-2-1-2.66.12Z"/><path class="95848d1d-05a9-4c95-8a56-dcc2353c877b" d="M395.92,340.14s11.45,18.79,10.3,30.37c0,0-17.18,1.44-22.77-2.12,0,0,1-22.38,3.62-26.43C387.07,342,394,341.85,395.92,340.14Z"/><path class="65bfea67-4852-48c1-9030-d9cddf34bf9b" d="M406.3,370.87s-8.73,15.74-14.17,27.68l-4.54.84s-3.58-21.61-3.68-30.75"/><path class="1c9a6982-fa95-4e19-a806-8a88c27cab18" d="M392.14,398.54V402s-5.56,2.07-8.68,0l4.14-2.67Z"/><rect class="29250f4e-5624-4629-bd06-633b7f1bf2f3" x="393.34" y="327.74" width="3.08" height="1.4" rx="0.67" ry="0.67" transform="translate(789.75 656.87) rotate(-180)"/><path class="95848d1d-05a9-4c95-8a56-dcc2353c877b" d="M387.83,346.47s-4.82,11.91-8.05,13.76c0,0,11.95-7.73,12.36-16.16"/><path class="2074782a-b6ee-4838-9dee-0a1614ea63ec" d="M453.25,305s11.42,18.16,10.27,29.35c0,0-17.12,1.39-22.7-2.05,0,0,1-21.63,3.61-25.54C444.43,306.79,451.35,306.69,453.25,305Z"/><polygon class="95848d1d-05a9-4c95-8a56-dcc2353c877b" points="452.97 305.51 446.67 308.65 445.62 307.08 452.97 305.51"/><path class="2074782a-b6ee-4838-9dee-0a1614ea63ec" d="M448.77,311.64s-8.27,9-11.88,9.43c0,0,13.6-2.51,16.66-10"/><path class="65bfea67-4852-48c1-9030-d9cddf34bf9b" d="M463.6,334.73s-8.71,15.21-14.12,26.75l-4.53.81s-3.57-20.88-3.67-29.72"/><line class="178e67e4-2a9d-45ba-b230-28d4f7fb239b" x1="445.27" y1="322.56" x2="445.17" y2="332.57"/><path class="78bb270e-b0b5-4609-966d-e727b742c3cd" d="M445.65,296.78c-3.94-1.35-5.29-7.92,5.86-4.85,0,0,2-.54,2-.5.25,1.07,2.49,18.38,6.86,14.72,0,0-4.51,4.67-6.93,2.64L452,307.19l-6.3-10.31S445.69,296.79,445.65,296.78Z"/><path class="95848d1d-05a9-4c95-8a56-dcc2353c877b" d="M451.57,295.33a.13.13,0,0,0-.07-.14c-.71-.3-5.59-2.82-7.22,1.39-1.54,4-1.59,4.14-1.49,4.24l0,0,1.87.79a.13.13,0,0,1,.08.13l-.35,5.09s7,.26,8-1.33-.2-6-.55-7a.13.13,0,0,1,.08-.17c.36-.12,1.4-.53,1.39-1.34,0-1-1.14-1.22-2.15-.24S451.45,295.93,451.57,295.33Z"/><ellipse class="57dbfa91-6dcc-4d3b-85ee-17ebaed4329a" cx="446.49" cy="298.25" rx="0.19" ry="0.2"/><path class="1c9a6982-fa95-4e19-a806-8a88c27cab18" d="M449.48,361.48v3.39s-5.54,2-8.66,0l4.13-2.58Z"/></g><polygon class="8a7a9328-db61-4870-a833-622a2ea1b7e8" points="370.69 338.38 370.69 363.38 421.69 333.74 421.69 308.88 370.69 338.38"/><polygon class="8a7a9328-db61-4870-a833-622a2ea1b7e8" points="424.9 307.03 424.9 332.03 475.9 302.4 475.9 277.53 424.9 307.03"/><g class="887dfdf5-3022-4b75-a87b-1d25762b25ec"><path class="f6169f7f-a852-4b13-bcc6-78fd994775c1" d="M416,330.69s-5,12.93-2.2,14.2,10.2.88,9.86-4.58a35.54,35.54,0,0,0-2.5-10.46Z"/><ellipse class="06787d85-93c7-48e9-9dbf-1b09609e3e44" cx="418.32" cy="327.31" rx="4.83" ry="5.16"/><ellipse class="57dbfa91-6dcc-4d3b-85ee-17ebaed4329a" cx="416.81" cy="325.18" rx="0.19" ry="0.2"/><path class="57dbfa91-6dcc-4d3b-85ee-17ebaed4329a" d="M423.15,342.79s-4.63,7.14-6,10.78h-1.27L413,344.43S419.49,345,423.15,342.79Z"/><path class="57dbfa91-6dcc-4d3b-85ee-17ebaed4329a" d="M417.32,353.57v1.92h-3.45s-1.88-1.06,0-1.92,2.12,0,2.12,0Z"/><path class="f6169f7f-a852-4b13-bcc6-78fd994775c1" d="M416.62,334s-5.57-4.78-6-6.2,2.28,8,5.41,8"/><polygon class="65bfea67-4852-48c1-9030-d9cddf34bf9b" points="417 322.15 418.31 320.17 424.11 322.15 426.42 327.31 425.36 330.11 421.11 329.98 421.11 327.31 418.86 324.42 417 322.15"/><path class="95848d1d-05a9-4c95-8a56-dcc2353c877b" d="M393.5,324.87s-5.23-2.54-7,2.26-1.16,4.92-1.16,4.92l2,.87-.23,7.2s7.84,0,8.85-1.67-1.54-9-1.54-9,1.53-.41,1.52-1.44-1.14-1.29-2.15-.26S393.5,324.87,393.5,324.87Z"/><ellipse class="57dbfa91-6dcc-4d3b-85ee-17ebaed4329a" cx="388.82" cy="327.53" rx="0.19" ry="0.21"/><path class="78bb270e-b0b5-4609-966d-e727b742c3cd" d="M387.56,325.07s1.12-4.61,2.35-5.05l.68.88s3.82-.74,4.55.37a10.91,10.91,0,0,0,1.89,2.06s-.58,2.87,0,3.09-3.38,1.9-3.38,1.9l.26-3.25-2-1-2.66.12Z"/><path class="95848d1d-05a9-4c95-8a56-dcc2353c877b" d="M395.92,337.92s11.45,18.79,10.3,30.37c0,0-17.18,1.44-22.77-2.12,0,0,1-22.38,3.62-26.43C387.07,339.74,394,339.63,395.92,337.92Z"/><path class="65bfea67-4852-48c1-9030-d9cddf34bf9b" d="M406.3,368.65s-8.73,15.74-14.17,27.68l-4.54.84s-3.58-21.61-3.68-30.75"/><path class="1c9a6982-fa95-4e19-a806-8a88c27cab18" d="M392.14,396.33v3.5s-5.56,2.07-8.68,0l4.14-2.67Z"/><rect class="29250f4e-5624-4629-bd06-633b7f1bf2f3" x="393.34" y="325.52" width="3.08" height="1.4" rx="0.67" ry="0.67" transform="translate(789.75 652.44) rotate(-180)"/><path class="95848d1d-05a9-4c95-8a56-dcc2353c877b" d="M387.83,344.25S383,356.16,379.78,358c0,0,11.95-7.73,12.36-16.16"/><path class="2074782a-b6ee-4838-9dee-0a1614ea63ec" d="M453.25,302.82s11.42,18.16,10.27,29.35c0,0-17.12,1.39-22.7-2.05,0,0,1-21.63,3.61-25.54C444.43,304.57,451.35,304.47,453.25,302.82Z"/><polygon class="95848d1d-05a9-4c95-8a56-dcc2353c877b" points="452.97 303.29 446.67 306.43 445.62 304.86 452.97 303.29"/><path class="2074782a-b6ee-4838-9dee-0a1614ea63ec" d="M448.77,309.43s-8.27,9-11.88,9.43c0,0,13.6-2.51,16.66-10"/><path class="65bfea67-4852-48c1-9030-d9cddf34bf9b" d="M463.6,332.51s-8.71,15.21-14.12,26.75l-4.53.81s-3.57-20.88-3.67-29.72"/><line class="178e67e4-2a9d-45ba-b230-28d4f7fb239b" x1="445.27" y1="320.35" x2="445.17" y2="330.35"/><path class="78bb270e-b0b5-4609-966d-e727b742c3cd" d="M445.65,294.56c-3.94-1.35-5.29-7.92,5.86-4.85,0,0,2-.54,2-.5.25,1.07,2.49,18.38,6.86,14.72,0,0-4.51,4.67-6.93,2.64L452,305l-6.3-10.31S445.69,294.57,445.65,294.56Z"/><path class="95848d1d-05a9-4c95-8a56-dcc2353c877b" d="M451.57,293.11a.13.13,0,0,0-.07-.14c-.71-.3-5.59-2.82-7.22,1.39-1.54,4-1.59,4.14-1.49,4.24l0,0,1.87.79a.13.13,0,0,1,.08.13l-.35,5.09s7,.26,8-1.33-.2-6-.55-7a.13.13,0,0,1,.08-.17c.36-.12,1.4-.53,1.39-1.34,0-1-1.14-1.22-2.15-.24S451.45,293.71,451.57,293.11Z"/><ellipse class="57dbfa91-6dcc-4d3b-85ee-17ebaed4329a" cx="446.49" cy="296.03" rx="0.19" ry="0.2"/><path class="1c9a6982-fa95-4e19-a806-8a88c27cab18" d="M449.48,359.26v3.39s-5.54,2-8.66,0l4.13-2.58Z"/></g><line class="8a7a9328-db61-4870-a833-622a2ea1b7e8" x1="364.19" y1="385.74" x2="480.46" y2="319.9"/><path class="966d68df-e7d0-4aff-a7fd-92d17b4c341b" d="M382.38,366.18H377s-11,11.52,0,22.24h5.33Z"/><ellipse class="966d68df-e7d0-4aff-a7fd-92d17b4c341b" cx="381.29" cy="377.3" rx="7.23" ry="11.12"/><ellipse class="cab721ee-dbea-4674-aad2-90925f3f9dcc" cx="381.29" cy="377.3" rx="4.02" ry="6.18"/><ellipse class="cab721ee-dbea-4674-aad2-90925f3f9dcc" cx="381.29" cy="377.3" rx="1.65" ry="2.53"/><path class="966d68df-e7d0-4aff-a7fd-92d17b4c341b" d="M468.23,318.74h-5.33s-11,11.52,0,22.24h5.33Z"/><ellipse class="966d68df-e7d0-4aff-a7fd-92d17b4c341b" cx="467.14" cy="329.86" rx="7.23" ry="11.12"/><ellipse class="cab721ee-dbea-4674-aad2-90925f3f9dcc" cx="467.14" cy="329.86" rx="4.02" ry="6.18"/><ellipse class="cab721ee-dbea-4674-aad2-90925f3f9dcc" cx="467.14" cy="329.86" rx="1.65" ry="2.53"/><ellipse class="cab721ee-dbea-4674-aad2-90925f3f9dcc" cx="320.05" cy="358.74" rx="2.01" ry="2.61" transform="translate(-143.13 487.54) rotate(-63.8)"/><ellipse class="cab721ee-dbea-4674-aad2-90925f3f9dcc" cx="358.42" cy="381.2" rx="2.01" ry="2.61" transform="translate(-141.85 534.52) rotate(-63.8)"/><polygon class="cab721ee-dbea-4674-aad2-90925f3f9dcc" points="364.19 374.29 364.19 351.36 314.6 322.23 314.6 346.56 364.19 374.29"/><line class="cab721ee-dbea-4674-aad2-90925f3f9dcc" x1="314.6" y1="346.56" x2="334.6" y2="333.98"/><polygon class="b886b63b-8ba7-486e-935a-ac797f344776" points="332.37 364.19 332.37 368.92 341.95 374.29 341.95 369.24 332.37 364.19"/><g id="15130ed4-e71a-415f-9283-10b1b87e81b9" data-name="driver"><path class="b886b63b-8ba7-486e-935a-ac797f344776" d="M347.89,356.5l-5.09,5.93,16.83,9.5s3.25-11.51-2.67-16.58S347.89,356.5,347.89,356.5Z"/><path class="cab721ee-dbea-4674-aad2-90925f3f9dcc" d="M348.38,350.68,346,354.1l2.33,1s-1.75,3.67.5,3.92,8.08-1.5,8.08-1.5.5-7.5-1.42-9.33S347.88,346.85,348.38,350.68Z"/><line class="8a7a9328-db61-4870-a833-622a2ea1b7e8" x1="349.97" y1="349.94" x2="351.54" y2="350.43"/><ellipse class="8a7a9328-db61-4870-a833-622a2ea1b7e8" cx="346.62" cy="361.36" rx="2.88" ry="4.43" transform="translate(-135.54 496.41) rotate(-61.84)"/><ellipse class="cab721ee-dbea-4674-aad2-90925f3f9dcc" cx="346.62" cy="361.36" rx="0.66" ry="1.01" transform="translate(-135.54 496.41) rotate(-61.84)"/><path id="57016c7b-b4d7-49be-abe8-f0fd62fa0e0b" data-name="hand" class="b886b63b-8ba7-486e-935a-ac797f344776" d="M355.35,359.89s-4.2,2.39-8.42.88c0,0,5.26,4.12,8.42,1.87"/></g><line class="8a7a9328-db61-4870-a833-622a2ea1b7e8" x1="475.9" y1="302.4" x2="474.37" y2="303.29"/><line class="8a7a9328-db61-4870-a833-622a2ea1b7e8" x1="457.16" y1="302.84" x2="467.14" y2="307.49"/><text class="aabd2693-b0c3-4fe0-b2c4-3008ba483422" transform="matrix(1, 0.58, 0, 1, 317.23, 321.28)">275</text></g><g id="5543ad13-340c-4ee3-9077-8ec4416ba05a" data-name="sign"><path class="95d351a5-54c4-42cc-9241-8ce5aa2af554" d="M495.37,303.71l-.54,11.55h-1.18l-.54-11.55Zm-.07,16.41h-2.11v-2.7h2.11Z"/></g><rect id="a4f9c9f8-4d98-41ba-8582-534125bbceb9" data-name="hidden" class="8888a597-7135-4415-bd48-2ab10dffbad4" x="308.4" y="149.3" width="220.39" height="254.75"/></g></g></g></g></svg>