<svg xmlns="http://www.w3.org/2000/svg" viewBox="0 0 614.2 490.44"><defs><style>.\34 b166e14-a315-4139-a2f8-acb4ac1521bf{isolation:isolate;}.\30 dfb88b4-3fb2-4ee0-8ea0-61c4c9dda2fa,.\33 5fb2586-8bac-4b30-8a74-967b685f51b6,.\35 c7298e7-69b8-4b8f-a80f-c43f50e8928a,.\35 e2f401c-4c40-409a-a358-60b57c5b5540,.db619b85-ed43-4906-a3e5-aa351e643a32{fill:#fff;}.\30 dfb88b4-3fb2-4ee0-8ea0-61c4c9dda2fa,.\33 5fb2586-8bac-4b30-8a74-967b685f51b6,.\35 e2f401c-4c40-409a-a358-60b57c5b5540,.\39 9b34756-c0a9-4f56-94df-6b4ff1480bcf,.a106e4ee-87f6-4f63-820a-2f9d6aaba633,.a9ff2e88-447a-4160-86b0-284fbaa6d095,.b86973c5-09d1-4f03-aef9-7411fa1deada,.bbb4fc07-5040-4a9d-a330-f1753317a928,.ca19f88e-2c6e-49a3-b3ca-84c91ba09036,.cb6804d9-eac8-4235-a7cf-69d1a373da30,.d0e03a12-a1d8-4a32-9fee-87fea5b89c03{stroke:#1a1a1a;}.\30 ab55c0a-cc5a-4f97-94d6-6d970f205839,.\31 1efc632-eb27-4596-af8a-ff72f79e5a39,.\32 58c3030-9ab5-4585-a24f-f2194d72a4de,.\33 5fb2586-8bac-4b30-8a74-967b685f51b6,.\34 2c07104-eabf-44fb-820c-56c214bb8212,.\35 3ae48bc-f7db-4c72-b229-7d0c26e41179,.\35 e2f401c-4c40-409a-a358-60b57c5b5540,.\36 c40580f-f477-493e-8b67-4b1e853c28e6,.bbb4fc07-5040-4a9d-a330-f1753317a928,.be179b7c-7032-4e57-897b-6e4298e59b00,.ca19f88e-2c6e-49a3-b3ca-84c91ba09036,.cb6804d9-eac8-4235-a7cf-69d1a373da30,.d0e03a12-a1d8-4a32-9fee-87fea5b89c03,.db619b85-ed43-4906-a3e5-aa351e643a32{stroke-miterlimit:10;}.\30 dfb88b4-3fb2-4ee0-8ea0-61c4c9dda2fa,.\35 e2f401c-4c40-409a-a358-60b57c5b5540,.\36 c40580f-f477-493e-8b67-4b1e853c28e6,.\39 9b34756-c0a9-4f56-94df-6b4ff1480bcf,.a9ff2e88-447a-4160-86b0-284fbaa6d095,.b86973c5-09d1-4f03-aef9-7411fa1deada,.bbb4fc07-5040-4a9d-a330-f1753317a928,.ca19f88e-2c6e-49a3-b3ca-84c91ba09036,.d0e03a12-a1d8-4a32-9fee-87fea5b89c03{stroke-width:0.8px;}.\33 d7806db-2bbd-4305-b2fa-f3f9557d3562,.\34 2c07104-eabf-44fb-820c-56c214bb8212,.\39 9b34756-c0a9-4f56-94df-6b4ff1480bcf,.\39 b93d7d8-dc8b-4963-a497-c6eb0218de27,.cb6804d9-eac8-4235-a7cf-69d1a373da30,.cc5f25b9-ad75-4544-9637-48586ed58124,.d0e03a12-a1d8-4a32-9fee-87fea5b89c03{fill:#c92028;}.\31 1efc632-eb27-4596-af8a-ff72f79e5a39,.\32 58c3030-9ab5-4585-a24f-f2194d72a4de,.\34 2c07104-eabf-44fb-820c-56c214bb8212,.be179b7c-7032-4e57-897b-6e4298e59b00,.db619b85-ed43-4906-a3e5-aa351e643a32{stroke:#000;}.\30 ab55c0a-cc5a-4f97-94d6-6d970f205839,.\35 3ae48bc-f7db-4c72-b229-7d0c26e41179,.a106e4ee-87f6-4f63-820a-2f9d6aaba633,.a9ff2e88-447a-4160-86b0-284fbaa6d095,.bbb4fc07-5040-4a9d-a330-f1753317a928,.be179b7c-7032-4e57-897b-6e4298e59b00{fill:none;}.\35 b977b5f-b146-4b67-b1c4-4ac3c53e248d,.\36 c40580f-f477-493e-8b67-4b1e853c28e6,.b86973c5-09d1-4f03-aef9-7411fa1deada,.ca19f88e-2c6e-49a3-b3ca-84c91ba09036{fill:#1a1a1a;}.\36 c40580f-f477-493e-8b67-4b1e853c28e6{stroke:#c92028;}.\30 ab55c0a-cc5a-4f97-94d6-6d970f205839{stroke:#e6e6e6;stroke-width:0.75px;}.\31 1efc632-eb27-4596-af8a-ff72f79e5a39{fill:#fff5f6;}.\30 dfb88b4-3fb2-4ee0-8ea0-61c4c9dda2fa,.a106e4ee-87f6-4f63-820a-2f9d6aaba633,.a9ff2e88-447a-4160-86b0-284fbaa6d095,.b86973c5-09d1-4f03-aef9-7411fa1deada{stroke-linecap:round;}.\30 dfb88b4-3fb2-4ee0-8ea0-61c4c9dda2fa,.\39 9b34756-c0a9-4f56-94df-6b4ff1480bcf,.a106e4ee-87f6-4f63-820a-2f9d6aaba633,.a9ff2e88-447a-4160-86b0-284fbaa6d095,.b86973c5-09d1-4f03-aef9-7411fa1deada{stroke-linejoin:round;}.\31 9f60f60-e230-49c9-8be5-8db8de1fec1b,.\32 58c3030-9ab5-4585-a24f-f2194d72a4de{fill:#b02028;}.\39 b93d7d8-dc8b-4963-a497-c6eb0218de27{mix-blend-mode:multiply;}.\35 3ae48bc-f7db-4c72-b229-7d0c26e41179{stroke:#fff;stroke-width:0.1px;}.\33 d7806db-2bbd-4305-b2fa-f3f9557d3562{mix-blend-mode:darken;}.\35 baff702-4e25-4538-b86a-4b648ae48cf3{font-size:17.93px;font-family:MSungGoldHK-Black, MSungGold HK;}</style></defs><title>scene</title><g class="4b166e14-a315-4139-a2f8-acb4ac1521bf"><g id="929a4c1f-a18c-4308-863a-c474de605156" data-name="圖層 1"><g id="aaced7a5-920c-4f21-a400-296ade8801a0" data-name="island_2"><polygon class="5e2f401c-4c40-409a-a358-60b57c5b5540" points="279.68 327.47 420.86 245.81 449.2 262.17 477.94 245.57 533.46 278.65 364.73 376.24 279.68 327.47"/><polygon class="d0e03a12-a1d8-4a32-9fee-87fea5b89c03" points="279.32 347.92 279.34 327.49 364.39 376.26 364.37 394.57 279.32 347.92"/><polygon class="d0e03a12-a1d8-4a32-9fee-87fea5b89c03" points="533.61 296.36 533.46 278.65 364.73 376.24 364.88 394.57 533.61 296.36"/><g id="90d1d2e6-5c6a-4c55-a507-9ae9c5e99880" data-name="trigger_temple_fire"><g id="f5a2efcb-1a1e-4484-9c3c-6f549ddea442" data-name="sign"><path class="cc5f25b9-ad75-4544-9637-48586ed58124" d="M375.87,238.79l-.5,10.68h-1.09l-.5-10.68ZM375.8,254h-2v-2.49h2Z"/></g><g id="edc95b67-9c5a-46f7-80a9-5981eaa9728d" data-name="temple_buwl"><path class="db619b85-ed43-4906-a3e5-aa351e643a32" d="M333.27,332.69s.16,10.08,5.35,7.45,5.49,6.84,4.32,7-3.59-4.49-4.55-2.31,1.9,15.53,12.24.73S343,330.3,343,330.3Z"/><path class="db619b85-ed43-4906-a3e5-aa351e643a32" d="M390.76,328.65s-.14,10.08-4.69,7.45-4.81,6.84-3.78,7,3.14-4.49,4-2.31-1.66,15.53-10.72.73,6.69-15.21,6.69-15.21Z"/><path class="db619b85-ed43-4906-a3e5-aa351e643a32" d="M390.17,290.17a4.06,4.06,0,0,0-2.77,3.42c-.52,2.89,1.39,3.89,1.39,3.89s7.73,1.22,6.26,7.33-3.63,0-6.61,2.11,0,6,0,6,6-1.11,8.94-2.78,3.87-9.88,1.56-12.66a37.31,37.31,0,0,1-3-3.89s3.4-1.89.66-4.44-4.42-.89-4.42-.89S392.69,290.76,390.17,290.17Z"/><path class="42c07104-eabf-44fb-820c-56c214bb8212" d="M337,288.73s-24.37,17.4-11.2,39.19c11.83,19.59,57.33,26.72,70.08-6.24,6.75-17.45-9.6-31.48-9.6-31.48"/><path class="42c07104-eabf-44fb-820c-56c214bb8212" d="M338.47,288.2s-18.81,15.49,2,24.74c14.31,6.37,29.25,4.25,39.94-.62,12.69-5.78,13.09-17.88,2.27-24.12S350,278.76,338.47,288.2Z"/><path class="42c07104-eabf-44fb-820c-56c214bb8212" d="M338.47,278.5s-20.77,14.48-.14,27.93c12.72,8.3,31.45,7.22,44.22,0,12.61-7.13,10.92-20.72.11-27.93S350,267.6,338.47,278.5Z"/><path class="db619b85-ed43-4906-a3e5-aa351e643a32" d="M341.29,285.52s-13.59,9.9.63,18.6c9.75,6,22.74,5.68,32.43,2.42,10.3-3.47,14.91-15.57,5.48-21S351.36,277.28,341.29,285.52Z"/><polygon class="5c7298e7-69b8-4b8f-a80f-c43f50e8928a" points="343.62 299.37 342.71 302.5 351.68 304.48 352.43 299.37 343.62 299.37"/><path class="5e2f401c-4c40-409a-a358-60b57c5b5540" d="M342.42,300.29s1.2-1.6,2.59-.75,2.08.67,3.84-.34,2.77,1,2.77,1"/><polygon class="5c7298e7-69b8-4b8f-a80f-c43f50e8928a" points="369.19 299.01 368.28 302.14 377.25 304.12 378 299.01 369.19 299.01"/><path class="5e2f401c-4c40-409a-a358-60b57c5b5540" d="M369.27,301.15s1.45-1.93,3.12-.9,2.51.81,4.63-.41,3.35,1.18,3.35,1.18"/><polygon class="5c7298e7-69b8-4b8f-a80f-c43f50e8928a" points="352.53 290.21 351.62 293.34 360.59 295.31 361.34 290.21 352.53 290.21"/><path class="5e2f401c-4c40-409a-a358-60b57c5b5540" d="M352.61,290.39s1.45-1.93,3.12-.9,2.51.81,4.63-.41,3.35,1.18,3.35,1.18"/><path class="5e2f401c-4c40-409a-a358-60b57c5b5540" d="M355.5,305.07s1.22-1.93,2.64-.9,2.12.81,3.91-.41,2.83,1.18,2.83,1.18"/><polygon class="5c7298e7-69b8-4b8f-a80f-c43f50e8928a" points="359.47 293.96 358.56 297.1 367.54 299.07 368.28 293.96 359.47 293.96"/><path class="be179b7c-7032-4e57-897b-6e4298e59b00" d="M322.77,316.31s11.92,25,35.5,24.9,37.25-13.65,38.52-24.08"/><path class="be179b7c-7032-4e57-897b-6e4298e59b00" d="M327.48,318.59l2.45,4.81s.84-5.16,1.8-2.55,1.64-1.12,1.64-1.12-.76,3.87,1.12,3.45,1.47,2.38,1.47,2.38l.28,4.88,6.47,4.06s1.86-7.23,2.71-5.42,2.08-1.55,2.08-1.55l.77,3s2.6,3.85,2.85,7c0,0,7.87.42,8.79-.42,0,0,.23-5,1.33-3.77s1.25-2,1.25-2,1.13,3,2.45,1.87l.55,3.68,7.95-2.63s.19-3.59,1-3.49,1.1-2.3,1.1-2.3,1.94,2,2.45,1.21,1.16,3,1.16,3,5.35-2.37,5.94-3.59c0,0-1.29-3-.16-3.83a2.65,2.65,0,0,0,.85-2.42s2.86,2.38,3,.92l.68,2.15s3.2-4.58,3.69-5.46-1-1.74-.67-3.21a5.28,5.28,0,0,1,.57-1.71,7.1,7.1,0,0,0,.94,0c.42-.06.9,1.24.9,1.24l1.94-4.81"/><g id="a93600cb-2515-4493-a0f1-ccae09600d3a" data-name="stick_big"><polygon class="d0e03a12-a1d8-4a32-9fee-87fea5b89c03" points="358.13 304.16 358.13 262.47 361.84 262.47 361.84 303.75 359.99 305.06 358.13 304.16"/><polygon class="5e2f401c-4c40-409a-a358-60b57c5b5540" points="358.13 262.44 358.13 252.45 361.84 252.45 361.84 262.34 359.99 262.65 358.13 262.44"/></g><g id="4d1f399d-d408-412e-aa44-0408892da872" data-name="stick_small"><line class="bbb4fc07-5040-4a9d-a330-f1753317a928" x1="346.98" y1="261.54" x2="347.99" y2="300.24"/><line class="6c40580f-f477-493e-8b67-4b1e853c28e6" x1="346.89" y1="258.06" x2="347" y2="262.13"/></g><g id="7773f7dc-311c-4860-9df5-b68407b5cee8" data-name="stick_small"><line class="bbb4fc07-5040-4a9d-a330-f1753317a928" x1="373.84" y1="261.72" x2="374.85" y2="300.42"/><line class="6c40580f-f477-493e-8b67-4b1e853c28e6" x1="373.75" y1="258.24" x2="373.85" y2="262.31"/></g><g id="cbe8e8df-cd67-4059-84d9-b1ebeaf29a6b" data-name="stick_small"><line class="bbb4fc07-5040-4a9d-a330-f1753317a928" x1="343.59" y1="276.48" x2="344.29" y2="303.39"/><line class="6c40580f-f477-493e-8b67-4b1e853c28e6" x1="343.52" y1="274.06" x2="343.6" y2="276.89"/></g><g id="c23448b7-e491-4416-b964-51c73bda4906" data-name="stick_small"><line class="bbb4fc07-5040-4a9d-a330-f1753317a928" x1="377.15" y1="290.31" x2="377.51" y2="303.96"/><line class="6c40580f-f477-493e-8b67-4b1e853c28e6" x1="377.12" y1="289.08" x2="377.16" y2="290.52"/></g><g id="ed3da4ea-c6d2-417d-9d0a-f8e5e4aff2b6" data-name="stick_small"><line class="bbb4fc07-5040-4a9d-a330-f1753317a928" x1="368.88" y1="269.25" x2="369.74" y2="302.01"/><line class="6c40580f-f477-493e-8b67-4b1e853c28e6" x1="368.81" y1="266.3" x2="368.9" y2="269.75"/></g><g id="e35a374c-4558-443e-bb47-b31f247a43cb" data-name="stick_small"><line class="bbb4fc07-5040-4a9d-a330-f1753317a928" x1="354.73" y1="280.49" x2="355.44" y2="307.4"/><line class="6c40580f-f477-493e-8b67-4b1e853c28e6" x1="354.67" y1="278.07" x2="354.75" y2="280.9"/></g><g id="fcdedc05-037b-47c6-bfc7-3e5ad094323b" data-name="stick_small"><line class="bbb4fc07-5040-4a9d-a330-f1753317a928" x1="381.4" y1="270.38" x2="382.1" y2="297.29"/><line class="6c40580f-f477-493e-8b67-4b1e853c28e6" x1="381.34" y1="267.96" x2="381.41" y2="270.79"/></g><g id="993bac69-3563-448d-b359-b4269b22cc7f" data-name="stick_small"><line class="bbb4fc07-5040-4a9d-a330-f1753317a928" x1="364.97" y1="262.19" x2="365.83" y2="295.32"/><line class="6c40580f-f477-493e-8b67-4b1e853c28e6" x1="364.89" y1="259.21" x2="364.98" y2="262.7"/></g><g id="eda76e16-f222-46fe-a02a-acaa54bef9f7" data-name="stick_small"><line class="bbb4fc07-5040-4a9d-a330-f1753317a928" x1="350.14" y1="294.13" x2="350.5" y2="307.78"/><line class="6c40580f-f477-493e-8b67-4b1e853c28e6" x1="350.11" y1="292.91" x2="350.15" y2="294.34"/></g><g id="72728aef-ff64-42dd-b66c-4dd033503223" data-name="stick_small"><line class="bbb4fc07-5040-4a9d-a330-f1753317a928" x1="337.92" y1="269.86" x2="338.73" y2="300.57"/><line class="6c40580f-f477-493e-8b67-4b1e853c28e6" x1="337.85" y1="267.1" x2="337.94" y2="270.33"/></g><path class="db619b85-ed43-4906-a3e5-aa351e643a32" d="M331.54,310.6a4.44,4.44,0,0,1,3.1,3.68c.58,3.11-1.55,4.19-1.55,4.19s-8.63,1.32-7,7.89,4,0,7.37,2.27,0,6.46,0,6.46-6.65-1.2-10-3-4.32-10.64-1.74-13.63a40.32,40.32,0,0,0,3.33-4.19s-3.8-2-.74-4.78,4.93-1,4.93-1S328.73,311.23,331.54,310.6Z"/><path class="be179b7c-7032-4e57-897b-6e4298e59b00" d="M334.69,315.93s-8.55-1.54-9.91,6.06,3.93,7.28,3.93,7.28"/></g><rect id="06347393-78aa-4ef9-956b-9f83dc4b3269" data-name="hidden" class="0ab55c0a-cc5a-4f97-94d6-6d970f205839" x="318.8" y="235.61" width="82.36" height="117.94"/></g><g id="69535c41-4ec6-462a-8441-3a8e001b10dd" data-name="trigger_women_lucky"><g id="1b9d2676-f1c8-43ad-9d5f-a433942c2b1e" data-name="lucky_left"><path class="11efc632-eb27-4596-af8a-ff72f79e5a39" d="M427.8,282.86s.9-1.19,3.7.51,7.7,7.9,12.8,10.2,15.43,5,15.24,7-1.11,1.12-1.11,1.12S427.5,302.66,427.8,282.86Z"/><path class="42c07104-eabf-44fb-820c-56c214bb8212" d="M429.45,283.72a1.81,1.81,0,0,0-3.28.47c-1.21,4.52-1.06,11,6,16.37,12.9,9.81,22,5.28,26.47,2,1.15-.84,1.25-2.37-.16-2.56-6-.83-11-.71-17.8-4.33C434.63,292.43,431.31,286.71,429.45,283.72Z"/></g><g id="a95d962a-533b-4f4b-88fd-67722db050da" data-name="lucky_right"><path class="11efc632-eb27-4596-af8a-ff72f79e5a39" d="M456.45,292.58s-1.26.8-3.29-1.77-4.44-10.1-8.41-14S432,266.69,432.93,264.87s1.43-.66,1.43-.66S463.67,274.15,456.45,292.58Z"/><path class="42c07104-eabf-44fb-820c-56c214bb8212" d="M455.2,291.2a1.81,1.81,0,0,0,3.24.71c2.72-3.81,4.85-9.91.1-17.44-8.64-13.72-18.72-12.65-24.09-11.14-1.37.39-2,1.78-.75,2.46,5.29,2.87,10,4.51,15.15,10.3C453.4,281.23,454.51,287.75,455.2,291.2Z"/></g><g id="c6705ef6-2a0f-443e-940d-3464a5843239" data-name="sign"><path class="cc5f25b9-ad75-4544-9637-48586ed58124" d="M450.21,240.37l-.5,10.68h-1.09l-.5-10.68Zm-.07,15.17h-2V253h2Z"/></g><path class="b86973c5-09d1-4f03-aef9-7411fa1deada" d="M500.5,250.41s-10.61,17.3-17.21,30.43l-5.52.92S473.43,258,473.31,248"/><g id="6957c3ac-0320-4fd8-b5f4-c0a639baf7a1" data-name="women_upper"><path class="99b34756-c0a9-4f56-94df-6b4ff1480bcf" d="M487.89,216.64S501.8,237.3,500.4,250c0,0-20.86,1.58-27.66-2.34,0,0,1.25-24.61,4.4-29.06C477.15,218.63,485.58,218.52,487.89,216.64Z"/><polygon class="0dfb88b4-3fb2-4ee0-8ea0-61c4c9dda2fa" points="487.55 217.18 479.88 220.74 478.59 218.96 487.55 217.18"/><path id="d99a403f-f011-43d6-8afc-e2c3a5cca252" data-name="hand" class="99b34756-c0a9-4f56-94df-6b4ff1480bcf" d="M482.43,224.15s-10.08,10.2-14.47,10.73c0,0,16.57-2.86,20.3-11.36"/><line class="a9ff2e88-447a-4160-86b0-284fbaa6d095" x1="478.17" y1="236.57" x2="478.05" y2="247.96"/><g id="9dba0d35-c39d-476c-876d-24013c09d26f" data-name="head"><path class="ca19f88e-2c6e-49a3-b3ca-84c91ba09036" d="M478.64,207.24c-4.8-1.54-6.45-9,7.13-5.52,0,0,2.41-.61,2.42-.57.3,1.22,3,20.91,8.36,16.74,0,0-5.5,5.32-8.44,3l-1.79-1.81-7.67-11.73S478.68,207.25,478.64,207.24Z"/><path class="0dfb88b4-3fb2-4ee0-8ea0-61c4c9dda2fa" d="M485.84,205.6a.14.14,0,0,0-.09-.16c-.86-.34-6.81-3.21-8.8,1.58-1.87,4.52-1.94,4.71-1.81,4.82l.05,0,2.28.9a.15.15,0,0,1,.09.14l-.43,5.79s8.53.29,9.76-1.52-.25-6.85-.67-8a.15.15,0,0,1,.09-.19c.44-.13,1.71-.6,1.7-1.52,0-1.11-1.39-1.39-2.62-.28S485.71,206.27,485.84,205.6Z"/><circle class="5e2f401c-4c40-409a-a358-60b57c5b5540" cx="479.65" cy="208.91" r="0.23"/></g></g><path class="a106e4ee-87f6-4f63-820a-2f9d6aaba633" d="M483.3,280.84v3.85s-6.75,2.28-10.55,0l5-2.93Z"/><rect id="6f01a864-e71c-4c9f-8fb5-5c59e23b0673" data-name="hidden" class="0ab55c0a-cc5a-4f97-94d6-6d970f205839" x="417.95" y="196.49" width="91.02" height="116.42"/></g></g><g id="b2ba80e3-c7c9-4ff3-ba1b-8eb1b2e2873c" data-name="island_1"><polyline class="258c3030-9ab5-4585-a24f-f2194d72a4de" points="383.31 117.07 347.35 138.46 273.87 96.62 311.05 73.36"/><path class="19f60f60-e230-49c9-8be5-8db8de1fec1b" d="M348,139.44c-25.46-19.5-31.6-68.76-31.6-68.76-3,7.09-5.39,2.67-5.39,2.67s-2.82,3.17-3.38-6.34c0,0-3.08,28.07-33.8,29.61"/><path class="19f60f60-e230-49c9-8be5-8db8de1fec1b" d="M357,133.42c-25.46-19.5-31.6-68.76-31.6-68.76-3,7.09-5.39,2.67-5.39,2.67s-2.82,3.17-3.38-6.34c0,0-3.08,28.07-33.8,29.61"/><path class="19f60f60-e230-49c9-8be5-8db8de1fec1b" d="M366.77,129c-25.46-19.5-31.6-68.76-31.6-68.76-3,7.09-5.39,2.67-5.39,2.67s-2.82,3.17-3.38-6.34c0,0-3.08,28.07-33.8,29.61"/><path class="19f60f60-e230-49c9-8be5-8db8de1fec1b" d="M375.77,123c-25.46-19.5-31.6-68.76-31.6-68.76-3,7.09-5.39,2.67-5.39,2.67s-2.82,3.17-3.38-6.34c0,0-3.08,28.07-33.8,29.61"/><path class="19f60f60-e230-49c9-8be5-8db8de1fec1b" d="M309.7,75.3c30.72-1.53,33.8-29.61,33.8-29.61.56,9.51,3.38,6.34,3.38,6.34s2.4,4.41,5.39-2.67c0,0,13.46,75,33.37,63.19l-2.32,5.38"/><path class="be179b7c-7032-4e57-897b-6e4298e59b00" d="M348,139.44c-25.46-19.5-31.6-68.76-31.6-68.76-3,7.09-5.39,2.67-5.39,2.67s-2.82,3.17-3.38-6.34c0,0-3.08,28.07-33.8,29.61"/><path class="be179b7c-7032-4e57-897b-6e4298e59b00" d="M357,133.42c-25.46-19.5-31.6-68.76-31.6-68.76-3,7.09-5.39,2.67-5.39,2.67s-2.82,3.17-3.38-6.34c0,0-3.08,28.07-33.8,29.61"/><path class="be179b7c-7032-4e57-897b-6e4298e59b00" d="M366.77,129c-25.46-19.5-31.6-68.76-31.6-68.76-3,7.09-5.39,2.67-5.39,2.67s-2.82,3.17-3.38-6.34c0,0-3.08,28.07-33.8,29.61"/><path class="be179b7c-7032-4e57-897b-6e4298e59b00" d="M375.77,123c-25.46-19.5-31.6-68.76-31.6-68.76-3,7.09-5.39,2.67-5.39,2.67s-2.82,3.17-3.38-6.34c0,0-3.08,28.07-33.8,29.61"/><path class="be179b7c-7032-4e57-897b-6e4298e59b00" d="M310.27,75.14c30.72-1.53,33.8-29.61,33.8-29.61.56,9.51,3.38,6.34,3.38,6.34s2.4,4.41,5.39-2.67c-.8,3.73,14.94,76.2,32.8,62.87,0,0,1.27,5.22-7.85,8.29"/><line class="258c3030-9ab5-4585-a24f-f2194d72a4de" x1="274.19" y1="95.84" x2="310.27" y2="75.14"/><line class="9b93d7d8-dc8b-4963-a497-c6eb0218de27" x1="310.27" y1="75.14" x2="273.87" y2="96.62"/><polygon class="db619b85-ed43-4906-a3e5-aa351e643a32" points="291.82 137.33 66.54 267.8 179.18 334.32 320.03 251.31 291.82 235.82 376.08 186.38 291.82 137.33"/><polyline class="db619b85-ed43-4906-a3e5-aa351e643a32" points="78.49 274.74 78.49 176.3 89.86 182.87 89.86 290.54 78.49 274.74"/><line class="be179b7c-7032-4e57-897b-6e4298e59b00" x1="93.64" y1="268.71" x2="93.64" y2="304.56"/><line class="be179b7c-7032-4e57-897b-6e4298e59b00" x1="94.48" y1="288.66" x2="94.48" y2="248.85"/><line class="be179b7c-7032-4e57-897b-6e4298e59b00" x1="152.93" y1="296.71" x2="152.93" y2="336.52"/><line class="be179b7c-7032-4e57-897b-6e4298e59b00" x1="173.48" y1="296.71" x2="173.48" y2="336.52"/><line class="be179b7c-7032-4e57-897b-6e4298e59b00" x1="169.49" y1="229.76" x2="169.49" y2="328.2"/><path class="cc5f25b9-ad75-4544-9637-48586ed58124" d="M235.86,203.26C197,173.51,187.66,98.39,187.66,98.39c-4.55,10.81-8.22,4.08-8.22,4.08s-4.3,4.83-5.15-9.67c0,0-4.7,42.82-51.55,45.16"/><path class="cc5f25b9-ad75-4544-9637-48586ed58124" d="M348.38,137.85C309.55,108.1,300.19,33,300.19,33c-4.55,10.81-8.22,4.08-8.22,4.08s-4.3,4.83-5.15-9.67c0,0-4.7,42.82-51.55,45.16"/><polygon class="cc5f25b9-ad75-4544-9637-48586ed58124" points="348.38 137.85 179.01 235.03 65.9 169.72 235.27 72.55 348.38 137.85"/><path class="cc5f25b9-ad75-4544-9637-48586ed58124" d="M292.87,170.61C254,140.87,244.68,65.75,244.68,65.75c-4.55,10.81-8.22,4.08-8.22,4.08s-4.3,4.83-5.15-9.67c0,0-4.7,42.82-51.55,45.16"/><path class="cc5f25b9-ad75-4544-9637-48586ed58124" d="M306.6,161.43C267.76,131.68,258.4,56.56,258.4,56.56c-4.55,10.81-8.22,4.08-8.22,4.08S245.89,65.48,245,51c0,0-4.7,42.82-51.55,45.16"/><path class="cc5f25b9-ad75-4544-9637-48586ed58124" d="M321.45,154.7C282.62,125,273.26,49.84,273.26,49.84c-4.55,10.81-8.22,4.08-8.22,4.08s-4.3,4.83-5.15-9.67c0,0-4.7,42.82-51.55,45.16"/><path class="cc5f25b9-ad75-4544-9637-48586ed58124" d="M335.18,145.52C296.34,115.77,287,40.65,287,40.65c-4.55,10.81-8.22,4.08-8.22,4.08s-4.3,4.83-5.15-9.67c0,0-4.7,42.82-51.55,45.16"/><path class="cc5f25b9-ad75-4544-9637-48586ed58124" d="M249.44,193.35C210.6,163.6,201.24,88.49,201.24,88.49c-4.55,10.81-8.22,4.08-8.22,4.08s-4.3,4.83-5.15-9.67c0,0-4.7,42.82-51.55,45.16"/><path class="cc5f25b9-ad75-4544-9637-48586ed58124" d="M264.29,186.62C225.46,156.88,216.1,81.76,216.1,81.76c-4.55,10.81-8.22,4.08-8.22,4.08s-4.3,4.83-5.15-9.67c0,0-4.7,42.82-51.55,45.16"/><path class="cc5f25b9-ad75-4544-9637-48586ed58124" d="M278,177.44c-38.83-29.75-48.19-104.87-48.19-104.87-4.55,10.81-8.22,4.08-8.22,4.08s-4.3,4.83-5.15-9.67c0,0-4.7,42.82-51.55,45.16"/><path class="cc5f25b9-ad75-4544-9637-48586ed58124" d="M130.82,130.16c-4.55,10.81-8.22,4.08-8.22,4.08s-4.3,4.83-5.15-9.67c0,0-4.7,42.82-51.55,45.16l56.7,32.74L179,235C140.17,205.28,130.82,130.16,130.82,130.16Z"/><path class="cc5f25b9-ad75-4544-9637-48586ed58124" d="M130.82,130.16c-4.55,10.81-8.22,4.08-8.22,4.08s-4.3,4.83-5.15-9.67c0,0-4.7,42.82-51.55,45.16l56.7,32.74L179,235C140.17,205.28,130.82,130.16,130.82,130.16Z"/><path class="cc5f25b9-ad75-4544-9637-48586ed58124" d="M144.54,121c-4.55,10.81-8.22,4.08-8.22,4.08s-4.3,4.83-5.15-9.67c0,0-4.7,42.82-51.55,45.16l56.7,32.74,56.41,32.57C153.9,196.1,144.54,121,144.54,121Z"/><path class="cc5f25b9-ad75-4544-9637-48586ed58124" d="M207.59,219.12c-38.83-29.75-48.19-104.87-48.19-104.87-4.55,10.81-8.22,4.08-8.22,4.08s-4.3,4.83-5.15-9.67c0,0-4.7,42.82-51.55,45.16L99.91,157"/><path class="cc5f25b9-ad75-4544-9637-48586ed58124" d="M221.31,209.93c-38.83-29.75-48.19-104.87-48.19-104.87-4.55,10.81-8.22,4.08-8.22,4.08s-4.3,4.83-5.15-9.67c0,0-4.7,42.82-51.55,45.16"/><path class="be179b7c-7032-4e57-897b-6e4298e59b00" d="M130.82,130.16c-4.55,10.81-8.22,4.08-8.22,4.08s-4.3,4.83-5.15-9.67c0,0-4.7,42.82-51.55,45.16l56.7,32.74L179,235C140.17,205.28,130.82,130.16,130.82,130.16Z"/><path class="be179b7c-7032-4e57-897b-6e4298e59b00" d="M130.82,130.16c-4.55,10.81-8.22,4.08-8.22,4.08s-4.3,4.83-5.15-9.67c0,0-4.7,42.82-51.55,45.16l56.7,32.74L179,235c-1.75-1.34,1.86-10.12,1.86-10.12s-11.11,1.72-13.05-.51C138.33,190.46,130.82,130.16,130.82,130.16Z"/><path class="be179b7c-7032-4e57-897b-6e4298e59b00" d="M192.73,225.84C153.9,196.1,144.54,121,144.54,121c-4.55,10.81-8.22,4.08-8.22,4.08s-4.3,4.83-5.15-9.67c0,0-4.7,42.82-51.55,45.16"/><path class="be179b7c-7032-4e57-897b-6e4298e59b00" d="M207.59,219.12c-38.83-29.75-48.19-104.87-48.19-104.87-4.55,10.81-8.22,4.08-8.22,4.08s-4.3,4.83-5.15-9.67c0,0-4.7,42.82-51.55,45.16L99.91,157"/><path class="be179b7c-7032-4e57-897b-6e4298e59b00" d="M221.31,209.93c-38.83-29.75-48.19-104.87-48.19-104.87-4.55,10.81-8.22,4.08-8.22,4.08s-4.3,4.83-5.15-9.67c0,0-4.7,42.82-51.55,45.16"/><path class="be179b7c-7032-4e57-897b-6e4298e59b00" d="M235.71,202.54c-38.83-29.75-48.19-104.87-48.19-104.87-4.55,10.81-8.22,4.08-8.22,4.08s-4.3,4.83-5.15-9.67c0,0-4.7,42.82-51.55,45.16"/><path class="be179b7c-7032-4e57-897b-6e4298e59b00" d="M249.44,193.35C210.6,163.6,201.24,88.49,201.24,88.49c-4.55,10.81-8.22,4.08-8.22,4.08s-4.3,4.83-5.15-9.67c0,0-4.7,42.82-51.55,45.16"/><path class="be179b7c-7032-4e57-897b-6e4298e59b00" d="M264.29,186.62C225.46,156.88,216.1,81.76,216.1,81.76c-4.55,10.81-8.22,4.08-8.22,4.08s-4.3,4.83-5.15-9.67c0,0-4.7,42.82-51.55,45.16"/><path class="be179b7c-7032-4e57-897b-6e4298e59b00" d="M278,177.44c-38.83-29.75-48.19-104.87-48.19-104.87-4.55,10.81-8.22,4.08-8.22,4.08s-4.3,4.83-5.15-9.67c0,0-4.7,42.82-51.55,45.16"/><path class="be179b7c-7032-4e57-897b-6e4298e59b00" d="M292.87,170.61C254,140.87,244.68,65.75,244.68,65.75c-4.55,10.81-8.22,4.08-8.22,4.08s-4.3,4.83-5.15-9.67c0,0-4.7,42.82-51.55,45.16"/><path class="be179b7c-7032-4e57-897b-6e4298e59b00" d="M306.6,161.43C267.76,131.68,258.4,56.56,258.4,56.56c-4.55,10.81-8.22,4.08-8.22,4.08S245.89,65.48,245,51c0,0-4.7,42.82-51.55,45.16"/><path class="be179b7c-7032-4e57-897b-6e4298e59b00" d="M321.45,154.7C282.62,125,273.26,49.84,273.26,49.84c-4.55,10.81-8.22,4.08-8.22,4.08s-4.3,4.83-5.15-9.67c0,0-4.7,42.82-51.55,45.16"/><path class="be179b7c-7032-4e57-897b-6e4298e59b00" d="M335.18,145.52C296.34,115.77,287,40.65,287,40.65c-4.55,10.81-8.22,4.08-8.22,4.08s-4.3,4.83-5.15-9.67c0,0-4.7,42.82-51.55,45.16"/><path class="be179b7c-7032-4e57-897b-6e4298e59b00" d="M348.38,137.85C309.55,108.1,300.19,33,300.19,33c-4.55,10.81-8.22,4.08-8.22,4.08s-4.3,4.83-5.15-9.67c0,0-4.7,42.82-51.55,45.16"/><line class="be179b7c-7032-4e57-897b-6e4298e59b00" x1="65.9" y1="169.72" x2="235.27" y2="72.55"/><path class="42c07104-eabf-44fb-820c-56c214bb8212" d="M340,130.34s8.82,3.23,14.13-.66c0,0,2.94,5.9-5.78,8.16l-9.59,5.5"/><line class="db619b85-ed43-4906-a3e5-aa351e643a32" x1="179.01" y1="235.03" x2="338.79" y2="143.35"/><line class="be179b7c-7032-4e57-897b-6e4298e59b00" x1="158.12" y1="233.81" x2="158.12" y2="341.48"/><line class="be179b7c-7032-4e57-897b-6e4298e59b00" x1="307.99" y1="225.73" x2="307.99" y2="198.4"/><line class="be179b7c-7032-4e57-897b-6e4298e59b00" x1="328.54" y1="198.4" x2="328.54" y2="225.73"/><line class="be179b7c-7032-4e57-897b-6e4298e59b00" x1="324.56" y1="152.45" x2="324.56" y2="220.02"/><line class="be179b7c-7032-4e57-897b-6e4298e59b00" x1="313.18" y1="155.23" x2="313.18" y2="229.13"/><line class="be179b7c-7032-4e57-897b-6e4298e59b00" x1="376.68" y1="167.14" x2="376.68" y2="192.47"/><line class="be179b7c-7032-4e57-897b-6e4298e59b00" x1="369.14" y1="126.83" x2="369.14" y2="189.43"/><line class="be179b7c-7032-4e57-897b-6e4298e59b00" x1="361.32" y1="127.14" x2="361.32" y2="195.62"/><polyline class="be179b7c-7032-4e57-897b-6e4298e59b00" points="89.86 209.93 94.4 201.71 152.93 233.2 158.12 247.09"/><g id="ad535672-f693-428a-a1df-e0f9c5f85df6" data-name="trigger_watching_poem"><g id="d7938a91-bbdd-4421-9d7c-ad1f4e29af46" data-name="women"><path class="99b34756-c0a9-4f56-94df-6b4ff1480bcf" d="M196.35,231.75S180,251.22,180.51,264c0,0,22.07,3.27,29.59-.09,0,0,.54-24.64-2.47-29.33C207.63,234.61,198.67,233.81,196.35,231.75Z"/><polygon class="0dfb88b4-3fb2-4ee0-8ea0-61c4c9dda2fa" points="198.23 231.47 206.41 235.04 207.78 233.25 198.23 231.47"/><path id="b93c3e88-1499-463f-bf30-02ca12b49cce" data-name="hand" class="99b34756-c0a9-4f56-94df-6b4ff1480bcf" d="M197.89,240.57s-1.63,14.73.78,18.78c0,0-8.41-15.81-4-24.11"/><path class="b86973c5-09d1-4f03-aef9-7411fa1deada" d="M180.38,264.41s10,18.11,16,31.73l5.8,1.37s6.43-23.33,7.32-33.35"/><line class="a9ff2e88-447a-4160-86b0-284fbaa6d095" x1="205.18" y1="252.42" x2="204.44" y2="263.78"/><g id="063da895-343d-4845-9f4b-e59d7d592ce0" data-name="head"><path class="ca19f88e-2c6e-49a3-b3ca-84c91ba09036" d="M214.53,229.73c5.17,1.37,10.57-4.07-3.59-8.69,0,0-1.87-1.87-1.9-1.84-.91.87-13.71,16.12-16.37,9.59,0,0,2.21,7.6,6.09,7.27l2.57-.54,13.12-5.71S214.49,229.72,214.53,229.73Z"/><path class="0dfb88b4-3fb2-4ee0-8ea0-61c4c9dda2fa" d="M208.85,224.31a.14.14,0,0,1,.17-.09c1,.19,7.87,1.07,7.17,6.26-.67,4.89-.71,5.1-.88,5.12h-.06l-2.54-.51a.15.15,0,0,0-.16.07l-2.64,5.17s-7.9-4.52-8.07-6.75c-.15-2,3.82-5.7,4.78-6.4a.14.14,0,0,0,0-.22c-.33-.36-1.23-1.46-.75-2.24.59-.95,2-.41,2.52,1.23C208.87,227.41,208.62,225,208.85,224.31Z"/><ellipse class="5e2f401c-4c40-409a-a358-60b57c5b5540" cx="212.73" cy="230.59" rx="0.23" ry="0.25" transform="translate(-95.13 291) rotate(-58.41)"/></g></g><path class="a106e4ee-87f6-4f63-820a-2f9d6aaba633" d="M202.77,295.14V299s7.2,2.28,11.25,0l-5.36-2.93Z"/><g id="84e0446b-8f31-48ba-ae63-b2be3ab28bd7" data-name="sign"><path class="cc5f25b9-ad75-4544-9637-48586ed58124" d="M239.67,217l-.5,10.68h-1.09l-.5-10.68Zm-.07,15.17h-2v-2.49h2Z"/></g><polygon class="11efc632-eb27-4596-af8a-ff72f79e5a39" points="174.44 283.27 174.36 272.06 207.8 291.37 207.8 302.62 174.44 283.27"/><polygon class="db619b85-ed43-4906-a3e5-aa351e643a32" points="174.36 272.06 256.62 224.56 289.08 243.3 207.8 291.37 174.36 272.06"/><polygon class="42c07104-eabf-44fb-820c-56c214bb8212" points="289.08 243.3 289.08 255.62 207.8 302.62 207.8 291.37 289.08 243.3"/><ellipse class="42c07104-eabf-44fb-820c-56c214bb8212" cx="216.37" cy="277.68" rx="3.52" ry="2.73" transform="translate(-109.85 145.39) rotate(-30)"/><path class="db619b85-ed43-4906-a3e5-aa351e643a32" d="M193.13,266.2c-.75-1.31,0-3.15,1.68-4.12s3.66-.7,4.41.6"/><line class="be179b7c-7032-4e57-897b-6e4298e59b00" x1="213.32" y1="279.44" x2="193.13" y2="266.2"/><line class="be179b7c-7032-4e57-897b-6e4298e59b00" x1="219.42" y1="275.92" x2="199.22" y2="262.69"/><polyline class="be179b7c-7032-4e57-897b-6e4298e59b00" points="271.69 248.73 248.18 235.19 199.88 263.07"/><line class="db619b85-ed43-4906-a3e5-aa351e643a32" x1="271.56" y1="248.66" x2="217.74" y2="280.04"/><g id="56524e82-0e1b-4657-9feb-fd40b6286e30" data-name="word"><path class="5b977b5f-b146-4b67-b1c4-4ac3c53e248d" d="M243.5,243.18A14.08,14.08,0,0,0,246,245a2.57,2.57,0,0,1,.69.26c.48.34.92.77,1.36,1.15.29.25.72-.18.42-.42a8.42,8.42,0,0,0-2.07-1.62c-.09,0-.2.05-.29,0a3.35,3.35,0,0,1-.74-.53l-1.62-1.17c-.31-.23-.61.29-.3.52Z"/></g><g id="9b5a224f-d392-4de1-9e04-9edbd2bedf5a" data-name="word"><path class="5b977b5f-b146-4b67-b1c4-4ac3c53e248d" d="M237.11,246c.59.51,1.89,1.24,2.25,1.92.15.28,0,.61.19.88.31.6.79.72,1.38.94a9.91,9.91,0,0,1,2.43.87c.46.31.76.79,1.27,1.08a4.76,4.76,0,0,0,2.84.55c.38,0,.39-.63,0-.6-2.26.19-3.36-1.49-5.16-2.36-1.4-.68.41,1.33-2.25-1.34,0,0,0-.13-.06-.18-.79-.76-1.63-1.48-2.47-2.19-.29-.25-.72.17-.42.42Z"/></g><g id="993b13c1-d082-41e4-9d9f-a5163ab1b1c0" data-name="word"><path class="5b977b5f-b146-4b67-b1c4-4ac3c53e248d" d="M233.39,247.4c1.14,1.56.23.58.43,1.72a5.08,5.08,0,0,0,1.68,2.6.3.3,0,0,0,.29.08c1.06-.42.82-1.23.08-1.94l-.29.5c1.49.54-.1,3,1.74,3a.29.29,0,0,0,.26-.15l.27-.32.23-.55-1.48-.91c-.25-.22-.65.06-.47.36,1.3,2.18,3.26,2.17,5,3.82.75.71,1.3,1.54,2.12,2.2,1.13.92,2.2,1.46,2.9,2.79.18.34.7,0,.52-.3-1-1.84-2.89-2.61-4.27-4.09a11,11,0,0,0-1.63-1.74c-1.54-1.08-3-1.19-4.11-3l-.47.36a5.45,5.45,0,0,0,1.74,1.06c.33.13.51-.38.23-.55l-.38-.24a.3.3,0,0,0-.41.11c0,.06-.34-1.67-.37-1.71a2,2,0,0,0-1.25-.8c-.29-.1-.5.3-.29.5s-2-.9-.73-1.39c.16-.06.31-.27.18-.44l-1-1.35c-.23-.31-.75,0-.52.3Z"/></g><g id="cff46ed8-9b03-463f-aa2e-0afb510cc62e" data-name="word"><path class="5b977b5f-b146-4b67-b1c4-4ac3c53e248d" d="M225.78,250.64a10.6,10.6,0,0,0,4.8,3.19c1.64.63,2.75,1.89,4.24,2.72a11.47,11.47,0,0,1,2.9,2.72c1,1.41.66,3.61,2.16,4.58.33.21.63-.31.3-.52-.93-.6-.64-2.39-1.11-3.34a4.8,4.8,0,0,0-.93-1.14c-.86-.91-1.49-2.28-2.45-3-.38-.29-.42.06-.65,0-1.26-.54-1.74-1.45-2.86-2.11a10.48,10.48,0,0,0-1.86-.55,9.25,9.25,0,0,1-4.11-2.92c-.25-.3-.67.13-.42.42Z"/></g><g id="507785e9-f894-4d22-b839-de6bd14d27c1" data-name="word"><path class="5b977b5f-b146-4b67-b1c4-4ac3c53e248d" d="M221.28,253.68c1.38.79,2.76,1.58,4.14,2.39,1.19.7,2.61,2.43,3.89,2.53a.29.29,0,0,0-.26.15c-.36.71.11.84.45,1.48l.52-.3c-.51-.68-1-1.35-1.56-2l-.42.42a15.85,15.85,0,0,0,3.4,2.64.3.3,0,0,0,.44-.34c-.27-.89-.11-.66-.83-1.25a.3.3,0,0,0-.42.42c1.71,2.07,3,4.3,4.82,6.38.25.29.68-.13.42-.42-1.77-2.06-3.1-4.3-4.82-6.38l-.42.42c1.1.89-1.88-1.61-2.16-1.9s-.66.13-.42.42q.77.92,1.47,1.89a.3.3,0,0,0,.52-.3c-.06-.1-.34-.69-.52-.71.29,0,.36-.33.21-.51-2.06-2.54-5.35-3.93-8.14-5.53a.3.3,0,0,0-.3.52Z"/></g><g id="82709afb-f3a7-4126-b950-54112b046801" data-name="word"><path class="5b977b5f-b146-4b67-b1c4-4ac3c53e248d" d="M215.77,257.37c1.22.29,1.55,1.4,2.66.52a.3.3,0,0,0,.08-.29l-.09-.46c-.08-.38-.65-.22-.58.16.18,1,0,.62.6,1.45a.31.31,0,0,0,.47.06c.72-.66,4.56,3.75,4.16,3.44.66.53,1.65.85,2.24,1.39s1,1.4,1.87,2,1.68.77,2.35,1.7c.48.68.74,1.66,1.21,2.38.21.32.73,0,.52-.3-.76-1.15-.89-2.71-1.7-3.77-.19-.25-.52-.05-.76-.24-1-.73-2.2-1.65-3.07-2.33-.14-.11-.19-.35-.34-.46s-.49-.18-.69-.33a1.84,1.84,0,0,1-.69-.5,1.19,1.19,0,0,1-.85-1.3,11.87,11.87,0,0,0-3.55-2.39c-.22-.1-.59,0-.76-.08a18.41,18.41,0,0,0-2.92-1.27c-.38-.09-.54.49-.16.58Z"/></g><g id="8072db0d-1748-4682-9097-530fae261739" data-name="word"><path class="5b977b5f-b146-4b67-b1c4-4ac3c53e248d" d="M210.23,259.13a13.58,13.58,0,0,0,3.64,3.64.3.3,0,0,0,.44-.18c.14-.52.87.75,1,.9.81.74,2.16,1,3.08,1.53,2.49,1.52,4.3,4.13,6.72,5.86.31.23.61-.29.3-.52-2.41-1.73-4.22-4.57-6.74-6-.41-.24-.43-.19-.81-.39-1-.55-1.76-1.19-2.75-1.82-.54-.35-.15-.44-.84-.61a.31.31,0,0,0-.37.21c-.22.8-3.27-3-3.18-2.89-.22-.32-.74,0-.52.3Z"/></g><g id="2248eada-8bf8-4f08-b9bb-8a1eedd7c816" data-name="word"><path class="5b977b5f-b146-4b67-b1c4-4ac3c53e248d" d="M206.42,262.62c1-.17,1.77,2.64,3.52,2.39a.3.3,0,0,0,.07-.55l-.61-.29a.3.3,0,0,0-.44.34l.18.11a.3.3,0,0,0-.29.08l-.23.27a.3.3,0,0,0-.08.29,3.78,3.78,0,0,0,1.3,1.92.29.29,0,0,0,.3,0c2-1.46,3.64,2.14,4.66,2.81,1.32.87,2.88.39,4.23,1.42s1.69,2.22,3.38,2.56c.38.08.54-.5.16-.58-2.13-.43-2.71-2.83-4.74-3.47.24.07-2-.25-1.71-.16-1.2-.41-1.31-1.19-2-2a.3.3,0,0,0-.36,0c-.2.13-1.79-1.44-2.39-1.51a4.81,4.81,0,0,1-.72,0l-.07,0q-1,.88-1.26-1a.3.3,0,0,0,.37-.37c-.33-1.62-1.78-3.13-3.38-2.86-.38.06-.22.64.16.58Z"/></g><g id="1beb95c0-85f3-451b-acd8-fb70e10dbdb6" data-name="stamp"><polygon class="cc5f25b9-ad75-4544-9637-48586ed58124" points="255.58 248.92 260.05 252.47 264.7 249.38 260.42 245.79 255.58 248.92"/><path class="53ae48bc-f7db-4c72-b229-7d0c26e41179" d="M261.77,248.09s-2-1-1.62-.23-.67.62-1.08.42-1.27-.94-.88.17-.26.92-.26.92l-.83-.49,2.78,2.78,3.77-2.53s-.88-1.58-1.56-.36-.81,2.23-1.2.84c0-.11-.07-.22-.11-.32-.42-1.1-1.13-1.24-.15-1.15s1.79-.16,1.14.44a6.67,6.67,0,0,1-1.62.78c-.62.26-1.1.51-.87.83.44.62.7,1.79,1.09.68s-3.07-.42-1.64-2.47,2.76-1.07,2.76-1.07"/></g><rect id="def24694-a44c-40a0-82ad-f29dca783c0c" data-name="hidden" class="0ab55c0a-cc5a-4f97-94d6-6d970f205839" x="173.63" y="211.38" width="115.45" height="89.83"/></g><polyline class="db619b85-ed43-4906-a3e5-aa351e643a32" points="313.18 177.69 306.6 167.12 174.77 243.16 169.49 257 169.49 229.76 179.01 236.33 313.18 158.13 313.18 177.69"/><polygon class="42c07104-eabf-44fb-820c-56c214bb8212" points="65.9 281.27 66.54 267.8 179.18 334.32 179.16 349.01 65.9 281.27"/><polygon class="11efc632-eb27-4596-af8a-ff72f79e5a39" points="179.16 349.01 320.03 265.34 320.03 251.31 179.18 334.32 179.16 349.01"/><polygon class="42c07104-eabf-44fb-820c-56c214bb8212" points="376.08 199.37 376.08 186.38 291.82 235.82 302.2 241.52 376.08 199.37"/><polygon class="42c07104-eabf-44fb-820c-56c214bb8212" points="94.4 207.47 94.4 202.53 89.86 211.03 89.86 281.57 94.48 284.3 94.4 207.47"/><polygon class="42c07104-eabf-44fb-820c-56c214bb8212" points="174.43 255 174.43 244.05 169.9 258.55 169.9 329.1 174.51 331.82 174.43 255"/><polygon class="42c07104-eabf-44fb-820c-56c214bb8212" points="306.6 167.12 309.7 180.21 309.7 225.52 313.4 222.69 313.18 178.28 306.6 167.12"/><polygon class="42c07104-eabf-44fb-820c-56c214bb8212" points="353.33 135.25 355.77 152.27 355.77 197.58 361.44 195.01 361.13 130.27 353.33 135.25"/><polygon class="42c07104-eabf-44fb-820c-56c214bb8212" points="82.06 290.94 82.06 308.19 164.76 356.58 164.76 340.4 82.06 290.94"/><line class="be179b7c-7032-4e57-897b-6e4298e59b00" x1="164.76" y1="356.58" x2="175.22" y2="350.66"/><polygon class="db619b85-ed43-4906-a3e5-aa351e643a32" points="174.51 260.79 187.5 235.82 174.77 243.16 174.51 260.79"/><path class="0dfb88b4-3fb2-4ee0-8ea0-61c4c9dda2fa" d="M127.59,227.25s6.35-2.79,8.51,2.49,1.41,5.41,1.41,5.41l-2.4,1,.28,7.91s-9.52,0-10.75-1.84,1.87-9.86,1.87-9.86-1.86-.45-1.85-1.59,1.39-1.41,2.62-.28S127.59,227.25,127.59,227.25Z"/><path class="ca19f88e-2c6e-49a3-b3ca-84c91ba09036" d="M134.8,227.47s-1.36-5.07-2.85-5.56l-.82,1s-4.64-.81-5.52.4a12.59,12.59,0,0,1-2.29,2.26s.71,3.15,0,3.4,4.11,2.09,4.11,2.09l-.32-3.57,2.47-1.12,3.23.13Z"/><path class="0dfb88b4-3fb2-4ee0-8ea0-61c4c9dda2fa" d="M125.33,241.6s-13.29,18-11.95,29.11c0,0,19.93,1.38,26.41-2,0,0-1.19-21.45-4.2-25.34C135.59,243.34,127.54,243.24,125.33,241.6Z"/><path class="b86973c5-09d1-4f03-aef9-7411fa1deada" d="M113.29,270.34s10.13,17.3,16.43,30.43l5.27.92s4.15-23.75,4.27-33.81"/><line class="bbb4fc07-5040-4a9d-a330-f1753317a928" x1="133.58" y1="230.08" x2="132.44" y2="231.04"/><path class="a106e4ee-87f6-4f63-820a-2f9d6aaba633" d="M129.21,300.92v3.85s6.75,2.28,10.55,0l-5-2.93Z"/><rect class="9b93d7d8-dc8b-4963-a497-c6eb0218de27" x="124.04" y="227.97" width="3.74" height="1.53" rx="0.67" ry="0.67"/><path class="0dfb88b4-3fb2-4ee0-8ea0-61c4c9dda2fa" d="M134.47,248.56s5.86,13.09,9.78,15.13c0,0-14.51-8.49-15-17.77"/><path class="42c07104-eabf-44fb-820c-56c214bb8212" d="M124.81,242.92s8.13,3.41,11.45,1.63l-.67-1.2s-8.9-.25-10.27-1.74Z"/><path class="0dfb88b4-3fb2-4ee0-8ea0-61c4c9dda2fa" d="M289.56,189.47s-5.86-2.6-7.85,2.32-1.3,5-1.3,5l2.21.9-.26,7.37s8.78,0,9.91-1.71-1.73-9.19-1.73-9.19,1.71-.42,1.71-1.48-1.28-1.32-2.41-.26S289.56,189.47,289.56,189.47Z"/><circle class="5e2f401c-4c40-409a-a358-60b57c5b5540" cx="284.32" cy="192.19" r="0.21"/><path class="ca19f88e-2c6e-49a3-b3ca-84c91ba09036" d="M282.91,189.67s1.26-4.73,2.63-5.18l.76.9s4.28-.75,5.09.38a11.66,11.66,0,0,0,2.12,2.11s-.65,2.94,0,3.16-3.79,2-3.79,2l.29-3.33-2.28-1-3,.12Z"/><path class="0dfb88b4-3fb2-4ee0-8ea0-61c4c9dda2fa" d="M292.27,202.84S305.1,222.09,303.8,234c0,0-19.23,1.47-25.5-2.18,0,0,1.15-22.93,4.05-27.08C282.36,204.7,290.14,204.59,292.27,202.84Z"/><path class="b86973c5-09d1-4f03-aef9-7411fa1deada" d="M303.9,234.31s-9.78,16.12-15.86,28.35l-5.09.86s-4-22.14-4.12-31.5"/><path class="a106e4ee-87f6-4f63-820a-2f9d6aaba633" d="M288,262.66v3.59s-6.22,2.12-9.73,0l4.64-2.73Z"/><rect class="9b93d7d8-dc8b-4963-a497-c6eb0218de27" x="289.38" y="190.13" width="3.45" height="1.43" rx="0.67" ry="0.67" transform="translate(582.21 381.69) rotate(-180)"/><path class="0dfb88b4-3fb2-4ee0-8ea0-61c4c9dda2fa" d="M283.21,209.32s-5.4,12.2-9,14.09c0,0,13.38-7.92,13.84-16.56"/></g><g id="ac616905-e4bd-4be2-a54d-d16374c9f51e" data-name="island_3"><polygon class="5e2f401c-4c40-409a-a358-60b57c5b5540" points="240.9 340.12 155.91 388.75 239.94 437.27 324.66 388.69 240.9 340.12"/><polygon class="cb6804d9-eac8-4235-a7cf-69d1a373da30" points="155.84 409.79 155.91 388.75 239.94 437.27 240.21 458.33 155.84 409.79"/><polygon class="35fb2586-8bac-4b30-8a74-967b685f51b6" points="324.9 409.2 324.66 388.69 239.94 437.27 240.28 458.87 324.9 409.2"/><g id="b74bfd9d-a757-4483-9b62-8397cdbfd641" data-name="trigger_man_lucky"><g id="b8845d6c-1d9a-4f53-8655-a984063080d2" data-name="lucky_box"><polygon class="be179b7c-7032-4e57-897b-6e4298e59b00" points="240.28 368.39 253.38 375.95 266.31 368.39 253.21 360.88 240.28 368.39"/><g id="60140a7c-d81c-4ae2-a9e3-0081baaeebbe" data-name="luckybar"><rect class="db619b85-ed43-4906-a3e5-aa351e643a32" x="243.96" y="346.38" width="3.37" height="54.26"/><rect class="3d7806db-2bbd-4305-b2fa-f3f9557d3562" x="243.96" y="346.38" width="3.37" height="11.76"/></g><g id="80d24314-f97d-4fce-95f2-214ad745aaac" data-name="luckybar"><rect class="db619b85-ed43-4906-a3e5-aa351e643a32" x="250.51" y="336.73" width="3.37" height="54.26" transform="matrix(1, 0.03, -0.03, 1, 12.63, -8.44)"/><rect class="3d7806db-2bbd-4305-b2fa-f3f9557d3562" x="251.24" y="336.74" width="3.37" height="11.76" transform="translate(11.9 -8.47) rotate(1.97)"/></g><g id="a695192f-c97c-44d0-8b5b-ff8d6ea0b773" data-name="luckybar"><rect class="db619b85-ed43-4906-a3e5-aa351e643a32" x="250.51" y="352.31" width="3.37" height="54.26" transform="translate(-18.8 13.19) rotate(-2.89)"/><rect class="3d7806db-2bbd-4305-b2fa-f3f9557d3562" x="249.44" y="352.33" width="3.37" height="11.76" transform="translate(-17.73 13.11) rotate(-2.89)"/></g><g id="3900f99c-4c19-4f83-8de5-6406dfc777bb" data-name="luckybar"><rect class="db619b85-ed43-4906-a3e5-aa351e643a32" x="259.34" y="342.49" width="3.37" height="54.26" transform="translate(-7.72 5.58) rotate(-1.21)"/><rect class="3d7806db-2bbd-4305-b2fa-f3f9557d3562" x="258.89" y="342.5" width="3.37" height="11.76" transform="matrix(1, -0.02, 0.02, 1, -7.28, 5.56)"/></g><polygon class="11efc632-eb27-4596-af8a-ff72f79e5a39" points="240.28 403.38 240.28 368.42 253.38 375.98 253.29 410.9 240.28 403.38"/><g id="edb6ed8e-308d-46d2-b71a-ec31234587a5" data-name="luckybar"><rect class="db619b85-ed43-4906-a3e5-aa351e643a32" x="256.18" y="347.58" width="3.37" height="54.26" transform="translate(16.12 -10.6) rotate(2.43)"/><rect class="3d7806db-2bbd-4305-b2fa-f3f9557d3562" x="257.09" y="347.6" width="3.37" height="11.76" transform="matrix(1, 0.04, -0.04, 1, 15.22, -10.65)"/></g><polygon class="db619b85-ed43-4906-a3e5-aa351e643a32" points="266.31 368.42 266.31 403.38 253.29 410.9 253.38 375.98 266.31 368.42"/><line class="11efc632-eb27-4596-af8a-ff72f79e5a39" x1="240.28" y1="401.09" x2="253.38" y2="408.65"/><line class="db619b85-ed43-4906-a3e5-aa351e643a32" x1="253.38" y1="408.65" x2="266.31" y2="401.09"/></g><g id="58b84c9a-69d8-4255-b9f9-465545dbb790" data-name="sign"><path class="cc5f25b9-ad75-4544-9637-48586ed58124" d="M259.81,317.59l-.5,10.68h-1.09l-.5-10.68Zm-.07,15.17h-2v-2.49h2Z"/></g><path class="0dfb88b4-3fb2-4ee0-8ea0-61c4c9dda2fa" d="M213.53,325.12s6.35-2.79,8.51,2.49,1.41,5.41,1.41,5.41l-2.4,1,.28,7.91s-9.52,0-10.75-1.84,1.87-9.86,1.87-9.86-1.86-.45-1.85-1.59,1.39-1.41,2.62-.28S213.53,325.12,213.53,325.12Z"/><circle class="5e2f401c-4c40-409a-a358-60b57c5b5540" cx="219.21" cy="328.04" r="0.23"/><path class="ca19f88e-2c6e-49a3-b3ca-84c91ba09036" d="M220.74,325.34s-1.36-5.07-2.85-5.56l-.82,1s-4.64-.81-5.52.4a12.59,12.59,0,0,1-2.29,2.26s.71,3.15,0,3.4,4.11,2.09,4.11,2.09l-.32-3.57,2.47-1.12,3.23.13Z"/><path class="0dfb88b4-3fb2-4ee0-8ea0-61c4c9dda2fa" d="M210.59,339.47s-13.91,20.66-12.51,33.39c0,0,20.86,1.58,27.66-2.34,0,0-1.25-24.61-4.4-29.06C221.34,341.47,212.9,341.35,210.59,339.47Z"/><path class="b86973c5-09d1-4f03-aef9-7411fa1deada" d="M198,373.24s10.61,17.3,17.21,30.43l5.52.92s4.35-23.75,4.47-33.81"/><path class="a106e4ee-87f6-4f63-820a-2f9d6aaba633" d="M215.18,403.67v3.85s6.75,2.28,10.55,0l-5-2.93Z"/><rect class="9b93d7d8-dc8b-4963-a497-c6eb0218de27" x="209.98" y="325.83" width="3.74" height="1.53" rx="0.67" ry="0.67"/><g id="70b64ba0-e700-4212-8e34-700aaf6ad31a" data-name="man_hand"><rect class="db619b85-ed43-4906-a3e5-aa351e643a32" x="233.62" y="316.65" width="3.37" height="54.26" transform="translate(217.79 -72.45) rotate(31.98)"/><rect class="3d7806db-2bbd-4305-b2fa-f3f9557d3562" x="244.88" y="319.88" width="3.37" height="11.76" transform="translate(209.96 -81.15) rotate(31.98)"/><path class="0dfb88b4-3fb2-4ee0-8ea0-61c4c9dda2fa" d="M220.41,346.43s5.86,13.09,9.78,15.13c0,0-14.51-8.49-15-17.77"/></g><g id="59706ebc-ac50-4ffd-84ad-7437c14a739a" data-name="dialog"><polygon class="0dfb88b4-3fb2-4ee0-8ea0-61c4c9dda2fa" points="195.59 329.14 202.23 332.22 195.59 336.05 195.59 350.56 140.04 350.66 140.04 322.57 195.59 323.86 195.59 329.14"/><text class="5baff702-4e25-4538-b86a-4b648ae48cf3" transform="translate(148.77 344.52)">大吉</text></g><rect id="786ce372-e96b-43fb-add6-8387721875ec" data-name="hidden" class="0ab55c0a-cc5a-4f97-94d6-6d970f205839" x="139.26" y="316.64" width="147.01" height="94.07"/></g></g></g></g></svg>