<svg xmlns="http://www.w3.org/2000/svg" viewBox="0 0 608.32 490"><defs><style>.\30 75d5c52-4272-4691-9a00-12e4039843af{isolation:isolate;}.\30 fd23cf5-014e-4183-a3fc-0a116ef5ddf3,.\36 ae34954-f16a-4838-9bcc-f5ba6b5e3c81,.\38 27ea4d7-c722-4afc-b022-703deb0b55bb,.ae7f0b15-2259-4417-bf8e-044e1bc28509,.cf181c6a-0261-4884-80dd-4801bd540784{fill:#c92028;}.\30 c502ddf-9e2a-43aa-9de2-bbdf69851a47,.\32 ec1e55a-2886-4358-b628-26a7a0f3df85,.\34 183978f-5077-45d4-83d8-7c06e696d2a5,.\34 32b254e-9481-415d-a55d-c098d07c8e9b,.\35 4eac6b3-c18c-4cac-9301-8ece8d1c9900,.\36 ae34954-f16a-4838-9bcc-f5ba6b5e3c81,.\37 d74c22a-783a-45a4-ae59-c2a0c5f44ea8,.ae7f0b15-2259-4417-bf8e-044e1bc28509,.cf181c6a-0261-4884-80dd-4801bd540784,.d528a6b3-8ae0-41b9-95df-72e9da279027,.d73cfbc2-b85b-4723-9135-30c968f7730f,.e334cd2e-7a2c-44fb-ad22-58e4ece0a8eb,.ee378f5a-103d-4454-b761-098bf55cb6c1{stroke:#1a1a1a;}.\32 ec1e55a-2886-4358-b628-26a7a0f3df85,.\34 183978f-5077-45d4-83d8-7c06e696d2a5,.\35 5177613-0a72-4526-b381-cd730bd49de9,.\37 d74c22a-783a-45a4-ae59-c2a0c5f44ea8,.cf181c6a-0261-4884-80dd-4801bd540784,.cfe9b79e-9d3a-4dc4-a932-171e6dd582ed,.d528a6b3-8ae0-41b9-95df-72e9da279027,.ee378f5a-103d-4454-b761-098bf55cb6c1,.ef2ee371-750a-455e-b715-c03cff1166ca{stroke-miterlimit:10;}.\34 183978f-5077-45d4-83d8-7c06e696d2a5,.\34 32b254e-9481-415d-a55d-c098d07c8e9b,.\35 4eac6b3-c18c-4cac-9301-8ece8d1c9900,.\36 ae34954-f16a-4838-9bcc-f5ba6b5e3c81,.\37 d74c22a-783a-45a4-ae59-c2a0c5f44ea8,.ae7f0b15-2259-4417-bf8e-044e1bc28509,.cf181c6a-0261-4884-80dd-4801bd540784,.d528a6b3-8ae0-41b9-95df-72e9da279027,.d73cfbc2-b85b-4723-9135-30c968f7730f,.e334cd2e-7a2c-44fb-ad22-58e4ece0a8eb,.ee378f5a-103d-4454-b761-098bf55cb6c1{stroke-width:0.8px;}.\32 ec1e55a-2886-4358-b628-26a7a0f3df85,.cfe9b79e-9d3a-4dc4-a932-171e6dd582ed,.d528a6b3-8ae0-41b9-95df-72e9da279027,.d73cfbc2-b85b-4723-9135-30c968f7730f{fill:#fff;}.\30 c502ddf-9e2a-43aa-9de2-bbdf69851a47,.\34 32b254e-9481-415d-a55d-c098d07c8e9b,.\35 4eac6b3-c18c-4cac-9301-8ece8d1c9900,.\36 ae34954-f16a-4838-9bcc-f5ba6b5e3c81,.d73cfbc2-b85b-4723-9135-30c968f7730f,.e334cd2e-7a2c-44fb-ad22-58e4ece0a8eb{stroke-linecap:round;}.\30 c502ddf-9e2a-43aa-9de2-bbdf69851a47,.\34 32b254e-9481-415d-a55d-c098d07c8e9b,.\35 4eac6b3-c18c-4cac-9301-8ece8d1c9900,.\36 ae34954-f16a-4838-9bcc-f5ba6b5e3c81,.ae7f0b15-2259-4417-bf8e-044e1bc28509,.d73cfbc2-b85b-4723-9135-30c968f7730f,.e334cd2e-7a2c-44fb-ad22-58e4ece0a8eb{stroke-linejoin:round;}.\37 d74c22a-783a-45a4-ae59-c2a0c5f44ea8,.c224d712-692c-4ec4-a003-ff640c87d47f,.e334cd2e-7a2c-44fb-ad22-58e4ece0a8eb{fill:#1a1a1a;}.\30 c502ddf-9e2a-43aa-9de2-bbdf69851a47,.\34 183978f-5077-45d4-83d8-7c06e696d2a5,.\34 32b254e-9481-415d-a55d-c098d07c8e9b,.ef2ee371-750a-455e-b715-c03cff1166ca{fill:none;}.ef2ee371-750a-455e-b715-c03cff1166ca{stroke:#e6e6e6;stroke-width:0.75px;}.\35 4eac6b3-c18c-4cac-9301-8ece8d1c9900,.ee378f5a-103d-4454-b761-098bf55cb6c1{fill:#fff5f6;}.\30 fd23cf5-014e-4183-a3fc-0a116ef5ddf3{mix-blend-mode:multiply;}.\35 5177613-0a72-4526-b381-cd730bd49de9,.cfe9b79e-9d3a-4dc4-a932-171e6dd582ed{stroke:#000;}</style></defs><title>scene</title><g class="075d5c52-4272-4691-9a00-12e4039843af"><g id="0b5a31fa-d8d3-4e30-8a8e-0db803efea12" data-name="圖層 1"><g id="5d8f863d-eaa9-49a1-8ba5-40ac8f19e9ee" data-name="island_3"><polygon class="cf181c6a-0261-4884-80dd-4801bd540784" points="189.28 270.09 189.28 283.39 85.87 344.37 86.33 329.98 189.28 270.09"/><polygon class="cf181c6a-0261-4884-80dd-4801bd540784" points="114.51 297.75 89.58 286.34 89.58 268.99 114.97 283.37 114.51 297.75"/><polygon class="d528a6b3-8ae0-41b9-95df-72e9da279027" points="114.74 283.31 89.58 268.99 139.89 240.34 189.28 270.09 86.11 330.36 59.49 315 114.74 283.31"/><polygon class="d528a6b3-8ae0-41b9-95df-72e9da279027" points="59.49 315 86.11 330.36 85.87 344.37 59.49 328.35 59.49 315"/><g id="93c65848-1479-4804-afbe-7d87b3c1981d" data-name="trigger_man_goodbye"><path class="d73cfbc2-b85b-4723-9135-30c968f7730f" d="M136.58,193.45s5.87-2.8,7.87,2.5,1.3,5.43,1.3,5.43l-2.22,1,.26,7.94s-8.8,0-9.94-1.84,1.73-9.9,1.73-9.9-1.72-.46-1.71-1.59,1.28-1.42,2.42-.28S136.58,193.45,136.58,193.45Z"/><circle class="d528a6b3-8ae0-41b9-95df-72e9da279027" cx="141.62" cy="197.65" r="0.21"/><path class="7d74c22a-783a-45a4-ae59-c2a0c5f44ea8" d="M142.77,193.45s-1.1-4.45-2.29-4.88l-.66.85s-3.73-.71-4.44.35a10.58,10.58,0,0,1-1.84,2s.57,2.77,0,3,3.31,1.84,3.31,1.84l-.25-3.13,2-1,2.6.11Z"/><path class="d73cfbc2-b85b-4723-9135-30c968f7730f" d="M133.86,208.43S121,227.53,122.3,239.3c0,0,19.28,1.46,25.56-2.16,0,0-1.15-22.75-4.07-26.86C143.8,210.28,136,210.17,133.86,208.43Z"/><polygon class="d73cfbc2-b85b-4723-9135-30c968f7730f" points="134.18 208.93 136.31 212.23 142.46 210.58 134.18 208.93"/><polygon class="ae7f0b15-2259-4417-bf8e-044e1bc28509" points="142.35 210.28 140.68 222.65 143.17 227.63 145.13 223.57 142.35 210.28"/><path id="54a96172-92d4-4aba-9ad7-92464589456f" data-name="hand" class="d73cfbc2-b85b-4723-9135-30c968f7730f" d="M138.32,213.44s13.26-.25,16.4-2.86c0,0-12.47,9.28-20.54,6.36"/><path class="e334cd2e-7a2c-44fb-ad22-58e4ece0a8eb" d="M122.21,239.65s9.81,16,15.91,28.13l5.1.85s4-22,4.13-31.25"/><line class="432b254e-9481-415d-a55d-c098d07c8e9b" x1="142.85" y1="226.86" x2="142.96" y2="237.38"/><path class="0c502ddf-9e2a-43aa-9de2-bbdf69851a47" d="M138.11,267.78v3.56s6.24,2.11,9.75,0l-4.65-2.71Z"/><g id="351e1626-6b78-4e73-818e-059ae19a4a5a" data-name="sign"><path class="827ea4d7-c722-4afc-b022-703deb0b55bb" d="M155.41,187.58l-.47,10h-1l-.47-10Zm-.06,14.27h-1.84v-2.35h1.84Z"/></g><rect id="e29deb09-3cf2-419b-97a0-19dc6410ff19" data-name="hidden" class="ef2ee371-750a-455e-b715-c03cff1166ca" x="114.6" y="179.84" width="59.43" height="98.41"/><g id="6d24f591-b50d-451e-97fe-b6817212e275" data-name="child"><path class="cf181c6a-0261-4884-80dd-4801bd540784" d="M160.39,250.47s4.79,12.48,2.13,13.71-9.85.85-9.52-4.42a34.31,34.31,0,0,1,2.41-10.1Z"/><ellipse class="2ec1e55a-2886-4358-b628-26a7a0f3df85" cx="158.15" cy="247.2" rx="4.66" ry="4.98"/><ellipse class="d528a6b3-8ae0-41b9-95df-72e9da279027" cx="159.61" cy="245.15" rx="0.18" ry="0.2"/><path class="d528a6b3-8ae0-41b9-95df-72e9da279027" d="M153.49,262.15s4.47,6.89,5.8,10.4h1.22l2.75-8.83S157,264.27,153.49,262.15Z"/><path class="d528a6b3-8ae0-41b9-95df-72e9da279027" d="M159.11,272.56v1.85h3.33s1.81-1,0-1.85-2,0-2,0Z"/><path class="cf181c6a-0261-4884-80dd-4801bd540784" d="M159.79,253.71s5.38-4.62,5.83-6-2.2,7.7-5.22,7.69"/><polygon class="e334cd2e-7a2c-44fb-ad22-58e4ece0a8eb" points="159.42 242.22 158.15 240.31 152.56 242.22 150.33 247.2 151.35 249.9 155.46 249.78 155.46 247.2 157.63 244.41 159.42 242.22"/></g></g></g><g id="74859f6b-f4d2-463c-9439-b148b395e36d" data-name="island_1"><polygon class="4183978f-5077-45d4-83d8-7c06e696d2a5" points="327.63 123.99 249.42 169.15 327.63 214.31 188.26 295.45 370.76 400.82 588.35 274.52 327.63 123.99"/><polygon class="4183978f-5077-45d4-83d8-7c06e696d2a5" points="188.26 295.45 188.26 302.98 370.76 408.35 370.76 400.82 188.26 295.45"/><polygon class="cf181c6a-0261-4884-80dd-4801bd540784" points="370.76 400.82 370.76 408.35 588.35 282.04 588.35 274.52 370.76 400.82"/><polyline class="4183978f-5077-45d4-83d8-7c06e696d2a5" points="321.11 218.07 249.42 176.68 249.42 169.15"/><line class="4183978f-5077-45d4-83d8-7c06e696d2a5" x1="289.22" y1="70.07" x2="289.22" y2="176.28"/><line class="4183978f-5077-45d4-83d8-7c06e696d2a5" x1="496.84" y1="191.03" x2="485.01" y2="284.88"/><line class="4183978f-5077-45d4-83d8-7c06e696d2a5" x1="548.07" y1="267.66" x2="548.07" y2="161.46"/><line class="4183978f-5077-45d4-83d8-7c06e696d2a5" x1="340.61" y1="40.39" x2="340.61" y2="146.6"/><polygon class="2ec1e55a-2886-4358-b628-26a7a0f3df85" points="294.96 263.18 291.93 265.02 312.28 276.75 315.61 275.17 294.96 263.18"/><polygon class="2ec1e55a-2886-4358-b628-26a7a0f3df85" points="331.51 285.7 328.47 287.54 348.82 299.27 352.15 297.69 331.51 285.7"/><polygon class="2ec1e55a-2886-4358-b628-26a7a0f3df85" points="371.75 308.56 368.71 310.4 389.07 322.14 392.4 320.55 371.75 308.56"/><polygon class="2ec1e55a-2886-4358-b628-26a7a0f3df85" points="409.73 331.68 406.69 333.52 427.04 345.25 430.37 343.67 409.73 331.68"/><polygon class="ee378f5a-103d-4454-b761-098bf55cb6c1" points="240.56 332.7 240.56 355.58 266.63 369.65 266.63 399.76 344.85 447.03 344.85 414.81 370.92 429.86 370.92 407.29 240.56 332.7"/><polygon class="cf181c6a-0261-4884-80dd-4801bd540784" points="344.55 415.67 344.55 446.31 390.18 419.44 370.63 408.15 370.63 430.73 344.55 415.67"/><polyline class="cf181c6a-0261-4884-80dd-4801bd540784" points="340.24 40.61 340.45 146.7 289.22 176.28 289.01 70.19 340.24 40.61 292.52 70.07 289.22 176.28 292.52 70.07"/><polyline class="0fd23cf5-014e-4183-a3fc-0a116ef5ddf3" points="548.68 161.46 548.89 267.54 485.01 284.88 497.45 191.03 548.68 161.46 500.96 190.91 485.01 284.88 500.96 190.91"/><polyline class="cf181c6a-0261-4884-80dd-4801bd540784" points="390.18 419.44 574.99 312.04 574.99 289.8 370.63 408.15"/><polyline class="d73cfbc2-b85b-4723-9135-30c968f7730f" points="507.74 199.65 507.74 297.89 507.74 199.65 555.13 172.29 507.74 199.65 507.74 297.89 555.13 270.53 555.13 172.29 549.88 169.38 502.33 196.66 507.74 199.65"/><polygon class="d73cfbc2-b85b-4723-9135-30c968f7730f" points="502.33 196.66 507.74 199.65 507.74 297.89 492.42 287.74 502.33 196.66"/><polygon class="4183978f-5077-45d4-83d8-7c06e696d2a5" points="289.22 70.07 496.84 191.03 548.07 161.46 340.61 40.39 289.22 70.07"/><g id="7919933d-6faa-4870-9fca-355ab39f94aa" data-name="trigger_airplane"><g id="84a6d5c0-4912-463f-b7a0-0e08f1cea30c" data-name="sign"><path class="827ea4d7-c722-4afc-b022-703deb0b55bb" d="M433.17,283.72l-.47,10h-1l-.47-10ZM433.11,298h-1.84v-2.35h1.84Z"/></g><g id="2032b974-b0e3-4134-97c1-79930d060735" data-name="airplane"><path class="55177613-0a72-4526-b381-cd730bd49de9" d="M356.15,294.06H360s8,7.64,0,14.74h-3.88Z"/><ellipse class="55177613-0a72-4526-b381-cd730bd49de9" cx="356.94" cy="301.43" rx="5.26" ry="7.37"/><ellipse class="cfe9b79e-9d3a-4dc4-a932-171e6dd582ed" cx="356.94" cy="301.43" rx="2.92" ry="4.1"/><ellipse class="cfe9b79e-9d3a-4dc4-a932-171e6dd582ed" cx="356.94" cy="301.43" rx="1.2" ry="1.68"/><polygon class="cfe9b79e-9d3a-4dc4-a932-171e6dd582ed" points="334.8 313.78 357.62 302.81 356.94 299.75 334.21 310.64 334.8 313.78"/><path class="55177613-0a72-4526-b381-cd730bd49de9" d="M333.42,304.95h3.88s8,7.64,0,14.74h-3.88Z"/><ellipse class="55177613-0a72-4526-b381-cd730bd49de9" cx="334.21" cy="312.32" rx="5.26" ry="7.37"/><ellipse class="cfe9b79e-9d3a-4dc4-a932-171e6dd582ed" cx="334.21" cy="312.32" rx="2.92" ry="4.1"/><ellipse class="cfe9b79e-9d3a-4dc4-a932-171e6dd582ed" cx="334.21" cy="312.32" rx="1.2" ry="1.68"/><polygon class="cf181c6a-0261-4884-80dd-4801bd540784" points="423.75 191.38 433.94 207.56 442.78 212.67 425.49 189.55 423.75 191.38"/><path class="d528a6b3-8ae0-41b9-95df-72e9da279027" d="M407.12,267.6s-6.35-2.74-10.51-1.74-4.37,4.33-4.65,6-1.76,7.47,6.14,8.84,9,0,9,0"/><path class="2ec1e55a-2886-4358-b628-26a7a0f3df85" d="M392.59,268.84s-2.09-10,0-12.43h3.65s2,8.83,4.76,10Z"/><path class="2ec1e55a-2886-4358-b628-26a7a0f3df85" d="M396.24,256.41h2.06s2.34,8.43,3.88,9.22-1.18.82-1.18.82S397,263.69,396.24,256.41Z"/><ellipse class="d528a6b3-8ae0-41b9-95df-72e9da279027" cx="405.33" cy="274.17" rx="5.11" ry="6.84"/><ellipse class="c224d712-692c-4ec4-a003-ff640c87d47f" cx="405.33" cy="274.17" rx="3.59" ry="4.81"/><path class="d528a6b3-8ae0-41b9-95df-72e9da279027" d="M436.66,232.74S430.32,230,426.15,231s-4.37,4.33-4.65,6-1.76,7.47,6.14,8.84,9,0,9,0"/><path class="2ec1e55a-2886-4358-b628-26a7a0f3df85" d="M422.13,234s-2.09-10,0-12.43h3.65s2,8.83,4.76,10Z"/><path class="2ec1e55a-2886-4358-b628-26a7a0f3df85" d="M425.78,221.55h2.06s2.34,8.43,3.88,9.22-1.18.82-1.18.82S426.5,228.83,425.78,221.55Z"/><ellipse class="d528a6b3-8ae0-41b9-95df-72e9da279027" cx="434.88" cy="239.31" rx="5.11" ry="6.84"/><ellipse class="c224d712-692c-4ec4-a003-ff640c87d47f" cx="434.88" cy="239.31" rx="3.59" ry="4.81"/><polygon class="d528a6b3-8ae0-41b9-95df-72e9da279027" points="373.47 281.05 374.22 287.37 442.34 212.36 442.41 209.58 373.47 281.05"/><polygon class="d528a6b3-8ae0-41b9-95df-72e9da279027" points="341.92 261.02 341.88 269.59 374.22 287.37 373.47 281.05 341.92 261.02"/><polygon class="d528a6b3-8ae0-41b9-95df-72e9da279027" points="437.17 206.03 341.92 261.02 373.47 281.05 442.41 209.58 437.17 206.03"/><line class="4183978f-5077-45d4-83d8-7c06e696d2a5" x1="354.38" y1="253.83" x2="383.58" y2="271.45"/><line class="4183978f-5077-45d4-83d8-7c06e696d2a5" x1="419.82" y1="216.05" x2="430.72" y2="221.7"/><path class="d528a6b3-8ae0-41b9-95df-72e9da279027" d="M311.25,324.9s-6.35-2.74-10.51-1.74-4.37,4.33-4.65,6-1.76,7.47,6.14,8.84,9,0,9,0"/><path class="2ec1e55a-2886-4358-b628-26a7a0f3df85" d="M296.72,326.15s-2.09-10,0-12.43h3.65s2,8.83,4.76,10Z"/><path class="2ec1e55a-2886-4358-b628-26a7a0f3df85" d="M300.37,313.72h2.06s2.34,8.43,3.88,9.22-1.18.82-1.18.82S301.08,321,300.37,313.72Z"/><ellipse class="d528a6b3-8ae0-41b9-95df-72e9da279027" cx="309.46" cy="331.48" rx="5.11" ry="6.84"/><ellipse class="c224d712-692c-4ec4-a003-ff640c87d47f" cx="309.46" cy="331.48" rx="3.59" ry="4.81"/><path class="d528a6b3-8ae0-41b9-95df-72e9da279027" d="M256.77,337.35s-6.35-2.74-10.51-1.74-4.37,4.33-4.65,6-1.76,7.47,6.14,8.84,9,0,9,0"/><path class="2ec1e55a-2886-4358-b628-26a7a0f3df85" d="M242.24,338.59s-2.09-10,0-12.43h3.65s2,8.83,4.76,10Z"/><path class="2ec1e55a-2886-4358-b628-26a7a0f3df85" d="M245.89,326.16h2.06s2.34,8.43,3.88,9.22-1.18.82-1.18.82S246.6,333.43,245.89,326.16Z"/><ellipse class="d528a6b3-8ae0-41b9-95df-72e9da279027" cx="254.98" cy="343.92" rx="5.11" ry="6.84"/><ellipse class="c224d712-692c-4ec4-a003-ff640c87d47f" cx="254.98" cy="343.92" rx="3.59" ry="4.81"/><polygon class="d528a6b3-8ae0-41b9-95df-72e9da279027" points="312.75 278.63 219.61 333.67 225.58 337.12 345.6 297.4 312.75 278.63"/><path class="d528a6b3-8ae0-41b9-95df-72e9da279027" d="M345.6,297.4l1.63,6.08s-49.86,15.42-118.77,35.3l-2.87-1.66Z"/><polygon class="cf181c6a-0261-4884-80dd-4801bd540784" points="209.42 317.49 219.61 333.67 228.45 338.78 211.17 315.66 209.42 317.49"/><path class="d528a6b3-8ae0-41b9-95df-72e9da279027" d="M250.66,328.82l-13.35-5.61Z"/><polygon class="d528a6b3-8ae0-41b9-95df-72e9da279027" points="296.8 288.06 328.47 302.98 250.66 328.82 237.31 323.21 296.8 288.06"/><polygon class="cf181c6a-0261-4884-80dd-4801bd540784" points="228.2 222.6 199.33 235.93 207.42 240.6 254.18 238.85 228.2 222.6"/><polygon class="cf181c6a-0261-4884-80dd-4801bd540784" points="248.86 213.96 270.49 197.12 279.13 202.11 273.4 229.31 248.86 213.96"/><polygon class="d528a6b3-8ae0-41b9-95df-72e9da279027" points="260.31 223.44 236.21 172.56 224.01 166.31 228.79 226.39 264.95 246.06 260.31 223.44"/><polygon class="cf181c6a-0261-4884-80dd-4801bd540784" points="231.99 228.24 226.77 167.73 230.67 169.72 237.19 230.42 231.99 228.24"/><path class="d528a6b3-8ae0-41b9-95df-72e9da279027" d="M447.53,318.21,276.16,219.27,252.3,207.59l6.27,11.29-16.16-3.1,6.15,26.12,176.32,110s18.68,6.62,29.11,7.77h0l1.66.18,1,.11.57.06.5.05.55.06.55.06.58.06.43,0,.66.07.45,0,.64.06.46,0,.58.05.52,0,.55.05.52,0,.51,0,.53,0,.53,0,.48,0,.55,0,.46,0,.56,0,.43,0,.6,0,.37,0,.69,0,.26,0,.76,0h.17l.9.05h.22l.64,0,.33,0,.51,0h.34l.45,0h4.24l.27,0,.22,0,.25,0,.19,0,.22,0,.16,0,.2,0,.13,0,.18-.05.09,0,.21-.1a.35.35,0,0,0,.17-.23C482.85,357,447.53,318.21,447.53,318.21Z"/><path class="cf181c6a-0261-4884-80dd-4801bd540784" d="M267.44,246.38l-2.49-1.44a2,2,0,0,1-1-1.5v-4.25c0-.53.43-.71,1-.4l2.49,1.44a2,2,0,0,1,1,1.5V246C268.39,246.5,268,246.68,267.44,246.38Z"/><path class="cf181c6a-0261-4884-80dd-4801bd540784" d="M276.8,251.78l-2.49-1.44a2,2,0,0,1-1-1.5V244.6c0-.53.43-.71,1-.4l2.49,1.44a2,2,0,0,1,1,1.5v4.25C277.75,251.91,277.32,252.09,276.8,251.78Z"/><path class="cf181c6a-0261-4884-80dd-4801bd540784" d="M287.13,257.75l-2.49-1.44a2,2,0,0,1-1-1.5v-4.25c0-.53.43-.71,1-.4l2.49,1.44a2,2,0,0,1,1,1.5v4.25C288.08,257.87,287.66,258.05,287.13,257.75Z"/><path class="cf181c6a-0261-4884-80dd-4801bd540784" d="M296.49,263.15,294,261.72a2,2,0,0,1-1-1.5V256c0-.53.43-.71,1-.4l2.49,1.44a2,2,0,0,1,1,1.5v4.25C297.45,263.28,297,263.46,296.49,263.15Z"/><path class="cf181c6a-0261-4884-80dd-4801bd540784" d="M307,269.2l-2.49-1.44a2,2,0,0,1-1-1.5V262c0-.53.43-.71,1-.4l2.49,1.44a2,2,0,0,1,1,1.5v4.25C307.92,269.33,307.5,269.51,307,269.2Z"/><path class="cf181c6a-0261-4884-80dd-4801bd540784" d="M316.33,274.61l-2.49-1.44a2,2,0,0,1-1-1.5v-4.25c0-.53.43-.71,1-.4l2.49,1.44a2,2,0,0,1,1,1.5v4.25C317.28,274.73,316.86,274.91,316.33,274.61Z"/><path class="cf181c6a-0261-4884-80dd-4801bd540784" d="M326.67,280.57l-2.49-1.44a2,2,0,0,1-1-1.5v-4.25c0-.53.43-.71,1-.4l2.49,1.44a2,2,0,0,1,1,1.5v4.25C327.62,280.7,327.19,280.88,326.67,280.57Z"/><path class="cf181c6a-0261-4884-80dd-4801bd540784" d="M336,286l-2.49-1.44a2,2,0,0,1-1-1.5v-4.25c0-.53.43-.71,1-.4l2.49,1.44a2,2,0,0,1,1,1.5v4.25C337,286.1,336.55,286.28,336,286Z"/><path class="cf181c6a-0261-4884-80dd-4801bd540784" d="M348.33,293.19l-2.49-1.44a2,2,0,0,1-1-1.5V286c0-.53.43-.71,1-.4l2.49,1.44a2,2,0,0,1,1,1.5v4.25C349.28,293.31,348.85,293.49,348.33,293.19Z"/><path class="cf181c6a-0261-4884-80dd-4801bd540784" d="M357.69,298.59l-2.49-1.44a2,2,0,0,1-1-1.5v-4.25c0-.53.43-.71,1-.4l2.49,1.44a2,2,0,0,1,1,1.5v4.25C358.64,298.72,358.22,298.9,357.69,298.59Z"/><path class="cf181c6a-0261-4884-80dd-4801bd540784" d="M368,304.56l-2.49-1.44a2,2,0,0,1-1-1.5v-4.25c0-.53.43-.71,1-.4l2.49,1.44a2,2,0,0,1,1,1.5v4.25C369,304.68,368.55,304.86,368,304.56Z"/><path class="cf181c6a-0261-4884-80dd-4801bd540784" d="M377.39,310l-2.49-1.44a2,2,0,0,1-1-1.5v-4.25c0-.53.43-.71,1-.4l2.49,1.44a2,2,0,0,1,1,1.5v4.25C378.34,310.09,377.91,310.27,377.39,310Z"/><path class="cf181c6a-0261-4884-80dd-4801bd540784" d="M387.86,316l-2.49-1.44a2,2,0,0,1-1-1.5v-4.25c0-.53.43-.71,1-.4l2.49,1.44a2,2,0,0,1,1,1.5v4.25C388.82,316.14,388.39,316.32,387.86,316Z"/><path class="cf181c6a-0261-4884-80dd-4801bd540784" d="M397.22,321.42,394.74,320a2,2,0,0,1-1-1.5v-4.25c0-.53.43-.71,1-.4l2.49,1.44a2,2,0,0,1,1,1.5V321C398.18,321.54,397.75,321.72,397.22,321.42Z"/><path class="cf181c6a-0261-4884-80dd-4801bd540784" d="M407.56,327.38l-2.49-1.44a2,2,0,0,1-1-1.5V320.2c0-.53.43-.71,1-.4l2.49,1.44a2,2,0,0,1,1,1.5V327C408.51,327.51,408.08,327.69,407.56,327.38Z"/><path class="cf181c6a-0261-4884-80dd-4801bd540784" d="M416.92,332.79l-2.49-1.44a2,2,0,0,1-1-1.5V325.6c0-.53.43-.71,1-.4l2.49,1.44a2,2,0,0,1,1,1.5v4.25C417.87,332.91,417.45,333.09,416.92,332.79Z"/><path class="cf181c6a-0261-4884-80dd-4801bd540784" d="M480.39,358.27c-5.45,3.15-52.39-8-52.39-8S249.29,244.07,247.78,238.12s-1.37.52.78,3.78c11.54,17.53,176.32,110,176.32,110s25.38,7.37,29.15,7.77,25.87,2.58,26.91,1.32S480.39,358.27,480.39,358.27Z"/><path class="d528a6b3-8ae0-41b9-95df-72e9da279027" d="M432.82,332v6s23.27,4.32,18.82-10.6l-2.94-4.21S448.51,334.76,432.82,332Z"/></g><rect id="a69bdc0b-d77d-478e-b24e-00d24062c1bc" data-name="hidden" class="ef2ee371-750a-455e-b715-c03cff1166ca" x="186.13" y="160.31" width="296.77" height="210.47"/></g><g id="045fc7d1-e0c1-4017-becc-43fad3958bf4" data-name="trigger_radio"><g id="a6f3f6ba-91a0-48de-a68b-fb3a8e9cb640" data-name="women"><path class="ae7f0b15-2259-4417-bf8e-044e1bc28509" d="M367,124.61s12.86,19.1,11.56,30.87c0,0-19.28,1.46-25.56-2.16,0,0,1.15-22.75,4.07-26.86C357.06,126.45,364.86,126.35,367,124.61Z"/><polygon class="d73cfbc2-b85b-4723-9135-30c968f7730f" points="366.68 125.11 359.59 128.41 358.4 126.76 366.68 125.11"/><path id="8bf5e56b-24e5-4cb0-891a-fe57f675a7aa" data-name="hand" class="ae7f0b15-2259-4417-bf8e-044e1bc28509" d="M361.95,131.56s-9.32,9.43-13.38,9.91c0,0,15.32-2.64,18.76-10.51"/><path class="e334cd2e-7a2c-44fb-ad22-58e4ece0a8eb" d="M378.65,155.83s-9.81,16-15.91,28.13l-5.1.85s-4-22-4.13-31.25"/><line class="432b254e-9481-415d-a55d-c098d07c8e9b" x1="358.01" y1="143.04" x2="357.89" y2="153.56"/><path class="7d74c22a-783a-45a4-ae59-c2a0c5f44ea8" d="M358.44,115.93c-4.44-1.42-6-8.32,6.59-5.1,0,0,2.23-.56,2.24-.53.28,1.13,2.8,19.33,7.73,15.48,0,0-5.08,4.92-7.8,2.78l-1.65-1.67L358.46,116S358.48,115.94,358.44,115.93Z"/><path class="d73cfbc2-b85b-4723-9135-30c968f7730f" d="M365.1,114.4a.13.13,0,0,0-.08-.15c-.8-.31-6.3-3-8.13,1.46-1.73,4.17-1.79,4.36-1.67,4.45l.05,0,2.11.83a.14.14,0,0,1,.09.13l-.4,5.35s7.89.27,9-1.4-.23-6.33-.62-7.35a.14.14,0,0,1,.09-.18c.41-.12,1.58-.56,1.57-1.41,0-1-1.28-1.29-2.42-.26S365,115,365.1,114.4Z"/><circle class="d528a6b3-8ae0-41b9-95df-72e9da279027" cx="359.38" cy="117.47" r="0.21"/><path class="0c502ddf-9e2a-43aa-9de2-bbdf69851a47" d="M362.75,184v3.56s-6.24,2.11-9.75,0l4.65-2.71Z"/></g><polygon class="54eac6b3-c18c-4cac-9301-8ece8d1c9900" points="300.03 150.78 299.69 169.57 348.09 197.51 348.43 178.73 300.03 150.78"/><polygon class="d73cfbc2-b85b-4723-9135-30c968f7730f" points="385.08 157.64 336.68 129.69 300.03 150.78 348.43 178.73 385.08 157.64"/><polygon class="d73cfbc2-b85b-4723-9135-30c968f7730f" points="385.08 157.64 348.43 178.73 348.54 197.53 385.19 176.37 385.08 157.64"/><polygon class="ae7f0b15-2259-4417-bf8e-044e1bc28509" points="324.35 155.46 318.99 158.31 335.25 167.7 340.6 164.84 324.35 155.46"/><polygon class="d73cfbc2-b85b-4723-9135-30c968f7730f" points="313.9 83.82 313.9 94.78 316.84 96.36 316.84 85.53 313.9 83.82"/><polygon class="d73cfbc2-b85b-4723-9135-30c968f7730f" points="309.27 92.97 309.27 110.54 328.17 119.85 328.17 102.41 309.27 92.97"/><path class="827ea4d7-c722-4afc-b022-703deb0b55bb" d="M320.78,108.13c-1,.23-1,.53-1,1.39l-2.42-1.4c0-1.65.2-2.05,1.43-2.35s1.44-.37,1.44-.93a2.62,2.62,0,0,0-1.4-2c-1.09-.63-1.61-.23-1.76.73l-2.45-1.73c.19-2.07,1.84-2.38,4.21-1,2.57,1.49,4,3.88,4,5.49C322.82,107.36,322.35,107.76,320.78,108.13Zm-3.46.73,2.62,1.51v2.43l-2.62-1.51Z"/><polygon class="d73cfbc2-b85b-4723-9135-30c968f7730f" points="321.87 88.33 321.87 99.29 324.8 100.87 324.8 90.03 321.87 88.33"/><polygon class="d73cfbc2-b85b-4723-9135-30c968f7730f" points="328.17 102.41 330.38 101.59 311.4 92.11 309.27 92.97 328.17 102.41"/><polygon class="cf181c6a-0261-4884-80dd-4801bd540784" points="328.17 119.85 328.17 102.41 330.38 101.59 330.38 118.65 328.17 119.85"/><g id="634daa0e-68c4-4aa9-9f0a-0c6978065530" data-name="sign"><path class="827ea4d7-c722-4afc-b022-703deb0b55bb" d="M373.38,95.92l-.47,10h-1l-.47-10Zm-.06,14.27h-1.84v-2.35h1.84Z"/></g><g id="2da70b5c-3d8c-40ce-9732-e797371c84af" data-name="paper2"><polygon class="d73cfbc2-b85b-4723-9135-30c968f7730f" points="325.46 154.21 338.72 145.94 348.43 151.88 335.34 159.43 325.46 154.21"/><line class="432b254e-9481-415d-a55d-c098d07c8e9b" x1="329.4" y1="153.77" x2="335.58" y2="157.1"/><line class="432b254e-9481-415d-a55d-c098d07c8e9b" x1="332.77" y1="153.28" x2="337.31" y2="155.98"/><line class="432b254e-9481-415d-a55d-c098d07c8e9b" x1="333.94" y1="150.78" x2="340.24" y2="154.63"/><line class="432b254e-9481-415d-a55d-c098d07c8e9b" x1="337.95" y1="150.78" x2="341.89" y2="153.56"/><line class="432b254e-9481-415d-a55d-c098d07c8e9b" x1="338.15" y1="148.06" x2="344.38" y2="152.17"/></g><g id="348854dd-b13b-41a5-ad51-be120f4d716d" data-name="paper1"><polygon class="d73cfbc2-b85b-4723-9135-30c968f7730f" points="329.78 155.09 343.04 146.81 352.75 152.76 339.66 160.31 329.78 155.09"/><line class="432b254e-9481-415d-a55d-c098d07c8e9b" x1="333.72" y1="154.64" x2="339.9" y2="157.98"/><line class="432b254e-9481-415d-a55d-c098d07c8e9b" x1="337.09" y1="154.16" x2="341.63" y2="156.85"/><line class="432b254e-9481-415d-a55d-c098d07c8e9b" x1="338.26" y1="151.66" x2="344.56" y2="155.51"/><line class="432b254e-9481-415d-a55d-c098d07c8e9b" x1="342.27" y1="151.66" x2="346.21" y2="154.44"/><line class="432b254e-9481-415d-a55d-c098d07c8e9b" x1="342.47" y1="148.94" x2="348.7" y2="153.05"/></g><g id="22d98ed8-0174-42ef-b9e4-4d602f9ed193" data-name="recorder"><ellipse class="432b254e-9481-415d-a55d-c098d07c8e9b" cx="344.04" cy="140.13" rx="5.64" ry="2.55"/><path class="432b254e-9481-415d-a55d-c098d07c8e9b" d="M338.4,140.28v2.08s4.88,4.33,11.29,0V140"/><path class="d73cfbc2-b85b-4723-9135-30c968f7730f" d="M341.22,137.79v2.35a4.58,4.58,0,0,0,5.64,0v-2.47"/><ellipse class="d73cfbc2-b85b-4723-9135-30c968f7730f" cx="344.04" cy="137.73" rx="2.82" ry="1.28"/><path class="d73cfbc2-b85b-4723-9135-30c968f7730f" d="M343.58,137.62s.58.5,1,0l.16-14.47a1.45,1.45,0,0,1,2.09-.92s.94-.46.44-1-2.49-1.71-3.73.24C342.78,122.78,343.58,137.62,343.58,137.62Z"/><path class="e334cd2e-7a2c-44fb-ad22-58e4ece0a8eb" d="M347.13,120.9s.1-.78,1.2,0,4.5,2.77,4.5,2.77.82,2.18-1.14,2.65c0,0-5.32-2.63-5.58-3.29S347.13,120.9,347.13,120.9Z"/></g><polygon class="54eac6b3-c18c-4cac-9301-8ece8d1c9900" points="352.04 187.16 351.81 199.54 383.69 217.94 383.92 205.57 352.04 187.16"/><polygon class="d73cfbc2-b85b-4723-9135-30c968f7730f" points="405.43 189.88 376.18 173.28 352.04 187.16 381.3 203.77 405.43 189.88"/><polygon class="d73cfbc2-b85b-4723-9135-30c968f7730f" points="405.43 189.88 381.3 203.77 383.99 217.95 408.12 204.01 405.43 189.88"/><polygon class="6ae34954-f16a-4838-9bcc-f5ba6b5e3c81" points="358.82 185.56 358.77 187.91 364.85 191.42 364.89 189.06 358.82 185.56"/><polygon class="6ae34954-f16a-4838-9bcc-f5ba6b5e3c81" points="369.49 186.42 363.41 182.91 358.82 185.56 364.89 189.06 369.49 186.42"/><polygon class="6ae34954-f16a-4838-9bcc-f5ba6b5e3c81" points="369.49 186.42 364.89 189.06 364.9 191.42 369.5 188.77 369.49 186.42"/><polygon class="d73cfbc2-b85b-4723-9135-30c968f7730f" points="366.72 181.3 366.68 183.66 372.75 187.16 372.79 184.81 366.72 181.3"/><polygon class="d73cfbc2-b85b-4723-9135-30c968f7730f" points="377.39 182.16 371.32 178.66 366.72 181.3 372.79 184.81 377.39 182.16"/><polygon class="d73cfbc2-b85b-4723-9135-30c968f7730f" points="377.39 182.16 372.79 184.81 372.81 187.16 377.4 184.51 377.39 182.16"/><rect id="8689032b-5fd5-4bd8-b1a3-e1d16c588c15" data-name="hidden" class="ef2ee371-750a-455e-b715-c03cff1166ca" x="298.28" y="83.82" width="112.16" height="133.13"/></g></g><g id="26c87aa5-635f-446c-8cd9-5de22f11604a" data-name="island_2"><polygon class="cf181c6a-0261-4884-80dd-4801bd540784" points="139.15 360.2 176.42 343.13 176.42 317.19 138.46 338.68 139.15 360.2"/><polygon class="d528a6b3-8ae0-41b9-95df-72e9da279027" points="138.81 338.6 176.42 317.19 101.19 274.35 27.34 318.83 181.62 408.96 221.42 385.98 138.81 338.6"/><g id="ed059ee5-912f-4aea-9931-83adc5282857" data-name="trigger_package"><g id="7f9d642e-e27a-4549-839f-7703eb32df15" data-name="package_lower"><path class="d73cfbc2-b85b-4723-9135-30c968f7730f" d="M123.53,323.16h0c0-1.91,1.56-2.57,3.47-1.47h0a7.22,7.22,0,0,1,3.47,5.47h0c0,1.91-1.56,2.57-3.47,1.47h0A7.22,7.22,0,0,1,123.53,323.16Z"/><path class="ae7f0b15-2259-4417-bf8e-044e1bc28509" d="M122.45,324.73h0c0-1.91,1.56-2.57,3.47-1.47h0a7.22,7.22,0,0,1,3.47,5.47h0c0,1.91-1.56,2.57-3.47,1.47h0A7.22,7.22,0,0,1,122.45,324.73Z"/><polygon class="d73cfbc2-b85b-4723-9135-30c968f7730f" points="68.35 307.9 68.12 320.71 101.14 339.78 101.38 326.96 68.35 307.9"/><path class="d73cfbc2-b85b-4723-9135-30c968f7730f" d="M66.39,318.37h0c0-1.91,1.56-2.57,3.47-1.47h0a7.22,7.22,0,0,1,3.47,5.47h0c0,1.91-1.56,2.57-3.47,1.47h0A7.22,7.22,0,0,1,66.39,318.37Z"/><path class="ae7f0b15-2259-4417-bf8e-044e1bc28509" d="M65.31,319.94h0c0-1.91,1.56-2.57,3.47-1.47h0a7.22,7.22,0,0,1,3.47,5.47h0c0,1.91-1.56,2.57-3.47,1.47h0A7.22,7.22,0,0,1,65.31,319.94Z"/><polygon class="d73cfbc2-b85b-4723-9135-30c968f7730f" points="126.38 312.57 93.36 293.51 68.35 307.9 101.38 326.96 126.38 312.57"/><polygon class="d73cfbc2-b85b-4723-9135-30c968f7730f" points="126.38 312.57 101.38 326.96 101.45 339.79 126.46 325.35 126.38 312.57"/><polygon class="ae7f0b15-2259-4417-bf8e-044e1bc28509" points="113.92 308.25 106.42 312.57 113.92 316.9 121.41 312.57 113.92 308.25"/><polygon class="ae7f0b15-2259-4417-bf8e-044e1bc28509" points="101.76 311.92 90.67 318.32 101.76 324.72 112.85 318.32 101.76 311.92"/><polygon class="ae7f0b15-2259-4417-bf8e-044e1bc28509" points="88.8 304.63 77.71 311.03 88.8 317.43 99.89 311.03 88.8 304.63"/><polygon class="ae7f0b15-2259-4417-bf8e-044e1bc28509" points="95.55 299.39 92.02 301.43 95.55 303.47 99.09 301.43 95.55 299.39"/><path class="d73cfbc2-b85b-4723-9135-30c968f7730f" d="M97.27,335.9h0c0-1.91,1.56-2.57,3.47-1.47h0a7.22,7.22,0,0,1,3.47,5.47h0c0,1.91-1.56,2.57-3.47,1.47h0A7.22,7.22,0,0,1,97.27,335.9Z"/><path class="ae7f0b15-2259-4417-bf8e-044e1bc28509" d="M96.19,337.48h0c0-1.91,1.56-2.57,3.47-1.47h0a7.22,7.22,0,0,1,3.47,5.47h0c0,1.91-1.56,2.57-3.47,1.47h0A7.22,7.22,0,0,1,96.19,337.48Z"/></g><g id="13a27807-ab22-43f4-835a-8cd29d52d0f5" data-name="package_upper"><polygon class="cf181c6a-0261-4884-80dd-4801bd540784" points="75.51 298.14 75.34 307.3 98.95 320.93 99.11 311.77 75.51 298.14"/><polygon class="cf181c6a-0261-4884-80dd-4801bd540784" points="116.98 301.48 93.38 287.86 75.51 298.14 99.11 311.77 116.98 301.48"/><polygon class="cf181c6a-0261-4884-80dd-4801bd540784" points="116.98 301.48 99.11 311.77 99.17 320.94 117.04 310.62 116.98 301.48"/><polygon class="d73cfbc2-b85b-4723-9135-30c968f7730f" points="91.17 293.52 84.79 297.21 91.17 300.9 97.56 297.21 91.17 293.52"/></g><g id="943027ab-eddc-4d7b-9dad-6d233503746e" data-name="sign"><path class="827ea4d7-c722-4afc-b022-703deb0b55bb" d="M62.43,278.56l-.47,10h-1l-.47-10Zm-.06,14.27H60.53v-2.35h1.84Z"/></g><rect id="0df1b0be-9a57-45f0-b6c4-08b340e451fd" data-name="hidden" class="ef2ee371-750a-455e-b715-c03cff1166ca" x="55.28" y="275.18" width="78.73" height="70.07"/></g><g id="ccf22bec-6795-4148-b8bf-d7508091cdd5" data-name="trigger_package_2"><g id="f385276c-3100-4e98-9bc7-4086dc6049a4" data-name="package_white"><polygon class="d73cfbc2-b85b-4723-9135-30c968f7730f" points="160.88 375.02 160.72 384.19 175.42 392.96 175.58 383.8 160.88 375.02"/><polygon class="d73cfbc2-b85b-4723-9135-30c968f7730f" points="193.45 373.52 178.76 364.74 160.88 375.02 175.58 383.8 193.45 373.52"/><polygon class="d73cfbc2-b85b-4723-9135-30c968f7730f" points="193.45 373.52 175.58 383.8 175.64 392.97 193.51 382.65 193.45 373.52"/><polygon class="d73cfbc2-b85b-4723-9135-30c968f7730f" points="180.42 370.77 174.03 374.46 180.42 378.15 186.81 374.46 180.42 370.77"/></g><g id="12851481-18f6-4e36-9872-70fca048b7ad" data-name="package_red"><polygon class="cf181c6a-0261-4884-80dd-4801bd540784" points="169.85 384.57 169.68 393.73 184.38 402.51 184.54 393.35 169.85 384.57"/><polygon class="cf181c6a-0261-4884-80dd-4801bd540784" points="202.42 383.07 187.72 374.29 169.85 384.57 184.54 393.35 202.42 383.07"/><polygon class="cf181c6a-0261-4884-80dd-4801bd540784" points="202.42 383.07 184.54 393.35 184.6 402.52 202.47 392.2 202.42 383.07"/><polygon class="d73cfbc2-b85b-4723-9135-30c968f7730f" points="189.38 380.32 183 384.01 189.38 387.7 195.77 384.01 189.38 380.32"/></g><g id="9b46f14a-aa1b-420a-87ba-5379813d16c6" data-name="sign"><path class="827ea4d7-c722-4afc-b022-703deb0b55bb" d="M202.5,361.44l-.47,10h-1l-.47-10Zm-.06,14.27H200.6v-2.35h1.84Z"/></g><rect id="bc79004b-87e0-45e0-80c3-9d748a55fecb" data-name="hidden" class="ef2ee371-750a-455e-b715-c03cff1166ca" x="158.43" y="356.37" width="47.79" height="47.79"/></g><polygon class="cf181c6a-0261-4884-80dd-4801bd540784" points="27.34 318.83 27.34 338.73 181.97 429.9 181.28 408.38 27.34 318.83"/><polygon class="d528a6b3-8ae0-41b9-95df-72e9da279027" points="221.42 385.98 181.62 408.96 181.97 429.9 221.42 405.95 221.42 385.98"/></g></g></g></svg>