<svg xmlns="http://www.w3.org/2000/svg" xmlns:xlink="http://www.w3.org/1999/xlink" viewBox="0 0 841.89 703.94"><defs><style>.cls-1,.cls-10,.cls-11,.cls-17,.cls-22,.cls-26{fill:none;}.cls-2{isolation:isolate;}.cls-24,.cls-25,.cls-3,.cls-6{fill:#bd2229;}.cls-14,.cls-17,.cls-3{stroke:#040000;}.cls-11,.cls-14,.cls-15,.cls-17,.cls-18,.cls-23,.cls-3,.cls-7{stroke-miterlimit:10;}.cls-14,.cls-18,.cls-20,.cls-23,.cls-4,.cls-7,.cls-8{fill:#fff;}.cls-18,.cls-22,.cls-23,.cls-4,.cls-5{stroke:#181819;}.cls-10,.cls-22,.cls-25,.cls-26,.cls-4,.cls-5,.cls-6,.cls-8,.cls-9{stroke-linejoin:round;}.cls-5{fill:#b32329;}.cls-10,.cls-22,.cls-26,.cls-5,.cls-6,.cls-8,.cls-9{stroke-linecap:round;}.cls-10,.cls-15,.cls-25,.cls-26,.cls-6,.cls-7,.cls-8,.cls-9{stroke:#19191a;}.cls-15,.cls-25,.cls-26,.cls-7,.cls-8,.cls-9{stroke-width:0.8px;}.cls-15,.cls-16,.cls-9{fill:#19191a;}.cls-11{stroke:#e6e6e6;stroke-width:0.75px;}.cls-12{fill:#c92028;}.cls-13{fill:#181819;}.cls-14{stroke-width:0.8px;}.cls-19{clip-path:url(#clip-path);}.cls-21{clip-path:url(#clip-path-2);}.cls-22,.cls-23{stroke-width:2px;}.cls-24{mix-blend-mode:multiply;}</style><clipPath id="clip-path"><polygon class="cls-1" points="398.25 525.72 398.28 516.18 406.59 520.97 406.56 530.52 398.25 525.72"/></clipPath><clipPath id="clip-path-2"><polygon class="cls-1" points="413.89 535.33 413.92 525.79 422.22 530.58 422.2 540.12 413.89 535.33"/></clipPath></defs><title>中正紀念堂</title><g class="cls-2"><g id="圖層_2" data-name="圖層 2"><g id="_Island_2_" data-name="&lt;Island 2&gt;"><g class="cls-2"><polygon class="cls-3" points="542.32 254.94 542.21 293.06 308.99 426.72 309.08 390.48 542.32 254.94"/><polygon class="cls-3" points="309.08 390.48 308.99 426.72 80.81 294.98 80.9 258.74 309.08 390.48"/><polygon class="cls-4" points="542.32 254.94 309.08 390.48 80.9 258.74 314.13 123.19 542.32 254.94"/></g><polygon class="cls-3" points="246.94 167.24 355.39 229.49 464.14 166.7 357.46 100.7 246.94 167.24"/><polygon class="cls-4" points="272.94 157.37 279.58 173.39 322.15 194.57 389.93 194.75 431.02 175.42 442.23 156.16 272.94 157.37"/><line class="cls-4" x1="322.15" y1="194.57" x2="321.84" y2="182.81"/><line class="cls-4" x1="389.86" y1="194.57" x2="390.17" y2="182.81"/><path class="cls-4" d="M447.75,144.57s-34.64-25.29-59.36-52.49l-54-.84C309.63,118.45,269.26,144,269.26,144l-1.36,4.29,4.89,6.65,43.93,21.26,7.81-1.13,10.17,6.21,23.17-.69,23.16.69L391.2,175l7.81,1.13,43.93-21.26,4.9-6.65Z"/><path class="cls-5" d="M447.58,144.37l-6.83,9.18-40.64,20.71-10.3-4.34-7.13,9.17-24.5.2-24.5-.2-7.12-9.17-10.3,4.34-40.64-20.71L268.79,144l-2.72,9,9,6.13L316.19,180l8.48-4.27,5.64,7.66,27.2.37v0h1.34v0l27.21-.37,5.64-7.66,8.48,4.27,41.16-20.78,9-6Z"/><polygon class="cls-4" points="281.57 127.23 287.79 142.24 327.68 162.09 391.17 162.26 429.67 144.15 440.18 126.11 281.57 127.23"/><line class="cls-4" x1="327.68" y1="162.09" x2="327.38" y2="151.07"/><line class="cls-4" x1="391.11" y1="162.09" x2="391.4" y2="151.07"/><path class="cls-4" d="M441.94,116.08S392.17,88.91,369.53,63l-16.09-.34c-22.65,26-74.94,52.89-74.94,52.89l-1.25,4.09,4.48,6.35L322,146.22l7.15-1.08,9.32,5.93,21.21-.66,21.21.66,9.31-5.93,7.16,1.08,40.23-20.28,4.48-6.35Z"/><path class="cls-4" d="M359.93,65.5S327.8,140,322.71,143.9s6.84,0,6.84,0l7.9,7.17,0-2Z"/><polygon class="cls-4" points="364.2 65.5 382.37 149.02 385.04 149.02 390.44 143.23 398.55 145.52 398.32 144.41 364.2 65.5"/><path class="cls-5" d="M441.79,115.89l-6.25,8.76-37.22,19.76-9.43-4.14L382.37,149l-22.44.19L337.49,149,331,140.27l-9.43,4.14-37.22-19.76-6.25-9.09-2.49,8.6,8.2,5.85,37.7,19.83,7.76-4.08,5.16,7.32,24.91.35v0h1.22v0l24.92-.35,5.16-7.32,7.76,4.08L436.07,130l8.21-5.77Z"/><line class="cls-5" x1="345.88" y1="134.5" x2="374.15" y2="134.5"/><line class="cls-5" x1="351.44" y1="122.86" x2="369.45" y2="122.86"/><line class="cls-5" x1="355.32" y1="109.98" x2="365.04" y2="109.98"/><line class="cls-5" x1="296.19" y1="114.33" x2="323.32" y2="128.74"/><line class="cls-5" x1="308.57" y1="106.59" x2="327.72" y2="116.77"/><line class="cls-5" x1="321.93" y1="98.79" x2="332.83" y2="104.58"/><line class="cls-5" x1="426.19" y1="114.9" x2="399.06" y2="129.31"/><line class="cls-5" x1="413.81" y1="107.16" x2="394.66" y2="117.33"/><line class="cls-5" x1="400.45" y1="99.35" x2="389.54" y2="105.14"/><path class="cls-3" d="M356.15,60.46s-3.52.45-4.62,2.12,11.33,6.73,19,1.7c2.45-1.6-5.92-3.82-5.92-3.82"/><path class="cls-3" d="M353.87,56.9l2.07,5.2s6.24,3.67,10.57,0l1.17-4.77Z"/><path class="cls-3" d="M371.49,48.53c0,3-1.56,8.74-4.51,10.2a14.37,14.37,0,0,1-5.93,1.17,11.21,11.21,0,0,1-7.18-2.1c-1.89-1.5-3.26-7-3.26-9.27,0-4.57,4.68-8.27,10.44-8.27S371.49,44,371.49,48.53Z"/><path class="cls-4" d="M355.39,229.41,246.94,167.16l-29.37,80.38,41.81,24.07c0-6.73.32-13.33,2.58-19.55,2.49-10,9.15-27.43,20.78-18.28,8.32,6.65,12.47,18.28,14.14,29.09,1.23,9.86-1.64,19.25-2.54,28.87l61.05,35.14Z"/><polygon class="cls-4" points="355.52 229.24 355.39 326.88 492.9 250.43 463.97 166.99 355.52 229.24"/><polygon class="cls-4" points="277.25 179.68 298.43 190.99 298.43 220.69 277.42 209.04 277.25 179.68"/><polygon class="cls-3" points="280.21 207.38 280.08 184.36 295.63 192.67 295.63 215.94 280.21 207.38"/><polygon class="cls-3" points="331.17 234.04 355.59 247.83 379.75 234.04 385.35 237.86 355.47 254.06 325.89 237.13 331.17 234.04"/><polygon class="cls-4" points="355.47 254.06 355.76 337.7 314.58 314.06 325.89 237.13 355.47 254.06"/><polygon class="cls-4" points="355.6 254.06 355.31 337.7 395.9 313.87 385.35 237.86 355.6 254.06"/><g class="cls-2"><path class="cls-4" d="M276.49,235.48c-2.48,1.63-3,6.41-3,9.6l-2.88,33.51-5.33,3.07,1-37.17c0-.25,0-.51,0-.75,0-.5.1-1,.17-1.43,0-.23.09-.46.13-.67s.1-.43.17-.64.13-.45.21-.67.1-.28.16-.42a1.47,1.47,0,0,0,.1-.22,3.36,3.36,0,0,1,.2-.43c.08-.17.18-.34.28-.51a4.12,4.12,0,0,1,.27-.45l.06-.09a3.79,3.79,0,0,1,.3-.4c.12-.14.23-.28.35-.41a2.73,2.73,0,0,1,.38-.38,3.65,3.65,0,0,1,.3-.27c.07-.07.16-.13.24-.2l.08-.06.27-.19c.13-.09,1.18-2.57,1.31-2.65C272.15,233.13,275.39,235.57,276.49,235.48Z"/><path class="cls-4" d="M275.63,233a7.19,7.19,0,0,0-2.3,2.17,7,7,0,0,0-3,.91Z"/><path class="cls-4" d="M306,256.84s-3.44,39-3.44,39.21l-5.14,3.08c0-.2.85-26.68,1.1-36.72.31-12-8-26.5-18.56-32.34a16.66,16.66,0,0,0-9.62-2.38l-.51.07h-.1c-.16,0-.32.06-.48.09a9.69,9.69,0,0,0-1.64.47l-.37.15-.35.16-.15.07-.34.19-.2.1s5-3.25,9.07-4.07c6.45-1.32,9.44-.88,14.74,2.06A31.11,31.11,0,0,1,306,256.84Z"/><path class="cls-4" d="M298.55,262.41c-.56,10-1.1,36.52-1.1,36.72l-5.93-3.35c0-.2.85-26.63,1-36.65.17-9-5.45-18.3-12.74-22.33a11.58,11.58,0,0,0-6.48-1.65,7,7,0,0,0-3,.91l-.38.24-.27.19-.08.06c-.08.07-.17.13-.24.2a3.65,3.65,0,0,0-.3.27,2.73,2.73,0,0,0-.38.38,4.47,4.47,0,0,0-.35.41,3.79,3.79,0,0,0-.3.4l-.06.09a4.12,4.12,0,0,0-.27.45,5.05,5.05,0,0,0-.28.51,3.36,3.36,0,0,0-.2.43,1.47,1.47,0,0,1-.1.22c-.06.14-.11.28-.16.42s-.14.44-.21.67-.12.42-.17.64-.09.44-.13.67c-.07.45-.14.93-.17,1.43,0,.24,0,.5,0,.75l-1,37.17-5.91-3.28.95-37.17c.15-6.05,2.48-10.33,6.11-12.31l.34-.19.15-.07.35-.16.37-.15a9.69,9.69,0,0,1,1.64-.47c.16,0,.32-.07.48-.09h.1l.51-.07a16.66,16.66,0,0,1,9.62,2.38C290.53,235.91,299.37,247.82,298.55,262.41Z"/></g><polygon class="cls-4" points="258.47 195.68 239.68 267.03 206.93 248.37 233.16 181.58 258.47 195.68"/><polyline class="cls-4" points="264.06 192.32 246.1 263.52 239.88 266.63 258.47 195.68"/><polygon class="cls-3" points="242.26 179.94 264.06 192.32 258.47 195.68 233.16 181.58 244.97 172.1 242.26 179.94"/><polygon class="cls-4" points="453.13 197.51 470.42 269.85 504.67 250.19 478.44 183.41 453.13 197.51"/><polyline class="cls-4" points="447.54 194.14 464.2 266.74 470.42 269.85 453.13 197.51"/><polygon class="cls-3" points="469.33 181.77 447.54 194.14 453.13 197.51 478.44 183.41 466.62 173.93 469.33 181.77"/><line class="cls-4" x1="324.38" y1="247.84" x2="345.48" y2="259.44"/><line class="cls-4" x1="228.61" y1="191.65" x2="252.94" y2="205.01"/><line class="cls-4" x1="386.51" y1="247.19" x2="364.2" y2="259.44"/><line class="cls-4" x1="482.22" y1="192.12" x2="462.99" y2="202.68"/><g id="_trigger_take_photos_" data-name="&lt;trigger_take_photos&gt;"><path class="cls-6" d="M226.13,242.82l4.69-2.4s5.92,1.18,4.74,7.11L232,249.9"/><polygon class="cls-6" points="214.22 241.6 213.76 252.66 227.26 260.56 227.26 248.71 214.22 241.6"/><polyline class="cls-6" points="214.22 241.6 220.15 239.23 232 246.34 227.26 248.71 227.26 260.56 232 257.01 232 246.34 227.26 248.71"/><line class="cls-6" x1="215.1" y1="242.34" x2="226.57" y2="248.71"/><path class="cls-7" d="M207.76,225.43s-.83-8.42-2.67-9.52l-4.3-1.19s-5.87-.2-7,2.55-2.95,6.52-2.95,6.52,1.71,3.17.83,3.72,4,6,4,6l2.47-8.11,3.07-2.55,4,.3Z"/><path class="cls-8" d="M196.24,238.19s-11.81,22.27-10.62,36c0,0,17.72,1.7,23.49-2.52,0,0-1.06-26.52-3.74-31.32C205.37,240.34,198.21,240.21,196.24,238.19Z"/><path class="cls-9" d="M185.54,274.59s9,18.66,14.61,32.8l4.69,1s3.69-25.61,3.79-36.44"/><path class="cls-8" d="M198.5,223s6.42-2.87,8.6,2.55,1.43,5.54,1.43,5.54l-2.42,1,.28,8.11s-9.62,0-10.87-1.89,1.9-10.11,1.9-10.11-1.88-.46-1.87-1.62,1.4-1.45,2.64-.29S198.5,223,198.5,223Z"/><ellipse class="cls-7" cx="205.67" cy="228.46" rx="0.23" ry="0.25"/><path class="cls-10" d="M200.17,306.8V311s6.82,2.46,10.66,0l-5.08-3.15Z"/><path class="cls-8" d="M205.35,246.42s13.1,7.92,17.59,7.35c0,0-17.24,1.24-23.54-6.54"/><line class="cls-8" x1="229.63" y1="235.68" x2="230.82" y2="230.94"/><line class="cls-8" x1="237.93" y1="240.42" x2="241.48" y2="238.05"/><line class="cls-8" x1="240.3" y1="246.34" x2="245.04" y2="246.34"/><rect id="hidden" class="cls-11" x="174.99" y="197.14" width="65.53" height="124.08"/><g id="sign"><path class="cls-12" d="M230.61,208.8l-.47,10h-1l-.47-10Zm-.06,14.27h-1.84v-2.34h1.84Z"/></g></g><path class="cls-4" d="M410.46,285.17l1.54-5.55s-5.84-11.16-5.25-14.5-12.36,4.22-9.75,17.44,5.72,9.5,5.72,9.5l7-3.8Z"/><path class="cls-4" d="M408.8,287.87s3.44-5.13,6.57-5.31,4.4,3.64,4.4,3.64L416,287s.66,10.68-12.14,13.74c-8,1.91-7.33,7.11-7.33,7.11l-2.9.72-3.92-.81-.46-2.49-2-3.77,9.4-6-6.48-2.9-8.43-8s-6.47-6.1-3.74-13.83,2.79-8.29,2.79-8.29l5.61,14.74s.61,1.63,10.6,5.4C397,282.56,405.66,287.48,408.8,287.87Z"/><circle class="cls-13" cx="414.22" cy="285.58" r="0.67"/><g id="child"><path class="cls-14" d="M280.17,286.88s-8.31,21.65-3.7,23.77S293.56,312.12,293,303a59.67,59.67,0,0,0-4.18-17.52Z"/><ellipse class="cls-14" cx="284.05" cy="281.22" rx="8.09" ry="8.64" transform="translate(-96.72 159.62) rotate(-27)"/><ellipse class="cls-14" cx="280.02" cy="279.17" rx="0.32" ry="0.34"/><path class="cls-14" d="M292.14,307.15s-7.75,12-10.07,18.05H280l-4.77-15.32S286,310.82,292.14,307.15Z"/><path class="cls-14" d="M282.38,325.2v3.2h-5.77s-3.14-1.77,0-3.2,3.55,0,3.55,0Z"/><path class="cls-14" d="M280.19,296.71s-6.77,10.27-9,11.35,12.76-5.47,12.09-10.66"/></g><path class="cls-15" d="M278.43,274.76s1.83-7.18,3.82-7.87l1.1,1.37s6.21-1.14,7.39.58a17.68,17.68,0,0,0,3.08,3.2s-.95,4.47,0,4.81-2.48,4.48-2.48,4.48l-2.61-6.57-3.31-1.59-4.32.18Z"/></g><g id="_Island_1_" data-name="&lt;Island 1&gt;"><g class="cls-2"><polygon class="cls-3" points="755.51 477.13 755.45 499.95 458.01 672.81 458.07 649.98 755.51 477.13"/><polygon class="cls-3" points="458.07 649.98 458.01 672.81 130.58 483.77 130.65 460.94 458.07 649.98"/><polygon class="cls-4" points="755.51 477.13 458.07 649.98 130.65 460.94 266.56 381.96 343.34 426.29 508.38 334.45 755.51 477.13"/></g><g id="_trigger_pigeons_" data-name="&lt;trigger_pigeons&gt;"><path class="cls-4" d="M275.44,468.5q-1.17,3.28-2.27,6.59l-3.74,2.13"/><path class="cls-4" d="M273.15,474.61c-1.78,0-3.56,0-5.34,0"/><path class="cls-4" d="M272.13,464.33a62,62,0,0,0-2.08,6.35l-3.75,2.09"/><path class="cls-4" d="M270,470.2l-5.46-.11"/><path class="cls-4" d="M300.87,465.54c-4.3-3.45-2.17-.71-8.11-5.25s-8.4-12.17-20.7-12.34c1.66-4.28,3.73-10.32-.12-12.86-2.26-1.5-3-.43-4.41.31-1.13.19-2.48.07-3.65.17.74.87,2.24,2.56,2.81,3.26s.19.59.56,1c-3.2,4.59-6.11,5.74-8.07,12.07s7.47,11.88,12,14.26c2.85,1.5.62,2.75,2,4.35l1,.06c1.62-.66,3.2-1.29,4.82-2,3.17,0,6.66-.41,9.75-.3s5.8.72,8.82.93c.71.69,1.34,1.15,2.06,1.84H300c-.08-.75.25-1.29.17-2l-1.21-2C299.72,466.54,299.88,465.78,300.87,465.54Z"/><path class="cls-4" d="M272,447.75c-4,3-7.45,3.7-11.58.58"/><path class="cls-4" d="M273.74,453.05a18.64,18.64,0,0,1,12.73,8.05"/><path class="cls-4" d="M269.69,453.44c5.29,2.29,8.17,3.69,11.6,8.66"/><path class="cls-13" d="M269.26,437.94a.68.68,0,0,0,.19,1,.66.66,0,0,0,.93-.26.68.68,0,0,0-.19-1A.67.67,0,0,0,269.26,437.94Z"/><path class="cls-4" d="M209.55,400.34l-1.65-6s6.27-12,5.64-15.59,13.29,4.54,10.48,18.75-6.14,10.22-6.14,10.22l-7.5-4.09Z"/><path class="cls-4" d="M211.34,403.25s-3.7-5.53-7.07-5.72-4.93,4.41-4.93,4.41l3.81.31s-.3,11.48,13.45,14.77c8.6,2.06,7.89,7.65,7.89,7.65l3.11.77,4.22-.87.49-2.68,2.2-4.25-10.11-6.26,7-3.11,9.07-8.61s6.95-6.56,4-14.87-3-8.92-3-8.92l-6,15.86s-.66,1.75-11.41,5.8C224,397.53,214.72,402.83,211.34,403.25Z"/><circle class="cls-13" cx="205.51" cy="400.78" r="0.72"/><path class="cls-4" d="M120.92,405.36c-.44-1.53-1.07-4.17-1.71-5.8,3.61-5.66,3.86-9.18,6.17-15.92s10.87,14.08,10.13,18.18-2.14,12.58-6.2,11.15c-2.45-1.62-5-2.76-7.5-4.16C121.43,407.47,121.36,406.9,120.92,405.36Z"/><path class="cls-4" d="M122.75,408.35c-1.68-2.25-4.15-5.32-7-5.53s-3.94,2.22-5,4.28c1.3.15,2.53.2,3.84.32.09,8.16,6.84,12.36,13.5,14.66,4.16,1.43,8,2.87,8.2,7.6l3.1.71c1.39-.3,2.81-.63,4.18-.92a26.42,26.42,0,0,1,.53-2.75c.42-1.12,1.49-2.78,2-4-3.39-2.12-6.82-4.2-10.21-6.31l6.89-3.16c3.35-3.07,5.54-5.5,9.17-8.74s5.15-10.19,3.9-14.41-2.27-5.56-3.06-9.23c-2,4.77-4,11.4-6,15.6s-8.42,4.34-11.4,6.17C131.39,404.8,127.27,407.25,122.75,408.35Z"/><path class="cls-13" d="M117.63,405.92a.71.71,0,1,1-.71-.71A.7.7,0,0,1,117.63,405.92Z"/><polyline class="cls-4" points="201.9 464.57 204.29 471.24 208 473.4"/><line class="cls-4" x1="204.3" y1="470.75" x2="209.47" y2="470.75"/><polyline class="cls-4" points="204.71 460.15 207.1 466.82 210.81 468.98"/><line class="cls-4" x1="207.1" y1="466.33" x2="212.28" y2="466.33"/><path class="cls-4" d="M176.54,461.48a67.48,67.48,0,0,1,7.49-4.36c3.36-1.57,7.75-14.18,23.31-16.39,0,0,2.11-13.68,8.47-12.26,3.75.84,3.49,2.69,3.49,2.69l3.23,2.06-4.45,1.31-.92.54s2.12,8.74,1.28,14.16-12,11.51-13.19,12.82c-.77.82-1.07,4.39-1.07,4.39l-1.06.07-4.61-1.92-9.74-.32-8.77,1-2.17,2-.61,0,.22-2.24,1.21-2Z"/><path class="cls-4" d="M207.34,440.73s5.23,7.1,11.54,5.35"/><path class="cls-4" d="M203.54,447.71s-6.45,2.59-11.23,10.55"/><path class="cls-4" d="M207.52,447.71s-6.45,2.59-11.23,10.55"/><circle class="cls-13" cx="215.59" cy="432.49" r="0.72"/><circle class="cls-16" cx="222.26" cy="485.47" r="1.28"/><circle class="cls-16" cx="235.68" cy="489.07" r="1.28"/><circle class="cls-16" cx="238.23" cy="485.47" r="1.28"/><circle class="cls-16" cx="233.13" cy="478.54" r="1.28"/><path class="cls-4" d="M270.85,486c.07,2.35.06,4.69,0,7l-3,3.11"/><path class="cls-4" d="M270.68,492.57l-5.14,1.55"/><path class="cls-4" d="M267.18,482.74c-.15,2.34-.36,4.69-.49,7l-3,3.08"/><path class="cls-4" d="M266.55,489.32l-5,1.48"/><path class="cls-4" d="M291.92,473.8c-4.59-1.65-3.54-.25-9.53-2.24S268,460.9,259,463.43c-2.67-4.66-8.13-9.19-12.64-7.23-2.65,1.15-2.2,2.36-2.34,4-.48,1.07-1.31,2.2-1.88,3.27,1.24-.19,3.6-.68,4.57-.81s.57.06,1.26,0c1.43,4.54,2.74,9.24,5.73,13.09s9.7,6.44,13.2,8.84c2.2,1.51,1.2.56,2.58,2.12a11.59,11.59,0,0,1,1.25-.29c1.17-1.12,2-.41,2.86-1.79,2.43-1.54,4.67-3.35,7.4-4.35a73.69,73.69,0,0,1,8.48-2c.92.43,1.82.82,2.74,1.24l.61-.17-.87-2-1.78-1.51A12.31,12.31,0,0,1,291.92,473.8Z"/><path class="cls-4" d="M258.93,463.36c-1,4.95-2.3,8-7.27,9.88"/><path class="cls-4" d="M264.05,468.64c4.28.72,8.19,4.62,11.53,7"/><path class="cls-4" d="M261.52,470c4.3.48,7.8,4.66,10.83,7.29"/><path class="cls-13" d="M247.49,460a.75.75,0,0,0,1,.31.69.69,0,0,0,.3-1,.74.74,0,0,0-1-.3A.68.68,0,0,0,247.49,460Z"/><g id="sign-2" data-name="sign"><path class="cls-12" d="M278.08,418.3l-.47,10.05h-1l-.46-10.05ZM278,432.58h-1.84v-2.35H278Z"/></g><rect id="hidden-2" data-name="hidden" class="cls-11" x="103.57" y="366.93" width="205.7" height="141.55"/></g><polygon class="cls-4" points="386.91 416.78 387.01 483.34 448.64 519.69 448.54 443.13 386.91 416.78"/><polygon class="cls-4" points="448.54 445.83 448.54 519.49 621.34 422.48 624.2 353.02 448.54 445.83"/><path class="cls-3" d="M522.25,489.23v52.5s4.54,5,9.14,0v-52.5Z"/><path class="cls-3" d="M481.92,469.57v52.5s4.54,5,9.14,0v-52.5Z"/><path class="cls-3" d="M432,485.9v52.5s4.54,5,9.14,0V485.9Z"/><path class="cls-3" d="M353.55,439.19v52.5s4.55,5,9.14,0v-52.5Z"/><path class="cls-3" d="M553.38,472.27v52.5s4.54,5,9.14,0v-52.5Z"/><path class="cls-3" d="M619.63,436.26v52.5s4.54,5,9.14,0v-52.5Z"/><path class="cls-3" d="M643.1,424.7v52.5s4.54,5,9.14,0V424.7Z"/><polygon class="cls-4" points="431.77 394.96 432.37 418.07 389.93 393.06 379.22 368.05 431.77 394.96"/><path class="cls-3" d="M518,290.58s31.86,27.87,50,32.65L433.52,400.81l-16.61-40.2,7.79-25.95,9.73,3.89,18.81-3.89,33.08-16.86,13.62-11Z"/><path class="cls-4" d="M516.15,285.37c-2.59,5.19-6.67,8.08-13.34,14.29-21.66,20.11-66,37.6-80.27,33.06l-1.09,3.89s-21.71,27.74-45.06,29l57.06,35.1s-11.35-34.94-8.1-62.83c0,0,19.34,5.64,55.78-16.22,25.94-15.57,31-23.44,38.27-33.08C523.29,283.42,517.2,283.28,516.15,285.37Z"/><polygon class="cls-4" points="451.74 430.83 451.74 461.44 622.98 362.02 637.48 329.53 451.74 430.83"/><polygon class="cls-4" points="370.44 391.57 385.82 422.41 451.74 461.44 451.74 430.83 370.44 391.57"/><path class="cls-3" d="M573.82,279.52s38.2,41.68,71.85,50.75L450.26,440.71,426,381.92,437.36,344l14.22,5.69L479.09,344l48.37-24.66,19.92-16.13Z"/><path class="cls-17" d="M464.86,343c2,7.68,33.35,54.18,54.67,57.63"/><path class="cls-17" d="M454.43,348.72c2,7.68,33.34,54.19,54.67,57.63"/><path class="cls-17" d="M443.05,347.77C446.84,362,477.34,408.6,498.66,412"/><path class="cls-17" d="M479.09,343c2.18,6.55,32.91,50.1,49,52.88"/><path class="cls-17" d="M488.57,337.34c1.89,6.68,31.32,50,49,52.88"/><path class="cls-17" d="M498.06,332.6c1.81,7,30.44,49.6,48.37,52.22"/><path class="cls-17" d="M508.49,326.91c1.48,6.06,29.83,48.69,48.37,52.22"/><path class="cls-17" d="M518,321.21c1.81,7.05,30.44,49.91,48.37,52.53"/><path class="cls-17" d="M527.46,315.52c1.81,7.05,30.44,49.91,48.37,52.53"/><path class="cls-17" d="M537,309.83c1.7,6.32,30.54,48.74,49.92,52.24"/><path class="cls-17" d="M546.43,304.14c.6,6.84,25.27,48.59,49.92,52.24"/><path class="cls-17" d="M555.92,298.45c.59,6.84,25.26,48.59,49.92,52.24"/><path class="cls-17" d="M564.45,290.86c.6,6.84,26.22,50.49,50.87,54.14"/><path class="cls-4" d="M571.09,271.89c-3.79,7.59-9.75,11.83-19.52,20.9-31.66,29.42-96.5,55-117.37,48.34l-1.59,5.69s-31.74,40.56-65.89,42.46l83.44,51.33s-16.6-51.11-11.85-91.89c0,0,28.28,8.26,81.56-23.71,37.94-22.76,45.39-34.27,56-48.37C581.53,269.05,572.62,268.84,571.09,271.89Z"/><path class="cls-3" d="M652.22,358.82v52.5s4.54,5,9.14-1.1v-52.5Z"/><polygon class="cls-4" points="622.03 378.75 621.03 393.04 664.77 368.94 665.17 354.68 622.03 378.75"/><path class="cls-3" d="M634.23,337.3s25,20.22,36,16.64L637.66,372s-13.78-8.62-19.53-15.74l10.89-7Z"/><polygon class="cls-4" points="527.46 464.83 528.07 487.94 480.88 459.6 469.1 434.94 527.46 464.83"/><polygon class="cls-4" points="527.46 464.83 528.07 487.94 653.13 414.79 665.98 389.62 527.46 464.83"/><path class="cls-3" d="M615.43,354.34s33.52,29.31,52.63,34.35L526.54,470.3,509.07,428l8.19-27.3,10.23,4.1,19.79-4.1L582.08,383l14.33-11.6Z"/><path class="cls-4" d="M613.47,348.85c-2.73,5.46-7,8.51-14,15C576.65,385.05,530,403.44,515,398.66l-1.15,4.1S491,431.94,466.44,433.3l60,36.93s-11.94-36.76-8.53-66.11c0,0,20.35,5.94,58.68-17.06,27.78-16.66,32.44-24.36,40.26-34.8C621,346.8,614.57,346.65,613.47,348.85Z"/><polygon class="cls-4" points="480.88 459.6 480.88 476.13 527.46 503.73 528.07 487.94 480.88 459.6"/><polygon class="cls-4" points="350.98 432.98 350.98 450.2 437.13 499.93 437.73 484.24 350.98 432.98"/><polygon class="cls-4" points="528.07 487.94 527.46 503.73 652.93 431.25 652.93 414.79 528.07 487.94"/><polygon class="cls-4" points="437.56 484.53 436.96 500.12 480.71 476.02 480.71 459.66 437.56 484.53"/><path class="cls-3" d="M380.09,410.92l71.65,41.81,20.44-10.91S480,457,488.49,460.9L438.36,486l-93.94-52.8c14.56-6,31.59-30.15,31.59-30.15Z"/><polygon class="cls-5" points="605.84 433.39 592.54 440.5 592.54 459.16 605.73 451.83 605.84 433.39"/><polygon class="cls-4" points="603.61 450.62 603.69 437.31 594.7 442.11 594.7 455.57 603.61 450.62"/><path class="cls-17" d="M451.74,455.9s-4.41,17-12.09,23.52"/><path class="cls-17" d="M429,444.41s-4.41,17-12.09,23.52"/><path class="cls-17" d="M422.5,440.3s-4.41,17-12.09,23.51"/><path class="cls-17" d="M416,436.19s-4.41,17-12.09,23.51"/><path class="cls-17" d="M409.42,432.08s-4.41,17-12.09,23.51"/><path class="cls-17" d="M402.88,428s-4.41,17-12.09,23.52"/><path class="cls-17" d="M396.33,423.85s-4.4,17-12.08,23.52"/><path class="cls-17" d="M377.7,443.26c7.68-6.49,12.09-23.52,12.09-23.52"/><g id="_trigger_dance_" data-name="&lt;trigger_dance&gt;"><g id="child-2" data-name="child"><path class="cls-14" d="M372.69,523.47s-8.6,22.44-3.83,24.63,17.71,1.53,17.12-7.94A61.64,61.64,0,0,0,381.64,522Z"/><ellipse class="cls-14" cx="376.71" cy="517.61" rx="8.38" ry="8.95" transform="translate(-193.94 227.46) rotate(-27)"/><ellipse class="cls-14" cx="372.53" cy="515.49" rx="0.33" ry="0.35"/><path class="cls-14" d="M385.09,544.47s-8,12.39-10.43,18.7h-2.2l-4.94-15.87S378.75,548.27,385.09,544.47Z"/><path class="cls-14" d="M375,563.17v3.33h-6s-3.26-1.85,0-3.33,3.68,0,3.68,0Z"/><path class="cls-14" d="M375.28,533.86s-10.42,7.33-13,7.52,14.38-.44,15.69-5.7"/></g><path class="cls-15" d="M370.89,510.92s1.89-7.44,4-8.16l1.14,1.43s6.43-1.19,7.66.59a17.77,17.77,0,0,0,3.18,3.32s-1,4.63,0,5-2.57,4.64-2.57,4.64l-2.69-6.8-3.43-1.65-4.48.19Z"/><path class="cls-18" d="M369.19,510.8s9,6.95,16.81,5.15S377.4,489.2,369.19,510.8Z"/><path class="cls-18" d="M387.6,510.54s5.91.5,5.81,3.85-9.85,1.56-9.85,1.56Z"/><g id="child-3" data-name="child"><path class="cls-14" d="M320.57,494s8.8,21,3.91,23.21-18.12,1.56-17.51-8.14a42.67,42.67,0,0,1,4.43-16.57Z"/><ellipse class="cls-14" cx="316.45" cy="488" rx="9.16" ry="8.58" transform="translate(-262.03 548.4) rotate(-63)"/><ellipse class="cls-14" cx="320.73" cy="485.83" rx="0.34" ry="0.36"/><path class="cls-14" d="M307.88,513.49s8.21,12.68,10.67,19.14h2.25l5.05-16.24S314.37,517.38,307.88,513.49Z"/><path class="cls-14" d="M315,534.28v4.45h8s4.37-2.46,0-4.45-4.93,0-4.93,0Z"/></g><path class="cls-18" d="M323.91,482.05s1.06-3.3-4.18-4c-2.58-.34-5-3.36-8.38-1.44a10.45,10.45,0,0,0-4.72,4.4c-4.57,9.06-1.48,16.69,1.25,17.37,0,0-2.49,16.09.76,20.08,0,0,13.58-.46,17.21-2.08s-5.12-19.93-5.12-19.93a9.9,9.9,0,0,1-4.89-3.72c-.73-1.25.83-4.82.55-6.14C315.73,483.53,317.71,483,323.91,482.05Z"/><polygon class="cls-18" points="308.64 518.47 312.05 523.21 311.55 527.39 314.5 533.99 321.09 533.99 324.51 527.39 324.95 519.94 325.85 516.39 308.64 518.47"/><line class="cls-18" x1="321.53" y1="496.2" x2="325.84" y2="503.01"/><path class="cls-18" d="M318.77,500.43s7.59,6,11.59,7.18c2.28.66-1.89,1.79-1.89,1.79-3.37-.91-12.3-5.38-12.3-5.38"/><g id="child-4" data-name="child"><path class="cls-14" d="M341.83,477s8.06,21,3.58,23.09-16.6,1.43-16-7.45a57.84,57.84,0,0,1,4.06-17Z"/><ellipse class="cls-14" cx="338.06" cy="471.51" rx="8.4" ry="7.86" transform="translate(-235.54 558.64) rotate(-63)"/><ellipse class="cls-14" cx="341.97" cy="469.52" rx="0.31" ry="0.33"/><path class="cls-14" d="M330.2,496.7s7.53,11.61,9.78,17.53H342l4.63-14.88S336.15,500.26,330.2,496.7Z"/><path class="cls-14" d="M339.67,514.23v3.12h5.61s3.05-1.73,0-3.12-3.45,0-3.45,0Z"/><path class="cls-14" d="M339.4,486.75s9.77,6.87,12.2,7.05-13.49-.41-14.72-5.34"/></g><path class="cls-15" d="M343.51,465.24s-1.77-7-3.71-7.65l-1.06,1.34s-6-1.11-7.19.55a16.91,16.91,0,0,1-3,3.12s.92,4.33,0,4.67,2.42,4.34,2.42,4.34l2.52-6.37,3.22-1.55,4.2.18Z"/><path class="cls-5" d="M345.1,465.13s-8.4,6.52-15.75,4.83S337.41,444.87,345.1,465.13Z"/><path class="cls-5" d="M327.85,464.89s-5.54.46-5.45,3.6,9.23,1.47,9.23,1.47Z"/><rect id="hidden-3" data-name="hidden" class="cls-11" x="291.85" y="444.89" width="102.61" height="124.08"/><g id="sign-3" data-name="sign"><path class="cls-12" d="M371,474.53l-.47,10.05h-1L369,474.53Zm-.06,14.27h-1.84v-2.34h1.84Z"/></g></g><g class="cls-2"><polygon class="cls-4" points="432.43 522.37 432.38 538.67 423.61 543.77 423.66 527.47 432.43 522.37"/><polygon class="cls-4" points="423.66 527.47 423.61 543.77 396.86 528.33 396.9 512.02 423.66 527.47"/><polygon class="cls-4" points="432.43 522.37 423.66 527.47 396.9 512.02 405.68 506.93 432.43 522.37"/></g><g class="cls-2"><g class="cls-19"><path class="cls-20" d="M402.43,519.64c-1.78-1-3.23-.2-3.24,1.84a7.09,7.09,0,0,0,3.22,5.57c1.78,1,3.23.2,3.24-1.84a7.13,7.13,0,0,0-3.22-5.57"/><path class="cls-13" d="M402.41,527.05a7.09,7.09,0,0,1-3.22-5.57c0-2,1.46-2.87,3.24-1.84a7.13,7.13,0,0,1,3.22,5.57c0,2-1.46,2.87-3.24,1.84m0-8.48c-2.28-1.32-4.15-.25-4.16,2.38a9.15,9.15,0,0,0,4.13,7.17c2.3,1.32,4.17.26,4.17-2.38a9.16,9.16,0,0,0-4.14-7.17"/></g></g><g class="cls-2"><g class="cls-21"><path class="cls-20" d="M418.07,529.24c-1.78-1-3.24-.2-3.24,1.85a7.1,7.1,0,0,0,3.22,5.58c1.78,1,3.23.19,3.23-1.85a7.09,7.09,0,0,0-3.21-5.58"/><path class="cls-13" d="M418.05,536.67a7.1,7.1,0,0,1-3.22-5.58c0-2.05,1.46-2.88,3.24-1.85a7.09,7.09,0,0,1,3.21,5.58c0,2-1.45,2.88-3.23,1.85m0-8.48c-2.29-1.33-4.15-.26-4.16,2.37a9.08,9.08,0,0,0,4.14,7.16c2.28,1.32,4.15.26,4.16-2.37a9.11,9.11,0,0,0-4.14-7.16"/></g></g><polyline class="cls-22" points="407.44 512.39 407.44 504.81 425.3 514.62 425.3 522.37"/><polygon class="cls-4" points="413.45 525.95 413.44 529.07 407.49 525.43 407.5 522.41 413.45 525.95"/><path class="cls-23" d="M401.31,527.51s3,7.82,11,6.54"/><path class="cls-23" d="M397.23,530s4.13,10.9,15.34,9.11"/><path class="cls-23" d="M391,531.61s6.7,17.64,24.84,14.75"/><g id="_trigger_checking_ticket_" data-name="&lt;trigger_checking_ticket&gt;"><path class="cls-8" d="M643.25,453.87s-5.91-2.63-7.91,2.34-1.32,5.08-1.32,5.08l2.23.91-.26,7.44s8.86,0,10-1.73-1.74-9.27-1.74-9.27,1.73-.43,1.72-1.5-1.29-1.33-2.43-.26S643.25,453.87,643.25,453.87Z"/><circle class="cls-7" cx="637.97" cy="456.61" r="0.21"/><path class="cls-15" d="M636.55,454.07s1.27-4.77,2.65-5.22l.76.91s4.32-.76,5.14.38a11.83,11.83,0,0,0,2.13,2.13s-.65,3,0,3.19-3.82,2-3.82,2l.29-3.36L641.4,453l-3,.12Z"/><path class="cls-8" d="M646,467.36s13,19.43,11.64,31.4c0,0-19.41,1.48-25.73-2.2,0,0,1.16-23.14,4.09-27.32C636,469.24,643.84,469.13,646,467.36Z"/><path class="cls-9" d="M657.72,499.12s-9.86,16.27-16,28.61l-5.14.87s-4-22.34-4.15-31.79"/><path class="cls-10" d="M641.72,527.73v3.62s-6.28,2.15-9.82,0l4.68-2.75Z"/><rect class="cls-24" x="643.07" y="454.54" width="3.48" height="1.44" rx="0.54" ry="0.54" transform="translate(1289.63 910.52) rotate(-180)"/><path class="cls-8" d="M637.35,476.14s-9.08,9.94-13.15,10.59c0,0,15.34-3.28,18.55-11.4"/><polygon class="cls-18" points="626.18 478.22 620.03 480.4 624.12 492.98 629.37 491.56 626.18 478.22"/><g id="_man_" data-name="&lt;man&gt;"><path class="cls-8" d="M585.4,457.55s5.55-2.7,7.43,2.4,1.23,5.22,1.23,5.22l-2.09.93.24,7.64s-8.32,0-9.39-1.77,1.64-9.52,1.64-9.52-1.63-.44-1.62-1.54,1.21-1.36,2.29-.27S585.4,457.55,585.4,457.55Z"/><ellipse class="cls-7" cx="590.36" cy="460.37" rx="0.2" ry="0.22"/><path class="cls-15" d="M591.69,457.76s-1.19-4.89-2.49-5.36l-.71.94s-4.06-.78-4.83.39a11.5,11.5,0,0,1-2,2.18s.61,3,0,3.28,3.59,2,3.59,2l-.28-3.45,2.16-1.08,2.82.12Z"/><path class="cls-8" d="M582.82,471.4s-12.15,20-10.93,32.24c0,0,18.23,1.52,24.17-2.26,0,0-1.1-23.75-3.85-28.05C592.21,473.33,584.85,473.22,582.82,471.4Z"/><path class="cls-9" d="M595.56,501.64c-.1,9.7-3.9,32.63-3.9,32.63l-4.82-.89c-5.77-12.67-15-29.37-15-29.37"/><path class="cls-10" d="M586.84,533.38v3.72s5.9,2.2,9.22,0l-4.4-2.83Z"/><rect class="cls-24" x="582.29" y="458.24" width="3.27" height="1.48" rx="0.66" ry="0.66"/><path class="cls-25" d="M587,477.31s5.54-.75,6.52,1.41c1.93,4.25,2.51,10.61,2.51,13.7l.87,11.52-25.52,2.12s-2.13-20.46,11.41-34.66Z"/><polygon class="cls-25" points="582.26 471.07 593.29 478.69 582.26 476.22 582.26 471.07"/><path class="cls-25" d="M592.19,486.21s5.12,12.63,8.55,14.6c0,0-12.68-8.2-13.12-17.16"/></g><rect id="hidden-4" data-name="hidden" class="cls-11" x="556.44" y="423.99" width="102.61" height="124.08"/><g id="sign-4" data-name="sign"><path class="cls-12" d="M607.74,463.26l-.47,10.05h-1l-.47-10.05Zm-.06,14.28h-1.84v-2.35h1.84Z"/></g></g><g id="mother"><path class="cls-25" d="M482.11,533.9s14,22.21,12.56,35.89c0,0-20.94,1.7-27.76-2.51,0,0,1.26-26.45,4.42-31.23C471.33,536.05,479.79,535.92,482.11,533.9Z"/><polygon class="cls-8" points="481.77 534.48 474.07 538.32 472.78 536.4 481.77 534.48"/><path class="cls-25" d="M476.63,542s-10.12,11-14.52,11.53c0,0,16.63-3.07,20.37-12.22"/><path class="cls-9" d="M494.77,570.21s-10.65,18.59-17.27,32.7l-5.54,1s-4.36-25.53-4.48-36.33"/><line class="cls-26" x1="472.35" y1="555.33" x2="472.23" y2="567.57"/><path class="cls-15" d="M472.83,523.8c-4.83-1.65-6.47-9.68,7.16-5.93,0,0,2.42-.66,2.43-.62.3,1.32,3,22.48,8.39,18,0,0-5.52,5.72-8.47,3.23l-1.8-2-7.7-12.61S472.87,523.82,472.83,523.8Z"/><path class="cls-8" d="M480.06,522a.15.15,0,0,0-.09-.17c-.87-.37-6.84-3.46-8.83,1.7-1.88,4.85-1.95,5.06-1.82,5.18l.05,0,2.29,1a.18.18,0,0,1,.1.16l-.43,6.22s8.56.32,9.79-1.63c1.13-1.79-.25-7.37-.67-8.55a.16.16,0,0,1,.09-.21c.45-.15,1.71-.65,1.71-1.64,0-1.19-1.4-1.49-2.63-.3S479.92,522.76,480.06,522Z"/><ellipse class="cls-7" cx="473.84" cy="525.6" rx="0.23" ry="0.25"/><path class="cls-10" d="M477.5,602.91v4.14s-6.78,2.45-10.59,0l5-3.15Z"/></g></g></g></g></svg>