<svg xmlns="http://www.w3.org/2000/svg" viewBox="0 0 614.2 529.39"><defs><style>.cls-1{isolation:isolate;}.cls-11,.cls-12,.cls-17,.cls-2,.cls-24,.cls-5{fill:#fff;}.cls-10,.cls-11,.cls-12,.cls-13,.cls-14,.cls-15,.cls-17,.cls-2,.cls-21,.cls-22,.cls-23,.cls-24,.cls-25,.cls-26,.cls-27,.cls-28,.cls-3,.cls-4,.cls-9{stroke:#1a1a1a;}.cls-10,.cls-11,.cls-14,.cls-15,.cls-2,.cls-20,.cls-25,.cls-26,.cls-3,.cls-32{stroke-linecap:round;}.cls-10,.cls-11,.cls-14,.cls-15,.cls-17,.cls-2,.cls-20,.cls-25,.cls-26,.cls-28,.cls-3,.cls-32,.cls-4{stroke-linejoin:round;}.cls-16,.cls-23,.cls-25,.cls-27,.cls-3,.cls-4,.cls-7{fill:#c92028;}.cls-11,.cls-12,.cls-13,.cls-14,.cls-17,.cls-25,.cls-26,.cls-27,.cls-28,.cls-4,.cls-9{stroke-width:0.8px;}.cls-10,.cls-22,.cls-6{fill:#fff5f6;}.cls-15,.cls-19,.cls-20,.cls-21,.cls-26,.cls-28,.cls-29,.cls-31,.cls-32,.cls-8,.cls-9{fill:none;}.cls-8{stroke:#191919;stroke-width:0.5px;}.cls-12,.cls-13,.cls-19,.cls-21,.cls-22,.cls-23,.cls-24,.cls-27,.cls-29,.cls-31,.cls-8,.cls-9{stroke-miterlimit:10;}.cls-13,.cls-14{fill:#1a1a1a;}.cls-16{mix-blend-mode:multiply;}.cls-18{fill:#be2229;}.cls-19,.cls-20{stroke:#181818;}.cls-29{stroke:#e6e6e6;stroke-width:0.75px;}.cls-30{fill:#f5e0e2;}.cls-31,.cls-32{stroke:#000;}</style></defs><title>scene_郭</title><g class="cls-1"><g id="北門站"><g id="island_2"><polygon class="cls-2" points="31.49 277.05 296.16 124.24 588.39 292.97 471.84 360.26 356.86 292.97 205.59 377.57 31.49 277.05"/><polygon class="cls-3" points="31.49 294.82 31.49 277.05 205.59 377.57 205.59 397.07 31.49 294.82"/><polygon class="cls-3" points="356.86 311.94 356.86 293.13 471.84 360.26 471.39 379.22 356.86 311.94"/><polygon class="cls-3" points="205.59 397.07 356.86 311.94 356.86 292.97 205.59 377.57 205.59 397.07"/><polygon class="cls-3" points="588.97 292.58 588.97 308.31 471.39 379.22 471.84 360.26 588.97 292.58"/><g id="postoffice"><g id="postoffice-2" data-name="postoffice"><path class="cls-4" d="M147,192.09c-.07,1.3,1.25,79.58,1.25,79.58l140.69-82.11V114.69Z"/><polygon class="cls-5" points="61.47 259.78 60.57 116.12 247.74 8.05 308.5 43.91 308.5 187.69 292.14 197.16 291.94 115.15 260.6 132.94 260.82 215.3 238.36 228.87 237.66 146.54 206.33 164.33 206.13 247.14 184.53 259.73 184.53 176.45 153.2 194.24 153.34 277.54 122.83 295.2 61.47 259.78"/><polygon class="cls-6" points="60.57 116.12 61.47 259.78 122.83 295.2 122.89 153.05 60.57 116.12"/><path class="cls-7" d="M122.83,295.2l4.76-2.75,6,3.27s10.9,3.14,17.76-1.89,4.22-9.92,4.12-10.13-2.49-4-4.84-4.57l2.75-1.59s7.84,3.24,7.32,8.26.74,9.21-12.1,13.87S126.82,298,122.83,295.2Z"/><path class="cls-7" d="M184.09,259.71l3.44-2,4.3,2.37s7.87,2.26,12.82-1.37,3-7.16,3-7.32-1.8-2.9-3.5-3.29l2-1.15s5.66,2.34,5.28,6,.53,6.64-8.73,10S187,261.76,184.09,259.71Z"/><path class="cls-7" d="M238.27,228.69l3.43-2,4.31,2.36s7.86,2.27,12.82-1.37,3-7.16,3-7.31-1.8-2.9-3.49-3.3l2-1.15s5.66,2.35,5.28,6,.54,6.65-8.73,10S241.15,230.74,238.27,228.69Z"/><path class="cls-7" d="M292.53,197.2l2.54-1.47,3.19,1.74s5.82,1.68,9.48-1,2.25-5.29,2.2-5.41-1.33-2.14-2.59-2.43l1.47-.85s4.19,1.73,3.91,4.41.39,4.92-6.46,7.4S294.66,198.71,292.53,197.2Z"/><polygon class="cls-6" points="175.44 181.8 176.64 254.33 184.53 259.73 184.53 176.45 175.44 181.8"/><polygon class="cls-6" points="228.06 152.09 229.75 223.56 238.36 228.87 237.14 146.74 228.06 152.09"/><polygon class="cls-6" points="282.71 120.5 284.41 191.97 293.02 197.28 291.8 115.15 282.71 120.5"/><polygon class="cls-6" points="134.76 159.34 134.76 165.53 156.16 152.81 156.04 146.88 134.76 159.34"/><polygon class="cls-6" points="119.99 202.22 119.99 208.41 141.38 195.68 141.27 189.76 119.99 202.22"/><polygon class="cls-6" points="283.84 101.35 283.84 107.55 305.23 94.82 305.11 88.89 283.84 101.35"/><polygon class="cls-6" points="159.74 170.56 159.74 174.02 181.13 161.29 181.07 157.97 159.74 170.56"/><polygon class="cls-6" points="272.02 85.77 272.02 89.22 293.41 76.5 293.34 73.17 272.02 85.77"/><path class="cls-8" d="M181.8,147.22l-.54-2.18,1.38-.85q2.24-5.33,3.79-9.9l1.46.44c-.76,1.94-1.91,4.73-3.47,8.39l2.9-1.88c1.25-.75,2.2-1.33,2.85-1.75l-1.38-2.11,1.09-2c1.29,1.77,2.4,3.42,3.31,4.95l-1.2,2.28c-.09-.14-.23-.38-.41-.73l-.41-.63q-3.34,1.94-7.63,4.66A11.22,11.22,0,0,0,181.8,147.22Zm-.08,12.64.54-11,9.33-5.11-.54,11-1.42.77.07-1.47-6.54,3.59-.07,1.47Zm1.79-9.28-.24,4.8,6.55-3.58.23-4.8Z"/><path class="cls-8" d="M203.17,134.08l.13-2.55,3.24-1.78.31-6.27,1.42-.78-1.12,23-1.42.78.2-4.22q-1.63,2-3.19,3.66l-.17-2.48q1.56-1.62,3.49-3.83l.36-7.35Zm8.06,8.85c-1.36.8-1.95-.08-1.8-2.64l.92-18.73,1.47-.8-.37,7.64q1.61-2.49,3.16-5.16l.7,1.9c-1.5,2.42-2.84,4.48-4,6.2l-.38,7.75q-.13,1.89.78,1.29l.41-.22c.63-.22,1-1.1,1.16-2.64.15-1.1.28-2.35.38-3.74a13,13,0,0,1,1.33.13c-.06.54-.17,1.5-.34,2.86-.06.6-.12,1.08-.17,1.43-.27,2.25-1.07,3.66-2.38,4.26Z"/><path class="cls-8" d="M226,116.05c0-.32,0-.89,0-1.7a2.08,2.08,0,0,1,0-.37q2.83-1.55,6.56-4.07l.1,2a23.42,23.42,0,0,1-2.8,1.82l-.11,2.35,2.94-1.61-.1,2.06-.71.39-.15,3,1-.53-.1,2.06-1,.52-.15,3,.76-.41-.1,2-3,1.64-.12,2.45,2.91-1.88c-.07.67-.12,1.33-.15,2-1.26.81-3.16,2.08-5.71,3.79-.51.35-.9.59-1.17.74l-.05-2.07c1-.54,2-1.16,3.05-1.86l.13-2.55-3,1.66.09-2,.86-.47.15-3-1,.56.1-2.06,1-.56.15-3-.81.45.1-2.06,3-1.64.11-2.25A28.89,28.89,0,0,1,226,116.05Zm1.07,8.39-.15,3,1.16-.64.15-3Zm.25-5.1-.15,3,1.16-.64.15-3Zm2,3.85-.15,3,1.17-.63.14-3Zm.25-5.1-.15,3,1.16-.64.15-3Zm2.82,14,1.08-22.15,4.05-2.22-.11,2.35-1.48,7.11a8.66,8.66,0,0,1,1,5.06q-.15,4.29-1.94,5.36l-.86.47c0-.18,0-.49,0-.93s-.09-1-.13-1.35l.86-.48c.64-.28,1-1.14,1-2.56a8.54,8.54,0,0,0-1.1-4.64l1.44-7.37-1.67.92-1,19.8Z"/><path class="cls-8" d="M254,119.89c0-.94-.06-1.71-.13-2.31l.71-.39,1.12-.61c.8-.32,1.24-1.32,1.33-3,.08-1.13.21-3.26.36-6.4l-7.86,4.31a43.71,43.71,0,0,1-2,12.27c-.43-.66-.73-1.16-.91-1.5a35,35,0,0,0,1.18-5c.2-1.44.38-3.67.52-6.68l.45-9.11,10-5.48-.33,6.77-8.67,4.75-.09,1.86,9.22-5.06c0,.66-.09,1.68-.2,3.07-.18,3.16-.32,5.23-.4,6.23-.16,2.63-.89,4.33-2.17,5.1l-.86.48C254.69,119.47,254.28,119.72,254,119.89Zm-4.05-17-.12,2.45,7.35-4,.12-2.45Zm0,16.39.33-6.57,5.57-3.06-.32,6.57Zm1.5-5.31-.13,2.65,3-1.67.13-2.64Z"/><polygon class="cls-9" points="61.47 259.78 60.57 116.12 122.83 152.06 122.83 295.2 61.47 259.78"/><polyline class="cls-9" points="292.14 197.16 308.5 187.69 308.5 43.91 122.83 152.06"/><line class="cls-9" x1="237.85" y1="228.6" x2="260.82" y2="215.3"/><line class="cls-9" x1="184.9" y1="259.26" x2="206.6" y2="246.7"/><line class="cls-9" x1="122.83" y1="295.2" x2="153.34" y2="277.54"/><polyline class="cls-9" points="60.57 116.12 247.74 8.05 308.5 43.91"/><polyline class="cls-9" points="175.43 181.25 176.64 254.33 184.53 259.09 184.53 176.45 153.2 194.24 153.2 277.62"/><polyline class="cls-9" points="228.56 151.34 229.76 224.11 237.85 228.6 237.66 146.54 206.33 164.33 206.33 247.71"/><polyline class="cls-9" points="282.84 119.95 284.03 192.37 292.14 197.16 291.94 115.15 260.6 132.94 260.6 216.32"/><path class="cls-9" d="M122.83,295.32s8,8.21,24.08,4.75,18.13-17.35,6.43-22.53"/><path class="cls-9" d="M127.59,292.45s6,6.15,18,3.56,13.57-13,4.81-16.88"/><path class="cls-9" d="M184.53,259.73s5.63,5.81,17.05,3.36,12.84-12.28,4.55-15.95"/><path class="cls-9" d="M187.9,257.7s4.22,4.35,12.78,2.52,9.61-9.21,3.41-12"/><path class="cls-9" d="M292.53,197.36s4.24,4.37,12.82,2.53,9.64-9.24,3.42-12"/><path class="cls-9" d="M295.07,195.83s3.17,3.27,9.6,1.9,7.22-6.92,2.56-9"/><path class="cls-9" d="M238.36,228.87s5.69,5.87,17.21,3.4,12.95-12.4,4.59-16.1"/><path class="cls-9" d="M241.77,226.82s4.25,4.4,12.89,2.55,9.7-9.29,3.44-12.06"/></g><path class="cls-10" d="M140.58,260.36s1,12.25,0,14.21-1.78,10.66-1.78,10.66-1.22,5.38-6.68,6.22l3.79.16,5.13-2.07,2.13,1.18v1.35s2,1.36,2.8.68a21.31,21.31,0,0,1-1.32-2.56c-.49-1.21-.58-.65-.58-.65s3.39.17,4.38-.58l-1.49-.69-1.77-2.83A106.54,106.54,0,0,1,147,269.25s1.49-6,2.64-8.17l-1.48-.43s-2.15,6.5-2.64,7.27.49-.77.49-.77-3-4.57-2.8-7.2A2.42,2.42,0,0,0,140.58,260.36Z"/><path class="cls-2" d="M143.72,265.68a13,13,0,0,0,2.43-.26,12.57,12.57,0,1,0,15.18-19.59,11.38,11.38,0,0,0,1.16-4.55,11.52,11.52,0,0,0-.64-4.29,9.77,9.77,0,0,0,.93-3.75A9.87,9.87,0,0,0,153.35,223a10.21,10.21,0,0,0-3,.33,11,11,0,0,0-19.7,5,11.16,11.16,0,0,0-.1,18.28,11.73,11.73,0,1,0,13.16,19.14Z"/><circle class="cls-3" cx="144.21" cy="242.87" r="1.71"/><circle class="cls-3" cx="159.14" cy="241.35" r="1.52"/><circle class="cls-3" cx="142.54" cy="234.08" r="1.68"/><circle class="cls-3" cx="132.12" cy="250.57" r="1.43"/><circle class="cls-3" cx="157.62" cy="255.41" r="1.46"/><path class="cls-10" d="M252.49,201.75s-.79,9.37,0,10.86,1.36,8.15,1.36,8.15a6.47,6.47,0,0,0,5.11,4.76l-2.9.12-3.92-1.59-1.63.91v1s-1.51,1-2.14.52a16.63,16.63,0,0,0,1-1.95c.38-.93.44-.51.44-.51s-2.59.14-3.34-.43l1.13-.53,1.35-2.17a81.55,81.55,0,0,0-1.35-12.38,41.61,41.61,0,0,0-2-6.24l1.14-.33s1.64,5,2,5.56l-.38-.59s2.27-3.49,2.14-5.5A1.84,1.84,0,0,1,252.49,201.75Z"/><path class="cls-2" d="M250.09,205.81a9.54,9.54,0,0,1-1.86-.19,9.61,9.61,0,1,1-11.61-15,9,9,0,0,1-.88-3.49,8.66,8.66,0,0,1,.49-3.27,7.68,7.68,0,0,1-.71-2.87,7.54,7.54,0,0,1,7.21-7.86,7.79,7.79,0,0,1,2.28.25,8.41,8.41,0,0,1,15.06,3.8,8.77,8.77,0,0,1,.9.71,8.54,8.54,0,0,1,.52,12.08,8.85,8.85,0,0,1-1.34,1.19,9,9,0,1,1-10.06,14.62Z"/><circle class="cls-3" cx="249.71" cy="188.38" r="1.31"/><circle class="cls-3" cx="238.3" cy="187.22" r="1.16"/><circle class="cls-3" cx="251" cy="181.66" r="1.28"/><circle class="cls-3" cx="258.96" cy="194.27" r="1.09"/><circle class="cls-3" cx="239.46" cy="197.97" r="1.12"/><path class="cls-10" d="M305.48,175.92s-.67,7.87,0,9.13,1.14,6.84,1.14,6.84a5.44,5.44,0,0,0,4.29,4l-2.43.1-3.3-1.33-1.36.76v.87s-1.27.87-1.8.44a13.05,13.05,0,0,0,.84-1.65c.32-.77.38-.42.38-.42s-2.18.12-2.81-.37l.95-.44,1.14-1.82a68.74,68.74,0,0,0-1.14-10.4,36,36,0,0,0-1.69-5.25l.95-.27s1.38,4.17,1.69,4.67-.31-.5-.31-.5,1.9-2.93,1.8-4.62A1.57,1.57,0,0,1,305.48,175.92Z"/><path class="cls-2" d="M303.47,179.34a7.4,7.4,0,0,1-1.57-.17,8.07,8.07,0,1,1-9.75-12.57,7.54,7.54,0,0,1-.74-2.93,7.37,7.37,0,0,1,.41-2.75,6.11,6.11,0,0,1-.59-2.41,6.32,6.32,0,0,1,6-6.6,6.44,6.44,0,0,1,1.92.21,7.05,7.05,0,0,1,12.65,3.19,6.94,6.94,0,0,1,.75.59,7.17,7.17,0,0,1,.44,10.15,7,7,0,0,1-1.12,1,7.53,7.53,0,1,1-8.45,12.29Z"/><circle class="cls-3" cx="303.15" cy="164.69" r="1.1"/><circle class="cls-3" cx="293.56" cy="163.72" r="0.97"/><circle class="cls-3" cx="304.22" cy="159.04" r="1.08"/><circle class="cls-3" cx="310.91" cy="169.64" r="0.92"/><circle class="cls-3" cx="294.54" cy="172.75" r="0.94"/><path class="cls-11" d="M219.69,172.9s5.47-2.56,7.32,2.29,1.22,5,1.22,5l-2.07.88.24,7.26s-8.19,0-9.25-1.69,1.61-9.05,1.61-9.05-1.6-.42-1.59-1.46,1.2-1.29,2.25-.26S219.69,172.9,219.69,172.9Z"/><ellipse class="cls-12" cx="224.58" cy="175.58" rx="0.2" ry="0.21"/><path class="cls-13" d="M225.89,173.11s-1.17-4.66-2.45-5.1l-.71.89s-4-.75-4.75.37a11.31,11.31,0,0,1-2,2.08s.61,2.89,0,3.11,3.54,1.92,3.54,1.92l-.27-3.27,2.13-1,2.78.11Z"/><path class="cls-11" d="M217.15,186.08s-12,19-10.77,30.65c0,0,18,1.45,23.81-2.14,0,0-1.07-22.59-3.79-26.68C226.4,187.91,219.15,187.8,217.15,186.08Z"/><path class="cls-14" d="M206.3,217.08S215.43,233,221.11,245l4.75.85s3.74-21.81,3.85-31"/><path class="cls-15" d="M221.11,245v3.54s5.81,2.09,9.08,0l-4.33-2.69Z"/><rect class="cls-16" x="216.63" y="173.56" width="3.22" height="1.41" rx="0.67" ry="0.67"/><path class="cls-17" d="M226.26,187.94l-9,24h-6.82l-3.85,9.53s-.32,3.75,5,4.17,10.07.3,10.07.3a4.7,4.7,0,0,0,2.16-4.39c-.11-3.2-.4-8.73-.4-8.73l4.71-19.05Z"/><path class="cls-11" d="M221.55,195.8s-2.24,12.84-.4,16.24c0,0-6.31-13.31-2.08-20.71"/><path class="cls-17" d="M217.15,186.61l7.24,5.08,2-3.78A48.91,48.91,0,0,1,217.15,186.61Z"/><path class="cls-17" d="M215.49,171.39s10.08-1,10.89-.83a30.91,30.91,0,0,0,3.68,0l-5.88-1.69Z"/><path class="cls-11" d="M215.49,171.39l-2.14-2.21s-.9-1.38,1.87-2.52a52.35,52.35,0,0,1,6.9-2s3.77.42,2.92,2.33l-.86,1.91Z"/><path class="cls-10" d="M199.91,234s-.8,9.37,0,10.86,1.36,8.15,1.36,8.15a6.47,6.47,0,0,0,5.11,4.76l-2.9.12-3.92-1.58-1.63.9v1s-1.51,1-2.14.52a15.74,15.74,0,0,0,1-1.95c.37-.93.44-.5.44-.5s-2.59.13-3.35-.44l1.14-.53,1.35-2.16A81.43,81.43,0,0,0,195,240.84a42.87,42.87,0,0,0-2-6.25l1.14-.33s1.64,5,2,5.56-.38-.59-.38-.59,2.27-3.49,2.14-5.5A1.84,1.84,0,0,1,199.91,234Z"/><path class="cls-2" d="M197.51,238.11a9.54,9.54,0,0,1-1.86-.2,9.61,9.61,0,1,1-11.61-15,9,9,0,0,1-.88-3.49,8.66,8.66,0,0,1,.49-3.27,7.68,7.68,0,0,1-.71-2.87,7.54,7.54,0,0,1,7.21-7.86,7.47,7.47,0,0,1,2.28.26,8.4,8.4,0,0,1,15.06,3.79,8.77,8.77,0,0,1,.9.71,8.54,8.54,0,0,1,.52,12.08,8.34,8.34,0,0,1-1.34,1.19,9,9,0,1,1-10.06,14.63Z"/><circle class="cls-3" cx="197.13" cy="220.67" r="1.31"/><circle class="cls-3" cx="185.72" cy="219.51" r="1.16"/><circle class="cls-3" cx="198.41" cy="213.95" r="1.28"/><circle class="cls-3" cx="206.38" cy="226.56" r="1.09"/><circle class="cls-3" cx="186.88" cy="230.26" r="1.12"/><polygon class="cls-18" points="57.63 267.34 57.62 222.09 85.38 205.98 98.79 214.17 99.33 257.78 88.75 265.24 89.03 274.87 99.08 279.41 99.39 283.65 79.43 295.17 66.92 287.95 66.92 285.15 77.13 279.62 77.24 272.62 71.76 276.14 57.63 267.34"/><polygon class="cls-5" points="79.38 231.8 79.35 235.69 89.45 229.61 89.45 225.54 79.38 231.8"/><polygon class="cls-5" points="79.42 238.53 79.39 242.41 83.92 239.73 83.94 247.11 87.56 244.99 87.5 237.54 90.57 235.67 90.57 231.6 79.42 238.53"/><polygon class="cls-5" points="72.65 253.94 72.65 256.96 81.6 251.99 81.61 248.34 72.65 253.94"/><polygon class="cls-5" points="90.7 244.71 90.68 247.34 97.57 243.23 97.58 240.47 90.7 244.71"/><path class="cls-19" d="M69.42,231.81v41.95a2.09,2.09,0,0,0,3.21,1.76l25.21-16.17a3.26,3.26,0,0,0,1.49-2.74l-.06-41.29a1.62,1.62,0,0,0-2.42-1.4L71.2,228.73A3.57,3.57,0,0,0,69.42,231.81Z"/><path class="cls-19" d="M86.19,206.16c-.48-.28-1.08-.32-2.47.48L58.07,221.45a4,4,0,0,0-.93,2.59v42a2,2,0,0,0,1.08,1.83"/><line class="cls-19" x1="98.79" y1="214.17" x2="86.19" y2="206.16"/><line class="cls-20" x1="68.21" y1="229.06" x2="59.99" y2="224.32"/><line class="cls-19" x1="70.48" y1="275.34" x2="57.63" y2="267.34"/><path class="cls-20" d="M88.76,274.06l9.76,4.88a1.57,1.57,0,0,1,.09,2.76L80.4,292.35a1.59,1.59,0,0,1-1.58,0l-11.58-6.69"/><line class="cls-20" x1="66.93" y1="285.51" x2="77.13" y2="279.62"/><path class="cls-20" d="M99.08,283.41a1.57,1.57,0,0,1-.48.44l-18.39,11a1.54,1.54,0,0,1-1.59,0L66.93,288"/><line class="cls-20" x1="66.93" y1="287.52" x2="66.93" y2="285.51"/><line class="cls-20" x1="66.93" y1="287.84" x2="66.93" y2="287.52"/><line class="cls-20" x1="99.39" y1="283.65" x2="99.39" y2="280"/><line class="cls-20" x1="81.72" y1="269.75" x2="81.99" y2="286.47"/><line class="cls-20" x1="77.24" y1="272.62" x2="77.24" y2="283.54"/><line class="cls-20" x1="81.61" y1="286.42" x2="77.24" y2="283.88"/><line class="cls-20" x1="81.99" y1="286.47" x2="88.76" y2="282.59"/><line class="cls-20" x1="88.76" y1="274.06" x2="88.75" y2="265.24"/><line class="cls-20" x1="88.76" y1="282.59" x2="88.76" y2="274.06"/><line class="cls-20" x1="72.65" y1="253.94" x2="81.61" y2="248.34"/><line class="cls-20" x1="72.64" y1="257.46" x2="81.6" y2="251.99"/><line class="cls-20" x1="81.63" y1="248.7" x2="81.6" y2="251.99"/><line class="cls-20" x1="72.59" y1="253.95" x2="72.56" y2="257.43"/><line class="cls-20" x1="90.75" y1="244.7" x2="97.58" y2="240.47"/><line class="cls-20" x1="90.74" y1="247.37" x2="97.57" y2="243.23"/><line class="cls-20" x1="97.6" y1="240.74" x2="97.58" y2="243.23"/><line class="cls-20" x1="90.7" y1="244.71" x2="90.68" y2="247.34"/><line class="cls-20" x1="79.45" y1="231.79" x2="89.45" y2="225.54"/><line class="cls-20" x1="79.44" y1="235.72" x2="89.44" y2="229.61"/><line class="cls-20" x1="89.48" y1="225.94" x2="89.45" y2="229.61"/><line class="cls-20" x1="79.38" y1="231.8" x2="79.35" y2="235.68"/><line class="cls-20" x1="79.49" y1="238.52" x2="90.57" y2="231.6"/><line class="cls-20" x1="87.5" y1="237.54" x2="90.57" y2="235.67"/><line class="cls-20" x1="79.34" y1="242.54" x2="83.92" y2="239.73"/><line class="cls-20" x1="90.69" y1="231.61" x2="90.66" y2="235.28"/><line class="cls-20" x1="79.42" y1="238.53" x2="79.39" y2="242.41"/><line class="cls-20" x1="83.94" y1="239.93" x2="83.94" y2="247.11"/><line class="cls-20" x1="87.45" y1="237.76" x2="87.56" y2="244.99"/><line class="cls-20" x1="84.28" y1="247.11" x2="87.56" y2="244.99"/></g><g id="temple"><polygon class="cls-5" points="307.9 107.44 307.9 164.89 457.04 250.38 457.04 177.02 307.9 107.44"/><polygon class="cls-6" points="457.04 191.26 457.04 250.38 542 202.13 542 159.58 469.69 173.69 457.04 191.26"/><line class="cls-21" x1="542" y1="202.13" x2="542" y2="142.21"/><path class="cls-22" d="M307.9,177.19v49.2L350.51,251s8.52-41.13,29.56-29,23.48,58.86,23.48,58.86L457,312.5V250.37L307.9,164.89Z"/><polygon class="cls-23" points="457.04 250.38 542 202.68 542 263.45 457.04 312.5 457.04 250.38"/><path class="cls-23" d="M388.13,229.28,350.51,251s5.62-27.6,18.81-30.76C381.07,217.43,388.13,229.28,388.13,229.28Z"/><polygon class="cls-24" points="307.9 105.36 389.81 57.72 542 142.21 457.04 189.5 307.9 105.36"/><path class="cls-21" d="M380.45,218.37c23.73,13.7,26.49,66.38,26.49,66.38"/><path class="cls-21" d="M347.13,251.05s6.33-31.12,21.2-34.68"/><line class="cls-21" x1="457.04" y1="250.37" x2="457.04" y2="189.5"/><line class="cls-21" x1="307.9" y1="173.69" x2="307.9" y2="105.36"/><line class="cls-21" x1="391" y1="233.08" x2="456.36" y2="270.82"/><line class="cls-21" x1="308.58" y1="185.5" x2="368.56" y2="220.13"/><line class="cls-21" x1="400.04" y1="258.17" x2="456.16" y2="290.57"/><line class="cls-21" x1="308.38" y1="205.25" x2="356.65" y2="233.12"/><line class="cls-21" x1="456.36" y1="270.82" x2="542" y2="221.54"/><line class="cls-21" x1="456.16" y1="290.57" x2="542" y2="240.62"/><line class="cls-21" x1="333.76" y1="180.93" x2="333.96" y2="200.41"/><line class="cls-21" x1="321" y1="192.67" x2="321" y2="212.78"/><line class="cls-21" x1="342.87" y1="205.55" x2="342.87" y2="224.41"/><line class="cls-21" x1="331.11" y1="218.37" x2="331.11" y2="239.58"/><line class="cls-21" x1="429.48" y1="235.16" x2="429.48" y2="255.06"/><line class="cls-21" x1="417.07" y1="247.91" x2="417.07" y2="268"/><line class="cls-21" x1="440.51" y1="261.67" x2="440.51" y2="281.33"/><line class="cls-21" x1="427.56" y1="272.76" x2="427.56" y2="295.07"/><line class="cls-21" x1="362.9" y1="196.41" x2="362.9" y2="216.37"/><line class="cls-21" x1="401.11" y1="219.81" x2="401.11" y2="239.58"/><line class="cls-21" x1="479.35" y1="257.59" x2="479.35" y2="238.69"/><line class="cls-21" x1="469.69" y1="263.15" x2="469.69" y2="281.33"/><line class="cls-21" x1="489.82" y1="251.56" x2="489.82" y2="271.5"/><line class="cls-21" x1="480.95" y1="276.14" x2="480.95" y2="299.18"/><line class="cls-21" x1="500.32" y1="226.08" x2="500.32" y2="246.18"/><line class="cls-21" x1="510.65" y1="239.58" x2="510.65" y2="259.3"/><line class="cls-21" x1="502.03" y1="263.88" x2="502.03" y2="284.75"/><line class="cls-21" x1="518.98" y1="215.6" x2="518.98" y2="235.16"/><line class="cls-21" x1="527.82" y1="229.7" x2="527.82" y2="249.44"/><line class="cls-21" x1="520.27" y1="253.26" x2="520.27" y2="276.14"/><polygon class="cls-23" points="368.9 195.78 368.9 208.28 390.54 220.77 390.54 208.28 368.9 195.78"/><polygon class="cls-24" points="370.31 194.97 368.9 195.78 390.54 208.28 392 207.43 370.31 194.97"/><polygon class="cls-24" points="390.54 220.77 392 219.9 392 207.43 390.54 208.28 390.54 220.77"/><polygon class="cls-7" points="337.2 140.09 337.2 158.82 340.05 160.4 340.05 141.69 337.2 140.09"/><polygon class="cls-7" points="417.49 183.74 417.49 202.47 420.34 204.05 420.34 185.34 417.49 183.74"/><path class="cls-7" d="M383.32,160.59s-8.88,2.13-7.05,15,7.49,14.15,7.49,14.15S374,192.72,373,174.35C373,174.35,373.73,158.11,383.32,160.59Z"/><polygon class="cls-6" points="340.05 141.69 340.05 160.4 350.5 166.5 350.5 147.77 340.05 141.69"/><polygon class="cls-6" points="420.34 185.34 420.34 204.05 430.79 210.39 430.79 191.66 420.34 185.34"/><path class="cls-6" d="M383.32,160.59A11.92,11.92,0,0,0,376.19,173c.94,9.31,3.94,15.24,7.57,16.48s8.18-10.88,6.06-18.89S385.58,161.6,383.32,160.59Z"/><ellipse class="cls-21" cx="381.64" cy="175.13" rx="8.67" ry="14.96" transform="translate(-6.24 14.28) rotate(-2.13)"/><path class="cls-15" d="M383.32,189.58c-3.14-2-5.84-6.6-6.82-12.26-1.41-8.14,2.05-16.29,6.82-16.73"/><polygon class="cls-15" points="337.2 140.09 337.2 158.82 350.5 166.5 350.5 147.77 337.2 140.09"/><line class="cls-15" x1="340.05" y1="141.69" x2="340.05" y2="159.58"/><polygon class="cls-15" points="417.49 183.98 417.49 202.71 430.79 210.39 430.79 191.66 417.49 183.98"/><line class="cls-15" x1="420.34" y1="203.47" x2="420.34" y2="185.58"/><path class="cls-7" d="M281.89,92.18,283,71.09,290.7,91.8s31.55,2.91,54.83-26.88c0,0-10.7-24.58-10.35-32.61l3.86-4s6.73,26.76,11.51,30.88c0,0,19.48-26.71,21.68-39.38,0,0-2.56-6.63-1.88-10l3.85-3.95S382.72,49.7,415.79,69s70.1,21.42,100.48,15.2,23.3-4.75,23.3-4.75l-.63,5.77-13.57,3.46,6.29,20.72,9.35-3.73-.06,5.81-7.1,2.89s15.33,29.9,35.68,39.24l1.35-20.37L578,164l-6.92-4-59.86,38-1.55,22.1Z"/><path class="cls-21" d="M538.94,85.2C381.44,129,370.35,9.87,370.35,9.87l3.85-3.95s15.3,110.36,165.37,73.51Z"/><path class="cls-21" d="M345.53,64.92a99.87,99.87,0,0,1-10.35-32.61l3.86-4s2,14.3,11.51,30.88"/><path class="cls-21" d="M483.06,120.9c16.82-2,36-6.78,57.95-15.25l-.06,5.81c-22.41,9.43-42,15-59.16,17.54"/><path class="cls-21" d="M490.48,94c-27.39,79.87,12.14,115.62,12.14,115.62l8.57-20.31-1.55,30.8L281.89,92.18,283,71.09,290.7,91.8s50.52,7.1,81.53-71.95"/><path class="cls-21" d="M533.85,114.35c14,29.61,35.68,39.24,35.68,39.24l1.35-20.37L578,164l-7.77-4.52"/><path class="cls-21" d="M525.37,88.66a117.89,117.89,0,0,0,6.29,20.72"/><line class="cls-21" x1="511.19" y1="197.98" x2="576.54" y2="156.06"/><path class="cls-21" d="M415.79,80.25S404.84,121,383.12,149"/><path class="cls-21" d="M406.58,74S387,119.82,358,134.9"/><path class="cls-21" d="M397.54,66s-28,57.09-62.36,56.11"/><path class="cls-21" d="M390.31,57.71s-24.4,46.6-73.76,53.94"/><path class="cls-21" d="M382.27,45.43S358,101,297.55,101"/><path class="cls-21" d="M427.56,86.13s-9.11,48.34-21,75.1"/><path class="cls-21" d="M440.15,90.35s-12.59,42.39-10.42,84.78"/><path class="cls-21" d="M451.58,92.94s-11.43,50.18,2.82,96.12"/><path class="cls-21" d="M468.78,94.72s-15.12,55,14.4,110.51"/><path class="cls-21" d="M496.55,126.17c2.75,20,9.51,45.24,25.76,63.23"/><path class="cls-21" d="M494.86,94.06a173.87,173.87,0,0,0,.85,25"/><path class="cls-21" d="M510,122.75c5.49,18.57,15.1,41.87,31.09,56.47"/><path class="cls-21" d="M503.54,93.86a200.06,200.06,0,0,0,4.62,22.35"/><path class="cls-21" d="M521.7,119.11c7.67,16.55,19.89,36.56,37.48,48.09"/><path class="cls-21" d="M511.4,91.52A175.07,175.07,0,0,0,519,113"/></g><polygon class="cls-24" points="510.64 256.01 510.64 265.2 498.02 258.49 498.02 251.34 510.64 256.01"/><polygon class="cls-24" points="502.68 248.64 498.02 251.34 510.64 256.01 513.49 254.12 502.68 248.64"/><polygon class="cls-24" points="510.64 265.2 514.45 262.54 513.49 254.12 510.64 256.01 510.64 265.2"/><circle class="cls-24" cx="503.04" cy="257.33" r="2.33"/><path class="cls-4" d="M526.5,255.07s13.15,19.55,11.83,31.6c0,0-19.74,1.49-26.16-2.21,0,0,1.18-23.29,4.16-27.5C516.33,257,524.3,256.85,526.5,255.07Z"/><polygon class="cls-25" points="526.17 255.58 518.92 260.02 517.7 257.8 526.17 255.58"/><path class="cls-4" d="M523.81,262.57s-13.56-.36-16.76-3.06c0,0,12.68,9.6,21,6.67"/><path class="cls-14" d="M538.42,287s-10,16.37-16.27,28.79l-5.22.87s-4.11-22.47-4.23-32"/><line class="cls-26" x1="517.3" y1="273.94" x2="517.18" y2="284.71"/><path class="cls-13" d="M517.74,246.18c-4.54-1.45-6.09-8.52,6.75-5.22,0,0,2.28-.58,2.29-.54.28,1.16,2.87,19.79,7.91,15.84,0,0-5.2,5-8,2.84L525,257.39l-7.26-11.1S517.78,246.2,517.74,246.18Z"/><path class="cls-11" d="M524.56,244.63a.14.14,0,0,0-.09-.16c-.81-.32-6.44-3-8.32,1.5-1.77,4.27-1.83,4.46-1.71,4.56l0,0,2.16.85a.17.17,0,0,1,.09.14l-.41,5.48s8.07.28,9.23-1.44-.24-6.48-.63-7.53a.14.14,0,0,1,.08-.18c.42-.13,1.62-.57,1.61-1.44,0-1.05-1.31-1.32-2.47-.26S524.43,245.27,524.56,244.63Z"/><circle class="cls-12" cx="518.7" cy="247.76" r="0.22"/><path class="cls-15" d="M522.15,315.82v3.64s-6.39,2.16-10,0l4.76-2.77Z"/><line class="cls-21" x1="493.85" y1="246.34" x2="489.41" y2="238.95"/><line class="cls-21" x1="484.56" y1="251.01" x2="491.63" y2="251.01"/><line class="cls-21" x1="495.46" y1="258.14" x2="484.56" y2="266.95"/><path class="cls-27" d="M380.11,239.27s5.34,13.92,2.38,15.29-11,.94-10.62-4.94a38.47,38.47,0,0,1,2.69-11.26Z"/><ellipse class="cls-24" cx="377.62" cy="235.64" rx="5.2" ry="5.56"/><ellipse class="cls-12" cx="379.24" cy="233.35" rx="0.2" ry="0.22"/><path class="cls-12" d="M372.42,252.3s5,7.69,6.47,11.6h1.37l3.06-9.84S376.36,254.66,372.42,252.3Z"/><path class="cls-12" d="M378.69,263.9V266h3.71s2-1.15,0-2.07-2.28,0-2.28,0Z"/><path class="cls-27" d="M379.44,242.88s6-5.14,6.51-6.67-2.46,8.58-5.82,8.57"/><polygon class="cls-14" points="379.04 230.08 377.62 227.95 371.38 230.08 368.89 235.64 370.04 238.65 374.61 238.51 374.61 235.64 377.04 232.53 379.04 230.08"/><g id="_trigger_woman_package_" data-name="&lt;trigger_woman_package&gt;"><path class="cls-4" d="M200.17,273.81s-13.16,19.55-11.83,31.6c0,0,19.73,1.49,26.15-2.21,0,0-1.18-23.28-4.16-27.5C210.33,275.7,202.36,275.59,200.17,273.81Z"/><polygon class="cls-25" points="200.5 274.32 207.75 278.76 208.96 276.54 200.5 274.32"/><path class="cls-4" d="M197.6,287.27s-11.91,6.5-13.53,10.35c0,0,6.92-14.31,15.63-15.48"/><path class="cls-14" d="M188.24,305.77s10,16.37,16.28,28.79l5.22.87s4.11-22.47,4.22-32"/><line class="cls-26" x1="209.37" y1="292.68" x2="209.48" y2="303.45"/><rect class="cls-17" x="173.54" y="307.35" width="24.32" height="2.38" rx="1.19" ry="1.19" transform="translate(545.16 286.77) rotate(117.58)"/><rect class="cls-17" x="165.65" y="304.18" width="24.32" height="2.38" rx="1.19" ry="1.19" transform="translate(530.81 289.12) rotate(117.58)"/><rect class="cls-17" x="178.9" y="295.19" width="15.67" height="2.38" rx="1.19" ry="1.19" transform="translate(100.21 -43.07) rotate(17.91)"/><path class="cls-13" d="M208.92,264.92c4.54-1.45,6.1-8.52-6.75-5.22,0,0-2.28-.58-2.29-.54C199.6,260.32,197,279,192,275c0,0,5.2,5,8,2.84l1.69-1.71,7.26-11.1S208.88,264.94,208.92,264.92Z"/><path class="cls-11" d="M202.11,263.37a.14.14,0,0,1,.08-.16c.82-.32,6.44-3,8.32,1.5,1.77,4.27,1.83,4.46,1.72,4.56l-.06,0-2.15.85a.15.15,0,0,0-.09.14l.4,5.48s-8.06.28-9.23-1.44c-1.06-1.57.24-6.48.64-7.52a.14.14,0,0,0-.09-.19c-.42-.13-1.61-.57-1.61-1.44,0-1.05,1.32-1.32,2.48-.26S202.24,264,202.11,263.37Z"/><circle class="cls-12" cx="207.96" cy="266.51" r="0.22"/><path class="cls-17" d="M154,328.75c2.66-4.31,8-12.72,10.5-16.74a3.18,3.18,0,0,1,3.88-1.26L184,317a3.29,3.29,0,0,1,1.64,4.67l-9,16.1a4.31,4.31,0,0,1-5.48,1.83l-15.87-7A2.7,2.7,0,0,1,154,328.75Z"/><path class="cls-17" d="M151.68,325.9c2.66-4.31,8-12.72,10.49-16.75a3.19,3.19,0,0,1,3.89-1.25l15.58,6.25a3.29,3.29,0,0,1,1.64,4.67l-9,16.09a4.3,4.3,0,0,1-5.48,1.84l-15.87-7A2.7,2.7,0,0,1,151.68,325.9Z"/><line class="cls-26" x1="186.11" y1="319.52" x2="183.4" y2="315.68"/><line class="cls-28" x1="154.04" y1="331.63" x2="151.92" y2="329.05"/><circle class="cls-17" cx="157.21" cy="335.12" r="1.99"/><circle class="cls-17" cx="169.13" cy="339.96" r="1.99"/><line class="cls-26" x1="158.44" y1="321.11" x2="173.67" y2="327.02"/><path class="cls-15" d="M204.52,334.56v3.65s6.38,2.15,10,0l-4.75-2.78Z"/><g id="sign"><path class="cls-7" d="M170.91,286.36l-.52,11.22h-1.15l-.52-11.22Zm-.07,15.94h-2.05v-2.62h2.05Z"/></g><rect id="hidden" class="cls-29" x="140.58" y="260.36" width="89.06" height="87.57"/></g><g id="_trigger_man_child_mail_" data-name="&lt;trigger_man_child_mail&gt;"><path class="cls-11" d="M297.82,215S292,212.3,290,217.48s-1.3,5.29-1.3,5.29l2.21.94-.26,7.75s8.74,0,9.87-1.8-1.72-9.65-1.72-9.65,1.7-.45,1.7-1.56-1.28-1.38-2.41-.27S297.82,215,297.82,215Z"/><ellipse class="cls-12" cx="292.61" cy="217.9" rx="0.21" ry="0.23"/><path class="cls-13" d="M291.21,215.26s1.25-5,2.61-5.45l.76.95s4.25-.79,5.06.4a11.87,11.87,0,0,0,2.11,2.22s-.65,3.08,0,3.32-3.77,2.05-3.77,2.05l.29-3.49-2.27-1.1-3,.12Z"/><path class="cls-11" d="M300.53,229.09S313.3,249.32,312,261.78c0,0-19.15,1.55-25.39-2.28,0,0,1.15-24.1,4-28.46C290.66,231,298.4,230.93,300.53,229.09Z"/><path class="cls-14" d="M312.1,262.16S302.36,279.1,296.31,292l-5.07.9s-4-23.26-4.1-33.1"/><path class="cls-15" d="M296.31,292v3.77s-6.2,2.23-9.69,0l4.62-2.87Z"/><rect class="cls-16" x="297.65" y="215.74" width="3.44" height="1.5" rx="0.67" ry="0.67" transform="translate(598.73 432.98) rotate(-180)"/><path class="cls-11" d="M291.51,235.9s-5.38,12.82-9,14.81c0,0,13.33-8.32,13.79-17.4"/><polygon class="cls-10" points="267.42 248.95 273.35 257.14 284.5 252.98 278.75 244.01 267.42 248.95"/><line class="cls-15" x1="267.41" y1="248.95" x2="276.37" y2="250.37"/><line class="cls-15" x1="276.37" y1="250.37" x2="278.75" y2="244.01"/><polygon class="cls-10" points="244.57 263.34 240.19 269.38 231.96 266.31 236.21 259.69 244.57 263.34"/><line class="cls-15" x1="244.57" y1="263.34" x2="237.96" y2="264.39"/><line class="cls-15" x1="237.96" y1="264.39" x2="236.21" y2="259.69"/><path class="cls-12" d="M228.38,266.13s5.34,13.92,2.38,15.28-11,.95-10.62-4.93a38,38,0,0,1,2.69-11.26Z"/><ellipse class="cls-24" cx="225.89" cy="262.49" rx="5.2" ry="5.56"/><ellipse class="cls-12" cx="227.51" cy="260.2" rx="0.2" ry="0.22"/><path class="cls-12" d="M220.69,279.16s5,7.68,6.47,11.6h1.37l3.06-9.84S224.63,281.52,220.69,279.16Z"/><path class="cls-12" d="M227,290.76v2.06h3.71s2-1.14,0-2.06-2.28,0-2.28,0Z"/><path class="cls-12" d="M227.88,270.68s6.89-3.88,7.68-5.29-4.08,7.95-7.37,7.28"/><polygon class="cls-14" points="227.31 256.94 225.89 254.81 219.65 256.94 217.16 262.49 218.31 265.5 222.88 265.37 222.88 262.49 225.3 259.38 227.31 256.94"/><g id="sign-2" data-name="sign"><path class="cls-7" d="M253.37,242.37l-.52,11.22H251.7l-.52-11.22Zm-.07,15.94h-2.05v-2.62h2.05Z"/></g><rect id="hidden-2" data-name="hidden" class="cls-29" x="220.61" y="210.68" width="89.06" height="87.57"/></g></g><g id="island_1"><polygon class="cls-24" points="216.19 443.04 216.27 420.7 351.35 343.4 491.42 420.6 491.62 438.21 351.35 520.39 216.19 443.04"/><polygon class="cls-12" points="351.35 343.4 216.27 420.7 353.28 499.8 491.42 420.6 351.35 343.4"/><polygon class="cls-23" points="216.19 443.04 216.27 420.7 351.35 498.68 351.35 520.39 216.19 443.04"/><polygon class="cls-24" points="491.62 438.21 491.42 420.6 351.35 498.68 351.35 520.39 491.62 438.21"/><path class="cls-18" d="M411.85,387.42,425,337.22s2.16-4.92-4.11-6.79-11.63-4.92-13.84,0-12,43.39-12,43.39S403.84,386,411.85,387.42Z"/><path class="cls-5" d="M357.69,355.88l11.69-42.35,1.35-2.38,3.08-1.14,5.82,1.4,7.8,3.9.5,2.41-2.87,11.81-2.59,11.69-5,18.16S364.31,354.51,357.69,355.88Z"/><path class="cls-6" d="M411.85,387.42l15.28-52.21s1.93-3,6.28-1.42,8.43,3.07,8.43,3.07,4.21.51,2.43,7.27l-11.62,44.08a11.48,11.48,0,0,0-8-.48C420.26,389.09,416.35,389.78,411.85,387.42Z"/><path class="cls-6" d="M377.45,359.38l12.12-39.85s2.38-3,7.68-1l-.8,3.82s3,2.37,5.28,1.24l.83-3.09s6.14,1,4.63,6.73S395,373.82,395,373.82,388.23,362.65,377.45,359.38Z"/><polygon class="cls-5" points="435.68 377.57 432.65 388.21 434.02 393.2 420.83 422.48 419.6 425.16 417.34 426.58 416.06 448.08 413.8 448.86 413.8 456.57 417.68 457.7 425.27 452.84 425.35 427.6 451.81 410.7 451.81 431.89 455.7 433.74 463.29 428.88 463.29 404.22 465.25 402.13 465.25 393.84 435.68 377.57"/><path class="cls-30" d="M338.36,381.91s-2.88,3.52-2.2,18.11c0,0-1.26,7.9-4.35,7.36,0,0,6.42,11,27.86,10.64,0,0,9.5.53,14.79,13.87,0,0,3.13,8.67,18,5.34,0,0,11.29-1.73,16.32,8.8,0,0,4.59,4.65,7.3,2.05l1.28-21.5s-11,3.06-15.37-2.35c0,0-1.56-3.19.54-4l4.21-5.36-7,3,2.78-3.69s-8.81,4.57-22.75-6.83-11.46-14.44-22.9-20.94S343.26,381.91,338.36,381.91Z"/><path class="cls-18" d="M332.61,382.92,354,357.33s20.93-9.59,42.29,18.54c0,0,13.5,16.6,27.87,12.08,0,0,11.78-1.52,9.85,5.25-2,7.05-13.19,29.28-13.19,29.28l-1.23,2.68-2.74,1.65s-9.61,2.11-13.71-1-.64-5.55-.64-5.55l4.21-5.36-7.47,3.23,3.26-3.92a23.48,23.48,0,0,1-20.23-4.32c-10.14-7.62-17.16-19.69-25.9-23.22S340.78,381,332.61,382.92Z"/><path class="cls-31" d="M331.81,383.09s19.78-7.65,39,15.3S403,414,403,414"/><path class="cls-31" d="M354.49,357.11s19.79-7.65,39,15.29S424.65,388,424.65,388"/><line class="cls-31" x1="331.81" y1="383.09" x2="354.49" y2="357.11"/><path class="cls-32" d="M435.63,376.91l29.62,16.93-43.94,28.41L434.5,393c-1.47-8-9.85-5-9.85-5L399.73,417.9s16.28-10.06,20.94,1.77a5.65,5.65,0,0,1,.38,3.57c-1.63,6.08-16.81,4.52-19.08,1-2.64-4.09,6.46-8.7,15.7-1.58"/><line class="cls-31" x1="401.97" y1="421.32" x2="407.45" y2="414.35"/><line class="cls-32" x1="417.67" y1="422.65" x2="419.79" y2="418.21"/><path class="cls-31" d="M377.45,359.38l10.16-39.85c1.51-5.41-2.76-6-2.76-6s-5.16-2-9.77-3.29-5.7,3.29-5.7,3.29l-11.69,42.35"/><path class="cls-31" d="M377.45,359.38,389,321.24s1.09-4.6,5.7-3.28,9.76,3.28,9.76,3.28,4.27.59,2.76,6L395,373.5"/><path class="cls-32" d="M372.73,314.05s5.27,5.33,12.12,3"/><path class="cls-32" d="M392.2,322s5.27,5.33,12.12,3"/><path class="cls-31" d="M395,373.82l11.76-42.61s1.1-4.6,5.7-3.28,9.77,3.28,9.77,3.28,4.27.59,2.76,6l-13.14,50.2"/><path class="cls-32" d="M410,332s5.27,5.33,12.12,3"/><path class="cls-3" d="M376.83,313.72s3.1,2.26,5.28,1.51l1.8-6.72s-1.5-1.16-5.55-1.58Z"/><path class="cls-3" d="M396.45,322.1s3.1,2.26,5.28,1.51l1.8-6.72s-1.5-1.16-5.55-1.58Z"/><path class="cls-3" d="M413.8,332.13s3.1,2.26,5.28,1.51l1.8-6.72s-1.51-1.16-5.55-1.58Z"/><path class="cls-31" d="M411.85,387.42l14.53-50.56s1.1-4.61,5.7-3.29,9.76,3.29,9.76,3.29,4.27.58,2.76,6l-12.19,46.25"/><path class="cls-32" d="M429.61,337.65s5.27,5.34,12.13,3"/><path class="cls-3" d="M433.41,337.78s3.11,2.26,5.29,1.5l1.79-6.71s-1.5-1.17-5.55-1.59Z"/><path class="cls-31" d="M339.22,381.88s-2.76-.56-2.76,12.92-4.65,12.58-4.65,12.58a27.76,27.76,0,0,0,22.68,10.46c15.14-.36,17.5,9.5,17.5,9.5s4.11,12.76,17.58,10.26,17.94,6.63,17.94,6.63,3.17,6.23,8.55,3.85l1.28-21.5"/><path class="cls-31" d="M351.4,390.72s1.44,10.5,6.29,16.66"/><path class="cls-31" d="M364.1,397.21s7.92,14.85,8.63,24.92"/><line class="cls-32" x1="465.25" y1="393.84" x2="465.25" y2="402.13"/><line class="cls-32" x1="465.25" y1="402.13" x2="416.96" y2="432.95"/><line class="cls-32" x1="431.37" y1="399.92" x2="452.4" y2="390.72"/><line class="cls-32" x1="428.54" y1="406.21" x2="456.05" y2="393.84"/><line class="cls-32" x1="452.4" y1="390.72" x2="456.05" y2="393.84"/><line class="cls-32" x1="452.74" y1="395.32" x2="450.89" y2="393.84"/><line class="cls-32" x1="444.93" y1="398.49" x2="443.51" y2="397.07"/><line class="cls-32" x1="438.54" y1="401.71" x2="436.75" y2="400.02"/><line class="cls-32" x1="432.05" y1="404.63" x2="430.38" y2="402.13"/><line class="cls-32" x1="463.29" y1="403.38" x2="463.29" y2="428.88"/><line class="cls-32" x1="455.73" y1="408.2" x2="455.7" y2="433.74"/><line class="cls-32" x1="455.7" y1="433.74" x2="463.29" y2="428.88"/><line class="cls-32" x1="451.82" y1="410.7" x2="451.82" y2="432.6"/><line class="cls-32" x1="455.7" y1="433.74" x2="451.82" y2="432.6"/><line class="cls-32" x1="425.27" y1="427.34" x2="425.27" y2="452.84"/><line class="cls-32" x1="417.72" y1="432.17" x2="417.68" y2="457.7"/><line class="cls-32" x1="417.68" y1="457.7" x2="425.27" y2="452.84"/><line class="cls-32" x1="413.8" y1="448.62" x2="413.8" y2="456.57"/><line class="cls-32" x1="417.68" y1="457.7" x2="413.8" y2="456.57"/><line class="cls-32" x1="349.83" y1="418.02" x2="349.83" y2="424.28"/><line class="cls-32" x1="342.26" y1="415.45" x2="342.24" y2="429.14"/><line class="cls-32" x1="342.24" y1="429.14" x2="349.83" y2="424.28"/><line class="cls-32" x1="338.36" y1="413.34" x2="338.36" y2="428.01"/><line class="cls-32" x1="342.24" y1="429.14" x2="338.36" y2="428.01"/><polygon class="cls-10" points="240.93 424.09 291.33 395.98 328.47 418.54 279.33 445.46 240.93 424.09"/><path class="cls-24" d="M278.39,410.09l19.2,12.31a7.33,7.33,0,0,0,7.9,0l5.6-3.55c3.65-2.44,2.68-5.64,0-7.34l-20.66-13a6.81,6.81,0,0,0-7-.14l-4.8,2.77A5.26,5.26,0,0,0,278.39,410.09Z"/><line class="cls-15" x1="301.88" y1="420.84" x2="311.07" y2="415.3"/><path class="cls-24" d="M268.37,417.7,287.56,430a7.35,7.35,0,0,0,7.91,0l5.6-3.56c3.65-2.44,2.68-5.63,0-7.33l-20.66-13a6.78,6.78,0,0,0-7-.14l-4.79,2.77A5.26,5.26,0,0,0,268.37,417.7Z"/><line class="cls-15" x1="291.86" y1="428.44" x2="301.05" y2="422.91"/><path class="cls-24" d="M256.49,427l19.19,12.3a7.37,7.37,0,0,0,7.91,0l5.6-3.56c3.65-2.44,2.68-5.63,0-7.33l-20.66-13.05a6.81,6.81,0,0,0-7-.14L256.7,418A5.27,5.27,0,0,0,256.49,427Z"/><line class="cls-15" x1="279.98" y1="437.73" x2="289.17" y2="432.19"/><path class="cls-24" d="M269.23,408.24l19.2,12.3a7.33,7.33,0,0,0,7.9,0l5.6-3.56c3.65-2.44,2.68-5.63,0-7.33l-20.66-13a6.79,6.79,0,0,0-7-.14l-4.8,2.76A5.27,5.27,0,0,0,269.23,408.24Z"/><line class="cls-15" x1="292.72" y1="418.98" x2="301.91" y2="413.45"/><path class="cls-24" d="M256.49,417.7,275.68,430a7.35,7.35,0,0,0,7.91,0l5.6-3.56c3.65-2.44,2.68-5.63,0-7.33l-20.66-13a6.78,6.78,0,0,0-7-.14l-4.79,2.77A5.26,5.26,0,0,0,256.49,417.7Z"/><line class="cls-15" x1="279.98" y1="428.44" x2="289.17" y2="422.91"/><path class="cls-24" d="M260.39,408.24l19.19,12.3a7.35,7.35,0,0,0,7.91,0l5.59-3.56c3.65-2.44,2.68-5.63,0-7.33l-20.66-13a6.78,6.78,0,0,0-7-.14l-4.79,2.76A5.27,5.27,0,0,0,260.39,408.24Z"/><line class="cls-15" x1="283.87" y1="418.98" x2="293.06" y2="413.45"/><path class="cls-11" d="M322.17,344.45s5.83-2.74,7.81,2.43,1.3,5.3,1.3,5.3l-2.2.94.25,7.75s-8.74,0-9.87-1.8,1.72-9.66,1.72-9.66-1.7-.44-1.7-1.55,1.28-1.39,2.41-.28S322.17,344.45,322.17,344.45Z"/><ellipse class="cls-12" cx="327.38" cy="347.31" rx="0.21" ry="0.23"/><path class="cls-13" d="M328.79,344.66s-1.25-5-2.62-5.44l-.75.95s-4.26-.79-5.07.4a11.65,11.65,0,0,1-2.11,2.21s.65,3.09,0,3.33,3.77,2.05,3.77,2.05l-.29-3.5,2.27-1.1,3,.13Z"/><path class="cls-11" d="M319.46,358.5S306.69,378.73,308,391.19c0,0,19.15,1.55,25.39-2.29,0,0-1.15-24.09-4-28.45C329.33,360.45,321.59,360.34,319.46,358.5Z"/><path class="cls-14" d="M307.89,391.57s9.74,16.94,15.8,29.79l5.06.9s4-23.26,4.1-33.1"/><path class="cls-15" d="M323.69,421.36v3.77s6.19,2.23,9.68,0l-4.62-2.87Z"/><rect class="cls-16" x="318.91" y="345.15" width="3.44" height="1.5" rx="0.67" ry="0.67"/><path class="cls-11" d="M328.49,365.31s5.37,12.82,9,14.81c0,0-13.33-8.32-13.78-17.4"/><g id="_trigger_sell_cloth_" data-name="&lt;trigger_sell_cloth&gt;"><path class="cls-17" d="M392.83,378.19s13.16,19.55,11.83,31.6c0,0-19.73,1.49-26.15-2.21,0,0,1.18-23.28,4.16-27.5C382.67,380.08,390.64,380,392.83,378.19Z"/><polygon class="cls-11" points="392.5 378.7 385.25 383.14 384.04 380.92 392.5 378.7"/><path class="cls-17" d="M387.66,385.3S378.13,395,374,395.45c0,0,15.67-2.7,19.19-10.75"/><path class="cls-14" d="M404.75,410.15s-10,16.37-16.27,28.79l-5.22.87s-4.11-22.47-4.22-32"/><line class="cls-26" x1="383.63" y1="397.06" x2="383.52" y2="407.83"/><path class="cls-13" d="M384.08,369.31c-4.55-1.46-6.1-8.53,6.74-5.23,0,0,2.29-.58,2.3-.54.28,1.16,2.86,19.79,7.9,15.84,0,0-5.2,5-8,2.84l-1.69-1.71-7.26-11.1S384.11,369.32,384.08,369.31Z"/><path class="cls-11" d="M390.89,367.75a.14.14,0,0,0-.08-.16c-.82-.32-6.44-3-8.32,1.5-1.77,4.27-1.83,4.46-1.72,4.56l.06,0,2.15.85a.15.15,0,0,1,.09.14l-.4,5.48s8.06.28,9.23-1.44c1.06-1.57-.24-6.48-.64-7.52a.14.14,0,0,1,.09-.19c.42-.13,1.61-.57,1.61-1.44,0-1.05-1.32-1.32-2.48-.26S390.76,368.39,390.89,367.75Z"/><circle class="cls-12" cx="385.04" cy="370.89" r="0.22"/><path class="cls-15" d="M388.48,438.94v3.65s-6.38,2.15-10,0l4.75-2.78Z"/><path class="cls-27" d="M365.67,432.13s-5.34,13.92-2.37,15.28,11,.94,10.61-4.93a38,38,0,0,0-2.69-11.26Z"/><ellipse class="cls-24" cx="368.16" cy="428.49" rx="5.2" ry="5.56"/><ellipse class="cls-12" cx="366.54" cy="426.2" rx="0.2" ry="0.22"/><path class="cls-12" d="M373.36,445.16s-5,7.68-6.47,11.6h-1.36l-3.07-9.85S369.43,447.52,373.36,445.16Z"/><path class="cls-12" d="M367.09,456.76v2.06h-3.71s-2-1.14,0-2.06,2.29,0,2.29,0Z"/><path class="cls-27" d="M366.34,435.74s-6-5.15-6.5-6.68,2.45,8.59,5.82,8.57"/><polygon class="cls-14" points="366.75 422.94 368.16 420.81 374.4 422.94 376.89 428.49 375.75 431.5 371.17 431.37 371.17 428.49 368.75 425.38 366.75 422.94"/><path class="cls-7" d="M344.25,340.19l-.52,11.22h-1.15l-.52-11.22Zm-.07,15.94h-2.05v-2.62h2.05Z"/><rect id="hidden-3" data-name="hidden" class="cls-29" x="308.44" y="330.71" width="125.87" height="113.42"/></g></g></g></g></svg>