<svg xmlns="http://www.w3.org/2000/svg" xmlns:xlink="http://www.w3.org/1999/xlink" viewBox="0 0 764.55 564.55"><defs><style>.cls-1,.cls-14,.cls-16,.cls-21,.cls-24,.cls-29,.cls-5{fill:none;}.cls-2{isolation:isolate;}.cls-15,.cls-17,.cls-20,.cls-28,.cls-3,.cls-8{fill:#c92028;}.cls-18,.cls-21,.cls-23,.cls-3{stroke:#000;}.cls-11,.cls-12,.cls-17,.cls-18,.cls-21,.cls-24,.cls-29,.cls-3,.cls-4,.cls-5{stroke-miterlimit:10;}.cls-10,.cls-11,.cls-18,.cls-23,.cls-26,.cls-27,.cls-4,.cls-6{fill:#fff;}.cls-10,.cls-11,.cls-12,.cls-13,.cls-14,.cls-16,.cls-17,.cls-20,.cls-26,.cls-27,.cls-28,.cls-4,.cls-5,.cls-6{stroke:#1a1a1a;}.cls-10,.cls-13,.cls-14,.cls-16,.cls-20,.cls-23,.cls-26,.cls-27,.cls-28,.cls-6{stroke-linejoin:round;}.cls-7{clip-path:url(#clip-path);}.cls-9{clip-path:url(#clip-path-2);}.cls-10,.cls-13,.cls-14,.cls-16,.cls-26,.cls-28,.cls-29{stroke-linecap:round;}.cls-10,.cls-11,.cls-12,.cls-13,.cls-16,.cls-17,.cls-20,.cls-27{stroke-width:0.8px;}.cls-12,.cls-13,.cls-25{fill:#1a1a1a;}.cls-15{mix-blend-mode:multiply;}.cls-19{clip-path:url(#clip-path-3);}.cls-22{clip-path:url(#clip-path-4);}.cls-24{stroke:#e6e6e6;stroke-width:0.75px;}.cls-29{stroke:#c92028;stroke-width:3px;}.cls-30{clip-path:url(#clip-path-5);}</style><clipPath id="clip-path"><polygon class="cls-1" points="177.99 234.28 178.01 228.52 196.15 238.99 196.13 244.76 177.99 234.28"/></clipPath><clipPath id="clip-path-2"><polygon class="cls-1" points="177.99 243 178.01 237.23 196.15 247.71 196.13 253.47 177.99 243"/></clipPath><clipPath id="clip-path-3"><polygon class="cls-1" points="284.93 247.75 284.93 274.22 338.93 242.84 338.93 216.51 284.93 247.75"/></clipPath><clipPath id="clip-path-4"><polyline class="cls-1" points="396.34 208.52 396.34 183.81 342.33 215.05 342.33 241.22"/></clipPath><clipPath id="clip-path-5"><polygon class="cls-1" points="202.43 390.21 201.26 384.21 204.6 385.35 205.77 391.34 202.43 390.21"/></clipPath></defs><title>圓山站</title><g class="cls-2"><g id="圖層_2" data-name="圖層 2"><g id="_Island_3_" data-name="&lt;Island 3&gt;"><polygon class="cls-3" points="484.41 234.74 484.41 264.12 296.16 374.02 296.16 343.55 377.77 290.23 427.83 246.71 484.41 234.74"/><polygon class="cls-3" points="214.55 296.76 214.55 327.23 296.16 374.02 296.16 343.55 249.37 294.59 214.55 296.76"/><polygon class="cls-3" points="214.55 296.76 214.55 327.23 160.14 358.79 160.14 327.23 214.55 296.76"/><polygon class="cls-3" points="53.5 264.12 53.5 296.76 160.14 358.79 160.14 327.23 142.73 296.76 75.26 264.12 53.5 264.12"/><polygon class="cls-4" points="53.5 264.12 160.14 327.23 214.55 296.76 296.16 343.55 484.41 234.74 296.16 125.92 53.5 264.12"/><path class="cls-5" d="M146.3,237.64a1.65,1.65,0,0,1-1.65-1.65v-9.9a1.65,1.65,0,1,1,3.3,0V236A1.65,1.65,0,0,1,146.3,237.64Z"/><path class="cls-5" d="M155.73,242.35a1.65,1.65,0,0,1-1.65-1.65v-9.9a1.65,1.65,0,0,1,3.3,0v9.9A1.65,1.65,0,0,1,155.73,242.35Z"/><path class="cls-5" d="M179.31,229.15a1.65,1.65,0,0,1-1.65-1.65v-9.9a1.65,1.65,0,1,1,3.3,0v9.9A1.65,1.65,0,0,1,179.31,229.15Z"/><path class="cls-5" d="M169.88,223.49a1.65,1.65,0,0,1-1.65-1.65v-9.9a1.65,1.65,0,0,1,3.3,0v9.9A1.65,1.65,0,0,1,169.88,223.49Z"/><g class="cls-2"><polygon class="cls-6" points="182.28 214.1 182.27 218.3 155.79 234.29 155.8 230.09 182.28 214.1"/><polygon class="cls-6" points="155.8 230.09 155.79 234.29 143 227.18 143.01 222.98 155.8 230.09"/><polygon class="cls-6" points="169.49 206.99 182.28 214.1 155.8 230.09 143.01 222.98 169.49 206.99"/></g><path class="cls-5" d="M199.62,209.35A1.65,1.65,0,0,1,198,207.7v-9.91a1.65,1.65,0,1,1,3.3,0v9.91A1.65,1.65,0,0,1,199.62,209.35Z"/><path class="cls-5" d="M209.05,214.06a1.65,1.65,0,0,1-1.65-1.65v-9.9a1.65,1.65,0,0,1,3.3,0v9.9A1.65,1.65,0,0,1,209.05,214.06Z"/><path class="cls-5" d="M232.63,200.86a1.65,1.65,0,0,1-1.65-1.65v-9.9a1.65,1.65,0,0,1,3.3,0v9.9A1.65,1.65,0,0,1,232.63,200.86Z"/><path class="cls-5" d="M223.2,195.2a1.65,1.65,0,0,1-1.65-1.65v-9.9a1.65,1.65,0,0,1,3.3,0v9.9A1.65,1.65,0,0,1,223.2,195.2Z"/><g class="cls-2"><polygon class="cls-6" points="235.6 185.81 235.59 190.01 209.11 206 209.12 201.8 235.6 185.81"/><polygon class="cls-6" points="209.12 201.8 209.11 206 196.32 198.88 196.33 194.68 209.12 201.8"/><polygon class="cls-6" points="222.81 178.7 235.6 185.81 209.12 201.8 196.33 194.68 222.81 178.7"/></g><path class="cls-5" d="M248.59,182.14a1.65,1.65,0,0,1-1.65-1.65v-9.9a1.65,1.65,0,0,1,3.3,0v9.9A1.65,1.65,0,0,1,248.59,182.14Z"/><path class="cls-5" d="M258,186.86a1.65,1.65,0,0,1-1.65-1.65v-9.9a1.65,1.65,0,0,1,3.3,0v9.9A1.65,1.65,0,0,1,258,186.86Z"/><path class="cls-5" d="M281.6,173.66A1.65,1.65,0,0,1,280,172v-9.9a1.65,1.65,0,1,1,3.3,0V172A1.65,1.65,0,0,1,281.6,173.66Z"/><path class="cls-5" d="M272.17,168a1.65,1.65,0,0,1-1.65-1.65v-9.91a1.65,1.65,0,1,1,3.3,0v9.91A1.65,1.65,0,0,1,272.17,168Z"/><g class="cls-2"><polygon class="cls-6" points="284.57 158.6 284.56 162.8 258.08 178.79 258.09 174.59 284.57 158.6"/><polygon class="cls-6" points="258.09 174.59 258.08 178.79 245.28 171.68 245.3 167.48 258.09 174.59"/><polygon class="cls-6" points="271.78 151.49 284.57 158.6 258.09 174.59 245.3 167.48 271.78 151.49"/></g><g class="cls-2"><path class="cls-4" d="M187,240.6l-.38,25.33c0,1.44-1,2.88-2.84,4a15.23,15.23,0,0,1-13.85,0c-1.93-1.11-2.9-2.58-2.89-4l.37-25.32c0,1.46,1,2.92,2.89,4a15.29,15.29,0,0,0,13.85,0C186,243.49,187,242,187,240.6Z"/><ellipse class="cls-4" cx="177.2" cy="240.57" rx="5.67" ry="9.79" transform="translate(-63.88 417.09) rotate(-89.84)"/></g><g class="cls-2"><path class="cls-4" d="M182.45,175.06l-.21,65.09c0-.29-.53.51-1.58,1.12a8.48,8.48,0,0,1-7.68,0,2.7,2.7,0,0,1-1.6-2.24l.21-65.09a2.69,2.69,0,0,0,1.6,2.24,8.45,8.45,0,0,0,7.68,0C181.92,175.57,182.45,174.77,182.45,175.06Z"/><ellipse class="cls-4" cx="177.02" cy="173.96" rx="3.15" ry="5.43" transform="translate(2.56 350.48) rotate(-89.84)"/></g><g class="cls-2"><path class="cls-4" d="M240.31,208l-.38,25.32c0,1.45-1,2.89-2.84,4a15.29,15.29,0,0,1-13.85,0c-1.93-1.12-2.9-2.58-2.89-4l.37-25.33c0,1.46,1,2.93,2.89,4a15.29,15.29,0,0,0,13.85,0C239.36,210.84,240.3,209.4,240.31,208Z"/><ellipse class="cls-4" cx="230.52" cy="207.93" rx="5.67" ry="9.79" transform="translate(21.93 437.85) rotate(-89.84)"/></g><g class="cls-2"><path class="cls-4" d="M235.77,142.42l-.21,65.08c0-.29-.53.51-1.58,1.12a8.45,8.45,0,0,1-7.68,0,2.7,2.7,0,0,1-1.6-2.24l.21-65.08a2.7,2.7,0,0,0,1.6,2.24,8.45,8.45,0,0,0,7.68,0C235.24,142.93,235.77,142.13,235.77,142.42Z"/><ellipse class="cls-4" cx="230.34" cy="141.31" rx="3.15" ry="5.43" transform="translate(88.37 371.25) rotate(-89.84)"/></g><g class="cls-2"><path class="cls-4" d="M291.45,177.49l-.38,25.33c0,1.44-.95,2.88-2.84,4a15.29,15.29,0,0,1-13.85,0c-1.93-1.12-2.89-2.58-2.89-4l.38-25.33c0,1.46,1,2.93,2.89,4a15.23,15.23,0,0,0,13.85,0C290.5,180.37,291.45,178.93,291.45,177.49Z"/><ellipse class="cls-4" cx="281.66" cy="177.46" rx="5.67" ry="9.79" transform="translate(103.4 458.62) rotate(-89.84)"/></g><g class="cls-2"><path class="cls-4" d="M286.91,112,286.7,177c0-.29-.53.51-1.58,1.12a8.45,8.45,0,0,1-7.68,0,2.72,2.72,0,0,1-1.6-2.24l.21-65.08a2.72,2.72,0,0,0,1.6,2.24,8.45,8.45,0,0,0,7.68,0C286.38,112.46,286.91,111.66,286.91,112Z"/><ellipse class="cls-4" cx="281.48" cy="110.85" rx="3.15" ry="5.43" transform="translate(169.84 392.01) rotate(-89.84)"/></g><polygon class="cls-6" points="199.95 184.09 199.95 187.95 363.08 92.08 363.08 88.22 236.89 147.71 208.77 169.2 199.95 184.09"/><polygon class="cls-4" points="109 157.08 263.31 67.27 302.44 89.88 165.22 177.47 148.14 181.88 109 157.08"/><polygon class="cls-4" points="147.58 180.23 109 157.08 109 161.49 147.58 184.09 147.58 180.23"/><g class="cls-2"><path class="cls-4" d="M308.45,94.24a2,2,0,0,1-.86,1.88l-156,91.61.16-.12.12-.11.08-.1a1.1,1.1,0,0,0,.2-.31.52.52,0,0,0,.07-.15,2.2,2.2,0,0,0,.16-.66.41.41,0,0,0,0-.16,2.17,2.17,0,0,0,0-.26,6.44,6.44,0,0,0-2.92-5.06,2.56,2.56,0,0,0-1.49-.39h-.1l-.13,0-.19.07a.46.46,0,0,0-.16.07L303.44,89a2.07,2.07,0,0,1,2.09.2A6.46,6.46,0,0,1,308.45,94.24Z"/><path class="cls-4" d="M152.4,185.86a2.17,2.17,0,0,1,0,.26.44.44,0,0,1,0,.16,2.2,2.2,0,0,1-.16.66.52.52,0,0,1-.07.15,1.1,1.1,0,0,1-.2.31l-.08.1-.12.11-.16.12a2.05,2.05,0,0,1-2.12-.19,6.41,6.41,0,0,1-2.92-5.06,2,2,0,0,1,.87-1.89l.16-.07.19-.07.13,0h.1a2.56,2.56,0,0,1,1.49.39A6.44,6.44,0,0,1,152.4,185.86Z"/></g><path class="cls-6" d="M153.65,183.54s1.1,1,0,3c0,0,37.48-5.19,46.3,1.43v-6.07l-24.8-5-16,5Z"/><path class="cls-6" d="M153.65,183.54l152.1-89.81s36.38-17.64,57.33-5.51l-130.56,76.3L200,184.09S187.83,177.47,153.65,183.54Z"/><line class="cls-4" x1="176.46" y1="141.16" x2="152.52" y2="137.89"/><line class="cls-4" x1="229.78" y1="111.78" x2="205.84" y2="108.51"/><line class="cls-4" x1="279.84" y1="81.31" x2="255.9" y2="78.04"/><g class="cls-2"><path class="cls-4" d="M182.45,127.18l-.21,37.88a2.7,2.7,0,0,1-1.58,2.21,8.45,8.45,0,0,1-7.68,0,2.7,2.7,0,0,1-1.6-2.24l.21-37.88a2.7,2.7,0,0,0,1.6,2.24,8.45,8.45,0,0,0,7.68,0A2.7,2.7,0,0,0,182.45,127.18Z"/><ellipse class="cls-4" cx="177.02" cy="127.17" rx="3.15" ry="5.43" transform="translate(49.35 303.82) rotate(-89.84)"/></g><g class="cls-2"><path class="cls-4" d="M235.77,95.63l-.21,37.88a2.68,2.68,0,0,1-1.58,2.2,8.45,8.45,0,0,1-7.68,0,2.69,2.69,0,0,1-1.6-2.24l.21-37.87a2.7,2.7,0,0,0,1.6,2.24,8.48,8.48,0,0,0,7.68,0A2.7,2.7,0,0,0,235.77,95.63Z"/><ellipse class="cls-4" cx="230.34" cy="95.61" rx="3.15" ry="5.43" transform="translate(134.07 325.68) rotate(-89.84)"/></g><g class="cls-2"><path class="cls-4" d="M286.91,66.25l-.21,37.88a2.68,2.68,0,0,1-1.58,2.2,8.45,8.45,0,0,1-7.68,0,2.71,2.71,0,0,1-1.6-2.24l.21-37.88a2.72,2.72,0,0,0,1.6,2.25,8.48,8.48,0,0,0,7.68,0A2.7,2.7,0,0,0,286.91,66.25Z"/><ellipse class="cls-4" cx="281.48" cy="66.23" rx="3.15" ry="5.43" transform="translate(214.45 347.52) rotate(-89.84)"/></g><line class="cls-4" x1="179.73" y1="141.16" x2="207.96" y2="170.58"/><line class="cls-4" x1="233.05" y1="111.78" x2="261.28" y2="141.2"/><line class="cls-4" x1="283.1" y1="81.31" x2="311.33" y2="110.73"/><path class="cls-6" d="M176.46,254.32v42.44s1.09,2.18,3.27,0V250Z"/><g class="cls-2"><polygon class="cls-6" points="198.83 235.95 200.95 234.72 200.86 265.78 198.74 267.01 198.83 235.95"/><polygon class="cls-6" points="176.06 222.8 178.18 221.57 200.95 234.72 198.83 235.95 176.06 222.8"/><polygon class="cls-6" points="198.83 235.95 198.74 267.01 175.97 253.86 176.06 222.8 198.83 235.95"/></g><g class="cls-2"><g class="cls-7"><polyline class="cls-8" points="196.15 238.99 178.01 228.52 177.99 234.28 196.13 244.76 196.15 238.99"/></g></g><g class="cls-2"><g class="cls-9"><polyline class="cls-8" points="196.15 247.71 178.01 237.23 177.99 243 196.13 253.47 196.15 247.71"/></g></g><g id="people3"><path class="cls-10" d="M148.75,231.25s5-2.45,6.75,2.19,1.12,4.74,1.12,4.74l-1.91.84.23,6.94s-7.56,0-8.53-1.61,1.48-8.65,1.48-8.65-1.47-.4-1.46-1.39,1.1-1.24,2.07-.25S148.75,231.25,148.75,231.25Z"/><ellipse class="cls-11" cx="153.25" cy="233.81" rx="0.18" ry="0.2"/><path class="cls-12" d="M154.46,231.45s-1.08-4.45-2.26-4.87l-.65.85s-3.68-.71-4.38.35a10.76,10.76,0,0,1-1.82,2s.56,2.76,0,3,3.26,1.84,3.26,1.84l-.25-3.13,2-1,2.56.12Z"/><path class="cls-10" d="M146.41,243.83s-11,18.11-9.93,29.27c0,0,16.56,1.39,22-2,0,0-1-21.57-3.49-25.48C154.94,245.58,148.25,245.48,146.41,243.83Z"/><path class="cls-13" d="M136.4,273.44s8.42,15.17,13.66,26.67l4.37.81s3.45-20.82,3.55-29.63"/><path class="cls-14" d="M150.06,300.11v3.38s5.35,2,8.37,0l-4-2.57Z"/><rect class="cls-15" x="145.93" y="231.88" width="2.97" height="1.34" rx="0.56" ry="0.56"/><path class="cls-10" d="M155.1,253s2.76,12.07,5.55,14.33c0,0-10.18-9.19-9.28-17.28"/></g><path class="cls-16" d="M156.33,270.65s3.27-10.88,7.62,0"/><polygon class="cls-10" points="151.98 270.65 153.07 281.53 169.39 281.53 168.3 269.56 151.98 270.65"/><g id="people3-2" data-name="people3"><path class="cls-10" d="M120.92,225.13s4.79-2.33,6.42,2.07,1.06,4.5,1.06,4.5l-1.81.8.21,6.59s-7.17,0-8.1-1.53,1.41-8.21,1.41-8.21-1.4-.38-1.39-1.32,1-1.18,2-.24S120.92,225.13,120.92,225.13Z"/><ellipse class="cls-11" cx="125.2" cy="227.56" rx="0.17" ry="0.19"/><path class="cls-11" d="M126.35,225.31s-1-4.22-2.14-4.63l-.62.81s-3.5-.67-4.16.34a10,10,0,0,1-1.73,1.88s.53,2.63,0,2.83,3.1,1.74,3.1,1.74l-.24-3,1.86-.93,2.43.1Z"/><path class="cls-10" d="M118.7,237.08s-10.48,17.2-9.42,27.8c0,0,15.72,1.31,20.84-1.95,0,0-.94-20.49-3.32-24.19C126.8,238.74,120.45,238.64,118.7,237.08Z"/><path class="cls-13" d="M109.2,265.2s8,14.41,13,25.33l4.16.77s3.27-19.78,3.36-28.15"/><path class="cls-14" d="M122.17,290.53v3.21s5.08,1.9,8,0l-3.79-2.44Z"/><path class="cls-10" d="M126.11,242.87s4.41,10.9,7.37,12.59c0,0-10.94-7.07-11.31-14.79"/></g><path class="cls-17" d="M99,253.64s5.39,14.07,2.4,15.45-11.11,1-10.74-5a38.64,38.64,0,0,1,2.72-11.38Z"/><ellipse class="cls-4" cx="96.45" cy="249.96" rx="5.26" ry="5.62"/><ellipse class="cls-11" cx="99.17" cy="249.83" rx="0.21" ry="0.22"/><path class="cls-11" d="M91.19,266.81s5,7.77,6.54,11.73h1.38l3.1-10S95.17,269.2,91.19,266.81Z"/><path class="cls-11" d="M97.53,278.54v2.09h3.75s2-1.16,0-2.09-2.31,0-2.31,0Z"/><path class="cls-17" d="M100,257.48s3.47,7.2,4.84,8.09-7.75-4.63-6.87-7.92"/><polygon class="cls-13" points="99.91 245.31 99.34 242.79 92.69 242.54 88.32 246.88 88.31 250.13 92.67 251.67 93.72 248.95 97.13 246.9 99.91 245.31"/><g id="_trigger_bus_moving_" data-name="&lt;trigger_bus_moving&gt;"><g id="bus"><g class="cls-2"><path class="cls-6" d="M381.1,233.77c-1.39-.81-3.3-.69-5.42.53a16.7,16.7,0,0,0-7.57,13.11c0,2.4.85,4.09,2.22,4.88l6.36,3.7c-1.37-.8-2.21-2.49-2.22-4.88A16.69,16.69,0,0,1,382,238c2.12-1.22,4-1.33,5.42-.53Z"/><path class="cls-6" d="M382,238c4.2-2.42,7.62-.48,7.63,4.34a16.73,16.73,0,0,1-7.58,13.13c-4.2,2.42-7.61.47-7.62-4.35A16.69,16.69,0,0,1,382,238Z"/></g><g class="cls-2"><path class="cls-6" d="M310.15,274c-1.38-.8-3.3-.69-5.41.53a16.68,16.68,0,0,0-7.57,13.12c0,2.4.85,4.09,2.21,4.88l6.36,3.69c-1.36-.79-2.21-2.48-2.22-4.88a16.68,16.68,0,0,1,7.58-13.11c2.11-1.22,4-1.34,5.41-.53Z"/><path class="cls-6" d="M311.1,278.23c4.19-2.42,7.61-.49,7.62,4.34s-3.38,10.7-7.57,13.13-7.61.47-7.63-4.36A16.68,16.68,0,0,1,311.1,278.23Z"/></g><polygon class="cls-18" points="225.54 216.51 225.54 271.98 278.05 302.82 278.05 246.83 225.54 216.51"/><polygon class="cls-18" points="225.54 216.51 348.66 145 401.17 175.31 278.05 246.83 225.54 216.51"/><path class="cls-18" d="M278.05,302.82v-56l123.12-71.52v56.81s-10.09,6.35-10.35,5.95c-6.55-10-18.2-3.62-20.15,11.57-.06.4-51,29.3-51,29.29-5.27-10.59-18-3.18-20.06,11.52C299.57,290.58,278.05,302.82,278.05,302.82Z"/><g class="cls-19"><path class="cls-17" d="M332.91,242.29s-5.25,13.7-2.34,15,10.81.93,10.45-4.85a37.62,37.62,0,0,0-2.65-11.08Z"/><ellipse class="cls-4" cx="335.36" cy="238.72" rx="5.12" ry="5.47"/><ellipse class="cls-11" cx="333.77" cy="236.47" rx="0.2" ry="0.21"/><path class="cls-11" d="M340.48,255.11s-4.9,7.56-6.37,11.41h-1.34l-3-9.68S336.61,257.43,340.48,255.11Z"/><path class="cls-11" d="M334.31,266.52v2h-3.65s-2-1.12,0-2,2.25,0,2.25,0Z"/><path class="cls-17" d="M333.57,245.85s-5.9-5.07-6.4-6.57,2.42,8.44,5.72,8.43"/><polygon class="cls-13" points="333.97 233.25 335.36 231.15 341.5 233.25 343.95 238.72 342.82 241.68 338.32 241.54 338.32 238.72 335.94 235.66 333.97 233.25"/><path class="cls-10" d="M309.08,236.13s-5.54-2.69-7.42,2.4-1.23,5.21-1.23,5.21l2.09.93-.24,7.62s8.3,0,9.37-1.77S310,241,310,241s1.62-.44,1.61-1.53-1.21-1.36-2.28-.27S309.08,236.13,309.08,236.13Z"/><ellipse class="cls-11" cx="304.13" cy="238.95" rx="0.2" ry="0.22"/><path class="cls-12" d="M302.8,236.35s1.19-4.89,2.48-5.36l.72.94s4-.78,4.81.39a11.5,11.5,0,0,0,2,2.18s-.62,3,0,3.27-3.58,2-3.58,2l.27-3.43-2.15-1.09-2.82.13Z"/><path class="cls-10" d="M311.65,250s12.13,19.9,10.9,32.16c0,0-18.18,1.52-24.11-2.25,0,0,1.09-23.7,3.84-28C302.28,251.88,309.63,251.77,311.65,250Z"/><path class="cls-13" d="M322.64,282.49s-9.25,16.66-15,29.31l-4.81.89s-3.79-22.89-3.9-32.57"/><path class="cls-14" d="M307.64,311.8v3.71s-5.88,2.19-9.2,0l4.39-2.82Z"/><rect class="cls-15" x="308.91" y="236.82" width="3.26" height="1.48" rx="0.67" ry="0.67" transform="translate(621.09 475.12) rotate(-180)"/><path class="cls-10" d="M303.08,256.66s-5.1,12.61-8.53,14.57c0,0,12.66-8.19,13.09-17.12"/><path class="cls-20" d="M372.35,212.78s12.1,19.24,10.88,31.09c0,0-18.14,1.47-24-2.18,0,0,1.09-22.9,3.82-27.05C363,214.64,370.34,214.54,372.35,212.78Z"/><polygon class="cls-10" points="372.06 213.28 365.39 216.61 364.27 214.95 372.06 213.28"/><path class="cls-20" d="M367.61,219.78s-8.77,9.49-12.58,10c0,0,14.4-2.66,17.64-10.58"/><path class="cls-13" d="M383.31,244.22s-9.22,16.11-14.95,28.33l-4.8.85s-3.77-22.11-3.88-31.46"/><line class="cls-16" x1="363.9" y1="231.34" x2="363.8" y2="241.94"/><path class="cls-12" d="M364.31,204c-4.17-1.43-5.6-8.38,6.2-5.14,0,0,2.1-.57,2.11-.53.26,1.14,2.63,19.46,7.26,15.58,0,0-4.78,5-7.33,2.8L371,215.06l-6.68-10.92S364.35,204.05,364.31,204Z"/><path class="cls-10" d="M370.57,202.51a.12.12,0,0,0-.07-.15c-.75-.32-5.92-3-7.65,1.47-1.63,4.2-1.68,4.38-1.58,4.48l.05,0,2,.83a.15.15,0,0,1,.09.14L363,214.7s7.42.27,8.49-1.42c1-1.54-.22-6.37-.59-7.4a.14.14,0,0,1,.08-.18c.39-.13,1.49-.56,1.48-1.42,0-1-1.21-1.29-2.27-.26S370.45,203.14,370.57,202.51Z"/><ellipse class="cls-11" cx="365.19" cy="205.59" rx="0.2" ry="0.21"/><path class="cls-14" d="M368.36,272.55v3.58s-5.87,2.12-9.17,0l4.37-2.73Z"/></g><polygon class="cls-21" points="284.93 248.09 284.93 274.56 338.93 243.18 338.93 216.85 284.93 248.09"/><polygon class="cls-21" points="342.33 214.9 342.33 241.37 396.34 209.99 396.34 183.66 342.33 214.9"/><g class="cls-22"><path class="cls-17" d="M332.91,240s-5.25,13.69-2.34,15,10.81.93,10.45-4.85a37.62,37.62,0,0,0-2.65-11.08Z"/><ellipse class="cls-4" cx="335.36" cy="236.37" rx="5.12" ry="5.47"/><ellipse class="cls-11" cx="333.77" cy="234.12" rx="0.2" ry="0.21"/><path class="cls-11" d="M340.48,252.76s-4.9,7.56-6.37,11.42h-1.34l-3-9.69S336.61,255.08,340.48,252.76Z"/><path class="cls-11" d="M334.31,264.18v2h-3.65s-2-1.12,0-2,2.25,0,2.25,0Z"/><path class="cls-17" d="M333.57,243.5s-5.9-5.07-6.4-6.57,2.42,8.44,5.72,8.43"/><polygon class="cls-13" points="333.97 230.9 335.36 228.81 341.5 230.9 343.95 236.37 342.82 239.33 338.32 239.2 338.32 236.37 335.94 233.31 333.97 230.9"/><path class="cls-10" d="M309.08,233.79s-5.54-2.7-7.42,2.39-1.23,5.21-1.23,5.21l2.09.93-.24,7.62s8.3,0,9.37-1.77-1.63-9.5-1.63-9.5,1.62-.44,1.61-1.53-1.21-1.36-2.28-.27S309.08,233.79,309.08,233.79Z"/><ellipse class="cls-11" cx="304.13" cy="236.6" rx="0.2" ry="0.22"/><path class="cls-12" d="M302.8,234s1.19-4.89,2.48-5.36l.72.94s4-.78,4.81.39a11.5,11.5,0,0,0,2,2.18s-.62,3,0,3.27-3.58,2-3.58,2l.27-3.44-2.15-1.08-2.82.12Z"/><path class="cls-10" d="M311.65,247.61s12.13,19.9,10.9,32.16c0,0-18.18,1.52-24.11-2.25,0,0,1.09-23.7,3.84-28C302.28,249.53,309.63,249.42,311.65,247.61Z"/><path class="cls-13" d="M322.64,280.14s-9.25,16.67-15,29.31l-4.81.89s-3.79-22.88-3.9-32.57"/><path class="cls-14" d="M307.64,309.45v3.71s-5.88,2.19-9.2,0l4.39-2.82Z"/><rect class="cls-15" x="308.91" y="234.47" width="3.26" height="1.48" rx="0.67" ry="0.67" transform="translate(621.09 470.42) rotate(-180)"/><path class="cls-10" d="M303.08,254.31s-5.1,12.61-8.53,14.57c0,0,12.66-8.18,13.09-17.12"/><path class="cls-20" d="M372.35,210.44s12.1,19.23,10.88,31.08c0,0-18.14,1.47-24-2.18,0,0,1.09-22.9,3.82-27.05C363,212.29,370.34,212.19,372.35,210.44Z"/><polygon class="cls-10" points="372.06 210.94 365.39 214.26 364.27 212.6 372.06 210.94"/><path class="cls-20" d="M367.61,217.43s-8.77,9.5-12.58,10c0,0,14.4-2.66,17.64-10.58"/><path class="cls-13" d="M383.31,241.87S374.09,258,368.36,270.2l-4.8.86s-3.77-22.12-3.88-31.47"/><line class="cls-16" x1="363.9" y1="228.99" x2="363.8" y2="239.59"/><path class="cls-12" d="M364.31,201.69c-4.17-1.43-5.6-8.38,6.2-5.14,0,0,2.1-.57,2.11-.53.26,1.14,2.63,19.47,7.26,15.59,0,0-4.78,4.94-7.33,2.79L371,212.71l-6.68-10.92S364.35,201.7,364.31,201.69Z"/><path class="cls-10" d="M370.57,200.16a.12.12,0,0,0-.07-.15c-.75-.32-5.92-3-7.65,1.47-1.63,4.2-1.68,4.39-1.58,4.48l.05,0,2,.84a.13.13,0,0,1,.09.13l-.38,5.39s7.42.27,8.49-1.41-.22-6.38-.59-7.41a.15.15,0,0,1,.08-.18c.39-.13,1.49-.56,1.48-1.42,0-1-1.21-1.29-2.27-.25S370.45,200.79,370.57,200.16Z"/><ellipse class="cls-11" cx="365.19" cy="203.25" rx="0.2" ry="0.21"/><path class="cls-14" d="M368.36,270.2v3.58s-5.87,2.12-9.17,0l4.37-2.72Z"/></g><ellipse class="cls-18" cx="231.31" cy="269.65" rx="2.13" ry="2.76" transform="translate(-112.76 358.16) rotate(-63.8)"/><ellipse class="cls-18" cx="271.94" cy="293.43" rx="2.13" ry="2.76" transform="translate(-111.4 407.9) rotate(-63.8)"/><polygon class="cls-18" points="278.05 286.11 278.05 261.83 225.54 230.99 225.54 256.75 278.05 286.11"/><line class="cls-18" x1="225.54" y1="256.75" x2="246.72" y2="243.43"/><polygon class="cls-3" points="244.35 275.42 244.35 280.42 254.5 286.11 254.5 280.77 244.35 275.42"/><g id="driver"><path class="cls-18" d="M260.79,267.28l-5.39,6.28,17.82,10.06s3.44-12.19-2.82-17.56S260.79,267.28,260.79,267.28Z"/><path class="cls-18" d="M262.37,257.94,261,260.47l1.38,2.15s-.77,3.88,1.62,4.14a27.82,27.82,0,0,0,6.38-.5s1.62-9-.41-11S261.84,253.88,262.37,257.94Z"/><ellipse class="cls-21" cx="259.45" cy="272.42" rx="3.05" ry="4.69" transform="translate(-103.17 372.59) rotate(-61.84)"/><ellipse class="cls-18" cx="259.45" cy="272.42" rx="0.7" ry="1.07" transform="translate(-103.17 372.59) rotate(-61.84)"/><path id="hand" class="cls-18" d="M268.69,270.87s-4.45,2.54-8.92.93c0,0,5.57,4.37,8.92,2"/></g><line class="cls-21" x1="396.34" y1="209.99" x2="394.72" y2="210.93"/><line class="cls-21" x1="376.49" y1="210.46" x2="387.06" y2="215.38"/><polygon class="cls-3" points="225.54 221.04 225.54 230.99 278.05 261.83 278.05 251.36 225.54 221.04"/></g><line class="cls-3" x1="278.03" y1="297.8" x2="300.93" y2="285.04"/><line class="cls-3" x1="317.56" y1="275.75" x2="371.53" y2="245.37"/><line class="cls-3" x1="388.5" y1="235.51" x2="401.17" y2="228.45"/><path class="cls-6" d="M227.42,237l-6.8,3.41v7.93s1.13,4.53,4.53,2.26v-7.93l4.53-2.26"/><path class="cls-6" d="M280.74,264.2l-6.8,3.41v7.93s1.13,4.53,4.53,2.27v-7.93l4.53-2.27"/></g><g id="_trigger_bus_moving_2" data-name="&lt;trigger_bus_moving&gt;"><path class="cls-23" d="M403.89,214.06l5.44-3.26s-3.27-3.27,2.18-5.44c0,0,2.17-8.71,8.7-1.09,0,0,2.18-1.09,2.18,2.18s-1.09,5.44-4.36,4.35c0,0,4.36,2.17,1.09,4.35s-6.53-2.18-6.53-2.18l-6.53,3.27"/><path class="cls-23" d="M402.8,206.77l4.64-2.79s-1.7-1.7,2.95-3.55c0,0,.76-7.43,6.33-.93,0,0,1.86-2,1.86.77s1.25,9-1.54,8.06c0,0,1.54-.32-1.25,1.54s-5.56-4-5.56-4l-5.57,2.78"/><path class="cls-5" d="M306.5,289.69s1.09,7.62,6.53,1.09"/><path class="cls-5" d="M316.84,283.7s0-4.35-5.45-3.26"/><path class="cls-4" d="M382.13,240.18s-4.36,4.35-4.36,8.7"/><path class="cls-4" d="M377.77,253.24s3.27,2.17,7.62-4.36"/></g><rect id="hidden" class="cls-24" x="236.92" y="141.16" width="189.82" height="160.36"/><g id="sign"><path class="cls-8" d="M337,174.56l-.5,10.93h-1.12l-.51-10.93Zm-.06,15.53h-2v-2.55h2Z"/></g><circle class="cls-25" cx="265.69" cy="258.68" r="0.62"/></g><g id="_Island_2_" data-name="&lt;Island 2&gt;"><polygon class="cls-3" points="720 339.42 719.46 372.93 499.65 499.16 488.43 467.86 562.37 384.18 649.94 356.94 720 339.42"/><polygon class="cls-3" points="328.85 369.7 328.85 400.02 500.1 499.27 500.1 467 463.13 379.43 377.5 369.7 328.85 369.7"/><polygon class="cls-4" points="546.81 240.18 328.85 368.61 500.1 465.92 720 339.42 546.81 240.18"/><polygon class="cls-6" points="609.55 379.87 625.87 369.67 616.08 352.26 600.85 356.61 609.55 379.87"/><polygon class="cls-4" points="654.17 251.06 654.17 319.61 543.17 384.9 536.64 330.5 564.94 265.21 631.32 251.06 654.17 251.06"/><polygon class="cls-4" points="453.94 263.03 453.94 333.76 543.17 384.9 543.17 314.17 520.32 272.82 471.36 263.03 459.21 265.65 453.94 263.03"/><polygon class="cls-4" points="524.74 338.94 524.74 374.34 468.99 342.38 468.63 307.1 524.74 338.94"/><polygon class="cls-4" points="527.94 307.64 527.94 337.02 511.62 346.82 511.62 317.44 527.94 307.64"/><polygon class="cls-3" points="451.77 282.62 451.77 310.91 511.62 346.82 511.62 317.44 498.56 289.15 465.91 282.62 451.77 282.62"/><polygon class="cls-4" points="561.13 199.37 453.4 263.57 468.63 272.28 452.31 282.07 512.16 317.98 528.48 308.19 542.63 315.81 654.71 251.6 561.13 199.37"/><g class="cls-2"><polygon class="cls-6" points="643.12 357.71 589.44 326.51 589.4 315.12 643.09 346.32 643.12 357.71"/><polygon class="cls-6" points="631.33 364.51 577.65 333.32 589.44 326.51 643.12 357.71 631.33 364.51"/><polygon class="cls-6" points="626.63 371.64 609.55 362.05 609.55 379.46 593.23 369.67 593.29 352.27 572.94 340.45 572.88 319.78 626.57 350.98 626.63 371.64"/><polygon class="cls-6" points="626.57 350.98 572.88 319.78 594.11 307.52 647.79 338.72 626.57 350.98"/><path class="cls-3" d="M626.57,351l21.22-12.26.06,20.67-21.22,12.26Zm16.55,6.73,0-11.39-11.79,6.8,0,11.4,11.79-6.81"/></g><g class="cls-2"><polygon class="cls-6" points="584.07 322.58 668.43 273.56 668.4 284.95 584.04 333.98 584.07 322.58"/><polygon class="cls-6" points="584.04 333.98 668.4 284.95 680.19 291.76 595.83 340.78 584.04 333.98"/><polygon class="cls-6" points="600.59 327.25 684.96 278.22 684.9 298.89 600.53 347.91 600.59 327.25"/><polygon class="cls-6" points="579.37 314.99 663.73 265.96 684.96 278.22 600.59 327.25 579.37 314.99"/><path class="cls-3" d="M579.37,315l21.22,12.26-.06,20.66-21.22-12.25Zm16.46,25.79,0-11.39-11.79-6.81,0,11.4,11.79,6.8"/></g><g class="cls-2"><polygon class="cls-6" points="687.26 331.32 660.28 316.3 660.25 305.57 687.23 320.6 687.26 331.32"/><polygon class="cls-6" points="676.16 337.73 649.18 322.7 660.28 316.3 687.26 331.32 676.16 337.73"/><polygon class="cls-6" points="671.73 344.44 638.93 326.14 644.74 322.23 644.7 309.96 671.67 324.99 671.73 344.44"/><polygon class="cls-6" points="671.67 324.99 644.7 309.96 664.68 298.43 691.65 313.45 671.67 324.99"/><path class="cls-3" d="M671.67,325l20-11.54.06,19.46-20,11.53Zm15.59,6.33,0-10.72L676.13,327l0,10.72,11.1-6.41"/></g><polygon class="cls-3" points="566.02 317.44 550.79 326.14 550.79 368.58 566.02 359.88 566.02 317.44"/><g id="_trigger_children_playing_" data-name="&lt;trigger_children_playing&gt;"><path class="cls-26" d="M504.74,386.22s-6,15.66-2.67,17.2,12.36,1.06,11.95-5.55a43.32,43.32,0,0,0-3-12.67Z"/><ellipse class="cls-4" cx="507.54" cy="382.13" rx="5.85" ry="6.25"/><ellipse class="cls-11" cx="505.72" cy="379.55" rx="0.23" ry="0.25"/><path class="cls-11" d="M513.39,400.89s-5.6,8.64-7.28,13.05h-1.53l-3.45-11.08S509,403.54,513.39,400.89Z"/><path class="cls-11" d="M506.34,413.94v2.32h-4.17s-2.28-1.29,0-2.32,2.56,0,2.56,0Z"/><path class="cls-26" d="M505.49,390.28s-6.75-5.79-7.32-7.51,2.77,9.66,6.55,9.65"/><polygon class="cls-13" points="505.95 375.88 507.54 373.48 514.56 375.88 517.36 382.13 516.08 385.52 510.93 385.36 510.93 382.13 508.2 378.63 505.95 375.88"/><path class="cls-26" d="M475.85,390.72s6,15.67,2.67,17.2-12.36,1.06-11.95-5.55a43,43,0,0,1,3-12.67Z"/><ellipse class="cls-4" cx="473.04" cy="386.63" rx="5.85" ry="6.25"/><ellipse class="cls-11" cx="474.87" cy="385.18" rx="0.23" ry="0.25"/><path class="cls-11" d="M467.19,405.39s5.61,8.64,7.28,13.05H476l3.45-11.08S471.62,408,467.19,405.39Z"/><path class="cls-11" d="M474.25,418.44v2.32h4.17s2.27-1.28,0-2.32-2.57,0-2.57,0Z"/><path class="cls-26" d="M476,397.31s5.78,6.76,7.5,7.34-9.65-2.78-9.63-6.57"/><polygon class="cls-13" points="478.23 383.88 479.56 381.33 474.08 376.33 467.25 376.89 464.9 379.65 467.51 384.09 470.35 382.53 474.73 383.23 478.23 383.88"/><path class="cls-3" d="M525,393s-6,15.67-2.67,17.2,12.36,1.06,11.95-5.55a43,43,0,0,0-3-12.67Z"/><ellipse class="cls-4" cx="527.8" cy="388.88" rx="5.85" ry="6.25"/><ellipse class="cls-11" cx="525.98" cy="386.31" rx="0.23" ry="0.25"/><path class="cls-27" d="M533.65,407.64s-.75,7.55-2.43,12L529,420.73l-7.58-11.12S529.22,410.29,533.65,407.64Z"/><path class="cls-11" d="M531.86,420l.65,2.23-4,1.16s-2.55-.61-.65-2.23,2.47-.72,2.47-.72Z"/><path class="cls-3" d="M524.63,398.29s-5.41,7.07-7.1,7.73,9.49-3.3,9.27-7.08"/><polygon class="cls-13" points="526.21 382.63 527.8 380.23 534.82 382.63 536.5 388.88 534.6 395.38 535.72 399.34 533.09 400.4 531.18 388.88 528.46 385.38 526.21 382.63"/><line class="cls-11" x1="536.64" y1="407.76" x2="549.7" y2="406.67"/><line class="cls-11" x1="534.47" y1="404.49" x2="539.91" y2="404.49"/><line class="cls-11" x1="537.73" y1="402.31" x2="545.35" y2="402.31"/></g><g id="_trigger_teacher_" data-name="&lt;trigger_teacher&gt;"><g id="people1"><path class="cls-10" d="M437,314.28s4.58-2.23,6.13,2,1,4.31,1,4.31l-1.73.77.2,6.3s-6.86,0-7.75-1.47,1.35-7.85,1.35-7.85-1.34-.36-1.33-1.27,1-1.12,1.88-.22S437,314.28,437,314.28Z"/><ellipse class="cls-11" cx="441.13" cy="316.6" rx="0.17" ry="0.18"/><path class="cls-12" d="M442.23,314.45s-1-4-2.05-4.42l-.6.77s-3.34-.64-4,.32a9.39,9.39,0,0,1-1.65,1.81s.51,2.51,0,2.7,3,1.67,3,1.67l-.22-2.85,1.78-.89,2.32.1Z"/><path class="cls-10" d="M434.91,325.71s-10,16.45-9,26.59c0,0,15,1.26,19.94-1.86,0,0-.9-19.6-3.17-23.14C442.66,327.3,436.58,327.21,434.91,325.71Z"/><path class="cls-13" d="M425.82,352.61s7.65,13.78,12.41,24.24l4,.73s3.14-18.92,3.22-26.93"/><path class="cls-14" d="M438.23,376.85v3.06s4.86,1.82,7.6,0l-3.63-2.33Z"/><rect class="cls-15" x="434.48" y="314.85" width="2.7" height="1.22" rx="0.52" ry="0.52"/><path class="cls-10" d="M442,331.25s4.22,10.43,7.05,12.05c0,0-10.46-6.77-10.82-14.16"/></g><path class="cls-26" d="M425.68,359.81s6.33,16.51,2.81,18.13-13,1.12-12.59-5.85a45.65,45.65,0,0,1,3.19-13.36Z"/><ellipse class="cls-4" cx="422.72" cy="355.5" rx="6.17" ry="6.59"/><ellipse class="cls-11" cx="424.64" cy="353.97" rx="0.24" ry="0.26"/><path class="cls-11" d="M416.56,375.26s5.9,9.12,7.67,13.76h1.62l3.63-11.67S421.22,378.06,416.56,375.26Z"/><path class="cls-11" d="M424,389v2.45h4.4s2.4-1.36,0-2.45-2.71,0-2.71,0Z"/><path class="cls-26" d="M423.48,366.76s6.09,7.12,7.91,7.72-10.18-2.92-10.16-6.91"/><polygon class="cls-13" points="428.19 352.6 429.59 349.91 425 347.02 416.62 347.61 416.52 352.88 416.9 354 419.89 351.18 424.5 351.91 428.19 352.6"/><path class="cls-5" d="M420.58,365.56a5.07,5.07,0,0,1,6.42,4.35"/><path class="cls-5" d="M425.92,371.24s-5.13,0-7.71-1.13"/><path class="cls-3" d="M416.43,363h4.75l-2.38,11.86h-5.93S411.69,367.71,416.43,363Z"/><path class="cls-26" d="M406.7,342s6.33,16.51,2.82,18.13-13,1.12-12.59-5.85a45.29,45.29,0,0,1,3.19-13.36Z"/><ellipse class="cls-4" cx="403.75" cy="337.71" rx="6.17" ry="6.59"/><ellipse class="cls-11" cx="405.67" cy="336.18" rx="0.24" ry="0.26"/><path class="cls-11" d="M397.58,357.47s5.91,9.12,7.67,13.76h1.62l3.64-11.67S402.25,360.27,397.58,357.47Z"/><path class="cls-11" d="M405,371.23v2.45h4.4s2.4-1.36,0-2.45-2.7,0-2.7,0Z"/><path class="cls-26" d="M404.5,349s6.1,7.12,7.91,7.72-10.18-2.92-10.15-6.91"/><polygon class="cls-13" points="409.21 334.81 410.62 332.12 406.02 329.23 397.64 329.81 397.54 335.1 397.92 336.21 400.91 333.38 405.53 334.12 409.21 334.81"/><path class="cls-5" d="M401.61,347.77a5.07,5.07,0,0,1,6.42,4.35"/><path class="cls-5" d="M407,353.45s-5.14,0-7.72-1.13"/><path class="cls-3" d="M397.46,345.18h4.74L399.83,357H393.9S392.71,349.92,397.46,345.18Z"/><path class="cls-26" d="M396,357.44s6.33,16.51,2.81,18.12-13,1.12-12.59-5.85a45.64,45.64,0,0,1,3.19-13.35Z"/><ellipse class="cls-4" cx="393.07" cy="353.13" rx="6.17" ry="6.59"/><ellipse class="cls-11" cx="394.99" cy="350.41" rx="0.24" ry="0.26"/><path class="cls-11" d="M386.91,372.89s5.9,9.12,7.67,13.76h1.62L399.83,375S391.57,375.69,386.91,372.89Z"/><path class="cls-11" d="M394.34,386.65v2.45h4.4s2.4-1.36,0-2.45-2.71,0-2.71,0Z"/><path class="cls-26" d="M393.83,364.38s6.09,7.13,7.91,7.73-10.18-2.93-10.16-6.92"/><polygon class="cls-13" points="396.41 347.27 395.87 344.29 390.47 344.82 384.2 350.42 387.36 354.66 388.35 355.31 388.98 351.24 393.08 348.99 396.41 347.27"/><path class="cls-5" d="M390.93,363.19a5.07,5.07,0,0,1,6.42,4.35"/><path class="cls-5" d="M396.27,368.87s-5.13,0-7.71-1.13"/><path class="cls-3" d="M386.78,360.59h4.75l-2.38,11.86h-5.93S382,365.34,386.78,360.59Z"/></g><rect id="hidden-2" data-name="hidden" class="cls-24" x="371.85" y="290.91" width="85.36" height="108.54"/><rect id="hidden-3" data-name="hidden" class="cls-24" x="457.81" y="340.96" width="95.15" height="108.54"/><g id="sign-2" data-name="sign"><path class="cls-8" d="M420.79,314.93l-.51,10.94h-1.12l-.5-10.94Zm-.07,15.54h-2v-2.56h2Z"/></g><g id="sign-3" data-name="sign"><path class="cls-8" d="M489.35,358.46l-.51,10.93h-1.12l-.51-10.93ZM489.28,374h-2v-2.55h2Z"/></g></g><g id="_Island_1_" data-name="&lt;Island 1&gt;"><polygon class="cls-3" points="311.39 395.79 311.39 427.34 188.43 499.16 181.9 467.6 223.25 420.81 272.22 405.58 311.39 395.79"/><polygon class="cls-3" points="92.67 412.11 92.67 443.67 188.43 499.16 188.43 466.52 167.76 417.55 119.88 412.11 92.67 412.11"/><polygon class="cls-4" points="214.55 340.29 92.67 412.11 188.43 466.52 311.39 395.79 214.55 340.29"/><g id="people4"><path class="cls-20" d="M180.62,370.47S171,385.79,172,395.23c0,0,14.45,1.17,19.15-1.73,0,0-.86-18.25-3-21.55C188.06,372,182.22,371.87,180.62,370.47Z"/><polygon class="cls-10" points="180.85 370.87 186.16 373.52 187.05 372.19 180.85 370.87"/><line class="cls-16" x1="187.35" y1="385.25" x2="187.43" y2="393.69"/><path class="cls-12" d="M187,363.5c3.33-1.14,4.47-6.67-4.94-4.09,0,0-1.67-.45-1.67-.42-.21.9-2.1,15.5-5.79,12.41,0,0,3.8,4,5.84,2.23l1.24-1.34,5.31-8.7S187,363.51,187,363.5Z"/><path class="cls-10" d="M182,362.28a.11.11,0,0,1,.07-.12c.59-.25,4.71-2.38,6.09,1.17,1.29,3.35,1.34,3.5,1.25,3.58l0,0-1.58.67a.1.1,0,0,0-.06.1l.3,4.29s-5.91.22-6.76-1.12.17-5.08.46-5.9c0-.06,0-.13-.06-.14-.31-.1-1.18-.45-1.18-1.13s1-1,1.82-.21S182.13,362.79,182,362.28Z"/><ellipse class="cls-11" cx="186.32" cy="364.74" rx="0.16" ry="0.17"/></g><path class="cls-6" d="M206.77,323.68l-29.94,12.45-20.87,27V423l69.49-41.52V321.6Zm7.78,43.81L171,393.61V369.67l43.53-25Z"/><polygon class="cls-6" points="122.05 344.69 122.05 404.56 155.96 422.99 155.96 363.12 140.74 345.77 122.05 344.69"/><polygon class="cls-6" points="193.6 303.1 122.05 344.68 155.51 363.12 225.97 321.55 193.6 303.1"/><g class="cls-2"><polygon class="cls-23" points="173.16 348.04 168.71 345.45 168.65 322.49 173.09 325.07 173.16 348.04"/><polygon class="cls-23" points="173.09 325.07 168.65 322.49 190.12 310.09 194.56 312.67 173.09 325.07"/><polygon class="cls-28" points="194.56 312.67 194.63 335.64 173.16 348.04 173.09 325.07 194.56 312.67"/></g><path d="M184.11,325.29l-.93.54V327a3.93,3.93,0,0,0-1.75,3.08c0,2.26,3.1.11,3.11,1.11,0,.45-.32.87-1.06,1.29a1.83,1.83,0,0,1-1.63.24l-.64,1.48a2.52,2.52,0,0,0,2-.23v1.19l.94-.54v-1.23a4.09,4.09,0,0,0,1.77-3.15c0-2.25-3.1-.08-3.1-1.07a1.45,1.45,0,0,1,.89-1.16,1.69,1.69,0,0,1,1.46-.19l.71-1.4a2,2,0,0,0-1.75,0v-1.21"/><path d="M183.54,336.67c-3,1.75-5.52.35-5.53-3.14A12.13,12.13,0,0,1,183.5,324c3-1.75,5.52-.35,5.53,3.15a12.1,12.1,0,0,1-5.49,9.51m0-14a14.62,14.62,0,0,0-6.63,11.5c0,4.22,3,5.92,6.67,3.8a14.62,14.62,0,0,0,6.64-11.49c0-4.23-3-5.93-6.68-3.81"/><g id="people3-3" data-name="people3"><path class="cls-10" d="M217.44,362.72s-3.93-1.91-5.26,1.7-.87,3.7-.87,3.7l1.48.65-.17,5.41s5.88,0,6.64-1.26-1.15-6.74-1.15-6.74,1.14-.31,1.14-1.08-.86-1-1.62-.19S217.44,362.72,217.44,362.72Z"/><ellipse class="cls-11" cx="213.93" cy="364.71" rx="0.14" ry="0.16"/><path class="cls-11" d="M213,362.87s.85-3.47,1.77-3.8l.5.66s2.87-.55,3.42.28a8,8,0,0,0,1.42,1.55s-.44,2.15,0,2.32-2.54,1.43-2.54,1.43l.19-2.44-1.53-.77-2,.09Z"/><path class="cls-10" d="M219.26,372.52s8.61,14.12,7.74,22.82c0,0-12.9,1.08-17.1-1.59,0,0,.77-16.82,2.72-19.86C212.62,373.89,217.83,373.81,219.26,372.52Z"/><path class="cls-13" d="M227.06,395.61s-6.56,11.82-10.64,20.79L213,417s-2.69-16.23-2.77-23.1"/><path class="cls-14" d="M216.42,416.4V419s-4.17,1.56-6.52,0l3.11-2Z"/></g><ellipse class="cls-6" cx="178.66" cy="428.57" rx="2.37" ry="4.39" transform="translate(-259.66 581.76) rotate(-86.63)"/><path class="cls-6" d="M177.26,405.62V428a2.07,2.07,0,0,0,3,0V405.62Z"/><circle class="cls-6" cx="178.76" cy="404.87" r="2.98"/><ellipse class="cls-6" cx="265.11" cy="402.87" rx="2.37" ry="4.39" transform="translate(-152.63 643.87) rotate(-86.63)"/><path class="cls-6" d="M263.72,379.92v22.36a2.06,2.06,0,0,0,3,0V379.92Z"/><circle class="cls-6" cx="265.21" cy="379.17" r="2.98"/><line class="cls-29" x1="178.96" y1="405.27" x2="201.16" y2="415.79"/><line class="cls-29" x1="236.2" y1="397.1" x2="264.24" y2="379.57"/><ellipse class="cls-6" cx="234.74" cy="420.4" rx="2.37" ry="4.39" transform="translate(-198.72 630.04) rotate(-86.63)"/><path class="cls-6" d="M233.34,397.44v22.37a2.06,2.06,0,0,0,3,0V397.44Z"/><circle class="cls-6" cx="234.83" cy="396.7" r="2.98"/><line class="cls-29" x1="201.16" y1="415.79" x2="233.87" y2="397.1"/><ellipse class="cls-6" cx="200.86" cy="439.09" rx="2.37" ry="4.39" transform="translate(-249.27 613.82) rotate(-86.63)"/><path class="cls-6" d="M199.46,416.13V438.5a2.06,2.06,0,0,0,3,0V416.13Z"/><circle class="cls-6" cx="200.95" cy="415.39" r="2.98"/><g id="_trigger_buy_tickets_" data-name="&lt;trigger_buy_tickets&gt;"><path class="cls-20" d="M184.4,376s7,7.57,10,7.95c0,0-11.48-2.11-14.06-8.42"/><path class="cls-10" d="M213.19,377.28s-3.63,9-6.05,10.34c0,0,9-5.81,9.28-12.15"/><polygon class="cls-4" points="209.62 386.59 195.45 382.08 196.99 389.22 210.96 393.9 209.62 386.59"/><g class="cls-2"><g class="cls-30"><path class="cls-25" d="M203.33,384.92l-.67-.23.15.77c-.75-.15-1.12.18-1,.91.28,1.44,2.44,1.95,2.56,2.59.06.29-.14.37-.66.19a3.12,3.12,0,0,1-1.25-.85l-.31.56a4.47,4.47,0,0,0,1.52,1.06l.14.76.67.23-.15-.79c.81.14,1.13-.24,1-.92-.28-1.45-2.43-1.94-2.56-2.57,0-.3.18-.33.56-.2a3.12,3.12,0,0,1,1.12.76l.38-.45a4.48,4.48,0,0,0-1.37-1.05l-.15-.77"/></g></g></g><rect id="hidden-4" data-name="hidden" class="cls-24" x="149.86" y="320.29" width="95.15" height="108.54"/><g id="sign-4" data-name="sign"><path class="cls-8" d="M220.57,340l-.51,10.93h-1.12L218.43,340Zm-.07,15.54h-2v-2.56h2Z"/></g></g></g></g></svg>