<svg xmlns="http://www.w3.org/2000/svg" viewBox="0 0 614.2 529.39"><defs><style>.cls-1{isolation:isolate;}.cls-15,.cls-19,.cls-2,.cls-23,.cls-24,.cls-32,.cls-9{fill:#c92028;}.cls-2,.cls-22,.cls-29,.cls-3{stroke:#000;}.cls-10,.cls-12,.cls-13,.cls-2,.cls-20,.cls-22,.cls-27,.cls-29,.cls-3,.cls-32,.cls-33,.cls-34,.cls-4{stroke-miterlimit:10;}.cls-11,.cls-12,.cls-16,.cls-18,.cls-21,.cls-27,.cls-3,.cls-33,.cls-35,.cls-7{fill:#fff;}.cls-31,.cls-4{fill:#be2229;}.cls-4{stroke:#be2229;}.cls-10,.cls-20,.cls-22,.cls-25,.cls-28,.cls-5{fill:none;}.cls-10,.cls-11,.cls-12,.cls-13,.cls-14,.cls-17,.cls-18,.cls-19,.cls-23,.cls-24,.cls-25,.cls-32,.cls-33,.cls-34,.cls-35,.cls-5,.cls-6{stroke:#1a1a1a;}.cls-11,.cls-14,.cls-16,.cls-17,.cls-18,.cls-19,.cls-21,.cls-24,.cls-25,.cls-28,.cls-5,.cls-6{stroke-linecap:round;}.cls-11,.cls-14,.cls-16,.cls-17,.cls-18,.cls-19,.cls-21,.cls-23,.cls-24,.cls-25,.cls-28,.cls-35,.cls-5,.cls-6{stroke-linejoin:round;}.cls-6{fill:#f7e2e5;}.cls-8{fill:#191919;}.cls-11,.cls-12,.cls-13,.cls-14,.cls-23,.cls-24,.cls-25,.cls-32,.cls-34,.cls-35{stroke-width:0.8px;}.cls-13,.cls-14{fill:#1a1a1a;}.cls-15{mix-blend-mode:multiply;}.cls-16{stroke:#040000;}.cls-17,.cls-29,.cls-30{fill:#fff5f6;}.cls-20{stroke:#fff;}.cls-21{stroke:#181818;}.cls-26{fill:#040000;}.cls-27,.cls-28{stroke:#191919;}</style></defs><title>_</title><g class="cls-1"><g id="大湖公園站"><g id="island_1"><g id="大地板"><polygon class="cls-2" points="177.23 156.89 177.23 182.16 460.44 347.51 459.75 320.01 177.23 156.89"/><polygon class="cls-3" points="277.01 98.99 559.54 262.11 459.75 319.72 177.23 156.61 277.01 98.99"/><polygon class="cls-2" points="559.54 262.11 559.54 290.01 460.44 347.51 459.75 319.72 559.54 262.11"/></g><g id="lake"><path class="cls-4" d="M38.43,245.2l.41,31.58L42,287.19l8.4,12.36,12.26,11.63L86.41,326.8l14.87,7.92,14.25,8,14.83,4,14.15,0,8.2,2.29,11.37,4.25,7.77,7.82,10.82,8.13,21.16,10.28s48.85,23.67,128.26,6.64c0,0,19.62-3.45,31.69-15.63s9.75-15.23,9.75-15.23l-.18-32s40.35-5.72,46.22-9.55S377.87,285,377.87,285l-9.49-2.43-105.27,40.7L69,237.93Z"/><path class="cls-5" d="M373.49,355.61c-1.31,5.65-5,11.15-11.3,16.22-27,21.79-91.54,27.32-144.12,12.35-25-7.12-42.79-17.59-51.68-28.95a8.16,8.16,0,0,0-3.93-2.7q-7.23-2.37-13.55-5.1a9.22,9.22,0,0,0-4.4-.72c-27.41,2.09-30.68-6.27-54.45-18-22.58-11.17-51.82-33.28-51.21-54.84"/><path class="cls-5" d="M407.84,317a166.32,166.32,0,0,1-31.15,5.49h-.21a10.57,10.57,0,0,0-3.13.77"/><path class="cls-6" d="M162,315.19q-7.23-2.37-13.54-5.1a9.36,9.36,0,0,0-4.4-.72c-27.42,2.09-30.69-6.27-54.46-18-27.07-13.39-62.58-38.87-46.93-64.61,6-9.9,24.16-20.7,64.24-19.09a9.84,9.84,0,0,0,9.32-5.49A33.16,33.16,0,0,1,126,190.35,72.59,72.59,0,0,1,145.9,179.5a9.66,9.66,0,0,0,5.51-5.29A27.58,27.58,0,0,1,160,163.42c22.7-18.31,76.94-23,121.13-10.38a135.36,135.36,0,0,1,20,7.35,9.21,9.21,0,0,0,5,.71,218.39,218.39,0,0,1,83.45,6.4c42.65,12.14,62.93,34.7,51.21,53.79a7.89,7.89,0,0,0,.4,9.12c.39.5.76,1,1.11,1.5,17.24,24.79-12.3,48.62-66,53.23h-.21c-7.09.6-11.31,8.14-7.57,13.52,8.36,12,6.79,24.93-6.71,35.82-27,21.79-91.55,27.32-144.13,12.35-25-7.12-42.79-17.59-51.68-28.95A8.11,8.11,0,0,0,162,315.19Z"/><line class="cls-5" x1="38.84" y1="273.83" x2="38.84" y2="239.95"/><line class="cls-5" x1="144.51" y1="346.71" x2="144.1" y2="309.37"/><line class="cls-5" x1="165.42" y1="321.94" x2="165.42" y2="347.51"/><line class="cls-5" x1="373.53" y1="355.26" x2="373.87" y2="314.28"/></g><g id="ducks"><g id="duck"><path class="cls-7" d="M210.3,195.8l-1.53,1,1.53,1.15.11,2.6.76,4.26s1.78,4,5.66,4.58,15.68,1.07,19.06-2.62l.69-2.61-1-.68,1.47-2.1-1-.75.56-2.53-10.15.5-5.33-.13-.66-2.39-.25-3.18L218,189.64l-2-.84-4.2,1.48-1.68,1.92-.12,2.89Z"/><path class="cls-5" d="M210.3,195.8l-1.53,1,1.95,1.46s-3.35,12.11,11.89,11.76,14-5.15,14-5.15.35-1.81-1.32-1.11c0,0,3.47-3,.69-2.91,0,0,2-3.35-.13-2.86s-8.7-.28-12.53.34-2.63-2.35-2.71-3.52c-.28-4.31-3.54-7.49-8.2-4.91C208.11,192.23,210.3,195.8,210.3,195.8Z"/><path class="cls-5" d="M222.61,202.62s1.94,3.32,7.77,1.74"/><rect class="cls-8" x="212.18" y="193.37" width="1.04" height="1.04" rx="0.52" ry="0.52"/></g><g id="duck-2" data-name="duck"><path class="cls-7" d="M307,271.2l1.53,1L307,273.32l-.12,2.6-.75,4.27s-1.78,4-5.66,4.57-15.69,1.07-19.07-2.62l-.68-2.61,1-.68-1.47-2.1,1-.75-.56-2.52,10.14.49,5.34-.13.66-2.39.25-3.18,2.27-3.23,2.05-.84,4.2,1.48,1.68,1.92.12,2.89Z"/><path class="cls-5" d="M307,271.2l1.53,1-2,1.47s3.34,12.1-11.89,11.75-14-5.15-14-5.15-.35-1.81,1.32-1.11c0,0-3.48-3-.69-2.91,0,0-2-3.35.13-2.86s8.7-.28,12.52.34,2.64-2.35,2.72-3.52c.27-4.31,3.54-7.48,8.2-4.91C309.2,267.63,307,271.2,307,271.2Z"/><path class="cls-5" d="M294.7,278s-1.94,3.32-7.77,1.74"/><rect class="cls-8" x="304.09" y="268.77" width="1.04" height="1.04" rx="0.52" ry="0.52" transform="translate(609.22 538.57) rotate(180)"/></g><g id="duck-3" data-name="duck"><path class="cls-7" d="M324,275.24l1.7,1.07-1.7,1.28-.12,2.87-.84,4.73s-2,4.4-6.27,5.07-17.38,1.19-21.13-2.9l-.76-2.89,1.12-.76-1.63-2.32,1.06-.83-.62-2.8,11.25.54,5.91-.14.73-2.64L313,272l2.52-3.58,2.26-.93,4.66,1.64,1.86,2.12.14,3.21Z"/><path class="cls-5" d="M324,275.24l1.7,1.07-2.16,1.62s3.71,13.41-13.17,13-15.5-5.71-15.5-5.71-.38-2,1.47-1.23c0,0-3.85-3.36-.77-3.22,0,0-2.17-3.71.15-3.18s9.64-.3,13.87.39,2.93-2.61,3-3.91c.31-4.77,3.93-8.29,9.09-5.44C326.46,271.28,324,275.24,324,275.24Z"/><path class="cls-5" d="M310.4,282.79s-2.16,3.68-8.62,1.93"/><rect class="cls-8" x="320.8" y="272.54" width="1.15" height="1.15" rx="0.52" ry="0.52" transform="translate(642.76 546.23) rotate(-180)"/></g><g id="duck-4" data-name="duck"><path class="cls-7" d="M246.78,203.35l-1,.61,1,.72.07,1.63.47,2.67a5.24,5.24,0,0,0,3.55,2.87c2.44.38,9.84.68,12-1.64l.43-1.64-.64-.42.92-1.32-.6-.47.35-1.58-6.36.31-3.34-.08-.42-1.5-.15-2-1.43-2-1.28-.53-2.64.93-1,1.2-.08,1.82Z"/><path class="cls-5" d="M246.78,203.35l-1,.61,1.22.92s-2.1,7.58,7.45,7.37,8.77-3.23,8.77-3.23.22-1.13-.83-.7c0,0,2.18-1.9.44-1.82,0,0,1.22-2.1-.09-1.8s-5.45-.17-7.85.22-1.65-1.48-1.7-2.21c-.17-2.7-2.22-4.69-5.14-3.08C245.4,201.12,246.78,203.35,246.78,203.35Z"/><path class="cls-5" d="M254.49,207.63s1.22,2.08,4.88,1.09"/><rect class="cls-8" x="247.96" y="201.83" width="0.65" height="0.65" rx="0.33" ry="0.33"/></g><g id="duck-5" data-name="duck"><path class="cls-7" d="M267.52,203.86l-1,.61,1,.72.07,1.62.47,2.68a5.24,5.24,0,0,0,3.56,2.87c2.43.38,9.83.67,11.95-1.64l.43-1.64-.63-.43.92-1.31-.6-.47.35-1.59-6.37.31-3.34-.08-.41-1.49-.16-2-1.42-2-1.29-.53-2.63.93-1.06,1.2-.07,1.82Z"/><path class="cls-5" d="M267.52,203.86l-1,.61,1.22.91s-2.09,7.59,7.46,7.37,8.76-3.22,8.76-3.22.22-1.14-.83-.7c0,0,2.18-1.9.44-1.82,0,0,1.23-2.11-.08-1.8s-5.46-.17-7.86.22S274,204,274,203.22c-.17-2.71-2.22-4.69-5.14-3.08C266.15,201.62,267.52,203.86,267.52,203.86Z"/><path class="cls-5" d="M275.24,208.13s1.22,2.08,4.87,1.09"/><rect class="cls-8" x="268.7" y="202.33" width="0.65" height="0.65" rx="0.33" ry="0.33"/></g><g id="duck-6" data-name="duck"><path class="cls-7" d="M360.48,194.64l-1,.61,1,.72.07,1.62.47,2.68a5.24,5.24,0,0,0,3.56,2.87c2.43.38,9.83.67,11.95-1.64l.43-1.64-.64-.43.92-1.31-.6-.47.36-1.59-6.37.31-3.34-.08-.41-1.49-.16-2-1.43-2-1.28-.53-2.63.93-1.06,1.2-.07,1.82Z"/><path class="cls-5" d="M360.48,194.64l-1,.61,1.22.91s-2.09,7.59,7.46,7.37,8.76-3.22,8.76-3.22.22-1.14-.83-.7c0,0,2.18-1.9.44-1.82,0,0,1.23-2.11-.08-1.8s-5.46-.17-7.86.22-1.65-1.48-1.7-2.21c-.17-2.71-2.22-4.69-5.14-3.08C359.11,192.4,360.48,194.64,360.48,194.64Z"/><path class="cls-5" d="M368.2,198.91s1.22,2.08,4.87,1.1"/><rect class="cls-8" x="361.66" y="193.11" width="0.65" height="0.65" rx="0.33" ry="0.33"/></g><g id="duck-7" data-name="duck"><path class="cls-7" d="M330.22,211.2l-1,.61,1,.72.08,1.63.47,2.67a5.24,5.24,0,0,0,3.55,2.87c2.44.38,9.83.67,11.95-1.64l.43-1.64-.63-.43.92-1.31-.6-.47.35-1.58-6.36.3-3.35-.08-.41-1.49-.16-2-1.42-2-1.28-.53-2.64.93-1.05,1.2-.08,1.82Z"/><path class="cls-5" d="M330.22,211.2l-1,.61,1.22.92s-2.1,7.58,7.45,7.36,8.77-3.22,8.77-3.22.21-1.14-.83-.7c0,0,2.18-1.9.43-1.82,0,0,1.23-2.1-.08-1.8s-5.45-.17-7.85.22-1.65-1.48-1.7-2.21c-.18-2.7-2.22-4.69-5.14-3.08C328.85,209,330.22,211.2,330.22,211.2Z"/><path class="cls-5" d="M337.94,215.47s1.22,2.08,4.87,1.1"/><rect class="cls-8" x="331.4" y="209.67" width="0.65" height="0.65" rx="0.33" ry="0.33"/></g></g><g id="橋與人"><rect class="cls-3" x="278.44" y="141.6" width="15.16" height="2.48" rx="1.24" ry="1.24" transform="translate(138.44 426.44) rotate(-89.05)"/><rect class="cls-3" x="285.03" y="144.78" width="15.16" height="2.48" rx="1.24" ry="1.24" transform="translate(141.75 436.17) rotate(-89.05)"/><rect class="cls-3" x="292.15" y="147.43" width="15.16" height="2.48" rx="1.24" ry="1.24" transform="translate(146.11 445.89) rotate(-89.05)"/><rect class="cls-3" x="299.81" y="148.69" width="15.16" height="2.48" rx="1.24" ry="1.24" transform="translate(152.38 454.79) rotate(-89.05)"/><rect class="cls-3" x="307.75" y="148.23" width="15.16" height="2.48" rx="1.24" ry="1.24" transform="translate(160.65 462.27) rotate(-89.05)"/><rect class="cls-3" x="315.69" y="145.72" width="15.16" height="2.48" rx="1.24" ry="1.24" transform="translate(170.97 467.75) rotate(-89.05)"/><rect class="cls-3" x="323.38" y="140.83" width="15.16" height="2.48" rx="1.24" ry="1.24" transform="translate(183.41 470.63) rotate(-89.05)"/><rect class="cls-3" x="330.55" y="133.23" width="15.16" height="2.48" rx="1.24" ry="1.24" transform="translate(198.06 470.31) rotate(-89.05)"/><rect class="cls-3" x="374.28" y="112.59" width="2.48" height="15.16" rx="1.24" ry="1.24"/><rect class="cls-3" x="366.41" y="112.03" width="2.48" height="15.16" rx="1.24" ry="1.24"/><rect class="cls-3" x="358.63" y="113.02" width="2.48" height="15.16" rx="1.24" ry="1.24"/><rect class="cls-3" x="351.2" y="115.63" width="2.48" height="15.16" rx="1.24" ry="1.24"/><rect class="cls-3" x="343.99" y="118.8" width="2.48" height="15.16" rx="1.24" ry="1.24"/><rect class="cls-3" x="412.94" y="150.17" width="2.48" height="15.16" rx="1.24" ry="1.24"/><rect class="cls-3" x="407.53" y="142.34" width="2.48" height="15.16" rx="1.24" ry="1.24"/><rect class="cls-3" x="402.12" y="134.51" width="2.48" height="15.16" rx="1.24" ry="1.24"/><rect class="cls-3" x="396.29" y="127" width="2.48" height="15.16" rx="1.24" ry="1.24"/><rect class="cls-3" x="388.92" y="121" width="2.48" height="15.16" rx="1.24" ry="1.24"/><rect class="cls-3" x="381.21" y="115.41" width="2.48" height="15.16" rx="1.24" ry="1.24"/><rect class="cls-3" x="464.66" y="229.37" width="2.48" height="17.13" rx="1.24" ry="1.24"/><rect class="cls-3" x="457.36" y="221.71" width="2.48" height="17.13" rx="1.24" ry="1.24"/><rect class="cls-3" x="450.06" y="214.05" width="2.48" height="17.13" rx="1.24" ry="1.24"/><rect class="cls-3" x="442.77" y="206.39" width="2.48" height="17.13" rx="1.24" ry="1.24"/><rect class="cls-3" x="437.09" y="197.67" width="2.48" height="17.13" rx="1.24" ry="1.24"/><rect class="cls-3" x="432.88" y="187.87" width="2.48" height="17.13" rx="1.24" ry="1.24"/><rect class="cls-3" x="427.6" y="178.7" width="2.48" height="17.13" rx="1.24" ry="1.24"/><rect class="cls-3" x="422.32" y="169.53" width="2.48" height="17.13" rx="1.24" ry="1.24"/><rect class="cls-3" x="417.04" y="160.36" width="2.48" height="17.13" rx="1.24" ry="1.24"/><path class="cls-9" d="M287.83,147l7.84,4.45,12.59,2.26,10.2-4.51L332,137.11l13-9.19,12-5s19.78-3.69,38.77,14.23,23,36.36,23,36.36l11.89,24.58,14.81,24.51,12.27,14.28,8.28,7.73-25.92,14.78-62.24-36.79s-1.05-16.66-6.94-26.89-10.74-19.59-20.39-22-19.71-7.12-34.39,14.09l-49.59-28.63Z"/><path class="cls-7" d="M312.07,185.43S318,169,332,166s29.94.17,43.54,23.45c8.17,14,9.39,37.27,9.39,37.27l-7-4.16s-3.06-38.5-27.33-48.87-34.39,14.09-34.39,14.09Z"/><line class="cls-10" x1="440.11" y1="259.35" x2="466.03" y2="244.57"/><path class="cls-10" d="M466.2,244.57c-28.43-22.47-48.79-74.42-48.79-74.42-12.78-33-49.78-71.51-91.15-27.42-19.51,20.79-38.43,4.29-38.43,4.29l-21.27,12.13"/><path class="cls-10" d="M316.15,187.78s9.9-24.18,34.39-14.09,27.33,48.87,27.33,48.87"/><path class="cls-10" d="M314,181.38s11.24-24.18,39-14.09,31,53,31,53"/><path class="cls-10" d="M335.91,160.54c5.35-.85,11.72-.47,19.2,2.05,29.93,10.08,33.41,53,33.41,53"/><path class="cls-10" d="M313.07,176.68A33.08,33.08,0,0,1,330.33,162"/><path class="cls-10" d="M280.73,166.24a46.66,46.66,0,0,1-14.17-7.09l49.59,28.63"/><path class="cls-10" d="M433.33,254.22c-20.25-20.63-37.74-76.78-37.74-76.78-4.65-13.05-17.22-31.07-33.2-37.13-21.52-8.16-34.95,1-40.73,8.24-.57.71-1.07,1.45-1.56,2.2-2.31,3.54-15.82,22.23-39.37,15.49"/><path class="cls-10" d="M377.87,222.56l62.24,36.79a24.29,24.29,0,0,1-6.78-5.13"/><line class="cls-10" x1="316.15" y1="187.78" x2="344.53" y2="171.81"/><path class="cls-3" d="M467.4,241.12c-15-11.71-27.82-31.45-35.88-45.94a280,280,0,0,1-14-28.9c-11.65-29.64-32.08-43.28-46-46-15.1-2.89-30.21,3.45-44.9,18.86-20.27,21.25-40.27,4.53-40.47,4.36a16,16,0,0,1-4.07-3.9l1.73-1.06a14.61,14.61,0,0,0,3.61,3.4c.82.7,18.81,15.66,37.72-4.17,15.2-15.94,30.93-22.49,46.77-19.45,10.18,2,20.25,8,29.12,17.58a96,96,0,0,1,18.43,29.62,278,278,0,0,0,13.91,28.68c8,14.33,20.57,33.81,35.35,45.31Z"/><path class="cls-3" d="M439.8,249.78a30.71,30.71,0,0,1-3.84-3.32l.08-.08-.35-.36c-8.08-8.23-17.08-23.93-26-45.41-6.83-16.39-11.18-30.23-11.37-30.83-5.15-14.42-18.51-32.11-34.08-38-25.27-9.58-38.87,4.25-42.44,8.71a28.21,28.21,0,0,0-1.64,2.31c-2.36,3.61-15.26,21.29-37.7,14.87l-.49-.14v.05a1.41,1.41,0,0,0-.23-.18l-13.09-6.6a1.29,1.29,0,0,0-1.61.38c-.32.49-.72,1.73-.15,2l14.21,7.29a1.23,1.23,0,0,0,.37,0l.17.05c24.47,7,38.48-12.19,41-16.11.42-.64.92-1.38,1.47-2.08,12.85-16.07,33.13-10,39-7.77,14.73,5.58,27.4,22.43,32.31,36.16.71,2.31,17.75,56.52,38,77.27h0l.15.14.33.33h0c.48.44,1,.87,1.42,1.27l.71.66,2.62,2c.95.67,4.61,3.42,5.52,3.85l2.09-1.58Z"/><rect class="cls-3" x="259.95" y="151.89" width="15.16" height="2.48" rx="1.24" ry="1.24" transform="translate(109.97 418.08) rotate(-89.05)"/><rect class="cls-3" x="266.55" y="155.07" width="15.16" height="2.48" rx="1.24" ry="1.24" transform="translate(113.28 427.8) rotate(-89.05)"/><rect class="cls-3" x="273.67" y="157.72" width="15.16" height="2.48" rx="1.24" ry="1.24" transform="translate(117.64 437.52) rotate(-89.05)"/><rect class="cls-3" x="281.33" y="158.98" width="15.16" height="2.48" rx="1.24" ry="1.24" transform="translate(123.92 446.42) rotate(-89.05)"/><rect class="cls-3" x="289.26" y="158.52" width="15.16" height="2.48" rx="1.24" ry="1.24" transform="translate(132.18 453.9) rotate(-89.05)"/><rect class="cls-3" x="297.21" y="156.01" width="15.16" height="2.48" rx="1.24" ry="1.24" transform="translate(142.5 459.38) rotate(-89.05)"/><rect class="cls-3" x="304.9" y="151.12" width="15.16" height="2.48" rx="1.24" ry="1.24" transform="translate(154.95 462.26) rotate(-89.05)"/><rect class="cls-3" x="312.06" y="143.52" width="15.16" height="2.48" rx="1.24" ry="1.24" transform="matrix(0.02, -1, 1, 0.02, 169.59, 461.95)"/><rect class="cls-3" x="355.79" y="122.88" width="2.48" height="15.16" rx="1.24" ry="1.24"/><rect class="cls-3" x="347.93" y="122.32" width="2.48" height="15.16" rx="1.24" ry="1.24"/><rect class="cls-3" x="340.14" y="123.31" width="2.48" height="15.16" rx="1.24" ry="1.24"/><rect class="cls-3" x="332.72" y="125.92" width="2.48" height="15.16" rx="1.24" ry="1.24"/><rect class="cls-3" x="325.5" y="129.09" width="2.48" height="15.16" rx="1.24" ry="1.24"/><rect class="cls-3" x="394.45" y="160.46" width="2.48" height="15.16" rx="1.24" ry="1.24"/><rect class="cls-3" x="389.04" y="152.63" width="2.48" height="15.16" rx="1.24" ry="1.24"/><rect class="cls-3" x="383.63" y="144.8" width="2.48" height="15.16" rx="1.24" ry="1.24"/><rect class="cls-3" x="377.8" y="137.29" width="2.48" height="15.16" rx="1.24" ry="1.24"/><rect class="cls-3" x="370.43" y="131.29" width="2.48" height="15.16" rx="1.24" ry="1.24"/><rect class="cls-3" x="362.72" y="125.7" width="2.48" height="15.16" rx="1.24" ry="1.24"/><rect class="cls-3" x="438.1" y="243.01" width="2.48" height="17.13" rx="1.24" ry="1.24"/><rect class="cls-3" x="432.05" y="234.58" width="2.48" height="17.13" rx="1.24" ry="1.24"/><rect class="cls-3" x="425.99" y="226.16" width="2.48" height="17.13" rx="1.24" ry="1.24"/><rect class="cls-3" x="419.94" y="217.73" width="2.48" height="17.13" rx="1.24" ry="1.24"/><rect class="cls-3" x="414.3" y="209.03" width="2.48" height="17.13" rx="1.24" ry="1.24"/><rect class="cls-3" x="410.06" y="199.57" width="2.48" height="17.13" rx="1.24" ry="1.24"/><rect class="cls-3" x="406.23" y="189.93" width="2.48" height="17.13" rx="1.24" ry="1.24"/><rect class="cls-3" x="402.39" y="180.29" width="2.48" height="17.13" rx="1.24" ry="1.24"/><rect class="cls-3" x="398.56" y="170.65" width="2.48" height="17.13" rx="1.24" ry="1.24"/><path class="cls-11" d="M398.33,91s-4.36-2-5.84,1.82-1,4-1,4l1.65.7-.19,5.79s6.52,0,7.37-1.35-1.29-7.21-1.29-7.21,1.28-.33,1.27-1.16-.95-1-1.79-.2S398.33,91,398.33,91Z"/><ellipse class="cls-12" cx="394.43" cy="93.18" rx="0.16" ry="0.17"/><path class="cls-13" d="M393.39,91.2s.93-3.7,1.95-4.06l.56.71s3.18-.59,3.79.3a8.89,8.89,0,0,0,1.57,1.65s-.48,2.31,0,2.48-2.82,1.54-2.82,1.54l.22-2.62-1.7-.82-2.21.1Z"/><path class="cls-11" d="M400.35,101.54s9.53,15.1,8.57,24.41c0,0-14.3,1.16-19-1.71,0,0,.86-18,3-21.24C393,103,398.76,102.91,400.35,101.54Z"/><path class="cls-14" d="M409,126.23s-7.27,12.65-11.8,22.25l-3.78.67s-3-17.36-3.06-24.71"/><path class="cls-5" d="M397.19,148.48v2.82s-4.62,1.66-7.23,0l3.45-2.15Z"/><rect class="cls-15" x="398.19" y="91.57" width="2.57" height="1.12" rx="0.56" ry="0.56" transform="translate(798.95 184.25) rotate(-180)"/><path class="cls-11" d="M393.61,106.62s-4,9.58-6.71,11.06c0,0,10-6.21,10.29-13"/></g><rect class="cls-3" x="253.35" y="39.23" width="2.66" height="109.25" rx="1.33" ry="1.33"/><path class="cls-16" d="M263.54,46.59a7,7,0,0,0,1-3.53c0-4.58-4.55-8.29-10.16-8.29s-10.16,3.71-10.16,8.29a7,7,0,0,0,1,3.53Z"/><path class="cls-17" d="M515.29,212.76s1.53,18,0,20.87-2.61,15.66-2.61,15.66-1.8,7.91-9.81,9.14l5.56.23,7.54-3.05,3.12,1.75v2s2.91,2,4.12,1a31,31,0,0,1-1.94-3.75c-.72-1.78-.85-1-.85-1s5,.26,6.43-.84l-2.18-1-2.6-4.16a155.6,155.6,0,0,1,2.6-23.78s2.18-8.77,3.87-12l-2.18-.63s-3.15,9.54-3.88,10.68l.73-1.14s-4.36-6.71-4.12-10.56C519.09,212.17,517.55,211.21,515.29,212.76Z"/><path class="cls-18" d="M554.58,198.31a18.17,18.17,0,0,0,.21-3.59A18.47,18.47,0,1,0,530.08,168a16.94,16.94,0,0,0-6.32-2.77,17.27,17.27,0,0,0-6.36-.12A14.47,14.47,0,0,0,495,174.05a14.33,14.33,0,0,0-.25,4.41,16.14,16.14,0,0,0,2.44,29.74,19,19,0,0,0,1.06,1.92,16.44,16.44,0,0,0,22.74,4.8,16.14,16.14,0,0,0,2.66-2.17,17.23,17.23,0,1,0,30.9-14.44Z"/><circle class="cls-19" cx="520.63" cy="187.08" r="2.51"/><circle class="cls-19" cx="542.55" cy="184.86" r="2.23"/><circle class="cls-19" cx="518.17" cy="174.17" r="2.46"/><circle class="cls-19" cx="502.87" cy="198.4" r="2.1"/><circle class="cls-19" cx="540.32" cy="205.5" r="2.15"/><path class="cls-17" d="M296.36,88.88s1.26,14.86,0,17.23S294.21,119,294.21,119s-1.49,6.53-8.11,7.55l4.59.19,6.23-2.51,2.57,1.43v1.64s2.41,1.65,3.41.82a25.47,25.47,0,0,1-1.6-3.1c-.6-1.47-.71-.79-.71-.79s4.11.21,5.31-.7l-1.8-.83L302,119.29a129.71,129.71,0,0,1,2.15-19.63s1.8-7.24,3.2-9.9l-1.8-.52s-2.6,7.87-3.2,8.81l.6-.94s-3.61-5.53-3.41-8.71C299.49,88.4,298.22,87.61,296.36,88.88Z"/><path class="cls-18" d="M328.79,77a14.8,14.8,0,0,0,.17-3,15.24,15.24,0,1,0-20.39-22.06,14.13,14.13,0,0,0-5.22-2.28,13.88,13.88,0,0,0-5.25-.1,12,12,0,0,0-18.67,11,13.32,13.32,0,0,0,2,24.54,13,13,0,0,0,.88,1.59,13.54,13.54,0,0,0,21,2.17A14.22,14.22,0,1,0,328.79,77Z"/><circle class="cls-19" cx="300.76" cy="67.69" r="2.08"/><circle class="cls-19" cx="318.86" cy="65.85" r="1.84"/><circle class="cls-19" cx="298.73" cy="57.03" r="2.03"/><circle class="cls-19" cx="286.1" cy="77.03" r="1.74"/><circle class="cls-19" cx="317.02" cy="82.89" r="1.77"/><path class="cls-17" d="M490.37,234.52s-1.62,19.06,0,22.1,2.76,16.57,2.76,16.57,1.91,8.38,10.39,9.68l-5.88.25-8-3.23-3.31,1.85v2.09s-3.07,2.12-4.36,1.06a32.06,32.06,0,0,0,2.06-4c.77-1.88.9-1,.9-1s-5.27.28-6.81-.89l2.31-1.07,2.75-4.41a164.86,164.86,0,0,0-2.75-25.17s-2.31-9.29-4.1-12.71l2.31-.66s3.33,10.1,4.1,11.3l-.77-1.2s4.62-7.11,4.36-11.18C486.34,233.9,488,232.88,490.37,234.52Z"/><path class="cls-18" d="M448.77,219.22a18.78,18.78,0,0,1-.22-3.8,19.55,19.55,0,1,1,26.15-28.29,18,18,0,0,1,13.44-3.06,15.32,15.32,0,0,1,23.68,9.46,15.1,15.1,0,0,1,.26,4.67,17.09,17.09,0,0,1-2.58,31.49,17.38,17.38,0,0,1-28,4.82,18.24,18.24,0,1,1-32.71-15.29Z"/><circle class="cls-19" cx="484.72" cy="207.33" r="2.66"/><circle class="cls-19" cx="461.51" cy="204.97" r="2.36"/><circle class="cls-19" cx="487.32" cy="193.66" r="2.61"/><circle class="cls-19" cx="503.52" cy="219.31" r="2.23"/><circle class="cls-19" cx="463.87" cy="226.83" r="2.27"/><path class="cls-20" d="M325.06,232.84c1.6,0,1.57,2,3.17,2s1.62-2,3.22-2,1.57,2,3.16,2,1.62-2,3.22-2,1.57,2,3.17,2,1.62-2,3.22-2,1.57,2,3.16,2,1.63-2,3.22-2,1.58,2,3.18,2,1.62-2,3.22-2,1.57,2,3.16,2,1.63-2,3.23-2,1.57,2,3.17,2,1.62-2,3.22-2,1.58,2,3.18,2,1.62-2,3.22-2"/><path class="cls-20" d="M126,274.81c2.07,0,2,2,4.1,2.05s2.1-2,4.16-1.95,2,2,4.1,2,2.09-2,4.15-1.95,2,2,4.11,2.06,2.09-2,4.15-1.95,2,2,4.1,2.05,2.1-2,4.16-1.95,2,2,4.11,2,2.09-2,4.15-1.94,2.05,2,4.11,2.05,2.09-2,4.16-1.95,2,2,4.1,2.05,2.1-2,4.17-2,2,2,4.11,2.06,2.09-2,4.16-1.95"/><path class="cls-20" d="M149.76,205.94c2.07,0,2,2,4.11,2.05s2.09-2,4.15-2,2,2,4.1,2.05,2.09-2,4.16-2,2,2,4.1,2.06,2.09-2,4.15-1.95,2,2,4.11,2.05c1.26,0,1.76-.73,2.44-1.3"/><path class="cls-20" d="M171.35,268.1c2.06,0,2,2,4.1,2.06s2.09-2,4.16-2,2,2,4.1,2.05,2.09-2,4.15-1.95,2,2,4.1,2.05,2.09-2,4.16-1.94,2,2,4.1,2.05c1.27,0,1.77-.73,2.44-1.31"/><path class="cls-20" d="M364.17,260.93c2.07,0,2,2,4.11,2.05s2.09-2,4.15-2,2,2,4.1,2.05,2.09-2,4.15-1.94,2,2,4.11,2.05,2.09-2,4.15-1.95,2,2,4.11,2.05c1.26,0,1.76-.73,2.43-1.3"/><path class="cls-20" d="M92.27,253c2.06,0,2,2,4.1,2.05s2.09-2,4.16-1.94,2,2,4.1,2,2.09-2,4.15-1.95,2,2,4.1,2.05,2.09-2,4.16-2,2,2,4.1,2.06c1.27,0,1.77-.73,2.44-1.31"/><path class="cls-20" d="M149.76,211.69c2.07,0,2,2,4.11,2.05s2.09-2,4.15-2,2,2,4.1,2.06,2.09-2,4.16-1.95,2,2,4.1,2,2.09-2,4.15-1.95,2,2,4.11,2.05c1.26,0,1.76-.73,2.44-1.3"/><path class="cls-20" d="M305.85,240.83c1.6,0,1.57,2,3.17,2s1.62-2,3.22-2,1.57,2,3.16,2,1.62-2,3.22-2,1.57,2,3.17,2,1.62-2,3.22-2,1.57,2,3.17,2,1.62-2,3.22-2,1.57,2,3.17,2,1.62-2,3.22-2,1.57,2,3.17,2,1.62-2,3.22-2,1.57,2,3.17,2,1.62-2,3.22-2,1.58,2,3.18,2,1.62-2,3.23-2"/><path class="cls-21" d="M127.89,235.75l12.37-2.18c-1.72-2.76-6.6-4.74-12.37-4.74-7.19,0-13,3.1-13,6.92s5.84,6.92,13,6.92c6.17,0,11.32-2.27,12.68-5.33Z"/><path class="cls-21" d="M147.42,246.37l7.25-1.28c-1-1.61-3.87-2.78-7.25-2.78-4.22,0-7.65,1.82-7.65,4.06s3.43,4.06,7.65,4.06c3.61,0,5.52-1,7-2.49Z"/><path class="cls-21" d="M289,222.72l7.25-1.28c-1-1.62-3.87-2.79-7.25-2.79-4.22,0-7.64,1.82-7.64,4.07s3.42,4.06,7.64,4.06c3.62,0,5.52-1,7-2.5Z"/><g id="rowaboat"><path class="cls-7" d="M165.63,237.76l3.87,14.29S192.2,282.5,233,297l25.71,6.79,16.5-4.65-3.44-9s-18.08-19.2-26.36-25S197.53,234.11,165.63,237.76Z"/><path class="cls-22" d="M271.8,290.1c-40.83-48.74-92.62-52.52-92.62-52.52l-13.55.18,3.87,14.29s30.85,42,89.24,51.73l16.5-4.65Z"/><path class="cls-22" d="M275.24,299.13c-74-17.56-109.61-61.37-109.61-61.37"/><path class="cls-22" d="M259.27,289.69q3.11,3.31,6,7"/><path class="cls-22" d="M199.74,253.71c16,5.14,37.09,14.51,54.68,31.12"/><path class="cls-22" d="M175.59,247.94A125.12,125.12,0,0,1,190.37,251"/><line class="cls-22" x1="246.11" y1="290.53" x2="257.08" y2="282.44"/><line class="cls-22" x1="251.59" y1="292.05" x2="261.41" y2="284.87"/><line class="cls-22" x1="256.74" y1="282.25" x2="261.79" y2="285.08"/><line class="cls-22" x1="261.52" y1="285.04" x2="261.38" y2="287.93"/><line class="cls-22" x1="261.66" y1="287.65" x2="254.51" y2="293.25"/><line class="cls-22" x1="184.32" y1="254.83" x2="196.94" y2="247.27"/><line class="cls-22" x1="188.08" y1="257.79" x2="201.02" y2="250.1"/><line class="cls-22" x1="196.63" y1="247.05" x2="201.38" y2="250.35"/><line class="cls-22" x1="201.12" y1="250.29" x2="200.7" y2="253.16"/><line class="cls-22" x1="201.01" y1="252.9" x2="190.34" y2="259.71"/><path class="cls-23" d="M237.38,249.7s12.36,18.72,11,30.17c0,0-18.79,1.26-24.88-2.32,0,0,1.32-22.15,4.19-26.14C227.69,251.41,235.28,251.37,237.38,249.7Z"/><polygon class="cls-24" points="237.07 250.18 230.13 254.34 228.99 252.22 237.07 250.18"/><path class="cls-23" d="M232.4,256.42s-9.15,9.11-13.11,9.55c0,0,14.94-2.44,18.36-10.08"/><line class="cls-25" x1="228.47" y1="267.58" x2="228.27" y2="277.83"/><path class="cls-13" d="M229.13,241.16c-4.32-1.42-5.74-8.16,6.46-4.92,0,0,2.18-.53,2.19-.49.26,1.1,2.56,18.86,7.39,15.15,0,0-5,4.74-7.62,2.64L236,251.89l-6.82-10.63S229.16,241.17,229.13,241.16Z"/><path class="cls-11" d="M235.63,239.74a.13.13,0,0,0-.08-.15c-.78-.31-6.11-3-7.94,1.35-1.72,4.05-1.78,4.23-1.67,4.33l.05,0,2,.83a.13.13,0,0,1,.08.13l-.43,5.21s7.68.34,8.8-1.29c1-1.48-.17-6.17-.54-7.17a.13.13,0,0,1,.08-.17c.4-.12,1.54-.53,1.55-1.36,0-1-1.24-1.26-2.36-.27S235.5,240.35,235.63,239.74Z"/><circle class="cls-12" cx="230.02" cy="242.67" r="0.21" transform="translate(-14.67 470.55) rotate(-89.5)"/><path class="cls-26" d="M223.5,277.55l0,3.57,22.64,9.41,2.27-10.66S235.64,282.21,223.5,277.55Z"/><path class="cls-11" d="M197.19,235.32s4.54-2.21,6.15,1.82,1.08,4.14,1.08,4.14l-1.72.77.3,6.07s-6.86.1-7.76-1.3,1.23-7.59,1.23-7.59-1.34-.33-1.35-1.2,1-1.1,1.88-.25S197.19,235.32,197.19,235.32Z"/><ellipse class="cls-12" cx="201.31" cy="237.5" rx="0.17" ry="0.18" transform="translate(-3.48 2.99) rotate(-0.84)"/><path class="cls-13" d="M202.38,235.42s-1-3.88-2.12-4.24l-.57.75s-3.35-.57-4,.37a9.58,9.58,0,0,1-1.63,1.76s.54,2.42,0,2.61,3,1.56,3,1.56l-.27-2.73,1.77-.89,2.32.06Z"/><path class="cls-11" d="M195.23,246.37s-7.64,2.65-6.48,12.41c0,0,11.63,9.29,17.75,12.27,0,0-1.19-19.88-3.51-23.26C203,247.79,196.92,247.79,195.23,246.37Z"/><path class="cls-11" d="M202.38,251.61s4.37,10,7.22,11.51c0,0-10.55-6.37-11-13.49"/><path id="paddlespin" class="cls-27" d="M207.11,286.42l-2.21-2.13,33.57-34.87a1.13,1.13,0,1,0-1.63-1.57l-33.57,34.87-2.21-2.13a1.61,1.61,0,0,0-2.26,0l-7.57,7.87a1.58,1.58,0,0,0,.05,2.25l6.05,5.83a1.61,1.61,0,0,0,2.26,0l7.57-7.86A1.62,1.62,0,0,0,207.11,286.42Z"/><line class="cls-28" x1="195.68" y1="291.21" x2="202" y2="284.83"/></g><g id="sign"><path class="cls-9" d="M252.59,175.76,252.07,187h-1.15l-.52-11.21Zm-.07,15.94h-2.05v-2.62h2.05Z"/></g><g id="sign-2" data-name="sign"><path class="cls-9" d="M189.16,262.39l-.53,11.22h-1.14L187,262.39Zm-.07,15.94H187v-2.62h2.06Z"/></g></g><g id="island_2"><polyline class="cls-2" points="315.33 504.82 445.57 431.2 445.49 398.39 315.33 473.46"/><polygon class="cls-29" points="215.58 416.72 215.58 447.28 315.33 504.82 315.33 473.46 215.58 416.72"/><polygon class="cls-3" points="486.71 389.5 362.45 317.77 316.15 344.48 302.04 336.54 302.04 336.54 266.35 315.93 199.26 356.32 199.26 356.32 165 376.1 336.3 475 486.71 389.5"/><polygon class="cls-2" points="336.22 488.91 336.3 475 486.71 389.67 486.71 401.38 336.22 488.91"/><polygon class="cls-2" points="165 376.1 165 389.08 336.22 488.91 336.3 475 165 376.1"/><path class="cls-30" d="M238,389.79l12.41-7.17s36.89,37.8,102.19,26.09c0,0,39.69-10.42,52.29-26.65s10.62-21,12.32-26.35l10.13,5.56-1.92,26.12L370.57,429l-67.94,3.53-52.51-25.07-13.05-9.32Z"/><path class="cls-31" d="M237.39,389.79l.13,16.32s56.08,48,115.64,31.71,70.48-40.16,74.2-46v-29s-.25,23.34-26.72,41.33-73.9,36.41-131.91,7.24C268.73,411.39,244.26,398.8,237.39,389.79Z"/><path class="cls-10" d="M427.36,361.27s1.18,43.22-68.63,61.31-121.34-32.79-121.34-32.79"/><path class="cls-10" d="M417.1,355.26c-.92,8.95-8,39.41-62,52.86-50,12.47-90.11-13.89-105-25.75"/><path class="cls-10" d="M427.65,391.32c-8,14.54-26,33.31-66.41,44.53-64.65,17.94-113.31-20.57-123.72-29.74"/><line class="cls-10" x1="237.39" y1="389.79" x2="237.39" y2="406.42"/><line class="cls-10" x1="427.36" y1="361.27" x2="427.36" y2="391.83"/><line class="cls-10" x1="238.02" y1="389.79" x2="250.43" y2="382.62"/><line class="cls-22" x1="427.36" y1="361.27" x2="417.23" y2="355.71"/><path class="cls-11" d="M397.1,287.36s5.42-2.54,7.26,2.26,1.2,4.92,1.2,4.92l-2,.88.24,7.2s-8.12,0-9.17-1.68,1.59-9,1.59-9-1.58-.41-1.57-1.44,1.18-1.29,2.23-.26S397.1,287.36,397.1,287.36Z"/><ellipse class="cls-12" cx="401.95" cy="290.01" rx="0.2" ry="0.21"/><path class="cls-13" d="M403.25,287.56s-1.16-4.61-2.43-5.06l-.7.89s-4-.74-4.71.36a10.73,10.73,0,0,1-2,2.06s.6,2.87,0,3.09,3.51,1.91,3.51,1.91l-.27-3.25,2.11-1,2.75.12Z"/><path class="cls-11" d="M394.59,300.41s-11.87,18.79-10.67,30.38c0,0,17.79,1.43,23.59-2.13,0,0-1.07-22.38-3.75-26.43C403.76,302.23,396.56,302.12,394.59,300.41Z"/><path class="cls-14" d="M383.83,331.13s9.05,15.74,14.68,27.68l4.71.84S406.92,338,407,328.9"/><path class="cls-5" d="M398.51,358.81v3.51s5.76,2.07,9,0l-4.29-2.67Z"/><rect class="cls-15" x="394.07" y="288.01" width="3.19" height="1.4" rx="0.67" ry="0.67"/><path class="cls-11" d="M403,306.74s5,11.91,8.34,13.76c0,0-12.37-7.73-12.8-16.16"/><path class="cls-32" d="M401,371.62s-5.33,13.92-2.37,15.28,11,1,10.62-4.93a38.47,38.47,0,0,0-2.69-11.26Z"/><ellipse class="cls-33" cx="403.5" cy="367.98" rx="5.2" ry="5.56"/><ellipse class="cls-12" cx="401.88" cy="365.7" rx="0.2" ry="0.22"/><path class="cls-12" d="M408.7,384.65s-5,7.69-6.47,11.6h-1.37l-3.06-9.84S404.76,387,408.7,384.65Z"/><path class="cls-12" d="M402.43,396.25v2.06h-3.71s-2-1.14,0-2.06,2.28,0,2.28,0Z"/><path class="cls-32" d="M401.67,375.23s-6-5.15-6.5-6.68,2.46,8.59,5.82,8.58"/><polygon class="cls-14" points="402.08 362.43 403.5 360.3 409.74 362.43 412.22 367.98 411.08 370.99 406.51 370.86 406.51 367.98 404.08 364.87 402.08 362.43"/><path class="cls-32" d="M353.75,324.39s-5.34,13.92-2.37,15.28,11,.94,10.61-4.93a38,38,0,0,0-2.69-11.26Z"/><ellipse class="cls-33" cx="356.24" cy="320.75" rx="5.2" ry="5.56"/><ellipse class="cls-12" cx="354.62" cy="318.46" rx="0.2" ry="0.22"/><path class="cls-12" d="M361.44,337.42s-5,7.68-6.47,11.6h-1.36l-3.07-9.85S357.51,339.78,361.44,337.42Z"/><path class="cls-12" d="M355.17,349v2.06h-3.71s-2-1.14,0-2.06,2.29,0,2.29,0Z"/><path class="cls-32" d="M354.42,328s-6-5.15-6.5-6.68,2.45,8.58,5.82,8.57"/><polygon class="cls-14" points="354.83 315.19 356.24 313.06 362.48 315.19 364.97 320.75 363.83 323.76 359.25 323.63 359.25 320.75 356.83 317.64 354.83 315.19"/><path class="cls-32" d="M328.74,372.35s-5.34,13.92-2.38,15.29,11,.94,10.62-4.94a38.11,38.11,0,0,0-2.69-11.26Z"/><ellipse class="cls-33" cx="331.23" cy="368.72" rx="5.2" ry="5.56"/><ellipse class="cls-12" cx="329.61" cy="366.43" rx="0.2" ry="0.22"/><path class="cls-12" d="M336.43,385.38s-5,7.69-6.47,11.6h-1.37l-3.06-9.84S332.5,387.74,336.43,385.38Z"/><path class="cls-12" d="M330.16,397v2.07h-3.71s-2-1.15,0-2.07,2.29,0,2.29,0Z"/><path class="cls-32" d="M329.41,376s-6-5.15-6.51-6.68,2.46,8.58,5.82,8.57"/><polygon class="cls-14" points="329.81 363.16 331.23 361.03 337.47 363.16 339.96 368.72 338.81 371.73 334.24 371.59 334.24 368.72 331.82 365.61 329.81 363.16"/><path class="cls-12" d="M391.49,364.11s5.33,13.92,2.37,15.28-11,.95-10.62-4.93a38.36,38.36,0,0,1,2.69-11.26Z"/><ellipse class="cls-33" cx="388.99" cy="360.47" rx="5.2" ry="5.56"/><ellipse class="cls-12" cx="390.61" cy="358.18" rx="0.2" ry="0.22"/><path class="cls-12" d="M383.79,377.14s5,7.68,6.47,11.6h1.37l3.06-9.84S387.73,379.5,383.79,377.14Z"/><path class="cls-12" d="M390.06,388.74v2.06h3.71s2-1.14,0-2.06-2.28,0-2.28,0Z"/><path class="cls-12" d="M391.57,367.2s6.31,4.76,7.91,4.92-8.91-.55-9.62-3.84"/><polygon class="cls-14" points="390.41 354.92 388.99 352.79 382.76 354.92 380.27 360.47 381.41 363.48 385.99 363.35 385.99 360.47 388.41 357.36 390.41 354.92"/><path class="cls-12" d="M351.67,346s5.34,13.92,2.38,15.28-11,.94-10.62-4.93a38,38,0,0,1,2.69-11.26Z"/><ellipse class="cls-33" cx="349.18" cy="342.33" rx="5.2" ry="5.56"/><path class="cls-12" d="M344,359s5,7.68,6.47,11.6h1.36l3.07-9.85S347.91,361.36,344,359Z"/><path class="cls-12" d="M350.25,370.6v2.06H354s2-1.14,0-2.06-2.29,0-2.29,0Z"/><polygon class="cls-14" points="352.55 335.69 350.14 333.65 343.45 338.33 342.4 345.79 344.8 348.98 350.19 347.24 349.2 343.82 351.01 339.29 352.55 335.69"/><path class="cls-12" d="M211.12,342.61s5.34,13.91,2.38,15.28-11,.94-10.62-4.93a38.36,38.36,0,0,1,2.69-11.26Z"/><ellipse class="cls-33" cx="208.63" cy="338.97" rx="5.2" ry="5.56"/><ellipse class="cls-12" cx="210.25" cy="336.68" rx="0.2" ry="0.22"/><path class="cls-12" d="M203.43,355.64s5,7.68,6.47,11.6h1.37l3.06-9.85S207.37,358,203.43,355.64Z"/><path class="cls-12" d="M209.7,367.24v2.06h3.71s2-1.14,0-2.06-2.28,0-2.28,0Z"/><path class="cls-12" d="M211.2,345.7s6.32,4.76,7.92,4.92-8.91-.56-9.62-3.84"/><polygon class="cls-14" points="210.05 333.42 208.63 331.28 202.39 333.42 199.91 338.97 201.05 341.98 205.62 341.85 205.62 338.97 208.04 335.86 210.05 333.42"/><path class="cls-12" d="M274.7,343s-5.34,13.92-2.37,15.28,11,.94,10.61-4.93a38,38,0,0,0-2.69-11.26Z"/><ellipse class="cls-33" cx="277.19" cy="339.32" rx="5.2" ry="5.56"/><ellipse class="cls-12" cx="275.57" cy="337.03" rx="0.2" ry="0.22"/><path class="cls-12" d="M282.39,356s-5,7.68-6.47,11.6h-1.36l-3.07-9.85S278.46,358.35,282.39,356Z"/><path class="cls-12" d="M276.12,367.59v2.06h-3.71s-2-1.14,0-2.06,2.29,0,2.29,0Z"/><path class="cls-12" d="M275.2,347.51s-6.88-3.88-7.68-5.29,4.08,7.95,7.38,7.28"/><polygon class="cls-14" points="275.78 333.77 277.19 331.63 283.43 333.77 285.92 339.32 284.77 342.33 280.2 342.2 280.2 339.32 277.78 336.21 275.78 333.77"/><g id="bubblegirl"><path class="cls-12" d="M275,404.72s1.47,2.7,5.11,1.11c0,0,3.26,1.53,4.66-.31a4.78,4.78,0,0,0,.54-4.19L275,402A3.6,3.6,0,0,0,275,404.72Z"/><path class="cls-32" d="M277.6,388.3s-5.33,13.92-2.37,15.29,11,.94,10.62-4.94a38.47,38.47,0,0,0-2.69-11.26Z"/><ellipse class="cls-33" cx="280.1" cy="384.67" rx="5.2" ry="5.56"/><ellipse class="cls-12" cx="278.48" cy="382.38" rx="0.2" ry="0.22"/><path class="cls-32" d="M278.27,391.91s-6-5.14-6.5-6.67,2.45,8.58,5.82,8.57"/><polygon class="cls-14" points="278.68 379.11 280.1 376.98 286.33 379.11 288.82 384.67 287.68 387.68 283.1 387.54 283.1 384.67 280.68 381.56 278.68 379.11"/><rect class="cls-12" x="263.74" y="390.22" width="6.12" height="11.11" rx="3.06" ry="3.06"/><rect class="cls-12" x="265.82" y="388.82" width="2.37" height="1.57"/><line class="cls-10" x1="271.2" y1="387.06" x2="272.22" y2="382.27"/><ellipse class="cls-10" cx="272.49" cy="379.52" rx="1.84" ry="2.54"/></g><path class="cls-34" d="M291.41,409.06s2.85,5.27,9.95,2.18c0,0,6.38,3,9.11-.6s1-8.17,1-8.17l-20.1,1.3S290.35,405.61,291.41,409.06Z"/><path class="cls-35" d="M302.52,377.8s11.42,18.16,10.27,29.36c0,0-17.12,1.38-22.7-2.06,0,0,1-21.63,3.61-25.54C293.7,379.56,300.62,379.46,302.52,377.8Z"/><polygon class="cls-11" points="302.24 378.28 295.95 381.41 294.89 379.85 302.24 378.28"/><path class="cls-35" d="M293.64,385.36s-8.28,9-11.88,9.43c0,0,13.6-2.51,16.66-10"/><path class="cls-13" d="M294.93,369.55c-3.95-1.36-5.3-7.92,5.85-4.86,0,0,2-.54,2-.5.25,1.07,2.49,18.38,6.86,14.72,0,0-4.51,4.67-6.92,2.64L301.24,380l-6.3-10.32S295,369.56,294.93,369.55Z"/><path class="cls-11" d="M300.84,368.1a.13.13,0,0,0-.07-.14c-.71-.3-5.59-2.83-7.22,1.38-1.54,4-1.59,4.15-1.49,4.24l0,0,1.88.79a.17.17,0,0,1,.07.13l-.35,5.09s7,.26,8-1.33-.2-6-.55-7a.13.13,0,0,1,.08-.17c.36-.12,1.4-.53,1.39-1.33,0-1-1.14-1.23-2.15-.25S300.73,368.69,300.84,368.1Z"/><ellipse class="cls-12" cx="295.76" cy="371.01" rx="0.19" ry="0.2"/><g id="bubble4"><circle class="cls-33" cx="231.77" cy="335.67" r="7.18"/><path class="cls-18" d="M229.94,331.64s5.36-1.3,6.36,5"/><circle cx="227.88" cy="332.64" r="0.57"/></g><g id="bubble3"><circle class="cls-33" cx="246.67" cy="347.35" r="7.72"/><path class="cls-18" d="M249.41,352.43s-4.7,2.87-7.57-2.82"/><circle cx="250.92" cy="351.33" r="0.57"/></g><g id="bubble2"><circle class="cls-33" cx="256.72" cy="360.55" r="4.84"/><path class="cls-18" d="M259.23,360.05s.69,3.52-3.44,4"/><circle cx="258.9" cy="358.88" r="0.37"/></g><g id="bubble1"><circle class="cls-33" cx="264.92" cy="372.97" r="3.35"/><path class="cls-18" d="M266.72,372.63a1.81,1.81,0,0,1-1.84,2.13"/><circle cx="265.89" cy="371.29" r="0.27"/></g><g id="sign-3" data-name="sign"><path class="cls-9" d="M324.48,332.54,324,343.76h-1.15l-.52-11.22Zm-.07,15.94h-2.05v-2.62h2.05Z"/></g></g></g></g></svg>