<svg xmlns="http://www.w3.org/2000/svg" xmlns:xlink="http://www.w3.org/1999/xlink" viewBox="0 0 841.89 693.88"><defs><style>.cls-1,.cls-13,.cls-14,.cls-15,.cls-35,.cls-38,.cls-5,.cls-9{fill:none;}.cls-2{isolation:isolate;}.cls-3,.cls-34,.cls-37,.cls-4{fill:#c92028;}.cls-10,.cls-11,.cls-12,.cls-14,.cls-33,.cls-34,.cls-35,.cls-36,.cls-38,.cls-39,.cls-4,.cls-5,.cls-6,.cls-7,.cls-8,.cls-9{stroke:#1a1a1a;}.cls-11,.cls-14,.cls-34,.cls-35,.cls-39,.cls-4,.cls-5,.cls-6,.cls-7,.cls-8,.cls-9{stroke-linejoin:round;}.cls-10,.cls-11,.cls-12,.cls-14,.cls-34,.cls-35,.cls-36,.cls-39,.cls-4,.cls-8{stroke-width:0.8px;}.cls-11,.cls-12,.cls-33,.cls-39,.cls-6,.cls-7{fill:#fff;}.cls-11,.cls-34,.cls-35,.cls-7,.cls-8,.cls-9{stroke-linecap:round;}.cls-17,.cls-36,.cls-8{fill:#1a1a1a;}.cls-10{fill:#fff5f6;}.cls-10,.cls-12,.cls-13,.cls-15,.cls-33,.cls-36,.cls-38{stroke-miterlimit:10;}.cls-13{stroke:#e6e6e6;stroke-width:0.75px;}.cls-15{stroke:#000;}.cls-16{clip-path:url(#clip-path);}.cls-18{clip-path:url(#clip-path-2);}.cls-19{clip-path:url(#clip-path-3);}.cls-20{clip-path:url(#clip-path-4);}.cls-21{clip-path:url(#clip-path-5);}.cls-22{clip-path:url(#clip-path-6);}.cls-23{clip-path:url(#clip-path-7);}.cls-24{clip-path:url(#clip-path-8);}.cls-25{clip-path:url(#clip-path-9);}.cls-26{clip-path:url(#clip-path-10);}.cls-27{clip-path:url(#clip-path-11);}.cls-28{clip-path:url(#clip-path-12);}.cls-29{clip-path:url(#clip-path-13);}.cls-30{clip-path:url(#clip-path-14);}.cls-31{clip-path:url(#clip-path-15);}.cls-32{clip-path:url(#clip-path-16);}.cls-37{mix-blend-mode:multiply;}</style><clipPath id="clip-path"><polygon class="cls-1" points="522.03 317.15 521.94 282.84 534.87 275.37 534.97 309.68 522.03 317.15"/></clipPath><clipPath id="clip-path-2"><polygon class="cls-1" points="332.92 113.45 332.95 104.34 347.97 113.02 347.94 122.13 332.92 113.45"/></clipPath><clipPath id="clip-path-3"><polygon class="cls-1" points="434.2 190.83 434.23 181.71 449.25 190.39 449.22 199.5 434.2 190.83"/></clipPath><clipPath id="clip-path-4"><polygon class="cls-1" points="436.48 230.65 436.5 221.54 451.52 230.21 451.5 239.32 436.48 230.65"/></clipPath><clipPath id="clip-path-5"><polygon class="cls-1" points="446.71 224.96 446.74 215.85 461.76 224.53 461.73 233.64 446.71 224.96"/></clipPath><clipPath id="clip-path-6"><polygon class="cls-1" points="438.26 279.58 438.29 271.23 452.01 279.15 451.98 287.5 438.26 279.58"/></clipPath><clipPath id="clip-path-7"><polygon class="cls-1" points="432.35 288.01 432.37 279.66 446.09 287.58 446.07 295.93 432.35 288.01"/></clipPath><clipPath id="clip-path-8"><polygon class="cls-1" points="545.71 246.59 545.74 237.47 560.76 246.14 560.73 255.26 545.71 246.59"/></clipPath><clipPath id="clip-path-9"><polygon class="cls-1" points="551.4 261.38 551.42 252.26 566.45 260.94 566.42 270.05 551.4 261.38"/></clipPath><clipPath id="clip-path-10"><polygon class="cls-1" points="568.46 271.62 568.49 262.51 583.51 271.18 583.48 280.29 568.46 271.62"/></clipPath><clipPath id="clip-path-11"><polygon class="cls-1" points="591.22 262.52 591.25 253.41 606.27 262.08 606.25 271.19 591.22 262.52"/></clipPath><clipPath id="clip-path-12"><polygon class="cls-1" points="540.67 339.89 540.7 331.54 554.42 339.46 554.39 347.81 540.67 339.89"/></clipPath><clipPath id="clip-path-13"><polygon class="cls-1" points="534.76 348.32 534.78 339.97 548.5 347.89 548.48 356.24 534.76 348.32"/></clipPath><clipPath id="clip-path-14"><polygon class="cls-1" points="574.16 286.42 574.18 277.3 589.21 285.98 589.18 295.09 574.16 286.42"/></clipPath><clipPath id="clip-path-15"><polygon class="cls-1" points="336.34 172.63 336.37 163.51 351.39 172.18 351.37 181.3 336.34 172.63"/></clipPath><clipPath id="clip-path-16"><polygon class="cls-1" points="331.79 157.83 331.81 148.72 346.84 157.39 346.81 166.51 331.79 157.83"/></clipPath></defs><title>大橋頭站</title><g class="cls-2"><g id="圖層_1" data-name="圖層 1"><g id="_Island_2_" data-name="&lt;Island 2&gt;"><g id="sign"><path class="cls-3" d="M475.26,499.69l-.53,11.44h-1.17L473,499.69Zm-.07,16.25H473.1v-2.67h2.09Z"/></g><g class="cls-2"><polygon class="cls-4" points="602.14 537.6 602.05 569.04 421.27 674.11 421.36 642.66 602.14 537.6"/><polygon class="cls-4" points="421.36 642.66 421.27 674.11 275.56 589.98 275.65 558.54 421.36 642.66"/><polygon class="cls-5" points="602.14 537.6 421.36 642.66 275.65 558.54 456.43 453.48 602.14 537.6"/></g><g class="cls-2"><polygon class="cls-4" points="498.6 541.55 520.27 511.12 520.25 518.54 498.58 548.97 498.6 541.55"/><polygon class="cls-4" points="490.18 539.52 511.86 509.09 520.27 511.12 498.6 541.55 490.18 539.52"/><polygon class="cls-4" points="498.6 541.55 498.58 548.97 490.16 546.94 490.18 539.52 498.6 541.55"/></g><g class="cls-2"><polygon class="cls-6" points="465.79 544.26 566.62 534.07 566.59 546.13 465.76 556.32 465.79 544.26"/><polygon class="cls-6" points="463.2 535.82 564.03 525.63 566.62 534.07 465.79 544.26 463.2 535.82"/><polygon class="cls-6" points="465.79 544.26 465.76 556.32 463.17 547.88 463.2 535.82 465.79 544.26"/></g><g class="cls-2"><polygon class="cls-6" points="317.37 556.1 389.55 514.16 389.51 526.21 317.34 568.16 317.37 556.1"/><polygon class="cls-6" points="306.88 550.05 379.06 508.1 389.55 514.16 317.37 556.1 306.88 550.05"/><polygon class="cls-6" points="317.37 556.1 317.34 568.16 306.85 562.1 306.88 550.05 317.37 556.1"/></g><g class="cls-2"><polygon class="cls-4" points="344.68 572.03 416.86 530.09 416.82 542.14 344.64 584.09 344.68 572.03"/><polygon class="cls-4" points="334.19 565.98 406.37 524.03 416.86 530.09 344.68 572.03 334.19 565.98"/><polygon class="cls-4" points="344.68 572.03 344.64 584.09 334.15 578.03 334.19 565.98 344.68 572.03"/></g><g class="cls-2"><polygon class="cls-6" points="369.71 576.59 441.89 534.64 441.86 546.7 369.68 588.64 369.71 576.59"/><polygon class="cls-6" points="359.22 570.53 431.4 528.59 441.89 534.64 369.71 576.59 359.22 570.53"/><polygon class="cls-6" points="369.71 576.59 369.68 588.64 359.19 582.58 359.22 570.53 369.71 576.59"/></g><path class="cls-4" d="M459.12,485.14v21.94s3,2,5,0V487.14Z"/><path class="cls-4" d="M493,468.19v21.94s3,2,5,0V470.18Z"/><path class="cls-4" d="M426.2,469.19v21.94s3,2,5,0V471.18Z"/><g class="cls-2"><polygon class="cls-7" points="500.1 462.44 500.08 468.94 461.18 491.55 461.2 485.05 500.1 462.44"/><polygon class="cls-7" points="461.2 485.05 461.18 491.55 422.62 469.29 422.64 462.79 461.2 485.05"/><polygon class="cls-7" points="500.1 462.44 461.2 485.05 422.64 462.79 461.54 440.18 500.1 462.44"/></g><g class="cls-2"><polygon class="cls-6" points="496.31 511.25 491.88 511.53 480.27 460.81 484.7 460.54 496.31 511.25"/><polygon class="cls-6" points="484.7 460.54 480.27 460.81 499.03 450.55 503.47 450.27 484.7 460.54"/><polygon class="cls-6" points="503.47 450.27 515.07 500.99 496.31 511.25 484.7 460.54 503.47 450.27"/></g><path class="cls-4" d="M483.6,556.34v14.79s2.28,1.14,3.41,0V557.47Z"/><path class="cls-4" d="M509.77,555.2V570s2.28,1.14,3.42,0V556.34Z"/><path class="cls-4" d="M498.39,562v14.79s2.28,1.14,3.42,0V563.16Z"/><path class="cls-6" d="M482.46,554.06s-.85,4.55,0,5.69c3.42,4.55,20.48,11.38,33,0v-5.69l-18.2-4.55Z"/><ellipse class="cls-6" cx="498.96" cy="554.06" rx="16.5" ry="9.1"/><g id="_trigger_wooden_furniture_" data-name="&lt;trigger_wooden_furniture&gt;"><g class="cls-2"><polygon class="cls-4" points="321.28 537.43 422.11 527.24 422.08 539.3 321.25 549.49 321.28 537.43"/><polygon class="cls-4" points="318.69 528.99 419.52 518.8 422.11 527.24 321.28 537.43 318.69 528.99"/><polygon class="cls-4" points="321.28 537.43 321.25 549.49 318.66 541.06 318.69 528.99 321.28 537.43"/></g><g class="cls-2"><polygon class="cls-6" points="362.49 560.06 448.83 527.59 448.81 539.51 362.47 571.99 362.49 560.06"/><polygon class="cls-6" points="354.54 552.67 440.88 520.2 448.83 527.59 362.49 560.06 354.54 552.67"/><polygon class="cls-6" points="362.49 560.06 362.47 571.99 354.51 564.6 354.54 552.67 362.49 560.06"/></g><g class="cls-2"><polygon class="cls-4" points="403.02 544.96 424.69 514.53 424.67 521.95 403 552.38 403.02 544.96"/><polygon class="cls-4" points="394.6 542.94 416.28 512.51 424.69 514.53 403.02 544.96 394.6 542.94"/><polygon class="cls-4" points="403.02 544.96 403 552.38 394.58 550.36 394.6 542.94 403.02 544.96"/></g><g class="cls-2"><polygon class="cls-6" points="477.39 593.91 449.27 543.72 449.29 536.29 477.42 586.49 477.39 593.91"/><polygon class="cls-6" points="477.42 586.49 449.29 536.29 457.95 534.68 486.07 584.88 477.42 586.49"/><polygon class="cls-6" points="486.07 584.88 486.05 592.3 477.39 593.91 477.42 586.49 486.07 584.88"/></g><path class="cls-8" d="M423.44,554.52s9.24,16.91,15,29.73l4.81.9s3.79-23.21,3.9-33"/><path class="cls-9" d="M437.28,585.14v4.54s7.45,2.69,11.65,0l-5.56-3.45Z"/><g id="people_upper"><path class="cls-10" d="M445.44,507.73s6.15-3.69,2.19-7.41-6.15-1.78-4.9-.65-7-6.13-8-1.53c0,0-7.12-.24-6.63,4.53,0,0-6.31,5.75-1.94,8.5,0,0-1.6,5.78,2.85,4.67,0,0,1.29,3.27,3.43,1.32"/><path class="cls-11" d="M434.43,521.52s-15.69,11.88-10.91,32.62c0,0,18.19,1.55,24.11-2.28,0,0-1.09-24-3.84-28.39C443.79,523.47,436.44,523.36,434.43,521.52Z"/><path class="cls-11" d="M436,505s7-3.13,9.4,2.78,1.55,6.06,1.55,6.06l-2.64,1.08.3,8.86s-10.51,0-11.87-2.06,2.07-11,2.07-11-2.05-.51-2-1.78,1.53-1.58,2.89-.32S436,505,436,505Z"/><ellipse class="cls-12" cx="443.35" cy="509.1" rx="0.25" ry="0.27"/><polyline class="cls-11" points="432.31 525.11 442.73 527.5 443.86 524.56"/><g id="hand"><path class="cls-11" d="M442.28,529.94s7.92,13.87,10.51,16.45a196.22,196.22,0,0,1-16.89-14.93"/></g></g><rect id="hidden" class="cls-13" x="350.05" y="438" width="200.68" height="179.78"/></g></g><g id="_Island_1_" data-name="&lt;Island 1&gt;"><polygon class="cls-4" points="454.02 384.52 464.26 424.34 617.87 511.96 632.66 492.62 624.7 455.06 454.02 384.52"/><polygon class="cls-4" points="464.26 392.48 464.26 424.34 391.43 467.58 391.43 408.41 464.26 392.48"/><g id="_地板1_" data-name="&lt;地板1&gt;"><polygon class="cls-4" points="185.48 314.54 185.48 347.54 391.43 467.58 391.43 424.34 185.48 314.54"/><polygon class="cls-7" points="432.97 172.31 184.91 315.68 391.43 435.26 464.26 392.48 618.65 481.14 792.53 380.54 432.97 172.31"/><polygon class="cls-4" points="617.87 480.67 617.87 512.53 791.96 412.39 791.96 380.54 617.87 480.67"/></g><g id="_群組_" data-name="&lt;群組&gt;"><polygon class="cls-7" points="328.31 79.69 610.09 241.74 679.31 201.32 398.26 38.6 328.31 79.69"/><g class="cls-2"><polygon class="cls-5" points="587.9 366.79 587.81 396.97 558.24 414.16 558.32 383.97 587.9 366.79"/><polygon class="cls-5" points="558.32 383.97 558.24 414.16 527.44 395.94 527.52 365.75 558.32 383.97"/><polygon class="cls-4" points="587.9 366.79 558.32 383.97 527.52 365.75 557.1 348.57 587.9 366.79"/></g><path class="cls-4" d="M558.48,380.05l21.65-12.53s0-51.47,0-51.87c1.06-8.89,4.15-17.14,10.11-15.37.36.11-25.57-20.35-25.57-20.35l-18.57,57.8Z"/><g class="cls-2"><polygon class="cls-5" points="485.71 306.92 485.63 337.11 456.06 354.29 456.14 324.11 485.71 306.92"/><polygon class="cls-5" points="456.14 324.11 456.06 354.29 425.26 336.08 425.34 305.89 456.14 324.11"/><polygon class="cls-4" points="485.71 306.92 456.14 324.11 425.34 305.89 454.92 288.7 485.71 306.92"/></g><path class="cls-4" d="M456.3,320.18,478,307.65s-.05-51.46,0-51.87c1.06-8.88,4.15-16.1,10.11-14.33.36.11-25.57-21.38-25.57-21.38l-18.58,57.79Z"/><g class="cls-2"><polygon class="cls-5" points="383.96 248.21 383.88 278.62 354.09 295.93 354.18 265.52 383.96 248.21"/><polygon class="cls-5" points="354.18 265.52 354.09 295.93 323.07 277.58 323.16 247.18 354.18 265.52"/><polygon class="cls-4" points="383.96 248.21 354.18 265.52 323.16 247.18 352.95 229.87 383.96 248.21"/></g><path class="cls-4" d="M354.12,261.35l21.65-12.53s0-51.46,0-51.87c1.05-8.88,4.15-15.07,10.1-13.3.37.11-25.56-22.42-25.56-22.42L341.73,219Z"/><path class="cls-7" d="M328.31,128.2V246.9l25.81,14.45v-51a27.08,27.08,0,0,1,40.69-23.42h0a71.73,71.73,0,0,1,35.69,62V304.7l25.8,15.48V267a25.8,25.8,0,0,1,38.76-22.3h0A75.61,75.61,0,0,1,532.68,310v54.54l25.8,15.49V323.64a24.41,24.41,0,0,1,36.33-21.3l15.28,8.55v-69L328.31,79.69Z"/><polygon class="cls-7" points="679.31 201.32 610.09 241.74 610.09 310.89 655.5 284.06 679.31 271.87 679.31 201.32"/><g class="cls-2"><polygon class="cls-3" points="373.77 158.57 373.84 135.02 422.07 162.86 422 186.42 373.77 158.57"/><polygon class="cls-14" points="373.77 158.57 373.84 135.02 422.07 162.86 422 186.42 373.77 158.57"/></g><line class="cls-15" x1="328.83" y1="93.63" x2="609.57" y2="256.71"/><g class="cls-2"><polygon class="cls-3" points="476.99 218.44 477.05 194.88 525.28 222.73 525.22 246.28 476.99 218.44"/><polygon class="cls-14" points="476.99 218.44 477.05 194.88 525.28 222.73 525.22 246.28 476.99 218.44"/></g><polyline class="cls-4" points="416.3 212.9 430.5 219.03 430.5 221.1 414.44 214.57"/><polygon class="cls-7" points="368.17 164.85 428.95 200.6 403.03 227.11 342.76 190.13 368.17 164.85"/><path class="cls-7" d="M403.66,226.26l-60.9-36.13v12.39s2.07,7.22,11.36,6.19c0,0,5.16,8.26,11.35,6.19,0,0,7.23,10.33,13.42,8.26,0,0,6.19,9.29,11.35,7.23,0,0,7.23,9.29,13.42,7.22Z"/><path class="cls-15" d="M554.51,270.11a2.44,2.44,0,0,0-3.33-.86l-8.82,5.16-3,7.13L553.46,274A2.93,2.93,0,0,0,554.51,270.11Z"/><path class="cls-15" d="M555.55,288.82a2.45,2.45,0,0,0-3.34-.85l-8.82,5.15-3,7.13,14.1-7.57A2.91,2.91,0,0,0,555.55,288.82Z"/><g class="cls-2"><polygon class="cls-7" points="512.35 334.12 504.76 329.71 504.6 271.93 512.19 276.34 512.35 334.12"/><polygon class="cls-7" points="512.19 276.34 504.6 271.93 535.79 253.93 543.38 258.33 512.19 276.34"/><polygon class="cls-4" points="543.38 258.33 543.54 316.11 512.35 334.12 512.19 276.34 543.38 258.33"/><polygon class="cls-6" points="515.78 278.41 539.81 264.54 539.95 314.04 515.92 327.91 515.78 278.41"/></g><g class="cls-2"><g class="cls-16"><path class="cls-17" d="M528.87,287.26l-1,.55v1.26l-4.34,2.51v.94l4.35-2.51v2.05l-5.83,3.37v1l12.69-7.33v-1l-5.9,3.41v-2.05l4.46-2.57V286l-4.45,2.57v-1.26m-5.28,1.88v-1.61l1.89-1.09v1.61l-1.9,1.09m0-2.43V285.1l3.75-2.17v1.62l-3.76,2.16m0-2.44v-1.49l1.9-1.09v1.49l-1.89,1.09m4.56-5-5.44,3.14,0,8.11,5.74-3.31v-.88l-2.14,1.24V286l1.87-1.08v-3.26l-1.87,1.08v-1.49l1.85-1.07v-.87m3.35,2.83a6.91,6.91,0,0,1-1.57-2.84l3.28-1.89a21.21,21.21,0,0,1-1.71,4.73m2.23-6.06-.18.15L528.67,279v1l.45-.26-.06,0a7.55,7.55,0,0,0,1.87,3.39,20.3,20.3,0,0,1-2.45,3.46,1.54,1.54,0,0,1,.55.53,19.74,19.74,0,0,0,2.46-3.52,4.17,4.17,0,0,0,2.73.75,7.07,7.07,0,0,1,.58-1.17,4,4,0,0,1-2.73-.64,24.84,24.84,0,0,0,2.21-6.61l-.56.07"/><path class="cls-17" d="M524.68,307.05v-1.8l3.29-1.9v1.8l-3.3,1.9m4.27-2.46v-1.8l3.36-1.94v1.8L529,304.59m-4.27-.22V302.6l3.3-1.9v1.76l-3.29,1.91m4.26-2.47v-1.76l3.36-1.94V300l-3.36,1.94m4.36-5.21-9.6,5.54,0,6.32,4.26-2.46v1.44l-5.62,3.24v1l4.81-2.78a29.36,29.36,0,0,1-5.15,6.76,2.27,2.27,0,0,1,.67.49,33.33,33.33,0,0,0,5.29-7.31v4.79l1-.56v-4.83a8.41,8.41,0,0,0,5.37,1.12,10,10,0,0,1,.63-1.27,7.88,7.88,0,0,1-5.18-.68l4.82-2.79v-1L529,307v-1.43l4.36-2.52v-6.32"/></g></g><g class="cls-2"><g class="cls-18"><polyline class="cls-3" points="347.97 113.02 332.95 104.34 332.92 113.45 347.94 122.13 347.97 113.02"/></g></g><g class="cls-2"><g class="cls-19"><polyline class="cls-3" points="449.25 190.39 434.23 181.71 434.2 190.83 449.22 199.5 449.25 190.39"/></g></g><g class="cls-2"><g class="cls-20"><polyline class="cls-3" points="451.52 230.21 436.5 221.54 436.48 230.65 451.5 239.32 451.52 230.21"/></g></g><g class="cls-2"><g class="cls-21"><polyline class="cls-3" points="461.76 224.53 446.74 215.85 446.71 224.96 461.73 233.64 461.76 224.53"/></g></g><g class="cls-2"><g class="cls-22"><polyline class="cls-3" points="452.01 279.15 438.29 271.23 438.26 279.58 451.98 287.5 452.01 279.15"/></g></g><g class="cls-2"><g class="cls-23"><polyline class="cls-3" points="446.09 287.58 432.37 279.66 432.35 288.01 446.07 295.93 446.09 287.58"/></g></g><g class="cls-2"><g class="cls-24"><polyline class="cls-3" points="560.76 246.14 545.74 237.47 545.71 246.59 560.73 255.26 560.76 246.14"/></g></g><g class="cls-2"><g class="cls-25"><polyline class="cls-3" points="566.45 260.94 551.42 252.26 551.4 261.38 566.42 270.05 566.45 260.94"/></g></g><g class="cls-2"><g class="cls-26"><polyline class="cls-3" points="583.51 271.18 568.49 262.51 568.46 271.62 583.48 280.29 583.51 271.18"/></g></g><g class="cls-2"><g class="cls-27"><polyline class="cls-3" points="606.27 262.08 591.25 253.41 591.22 262.52 606.25 271.19 606.27 262.08"/></g></g><g class="cls-2"><g class="cls-28"><polyline class="cls-3" points="554.42 339.46 540.7 331.54 540.67 339.89 554.39 347.81 554.42 339.46"/></g></g><g class="cls-2"><g class="cls-29"><polyline class="cls-3" points="548.5 347.89 534.78 339.97 534.76 348.32 548.48 356.24 548.5 347.89"/></g></g><g class="cls-2"><g class="cls-30"><polyline class="cls-3" points="589.21 285.98 574.18 277.3 574.16 286.42 589.18 295.09 589.21 285.98"/></g></g><g class="cls-2"><g class="cls-31"><polyline class="cls-3" points="351.39 172.18 336.37 163.51 336.34 172.63 351.37 181.3 351.39 172.18"/></g></g><g class="cls-2"><g class="cls-32"><polyline class="cls-3" points="346.84 157.39 331.81 148.72 331.79 157.83 346.81 166.51 346.84 157.39"/></g></g><path class="cls-7" d="M484.84,331.76S462.24,335.11,453,346c-2.89,3.41,3.35,8.37,6,13.49,1.45,2.82,5.95,2.79,9.1,3.14,4.17.48,7.21.77,9.2-.73,2.41-1.8,13-7,18.79-9.87a5.63,5.63,0,0,0,3-6.41C497.76,340.16,492.75,331.76,484.84,331.76Z"/><path class="cls-7" d="M486.51,323.39s-22.6,3.35-31.81,14.23c-2.89,3.42,3.35,8.38,6,13.5,1.44,2.82,5.94,2.78,9.09,3.14,4.17.48,7.22.76,9.21-.73,2.4-1.8,13-7,18.78-9.87a5.65,5.65,0,0,0,3-6.41C499.44,331.79,494.43,323.39,486.51,323.39Z"/><path class="cls-7" d="M464,337.34l8,5.19a7,7,0,0,0,5.92.81l10.25-3.2"/><path class="cls-7" d="M487.35,315s-22.6,3.35-31.81,14.23c-2.89,3.42,3.35,8.37,6,13.5,1.45,2.82,5.95,2.78,9.1,3.14,4.17.48,7.21.76,9.21-.73,2.4-1.8,13-7.05,18.78-9.87a5.63,5.63,0,0,0,3-6.41C500.27,323.42,495.26,315,487.35,315Z"/><path class="cls-7" d="M464.82,330.64l8,5.19a7,7,0,0,0,5.92.81l10.24-3.2"/><path class="cls-4" d="M692.31,294.27s-6.41-3.84-2.28-7.72,6.4-1.85,5.09-.67,7.3-6.39,8.3-1.59c0,0,7.41-.26,6.9,4.71,0,0,6.57,6,2,8.85,0,0,1.66,6-3,4.86,0,0-1.33,3.41-3.56,1.37"/><path class="cls-11" d="M703.77,308.62s16.33,12.37,11.35,34c0,0-18.93,1.61-25.09-2.37,0,0,1.13-25,4-29.56C694,310.65,701.67,310.54,703.77,308.62Z"/><path class="cls-8" d="M715.21,343s-9.63,17.59-15.61,30.95l-5,.93s-3.94-24.16-4.05-34.38"/><path class="cls-11" d="M702.09,291.37s-7.3-3.26-9.78,2.9-1.62,6.31-1.62,6.31l2.75,1.12-.32,9.22s11,0,12.36-2.14-2.15-11.5-2.15-11.5,2.13-.53,2.12-1.85-1.59-1.65-3-.33S702.09,291.37,702.09,291.37Z"/><ellipse class="cls-12" cx="694.47" cy="295.7" rx="0.26" ry="0.28"/><path class="cls-9" d="M700.8,374.86v4.72s-7.76,2.79-12.13,0l5.79-3.59Z"/><polyline class="cls-11" points="705.97 312.36 695.12 314.85 693.95 311.79"/></g><path class="cls-4" d="M616.1,338.8s-2.43,7.7-3,10.5c-.53,2.57,0,10.5,0,10.5,2.3,5.07,9,10.5,19.5,7.5s9.69-7.12,9-10.5c-.41-2-1.71-6-1.71-6l-1.58-13.52Z"/><path class="cls-7" d="M616.1,334.3s-3,4.5-1.5,6,6,3,10.5,6,13.68-2,14.76-6c.41-1.49-1.5-7.5-1.5-7.5Z"/><path class="cls-7" d="M638.6,335.05c0,3.73-5,6.75-11.25,6.75-3.45,0-5,2.07-7.09.61-1.66-1.18-5.66-4.2-5.66-5.86,0-3.73,6.53-8.25,12.75-8.25a24.81,24.81,0,0,1,8.25,1.35C638.33,330.88,638.6,332.84,638.6,335.05Z"/><path class="cls-9" d="M633.86,334.3a2.08,2.08,0,0,0-3,0s-3-1.5-4.5,0"/><path class="cls-9" d="M623.36,338.8s-1.87-1.5-3.18,0"/><path class="cls-7" d="M728.09,362.22l14.49,1s3.37,8.1,1,12.43c-2.18,4,6.9,15.53-1.1,18.81-10.06,4.14-30.27,1.06-31-3.28-1-6.22.55-29.5.55-29.5Z"/><path class="cls-7" d="M743.15,364.27s.7-11.3-19.08-8.48-9.19,8.48-9.19,8.48,9.74,4.36,14.13,3.54C738.77,366,738.36,365.78,743.15,364.27Z"/><path class="cls-4" d="M598.1,348.16s-2.43,7.7-3,10.5c-.53,2.57,0,10.5,0,10.5,2.3,5.07,9,10.5,19.5,7.5s10.5-9,10.5-9l-6.29-22.52Z"/><path class="cls-7" d="M598.1,343.66s-3,4.5-1.5,6,6,3,10.5,6,15-4.5,15-4.5l-.53-8.5Z"/><path class="cls-7" d="M620.6,344.41c0,3.73-5,6.75-11.25,6.75-3.45,0-3.53-.93-5.59-2.39-1.66-1.18-5.66-2.7-5.66-4.36,0-3.73,5-6.75,11.25-6.75,2.53,0,6.37-1,8.25-.15C620.33,338.74,620.6,342.2,620.6,344.41Z"/><path class="cls-9" d="M605.6,343.66s1.87-1.5,3.18,0"/><path class="cls-9" d="M613.1,342.16s1.87-1.5,3.18,0"/><path class="cls-7" d="M707.66,374.73l-17.41,3.58s-1.89,15.31.55,19.55C698.38,411,724,408.57,727,403.08c3.68-6.71-.88-8-1.26-13.95a125.09,125.09,0,0,0-2.17-15.35Z"/><path class="cls-7" d="M690.24,378s-1.1-12.13,20.26-9.69,10.13,8.84,10.13,8.84-10.48,5.62-15.09,4.22S690.24,378,690.24,378Z"/><polygon class="cls-7" points="694.97 379.24 672.47 407.74 625.98 380.74 646.98 350.75 694.97 379.24"/><polygon class="cls-7" points="672.47 407.74 672.47 431.74 694.97 418.24 694.97 379.24 672.47 407.74"/><line class="cls-7" x1="676.97" y1="368.74" x2="655.97" y2="397.24"/><polygon class="cls-4" points="625.98 380.74 672.47 407.74 672.47 431.74 625.98 406.24 625.98 380.74"/><polygon class="cls-7" points="647.45 354.93 672.49 369.73 654.28 393.62 630.39 379.97 647.45 354.93"/><path class="cls-7" d="M678.18,372l13,8.21S671.35,405,671.35,403.86L660,397Z"/><path class="cls-7" d="M640.61,365s5.14-6.05,10.83-3.78,3.41,4.55,3.41,4.55,5.69-1.14,8,2.28a12,12,0,0,1,1.49,3.91c.22.91,2.41.8,3.06,4.05"/><path class="cls-7" d="M676.44,375.24s3.73-1.25,5,.6,2.42,1.85,2.42,1.85,5.28-1.31,5.48,1.62.21,1.79.21,1.79"/><path class="cls-7" d="M644,372s1.14-1.14,3.41,1.14c0,0,2.28-2.28,3.42,0"/><path class="cls-7" d="M671.35,385.66s1.14-2.28,3.41,1.13"/><path class="cls-7" d="M677,383.38s1.64-1.24,3.1,1.09c0,0,2.59-1.09,2.59,1.19"/><path class="cls-4" d="M356.16,355.5c0-9.11,11-1.7,23.89-1.7s21.62-7.41,21.62,1.7-9.3,16.5-22.18,16.5S356.16,364.61,356.16,355.5Z"/><ellipse class="cls-7" cx="378.92" cy="354.93" rx="22.76" ry="11.38"/><path class="cls-7" d="M360.71,358.65s2-9.59,5.84-10.56,12.65-6.81,12.65-6.81,9.73,3.89,12.65,6.81,5.84,11.68,5.84,11.68-6.81,7.78-15.57,5.84S363.63,366.43,360.71,358.65Z"/><polygon class="cls-6" points="327.79 308.06 327.79 318.37 341.94 310.85 341.94 302.83 327.79 308.06"/><polygon class="cls-6" points="336.71 299.8 341.94 302.83 327.79 308.06 324.58 305.95 336.71 299.8"/><polygon class="cls-6" points="327.79 318.37 323.52 315.39 324.58 305.95 327.79 308.06 327.79 318.37"/><circle class="cls-33" cx="336.3" cy="309.55" r="2.61"/><path class="cls-4" d="M310,290.18s-14.75,21.92-13.26,35.43c0,0,22.12,1.68,29.33-2.48,0,0-1.33-26.1-4.67-30.83C321.4,292.3,312.46,292.18,310,290.18Z"/><polygon class="cls-34" points="310.37 290.75 318.5 295.73 319.87 293.24 310.37 290.75"/><path class="cls-4" d="M315.8,298.16s10.69,10.82,15.35,11.38c0,0-17.58-3-21.53-12.06"/><path class="cls-8" d="M296.63,326s11.25,18.36,18.25,32.29l5.85,1s4.61-25.2,4.74-35.87"/><line class="cls-35" x1="320.32" y1="311.34" x2="320.45" y2="323.41"/><path class="cls-36" d="M319.82,280.22c5.09-1.64,6.84-9.56-7.57-5.86,0,0-2.55-.65-2.57-.61-.31,1.3-3.21,22.19-8.86,17.77,0,0,5.83,5.64,8.95,3.18l1.89-1.92,8.14-12.45S319.78,280.23,319.82,280.22Z"/><path class="cls-11" d="M312.18,278.47a.14.14,0,0,1,.09-.17c.92-.36,7.23-3.41,9.33,1.67,2,4.79,2.06,5,1.92,5.12l0,0-2.42,1a.15.15,0,0,0-.1.15l.45,6.15s-9,.31-10.35-1.62c-1.19-1.76.27-7.26.71-8.44a.14.14,0,0,0-.09-.2c-.47-.15-1.81-.64-1.81-1.62,0-1.18,1.48-1.47,2.78-.29S312.32,279.19,312.18,278.47Z"/><circle class="cls-12" cx="318.75" cy="281.99" r="0.24"/><path class="cls-9" d="M314.88,358.31v4.08s7.16,2.42,11.19,0l-5.34-3.11Z"/><g id="sign-2" data-name="sign"><path class="cls-3" d="M400.16,263l-.53,11.43h-1.17L397.93,263Zm-.07,16.24H398v-2.67h2.09Z"/></g><g id="sign-3" data-name="sign"><path class="cls-3" d="M729,293.74l-.53,11.43h-1.17l-.54-11.43ZM728.94,310h-2.09v-2.67h2.09Z"/></g><g id="_trigger_nuts_store_" data-name="&lt;trigger_nuts_store&gt;"><path class="cls-11" d="M693.61,324s-16,7.63-21.1,6.47c0,0,19.72,3.39,27.85-4.86"/><polygon class="cls-6" points="665.57 340.66 662.44 352.98 675.65 353.82 678.7 341.78 677.48 339.15 665.57 340.66"/><path class="cls-6" d="M672.28,329.19l-1.88,7.87,1.91,2.64,2-2.41s1.92-7.65,2-7.7C677.16,329.16,674,325.22,672.28,329.19Z"/><polygon class="cls-6" points="663.95 337.4 677.63 336.09 676.24 340.38 665.86 341.23 663.95 337.4"/><polygon class="cls-6" points="677.63 336.09 673.26 349.03 675.65 353.82 680.11 341.08 677.63 336.09"/><polygon class="cls-6" points="663.95 337.4 665.86 341.23 662.44 352.98 659.67 347.42 663.95 337.4"/><rect id="hidden-2" data-name="hidden" class="cls-13" x="653.86" y="268.45" width="105.1" height="117.51"/></g><g id="_trigger_sieve_rice_" data-name="&lt;trigger_sieve_rice&gt;"><path class="cls-11" d="M422.91,269.43s-6.57-3.19-8.8,2.84-1.46,6.18-1.46,6.18l2.48,1.1-.29,9s9.84,0,11.11-2.1S424,275.22,424,275.22s1.92-.52,1.91-1.81-1.44-1.62-2.71-.32S422.91,269.43,422.91,269.43Z"/><ellipse class="cls-12" cx="417.04" cy="272.76" rx="0.24" ry="0.26"/><path class="cls-36" d="M415.46,269.68s1.41-5.79,2.94-6.35l.85,1.11s4.8-.92,5.71.46a13.56,13.56,0,0,0,2.37,2.59s-.73,3.6,0,3.88-4.25,2.39-4.25,2.39l.33-4.08-2.56-1.28-3.33.15Z"/><path class="cls-11" d="M426,285.82s14.38,23.59,12.93,38.13c0,0-21.56,1.81-28.58-2.67,0,0,1.29-28.1,4.54-33.18C414.84,288.1,423.56,288,426,285.82Z"/><path class="cls-8" d="M439,324.39s-11,19.76-17.79,34.75l-5.7,1.05s-4.49-27.13-4.62-38.6"/><path class="cls-9" d="M421.2,359.14v4.4s-7,2.6-10.9,0l5.2-3.35Z"/><rect class="cls-37" x="422.71" y="270.24" width="3.87" height="1.75" rx="0.61" ry="0.61" transform="translate(849.29 542.24) rotate(-180)"/><path class="cls-11" d="M415.8,293.76s-6.06,15-10.12,17.28c0,0,15-9.7,15.52-20.3"/><path class="cls-4" d="M356.19,315.75c0,10.2,12.8,18.47,28.59,18.47s28.59-8.27,28.59-18.47-12.8-11.31-28.59-11.31S356.19,305.56,356.19,315.75Z"/><ellipse class="cls-4" cx="384.78" cy="312.78" rx="29.19" ry="14.89"/><ellipse class="cls-7" cx="384.78" cy="312.78" rx="25.61" ry="11.32"/><line class="cls-7" x1="368.1" y1="328.26" x2="370.48" y2="329.46"/><line class="cls-7" x1="374.06" y1="330.65" x2="377.63" y2="330.65"/><line class="cls-7" x1="384.78" y1="330.65" x2="388.35" y2="333.03"/><line class="cls-7" x1="394.31" y1="329.46" x2="391.93" y2="333.03"/><line class="cls-7" x1="397.88" y1="329.46" x2="400.64" y2="331.12"/><g id="_讓它動起來_" data-name="&lt;讓它動起來&gt;"><line class="cls-7" x1="365.12" y1="333.62" x2="365.12" y2="339.58"/><line class="cls-7" x1="393.71" y1="337.2" x2="393.71" y2="343.16"/><line class="cls-7" x1="403.25" y1="333.62" x2="403.25" y2="339.58"/><line class="cls-7" x1="375.84" y1="339.58" x2="375.84" y2="344.35"/><line class="cls-7" x1="379.42" y1="341.96" x2="379.42" y2="346.73"/><line class="cls-7" x1="388.35" y1="338.99" x2="388.35" y2="348.52"/></g><path class="cls-7" d="M370.48,321.12a8.48,8.48,0,0,1-4.76-7.15s7.73-9.43,14.61-8.57c3.61.45,6.51,1.82,8.45.57,3.93-2.52,7.53-.84,9.15,3.55,0,.05.91,1,.93,1,2.11,6,3.82,5.16,3.82,5.16s3.77,2.76-5.88,7.06"/><rect id="hidden-3" data-name="hidden" class="cls-13" x="347.77" y="254.8" width="105.1" height="117.51"/></g><g id="people3"><path class="cls-11" d="M281.8,244.11s6.26-3,8.39,2.71,1.39,5.89,1.39,5.89l-2.37,1,.28,8.62s-9.38,0-10.59-2,1.85-10.73,1.85-10.73-1.83-.5-1.83-1.73,1.37-1.54,2.58-.31S281.8,244.11,281.8,244.11Z"/><ellipse class="cls-12" cx="287.4" cy="247.29" rx="0.23" ry="0.25"/><path class="cls-36" d="M288.9,244.35s-1.34-5.52-2.81-6l-.8,1.06s-4.57-.88-5.44.44a13,13,0,0,1-2.26,2.46s.69,3.43,0,3.7,4.05,2.27,4.05,2.27l-.31-3.88,2.43-1.22,3.18.14Z"/><path class="cls-11" d="M278.9,259.73s-13.7,22.48-12.32,36.34c0,0,20.55,1.72,27.24-2.54,0,0-1.23-26.79-4.33-31.63C289.49,261.9,281.18,261.77,278.9,259.73Z"/><path class="cls-8" d="M266.48,296.49s10.45,18.83,16.95,33.11l5.44,1s4.28-25.86,4.4-36.8"/><path class="cls-9" d="M283.43,329.6v4.2s6.65,2.48,10.39,0l-4.95-3.19Z"/><rect class="cls-37" x="278.31" y="244.89" width="3.69" height="1.67" rx="0.67" ry="0.67"/><path class="cls-11" d="M288.58,267.3s5.77,14.25,9.64,16.46c0,0-14.3-9.24-14.79-19.34"/></g></g><g id="_Island_3_" data-name="&lt;Island 3&gt;"><g class="cls-2"><polygon class="cls-4" points="329.77 445.77 329.67 479.65 226.17 539.8 226.26 505.92 329.77 445.77"/><polygon class="cls-4" points="226.26 505.92 226.17 539.8 93.49 463.2 93.59 429.32 226.26 505.92"/><polygon class="cls-38" points="329.77 445.77 226.26 505.92 93.59 429.32 197.09 369.17 329.77 445.77"/></g><g id="man"><path class="cls-11" d="M174.22,356.59s6.3-2.95,8.44,2.63,1.39,5.72,1.39,5.72l-2.37,1,.27,8.37s-9.43,0-10.65-1.95S173.16,362,173.16,362s-1.84-.48-1.83-1.68,1.37-1.49,2.59-.3S174.22,356.59,174.22,356.59Z"/><ellipse class="cls-12" cx="179.85" cy="359.68" rx="0.23" ry="0.24"/><path class="cls-36" d="M181.36,356.82s-1.35-5.36-2.82-5.87l-.81,1s-4.6-.86-5.47.42a13,13,0,0,1-2.28,2.39s.7,3.34,0,3.59,4.08,2.22,4.08,2.22l-.32-3.78,2.45-1.18,3.2.13Z"/><path class="cls-11" d="M171.3,371.75S157.52,393.59,158.91,407c0,0,20.67,1.67,27.4-2.47,0,0-1.23-26-4.36-30.71C182,373.86,173.6,373.74,171.3,371.75Z"/><path class="cls-8" d="M158.81,407.45s10.51,18.28,17.05,32.16l5.47,1s4.3-25.11,4.43-35.73"/><path class="cls-9" d="M175.86,439.61v4.07s6.69,2.4,10.45,0l-5-3.1Z"/><rect class="cls-37" x="170.06" y="362.08" width="3.51" height="1.53" rx="0.63" ry="0.63"/></g><path class="cls-33" d="M177.81,431.08l.4,26.15s2.38,3.56,5.95,1.19V427.51Z"/><path class="cls-33" d="M212.29,451.28l.39,26.15s2.38,3.57,5.95,1.19v-30.9Z"/><path class="cls-33" d="M276.47,420.38l.4,26.15s2.38,3.57,5.94,1.19V416.81Z"/><g class="cls-2"><polygon class="cls-6" points="284.92 414.91 284.89 421.65 215.94 459.87 215.96 453.13 284.92 414.91"/><polygon class="cls-6" points="215.96 453.13 215.94 459.87 172.56 432.98 172.58 426.24 215.96 453.13"/><polygon class="cls-6" points="240.34 389.21 284.92 414.91 215.96 453.13 172.58 426.24 240.34 389.21"/></g><polygon class="cls-39" points="213.67 412.06 191.29 424.26 221.81 442.57 244.18 430.37 213.67 412.06"/><polygon class="cls-4" points="239.9 396.61 228.14 403.02 244.18 412.65 255.95 406.23 239.9 396.61"/><g id="_trigger_rubbing_" data-name="&lt;trigger_rubbing&gt;"><path class="cls-11" d="M179.84,382.67s5.48,13.08,9.17,15.11c0,0-13.61-8.49-14.07-17.76"/><polygon class="cls-6" points="131.26 313.4 81.93 342.01 81.93 385.42 131.26 356.81 131.26 313.4"/><path class="cls-4" d="M116.44,335.42s6.69,2.23,8.92,4.46-5.58,13.38-5.58,13.38Z"/><polyline class="cls-6" points="118.11 344.34 94.13 357.72 87.44 357.72 90.78 364.42 93.01 357.72"/><polyline class="cls-5" points="103.05 344.34 110.58 348.54 108.48 358.84"/><polyline class="cls-5" points="94.06 349.92 101.58 354.12 98.3 364.42"/><polyline class="cls-5" points="98.59 346.57 106.12 350.77 104.02 361.07"/><polyline class="cls-5" points="107.59 340.92 115.11 345.12 113.02 355.42"/><polygon class="cls-5" points="165.73 328.85 141.37 342.5 141.37 371.74 165.73 357.12 165.73 328.85"/><path class="cls-4" d="M151.11,355.17l-3.9,7.8h1.95l3.9-7.8s5.85,6.82,6.82-7.8-5.42-7.29-7.8-5.86C147.21,344.44,142.34,353.22,151.11,355.17Z"/><path class="cls-5" d="M153.06,353.22A24.94,24.94,0,0,0,157,342.5"/><g id="_trigger-4_" data-name="&lt;trigger-4&gt;"><circle class="cls-33" cx="203.77" cy="425.58" r="5.15"/><path class="cls-4" d="M206.65,408.52l-17.88-11.91s-5.41.54-3.79,4.87l17.33,10.83"/><polygon class="cls-4" points="214.77 399.86 221.27 404.19 219.64 406.36 215.85 403.11 197.44 421.52 202.31 424.77 199.6 427.48 192.02 422.06 214.77 399.86"/><path class="cls-33" d="M200.55,421.54,218,403.9s7.2-1.34,7.2,5.16l-17.1,19.29"/><path class="cls-33" d="M207.83,427.48s1.09-6.5-6-5.42"/></g><rect id="hidden-4" data-name="hidden" class="cls-13" x="73.97" y="314.59" width="226.68" height="181.86"/></g><g id="sign-4" data-name="sign"><path class="cls-3" d="M201.19,367.22l-.55,11.95h-1.23l-.55-11.95Zm-.07,17h-2.19V381.4h2.19Z"/></g></g></g></g></svg>