<svg xmlns="http://www.w3.org/2000/svg" xmlns:xlink="http://www.w3.org/1999/xlink" viewBox="0 0 594.55 465.28"><defs><style>.\30 8b2fc83-91ae-46e5-b326-1ad4a8abce93,.\30 c0f1c9e-42bc-4706-897a-58c44687a5ee,.\31 973d0b6-f987-4e70-89c6-74ebd6cb456c,.\32 996f9ae-e83b-4c7c-877e-c6a673b2d75d,.\35 6c28557-e29b-41a9-b9fc-9fcf2618a2e0,.\35 8d10613-3654-4fd5-832e-12a64347616e,.d40e7b73-7214-4c86-bd95-f6299418fe19,.ed362e9e-e99d-44ae-85d3-de63b53fb91a{fill:none;}.\30 108a751-9019-4dad-bb1c-dcbebd0e19c8{isolation:isolate;}.\30 29fdeea-c41e-443f-98b5-88e942b810d6,.\30 412dd0d-0fe7-44d3-a07d-e8a8af277b64,.\33 07880a2-0891-46e1-9e2a-12411505d1b1,.\33 4bf7a1f-3a97-4eee-9b9e-a3e0eca5d154,.\33 62effac-4d99-485c-a14c-e10657134acd,.\37 ab1964c-b7f7-4a2a-9b5e-aa1b3f343846,.a305f7e3-a4dc-407f-a18d-c8e9a642fab5,.c2c0d845-2fec-4610-bbd7-13fc7618da46,.e0fdc660-d86f-46c8-b3bc-cc6adb4c668a,.e3dc924a-26be-40f8-8625-5e16af7d2c2a,.f8fc690c-bfbb-4db2-b37d-fc05adbe1444{fill:#fff;}.\30 29fdeea-c41e-443f-98b5-88e942b810d6,.\30 8b2fc83-91ae-46e5-b326-1ad4a8abce93,.\33 0376737-e8ac-441f-adb1-94a0aa84dbe8,.\33 07880a2-0891-46e1-9e2a-12411505d1b1,.\33 58625af-3353-4b19-a947-8ceaae4dc79f,.\34 ad58d5a-d0c9-4e66-ab29-a2dc503c659e,.\34 fe533bb-02d2-48c8-a7a0-3175f71db6c8,.\35 8d10613-3654-4fd5-832e-12a64347616e,.\37 ab1964c-b7f7-4a2a-9b5e-aa1b3f343846,.ed362e9e-e99d-44ae-85d3-de63b53fb91a,.f8fc690c-bfbb-4db2-b37d-fc05adbe1444{stroke:#19191a;}.\30 8b2fc83-91ae-46e5-b326-1ad4a8abce93,.\32 996f9ae-e83b-4c7c-877e-c6a673b2d75d,.\33 07880a2-0891-46e1-9e2a-12411505d1b1,.\33 4bf7a1f-3a97-4eee-9b9e-a3e0eca5d154,.\33 58625af-3353-4b19-a947-8ceaae4dc79f,.\34 ad58d5a-d0c9-4e66-ab29-a2dc503c659e,.\34 fe533bb-02d2-48c8-a7a0-3175f71db6c8,.\35 8d10613-3654-4fd5-832e-12a64347616e,.\37 ab1964c-b7f7-4a2a-9b5e-aa1b3f343846,.c2c0d845-2fec-4610-bbd7-13fc7618da46,.ed362e9e-e99d-44ae-85d3-de63b53fb91a,.f8fc690c-bfbb-4db2-b37d-fc05adbe1444{stroke-linejoin:round;}.\33 58625af-3353-4b19-a947-8ceaae4dc79f,.\35 b574533-1ed2-4e18-bb70-665c4cf4e895,.\37 7ad4815-06f2-487a-b1e4-4d98eaf04fad{fill:#bd2229;}.\33 58625af-3353-4b19-a947-8ceaae4dc79f,.\34 ad58d5a-d0c9-4e66-ab29-a2dc503c659e,.\34 fe533bb-02d2-48c8-a7a0-3175f71db6c8,.\35 8d10613-3654-4fd5-832e-12a64347616e,.\37 ab1964c-b7f7-4a2a-9b5e-aa1b3f343846,.f8fc690c-bfbb-4db2-b37d-fc05adbe1444{stroke-linecap:round;}.\33 4bf7a1f-3a97-4eee-9b9e-a3e0eca5d154,.e3dc924a-26be-40f8-8625-5e16af7d2c2a{stroke:#1a1a1a;}.\30 29fdeea-c41e-443f-98b5-88e942b810d6,.\30 412dd0d-0fe7-44d3-a07d-e8a8af277b64,.\30 c0f1c9e-42bc-4706-897a-58c44687a5ee,.\31 973d0b6-f987-4e70-89c6-74ebd6cb456c,.\33 0376737-e8ac-441f-adb1-94a0aa84dbe8,.\33 2f0822c-2d6a-4b34-b398-24ecee99d000,.a305f7e3-a4dc-407f-a18d-c8e9a642fab5,.ca35bf2a-c048-4744-85a4-bc70a3e8400b,.d40e7b73-7214-4c86-bd95-f6299418fe19,.e0fdc660-d86f-46c8-b3bc-cc6adb4c668a,.e3dc924a-26be-40f8-8625-5e16af7d2c2a{stroke-miterlimit:10;}.\30 c0f1c9e-42bc-4706-897a-58c44687a5ee{stroke:#e5e5e4;stroke-width:0.75px;}.\30 412dd0d-0fe7-44d3-a07d-e8a8af277b64,.\31 973d0b6-f987-4e70-89c6-74ebd6cb456c,.\32 996f9ae-e83b-4c7c-877e-c6a673b2d75d,.c2c0d845-2fec-4610-bbd7-13fc7618da46{stroke:#0c1810;}.dd265200-a961-47d4-92e3-d0f90d4fb770{clip-path:url(#e8fc6a49-924b-46e9-99bf-44ef88def45f);}.\33 0376737-e8ac-441f-adb1-94a0aa84dbe8,.\34 fe533bb-02d2-48c8-a7a0-3175f71db6c8,.ab94d359-bb39-4154-bbe8-94fe3504ddfc{fill:#19191a;}.\35 cc75b27-7d82-4238-971c-e5333fbf8af9{clip-path:url(#1887d1a0-69ce-4c98-94a5-12e5e217a884);}.\30 8b2fc83-91ae-46e5-b326-1ad4a8abce93,.\31 973d0b6-f987-4e70-89c6-74ebd6cb456c,.\32 996f9ae-e83b-4c7c-877e-c6a673b2d75d{stroke-width:2px;}.a305f7e3-a4dc-407f-a18d-c8e9a642fab5{stroke:#060001;}.a305f7e3-a4dc-407f-a18d-c8e9a642fab5,.e0fdc660-d86f-46c8-b3bc-cc6adb4c668a{stroke-width:0.8px;}.ca35bf2a-c048-4744-85a4-bc70a3e8400b{fill:#181819;stroke:#181819;}.\30 29fdeea-c41e-443f-98b5-88e942b810d6,.\33 0376737-e8ac-441f-adb1-94a0aa84dbe8,.\34 fe533bb-02d2-48c8-a7a0-3175f71db6c8,.ca35bf2a-c048-4744-85a4-bc70a3e8400b,.f8fc690c-bfbb-4db2-b37d-fc05adbe1444{stroke-width:0.8px;}.e0fdc660-d86f-46c8-b3bc-cc6adb4c668a{stroke:#040000;}.\34 ad58d5a-d0c9-4e66-ab29-a2dc503c659e{fill:#fdf3f4;}.\33 2f0822c-2d6a-4b34-b398-24ecee99d000{fill:#231815;stroke:#231815;}.\37 7ad4815-06f2-487a-b1e4-4d98eaf04fad{mix-blend-mode:multiply;}.d40e7b73-7214-4c86-bd95-f6299418fe19{stroke:#fff;}</style><clipPath id="e8fc6a49-924b-46e9-99bf-44ef88def45f"><polygon class="56c28557-e29b-41a9-b9fc-9fcf2618a2e0" points="363.48 251.09 363.51 229.81 384.12 227.58 384.08 248.86 363.48 251.09"/></clipPath><clipPath id="1887d1a0-69ce-4c98-94a5-12e5e217a884"><polygon class="56c28557-e29b-41a9-b9fc-9fcf2618a2e0" points="389.58 242.88 389.62 221.59 410.22 219.36 410.18 240.65 389.58 242.88"/></clipPath></defs><title>小碧潭站</title><g class="0108a751-9019-4dad-bb1c-dcbebd0e19c8"><g id="50adcc22-fa95-4bd5-b7c9-6cceaee6be06" data-name="圖層 2"><g class="0108a751-9019-4dad-bb1c-dcbebd0e19c8"><polyline class="307880a2-0891-46e1-9e2a-12411505d1b1" points="376.96 212.21 222.37 302.05 222.47 272.36"/><polygon class="307880a2-0891-46e1-9e2a-12411505d1b1" points="222.47 272.36 222.37 302.05 92.07 223.59 92.17 197.13 125.88 195 160.28 217.57 205.44 249.83 211.9 253.06 222.47 272.36"/><path class="307880a2-0891-46e1-9e2a-12411505d1b1" d="M453.49,225.78c-7.64,1.4-19.27-.61-26.88-15.52-3.3-6.46-7.45-16.27-25.15-14.52-7.27.72-18,2.36-24.95-12.49,0,0-2.64-8.55-8.77-12.9-5.9-4.19-16-4.2-18.3-3.78-7.63,1.4-19.27-.61-26.88-15.52-3.3-6.46-7.44-16.27-25.15-14.52-7.73.77-20.22,2.58-26.91-15.54-4.84-13.09-23.74-13.7-23.74-13.7L92.17,197.13s18.66-2.14,24.92,14.39c5.79,15.3,17.4,14.71,24.43,14.11C160.29,224,166.11,235,170,242.3c9.68,18.28,18,15.32,25.23,14.32,13.16-1.84,22.62,5.89,25.95,14.11,6.13,15.17,17.4,14.71,24.42,14.11,18.77-1.6,24.59,9.39,28.45,16.67,9.68,18.28,18.05,15.32,25.23,14.32,17.78-2.49,27.28,15.74,27.28,15.74l154.59-89.84S468.62,223,453.49,225.78Z"/></g><polygon class="307880a2-0891-46e1-9e2a-12411505d1b1" points="262.62 48.57 71.51 158.07 106.97 178.54 300.31 69.11 262.62 48.57"/><polygon class="307880a2-0891-46e1-9e2a-12411505d1b1" points="71.51 158.07 71.51 164.1 107 184.64 106.97 178.54 71.51 158.07"/><polygon class="307880a2-0891-46e1-9e2a-12411505d1b1" points="249.41 146.02 231.28 135.19 218.36 120.89 243.15 120.89 249.41 146.02"/><polygon class="307880a2-0891-46e1-9e2a-12411505d1b1" points="160.61 196.83 140.87 185.75 127.25 170.25 152.04 170.25 160.61 196.83"/><path class="307880a2-0891-46e1-9e2a-12411505d1b1" d="M300.31,69.11,107,178.55l0,5.69c10.78-3.25,40.78-14,53.06,12.28l11.09-6.19s2.91-27.81,20.71-47.41c4-4.41,8.84-7.3,14.68-10.47,12.64-6.86,27.14-8.86,43.78,13.31l11.6-6.07s5.17-44.76,38.39-60.43Z"/><g id="4f5e58aa-ca50-419e-9d60-d8fa11dc845a" data-name="&lt;trigger_cars&gt;"><g class="0108a751-9019-4dad-bb1c-dcbebd0e19c8"><polygon class="358625af-3353-4b19-a947-8ceaae4dc79f" points="205.16 85.44 205.14 96.59 196.52 91.75 196.54 80.6 205.16 85.44"/><polygon class="358625af-3353-4b19-a947-8ceaae4dc79f" points="214.19 69.96 222.81 74.89 205.16 85.44 196.54 80.5 214.19 69.96"/></g><g class="0108a751-9019-4dad-bb1c-dcbebd0e19c8"><polygon class="358625af-3353-4b19-a947-8ceaae4dc79f" points="222.81 74.89 205.16 85.44 205.15 90.02 199.02 93.56 198.94 100.02 205.4 96.29 205.4 96.24 222.78 86.05 222.81 74.89"/><polygon class="358625af-3353-4b19-a947-8ceaae4dc79f" points="199.02 93.56 198.94 100.02 190.51 94.95 190.59 88.48 199.02 93.56"/><polygon class="358625af-3353-4b19-a947-8ceaae4dc79f" points="197.04 84.76 205.28 89.83 199.02 93.56 190.59 88.48 197.04 84.76"/></g><ellipse class="e3dc924a-26be-40f8-8625-5e16af7d2c2a" cx="206.7" cy="95.65" rx="2.25" ry="3.12"/><ellipse class="e3dc924a-26be-40f8-8625-5e16af7d2c2a" cx="218.2" cy="89.27" rx="2.25" ry="3.12"/><g class="0108a751-9019-4dad-bb1c-dcbebd0e19c8"><polygon class="34bf7a1f-3a97-4eee-9b9e-a3e0eca5d154" points="107.91 141.19 107.89 152.34 99.27 147.5 99.3 136.35 107.91 141.19"/><polygon class="34bf7a1f-3a97-4eee-9b9e-a3e0eca5d154" points="116.94 125.71 125.56 130.64 107.91 141.19 99.3 136.25 116.94 125.71"/></g><g class="0108a751-9019-4dad-bb1c-dcbebd0e19c8"><polygon class="34bf7a1f-3a97-4eee-9b9e-a3e0eca5d154" points="125.56 130.64 107.91 141.19 107.9 145.77 101.77 149.31 101.69 155.77 108.15 152.04 108.15 151.99 125.53 141.79 125.56 130.64"/><polygon class="34bf7a1f-3a97-4eee-9b9e-a3e0eca5d154" points="101.77 149.31 101.69 155.77 93.26 150.7 93.34 144.23 101.77 149.31"/><polygon class="34bf7a1f-3a97-4eee-9b9e-a3e0eca5d154" points="99.79 140.51 108.03 145.58 101.77 149.31 93.34 144.23 99.79 140.51"/></g><ellipse class="34bf7a1f-3a97-4eee-9b9e-a3e0eca5d154" cx="109.45" cy="151.4" rx="2.25" ry="3.12"/><ellipse class="34bf7a1f-3a97-4eee-9b9e-a3e0eca5d154" cx="120.95" cy="145.02" rx="2.25" ry="3.12"/><ellipse class="34bf7a1f-3a97-4eee-9b9e-a3e0eca5d154" cx="121.71" cy="150.1" rx="2.11" ry="2.92"/><g class="0108a751-9019-4dad-bb1c-dcbebd0e19c8"><polygon class="34bf7a1f-3a97-4eee-9b9e-a3e0eca5d154" points="139.09 144.3 138.99 151.65 129.04 145.67 129.13 138.31 139.09 144.3"/><polygon class="358625af-3353-4b19-a947-8ceaae4dc79f" points="135.64 134.55 145.59 140.54 139.09 144.3 129.13 138.31 135.64 134.55"/></g><g class="0108a751-9019-4dad-bb1c-dcbebd0e19c8"><polygon class="358625af-3353-4b19-a947-8ceaae4dc79f" points="145.59 140.54 141.04 143.17 141.05 140.43 129.2 147.4 129.17 157.56 141.02 150.59 141.02 150.49 145.5 147.89 145.59 140.54"/><polygon class="358625af-3353-4b19-a947-8ceaae4dc79f" points="129.2 147.4 129.17 157.56 118.43 151.53 118.46 141.37 129.2 147.4"/><polygon class="358625af-3353-4b19-a947-8ceaae4dc79f" points="130.3 134.4 141.05 140.43 129.2 147.4 118.46 141.37 130.3 134.4"/></g><ellipse class="34bf7a1f-3a97-4eee-9b9e-a3e0eca5d154" cx="133.54" cy="155.38" rx="2.11" ry="2.92"/><ellipse class="34bf7a1f-3a97-4eee-9b9e-a3e0eca5d154" cx="142.29" cy="150.64" rx="2.11" ry="2.92"/><ellipse class="34bf7a1f-3a97-4eee-9b9e-a3e0eca5d154" cx="156.95" cy="133.15" rx="1.99" ry="2.75"/><g class="0108a751-9019-4dad-bb1c-dcbebd0e19c8"><polygon class="34bf7a1f-3a97-4eee-9b9e-a3e0eca5d154" points="173.35 127.68 173.26 134.62 163.87 128.97 163.96 122.03 173.35 127.68"/><polygon class="34bf7a1f-3a97-4eee-9b9e-a3e0eca5d154" points="170.1 118.48 179.49 124.13 173.35 127.68 163.96 122.03 170.1 118.48"/></g><g class="0108a751-9019-4dad-bb1c-dcbebd0e19c8"><polygon class="34bf7a1f-3a97-4eee-9b9e-a3e0eca5d154" points="179.49 124.13 175.19 126.61 175.2 124.03 162.03 131.71 162.01 141.3 175.17 133.62 175.17 133.52 179.41 131.07 179.49 124.13"/><polygon class="34bf7a1f-3a97-4eee-9b9e-a3e0eca5d154" points="162.03 131.71 162.01 141.3 151.87 135.61 151.9 126.02 162.03 131.71"/><polygon class="34bf7a1f-3a97-4eee-9b9e-a3e0eca5d154" points="165.06 118.34 175.2 124.03 162.03 131.71 151.9 126.02 165.06 118.34"/></g><ellipse class="34bf7a1f-3a97-4eee-9b9e-a3e0eca5d154" cx="166.22" cy="138.99" rx="1.99" ry="2.75"/><ellipse class="34bf7a1f-3a97-4eee-9b9e-a3e0eca5d154" cx="176.38" cy="133.28" rx="1.99" ry="2.75"/><ellipse class="34bf7a1f-3a97-4eee-9b9e-a3e0eca5d154" cx="243.91" cy="82.95" rx="2.01" ry="2.79"/><g class="0108a751-9019-4dad-bb1c-dcbebd0e19c8"><polygon class="34bf7a1f-3a97-4eee-9b9e-a3e0eca5d154" points="260.52 77.4 260.44 84.44 250.92 78.71 251.01 71.68 260.52 77.4"/><polygon class="34bf7a1f-3a97-4eee-9b9e-a3e0eca5d154" points="257.23 68.09 266.75 73.81 260.52 77.4 251.01 71.68 257.23 68.09"/></g><g class="0108a751-9019-4dad-bb1c-dcbebd0e19c8"><polygon class="34bf7a1f-3a97-4eee-9b9e-a3e0eca5d154" points="266.75 73.81 262.39 76.33 262.4 73.7 251.07 80.37 251.05 90.08 262.37 83.42 262.37 83.32 266.66 80.84 266.75 73.81"/><polygon class="34bf7a1f-3a97-4eee-9b9e-a3e0eca5d154" points="251.07 80.37 251.05 90.08 240.78 84.32 240.81 74.6 251.07 80.37"/><polygon class="34bf7a1f-3a97-4eee-9b9e-a3e0eca5d154" points="252.13 67.94 262.4 73.7 251.07 80.37 240.81 74.6 252.13 67.94"/></g><ellipse class="34bf7a1f-3a97-4eee-9b9e-a3e0eca5d154" cx="255.22" cy="88" rx="2.01" ry="2.79"/><ellipse class="34bf7a1f-3a97-4eee-9b9e-a3e0eca5d154" cx="263.59" cy="83.46" rx="2.01" ry="2.79"/><g id="12b38ee4-aaaa-45ae-a996-c02fdf979afe" data-name="sign"><path class="5b574533-1ed2-4e18-bb70-665c4cf4e895" d="M179.35,60.8l-.47,10h-1l-.47-10Zm-.07,14.27h-1.83V72.73h1.83Z"/></g><rect id="14194b3d-6ba5-4102-a272-a3d467bd9366" data-name="hidden" class="0c0f1c9e-42bc-4706-897a-58c44687a5ee" x="73.81" y="50.5" width="195.82" height="107.06"/></g><g class="0108a751-9019-4dad-bb1c-dcbebd0e19c8"><polygon class="358625af-3353-4b19-a947-8ceaae4dc79f" points="566.03 241.37 565.94 273.98 407.62 365.98 407.71 333.38 566.03 241.37"/><polygon class="358625af-3353-4b19-a947-8ceaae4dc79f" points="407.71 333.38 407.62 365.98 282.82 293.93 282.91 261.32 407.71 333.38"/><polygon class="307880a2-0891-46e1-9e2a-12411505d1b1" points="566.03 241.37 407.71 333.38 282.91 261.32 441.23 169.32 566.03 241.37"/></g><g class="0108a751-9019-4dad-bb1c-dcbebd0e19c8"><polygon class="358625af-3353-4b19-a947-8ceaae4dc79f" points="375.67 335.65 375.58 368.25 267.44 431.1 267.53 398.49 375.67 335.65"/><polygon class="358625af-3353-4b19-a947-8ceaae4dc79f" points="267.53 398.49 267.44 431.1 63.53 313.37 63.62 280.77 267.53 398.49"/><polygon class="307880a2-0891-46e1-9e2a-12411505d1b1" points="375.67 335.65 267.53 398.49 63.62 280.77 171.76 217.92 375.67 335.65"/></g><g id="48bfd078-06af-422b-8650-a343e2edecaa" data-name="roof"><path class="7ab1964c-b7f7-4a2a-9b5e-aa1b3f343846" d="M491.47,242.3v26.93s1.72,3,4.43,0V242.3Z"/><path class="7ab1964c-b7f7-4a2a-9b5e-aa1b3f343846" d="M469.29,254.06V281s1.73,2.95,4.44,0V254.06Z"/><path class="7ab1964c-b7f7-4a2a-9b5e-aa1b3f343846" d="M446.49,242.52v26.93s1.73,3,4.43,0V242.52Z"/><polygon class="7ab1964c-b7f7-4a2a-9b5e-aa1b3f343846" points="471.51 230.7 448.71 243.86 471.51 256.64 494.31 243.86 471.51 230.7"/><polygon class="358625af-3353-4b19-a947-8ceaae4dc79f" points="471.51 226.48 445.1 241.73 471.51 256.53 497.92 241.73 471.51 226.48"/><path class="58d10613-3654-4fd5-832e-12a64347616e" d="M445.1,241.85c15.94-2.29,26.41-16.58,26.41-16.58V223"/><path class="58d10613-3654-4fd5-832e-12a64347616e" d="M471.51,256.64V225.39S484.1,241,496.68,241"/><ellipse class="7ab1964c-b7f7-4a2a-9b5e-aa1b3f343846" cx="471.68" cy="221.69" rx="1.73" ry="0.73"/><path class="7ab1964c-b7f7-4a2a-9b5e-aa1b3f343846" d="M470,221.69v5.42s.13.93,1.56,1a2,2,0,0,0,1.9-1v-5.42"/><path class="7ab1964c-b7f7-4a2a-9b5e-aa1b3f343846" d="M470,221.69v5.42s.13.93,1.56,1a2,2,0,0,0,1.9-1v-5.42"/><ellipse class="7ab1964c-b7f7-4a2a-9b5e-aa1b3f343846" cx="471.68" cy="221.69" rx="1.73" ry="0.73"/><polygon class="358625af-3353-4b19-a947-8ceaae4dc79f" points="445.1 241.85 445.1 245.37 471.51 260.23 471.51 256.65 445.1 241.85"/><polygon class="358625af-3353-4b19-a947-8ceaae4dc79f" points="497.92 241.5 497.92 245.03 471.51 259.89 471.51 256.31 497.92 241.5"/></g><g id="339055ba-102e-4091-b7af-d709250b76c4" data-name="roof"><path class="7ab1964c-b7f7-4a2a-9b5e-aa1b3f343846" d="M444.43,269.84v26.94s1.72,3,4.43,0V269.84Z"/><path class="7ab1964c-b7f7-4a2a-9b5e-aa1b3f343846" d="M422.26,281.49v26.94s1.72,2.95,4.43,0V281.49Z"/><path class="7ab1964c-b7f7-4a2a-9b5e-aa1b3f343846" d="M399.45,270.06V297s1.73,2.95,4.44,0V270.06Z"/><polygon class="7ab1964c-b7f7-4a2a-9b5e-aa1b3f343846" points="424.47 258.25 401.67 271.41 424.47 284.19 447.28 271.41 424.47 258.25"/><polygon class="358625af-3353-4b19-a947-8ceaae4dc79f" points="424.47 254.03 398.06 269.28 424.47 284.08 450.89 269.28 424.47 254.03"/><path class="58d10613-3654-4fd5-832e-12a64347616e" d="M398.06,269.4c15.95-2.29,26.41-16.58,26.41-16.58v-2.26"/><path class="58d10613-3654-4fd5-832e-12a64347616e" d="M424.47,284.19V252.94s12.59,15.62,25.18,15.62"/><ellipse class="7ab1964c-b7f7-4a2a-9b5e-aa1b3f343846" cx="424.64" cy="249.24" rx="1.73" ry="0.73"/><path class="7ab1964c-b7f7-4a2a-9b5e-aa1b3f343846" d="M422.91,249.24v5.42s.14.93,1.56,1a2,2,0,0,0,1.9-1v-5.42"/><path class="7ab1964c-b7f7-4a2a-9b5e-aa1b3f343846" d="M422.91,249.24v5.42s.14.93,1.56,1a2,2,0,0,0,1.9-1v-5.42"/><ellipse class="7ab1964c-b7f7-4a2a-9b5e-aa1b3f343846" cx="424.64" cy="249.24" rx="1.73" ry="0.73"/><polygon class="358625af-3353-4b19-a947-8ceaae4dc79f" points="398.06 269.4 398.06 272.92 424.47 287.78 424.47 284.2 398.06 269.4"/><polygon class="358625af-3353-4b19-a947-8ceaae4dc79f" points="450.89 269.05 450.89 272.57 424.47 287.43 424.47 283.85 450.89 269.05"/></g><path class="307880a2-0891-46e1-9e2a-12411505d1b1" d="M298.08,269.6s50-30.71,74.84-34.79C390.34,232,460.4,219,463.14,181.76l15.76,9.5c-1,13.88-15.9,29.9-32.61,39-21.39,11.61-69.78,22.33-82.53,26.81-13.38,4.7-41.62,19.31-45.73,24.46"/><g id="3be62a3f-38d0-4666-8bf8-301db3d9acb2" data-name="&lt;trigger_ride_bicycle&gt;"><ellipse class="c2c0d845-2fec-4610-bbd7-13fc7618da46" cx="388.12" cy="234.19" rx="2.54" ry="3.36" transform="translate(-31.32 62.29) rotate(-8.82)"/><polyline class="c2c0d845-2fec-4610-bbd7-13fc7618da46" points="388.44 234.81 386.56 239.06 387.53 240.8 385.75 240.15 385.23 238.6 386.56 239.06"/><polygon class="0412dd0d-0fe7-44d3-a07d-e8a8af277b64" points="381.54 222.37 379.49 221.82 380.31 218.78 374.18 214.39 371.5 215.75 370.54 213.87 374.37 211.92 382.74 217.91 381.54 222.37"/><g class="0108a751-9019-4dad-bb1c-dcbebd0e19c8"><g class="dd265200-a961-47d4-92e3-d0f90d4fb770"><path class="362effac-4d99-485c-a14c-e10657134acd" d="M373.27,241.84,371.41,248a7.78,7.78,0,0,0,2.37.09,7.93,7.93,0,0,0,1.54-.31l-1.25-5.91-.18,0a2.14,2.14,0,0,1-.62,0m2-.59a2.88,2.88,0,0,1-.75.45l1.24,5.89a9.6,9.6,0,0,0,3.49-2.21l-4-4.13m-3.08.07-4.52,4.7a7.3,7.3,0,0,0,3.29,1.84l1.86-6.14a2.18,2.18,0,0,1-.63-.4m3.92-1.2a2.83,2.83,0,0,1-.48.78l4,4.11a10.11,10.11,0,0,0,2.13-3.62l-5.62-1.27m-4.56.21-6,2a7.74,7.74,0,0,0,1.79,3.4l4.51-4.71a2.15,2.15,0,0,1-.33-.66m10.53-3.49-5.77,1.91c0,.1,0,.2,0,.3a2.35,2.35,0,0,1-.07.6l5.62,1.27a9.47,9.47,0,0,0,.34-2.49,8.25,8.25,0,0,0-.14-1.59m-16.39.93a9,9,0,0,0-.35,2.48,9.13,9.13,0,0,0,.14,1.59l6-2a3.47,3.47,0,0,1,0-.79l-5.79-1.31M380.22,233l-4.4,4.57a2.13,2.13,0,0,1,.4.74l5.78-1.9a7.81,7.81,0,0,0-1.78-3.41m-12.25.7a10,10,0,0,0-2.13,3.62l5.79,1.3a3.32,3.32,0,0,1,.4-.71L368,233.68m8.65-2.87-1.84,6.06a2.14,2.14,0,0,1,.72.37l4.41-4.58a7.23,7.23,0,0,0-3.29-1.85m-4.81.27a9.73,9.73,0,0,0-3.5,2.23l4.06,4.21a2.68,2.68,0,0,1,.69-.48l-1.25-6m2-.46a8,8,0,0,0-1.55.31l1.25,5.94a2.7,2.7,0,0,1,.39-.08h.43l1.84-6.08a7.71,7.71,0,0,0-2.36-.09"/><path class="ab94d359-bb39-4154-bbe8-94fe3504ddfc" d="M371.81,231.08l-.2-.91.46-.15.19.91a8,8,0,0,1,1.55-.31,7.71,7.71,0,0,1,2.36.09l.29-.94.44.1-.28.94a7.23,7.23,0,0,1,3.29,1.85l.69-.72.31.32-.69.72a7.81,7.81,0,0,1,1.78,3.41l.91-.3,0,.23h0l.05.23-.91.29a8.25,8.25,0,0,1,.14,1.59,9.47,9.47,0,0,1-.34,2.49l.88.2-.07.23h0l-.07.24-.89-.2a10.11,10.11,0,0,1-2.13,3.62l.63.65-.18.18-.18.19-.62-.65a9.6,9.6,0,0,1-3.49,2.21l.19.93-.22.07-.23.08-.19-.93a7.93,7.93,0,0,1-1.54.31,7.78,7.78,0,0,1-2.37-.09l-.29,1-.44-.1.29-1a7.3,7.3,0,0,1-3.29-1.84l-.7.73-.15-.16h0l-.16-.16.71-.73a7.74,7.74,0,0,1-1.79-3.4l-.92.3-.05-.23-.05-.23.92-.3a9.13,9.13,0,0,1-.14-1.59,9,9,0,0,1,.35-2.48l-.89-.2.07-.23h0l.07-.24.89.2a10,10,0,0,1,2.13-3.62l-.63-.65.34-.37.63.65a9.73,9.73,0,0,1,3.5-2.23m2-2.38a12,12,0,0,0-10.32,11.75A9.2,9.2,0,0,0,373.78,250a12,12,0,0,0,10.32-11.75,9.21,9.21,0,0,0-10.28-9.52"/><path class="ab94d359-bb39-4154-bbe8-94fe3504ddfc" d="M375.64,240.9a2.38,2.38,0,0,1-.36.35l4,4.13.62.65.18-.19.18-.18-.63-.65-4-4.11m-8-8.24-.34.37.63.65,4.06,4.21a4,4,0,0,1,.34-.37l-4.06-4.21-.63-.65"/><path class="362effac-4d99-485c-a14c-e10657134acd" d="M382.7,241.35h0m-17.83-4h0"/><path class="ab94d359-bb39-4154-bbe8-94fe3504ddfc" d="M376.27,239.65a2.57,2.57,0,0,1-.15.47l5.62,1.27.89.2.07-.24.07-.23-.88-.2-5.62-1.27M365,237.1l-.07.24-.07.23.89.2,5.79,1.31a4.34,4.34,0,0,1,.14-.48l-5.79-1.3-.89-.2"/><polyline class="362effac-4d99-485c-a14c-e10657134acd" points="382.96 236.32 382.95 236.32 382.96 236.32"/><path class="ab94d359-bb39-4154-bbe8-94fe3504ddfc" d="M371.46,239.87l-6,2-.92.3.05.23.05.23.92-.3,6-2a2.36,2.36,0,0,1-.1-.46m11.45-3.78-.91.3-5.78,1.9a2.36,2.36,0,0,1,.1.46l5.77-1.91.91-.29-.05-.23,0-.23"/><polyline class="362effac-4d99-485c-a14c-e10657134acd" points="366.83 246.59 366.82 246.59 366.83 246.59"/><path class="ab94d359-bb39-4154-bbe8-94fe3504ddfc" d="M371.89,241l-4.51,4.71-.71.73.16.16.15.16.7-.73,4.52-4.7a1.93,1.93,0,0,1-.31-.33m8.71-9.05-.69.72-4.41,4.58a2.34,2.34,0,0,1,.32.31l4.4-4.57.69-.72-.31-.32"/><path class="ab94d359-bb39-4154-bbe8-94fe3504ddfc" d="M372.83,241.72,371,247.86l-.29,1,.44.1.29-1,1.86-6.12a3.17,3.17,0,0,1-.44-.12m3.63-11.95-.29.94-1.84,6.08a2.36,2.36,0,0,1,.45.08l1.84-6.06.28-.94-.44-.1"/><path class="ab94d359-bb39-4154-bbe8-94fe3504ddfc" d="M374.53,241.7a3.47,3.47,0,0,1-.46.13l1.25,5.91.19.93.23-.08.22-.07-.19-.93-1.24-5.89M372.07,230l-.46.15.2.91,1.25,6a2.2,2.2,0,0,1,.45-.17l-1.25-5.94-.19-.91"/><path class="362effac-4d99-485c-a14c-e10657134acd" d="M373.9,237.75a1.79,1.79,0,0,0-1.53,1.73,1.37,1.37,0,0,0,1.52,1.41,1.77,1.77,0,0,0,1.52-1.73,1.36,1.36,0,0,0-1.51-1.41"/><path class="ab94d359-bb39-4154-bbe8-94fe3504ddfc" d="M373.89,240.89a1.37,1.37,0,0,1-1.52-1.41,1.79,1.79,0,0,1,1.53-1.73,1.36,1.36,0,0,1,1.51,1.41,1.77,1.77,0,0,1-1.52,1.73m0-4.1a2.7,2.7,0,0,0-.39.08,2.2,2.2,0,0,0-.45.17,2.68,2.68,0,0,0-.69.48,4,4,0,0,0-.34.37,3.32,3.32,0,0,0-.4.71,4.34,4.34,0,0,0-.14.48,3.47,3.47,0,0,0,0,.79,2.36,2.36,0,0,0,.1.46,2.15,2.15,0,0,0,.33.66,1.93,1.93,0,0,0,.31.33,2.18,2.18,0,0,0,.63.4,3.17,3.17,0,0,0,.44.12,2.14,2.14,0,0,0,.62,0l.18,0a3.47,3.47,0,0,0,.46-.13,2.88,2.88,0,0,0,.75-.45,2.38,2.38,0,0,0,.36-.35,2.83,2.83,0,0,0,.48-.78,2.57,2.57,0,0,0,.15-.47,2.35,2.35,0,0,0,.07-.6c0-.1,0-.2,0-.3a2.36,2.36,0,0,0-.1-.46,2.13,2.13,0,0,0-.4-.74,2.34,2.34,0,0,0-.32-.31,2.14,2.14,0,0,0-.72-.37,2.36,2.36,0,0,0-.45-.08h-.43"/></g></g><g class="0108a751-9019-4dad-bb1c-dcbebd0e19c8"><g class="5cc75b27-7d82-4238-971c-e5333fbf8af9"><path class="362effac-4d99-485c-a14c-e10657134acd" d="M399.37,233.62l-1.86,6.13a8.1,8.1,0,0,0,2.37.1,9,9,0,0,0,1.54-.32l-1.25-5.92-.18,0a2.56,2.56,0,0,1-.62,0m2-.59a2.72,2.72,0,0,1-.75.45l1.25,5.9a9.63,9.63,0,0,0,3.48-2.22l-4-4.13m-3.08.08-4.51,4.7a7.31,7.31,0,0,0,3.28,1.84l1.86-6.15a2,2,0,0,1-.63-.39m3.92-1.2a3,3,0,0,1-.48.78l4,4.11a10.22,10.22,0,0,0,2.14-3.62l-5.63-1.27m-4.56.2-6,2a7.82,7.82,0,0,0,1.78,3.4l4.53-4.7a2.23,2.23,0,0,1-.34-.67m10.54-3.48-5.78,1.91a3,3,0,0,1,0,.31,2.38,2.38,0,0,1-.07.59L408,232.7a9,9,0,0,0,.21-4.07m-16.41.93a9.34,9.34,0,0,0-.34,2.48,9.1,9.1,0,0,0,.14,1.58l6-2a2.45,2.45,0,0,1,0-.27,2.84,2.84,0,0,1,.05-.51l-5.81-1.31m14.53-4.8-4.4,4.58a2.31,2.31,0,0,1,.4.74l5.79-1.9a7.81,7.81,0,0,0-1.79-3.42m-12.25.7a10.15,10.15,0,0,0-2.13,3.63l5.8,1.3a3.39,3.39,0,0,1,.4-.72l-4.07-4.21m8.65-2.87-1.84,6.07a2.24,2.24,0,0,1,.72.37l4.41-4.59a7.42,7.42,0,0,0-3.29-1.85m-4.81.28a9.48,9.48,0,0,0-3.49,2.23l4.06,4.21a2.47,2.47,0,0,1,.68-.48l-1.25-6m2-.47a8,8,0,0,0-1.55.32l1.25,5.94a2.66,2.66,0,0,1,.39-.07,2.08,2.08,0,0,1,.43,0l1.85-6.09a8.11,8.11,0,0,0-2.37-.09"/><path class="ab94d359-bb39-4154-bbe8-94fe3504ddfc" d="M397.91,222.87l-.2-.92.46-.15.19.92a8.21,8.21,0,0,1,3.92-.23l.28-.93.22.05h0l.22,0-.28.93a7.42,7.42,0,0,1,3.29,1.85l.69-.72.15.17h0l.16.16-.69.71a7.81,7.81,0,0,1,1.79,3.42l.9-.3.1.46-.91.29a9,9,0,0,1-.21,4.07l.89.2-.08.24h0l-.07.23-.88-.19a10.22,10.22,0,0,1-2.14,3.62l.63.65-.35.36-.63-.65a9.63,9.63,0,0,1-3.48,2.22l.19.93-.46.15-.19-.93a9,9,0,0,1-1.54.32,8.1,8.1,0,0,1-2.37-.1l-.29.95-.22,0h0l-.22,0,.29-1a7.31,7.31,0,0,1-3.28-1.84l-.71.73-.31-.33.7-.73a7.82,7.82,0,0,1-1.78-3.4l-.92.3,0-.23h0l-.05-.22.91-.31a9.1,9.1,0,0,1-.14-1.58,9.34,9.34,0,0,1,.34-2.48l-.88-.2.14-.47.89.2a10.15,10.15,0,0,1,2.13-3.63l-.62-.65.17-.18h0l.17-.18.63.65a9.48,9.48,0,0,1,3.49-2.23m2-2.39a12,12,0,0,0-10.32,11.76,9.21,9.21,0,0,0,10.28,9.53A12,12,0,0,0,410.2,230c0-5.87-4.6-10.15-10.28-9.53"/><polyline class="362effac-4d99-485c-a14c-e10657134acd" points="393.62 224.63 393.62 224.63 393.62 224.63"/><path class="ab94d359-bb39-4154-bbe8-94fe3504ddfc" d="M401.74,232.69a2.9,2.9,0,0,1-.36.34l4,4.13.63.65.35-.36-.63-.65-4-4.11m-7.95-8.24-.17.18-.17.18.62.65,4.07,4.21a2.9,2.9,0,0,1,.34-.36l-4.06-4.21-.63-.65"/><polyline class="362effac-4d99-485c-a14c-e10657134acd" points="408.8 233.14 408.8 233.14 408.8 233.14"/><path class="ab94d359-bb39-4154-bbe8-94fe3504ddfc" d="M402.37,231.44a2,2,0,0,1-.15.47l5.63,1.27.88.19.07-.23.08-.24-.89-.2-5.62-1.26m-11.32-2.55-.14.47.88.2,5.81,1.31a2.9,2.9,0,0,1,.14-.48l-5.8-1.3-.89-.2"/><polyline class="362effac-4d99-485c-a14c-e10657134acd" points="390.73 234.15 390.72 234.16 390.73 234.15"/><path class="ab94d359-bb39-4154-bbe8-94fe3504ddfc" d="M397.57,231.65l-6,2-.91.31.05.22,0,.23.92-.3,6-2a3.12,3.12,0,0,1-.09-.46M409,227.88l-.9.3-5.79,1.9a2.36,2.36,0,0,1,.1.46l5.78-1.91.91-.29-.1-.46"/><polyline class="362effac-4d99-485c-a14c-e10657134acd" points="406.86 223.89 406.85 223.89 406.86 223.89"/><path class="ab94d359-bb39-4154-bbe8-94fe3504ddfc" d="M398,232.78l-4.53,4.7-.7.73.31.33.71-.73,4.51-4.7a2.35,2.35,0,0,1-.3-.33m8.7-9.06-.69.72L401.6,229a3.11,3.11,0,0,1,.32.31l4.4-4.58.69-.71-.16-.16-.15-.17"/><path class="362effac-4d99-485c-a14c-e10657134acd" d="M397,240.66h0m5.78-19.06h0"/><path class="ab94d359-bb39-4154-bbe8-94fe3504ddfc" d="M398.93,233.5l-1.86,6.15-.29,1,.22,0,.22,0,.29-.95,1.86-6.13a3.17,3.17,0,0,1-.44-.12m3.63-11.94-.28.93-1.85,6.09a2.36,2.36,0,0,1,.45.08l1.84-6.07.28-.93-.22,0-.22-.05"/><path class="ab94d359-bb39-4154-bbe8-94fe3504ddfc" d="M400.63,233.48a2.42,2.42,0,0,1-.46.13l1.25,5.92.19.93.46-.15-.19-.93-1.25-5.9m-2.46-11.68-.46.15.2.92,1.25,6a2.75,2.75,0,0,1,.45-.17l-1.25-5.94-.19-.92"/><path class="362effac-4d99-485c-a14c-e10657134acd" d="M400,229.55a1.76,1.76,0,0,0-1.52,1.73,1.36,1.36,0,0,0,1.51,1.4,1.77,1.77,0,0,0,1.52-1.73,1.35,1.35,0,0,0-1.51-1.4"/><path class="ab94d359-bb39-4154-bbe8-94fe3504ddfc" d="M400,232.68a1.36,1.36,0,0,1-1.51-1.4,1.76,1.76,0,0,1,1.52-1.73,1.35,1.35,0,0,1,1.51,1.4,1.77,1.77,0,0,1-1.52,1.73m0-4.09a2.66,2.66,0,0,0-.39.07,2.75,2.75,0,0,0-.45.17,2.47,2.47,0,0,0-.68.48,2.9,2.9,0,0,0-.34.36,3.39,3.39,0,0,0-.4.72,2.9,2.9,0,0,0-.14.48,2.84,2.84,0,0,0-.05.51,2.45,2.45,0,0,0,0,.27,3.12,3.12,0,0,0,.09.46,2.23,2.23,0,0,0,.34.67,2.35,2.35,0,0,0,.3.33,2,2,0,0,0,.63.39,3.17,3.17,0,0,0,.44.12,2.56,2.56,0,0,0,.62,0l.18,0a2.42,2.42,0,0,0,.46-.13,2.72,2.72,0,0,0,.75-.45,2.9,2.9,0,0,0,.36-.34,3,3,0,0,0,.48-.78,2,2,0,0,0,.15-.47,2.38,2.38,0,0,0,.07-.59,3,3,0,0,0,0-.31,2.36,2.36,0,0,0-.1-.46,2.31,2.31,0,0,0-.4-.74,3.11,3.11,0,0,0-.32-.31,2.24,2.24,0,0,0-.72-.37,2.36,2.36,0,0,0-.45-.08,2.08,2.08,0,0,0-.43,0"/></g></g><line class="1973d0b6-f987-4e70-89c6-74ebd6cb456c" x1="377.81" y1="216.81" x2="373.9" y2="239.33"/><polyline class="2996f9ae-e83b-4c7c-877e-c6a673b2d75d" points="393.12 219.61 388.12 236.16 376.45 224.64 393.12 219.61 400.01 231.12"/><line class="ed362e9e-e99d-44ae-85d3-de63b53fb91a" x1="414.79" y1="225.79" x2="431.62" y2="221.75"/><line class="ed362e9e-e99d-44ae-85d3-de63b53fb91a" x1="411.14" y1="218.86" x2="423.21" y2="216.36"/><line class="ed362e9e-e99d-44ae-85d3-de63b53fb91a" x1="416.81" y1="220.11" x2="428.88" y2="217.61"/><g id="54d0b100-e0c6-4cda-9a74-c28063a41b54" data-name="child"><path class="a305f7e3-a4dc-407f-a18d-c8e9a642fab5" d="M388.68,205.5s-6,14.55-2.67,16.12,12.35,1.71,11.94-5a35.74,35.74,0,0,0-3-12.12Z"/><ellipse class="a305f7e3-a4dc-407f-a18d-c8e9a642fab5" cx="391.48" cy="201.33" rx="5.87" ry="6.36" transform="translate(-46 152.37) rotate(-20.83)"/><ellipse class="a305f7e3-a4dc-407f-a18d-c8e9a642fab5" cx="388.57" cy="199.81" rx="0.23" ry="0.25"/><path class="a305f7e3-a4dc-407f-a18d-c8e9a642fab5" d="M397.33,219.21a42.56,42.56,0,0,1-5.63,9.45c-2.54,3.11-2.83,6.62-3.51,8.46l-2.34-.71-1.51-8.72.74-6.46S392.91,221.92,397.33,219.21Z"/><path class="a305f7e3-a4dc-407f-a18d-c8e9a642fab5" d="M388.19,237.12l-1.05,2.12-3.74-1.84s-1.46-2.18,1-2.12,2.31,1.13,2.31,1.13Z"/><path class="a305f7e3-a4dc-407f-a18d-c8e9a642fab5" d="M390.48,212.91s-7.27,5.22-9.07,5.35,10-.3,10.95-4"/></g><path class="ca35bf2a-c048-4744-85a4-bc70a3e8400b" d="M387.43,196.56s1.31-5.31,2.76-5.81l.79,1s4.49-.84,5.35.42a12.52,12.52,0,0,0,2.22,2.37s-.69,3.3,0,3.55-1.8,3.3-1.8,3.3l-1.88-4.84-2.39-1.18-3.13.14Z"/><path class="358625af-3353-4b19-a947-8ceaae4dc79f" d="M386.24,196.47s6.25,5,11.73,3.68S392,181.08,386.24,196.47Z"/><path class="358625af-3353-4b19-a947-8ceaae4dc79f" d="M399.08,196.29s4.12.35,4.06,2.74-6.88,1.12-6.88,1.12Z"/><g id="2eceef66-0a5b-4bae-8f7b-fbc71db4b268" data-name="sign"><path class="5b574533-1ed2-4e18-bb70-665c4cf4e895" d="M423.89,185.62l-.5,10.65H422.3l-.49-10.65Zm-.07,15.13h-1.95v-2.49h1.95Z"/></g><rect id="aaf5a333-fa55-4c90-af0a-53df200ff7b4" data-name="hidden" class="0c0f1c9e-42bc-4706-897a-58c44687a5ee" x="354.69" y="168.01" width="80.46" height="88.32"/></g><g id="23f773b4-eeb7-46be-8e4c-28ba651b22b9" data-name="child"><path class="e0fdc660-d86f-46c8-b3bc-cc6adb4c668a" d="M292.86,324.8s-6,15.68-2.67,17.22,12.38,1.06,12-5.56a43.28,43.28,0,0,0-3-12.69Z"/><ellipse class="e0fdc660-d86f-46c8-b3bc-cc6adb4c668a" cx="295.67" cy="320.7" rx="5.86" ry="6.26" transform="translate(-113.37 169.2) rotate(-27)"/><ellipse class="e0fdc660-d86f-46c8-b3bc-cc6adb4c668a" cx="292.75" cy="319.22" rx="0.23" ry="0.25"/><path class="e0fdc660-d86f-46c8-b3bc-cc6adb4c668a" d="M301.53,339.48s-5.61,8.66-7.29,13.07H292.7l-3.45-11.09S297.1,342.14,301.53,339.48Z"/><path class="e0fdc660-d86f-46c8-b3bc-cc6adb4c668a" d="M294.47,352.55v2.33h-4.18s-2.28-1.29,0-2.33,2.57,0,2.57,0Z"/><path class="e0fdc660-d86f-46c8-b3bc-cc6adb4c668a" d="M293.27,331.46s-2.77,8.46-4.15,9.65,7.88-6.26,6.42-9.76"/></g><path class="30376737-e8ac-441f-adb1-94a0aa84dbe8" d="M291.61,316s1.32-5.2,2.76-5.7l.8,1s4.5-.82,5.36.42a12.5,12.5,0,0,0,2.22,2.32s-.68,3.23,0,3.48-1.8,3.25-1.8,3.25L299.07,316l-2.4-1.15-3.13.13Z"/><g id="2ca27fd5-c9ed-4551-acf4-c938e5acc5ef" data-name="tree"><path class="4ad58d5a-d0c9-4e66-ab29-a2dc503c659e" d="M439.45,148.65s1.33,15.62,0,18.11-2.27,13.59-2.27,13.59-1.56,6.86-8.51,7.93l4.82.2,6.55-2.64,2.71,1.51v1.71s2.52,1.74,3.57.87a26.79,26.79,0,0,1-1.68-3.25c-.63-1.55-.74-.84-.74-.84s4.31.22,5.58-.74l-1.9-.87-2.25-3.61A135.88,135.88,0,0,1,447.58,160s1.9-7.61,3.37-10.41l-1.9-.55s-2.73,8.28-3.36,9.27l.63-1s-3.79-5.82-3.57-9.16C442.75,148.14,441.41,147.31,439.45,148.65Z"/><path class="7ab1964c-b7f7-4a2a-9b5e-aa1b3f343846" d="M470.44,136a14.94,14.94,0,0,0,.18-3.12,16,16,0,1,0-21.44-23.18,14.64,14.64,0,0,0-5.49-2.41,14.89,14.89,0,0,0-5.52-.1,12.56,12.56,0,0,0-19.41,7.75,12.75,12.75,0,0,0-.21,3.83,14,14,0,0,0,2.12,25.81,15.12,15.12,0,0,0,.91,1.67,14.26,14.26,0,0,0,19.73,4.16,13.81,13.81,0,0,0,2.32-1.88A14.95,14.95,0,1,0,470.44,136Z"/></g><path class="358625af-3353-4b19-a947-8ceaae4dc79f" d="M510.84,224.75v10.06s.72,1.44,2.16,0V222.59L510.12,224Z"/><path class="358625af-3353-4b19-a947-8ceaae4dc79f" d="M518,220.55v10.59s.76,1.51,2.27,0V219.61l-3,.18Z"/><path class="358625af-3353-4b19-a947-8ceaae4dc79f" d="M491.5,213.46v10.07s.71,1.44,2.15,0V211.31l-2.87,1.44Z"/><path class="358625af-3353-4b19-a947-8ceaae4dc79f" d="M503.11,209.79l-2-.75,2.54-6.44a.3.3,0,0,1,.58.07l2.45-.11Z"/><polygon class="358625af-3353-4b19-a947-8ceaae4dc79f" points="517.05 217.75 515.07 217.01 518.07 207.57 520.07 209.57 517.05 217.75"/><g class="0108a751-9019-4dad-bb1c-dcbebd0e19c8"><polygon class="307880a2-0891-46e1-9e2a-12411505d1b1" points="518.53 223.13 495.15 209.54 495.14 206.83 518.52 220.42 518.53 223.13"/><polygon class="307880a2-0891-46e1-9e2a-12411505d1b1" points="518.52 220.42 495.14 206.83 497.5 205.47 520.88 219.06 518.52 220.42"/><polygon class="307880a2-0891-46e1-9e2a-12411505d1b1" points="520.88 219.06 520.89 221.77 518.53 223.13 518.52 220.42 520.88 219.06"/></g><g class="0108a751-9019-4dad-bb1c-dcbebd0e19c8"><polygon class="307880a2-0891-46e1-9e2a-12411505d1b1" points="513.55 225.78 490.17 212.19 490.16 209.49 513.54 223.07 513.55 225.78"/><polygon class="307880a2-0891-46e1-9e2a-12411505d1b1" points="513.54 223.07 490.16 209.49 492.52 208.13 515.9 221.71 513.54 223.07"/><polygon class="307880a2-0891-46e1-9e2a-12411505d1b1" points="515.9 221.71 515.91 224.42 513.55 225.78 513.54 223.07 515.9 221.71"/></g><g class="0108a751-9019-4dad-bb1c-dcbebd0e19c8"><polygon class="307880a2-0891-46e1-9e2a-12411505d1b1" points="524.38 211.3 500.99 197.71 503.07 197.04 526.45 210.63 524.38 211.3"/><polygon class="307880a2-0891-46e1-9e2a-12411505d1b1" points="523.92 213.94 500.54 200.35 500.99 197.71 524.38 211.3 523.92 213.94"/><polygon class="307880a2-0891-46e1-9e2a-12411505d1b1" points="524.38 211.3 526.45 210.63 525.99 213.28 523.92 213.94 524.38 211.3"/></g><g class="0108a751-9019-4dad-bb1c-dcbebd0e19c8"><polygon class="307880a2-0891-46e1-9e2a-12411505d1b1" points="526.04 205.32 502.66 191.73 504.73 191.06 528.11 204.65 526.04 205.32"/><polygon class="307880a2-0891-46e1-9e2a-12411505d1b1" points="525.59 207.96 502.2 194.37 502.66 191.73 526.04 205.32 525.59 207.96"/><polygon class="307880a2-0891-46e1-9e2a-12411505d1b1" points="526.04 205.32 528.11 204.65 527.66 207.29 525.59 207.96 526.04 205.32"/></g><line class="32f0822c-2d6a-4b34-b398-24ecee99d000" x1="170.34" y1="285.73" x2="186.09" y2="293.66"/><line class="32f0822c-2d6a-4b34-b398-24ecee99d000" x1="178.22" y1="284.77" x2="193.97" y2="292.69"/><g id="003b1e06-0fab-41b1-b037-209d3c77add4" data-name="&lt;trigger_jogging&gt;"><g id="5499efe1-31f2-49b7-baf5-873f2caf0bdf" data-name="man"><path class="f8fc690c-bfbb-4db2-b37d-fc05adbe1444" d="M160.38,222.32s-5.24-2.44-7,2.17-1.17,4.72-1.17,4.72l2,.84-.23,6.91s7.86,0,8.88-1.61-1.55-8.61-1.55-8.61,1.53-.39,1.53-1.38-1.15-1.23-2.16-.25S160.38,222.32,160.38,222.32Z"/><ellipse class="029fdeea-c41e-443f-98b5-88e942b810d6" cx="155.69" cy="224.87" rx="0.19" ry="0.2"/><path class="30376737-e8ac-441f-adb1-94a0aa84dbe8" d="M154.43,222.51s1.13-4.42,2.35-4.85l.68.85s3.83-.71,4.56.35a10.81,10.81,0,0,0,1.89,2s-.58,2.75,0,3-3.39,1.83-3.39,1.83l.26-3.12-2-1-2.66.11Z"/><path class="358625af-3353-4b19-a947-8ceaae4dc79f" d="M162.82,234.84s11.48,18,10.32,29.14c0,0-17.22,1.38-22.83-2,0,0,1-21.47,3.63-25.36C153.94,236.58,160.9,236.48,162.82,234.84Z"/><path class="e0fdc660-d86f-46c8-b3bc-cc6adb4c668a" d="M173.23,264.31A115.82,115.82,0,0,0,164,278.5c-2.22,4.14-2.12,8.31-4.05,12.37l-2.22,1.73S151,284.14,150,277c-.8-5.77.8-10.9.75-14.81"/><path class="7ab1964c-b7f7-4a2a-9b5e-aa1b3f343846" d="M161.05,290.39l.57,3.31s-5.15,2.91-8.58,1.48L156.7,292Z"/><rect class="77ad4815-06f2-487a-b1e4-4d98eaf04fad" x="160.19" y="223.01" width="3.1" height="1.35" rx="0.48" ry="0.48" transform="translate(323.47 447.37) rotate(-180)"/><path class="f8fc690c-bfbb-4db2-b37d-fc05adbe1444" d="M161.42,242.27c-4.67,8.68-22.48,10.22-22.48,10.22,1.64-.1,15.87-10.51,15.68-10.34"/></g><path class="358625af-3353-4b19-a947-8ceaae4dc79f" d="M155.13,239.87,149.2,245l3.65,3.5s4.93,2.53,9-5.42"/><path class="4fe533bb-02d2-48c8-a7a0-3175f71db6c8" d="M173.23,263.87s-4.5,5.8-9.95,17.25l-12.74-.18a83.1,83.1,0,0,0-.73-9.52c-.42-3.06,1-6.49,1-9.69"/><line class="d40e7b73-7214-4c86-bd95-f6299418fe19" x1="161.48" y1="265.32" x2="159.2" y2="278.15"/><line class="d40e7b73-7214-4c86-bd95-f6299418fe19" x1="163.91" y1="265.67" x2="161.64" y2="278.5"/><rect id="cb2ad812-741c-4995-af49-42550999ce31" data-name="hidden" class="0c0f1c9e-42bc-4706-897a-58c44687a5ee" x="114.4" y="212.86" width="75.93" height="83.35"/><g id="b6384f99-13a1-46b5-afa6-43495424e0e6" data-name="sign"><path class="5b574533-1ed2-4e18-bb70-665c4cf4e895" d="M137.89,237.55l-.47,10h-1l-.46-10Zm-.06,14.27H136v-2.35h1.84Z"/></g></g><g id="4be577be-34d8-46be-b391-d242739637dd" data-name="&lt;trigger_grass&gt;"><polyline class="7ab1964c-b7f7-4a2a-9b5e-aa1b3f343846" points="271.32 365.13 270.97 358.19 276.02 363.17 278.17 360.41 281.92 364.99"/><polyline class="58d10613-3654-4fd5-832e-12a64347616e" points="262.65 331.5 262.07 326.92 264.01 329.21 265.08 326.54 267.82 329.02 269.56 326.92 269.56 331.5"/><path class="58d10613-3654-4fd5-832e-12a64347616e" d="M273.53,310.89l-1.62-6.42,4.35,5L281,306a16,16,0,0,0-1.55,6.13"/><path class="58d10613-3654-4fd5-832e-12a64347616e" d="M252.21,329.37s2.25-2.57-1.09-6.4c0,0,3.22.69,3.34,3.83l2.11-4.91v4.41l2.37-3.48s-2.46,1.46-.75,6.55"/><path class="58d10613-3654-4fd5-832e-12a64347616e" d="M312.44,336.34s3.23-2.57-1.56-6.4c0,0,4.62.69,4.79,3.83l3-4.91v4.41l3.42-3.49s-3.54,1.47-1.08,6.56"/><path class="58d10613-3654-4fd5-832e-12a64347616e" d="M236.76,341.93s3.22-2.57-1.57-6.4c0,0,4.62.69,4.79,3.83l3-4.91v4.41l3.41-3.48s-3.53,1.46-1.07,6.55"/><g id="f1f45cce-a2b7-4155-b227-e0faefd0afb4" data-name="sign"><path class="5b574533-1ed2-4e18-bb70-665c4cf4e895" d="M316.4,310.23l-.47,10h-1l-.47-10Zm-.06,14.28H314.5v-2.35h1.84Z"/></g><rect id="6bc35d7f-c985-4324-82b7-106c048fa32c" data-name="hidden" class="0c0f1c9e-42bc-4706-897a-58c44687a5ee" x="231.6" y="289.92" width="95.24" height="83.35"/></g><g id="e7c0b2f6-8bf0-40d1-ab8a-e4a28ee2cfc1" data-name="child"><path class="e0fdc660-d86f-46c8-b3bc-cc6adb4c668a" d="M232.05,304.3s6,15.69,2.67,17.22-12.37,1.07-12-5.56a43.08,43.08,0,0,1,3-12.69Z"/><ellipse class="e0fdc660-d86f-46c8-b3bc-cc6adb4c668a" cx="229.24" cy="300.2" rx="6.26" ry="5.86" transform="translate(-142.32 368.15) rotate(-63)"/><ellipse class="e0fdc660-d86f-46c8-b3bc-cc6adb4c668a" cx="232.16" cy="298.72" rx="0.23" ry="0.25"/><path class="e0fdc660-d86f-46c8-b3bc-cc6adb4c668a" d="M223.38,319s5.61,8.66,7.29,13.08h1.54l3.45-11.1S227.81,321.64,223.38,319Z"/><path class="e0fdc660-d86f-46c8-b3bc-cc6adb4c668a" d="M230.44,332.06v2.32h4.18s2.28-1.29,0-2.32-2.57,0-2.57,0Z"/><path class="e0fdc660-d86f-46c8-b3bc-cc6adb4c668a" d="M231.22,309.55s8.6,2.33,10.34,1.84-9.56,3.14-11.67,0"/></g><path class="30376737-e8ac-441f-adb1-94a0aa84dbe8" d="M233.31,295.52s-1.33-5.2-2.77-5.7l-.8,1s-4.5-.83-5.35.41a12.37,12.37,0,0,1-2.23,2.32s.68,3.24,0,3.49,1.8,3.24,1.8,3.24l1.88-4.76,2.4-1.15,3.13.13Z"/><circle class="358625af-3353-4b19-a947-8ceaae4dc79f" cx="260.22" cy="308.81" r="4.52"/><path class="58d10613-3654-4fd5-832e-12a64347616e" d="M241.38,308.29s3.38-2,12.41-2.56"/><path class="58d10613-3654-4fd5-832e-12a64347616e" d="M242.6,310s2.23-1.29,8.19-1.7"/><g id="39ddd08a-44f4-4e4b-8a1b-d2e921f07383" data-name="child"><path class="e0fdc660-d86f-46c8-b3bc-cc6adb4c668a" d="M209.68,316.71s6,15.68,2.68,17.22-12.38,1.06-12-5.56a42.92,42.92,0,0,1,3-12.69Z"/><ellipse class="e0fdc660-d86f-46c8-b3bc-cc6adb4c668a" cx="206.87" cy="312.61" rx="6.26" ry="5.86" transform="translate(-165.58 355) rotate(-63)"/><ellipse class="e0fdc660-d86f-46c8-b3bc-cc6adb4c668a" cx="209.79" cy="311.13" rx="0.23" ry="0.25"/><path class="e0fdc660-d86f-46c8-b3bc-cc6adb4c668a" d="M201,331.39s5.62,8.66,7.3,13.07h1.53l3.45-11.09S205.45,334.05,201,331.39Z"/><path class="e0fdc660-d86f-46c8-b3bc-cc6adb4c668a" d="M208.08,344.46v2.33h4.18s2.28-1.29,0-2.33-2.57,0-2.57,0Z"/><path class="e0fdc660-d86f-46c8-b3bc-cc6adb4c668a" d="M210.61,323.76s1.76,8.74,3,10.08-7.08-7.15-5.22-10.45"/></g><path class="30376737-e8ac-441f-adb1-94a0aa84dbe8" d="M210.94,307.93s-1.32-5.2-2.77-5.7l-.79,1s-4.5-.83-5.36.41a12.74,12.74,0,0,1-2.23,2.32s.69,3.24,0,3.48,1.8,3.25,1.8,3.25l1.89-4.76,2.39-1.15,3.14.13Z"/><path class="358625af-3353-4b19-a947-8ceaae4dc79f" d="M373.74,157.44l-.23,4.34s-65.81,22.4-133.07,91.81l-18.22-8.24s70.76-63.91,71.53-62.13S373.74,157.44,373.74,157.44Z"/><path class="307880a2-0891-46e1-9e2a-12411505d1b1" d="M351,145.16c-50.39,10.73-143.22,94.14-143.22,94.14l21.37,12.33s85.74-75.47,144.56-94.19Z"/><path class="08b2fc83-91ae-46e5-b326-1ad4a8abce93" d="M210.25,166.16s83.58-19.79,137.87-50.82"/><line class="ed362e9e-e99d-44ae-85d3-de63b53fb91a" x1="225.89" y1="162.88" x2="225.89" y2="221.2"/><line class="ed362e9e-e99d-44ae-85d3-de63b53fb91a" x1="247.08" y1="156.62" x2="247.08" y2="206.55"/><line class="ed362e9e-e99d-44ae-85d3-de63b53fb91a" x1="266.44" y1="150.6" x2="266.44" y2="191.41"/><line class="ed362e9e-e99d-44ae-85d3-de63b53fb91a" x1="282.61" y1="145.58" x2="282.61" y2="178.4"/><line class="ed362e9e-e99d-44ae-85d3-de63b53fb91a" x1="298.08" y1="139.39" x2="298.08" y2="169.41"/><line class="ed362e9e-e99d-44ae-85d3-de63b53fb91a" x1="314.01" y1="131.99" x2="314.01" y2="160.76"/><line class="ed362e9e-e99d-44ae-85d3-de63b53fb91a" x1="328.54" y1="124.94" x2="328.54" y2="152.92"/><g id="2e0167bc-4f59-466b-8356-617a39bad9b8" data-name="man"><path class="f8fc690c-bfbb-4db2-b37d-fc05adbe1444" d="M282.63,125.81s5.14-2.39,6.88,2.12,1.14,4.62,1.14,4.62l-1.94.83.23,6.76s-7.7,0-8.69-1.57,1.51-8.43,1.51-8.43-1.5-.39-1.49-1.36,1.12-1.2,2.11-.24S282.63,125.81,282.63,125.81Z"/><ellipse class="029fdeea-c41e-443f-98b5-88e942b810d6" cx="287.22" cy="128.3" rx="0.19" ry="0.2"/><path class="30376737-e8ac-441f-adb1-94a0aa84dbe8" d="M288.46,126s-1.11-4.33-2.31-4.74l-.66.83s-3.75-.69-4.46.34a10.62,10.62,0,0,1-1.86,1.94s.57,2.69,0,2.9,3.32,1.78,3.32,1.78l-.25-3,2-.95,2.61.11Z"/><path class="307880a2-0891-46e1-9e2a-12411505d1b1" d="M280.25,138.07S269,155.72,270.13,166.6c0,0,16.87,1.35,22.36-2,0,0-1-21-3.55-24.83C288.94,139.77,282.12,139.67,280.25,138.07Z"/><path class="4fe533bb-02d2-48c8-a7a0-3175f71db6c8" d="M270.05,166.92s8.58,14.79,13.91,26l4.47.79s3.51-20.3,3.61-28.88"/><path class="7ab1964c-b7f7-4a2a-9b5e-aa1b3f343846" d="M284,192.92v3.29s5.46,1.95,8.53,0l-4.06-2.5Z"/><rect class="77ad4815-06f2-487a-b1e4-4d98eaf04fad" x="279.79" y="126.48" width="3.03" height="1.33" rx="0.48" ry="0.48"/><path class="307880a2-0891-46e1-9e2a-12411505d1b1" d="M288.24,144.28s4.75,11.32,7.93,13.08c0,0-11.76-7.34-12.17-15.36"/></g><path class="08b2fc83-91ae-46e5-b326-1ad4a8abce93" d="M234.36,179.63s80.48-18.53,134.77-49.56"/><line class="ed362e9e-e99d-44ae-85d3-de63b53fb91a" x1="251.8" y1="175.25" x2="251.8" y2="232.47"/><line class="ed362e9e-e99d-44ae-85d3-de63b53fb91a" x1="271.19" y1="171.08" x2="271.19" y2="217.32"/><line class="ed362e9e-e99d-44ae-85d3-de63b53fb91a" x1="290.55" y1="164.17" x2="290.55" y2="202.98"/><line class="ed362e9e-e99d-44ae-85d3-de63b53fb91a" x1="306.72" y1="158.25" x2="306.72" y2="191.87"/><line class="ed362e9e-e99d-44ae-85d3-de63b53fb91a" x1="322.19" y1="152.86" x2="322.19" y2="181.78"/><line class="ed362e9e-e99d-44ae-85d3-de63b53fb91a" x1="337.62" y1="145.85" x2="337.62" y2="173.13"/><line class="ed362e9e-e99d-44ae-85d3-de63b53fb91a" x1="352" y1="138.68" x2="352" y2="165.95"/><g class="0108a751-9019-4dad-bb1c-dcbebd0e19c8"><polygon class="358625af-3353-4b19-a947-8ceaae4dc79f" points="204.6 227.98 212.58 223.34 212.52 244.91 204.54 249.55 204.6 227.98"/><polygon class="307880a2-0891-46e1-9e2a-12411505d1b1" points="204.67 204.22 212.65 199.59 212.61 214.34 204.63 218.97 204.67 204.22"/><polygon class="307880a2-0891-46e1-9e2a-12411505d1b1" points="204.63 218.97 212.61 214.34 220.14 211.27 212.16 215.9 204.63 218.97"/><polygon class="307880a2-0891-46e1-9e2a-12411505d1b1" points="208.82 224.73 216.8 220.1 231.1 228.35 223.12 232.99 208.82 224.73"/><polygon class="307880a2-0891-46e1-9e2a-12411505d1b1" points="209 203.47 216.97 198.84 223.95 209.72 215.97 214.36 209 203.47"/><polygon class="307880a2-0891-46e1-9e2a-12411505d1b1" points="232.36 222.84 232.35 229.26 227.38 232.14 226.63 230.96 221.34 222.72 219.78 220.29 227.75 215.65 232.36 222.84"/><polygon class="307880a2-0891-46e1-9e2a-12411505d1b1" points="215.97 214.36 223.95 209.72 230.91 206.88 222.93 211.52 215.97 214.36"/><polygon class="307880a2-0891-46e1-9e2a-12411505d1b1" points="212.73 171.44 212.73 172.59 212.72 177.17 212.7 181.22 212.69 186.98 211.84 187.47 204.71 191.62 204.76 176.08 212.69 171.46 212.73 171.44"/><polygon class="307880a2-0891-46e1-9e2a-12411505d1b1" points="204.71 191.61 212.69 186.97 220.31 183.62 212.33 188.26 204.71 191.61"/><polygon class="307880a2-0891-46e1-9e2a-12411505d1b1" points="208.52 197.51 216.5 192.87 231.42 201.49 223.44 206.13 208.52 197.51"/><path class="307880a2-0891-46e1-9e2a-12411505d1b1" d="M200.55,165.29l.11-.06,0,0Z"/><polygon class="307880a2-0891-46e1-9e2a-12411505d1b1" points="224.05 181.99 222.56 182.86 216.07 186.63 215.82 186.23 215.52 185.74 215.52 185.73 212.7 181.22 208.77 174.89 212.73 172.59 213.68 172.04 220.2 175.8 224.05 181.99"/><polygon class="307880a2-0891-46e1-9e2a-12411505d1b1" points="232.44 195.49 232.42 202.06 227.46 204.94 226.94 204.1 221.9 196 221.9 195.99 219.77 192.57 227.74 187.94 232.44 195.49"/><polygon class="307880a2-0891-46e1-9e2a-12411505d1b1" points="228.38 180.52 223.47 183.38 216.07 186.63 222.56 182.86 224.05 181.99 227.95 180.28 228.38 180.52"/><path class="358625af-3353-4b19-a947-8ceaae4dc79f" d="M240.44,181.08l-.22,80.32-8,4.63.11-36.77v-6.42l.06-20.78,0-6.57,0-9.77a5.44,5.44,0,0,0-2.47-4.26l-1.62-.94-.43-.24-7.75-4.48L213.68,172l-1-.55v-.05l0,0-10.38-6a2.28,2.28,0,0,0-1.12-.34,1.09,1.09,0,0,0-.26,0h0l-.2.07h0l7.87-4.58a1.76,1.76,0,0,1,1.76.17l27.69,16A5.43,5.43,0,0,1,240.44,181.08Z"/><polygon class="307880a2-0891-46e1-9e2a-12411505d1b1" points="212.73 171.44 212.73 171.49 212.69 171.46 212.73 171.44"/><path class="307880a2-0891-46e1-9e2a-12411505d1b1" d="M219.77,192.57,221.9,196h0l5,8.1.52.84v-1.15l0-4.57,0-10Zm0,27.72,1.56,2.43,5.29,8.24.75,1.18v-1.62h0v-4.29l0-9ZM216,221.84l-7.14,2.9.68.39h0l3,1.76h0L223.12,233ZM211.56,215l-6.88-10.72L204.63,219l7.54-3.07Zm.28-27.48-7.08-11.39,0,15.54,7.62-3.36Zm4.2,6.75-7.51,3.3,3.85,2.23.27.15,1.25.73h0l6.68,3.85h0l2.85,1.64Zm6.89,17.3-1-.59h0l-9.26-5.34-3.63-2.1,3.62,5.65v.05l2.65,4.08.4.61.31.49,7-2.83Zm-.37-28.66-9.84-5.69-3.95-2.28,3.93,6.33,2.82,4.51h0l.3.49.25.4,7.4-3.25Zm7.44-1.4-1.62-.94-.43-.24-7.75-4.48L213.68,172l-1-.55,0,0-10.38-6a2.28,2.28,0,0,0-1.12-.34,1.09,1.09,0,0,0-.26,0h0l-.2.07h0l0,0a1.68,1.68,0,0,0-.79,1.61l-.08,27.25a3.19,3.19,0,0,0,0,2.33l-.14,50.25,4.93,2.84h0l.06-21.56,7.94,4.59h0l14.8,8.54-.06,22.06,4.94,2.85.11-36.77v-6.42l.06-20.78,0-6.57,0-9.77A5.44,5.44,0,0,0,230,181.46Zm-2.54,23.48V203.8h0l0-4.57,0-10-7.74,3.39L221.9,196h0l5,8.1.52.84m-15.13-16.68-.49-.79-7.08-11.39,0,15.54,7.62-3.36m15,43.88v-1.62h0v-4.29l0-9-7.65,3.11,1.56,2.43,5.29,8.24.75,1.18m-18.85-34.62,3.85,2.23.27.15,1.25.73h0l6.68,3.85h0l2.85,1.64L216,194.22l-7.51,3.3h0m3.65,18.39-.61-1-6.88-10.72L204.63,219l7.54-3.07m.55-38.74-3.95-2.28,3.93,6.33,2.82,4.51h0l.3.49.25.4,7.4-3.25-.91-.52-9.84-5.69M223.12,233l-10.54-6.08h0l-3-1.76h0l-.68-.39,7.14-2.9L223.12,233h0M209,203.48l3.62,5.65v0h0l2.65,4.08.4.61.31.49,7-2.83h0l-1-.59h0l-9.26-5.34-3.63-2.1"/></g><line class="34bf7a1f-3a97-4eee-9b9e-a3e0eca5d154" x1="276.54" y1="234.79" x2="318.73" y2="208.88"/><line class="34bf7a1f-3a97-4eee-9b9e-a3e0eca5d154" x1="269.86" y1="247.66" x2="300.91" y2="228.59"/><line class="34bf7a1f-3a97-4eee-9b9e-a3e0eca5d154" x1="183.59" y1="153.53" x2="204.69" y2="140.57"/><line class="34bf7a1f-3a97-4eee-9b9e-a3e0eca5d154" x1="196.15" y1="149.68" x2="217.24" y2="136.73"/><line class="34bf7a1f-3a97-4eee-9b9e-a3e0eca5d154" x1="128.54" y1="214.64" x2="149.63" y2="201.69"/><line class="34bf7a1f-3a97-4eee-9b9e-a3e0eca5d154" x1="223.18" y1="157.41" x2="241.91" y2="145.9"/></g></g></svg>