<svg xmlns="http://www.w3.org/2000/svg" xmlns:xlink="http://www.w3.org/1999/xlink" viewBox="0 0 479.51 397.2"><defs><style>.\33 2a601d5-1e29-4cd3-9d18-7dd216f16ebb,.\38 6b4ef53-4f58-4418-ad1c-1753cf4bc056,.b79dacaf-58d3-427c-b859-7eec9f77e18a,.c1165235-5df1-4168-8666-56dbbed3ce6e{fill:none;}.\34 d1d7fa0-31e2-4342-8423-9f24c4b63f64{isolation:isolate;}.\37 174e1bf-92bf-46e0-a0a4-e464752d47a4,.f263de91-8a19-42c1-8ef5-b0c5e738b76f{fill:#b32329;}.\35 62f29a9-fb7b-4b95-900a-ec3ce16b1d3d,.b79dacaf-58d3-427c-b859-7eec9f77e18a,.f24ec71c-ef1d-463a-aaab-0fcf5b21d116,.f263de91-8a19-42c1-8ef5-b0c5e738b76f{stroke:#181819;}.\32 aba7245-a0c3-4fc0-9205-bd1874268af3,.\33 2a601d5-1e29-4cd3-9d18-7dd216f16ebb,.\33 900acb6-c59d-4148-a128-d4ebc922a2fe,.\36 a192513-9ac3-4df4-bdcd-9f4692444deb,.\39 195f7eb-5cc7-476e-a9d5-1ec0b922d2c3,.f263de91-8a19-42c1-8ef5-b0c5e738b76f{stroke-linecap:round;}.\32 aba7245-a0c3-4fc0-9205-bd1874268af3,.\33 2a601d5-1e29-4cd3-9d18-7dd216f16ebb,.\33 900acb6-c59d-4148-a128-d4ebc922a2fe,.\35 62f29a9-fb7b-4b95-900a-ec3ce16b1d3d,.\36 a192513-9ac3-4df4-bdcd-9f4692444deb,.\39 195f7eb-5cc7-476e-a9d5-1ec0b922d2c3,.b79dacaf-58d3-427c-b859-7eec9f77e18a,.d19a4037-cbae-4c10-811c-a94077971067,.f24ec71c-ef1d-463a-aaab-0fcf5b21d116,.f263de91-8a19-42c1-8ef5-b0c5e738b76f{stroke-linejoin:round;}.\32 aba7245-a0c3-4fc0-9205-bd1874268af3,.\33 cfdbc89-0931-43fb-9edc-acca158a3493,.\35 62f29a9-fb7b-4b95-900a-ec3ce16b1d3d,.\36 a192513-9ac3-4df4-bdcd-9f4692444deb,.\39 d2111ba-a77e-4628-9461-185414bea08a,.af9647a4-4768-4aea-954c-68c08b6a1637,.d19a4037-cbae-4c10-811c-a94077971067{fill:#fff;}.\32 aba7245-a0c3-4fc0-9205-bd1874268af3,.\33 2a601d5-1e29-4cd3-9d18-7dd216f16ebb,.\33 900acb6-c59d-4148-a128-d4ebc922a2fe,.\36 a192513-9ac3-4df4-bdcd-9f4692444deb,.\39 195f7eb-5cc7-476e-a9d5-1ec0b922d2c3,.af9647a4-4768-4aea-954c-68c08b6a1637,.d19a4037-cbae-4c10-811c-a94077971067,.f4725120-c221-46c9-83e7-8efebfd932f1{stroke:#19191a;}.\33 900acb6-c59d-4148-a128-d4ebc922a2fe,.\36 a192513-9ac3-4df4-bdcd-9f4692444deb,.af9647a4-4768-4aea-954c-68c08b6a1637,.f4725120-c221-46c9-83e7-8efebfd932f1{stroke-width:0.8px;}.\39 d2111ba-a77e-4628-9461-185414bea08a,.af9647a4-4768-4aea-954c-68c08b6a1637,.c1165235-5df1-4168-8666-56dbbed3ce6e,.f4725120-c221-46c9-83e7-8efebfd932f1{stroke-miterlimit:10;}.\33 900acb6-c59d-4148-a128-d4ebc922a2fe,.f4725120-c221-46c9-83e7-8efebfd932f1{fill:#19191a;}.\39 195f7eb-5cc7-476e-a9d5-1ec0b922d2c3,.d03171ec-568e-4444-aec2-8adbd0a6949b,.f18c17c1-6953-417e-964f-e168aed48a75{fill:#bd2229;}.d03171ec-568e-4444-aec2-8adbd0a6949b{mix-blend-mode:multiply;}.c1165235-5df1-4168-8666-56dbbed3ce6e{stroke:#e5e5e4;stroke-width:0.75px;}.\34 426220d-fa35-4d10-b780-f5de4efaa22d{fill:#181819;}.\39 979793f-dbf1-48b1-8bc1-d650b0d3c61f{opacity:0.25;}.f24ec71c-ef1d-463a-aaab-0fcf5b21d116{fill:#717272;}.bccd8e9c-e6a4-4831-a616-ae4951dba15f{clip-path:url(#a0daf57a-f986-41db-9e72-3f4164d288ab);}.b1164b1c-3135-47a2-aebd-78a0bc8bf568{clip-path:url(#87469eae-5137-4683-9521-2619246ed70a);}.\37 20488ec-6882-4550-af8d-a951915d0bb6{clip-path:url(#4997a69b-23d9-4e28-ab96-7efe880f5ef3);}.df10c903-7b3c-427f-9286-7358b399c4e7{clip-path:url(#cd7622f9-e790-43de-a88b-bc9e550f3ab6);}.\32 73deebe-74dc-4ff9-9285-cd6aaadcabf9{opacity:0.21;}.\35 ba5580e-d9c4-4bd6-a42c-363d4e3686df{clip-path:url(#20fe62ce-00c0-4f84-9a98-4768920384db);}.\38 bad3f03-09e1-4111-a81d-64851475e6d4{clip-path:url(#db542736-fb9e-49ef-ba6d-c61820bf79b3);}.\39 d2111ba-a77e-4628-9461-185414bea08a{stroke:#040000;stroke-width:0.8px;}</style><clipPath id="a0daf57a-f986-41db-9e72-3f4164d288ab"><polygon class="86b4ef53-4f58-4418-ad1c-1753cf4bc056" points="365.94 207.4 364.1 198.42 380.07 189.2 381.91 198.18 365.94 207.4"/></clipPath><clipPath id="87469eae-5137-4683-9521-2619246ed70a"><polygon class="86b4ef53-4f58-4418-ad1c-1753cf4bc056" points="363.79 280.33 363.81 271.69 367.64 273.9 367.62 282.55 363.79 280.33"/></clipPath><clipPath id="4997a69b-23d9-4e28-ab96-7efe880f5ef3"><polygon class="86b4ef53-4f58-4418-ad1c-1753cf4bc056" points="308.2 282.78 308.19 278.97 316.65 274.09 316.66 277.9 308.2 282.78"/></clipPath><clipPath id="cd7622f9-e790-43de-a88b-bc9e550f3ab6"><polygon class="86b4ef53-4f58-4418-ad1c-1753cf4bc056" points="309.15 293.39 309.12 284.02 317.27 279.31 317.3 288.69 309.15 293.39"/></clipPath><clipPath id="20fe62ce-00c0-4f84-9a98-4768920384db"><polygon class="86b4ef53-4f58-4418-ad1c-1753cf4bc056" points="283.14 296.53 283.13 292.73 291.59 287.84 291.6 291.64 283.14 296.53"/></clipPath><clipPath id="db542736-fb9e-49ef-ba6d-c61820bf79b3"><polygon class="86b4ef53-4f58-4418-ad1c-1753cf4bc056" points="284.08 307.14 284.06 297.77 292.21 293.06 292.24 302.44 284.08 307.14"/></clipPath></defs><title>淡水站</title><g class="4d1d7fa0-31e2-4342-8423-9f24c4b63f64"><g id="2bce78aa-67b0-433a-b197-e652a978da9c" data-name="圖層 2"><g id="0cdfbb0a-95cb-4681-a92e-497ce3d010ef" data-name="&lt;Island 2&gt;"><g class="4d1d7fa0-31e2-4342-8423-9f24c4b63f64"><polygon class="f263de91-8a19-42c1-8ef5-b0c5e738b76f" points="444.17 215.71 444.13 232.4 320.34 304.33 320.39 287.65 444.17 215.71"/><polygon class="f263de91-8a19-42c1-8ef5-b0c5e738b76f" points="320.39 287.65 320.34 304.33 165.66 215.03 165.71 198.34 320.39 287.65"/><polygon class="562f29a9-fb7b-4b95-900a-ec3ce16b1d3d" points="444.17 215.71 320.39 287.65 165.71 198.34 289.5 126.41 444.17 215.71"/></g><polygon class="562f29a9-fb7b-4b95-900a-ec3ce16b1d3d" points="263.41 158.89 239.05 146.31 200.05 152.6 232.13 165.37 263.41 158.89"/><polygon class="f263de91-8a19-42c1-8ef5-b0c5e738b76f" points="200.03 195.63 223.12 183.33 202.88 103.36 187.21 105.7 200.03 195.63"/><g class="4d1d7fa0-31e2-4342-8423-9f24c4b63f64"><path class="562f29a9-fb7b-4b95-900a-ec3ce16b1d3d" d="M220.65,207.61l-7.76-5.16s2.38-47.54-17.48-88.3l-6.72-4.35C202.21,155.87,200,195.63,200,195.63l-7.57-4.4c6.6-62.27-26.6-130.5-28.84-134.35l15.47,2.85C181.32,63.59,227.25,145.35,220.65,207.61Z"/><polygon class="562f29a9-fb7b-4b95-900a-ec3ce16b1d3d" points="175.24 62.99 163.62 56.88 167.46 48.07 177.69 53.28 175.24 62.99"/></g><path class="f263de91-8a19-42c1-8ef5-b0c5e738b76f" d="M264.41,165.63l-1-6.74c-10-.3-21,2.84-26.87,4.85C226.11,135.65,206.92,92,177.69,53.28l-3.85,8.81c1.75,3,33.46,52.29,44,103.42-18.79-1.61-134.48,38.05-134.48,38.05L54,233.33l.09,6.08s98.55-53.59,165.44-65.17a134.12,134.12,0,0,1,1.11,33.37l25.45-14.52c-.21-1.16-2.53-9.64-7.14-22.67A233.9,233.9,0,0,1,264.41,165.63Z"/><path class="562f29a9-fb7b-4b95-900a-ec3ce16b1d3d" d="M217.71,166.75C141.55,184.53,54,233.33,54,233.33l-16.46-9.8s81.14-48.79,155.11-67l6.09,3.5,10.74-1,.48,3.47S219.74,166.28,217.71,166.75Z"/><line class="562f29a9-fb7b-4b95-900a-ec3ce16b1d3d" x1="172.95" y1="70.13" x2="45.82" y2="217.89"/><line class="562f29a9-fb7b-4b95-900a-ec3ce16b1d3d" x1="188.94" y1="98.52" x2="150.79" y2="188.03"/><line class="562f29a9-fb7b-4b95-900a-ec3ce16b1d3d" x1="184.92" y1="99.54" x2="131.81" y2="177.42"/><line class="562f29a9-fb7b-4b95-900a-ec3ce16b1d3d" x1="184.02" y1="90.21" x2="101.68" y2="208.56"/><line class="562f29a9-fb7b-4b95-900a-ec3ce16b1d3d" x1="179.52" y1="87.66" x2="89.38" y2="197.06"/><line class="562f29a9-fb7b-4b95-900a-ec3ce16b1d3d" x1="176.19" y1="71.33" x2="59.55" y2="229.53"/><g id="86ede92e-75c4-4176-99ff-449ec440c2f2" data-name="trigger_foreigners"><g id="e927cd96-6808-4d3e-9bdb-0a2ee1809e2d" data-name="man"><path class="6a192513-9ac3-4df4-bdcd-9f4692444deb" d="M86.87,141.38s4.74-2.2,6.35,2,1,4.27,1,4.27l-1.79.76.21,6.24s-7.11,0-8-1.45,1.4-7.78,1.4-7.78-1.38-.36-1.38-1.26,1-1.11,2-.22S86.87,141.38,86.87,141.38Z"/><ellipse class="af9647a4-4768-4aea-954c-68c08b6a1637" cx="91.11" cy="143.69" rx="0.17" ry="0.18"/><path class="f4725120-c221-46c9-83e7-8efebfd932f1" d="M92.25,141.56s-1-4-2.13-4.39l-.61.77s-3.47-.64-4.13.32A9.85,9.85,0,0,1,83.67,140s.53,2.49,0,2.68,3.07,1.65,3.07,1.65l-.24-2.81,1.85-.89,2.41.1Z"/><path class="9195f7eb-5cc7-476e-a9d5-1ec0b922d2c3" d="M84.66,152.71S74.28,169,75.32,179.06c0,0,15.58,1.25,20.66-1.84,0,0-.94-19.42-3.29-22.94C92.69,154.28,86.39,154.19,84.66,152.71Z"/><path class="3900acb6-c59d-4148-a128-d4ebc922a2fe" d="M75.25,179.37s7.92,13.65,12.85,24l4.12.73s3.24-18.75,3.34-26.68"/><path class="2aba7245-a0c3-4fc0-9205-bd1874268af3" d="M88.1,203.38v3s5,1.8,7.88,0l-3.76-2.31Z"/><rect class="d03171ec-568e-4444-aec2-8adbd0a6949b" x="84.24" y="142" width="2.8" height="1.23" rx="0.48" ry="0.48"/><path class="9195f7eb-5cc7-476e-a9d5-1ec0b922d2c3" d="M92.05,158.45s4.39,10.46,7.33,12.08c0,0-10.87-6.78-11.25-14.19"/></g><path class="562f29a9-fb7b-4b95-900a-ec3ce16b1d3d" d="M84.24,142.73s-3.5-6.72,2.8-7.42,5.21,6.25,5.21,6.25Z"/><polyline class="562f29a9-fb7b-4b95-900a-ec3ce16b1d3d" points="83.62 141.14 79.4 143.23 83.67 142.72"/><g id="dda0d6cf-06d3-404b-86fb-394b663a129a" data-name="man"><path class="6a192513-9ac3-4df4-bdcd-9f4692444deb" d="M113,130.48s4.69-2.18,6.28,1.94,1,4.23,1,4.23l-1.78.75.21,6.18s-7,0-7.94-1.44,1.38-7.7,1.38-7.7-1.37-.35-1.36-1.24,1-1.1,1.93-.22S113,130.48,113,130.48Z"/><ellipse class="af9647a4-4768-4aea-954c-68c08b6a1637" cx="117.19" cy="132.76" rx="0.17" ry="0.18"/><path class="f4725120-c221-46c9-83e7-8efebfd932f1" d="M118.32,130.65s-1-4-2.1-4.33l-.61.75s-3.43-.63-4.08.32a9.48,9.48,0,0,1-1.69,1.77s.52,2.46,0,2.65,3,1.63,3,1.63l-.23-2.79,1.83-.87,2.38.1Z"/><path class="6a192513-9ac3-4df4-bdcd-9f4692444deb" d="M110.82,141.68s-10.27,16.13-9.24,26.07c0,0,15.41,1.23,20.43-1.82,0,0-.92-19.21-3.25-22.69C118.76,143.24,112.53,143.15,110.82,141.68Z"/><path class="3900acb6-c59d-4148-a128-d4ebc922a2fe" d="M101.51,168.05s7.83,13.51,12.71,23.75l4.07.72s3.21-18.54,3.3-26.39"/><path class="2aba7245-a0c3-4fc0-9205-bd1874268af3" d="M114.22,191.8v3s5,1.78,7.79,0l-3.72-2.29Z"/><rect class="d03171ec-568e-4444-aec2-8adbd0a6949b" x="110.4" y="131.1" width="2.77" height="1.21" rx="0.48" ry="0.48"/><path class="6a192513-9ac3-4df4-bdcd-9f4692444deb" d="M118.13,147.36s4.33,10.35,7.24,11.95c0,0-10.75-6.71-11.12-14"/></g><path class="562f29a9-fb7b-4b95-900a-ec3ce16b1d3d" d="M124.19,162.7s-.07-3.09,1.18-3.39,1.95,3.39,1.95,3.39"/><path class="562f29a9-fb7b-4b95-900a-ec3ce16b1d3d" d="M122.13,163.44l-1.71,8.29s6.46,2.27,11,0l-2.35-9Z"/><rect id="53b8e202-0eb7-4e55-8b83-5dfddceba932" data-name="hidden" class="c1165235-5df1-4168-8666-56dbbed3ce6e" x="46.82" y="118.63" width="112.39" height="105.17"/><g id="78ee2f71-d078-4bd2-bd5e-0e2e20f191f8" data-name="sign"><path class="f18c17c1-6953-417e-964f-e168aed48a75" d="M71.5,129.71,71,140.21H69.94l-.49-10.5Zm-.06,14.92H69.51v-2.45h1.93Z"/></g></g><polygon class="562f29a9-fb7b-4b95-900a-ec3ce16b1d3d" points="37.55 223.58 37.55 229.28 54.1 239.46 54.01 233.38 37.55 223.58"/><path class="562f29a9-fb7b-4b95-900a-ec3ce16b1d3d" d="M313.64,131.94v44.38a2.59,2.59,0,0,0,4.2,0V131.94Z"/><g class="4d1d7fa0-31e2-4342-8423-9f24c4b63f64"><polygon class="562f29a9-fb7b-4b95-900a-ec3ce16b1d3d" points="347.03 185.29 346.99 201.59 333.99 209.15 334.04 192.84 347.03 185.29"/><polygon class="562f29a9-fb7b-4b95-900a-ec3ce16b1d3d" points="334.04 192.84 333.99 209.15 291 184.32 291.04 168.02 334.04 192.84"/><polygon class="562f29a9-fb7b-4b95-900a-ec3ce16b1d3d" points="347.03 185.29 334.04 192.84 291.04 168.02 304.04 160.47 347.03 185.29"/></g><path class="562f29a9-fb7b-4b95-900a-ec3ce16b1d3d" d="M332.56,164v23.9a2.59,2.59,0,0,0,4.2,0V164Z"/><path class="562f29a9-fb7b-4b95-900a-ec3ce16b1d3d" d="M354.56,153.72v40a2.59,2.59,0,0,0,4.2,0v-40Z"/><path class="562f29a9-fb7b-4b95-900a-ec3ce16b1d3d" d="M295.71,143.82v23.9a2.58,2.58,0,0,0,4.19,0v-23.9Z"/><g class="4d1d7fa0-31e2-4342-8423-9f24c4b63f64"><polygon class="562f29a9-fb7b-4b95-900a-ec3ce16b1d3d" points="359.93 139.34 359.89 155.65 335.14 170.03 335.19 153.72 359.93 139.34"/><polygon class="562f29a9-fb7b-4b95-900a-ec3ce16b1d3d" points="335.19 153.72 335.14 170.03 292.15 145.21 292.2 128.91 335.19 153.72"/><polygon class="562f29a9-fb7b-4b95-900a-ec3ce16b1d3d" points="359.93 139.34 335.19 153.72 292.2 128.91 316.94 114.53 359.93 139.34"/></g><path class="562f29a9-fb7b-4b95-900a-ec3ce16b1d3d" d="M325.66,128.71s8.37-2.62,12.8,7.23-22,20.27-30.55,20.27c-5.57,0-21.84-3.57-21.84-13.8,0-2.5,16.58,1.48,16.58,1.48S309.16,148,325.66,128.71Z"/><ellipse class="f263de91-8a19-42c1-8ef5-b0c5e738b76f" cx="295.12" cy="153.41" rx="4.5" ry="2.8"/><ellipse class="562f29a9-fb7b-4b95-900a-ec3ce16b1d3d" cx="294.68" cy="154.27" rx="1.99" ry="1.24"/><ellipse class="f263de91-8a19-42c1-8ef5-b0c5e738b76f" cx="305.27" cy="155.51" rx="4.5" ry="2.8"/><ellipse class="562f29a9-fb7b-4b95-900a-ec3ce16b1d3d" cx="304.84" cy="156.36" rx="1.99" ry="1.24"/><ellipse class="f263de91-8a19-42c1-8ef5-b0c5e738b76f" cx="315.77" cy="154.27" rx="4.5" ry="2.8" transform="translate(-35.27 137.59) rotate(-23.32)"/><ellipse class="562f29a9-fb7b-4b95-900a-ec3ce16b1d3d" cx="315.71" cy="155.23" rx="1.99" ry="1.24" transform="translate(-35.66 137.64) rotate(-23.32)"/><ellipse class="f263de91-8a19-42c1-8ef5-b0c5e738b76f" cx="325.62" cy="150.13" rx="4.5" ry="2.8" transform="translate(-31.5 182.33) rotate(-29.9)"/><ellipse class="562f29a9-fb7b-4b95-900a-ec3ce16b1d3d" cx="325.66" cy="151.09" rx="1.99" ry="1.24" transform="translate(-31.97 182.48) rotate(-29.9)"/><path class="b79dacaf-58d3-427c-b859-7eec9f77e18a" d="M286.07,145.44s22.55,6.64,30.55,4.12S331,134.2,331,134.2"/><path class="562f29a9-fb7b-4b95-900a-ec3ce16b1d3d" d="M325.66,128.71s13.3,21.58,13.3,8.82C339,126.05,325.66,128.71,325.66,128.71Z"/><path class="562f29a9-fb7b-4b95-900a-ec3ce16b1d3d" d="M304.84,169.1l.43,5.65s5.56,3,8.05,0l.35-5.65Z"/><ellipse class="562f29a9-fb7b-4b95-900a-ec3ce16b1d3d" cx="309.25" cy="169.1" rx="4.42" ry="2.6"/><g id="f0004e90-1644-4380-b8ca-d301745a32f7" data-name="&lt;trigger_vendor(fried squid)&gt;"><path class="6a192513-9ac3-4df4-bdcd-9f4692444deb" d="M316.71,181.4s9,15,8.13,24.19c0,0-13.56,1.14-18-1.69,0,0,.82-17.83,2.86-21.05C309.72,182.85,315.2,182.77,316.71,181.4Z"/><path class="3900acb6-c59d-4148-a128-d4ebc922a2fe" d="M324.91,205.87s-6.9,12.53-11.19,22l-3.59.67s-2.82-17.21-2.9-24.49"/><path class="6a192513-9ac3-4df4-bdcd-9f4692444deb" d="M315,171.21s-4.91-1.92-6.58,1.71-1.09,3.73-1.09,3.73l1.85.66-.21,5.45s7.36,0,8.31-1.27-1.45-6.79-1.45-6.79,1.44-.31,1.43-1.09-1.07-1-2-.2S315,171.21,315,171.21Z"/><ellipse class="af9647a4-4768-4aea-954c-68c08b6a1637" cx="309.5" cy="174.87" rx="0.18" ry="0.17"/><path class="af9647a4-4768-4aea-954c-68c08b6a1637" d="M308.4,172.92l-.82-6s5.11-4.41,9.61.88l.05,5.79Z"/><path class="32a601d5-1e29-4cd3-9d18-7dd216f16ebb" d="M313.7,227.51v2.79s-5.22,1.65-8.16,0l3.9-2.12Z"/><path class="6a192513-9ac3-4df4-bdcd-9f4692444deb" d="M310.18,186.68s-1.84,10.16-4.39,12.22c0,0,9.24-8.31,7.8-14.92"/><path class="562f29a9-fb7b-4b95-900a-ec3ce16b1d3d" d="M299.75,183.29s-.81,4.24,4.3,6.09"/><path class="562f29a9-fb7b-4b95-900a-ec3ce16b1d3d" d="M294.7,182.89s-1.4,7.38,7.5,10.62"/><path class="b79dacaf-58d3-427c-b859-7eec9f77e18a" d="M288.89,180.41s-2.49,13.06,13.26,18.78"/><rect id="fe7a1849-1861-48fc-ae4c-beec09286467" data-name="hidden" class="c1165235-5df1-4168-8666-56dbbed3ce6e" x="272.78" y="155.68" width="68.16" height="80.15"/><g id="87e2331d-f287-4121-8e63-ccc26dc16bd8" data-name="sign"><path class="f18c17c1-6953-417e-964f-e168aed48a75" d="M323.56,161.43l-.5,10.8H322l-.51-10.8Zm-.06,15.35h-2v-2.53h2Z"/></g></g><g id="c7ebb44c-4f6d-4c1e-aa7c-e51fc8b3c666" data-name="man"><path class="6a192513-9ac3-4df4-bdcd-9f4692444deb" d="M268.49,179.89s4.71-2.19,6.32,2,1,4.25,1,4.25l-1.78.75.21,6.22s-7.07,0-8-1.45,1.39-7.74,1.39-7.74-1.38-.36-1.38-1.24,1-1.11,1.95-.23S268.49,179.89,268.49,179.89Z"/><ellipse class="af9647a4-4768-4aea-954c-68c08b6a1637" cx="272.7" cy="182.18" rx="0.17" ry="0.18"/><path class="f4725120-c221-46c9-83e7-8efebfd932f1" d="M273.84,180.06s-1-4-2.12-4.36l-.61.76s-3.44-.63-4.1.32a9.6,9.6,0,0,1-1.7,1.78s.52,2.47,0,2.66,3.05,1.65,3.05,1.65l-.23-2.81,1.83-.88,2.4.1Z"/><path class="6a192513-9ac3-4df4-bdcd-9f4692444deb" d="M266.3,191.15S256,207.37,257,217.36c0,0,15.49,1.24,20.54-1.83,0,0-.93-19.32-3.27-22.81C274.28,192.72,268,192.63,266.3,191.15Z"/><path class="3900acb6-c59d-4148-a128-d4ebc922a2fe" d="M256.93,217.66s7.88,13.58,12.78,23.89l4.1.72s3.23-18.65,3.32-26.54"/><path class="2aba7245-a0c3-4fc0-9205-bd1874268af3" d="M269.71,241.55v3s5,1.79,7.84,0l-3.74-2.3Z"/><rect class="d03171ec-568e-4444-aec2-8adbd0a6949b" x="265.87" y="180.51" width="2.79" height="1.22" rx="0.48" ry="0.48"/><path class="6a192513-9ac3-4df4-bdcd-9f4692444deb" d="M273.64,196.86s4.36,10.4,7.29,12c0,0-10.81-6.75-11.18-14.12"/></g><g class="4d1d7fa0-31e2-4342-8423-9f24c4b63f64"><path class="562f29a9-fb7b-4b95-900a-ec3ce16b1d3d" d="M278,84.68,277.77,147a1.64,1.64,0,0,1-1,1.34,5.09,5.09,0,0,1-4.65,0,1.65,1.65,0,0,1-1-1.36l.23-62.32a1.63,1.63,0,0,0,1,1.36A5.11,5.11,0,0,0,277,86,1.62,1.62,0,0,0,278,84.68Z"/><path class="562f29a9-fb7b-4b95-900a-ec3ce16b1d3d" d="M277,83.32c1.29.75,1.3,2,0,2.7a5.11,5.11,0,0,1-4.66,0c-1.29-.74-1.3-2,0-2.7A5.19,5.19,0,0,1,277,83.32Z"/></g><g class="4d1d7fa0-31e2-4342-8423-9f24c4b63f64"><path class="562f29a9-fb7b-4b95-900a-ec3ce16b1d3d" d="M301.55,67.56l-2.44,17.72c0,3.67-2.43,7.34-7.25,10.14-9.71,5.64-25.5,5.65-35.27,0-4.92-2.84-7.38-6.57-7.37-10.29l-2.46-17.41c0,3.72,5,8.17,9.89,11,9.77,5.64,25.56,5.64,35.27,0C296.74,75.93,301.54,71.23,301.55,67.56Z"/><path class="562f29a9-fb7b-4b95-900a-ec3ce16b1d3d" d="M293.42,55.91c10.73,6.19,10.78,16.22.13,22.42s-28,6.19-38.71,0-10.78-16.23-.13-22.42S282.7,49.71,293.42,55.91Z"/></g><path class="f263de91-8a19-42c1-8ef5-b0c5e738b76f" d="M247.75,74s5.1,11.44,26.59,11.44S300.76,74,300.76,74l-1.5,9.51s-1.15,12.6-24.45,13.13-25.67-13.4-25.67-13.4Z"/><line class="f263de91-8a19-42c1-8ef5-b0c5e738b76f" x1="254.25" y1="80.67" x2="254.25" y2="91.14"/><line class="f263de91-8a19-42c1-8ef5-b0c5e738b76f" x1="262.72" y1="84.16" x2="262.72" y2="95.35"/><line class="f263de91-8a19-42c1-8ef5-b0c5e738b76f" x1="272.86" y1="85.71" x2="272.86" y2="96.72"/><line class="f263de91-8a19-42c1-8ef5-b0c5e738b76f" x1="283.54" y1="84.65" x2="283.54" y2="95.74"/><line class="f263de91-8a19-42c1-8ef5-b0c5e738b76f" x1="293.11" y1="81.3" x2="293.11" y2="91.91"/><g class="4d1d7fa0-31e2-4342-8423-9f24c4b63f64"><path class="562f29a9-fb7b-4b95-900a-ec3ce16b1d3d" d="M277.77,41.29l-.12,24.37A1.64,1.64,0,0,1,276.7,67a5.15,5.15,0,0,1-4.65,0,1.66,1.66,0,0,1-1-1.36l.11-24.36a1.63,1.63,0,0,0,1,1.35,5.09,5.09,0,0,0,4.65,0A1.62,1.62,0,0,0,277.77,41.29Z"/><path class="562f29a9-fb7b-4b95-900a-ec3ce16b1d3d" d="M276.8,39.94c1.29.74,1.29,2,0,2.69a5.09,5.09,0,0,1-4.65,0c-1.28-.74-1.29-2,0-2.69A5.15,5.15,0,0,1,276.8,39.94Z"/></g><g class="4d1d7fa0-31e2-4342-8423-9f24c4b63f64"><path class="562f29a9-fb7b-4b95-900a-ec3ce16b1d3d" d="M279.44,34.18l-.09,8a2.4,2.4,0,0,1-1.42,2,7.58,7.58,0,0,1-6.88,0,2.44,2.44,0,0,1-1.44-2l.09-8a2.42,2.42,0,0,0,1.44,2,7.58,7.58,0,0,0,6.88,0A2.44,2.44,0,0,0,279.44,34.18Z"/><path class="562f29a9-fb7b-4b95-900a-ec3ce16b1d3d" d="M278,32.17c1.91,1.1,1.91,2.89,0,4a7.58,7.58,0,0,1-6.88,0c-1.91-1.1-1.93-2.89,0-4A7.61,7.61,0,0,1,278,32.17Z"/></g><path class="4426220d-fa35-4d10-b780-f5de4efaa22d" d="M274.7,34.66c-.28,0-1-.23-1-.51l.5-16.3a.53.53,0,0,1,.51-.52h0a.51.51,0,0,1,.51.51l.53,16.31c0,.28-.74.51-1,.51Z"/><g id="868da032-00bb-48f4-b584-fe2f39995af1" data-name="&lt;trigger_vendor&gt;"><path class="6a192513-9ac3-4df4-bdcd-9f4692444deb" d="M393,166.57s-3.94-1.87-5.28,1.67-.87,3.62-.87,3.62l1.49.65-.18,5.3s5.9,0,6.66-1.23-1.16-6.61-1.16-6.61,1.15-.31,1.15-1.07-.86-.94-1.62-.19S393,166.57,393,166.57Z"/><ellipse class="af9647a4-4768-4aea-954c-68c08b6a1637" cx="389.46" cy="168.53" rx="0.14" ry="0.15"/><path class="f4725120-c221-46c9-83e7-8efebfd932f1" d="M388.51,166.72s.85-3.4,1.77-3.73l.51.65s2.87-.54,3.41.27a7.94,7.94,0,0,0,1.43,1.52s-.44,2.11,0,2.28-2.55,1.4-2.55,1.4l.2-2.39-1.53-.76-2,.09Z"/><path class="6a192513-9ac3-4df4-bdcd-9f4692444deb" d="M394.8,176.19s8.62,13.84,7.75,22.37c0,0-12.92,1.06-17.13-1.56,0,0,.77-16.49,2.72-19.48C388.14,177.52,393.37,177.45,394.8,176.19Z"/><path class="3900acb6-c59d-4148-a128-d4ebc922a2fe" d="M402.61,198.82S396,210.41,392,219.21l-3.42.62s-2.69-15.92-2.76-22.66"/><path class="32a601d5-1e29-4cd3-9d18-7dd216f16ebb" d="M392,219.21v2.58s-4.18,1.53-6.53,0l3.11-2Z"/><rect class="d03171ec-568e-4444-aec2-8adbd0a6949b" x="392.86" y="167.05" width="2.32" height="1.03" rx="0.36" ry="0.36" transform="translate(788.03 335.12) rotate(-180)"/><rect id="64cbe5fd-6caa-4c99-894d-52d9f1a8214f" data-name="hidden" class="c1165235-5df1-4168-8666-56dbbed3ce6e" x="356.77" y="151.65" width="57.47" height="81.36"/><g id="089e001f-21a1-484e-89aa-96544f8599a7" data-name="sign"><path class="f18c17c1-6953-417e-964f-e168aed48a75" d="M404.85,156.29l-.52,11.2h-1.15l-.52-11.2Zm-.07,15.91h-2v-2.61h2Z"/></g><path class="6a192513-9ac3-4df4-bdcd-9f4692444deb" d="M388,188.1c-.49.91-.46,2.44-4.72,8.38-2.05,2.85,6.67-3.71,8-9.23"/></g><g class="4d1d7fa0-31e2-4342-8423-9f24c4b63f64"><path class="562f29a9-fb7b-4b95-900a-ec3ce16b1d3d" d="M366.92,237.58l-1.76,1a3.87,3.87,0,0,1-1.74-3,1.29,1.29,0,0,1,0-.35.71.71,0,0,1,.06-.22.76.76,0,0,1,.06-.16.88.88,0,0,1,.12-.19l.07-.07.11-.09a1.18,1.18,0,0,1,1.29.09A3.83,3.83,0,0,1,366.92,237.58Z"/><path class="562f29a9-fb7b-4b95-900a-ec3ce16b1d3d" d="M368.23,236.82l-.07,0-.05,0a1.62,1.62,0,0,1,0-.19l.06.05Z"/><path class="562f29a9-fb7b-4b95-900a-ec3ce16b1d3d" d="M370.55,238.78l-3,1.71a1.43,1.43,0,0,0,.23-.2,1,1,0,0,0,.2-.26l0,0a2.35,2.35,0,0,0,.27-.67,1.75,1.75,0,0,0,.08-.41v0a3.78,3.78,0,0,0,0-.68v0a0,0,0,0,0,0,0v0h0a.17.17,0,0,0,0-.07,3.87,3.87,0,0,0-.06-.46h0l0,0c-.06-.23-.12-.5-.18-.74l.05,0,.07,0-.1-.07a3.63,3.63,0,0,0-.19-.52.64.64,0,0,0,0-.07A7.49,7.49,0,0,0,366.5,234a4.52,4.52,0,0,0-.63-.61,5.13,5.13,0,0,0-.69-.49,2.68,2.68,0,0,0-1.75-.42,1.89,1.89,0,0,0-.34.09h0l-.2.09,3.07-1.78a1.61,1.61,0,0,1,.56-.19,2.66,2.66,0,0,1,1.75.42,7,7,0,0,1,2.74,3.31C371.81,236.37,371.6,238.17,370.55,238.78Z"/><path class="562f29a9-fb7b-4b95-900a-ec3ce16b1d3d" d="M366.92,237.58v0a1.34,1.34,0,0,1-.42,1.06l-.11.07a.35.35,0,0,1-.14.06,1.34,1.34,0,0,1-1.09-.19Z"/><path class="562f29a9-fb7b-4b95-900a-ec3ce16b1d3d" d="M368.23,236.82l-.07,0a.23.23,0,0,0,0-.11Z"/><path class="562f29a9-fb7b-4b95-900a-ec3ce16b1d3d" d="M365.17,234.59a1.18,1.18,0,0,0-1.29-.09l-.11.09-.07.07a.88.88,0,0,0-.12.19.76.76,0,0,0-.06.16.71.71,0,0,0-.06.22,1.29,1.29,0,0,0,0,.35,3.87,3.87,0,0,0,1.74,3,1.34,1.34,0,0,0,1.09.19.35.35,0,0,0,.14-.06l.11-.07a1.34,1.34,0,0,0,.42-1.06v0A3.83,3.83,0,0,0,365.17,234.59Zm0,0a1.18,1.18,0,0,0-1.29-.09l-.11.09-.07.07a.88.88,0,0,0-.12.19.76.76,0,0,0-.06.16.71.71,0,0,0-.06.22,1.29,1.29,0,0,0,0,.35,3.87,3.87,0,0,0,1.74,3,1.34,1.34,0,0,0,1.09.19.35.35,0,0,0,.14-.06l.11-.07a1.34,1.34,0,0,0,.42-1.06v0A3.83,3.83,0,0,0,365.17,234.59Zm3,2.27-.05,0c.06.24.12.51.18.74l0,0C368.24,237.25,368.17,236.86,368.16,236.86Zm.18.74h0c0,.17.07.34.09.45A3.87,3.87,0,0,0,368.34,237.6Zm-3.17-3a1.18,1.18,0,0,0-1.29-.09l-.11.09-.07.07a.88.88,0,0,0-.12.19.76.76,0,0,0-.06.16.71.71,0,0,0-.06.22,1.29,1.29,0,0,0,0,.35,3.87,3.87,0,0,0,1.74,3,1.34,1.34,0,0,0,1.09.19.35.35,0,0,0,.14-.06l.11-.07a1.34,1.34,0,0,0,.42-1.06v0A3.83,3.83,0,0,0,365.17,234.59Z"/><path class="562f29a9-fb7b-4b95-900a-ec3ce16b1d3d" d="M368.29,237.63c-.06-.23-.12-.5-.18-.74a1.62,1.62,0,0,1,0-.19c-.05-.2-.1-.37-.13-.47a.64.64,0,0,0,0-.07A7.49,7.49,0,0,0,366.5,234a4.52,4.52,0,0,0-.63-.61,5.13,5.13,0,0,0-.69-.49,2.68,2.68,0,0,0-1.75-.42,1.89,1.89,0,0,0-.34.09h0c-1.22.49-1.52,2.39-.64,4.49a6.93,6.93,0,0,0,2.74,3.32,2.8,2.8,0,0,0,1.75.42,1.52,1.52,0,0,0,.68-.27,1.5,1.5,0,0,0,.23-.2,2.56,2.56,0,0,0,.2-.26l0,0a2.35,2.35,0,0,0,.27-.67c0-.13.06-.27.08-.41v0a4.4,4.4,0,0,0,0-.73v0h0C368.38,238,368.33,237.84,368.29,237.63Zm-1.37,0a1.34,1.34,0,0,1-.42,1.06l-.11.07a.35.35,0,0,1-.14.06,1.34,1.34,0,0,1-1.09-.19,3.87,3.87,0,0,1-1.74-3,1.29,1.29,0,0,1,0-.35.71.71,0,0,1,.06-.22.76.76,0,0,1,.06-.16.88.88,0,0,1,.12-.19l.07-.07.11-.09a1.18,1.18,0,0,1,1.29.09,3.83,3.83,0,0,1,1.75,3Z"/></g><g class="4d1d7fa0-31e2-4342-8423-9f24c4b63f64"><path class="562f29a9-fb7b-4b95-900a-ec3ce16b1d3d" d="M384.35,229.76l-1.76,1a3.87,3.87,0,0,1-1.74-3,1.29,1.29,0,0,1,0-.35.71.71,0,0,1,.06-.22A.76.76,0,0,1,381,227a.88.88,0,0,1,.12-.19l.07-.07.11-.09a1.18,1.18,0,0,1,1.29.09A3.83,3.83,0,0,1,384.35,229.76Z"/><path class="562f29a9-fb7b-4b95-900a-ec3ce16b1d3d" d="M385.66,229l-.07,0,0,0a1.62,1.62,0,0,1,0-.19l.06.05Z"/><path class="562f29a9-fb7b-4b95-900a-ec3ce16b1d3d" d="M388,231l-3,1.71a1.43,1.43,0,0,0,.23-.2,1,1,0,0,0,.2-.26l0,0a2.35,2.35,0,0,0,.27-.67,1.75,1.75,0,0,0,.08-.41v0a3.78,3.78,0,0,0,0-.68v0a0,0,0,0,0,0,0v0h0a.17.17,0,0,0,0-.07,3.87,3.87,0,0,0-.06-.46h0l0,0c-.06-.23-.12-.5-.18-.74l0,0,.07,0-.1-.07a3.63,3.63,0,0,0-.19-.52.64.64,0,0,0,0-.07,7.49,7.49,0,0,0-1.42-2.21,4.52,4.52,0,0,0-.63-.61,5.13,5.13,0,0,0-.69-.49,2.68,2.68,0,0,0-1.75-.42,1.89,1.89,0,0,0-.34.09h0l-.2.09,3.07-1.78a1.61,1.61,0,0,1,.56-.19,2.66,2.66,0,0,1,1.75.42,7,7,0,0,1,2.74,3.31C389.24,228.55,389,230.35,388,231Z"/><path class="562f29a9-fb7b-4b95-900a-ec3ce16b1d3d" d="M384.35,229.76v0a1.34,1.34,0,0,1-.42,1.06l-.11.07a.35.35,0,0,1-.14.06,1.34,1.34,0,0,1-1.09-.19Z"/><path class="562f29a9-fb7b-4b95-900a-ec3ce16b1d3d" d="M385.66,229l-.07,0a.23.23,0,0,0,0-.11Z"/><path class="562f29a9-fb7b-4b95-900a-ec3ce16b1d3d" d="M382.6,226.77a1.18,1.18,0,0,0-1.29-.09l-.11.09-.07.07a.88.88,0,0,0-.12.19.76.76,0,0,0-.06.16.71.71,0,0,0-.06.22,1.29,1.29,0,0,0,0,.35,3.87,3.87,0,0,0,1.74,3,1.34,1.34,0,0,0,1.09.19.35.35,0,0,0,.14-.06l.11-.07a1.34,1.34,0,0,0,.42-1.06v0A3.83,3.83,0,0,0,382.6,226.77Zm0,0a1.18,1.18,0,0,0-1.29-.09l-.11.09-.07.07a.88.88,0,0,0-.12.19.76.76,0,0,0-.06.16.71.71,0,0,0-.06.22,1.29,1.29,0,0,0,0,.35,3.87,3.87,0,0,0,1.74,3,1.34,1.34,0,0,0,1.09.19.35.35,0,0,0,.14-.06l.11-.07a1.34,1.34,0,0,0,.42-1.06v0A3.83,3.83,0,0,0,382.6,226.77Zm3,2.27,0,0c.06.24.12.51.18.74l0,0C385.67,229.43,385.6,229,385.59,229Zm.18.74h0c0,.17.07.34.09.45A3.87,3.87,0,0,0,385.77,229.78Zm-3.17-3a1.18,1.18,0,0,0-1.29-.09l-.11.09-.07.07a.88.88,0,0,0-.12.19.76.76,0,0,0-.06.16.71.71,0,0,0-.06.22,1.29,1.29,0,0,0,0,.35,3.87,3.87,0,0,0,1.74,3,1.34,1.34,0,0,0,1.09.19.35.35,0,0,0,.14-.06l.11-.07a1.34,1.34,0,0,0,.42-1.06v0A3.83,3.83,0,0,0,382.6,226.77Z"/><path class="562f29a9-fb7b-4b95-900a-ec3ce16b1d3d" d="M385.72,229.81c-.06-.23-.12-.5-.18-.74a1.62,1.62,0,0,1,0-.19c-.05-.2-.1-.37-.13-.47a.64.64,0,0,0,0-.07,7.49,7.49,0,0,0-1.42-2.21,4.52,4.52,0,0,0-.63-.61,5.13,5.13,0,0,0-.69-.49,2.68,2.68,0,0,0-1.75-.42,1.89,1.89,0,0,0-.34.09h0c-1.22.49-1.52,2.39-.64,4.49a6.93,6.93,0,0,0,2.74,3.32,2.8,2.8,0,0,0,1.75.42,1.52,1.52,0,0,0,.68-.27,1.5,1.5,0,0,0,.23-.2,2.56,2.56,0,0,0,.2-.26l0,0a2.35,2.35,0,0,0,.27-.67c0-.13.06-.27.08-.41v0a4.4,4.4,0,0,0,0-.73v0h0C385.81,230.21,385.76,230,385.72,229.81Zm-1.37,0a1.34,1.34,0,0,1-.42,1.06l-.11.07a.35.35,0,0,1-.14.06,1.34,1.34,0,0,1-1.09-.19,3.87,3.87,0,0,1-1.74-3,1.29,1.29,0,0,1,0-.35.71.71,0,0,1,.06-.22A.76.76,0,0,1,381,227a.88.88,0,0,1,.12-.19l.07-.07.11-.09a1.18,1.18,0,0,1,1.29.09,3.83,3.83,0,0,1,1.75,3Z"/></g><g class="4d1d7fa0-31e2-4342-8423-9f24c4b63f64"><path class="562f29a9-fb7b-4b95-900a-ec3ce16b1d3d" d="M346.31,225.2l-1.76,1a3.87,3.87,0,0,1-1.74-3,1.29,1.29,0,0,1,0-.35.71.71,0,0,1,.06-.22.76.76,0,0,1,.06-.16.88.88,0,0,1,.12-.19l.07-.07.11-.09a1.18,1.18,0,0,1,1.29.09A3.83,3.83,0,0,1,346.31,225.2Z"/><path class="562f29a9-fb7b-4b95-900a-ec3ce16b1d3d" d="M347.62,224.44l-.07,0-.05,0a1.62,1.62,0,0,1,0-.19l.06.05Z"/><path class="562f29a9-fb7b-4b95-900a-ec3ce16b1d3d" d="M349.94,226.4l-3,1.71a1.43,1.43,0,0,0,.23-.2,1,1,0,0,0,.2-.26l0,0a2.35,2.35,0,0,0,.27-.67,1.75,1.75,0,0,0,.08-.41v0a3.78,3.78,0,0,0,0-.68v0a0,0,0,0,0,0,0v0h0a.17.17,0,0,0,0-.07,3.87,3.87,0,0,0-.06-.46h0l0,0c-.06-.23-.12-.5-.18-.74l.05,0,.07,0-.1-.07a3.63,3.63,0,0,0-.19-.52.64.64,0,0,0,0-.07,7.49,7.49,0,0,0-1.42-2.21,4.52,4.52,0,0,0-.63-.61,5.13,5.13,0,0,0-.69-.49,2.68,2.68,0,0,0-1.75-.42,1.89,1.89,0,0,0-.34.09h0l-.2.09,3.07-1.78a1.61,1.61,0,0,1,.56-.19,2.66,2.66,0,0,1,1.75.42,7,7,0,0,1,2.74,3.31C351.2,224,351,225.79,349.94,226.4Z"/><path class="562f29a9-fb7b-4b95-900a-ec3ce16b1d3d" d="M346.31,225.2v0a1.34,1.34,0,0,1-.42,1.06l-.11.07a.35.35,0,0,1-.14.06,1.34,1.34,0,0,1-1.09-.19Z"/><path class="562f29a9-fb7b-4b95-900a-ec3ce16b1d3d" d="M347.62,224.44l-.07,0a.23.23,0,0,0,0-.11Z"/><path class="562f29a9-fb7b-4b95-900a-ec3ce16b1d3d" d="M344.56,222.21a1.18,1.18,0,0,0-1.29-.09l-.11.09-.07.07a.88.88,0,0,0-.12.19.76.76,0,0,0-.06.16.71.71,0,0,0-.06.22,1.29,1.29,0,0,0,0,.35,3.87,3.87,0,0,0,1.74,3,1.34,1.34,0,0,0,1.09.19.35.35,0,0,0,.14-.06l.11-.07a1.34,1.34,0,0,0,.42-1.06v0A3.83,3.83,0,0,0,344.56,222.21Zm0,0a1.18,1.18,0,0,0-1.29-.09l-.11.09-.07.07a.88.88,0,0,0-.12.19.76.76,0,0,0-.06.16.71.71,0,0,0-.06.22,1.29,1.29,0,0,0,0,.35,3.87,3.87,0,0,0,1.74,3,1.34,1.34,0,0,0,1.09.19.35.35,0,0,0,.14-.06l.11-.07a1.34,1.34,0,0,0,.42-1.06v0A3.83,3.83,0,0,0,344.56,222.21Zm3,2.27-.05,0c.06.24.12.51.18.74l0,0C347.63,224.87,347.56,224.48,347.55,224.48Zm.18.74h0c0,.17.07.34.09.45A3.87,3.87,0,0,0,347.73,225.22Zm-3.17-3a1.18,1.18,0,0,0-1.29-.09l-.11.09-.07.07a.88.88,0,0,0-.12.19.76.76,0,0,0-.06.16.71.71,0,0,0-.06.22,1.29,1.29,0,0,0,0,.35,3.87,3.87,0,0,0,1.74,3,1.34,1.34,0,0,0,1.09.19.35.35,0,0,0,.14-.06l.11-.07a1.34,1.34,0,0,0,.42-1.06v0A3.83,3.83,0,0,0,344.56,222.21Z"/><path class="562f29a9-fb7b-4b95-900a-ec3ce16b1d3d" d="M347.68,225.25c-.06-.23-.12-.5-.18-.74a1.62,1.62,0,0,1,0-.19c0-.2-.1-.37-.13-.47a.64.64,0,0,0,0-.07,7.49,7.49,0,0,0-1.42-2.21,4.52,4.52,0,0,0-.63-.61,5.13,5.13,0,0,0-.69-.49,2.68,2.68,0,0,0-1.75-.42,1.89,1.89,0,0,0-.34.09h0c-1.22.49-1.52,2.39-.64,4.49a6.93,6.93,0,0,0,2.74,3.32,2.8,2.8,0,0,0,1.75.42,1.52,1.52,0,0,0,.68-.27,1.5,1.5,0,0,0,.23-.2,2.56,2.56,0,0,0,.2-.26l0,0a2.35,2.35,0,0,0,.27-.67c0-.13.06-.27.08-.41v0a4.4,4.4,0,0,0,0-.73v0h0C347.77,225.65,347.72,225.46,347.68,225.25Zm-1.37,0a1.34,1.34,0,0,1-.42,1.06l-.11.07a.35.35,0,0,1-.14.06,1.34,1.34,0,0,1-1.09-.19,3.87,3.87,0,0,1-1.74-3,1.29,1.29,0,0,1,0-.35.71.71,0,0,1,.06-.22.76.76,0,0,1,.06-.16.88.88,0,0,1,.12-.19l.07-.07.11-.09a1.18,1.18,0,0,1,1.29.09,3.83,3.83,0,0,1,1.75,3Z"/></g><g class="4d1d7fa0-31e2-4342-8423-9f24c4b63f64"><polygon class="562f29a9-fb7b-4b95-900a-ec3ce16b1d3d" points="388.34 218.53 388.4 224.29 371 234.4 370.94 228.54 388.34 218.53"/><polygon class="562f29a9-fb7b-4b95-900a-ec3ce16b1d3d" points="370.97 228.68 371 234.4 342.04 217.68 342.01 211.96 370.97 228.68"/><polygon class="562f29a9-fb7b-4b95-900a-ec3ce16b1d3d" points="388.34 218.63 370.94 228.74 341.98 212.02 359.38 201.91 388.34 218.63"/></g><ellipse class="562f29a9-fb7b-4b95-900a-ec3ce16b1d3d" cx="353.52" cy="211.92" rx="2.02" ry="1.39"/><ellipse class="562f29a9-fb7b-4b95-900a-ec3ce16b1d3d" cx="357.55" cy="215.32" rx="2.02" ry="1.39"/><ellipse class="562f29a9-fb7b-4b95-900a-ec3ce16b1d3d" cx="362.86" cy="218.24" rx="2.02" ry="1.39"/><ellipse class="562f29a9-fb7b-4b95-900a-ec3ce16b1d3d" cx="361.46" cy="213.68" rx="2.02" ry="1.39"/><ellipse class="562f29a9-fb7b-4b95-900a-ec3ce16b1d3d" cx="368.94" cy="213.31" rx="2.02" ry="1.39"/><path class="562f29a9-fb7b-4b95-900a-ec3ce16b1d3d" d="M369,222.43c.4.53,7.4,1.95,9.55-1.13s-3.22-5.56-4.49-5.23S366.12,218.71,369,222.43Z"/><g class="9979793f-dbf1-48b1-8bc1-d650b0d3c61f"><g class="4d1d7fa0-31e2-4342-8423-9f24c4b63f64"><polygon class="f24ec71c-ef1d-463a-aaab-0fcf5b21d116" points="388.38 207.53 388.24 218.97 370.69 228.82 370.84 217.28 388.38 207.53"/><polygon class="f24ec71c-ef1d-463a-aaab-0fcf5b21d116" points="370.93 212.13 370.69 228.82 341.99 211.66 342.14 200.28 370.93 212.13"/><polygon class="f24ec71c-ef1d-463a-aaab-0fcf5b21d116" points="388.48 207.51 370.93 217.36 342.22 200.2 359.77 190.35 388.48 207.51"/></g></g><path class="562f29a9-fb7b-4b95-900a-ec3ce16b1d3d" d="M388.34,219.19s-3.68-24.87-6.1-33.34c0,0,.27-1.35,0-1.22-7.9,3.62-21.9,12.45-21.9,12.45a35,35,0,0,1,1.72,8.85c0,3.7,1,3.32,1,3.32s16.6-4.69,20.85-9.13l1.93-1.93-3.6-12.34"/><g class="4d1d7fa0-31e2-4342-8423-9f24c4b63f64"><g class="bccd8e9c-e6a4-4831-a616-ae4951dba15f"><path class="f18c17c1-6953-417e-964f-e168aed48a75" d="M371.69,199.33l-.48.28.54,2.66c.13.64.27.81.72.55l.23-.13a.93.93,0,0,0,.28-.21c0-.14-.1-.37-.14-.52a1.1,1.1,0,0,1-.25.19l-.19.11c-.07,0-.11,0-.16-.25l-.55-2.68m-4.46,2.57-.46.27.15.74a6,6,0,0,1,0,2.83,1.33,1.33,0,0,1,.44.23,7,7,0,0,0,0-3.31l-.15-.76m1.7-1-.44.26.45,2.2c.09.47.21.63.56.43l.15-.09.14-.09a4.88,4.88,0,0,1-.16.66,1.18,1.18,0,0,1,.44.24,6,6,0,0,0,.09-3.27l-.19-.93-.47.27.18.92a6,6,0,0,1,.15,1.74l0-.12a1.11,1.11,0,0,1-.24.16l-.05,0c-.07,0-.08,0-.12-.21l-.46-2.21m-1.28-2.07-.61.36.27,1.29-1,.58.16.78,1-.58,1,4.69.61-.36-1-4.68.89-.52-.16-.77-.89.51-.27-1.3m2.75-1.59-.62.37.26,1.29-1,.6.16.77,1-.6,1,4.69.63-.36-1-4.69,1.2-.69-.16-.77-1.2.69-.27-1.3m-2.2-1.2-.68.65c.14.21.32.5.46.75l-3.06,1.77.54,2.61a14.66,14.66,0,0,1,.36,5,2.23,2.23,0,0,1,.71.21,16.56,16.56,0,0,0-.36-5.61l-.36-1.75,5.79-3.34-.18-.86L368.8,197c-.17-.3-.41-.64-.6-.92"/><path class="f18c17c1-6953-417e-964f-e168aed48a75" d="M374.56,197.6a11.93,11.93,0,0,1-.13,2.77,3.85,3.85,0,0,1,.5.68,15.58,15.58,0,0,0,.12-3.52l-.49.07m.83-4.92a21.66,21.66,0,0,1,0,2.28l.49-.08c.06-.61.1-1.56.13-2.34l-.61.14m-1.61.9-.48.45a15.11,15.11,0,0,1,.77,1.87l.51-.48a16.57,16.57,0,0,0-.8-1.84m5.06,5.24-.12-.6,1.9-1.1.13.6-1.91,1.1m-.24-1.17-.12-.62,1.9-1.09.13.61-1.91,1.1m.25-2.89-.12-.62.76-.44c-.15.32-.3.65-.46,1l-.18.1m-2-1.65-.17-.81.57-.33.17.81-.57.33m1.11-.64-.16-.81.58-.34.16.81-.58.34m1.13-.65L379,191l.59-.34.17.81-.59.34m-4.35.55-.62.36.65,3.21-1,.58.17.84,1-.58,1,4.83.62-.36-.77-3.73c.28.4.67,1.07.85,1.41l.32-.82-.1-.16.38.35c.21-.26.43-.51.63-.77l.54,2.64.61-.35-.08-.37,1.91-1.1.07.36.64-.37-.69-3.41-2,1.13c.17-.28.34-.55.49-.85l1.68-1-.14-.7-1,.58a12.3,12.3,0,0,0,.68-1.93l-.66,0a9.36,9.36,0,0,1-.37,1.17l-.09-.46-.93.53-.12-.57,1.91-1.1-.43-2.09L376.06,192l.43,2.09,1.35-.78.12.57-1.14.65.14.67,1.14-.66.12.62-1.57.91.14.7,1.52-.87a15.58,15.58,0,0,1-1.55,1.93c-.27-.37-.66-.87-.8-1l-.22.37-.14-.73.85-.49-.17-.84-.86.49-.65-3.21"/></g></g></g><g id="85b657ba-b13a-4553-a751-b09d7ec359b4" data-name="&lt;Island 1&gt;"><g class="4d1d7fa0-31e2-4342-8423-9f24c4b63f64"><polygon class="f263de91-8a19-42c1-8ef5-b0c5e738b76f" points="410 307.45 409.95 323.72 329.55 370.17 329.59 354.18 410 307.45"/><polygon class="f263de91-8a19-42c1-8ef5-b0c5e738b76f" points="329.59 354.18 329.55 370.17 229.07 312.91 229.12 296.17 329.59 354.18"/><polygon class="562f29a9-fb7b-4b95-900a-ec3ce16b1d3d" points="410 307.45 329.59 354.18 229.12 296.17 309.52 249.44 410 307.45"/></g><g class="4d1d7fa0-31e2-4342-8423-9f24c4b63f64"><polygon class="562f29a9-fb7b-4b95-900a-ec3ce16b1d3d" points="394.49 265.3 394.37 305.27 379.01 314.2 379.12 274.23 394.49 265.3"/><polygon class="562f29a9-fb7b-4b95-900a-ec3ce16b1d3d" points="379.12 274.23 379.01 314.2 351.88 298.54 351.99 258.57 379.12 274.23"/><polygon class="562f29a9-fb7b-4b95-900a-ec3ce16b1d3d" points="394.49 265.3 379.12 274.23 351.99 258.57 367.36 249.64 394.49 265.3"/></g><polygon class="562f29a9-fb7b-4b95-900a-ec3ce16b1d3d" points="370.45 273.61 370.41 287.24 361.35 281.9 361.39 268.27 370.45 273.61"/><polygon class="562f29a9-fb7b-4b95-900a-ec3ce16b1d3d" points="365.11 290.02 365.09 293.48 356.04 288.14 356.06 284.68 365.11 290.02"/><polygon class="562f29a9-fb7b-4b95-900a-ec3ce16b1d3d" points="365.11 296.21 365.09 299.66 356.04 294.32 356.06 290.87 365.11 296.21"/><g class="4d1d7fa0-31e2-4342-8423-9f24c4b63f64"><g class="b1164b1c-3135-47a2-aebd-78a0bc8bf568"><path class="7174e1bf-92bf-46e0-a0a4-e464752d47a4" d="M366.27,273.11l-.9-.52v1.05c-.84-.29-1.34.12-1.35,1.12,0,1.81,2.3,3.16,2.3,4.12,0,.44-.21.53-.69.25a4.15,4.15,0,0,1-1.24-1.29l-.6.71a6.06,6.06,0,0,0,1.56,1.68v1l.9.52V280.7c.92.3,1.37-.2,1.37-1.17,0-1.91-2.29-3.19-2.29-4.08,0-.45.21-.49.62-.25a2.71,2.71,0,0,1,.95,1l.68-.51a4.82,4.82,0,0,0-1.31-1.59v-1"/></g></g><line class="562f29a9-fb7b-4b95-900a-ec3ce16b1d3d" x1="383.32" y1="289.75" x2="390.25" y2="286.21"/><line class="562f29a9-fb7b-4b95-900a-ec3ce16b1d3d" x1="383.32" y1="295.62" x2="390.25" y2="292.08"/><line class="562f29a9-fb7b-4b95-900a-ec3ce16b1d3d" x1="383.32" y1="301.38" x2="390.25" y2="297.85"/><g id="c0eaa775-dcd9-4ab7-83c4-4d9f85052b5d" data-name="&lt;trigger_claw_machine&gt;"><rect id="182f8e5e-160e-412b-b49f-d461e1e8d23e" data-name="hidden" class="c1165235-5df1-4168-8666-56dbbed3ce6e" x="260.93" y="230.3" width="76.52" height="86.23"/><g class="4d1d7fa0-31e2-4342-8423-9f24c4b63f64"><polygon class="562f29a9-fb7b-4b95-900a-ec3ce16b1d3d" points="326.57 265.17 326.56 286.94 305.6 299.13 305.61 277.35 326.57 265.17"/><polygon class="562f29a9-fb7b-4b95-900a-ec3ce16b1d3d" points="305.61 277.35 305.6 299.44 287.16 288.8 287.17 266.71 305.61 277.35"/><polygon class="562f29a9-fb7b-4b95-900a-ec3ce16b1d3d" points="326.57 265.17 305.61 277.35 287.17 266.71 308.13 254.52 326.57 265.17"/></g><g class="4d1d7fa0-31e2-4342-8423-9f24c4b63f64"><g class="720488ec-6882-4550-af8d-a951915d0bb6"><polyline class="3cfdbc89-0931-43fb-9edc-acca158a3493" points="315.95 275.31 308.9 279.38 308.91 281.55 315.95 277.49 315.95 275.31"/><path class="4426220d-fa35-4d10-b780-f5de4efaa22d" d="M308.91,281.55v-2.17l7.05-4.07v2.18l-7,4.06m7.39-7.26-7.76,4.48a.79.79,0,0,0-.35.62v3c0,.23.16.32.36.21l7.75-4.48a.77.77,0,0,0,.35-.61v-3c0-.23-.15-.32-.35-.21"/></g></g><g class="4d1d7fa0-31e2-4342-8423-9f24c4b63f64"><g class="df10c903-7b3c-427f-9286-7358b399c4e7"><polyline class="3cfdbc89-0931-43fb-9edc-acca158a3493" points="316.57 280.53 309.83 284.42 309.85 292.17 316.59 288.28 316.57 280.53"/><path class="4426220d-fa35-4d10-b780-f5de4efaa22d" d="M309.85,292.17l0-7.75,6.74-3.89,0,7.75-6.74,3.89m7.07-12.66-7.45,4.3a.81.81,0,0,0-.35.62l0,8.55c0,.23.16.32.35.21l7.45-4.3a.78.78,0,0,0,.35-.61l0-8.56c0-.23-.16-.32-.36-.21"/></g></g><polyline class="b79dacaf-58d3-427c-b859-7eec9f77e18a" points="297.05 246.85 297.05 252.35 293.12 254.21 293.68 258.02"/><polyline class="b79dacaf-58d3-427c-b859-7eec9f77e18a" points="297.05 252.35 300.55 254.21 299.72 258.02"/><circle class="562f29a9-fb7b-4b95-900a-ec3ce16b1d3d" cx="313.49" cy="260" r="3.49"/><circle class="562f29a9-fb7b-4b95-900a-ec3ce16b1d3d" cx="306.04" cy="261.44" r="2.48"/><circle class="562f29a9-fb7b-4b95-900a-ec3ce16b1d3d" cx="308.98" cy="271.12" r="1.02"/><circle class="562f29a9-fb7b-4b95-900a-ec3ce16b1d3d" cx="303.56" cy="266.71" r="3.5"/><g class="273deebe-74dc-4ff9-9285-cd6aaadcabf9"><g class="4d1d7fa0-31e2-4342-8423-9f24c4b63f64"><polygon class="f24ec71c-ef1d-463a-aaab-0fcf5b21d116" points="326.79 242.43 326.73 265.25 305.76 277.43 305.83 254.61 326.79 242.43"/><polygon class="f24ec71c-ef1d-463a-aaab-0fcf5b21d116" points="305.83 254.61 305.76 277.43 287.32 266.79 287.39 243.96 305.83 254.61"/><polygon class="f24ec71c-ef1d-463a-aaab-0fcf5b21d116" points="326.79 242.43 305.83 254.61 287.39 243.96 308.35 231.78 326.79 242.43"/></g></g><g class="4d1d7fa0-31e2-4342-8423-9f24c4b63f64"><polygon class="562f29a9-fb7b-4b95-900a-ec3ce16b1d3d" points="326.57 235.5 326.55 242.03 305.58 254.21 305.6 247.69 326.57 235.5"/><polygon class="562f29a9-fb7b-4b95-900a-ec3ce16b1d3d" points="305.6 247.69 305.58 254.21 287.14 243.56 287.16 237.04 305.6 247.69"/><polygon class="562f29a9-fb7b-4b95-900a-ec3ce16b1d3d" points="326.57 235.5 305.6 247.69 287.16 237.04 308.13 224.86 326.57 235.5"/></g><g class="4d1d7fa0-31e2-4342-8423-9f24c4b63f64"><polygon class="562f29a9-fb7b-4b95-900a-ec3ce16b1d3d" points="301.5 278.92 301.5 300.7 280.53 312.88 280.54 291.1 301.5 278.92"/><polygon class="562f29a9-fb7b-4b95-900a-ec3ce16b1d3d" points="280.54 291.1 280.53 313.19 262.09 302.55 262.1 280.46 280.54 291.1"/><polygon class="562f29a9-fb7b-4b95-900a-ec3ce16b1d3d" points="301.5 278.92 280.54 291.1 262.1 280.46 283.07 268.27 301.5 278.92"/></g><g class="4d1d7fa0-31e2-4342-8423-9f24c4b63f64"><g class="5ba5580e-d9c4-4bd6-a42c-363d4e3686df"><polyline class="3cfdbc89-0931-43fb-9edc-acca158a3493" points="290.88 289.06 283.84 293.13 283.85 295.3 290.89 291.24 290.88 289.06"/><path class="4426220d-fa35-4d10-b780-f5de4efaa22d" d="M283.85,295.3v-2.17l7-4.07v2.18l-7,4.06m7.39-7.26-7.76,4.48a.79.79,0,0,0-.35.61v3c0,.23.16.31.35.2l7.76-4.48a.76.76,0,0,0,.35-.6v-3c0-.22-.16-.31-.35-.2"/></g></g><g class="4d1d7fa0-31e2-4342-8423-9f24c4b63f64"><g class="8bad3f03-09e1-4111-a81d-64851475e6d4"><polyline class="3cfdbc89-0931-43fb-9edc-acca158a3493" points="291.5 294.29 284.77 298.17 284.79 305.92 291.52 302.03 291.5 294.29"/><path class="4426220d-fa35-4d10-b780-f5de4efaa22d" d="M284.79,305.92l0-7.75,6.73-3.88,0,7.74-6.74,3.89m7.07-12.66-7.45,4.31a.75.75,0,0,0-.35.61l0,8.55c0,.23.16.33.35.21l7.46-4.3a.79.79,0,0,0,.35-.61l0-8.56c0-.22-.16-.32-.35-.21"/></g></g><polyline class="b79dacaf-58d3-427c-b859-7eec9f77e18a" points="271.98 260.6 271.98 266.1 268.05 267.96 268.61 271.77"/><polyline class="b79dacaf-58d3-427c-b859-7eec9f77e18a" points="271.98 266.1 275.48 267.96 274.65 271.77"/><circle class="f263de91-8a19-42c1-8ef5-b0c5e738b76f" cx="292.83" cy="273.74" r="3.4"/><circle class="f263de91-8a19-42c1-8ef5-b0c5e738b76f" cx="286.23" cy="277.14" r="3.49"/><circle class="562f29a9-fb7b-4b95-900a-ec3ce16b1d3d" cx="278.18" cy="280.47" r="2.48"/><circle class="562f29a9-fb7b-4b95-900a-ec3ce16b1d3d" cx="279.78" cy="274.07" r="3.91"/><circle class="f263de91-8a19-42c1-8ef5-b0c5e738b76f" cx="283.92" cy="284.88" r="1.02"/><circle class="562f29a9-fb7b-4b95-900a-ec3ce16b1d3d" cx="289.61" cy="277.99" r="3.01"/><circle class="f263de91-8a19-42c1-8ef5-b0c5e738b76f" cx="271.98" cy="279.37" r="3.5"/><g class="273deebe-74dc-4ff9-9285-cd6aaadcabf9"><g class="4d1d7fa0-31e2-4342-8423-9f24c4b63f64"><polygon class="f24ec71c-ef1d-463a-aaab-0fcf5b21d116" points="301.53 255.46 301.46 278.29 280.5 290.47 280.56 267.65 301.53 255.46"/><polygon class="f24ec71c-ef1d-463a-aaab-0fcf5b21d116" points="280.56 267.65 280.5 290.47 262.06 279.82 262.13 257 280.56 267.65"/><polygon class="f24ec71c-ef1d-463a-aaab-0fcf5b21d116" points="301.53 255.46 280.56 267.65 262.13 257 283.09 244.82 301.53 255.46"/></g></g><g class="4d1d7fa0-31e2-4342-8423-9f24c4b63f64"><polygon class="562f29a9-fb7b-4b95-900a-ec3ce16b1d3d" points="301.5 249.25 301.48 255.78 280.52 267.96 280.53 261.44 301.5 249.25"/><polygon class="562f29a9-fb7b-4b95-900a-ec3ce16b1d3d" points="280.53 261.44 280.52 267.96 262.08 257.31 262.1 250.79 280.53 261.44"/><polygon class="562f29a9-fb7b-4b95-900a-ec3ce16b1d3d" points="301.5 249.25 280.53 261.44 262.1 250.79 283.06 238.61 301.5 249.25"/></g><g id="45c1e4bc-907a-48ff-a6e5-6ba580710ba8" data-name="child"><path class="9d2111ba-a77e-4628-9461-185414bea08a" d="M324.5,277.25s-5.77,15.05-2.57,16.53,11.89,1,11.49-5.34a41.6,41.6,0,0,0-2.91-12.18Z"/><ellipse class="9d2111ba-a77e-4628-9461-185414bea08a" cx="327.2" cy="273.31" rx="5.62" ry="6.01" transform="translate(-88.42 178.35) rotate(-27)"/><ellipse class="9d2111ba-a77e-4628-9461-185414bea08a" cx="324.4" cy="271.89" rx="0.22" ry="0.24"/><path class="9d2111ba-a77e-4628-9461-185414bea08a" d="M332.82,291.34s-5.39,8.32-7,12.55h-1.47L321,293.24S328.57,293.89,332.82,291.34Z"/><path class="9d2111ba-a77e-4628-9461-185414bea08a" d="M326,303.89v2.23h-4s-2.19-1.23,0-2.23,2.47,0,2.47,0Z"/><path class="9d2111ba-a77e-4628-9461-185414bea08a" d="M324.51,284.09s-4.7,7.14-6.27,7.89,8.87-3.81,8.4-7.42"/></g><path class="f4725120-c221-46c9-83e7-8efebfd932f1" d="M323.29,268.82s1.27-5,2.66-5.47l.76,1s4.32-.8,5.15.39a11.86,11.86,0,0,0,2.13,2.23s-.65,3.11,0,3.34-1.72,3.12-1.72,3.12l-1.81-4.57-2.3-1.1-3,.12Z"/><g id="f667b7cf-eee3-4d03-873a-98c5b27c9d27" data-name="child"><path class="9d2111ba-a77e-4628-9461-185414bea08a" d="M303.68,298.72s-6,15.55-2.66,17.08,12.28,1.05,11.87-5.51a42.77,42.77,0,0,0-3-12.59Z"/><ellipse class="9d2111ba-a77e-4628-9461-185414bea08a" cx="306.46" cy="294.65" rx="5.81" ry="6.21" transform="translate(-100.37 171.26) rotate(-27)"/><ellipse class="9d2111ba-a77e-4628-9461-185414bea08a" cx="303.57" cy="293.18" rx="0.23" ry="0.24"/><path class="9d2111ba-a77e-4628-9461-185414bea08a" d="M312.27,313.28s-5.56,8.59-7.23,13h-1.52l-3.43-11S307.88,315.92,312.27,313.28Z"/><path class="9d2111ba-a77e-4628-9461-185414bea08a" d="M305.27,326.25v2.3h-4.15s-2.26-1.28,0-2.3,2.55,0,2.55,0Z"/><path class="9d2111ba-a77e-4628-9461-185414bea08a" d="M305.34,307.16s-8.53-2.3-9.78-3.6,6.62,7.47,10,5.84"/><circle class="9d2111ba-a77e-4628-9461-185414bea08a" cx="294.19" cy="301.21" r="2.64"/></g><path class="f4725120-c221-46c9-83e7-8efebfd932f1" d="M302.43,290s1.31-5.16,2.74-5.65l.79,1s4.47-.82,5.32.41a12.14,12.14,0,0,0,2.2,2.31s-.68,3.21,0,3.45-1.78,3.22-1.78,3.22L309.83,290l-2.38-1.14-3.1.13Z"/><g id="eb359413-433a-40f8-aeb2-dacc99370419" data-name="sign"><path class="f18c17c1-6953-417e-964f-e168aed48a75" d="M330.61,240.55l-.47,10h-1l-.46-10Zm-.06,14.27h-1.84v-2.34h1.84Z"/></g></g><g id="9eed2a9a-575c-4510-9421-d7b004a14ca5" data-name="child"><path class="f263de91-8a19-42c1-8ef5-b0c5e738b76f" d="M350.67,291.47s6,15.7,2.67,17.23-12.38,1.07-12-5.56a43,43,0,0,1,3-12.7Z"/><ellipse class="9d2111ba-a77e-4628-9461-185414bea08a" cx="347.86" cy="287.37" rx="6.27" ry="5.86" transform="translate(-66.12 466.83) rotate(-63)"/><ellipse class="9d2111ba-a77e-4628-9461-185414bea08a" cx="350.78" cy="285.88" rx="0.23" ry="0.25"/><path class="9d2111ba-a77e-4628-9461-185414bea08a" d="M342,306.16s5.62,8.67,7.3,13.09h1.54l3.45-11.11S346.43,308.82,342,306.16Z"/><path class="9d2111ba-a77e-4628-9461-185414bea08a" d="M349.06,319.25v2.32h4.19s2.27-1.29,0-2.32-2.58,0-2.58,0Z"/><path class="f263de91-8a19-42c1-8ef5-b0c5e738b76f" d="M350.65,298.6s4.91,7.44,6.55,8.22-9.26-4-8.76-7.73"/></g><path class="f4725120-c221-46c9-83e7-8efebfd932f1" d="M351.93,282.68s-1.33-5.2-2.77-5.7l-.8,1s-4.5-.83-5.36.41a12.74,12.74,0,0,1-2.23,2.32s.69,3.24,0,3.49,1.8,3.24,1.8,3.24l1.89-4.76,2.4-1.15,3.13.13Z"/></g><g id="3f84cc12-9f43-4fcd-8b78-9a2278563d7a" data-name="&lt;trigger_water&gt;"><g class="4d1d7fa0-31e2-4342-8423-9f24c4b63f64"><polygon class="f263de91-8a19-42c1-8ef5-b0c5e738b76f" points="253.14 258.82 253.1 272.24 187.62 310.58 187.66 296.88 253.14 258.82"/><polygon class="f263de91-8a19-42c1-8ef5-b0c5e738b76f" points="187.66 296.88 183.18 288.7 180.45 287.33 161.32 273.67 146.75 264.11 138.46 264.63 137.38 262.65 134.65 261.29 115.52 247.62 100.94 238.06 86.66 238.96 86.62 250.17 141.81 283.4 141.81 283.4 187.62 310.49 187.66 296.88"/><path class="d19a4037-cbae-4c10-811c-a94077971067" d="M241.44,252.07c-3.23.59-8.16-.26-11.38-6.58-1.4-2.73-3.16-6.89-10.66-6.15-3.27.33-8.56,1.1-11.4-6.58a8.61,8.61,0,0,0-5.49-4.87,9.15,9.15,0,0,0-6.87-1.87c-3.23.59-8.16-.26-11.39-6.57-1.4-2.74-3.15-6.9-10.65-6.16-3.28.33-8.57,1.1-11.4-6.58-2-5.54-10-5.8-10-5.8L86.66,239s7.91-.9,10.56,6.1c2.45,6.48,7.37,6.23,10.35,6,8-.68,10.41,4,12.05,7.07,4.09,7.74,7.64,6.48,10.68,6.06,1.23-.17,5.72-.78,7.7,1a12.54,12.54,0,0,1,5,6c2.46,6.48,7.37,6.23,10.35,6,7.95-.68,10.41,4,12,7.07,4.1,7.74,7.64,6.48,10.69,6.06,7.53-1,11.55,6.67,11.55,6.67l65.48-38.06S247.85,250.9,241.44,252.07Z"/></g><line class="d19a4037-cbae-4c10-811c-a94077971067" x1="117.87" y1="240.65" x2="150.79" y2="220.57"/><line class="d19a4037-cbae-4c10-811c-a94077971067" x1="129.52" y1="238.72" x2="162.44" y2="218.64"/><line class="d19a4037-cbae-4c10-811c-a94077971067" x1="156.49" y1="259.62" x2="189.41" y2="239.54"/><line class="d19a4037-cbae-4c10-811c-a94077971067" x1="188.71" y1="268.86" x2="203.2" y2="260.02"/><line class="d19a4037-cbae-4c10-811c-a94077971067" x1="176" y1="268.86" x2="192.46" y2="258.82"/><g id="9e073b8a-bc24-4aab-92d9-29a0f6d10b36" data-name="sign"><path class="f18c17c1-6953-417e-964f-e168aed48a75" d="M118.85,209.69l-.47,10h-1l-.47-10ZM118.79,224H117v-2.34h1.84Z"/></g><rect id="765e850e-56c4-48da-a9e0-b8bf989880c3" data-name="hidden" class="c1165235-5df1-4168-8666-56dbbed3ce6e" x="97.82" y="199.08" width="151" height="100.59"/></g></g></g></svg>