<svg 
 xmlns="http://www.w3.org/2000/svg"
 xmlns:xlink="http://www.w3.org/1999/xlink"
 width="1.27cm" height="1.27cm">
<path fill-rule="evenodd"  fill="rgb(19, 17, 22)"
 d="M18.000,36.000 C8.059,36.000 -0.000,27.941 -0.000,18.000 C-0.000,8.059 8.059,-0.000 18.000,-0.000 C27.941,-0.000 36.000,8.059 36.000,18.000 C36.000,27.941 27.941,36.000 18.000,36.000 ZM18.000,0.720 C8.472,0.720 0.720,8.472 0.720,18.000 C0.720,27.528 8.472,35.280 18.000,35.280 C27.528,35.280 35.280,27.528 35.280,18.000 C35.280,8.472 27.528,0.720 18.000,0.720 ZM23.954,23.688 L24.905,25.589 L22.155,24.411 C21.728,24.503 21.287,24.569 20.824,24.569 C18.006,24.569 15.721,22.741 15.721,20.487 C15.721,18.233 18.006,16.405 20.824,16.405 C23.641,16.405 25.926,18.233 25.926,20.487 C25.926,21.792 25.146,22.941 23.954,23.688 ZM19.293,18.701 C18.870,18.701 18.527,19.044 18.527,19.466 C18.527,19.889 18.870,20.232 19.293,20.232 C19.715,20.232 20.058,19.889 20.058,19.466 C20.058,19.044 19.715,18.701 19.293,18.701 ZM22.354,18.701 C21.932,18.701 21.589,19.044 21.589,19.466 C21.589,19.889 21.932,20.232 22.354,20.232 C22.777,20.232 23.120,19.889 23.120,19.466 C23.120,19.044 22.777,18.701 22.354,18.701 ZM14.701,20.487 C14.701,20.814 14.742,21.134 14.813,21.445 C14.289,21.381 13.800,21.243 13.328,21.076 L11.129,22.018 L11.936,20.403 C10.515,19.470 9.598,18.030 9.598,16.405 C9.598,13.587 12.339,11.303 15.721,11.303 C18.709,11.303 21.194,13.087 21.733,15.447 C21.435,15.410 21.133,15.385 20.824,15.385 C17.447,15.385 14.701,17.673 14.701,20.487 ZM13.680,13.599 C13.258,13.599 12.915,13.942 12.915,14.364 C12.915,14.787 13.258,15.129 13.680,15.129 C14.103,15.129 14.446,14.787 14.446,14.364 C14.446,13.942 14.103,13.599 13.680,13.599 ZM17.762,13.599 C17.340,13.599 16.997,13.942 16.997,14.364 C16.997,14.787 17.340,15.129 17.762,15.129 C18.185,15.129 18.527,14.787 18.527,14.364 C18.527,13.942 18.185,13.599 17.762,13.599 Z"/>
</svg>