<svg 
 xmlns="http://www.w3.org/2000/svg"
 xmlns:xlink="http://www.w3.org/1999/xlink"
 width="1.27cm" height="1.27cm">
<path fill-rule="evenodd"  fill="rgb(19, 17, 22)"
 d="M18.000,36.000 C8.059,36.000 -0.000,27.941 -0.000,18.000 C-0.000,8.059 8.059,-0.000 18.000,-0.000 C27.941,-0.000 36.000,8.059 36.000,18.000 C36.000,27.941 27.941,36.000 18.000,36.000 ZM18.000,0.720 C8.472,0.720 0.720,8.472 0.720,18.000 C0.720,27.528 8.472,35.280 18.000,35.280 C27.528,35.280 35.280,27.528 35.280,18.000 C35.280,8.472 27.528,0.720 18.000,0.720 ZM22.773,23.771 L13.227,23.771 C11.354,23.771 9.836,22.252 9.836,20.380 L9.836,15.608 C9.836,13.735 11.354,12.217 13.227,12.217 L22.773,12.217 C24.645,12.217 26.164,13.735 26.164,15.608 L26.164,20.380 C26.164,22.252 24.645,23.771 22.773,23.771 ZM20.483,17.904 L16.019,15.642 C15.899,15.581 15.758,15.668 15.758,15.802 L15.758,20.193 C15.758,20.325 15.896,20.412 16.015,20.355 L20.479,18.226 C20.614,18.162 20.616,17.971 20.483,17.904 Z"/>
</svg>