<svg 
 xmlns="http://www.w3.org/2000/svg"
 xmlns:xlink="http://www.w3.org/1999/xlink"
 width="1.27cm" height="1.27cm">
<path fill-rule="evenodd"  fill="rgb(19, 17, 22)"
 d="M18.000,36.000 C8.059,36.000 -0.000,27.941 -0.000,18.000 C-0.000,8.059 8.059,-0.000 18.000,-0.000 C27.941,-0.000 36.000,8.059 36.000,18.000 C36.000,27.941 27.941,36.000 18.000,36.000 ZM18.000,0.720 C8.472,0.720 0.720,8.472 0.720,18.000 C0.720,27.528 8.472,35.280 18.000,35.280 C27.528,35.280 35.280,27.528 35.280,18.000 C35.280,8.472 27.528,0.720 18.000,0.720 ZM21.223,24.967 L15.497,24.967 C13.170,24.967 11.276,23.074 11.276,20.747 L11.276,15.020 C11.276,12.693 13.170,10.800 15.497,10.800 L21.223,10.800 C23.550,10.800 25.444,12.693 25.444,15.020 L25.444,20.747 C25.444,23.074 23.550,24.967 21.223,24.967 ZM24.018,15.020 C24.018,13.477 22.767,12.225 21.223,12.225 L15.497,12.225 C13.953,12.225 12.702,13.477 12.702,15.020 L12.702,20.747 C12.702,22.290 13.953,23.542 15.497,23.542 L21.223,23.542 C22.767,23.542 24.018,22.290 24.018,20.747 L24.018,15.020 ZM22.031,15.125 C21.546,15.125 21.153,14.732 21.153,14.247 C21.153,13.762 21.546,13.369 22.031,13.369 C22.516,13.369 22.909,13.762 22.909,14.247 C22.909,14.732 22.516,15.125 22.031,15.125 ZM18.360,21.548 C16.340,21.548 14.696,19.904 14.696,17.884 C14.696,15.863 16.340,14.219 18.360,14.219 C20.380,14.219 22.024,15.863 22.024,17.884 C22.024,19.904 20.380,21.548 18.360,21.548 ZM18.360,15.645 C17.123,15.645 16.121,16.647 16.121,17.884 C16.121,19.120 17.123,20.123 18.360,20.123 C19.596,20.123 20.599,19.120 20.599,17.884 C20.599,16.647 19.596,15.645 18.360,15.645 Z"/>
</svg>