<svg 
 xmlns="http://www.w3.org/2000/svg"
 xmlns:xlink="http://www.w3.org/1999/xlink"
 width="1.27cm" height="1.27cm">
<path fill-rule="evenodd"  fill="rgb(19, 17, 22)"
 d="M18.000,36.000 C8.059,36.000 -0.000,27.941 -0.000,18.000 C-0.000,8.059 8.059,-0.000 18.000,-0.000 C27.941,-0.000 36.000,8.059 36.000,18.000 C36.000,27.941 27.941,36.000 18.000,36.000 ZM18.000,0.720 C8.472,0.720 0.720,8.472 0.720,18.000 C0.720,27.528 8.472,35.280 18.000,35.280 C27.528,35.280 35.280,27.528 35.280,18.000 C35.280,8.472 27.528,0.720 18.000,0.720 ZM22.725,22.264 C20.381,22.264 18.482,20.365 18.482,18.022 C18.482,15.678 20.381,13.779 22.725,13.779 C25.068,13.779 26.967,15.678 26.967,18.022 C26.967,20.365 25.068,22.264 22.725,22.264 ZM13.275,22.264 C10.932,22.264 9.032,20.365 9.032,18.022 C9.032,15.678 10.932,13.779 13.275,13.779 C15.619,13.779 17.518,15.678 17.518,18.022 C17.518,20.365 15.619,22.264 13.275,22.264 Z"/>
</svg>