<svg 
 xmlns="http://www.w3.org/2000/svg"
 xmlns:xlink="http://www.w3.org/1999/xlink"
 width="1.27cm" height="1.27cm">
<path fill-rule="evenodd"  fill="rgb(19, 17, 22)"
 d="M18.000,36.000 C8.059,36.000 0.000,27.941 0.000,18.000 C0.000,8.059 8.059,-0.000 18.000,-0.000 C27.941,-0.000 36.000,8.059 36.000,18.000 C36.000,27.941 27.941,36.000 18.000,36.000 ZM18.000,0.720 C8.472,0.720 0.720,8.472 0.720,18.000 C0.720,27.528 8.472,35.280 18.000,35.280 C27.528,35.280 35.280,27.528 35.280,18.000 C35.280,8.472 27.528,0.720 18.000,0.720 ZM21.772,12.972 C21.772,12.972 20.334,12.972 20.258,12.972 C19.726,12.972 19.457,13.226 19.457,13.727 L19.457,15.389 L21.772,15.389 C21.846,15.389 21.916,15.420 21.964,15.475 C22.013,15.530 22.036,15.603 22.028,15.675 L21.723,18.326 C21.708,18.456 21.598,18.554 21.467,18.554 L19.456,18.554 L19.456,25.720 C19.456,25.862 19.341,25.977 19.199,25.977 L16.234,25.977 C16.092,25.977 15.977,25.862 15.977,25.720 L15.977,18.520 L14.228,18.520 C14.086,18.520 13.970,18.405 13.970,18.263 L13.970,15.646 C13.970,15.504 14.085,15.389 14.228,15.389 L16.064,15.389 L16.064,13.446 C16.027,13.235 15.874,12.022 16.975,11.008 C17.969,10.094 19.228,10.023 19.590,10.023 C19.638,10.023 19.671,10.024 19.686,10.025 L21.772,10.025 C21.914,10.025 22.030,10.140 22.030,10.282 L22.030,12.715 C22.030,12.857 21.914,12.972 21.772,12.972 Z"/>
</svg>